M48
; DRILL file {KiCad (5.1.5-0-10_14)} date Friday, 17 July 2020 at 10:51:56 am
; FORMAT={-:-/ absolute / metric / decimal}
; #@! TF.CreationDate,2020-07-17T10:51:56+10:00
; #@! TF.GenerationSoftware,Kicad,Pcbnew,(5.1.5-0-10_14)
; #@! TF.FileFunction,Plated,1,2,PTH
FMAT,2
METRIC
T1C0.400
T2C0.500
T3C1.000
T4C3.200
T5C4.500
T6C6.250
%
G90
G05
T1
X108.0Y-95.0
X110.0Y-80.0
X110.0Y-85.0
X110.0Y-131.0
X110.0Y-136.0
X112.5Y-95.0
X115.0Y-136.0
X115.2Y-85.5
X115.5Y-88.0
X115.7Y-80.1
X116.4Y-128.2
X117.5Y-85.6
X119.054Y-104.313
X119.4Y-85.1
X119.47Y-87.97
X120.0Y-121.0
X120.0Y-126.0
X120.0Y-131.0
X120.0Y-136.0
X120.2Y-108.0
X121.25Y-85.6
X121.5Y-105.0
X122.0Y-80.0
X122.0Y-95.0
X122.7Y-83.7
X123.3Y-85.5
X123.513Y-128.213
X125.0Y-136.0
X125.7Y-121.5
X127.0Y-80.0
X127.0Y-95.0
X127.3Y-84.5
X130.0Y-136.0
X130.5Y-85.0
X132.0Y-95.0
X132.25Y-117.25
X133.709Y-88.459
X134.0Y-86.5
X134.25Y-78.5
X135.0Y-131.0
X135.0Y-136.0
X135.9Y-80.6
X135.9Y-81.8
X135.9Y-83.0
X136.25Y-89.0
X136.25Y-90.25
X136.475Y-85.427
X137.5Y-104.75
X138.3Y-119.8
X138.987Y-98.025
X139.0Y-108.25
X140.0Y-136.0
X140.5Y-105.0
X140.75Y-128.0
X142.3Y-103.9
X142.975Y-122.95
X143.5Y-95.75
X145.0Y-136.0
X150.0Y-136.0
X150.75Y-117.0
X152.25Y-95.75
X154.1Y-95.7
X155.0Y-104.75
X155.0Y-121.0
X155.0Y-126.0
X155.0Y-131.0
X155.0Y-136.0
X156.4Y-94.1
X156.5Y-108.5
X158.5Y-87.5
X159.3Y-106.8
X159.5Y-92.5
X159.75Y-85.0
X160.0Y-121.0
X160.0Y-126.0
X160.0Y-131.0
X160.0Y-136.0
X160.6Y-91.4
X164.3Y-82.6
X165.0Y-136.0
X168.75Y-117.0
X170.0Y-136.0
X172.4Y-103.15
X172.9Y-77.7
X173.1Y-83.8
X173.1Y-86.4
X173.9Y-106.9
X175.0Y-90.0
X175.0Y-94.0
X175.0Y-136.0
X175.4Y-103.65
X176.0Y-121.0
X176.0Y-126.0
X176.0Y-131.0
X176.4Y-97.9
X178.9Y-95.6
X179.1Y-80.8
X180.0Y-136.0
X180.9Y-99.1
X181.3Y-83.2
X185.6Y-114.8
X185.7Y-98.4
X187.5Y-112.1
T2
X144.1Y-82.5
X144.1Y-85.0
X147.1Y-82.5
X147.1Y-85.0
X182.8Y-137.0
X183.503Y-135.303
X183.503Y-138.697
X185.2Y-134.6
X185.2Y-139.4
X186.897Y-135.303
X186.897Y-138.697
X187.6Y-137.0
X103.4Y-137.0
X104.103Y-135.303
X104.103Y-138.697
X105.8Y-134.6
X105.8Y-139.4
X107.497Y-135.303
X107.497Y-138.697
X108.2Y-137.0
X103.4Y-79.0
X104.103Y-77.303
X104.103Y-80.697
X105.8Y-76.6
X105.8Y-81.4
X107.497Y-77.303
X107.497Y-80.697
X108.2Y-79.0
X182.8Y-79.0
X183.503Y-77.303
X183.503Y-80.697
X185.2Y-76.6
X185.2Y-81.4
X186.897Y-77.303
X186.897Y-80.697
X187.6Y-79.0
T3
X176.8Y-79.1
X176.8Y-81.64
X176.8Y-84.18
X176.8Y-86.72
X170.0Y-79.0
X170.0Y-81.54
X170.0Y-84.08
X170.0Y-86.62
X170.0Y-89.16
X170.0Y-91.7
T4
X105.8Y-79.0
X185.2Y-79.0
X185.2Y-137.0
X105.8Y-137.0
T5
X166.1Y-122.3
X166.1Y-129.5
X130.6Y-122.3
X130.6Y-129.5
X148.6Y-122.3
X148.6Y-129.5
X183.5Y-120.7
X183.5Y-127.9
T6
X110.0Y-111.0
X110.0Y-122.0
T0
M30
