M48
; DRILL file {KiCad (5.1.10-1-10_14)} date Wednesday, August 04, 2021 at 08:58:03 PM
; FORMAT={-:-/ absolute / metric / decimal}
; #@! TF.CreationDate,2021-08-04T20:58:03+10:00
; #@! TF.GenerationSoftware,Kicad,Pcbnew,(5.1.10-1-10_14)
; #@! TF.FileFunction,Plated,1,4,PTH
FMAT,2
METRIC
T1C0.400
T2C0.450
T3C0.500
T4C0.600
T5C0.700
T6C1.000
T7C2.700
T8C3.200
%
G90
G05
T1
X139.4Y-88.15
T2
X108.45Y-103.15
X108.45Y-104.45
X108.45Y-105.75
X110.95Y-90.85
X112.95Y-87.75
X115.55Y-86.15
X115.85Y-78.95
X115.85Y-90.85
X119.0Y-75.65
X119.45Y-90.85
X120.25Y-102.05
X120.85Y-106.65
X121.05Y-94.85
X121.15Y-90.05
X121.25Y-85.25
X121.55Y-86.85
X121.65Y-92.35
X121.85Y-103.15
X122.45Y-90.05
X122.45Y-94.85
X122.75Y-93.05
X122.95Y-87.55
X122.95Y-102.05
X123.85Y-85.25
X123.85Y-90.05
X124.05Y-92.95
X124.35Y-101.55
X124.55Y-98.15
X125.15Y-106.85
X125.8Y-101.25
X126.05Y-97.25
X126.85Y-106.85
X127.25Y-95.35
X127.85Y-102.45
X128.0Y-88.0
X128.25Y-99.25
X128.25Y-104.95
X128.35Y-97.25
X129.05Y-92.05
X129.4Y-95.85
X129.55Y-99.85
X129.55Y-105.55
X129.75Y-102.45
X130.25Y-88.75
X131.45Y-101.45
X131.45Y-102.95
X131.65Y-86.15
X131.85Y-119.05
X132.25Y-116.15
X132.65Y-101.05
X133.05Y-104.05
X135.15Y-92.45
X135.45Y-83.65
X135.95Y-102.4
X136.2Y-98.2
X137.05Y-116.45
X137.45Y-101.35
X137.9Y-105.55
X139.4Y-91.4
X140.9Y-89.65
X141.75Y-114.95
X141.95Y-121.25
X141.95Y-124.95
X141.95Y-129.25
X142.4Y-88.15
X142.4Y-91.4
X144.15Y-115.15
X144.2Y-105.55
X144.45Y-117.45
X145.25Y-129.25
X145.75Y-118.25
X146.75Y-115.15
X147.85Y-121.45
X148.15Y-125.15
X148.35Y-97.45
X148.4Y-105.55
X149.75Y-118.95
X149.95Y-116.75
X152.15Y-82.45
X152.15Y-86.05
X152.15Y-87.25
X154.35Y-98.85
X154.55Y-84.55
X154.8Y-105.55
X154.85Y-116.25
X155.2Y-96.1
X155.55Y-92.65
X155.75Y-78.65
X155.8Y-87.55
X155.85Y-98.85
X157.05Y-103.7
X157.05Y-103.7
X157.45Y-84.5
X157.475Y-92.675
X157.95Y-79.25
X158.54Y-76.088
X159.05Y-100.4
X159.55Y-108.45
X159.65Y-114.95
X160.35Y-121.25
X160.35Y-124.95
X160.35Y-129.25
X161.05Y-77.55
X161.25Y-76.05
X161.55Y-110.45
X161.65Y-115.45
X162.05Y-82.85
X162.05Y-84.15
X162.35Y-107.75
X162.45Y-117.35
X163.05Y-94.25
X163.05Y-103.25
X163.55Y-129.25
X163.65Y-77.25
X163.65Y-108.55
X163.65Y-117.95
X163.95Y-75.85
X163.95Y-110.45
X164.15Y-115.45
X165.35Y-92.65
X165.4Y-90.8
X165.6Y-97.75
X165.65Y-103.35
X166.0Y-122.15
X166.05Y-125.15
X166.15Y-91.75
X166.3Y-75.85
X166.35Y-108.65
X166.45Y-80.85
X167.55Y-95.75
X168.15Y-103.35
X168.35Y-85.75
X168.55Y-108.65
X169.05Y-81.75
X169.85Y-91.1
X171.05Y-101.75
X172.35Y-90.45
X172.95Y-119.85
X173.267Y-98.504
X174.25Y-83.15
X174.7Y-125.4
T3
X108.75Y-78.65
X108.75Y-130.85
X109.453Y-76.953
X109.453Y-80.347
X109.453Y-129.153
X109.453Y-132.547
X111.15Y-76.25
X111.15Y-81.05
X111.15Y-128.45
X111.15Y-133.25
X112.847Y-76.953
X112.847Y-80.347
X112.847Y-129.153
X112.847Y-132.547
X113.55Y-78.65
X113.55Y-130.85
X169.55Y-78.55
X169.55Y-130.85
X170.253Y-76.853
X170.253Y-80.247
X170.253Y-129.153
X170.253Y-132.547
X171.95Y-76.15
X171.95Y-80.95
X171.95Y-128.45
X171.95Y-133.25
X173.647Y-76.853
X173.647Y-80.247
X173.647Y-129.153
X173.647Y-132.547
X174.35Y-78.55
X174.35Y-130.85
T5
X171.05Y-89.95
X171.05Y-94.75
T6
X160.15Y-90.35
X160.15Y-92.89
X160.15Y-95.43
X160.15Y-97.97
T7
X118.15Y-87.35
X118.15Y-94.55
X118.15Y-104.65
X118.15Y-111.85
X120.05Y-123.16
X127.25Y-123.16
X138.05Y-123.15
X145.25Y-123.15
X156.07Y-123.12
X163.27Y-123.12
X167.25Y-105.95
X167.25Y-113.15
T8
X111.15Y-78.65
X111.15Y-130.85
X171.95Y-78.55
X171.95Y-130.85
T3
G00X173.55Y-95.95
M15
G01X174.35Y-95.95
M16
G05
G00X173.65Y-88.75
M15
G01X174.45Y-88.75
M16
G05
T4
G00X111.6Y-84.2
M15
G01X112.7Y-84.2
M16
G05
G00X111.6Y-97.7
M15
G01X112.7Y-97.7
M16
G05
G00X111.6Y-101.5
M15
G01X112.7Y-101.5
M16
G05
G00X111.6Y-115.0
M15
G01X112.7Y-115.0
M16
G05
G00X116.9Y-129.71
M15
G01X116.9Y-128.61
M16
G05
G00X130.4Y-129.71
M15
G01X130.4Y-128.61
M16
G05
G00X134.9Y-128.6
M15
G01X134.9Y-129.7
M16
G05
G00X148.4Y-128.6
M15
G01X148.4Y-129.7
M16
G05
G00X152.92Y-128.57
M15
G01X152.92Y-129.67
M16
G05
G00X166.42Y-128.57
M15
G01X166.42Y-129.67
M16
G05
G00X172.7Y-102.8
M15
G01X173.8Y-102.8
M16
G05
G00X172.7Y-116.3
M15
G01X173.8Y-116.3
M16
G05
T0
M30
