G04 #@! TF.GenerationSoftware,KiCad,Pcbnew,(5.1.10-1-10_14)*
G04 #@! TF.CreationDate,2021-09-03T21:49:34+10:00*
G04 #@! TF.ProjectId,esp32_battery_isolator,65737033-325f-4626-9174-746572795f69,F*
G04 #@! TF.SameCoordinates,Original*
G04 #@! TF.FileFunction,Soldermask,Top*
G04 #@! TF.FilePolarity,Negative*
%FSLAX46Y46*%
G04 Gerber Fmt 4.6, Leading zero omitted, Abs format (unit mm)*
G04 Created by KiCad (PCBNEW (5.1.10-1-10_14)) date 2021-09-03 21:49:34*
%MOMM*%
%LPD*%
G01*
G04 APERTURE LIST*
%ADD10R,0.350000X0.500000*%
%ADD11R,0.380000X0.430000*%
%ADD12R,2.450000X1.980000*%
%ADD13R,0.400000X0.300000*%
%ADD14C,3.716000*%
%ADD15O,2.600000X1.300000*%
%ADD16O,1.300000X2.600000*%
%ADD17O,1.200000X2.400000*%
%ADD18R,3.716000X3.716000*%
%ADD19R,1.400000X1.000000*%
%ADD20O,1.900000X1.070000*%
%ADD21R,1.350000X0.600000*%
%ADD22C,1.300000*%
%ADD23R,1.250000X0.400000*%
%ADD24C,0.800000*%
%ADD25C,6.400000*%
%ADD26R,1.700000X1.700000*%
%ADD27O,1.700000X1.700000*%
%ADD28R,5.000000X5.000000*%
%ADD29R,2.000000X0.900000*%
%ADD30R,0.900000X2.000000*%
%ADD31O,2.400000X1.200000*%
%ADD32R,0.900000X0.800000*%
%ADD33R,0.800000X0.900000*%
%ADD34R,0.900000X1.200000*%
%ADD35R,1.200000X0.900000*%
%ADD36R,1.800000X2.500000*%
%ADD37R,2.350000X5.100000*%
G04 APERTURE END LIST*
D10*
X122500000Y-85275000D03*
X121850000Y-85275000D03*
X123150000Y-85275000D03*
X121200000Y-85275000D03*
D11*
X123590000Y-86675000D03*
X120760000Y-86675000D03*
D12*
X122175000Y-87035000D03*
D13*
X122500000Y-88175000D03*
X123150000Y-88175000D03*
X121850000Y-88175000D03*
X121200000Y-88175000D03*
D10*
X121800000Y-92735000D03*
X122450000Y-92735000D03*
X121150000Y-92735000D03*
X123100000Y-92735000D03*
D11*
X120710000Y-91335000D03*
X123540000Y-91335000D03*
D12*
X122125000Y-90975000D03*
D13*
X121800000Y-89835000D03*
X121150000Y-89835000D03*
X122450000Y-89835000D03*
X123100000Y-89835000D03*
D10*
X145575000Y-117550000D03*
X144925000Y-117550000D03*
X146225000Y-117550000D03*
X144275000Y-117550000D03*
D11*
X146665000Y-118950000D03*
X143835000Y-118950000D03*
D12*
X145250000Y-119310000D03*
D13*
X145575000Y-120450000D03*
X146225000Y-120450000D03*
X144925000Y-120450000D03*
X144275000Y-120450000D03*
D10*
X128525000Y-105360000D03*
X129175000Y-105360000D03*
X127875000Y-105360000D03*
X129825000Y-105360000D03*
D11*
X127435000Y-103960000D03*
X130265000Y-103960000D03*
D12*
X128850000Y-103600000D03*
D13*
X128525000Y-102460000D03*
X127875000Y-102460000D03*
X129175000Y-102460000D03*
X129825000Y-102460000D03*
D10*
X163675000Y-117500000D03*
X163025000Y-117500000D03*
X164325000Y-117500000D03*
X162375000Y-117500000D03*
D11*
X164765000Y-118900000D03*
X161935000Y-118900000D03*
D12*
X163350000Y-119260000D03*
D13*
X163675000Y-120400000D03*
X164325000Y-120400000D03*
X163025000Y-120400000D03*
X162375000Y-120400000D03*
D10*
X162875000Y-108260000D03*
X163525000Y-108260000D03*
X162225000Y-108260000D03*
X164175000Y-108260000D03*
D11*
X161785000Y-106860000D03*
X164615000Y-106860000D03*
D12*
X163200000Y-106500000D03*
D13*
X162875000Y-105360000D03*
X162225000Y-105360000D03*
X163525000Y-105360000D03*
X164175000Y-105360000D03*
D10*
X129175000Y-98400000D03*
X128525000Y-98400000D03*
X129825000Y-98400000D03*
X127875000Y-98400000D03*
D11*
X130265000Y-99800000D03*
X127435000Y-99800000D03*
D12*
X128850000Y-100160000D03*
D13*
X129175000Y-101300000D03*
X129825000Y-101300000D03*
X128525000Y-101300000D03*
X127875000Y-101300000D03*
D14*
X167250000Y-113150000D03*
X167250000Y-105950000D03*
D15*
X173250000Y-116300000D03*
X173250000Y-102800000D03*
D16*
X166420000Y-129120000D03*
X152920000Y-129120000D03*
D14*
X163270000Y-123120000D03*
X156070000Y-123120000D03*
D17*
X116900000Y-129160000D03*
X130400000Y-129160000D03*
D14*
X120050000Y-123160000D03*
D18*
X127250000Y-123160000D03*
D19*
X162250000Y-73300000D03*
X155950000Y-73300000D03*
X155950000Y-70300000D03*
X162250000Y-70300000D03*
X171350000Y-73300000D03*
X165050000Y-73300000D03*
X165050000Y-70300000D03*
X171350000Y-70300000D03*
D20*
X174050000Y-88750000D03*
X173950000Y-95950000D03*
D21*
X173950000Y-91600000D03*
X173950000Y-93100000D03*
D22*
X171050000Y-89950000D03*
X171050000Y-94750000D03*
D23*
X171050000Y-91050000D03*
X171050000Y-91700000D03*
X171050000Y-92350000D03*
X171050000Y-93000000D03*
X171050000Y-93650000D03*
D24*
X112847056Y-129152944D03*
X111150000Y-128450000D03*
X109452944Y-129152944D03*
X108750000Y-130850000D03*
X109452944Y-132547056D03*
X111150000Y-133250000D03*
X112847056Y-132547056D03*
X113550000Y-130850000D03*
D25*
X111150000Y-130850000D03*
D24*
X173647056Y-76852944D03*
X171950000Y-76150000D03*
X170252944Y-76852944D03*
X169550000Y-78550000D03*
X170252944Y-80247056D03*
X171950000Y-80950000D03*
X173647056Y-80247056D03*
X174350000Y-78550000D03*
D25*
X171950000Y-78550000D03*
X171950000Y-130850000D03*
D24*
X174350000Y-130850000D03*
X173647056Y-132547056D03*
X171950000Y-133250000D03*
X170252944Y-132547056D03*
X169550000Y-130850000D03*
X170252944Y-129152944D03*
X171950000Y-128450000D03*
X173647056Y-129152944D03*
X112847056Y-70352944D03*
X111150000Y-69650000D03*
X109452944Y-70352944D03*
X108750000Y-72050000D03*
X109452944Y-73747056D03*
X111150000Y-74450000D03*
X112847056Y-73747056D03*
X113550000Y-72050000D03*
D25*
X111150000Y-72050000D03*
G36*
G01*
X130400000Y-86475000D02*
X130900000Y-86475000D01*
G75*
G02*
X131125000Y-86700000I0J-225000D01*
G01*
X131125000Y-87150000D01*
G75*
G02*
X130900000Y-87375000I-225000J0D01*
G01*
X130400000Y-87375000D01*
G75*
G02*
X130175000Y-87150000I0J225000D01*
G01*
X130175000Y-86700000D01*
G75*
G02*
X130400000Y-86475000I225000J0D01*
G01*
G37*
G36*
G01*
X130400000Y-84925000D02*
X130900000Y-84925000D01*
G75*
G02*
X131125000Y-85150000I0J-225000D01*
G01*
X131125000Y-85600000D01*
G75*
G02*
X130900000Y-85825000I-225000J0D01*
G01*
X130400000Y-85825000D01*
G75*
G02*
X130175000Y-85600000I0J225000D01*
G01*
X130175000Y-85150000D01*
G75*
G02*
X130400000Y-84925000I225000J0D01*
G01*
G37*
G36*
G01*
X156775003Y-83950000D02*
X154924997Y-83950000D01*
G75*
G02*
X154675000Y-83700003I0J249997D01*
G01*
X154675000Y-82874997D01*
G75*
G02*
X154924997Y-82625000I249997J0D01*
G01*
X156775003Y-82625000D01*
G75*
G02*
X157025000Y-82874997I0J-249997D01*
G01*
X157025000Y-83700003D01*
G75*
G02*
X156775003Y-83950000I-249997J0D01*
G01*
G37*
G36*
G01*
X156775003Y-80875000D02*
X154924997Y-80875000D01*
G75*
G02*
X154675000Y-80625003I0J249997D01*
G01*
X154675000Y-79799997D01*
G75*
G02*
X154924997Y-79550000I249997J0D01*
G01*
X156775003Y-79550000D01*
G75*
G02*
X157025000Y-79799997I0J-249997D01*
G01*
X157025000Y-80625003D01*
G75*
G02*
X156775003Y-80875000I-249997J0D01*
G01*
G37*
G36*
G01*
X158400000Y-83475000D02*
X158900000Y-83475000D01*
G75*
G02*
X159125000Y-83700000I0J-225000D01*
G01*
X159125000Y-84150000D01*
G75*
G02*
X158900000Y-84375000I-225000J0D01*
G01*
X158400000Y-84375000D01*
G75*
G02*
X158175000Y-84150000I0J225000D01*
G01*
X158175000Y-83700000D01*
G75*
G02*
X158400000Y-83475000I225000J0D01*
G01*
G37*
G36*
G01*
X158400000Y-81925000D02*
X158900000Y-81925000D01*
G75*
G02*
X159125000Y-82150000I0J-225000D01*
G01*
X159125000Y-82600000D01*
G75*
G02*
X158900000Y-82825000I-225000J0D01*
G01*
X158400000Y-82825000D01*
G75*
G02*
X158175000Y-82600000I0J225000D01*
G01*
X158175000Y-82150000D01*
G75*
G02*
X158400000Y-81925000I225000J0D01*
G01*
G37*
G36*
G01*
X158400000Y-85175000D02*
X158900000Y-85175000D01*
G75*
G02*
X159125000Y-85400000I0J-225000D01*
G01*
X159125000Y-85850000D01*
G75*
G02*
X158900000Y-86075000I-225000J0D01*
G01*
X158400000Y-86075000D01*
G75*
G02*
X158175000Y-85850000I0J225000D01*
G01*
X158175000Y-85400000D01*
G75*
G02*
X158400000Y-85175000I225000J0D01*
G01*
G37*
G36*
G01*
X158400000Y-86725000D02*
X158900000Y-86725000D01*
G75*
G02*
X159125000Y-86950000I0J-225000D01*
G01*
X159125000Y-87400000D01*
G75*
G02*
X158900000Y-87625000I-225000J0D01*
G01*
X158400000Y-87625000D01*
G75*
G02*
X158175000Y-87400000I0J225000D01*
G01*
X158175000Y-86950000D01*
G75*
G02*
X158400000Y-86725000I225000J0D01*
G01*
G37*
G36*
G01*
X154924997Y-88225000D02*
X156775003Y-88225000D01*
G75*
G02*
X157025000Y-88474997I0J-249997D01*
G01*
X157025000Y-89300003D01*
G75*
G02*
X156775003Y-89550000I-249997J0D01*
G01*
X154924997Y-89550000D01*
G75*
G02*
X154675000Y-89300003I0J249997D01*
G01*
X154675000Y-88474997D01*
G75*
G02*
X154924997Y-88225000I249997J0D01*
G01*
G37*
G36*
G01*
X154924997Y-85150000D02*
X156775003Y-85150000D01*
G75*
G02*
X157025000Y-85399997I0J-249997D01*
G01*
X157025000Y-86225003D01*
G75*
G02*
X156775003Y-86475000I-249997J0D01*
G01*
X154924997Y-86475000D01*
G75*
G02*
X154675000Y-86225003I0J249997D01*
G01*
X154675000Y-85399997D01*
G75*
G02*
X154924997Y-85150000I249997J0D01*
G01*
G37*
G36*
G01*
X161050000Y-94525000D02*
X160550000Y-94525000D01*
G75*
G02*
X160325000Y-94300000I0J225000D01*
G01*
X160325000Y-93850000D01*
G75*
G02*
X160550000Y-93625000I225000J0D01*
G01*
X161050000Y-93625000D01*
G75*
G02*
X161275000Y-93850000I0J-225000D01*
G01*
X161275000Y-94300000D01*
G75*
G02*
X161050000Y-94525000I-225000J0D01*
G01*
G37*
G36*
G01*
X161050000Y-92975000D02*
X160550000Y-92975000D01*
G75*
G02*
X160325000Y-92750000I0J225000D01*
G01*
X160325000Y-92300000D01*
G75*
G02*
X160550000Y-92075000I225000J0D01*
G01*
X161050000Y-92075000D01*
G75*
G02*
X161275000Y-92300000I0J-225000D01*
G01*
X161275000Y-92750000D01*
G75*
G02*
X161050000Y-92975000I-225000J0D01*
G01*
G37*
G36*
G01*
X160550000Y-90225000D02*
X161050000Y-90225000D01*
G75*
G02*
X161275000Y-90450000I0J-225000D01*
G01*
X161275000Y-90900000D01*
G75*
G02*
X161050000Y-91125000I-225000J0D01*
G01*
X160550000Y-91125000D01*
G75*
G02*
X160325000Y-90900000I0J225000D01*
G01*
X160325000Y-90450000D01*
G75*
G02*
X160550000Y-90225000I225000J0D01*
G01*
G37*
G36*
G01*
X160550000Y-88675000D02*
X161050000Y-88675000D01*
G75*
G02*
X161275000Y-88900000I0J-225000D01*
G01*
X161275000Y-89350000D01*
G75*
G02*
X161050000Y-89575000I-225000J0D01*
G01*
X160550000Y-89575000D01*
G75*
G02*
X160325000Y-89350000I0J225000D01*
G01*
X160325000Y-88900000D01*
G75*
G02*
X160550000Y-88675000I225000J0D01*
G01*
G37*
D26*
X158000000Y-91750000D03*
D27*
X158000000Y-94290000D03*
X158000000Y-96830000D03*
X158000000Y-99370000D03*
G36*
G01*
X129325000Y-85725000D02*
X128775000Y-85725000D01*
G75*
G02*
X128575000Y-85525000I0J200000D01*
G01*
X128575000Y-85125000D01*
G75*
G02*
X128775000Y-84925000I200000J0D01*
G01*
X129325000Y-84925000D01*
G75*
G02*
X129525000Y-85125000I0J-200000D01*
G01*
X129525000Y-85525000D01*
G75*
G02*
X129325000Y-85725000I-200000J0D01*
G01*
G37*
G36*
G01*
X129325000Y-87375000D02*
X128775000Y-87375000D01*
G75*
G02*
X128575000Y-87175000I0J200000D01*
G01*
X128575000Y-86775000D01*
G75*
G02*
X128775000Y-86575000I200000J0D01*
G01*
X129325000Y-86575000D01*
G75*
G02*
X129525000Y-86775000I0J-200000D01*
G01*
X129525000Y-87175000D01*
G75*
G02*
X129325000Y-87375000I-200000J0D01*
G01*
G37*
G36*
G01*
X133725000Y-102125000D02*
X133725000Y-102675000D01*
G75*
G02*
X133525000Y-102875000I-200000J0D01*
G01*
X133125000Y-102875000D01*
G75*
G02*
X132925000Y-102675000I0J200000D01*
G01*
X132925000Y-102125000D01*
G75*
G02*
X133125000Y-101925000I200000J0D01*
G01*
X133525000Y-101925000D01*
G75*
G02*
X133725000Y-102125000I0J-200000D01*
G01*
G37*
G36*
G01*
X135375000Y-102125000D02*
X135375000Y-102675000D01*
G75*
G02*
X135175000Y-102875000I-200000J0D01*
G01*
X134775000Y-102875000D01*
G75*
G02*
X134575000Y-102675000I0J200000D01*
G01*
X134575000Y-102125000D01*
G75*
G02*
X134775000Y-101925000I200000J0D01*
G01*
X135175000Y-101925000D01*
G75*
G02*
X135375000Y-102125000I0J-200000D01*
G01*
G37*
G36*
G01*
X154125000Y-92975000D02*
X154125000Y-93525000D01*
G75*
G02*
X153925000Y-93725000I-200000J0D01*
G01*
X153525000Y-93725000D01*
G75*
G02*
X153325000Y-93525000I0J200000D01*
G01*
X153325000Y-92975000D01*
G75*
G02*
X153525000Y-92775000I200000J0D01*
G01*
X153925000Y-92775000D01*
G75*
G02*
X154125000Y-92975000I0J-200000D01*
G01*
G37*
G36*
G01*
X155775000Y-92975000D02*
X155775000Y-93525000D01*
G75*
G02*
X155575000Y-93725000I-200000J0D01*
G01*
X155175000Y-93725000D01*
G75*
G02*
X154975000Y-93525000I0J200000D01*
G01*
X154975000Y-92975000D01*
G75*
G02*
X155175000Y-92775000I200000J0D01*
G01*
X155575000Y-92775000D01*
G75*
G02*
X155775000Y-92975000I0J-200000D01*
G01*
G37*
G36*
G01*
X155775000Y-95475000D02*
X155775000Y-96025000D01*
G75*
G02*
X155575000Y-96225000I-200000J0D01*
G01*
X155175000Y-96225000D01*
G75*
G02*
X154975000Y-96025000I0J200000D01*
G01*
X154975000Y-95475000D01*
G75*
G02*
X155175000Y-95275000I200000J0D01*
G01*
X155575000Y-95275000D01*
G75*
G02*
X155775000Y-95475000I0J-200000D01*
G01*
G37*
G36*
G01*
X154125000Y-95475000D02*
X154125000Y-96025000D01*
G75*
G02*
X153925000Y-96225000I-200000J0D01*
G01*
X153525000Y-96225000D01*
G75*
G02*
X153325000Y-96025000I0J200000D01*
G01*
X153325000Y-95475000D01*
G75*
G02*
X153525000Y-95275000I200000J0D01*
G01*
X153925000Y-95275000D01*
G75*
G02*
X154125000Y-95475000I0J-200000D01*
G01*
G37*
G36*
G01*
X157425000Y-77975000D02*
X156875000Y-77975000D01*
G75*
G02*
X156675000Y-77775000I0J200000D01*
G01*
X156675000Y-77375000D01*
G75*
G02*
X156875000Y-77175000I200000J0D01*
G01*
X157425000Y-77175000D01*
G75*
G02*
X157625000Y-77375000I0J-200000D01*
G01*
X157625000Y-77775000D01*
G75*
G02*
X157425000Y-77975000I-200000J0D01*
G01*
G37*
G36*
G01*
X157425000Y-76325000D02*
X156875000Y-76325000D01*
G75*
G02*
X156675000Y-76125000I0J200000D01*
G01*
X156675000Y-75725000D01*
G75*
G02*
X156875000Y-75525000I200000J0D01*
G01*
X157425000Y-75525000D01*
G75*
G02*
X157625000Y-75725000I0J-200000D01*
G01*
X157625000Y-76125000D01*
G75*
G02*
X157425000Y-76325000I-200000J0D01*
G01*
G37*
G36*
G01*
X165225000Y-81125000D02*
X164675000Y-81125000D01*
G75*
G02*
X164475000Y-80925000I0J200000D01*
G01*
X164475000Y-80525000D01*
G75*
G02*
X164675000Y-80325000I200000J0D01*
G01*
X165225000Y-80325000D01*
G75*
G02*
X165425000Y-80525000I0J-200000D01*
G01*
X165425000Y-80925000D01*
G75*
G02*
X165225000Y-81125000I-200000J0D01*
G01*
G37*
G36*
G01*
X165225000Y-79475000D02*
X164675000Y-79475000D01*
G75*
G02*
X164475000Y-79275000I0J200000D01*
G01*
X164475000Y-78875000D01*
G75*
G02*
X164675000Y-78675000I200000J0D01*
G01*
X165225000Y-78675000D01*
G75*
G02*
X165425000Y-78875000I0J-200000D01*
G01*
X165425000Y-79275000D01*
G75*
G02*
X165225000Y-79475000I-200000J0D01*
G01*
G37*
G36*
G01*
X165225000Y-76425000D02*
X164675000Y-76425000D01*
G75*
G02*
X164475000Y-76225000I0J200000D01*
G01*
X164475000Y-75825000D01*
G75*
G02*
X164675000Y-75625000I200000J0D01*
G01*
X165225000Y-75625000D01*
G75*
G02*
X165425000Y-75825000I0J-200000D01*
G01*
X165425000Y-76225000D01*
G75*
G02*
X165225000Y-76425000I-200000J0D01*
G01*
G37*
G36*
G01*
X165225000Y-78075000D02*
X164675000Y-78075000D01*
G75*
G02*
X164475000Y-77875000I0J200000D01*
G01*
X164475000Y-77475000D01*
G75*
G02*
X164675000Y-77275000I200000J0D01*
G01*
X165225000Y-77275000D01*
G75*
G02*
X165425000Y-77475000I0J-200000D01*
G01*
X165425000Y-77875000D01*
G75*
G02*
X165225000Y-78075000I-200000J0D01*
G01*
G37*
G36*
G01*
X167825000Y-81175000D02*
X167275000Y-81175000D01*
G75*
G02*
X167075000Y-80975000I0J200000D01*
G01*
X167075000Y-80575000D01*
G75*
G02*
X167275000Y-80375000I200000J0D01*
G01*
X167825000Y-80375000D01*
G75*
G02*
X168025000Y-80575000I0J-200000D01*
G01*
X168025000Y-80975000D01*
G75*
G02*
X167825000Y-81175000I-200000J0D01*
G01*
G37*
G36*
G01*
X167825000Y-79525000D02*
X167275000Y-79525000D01*
G75*
G02*
X167075000Y-79325000I0J200000D01*
G01*
X167075000Y-78925000D01*
G75*
G02*
X167275000Y-78725000I200000J0D01*
G01*
X167825000Y-78725000D01*
G75*
G02*
X168025000Y-78925000I0J-200000D01*
G01*
X168025000Y-79325000D01*
G75*
G02*
X167825000Y-79525000I-200000J0D01*
G01*
G37*
G36*
G01*
X167825000Y-76425000D02*
X167275000Y-76425000D01*
G75*
G02*
X167075000Y-76225000I0J200000D01*
G01*
X167075000Y-75825000D01*
G75*
G02*
X167275000Y-75625000I200000J0D01*
G01*
X167825000Y-75625000D01*
G75*
G02*
X168025000Y-75825000I0J-200000D01*
G01*
X168025000Y-76225000D01*
G75*
G02*
X167825000Y-76425000I-200000J0D01*
G01*
G37*
G36*
G01*
X167825000Y-78075000D02*
X167275000Y-78075000D01*
G75*
G02*
X167075000Y-77875000I0J200000D01*
G01*
X167075000Y-77475000D01*
G75*
G02*
X167275000Y-77275000I200000J0D01*
G01*
X167825000Y-77275000D01*
G75*
G02*
X168025000Y-77475000I0J-200000D01*
G01*
X168025000Y-77875000D01*
G75*
G02*
X167825000Y-78075000I-200000J0D01*
G01*
G37*
G36*
G01*
X126475000Y-86125000D02*
X126475000Y-85575000D01*
G75*
G02*
X126675000Y-85375000I200000J0D01*
G01*
X127075000Y-85375000D01*
G75*
G02*
X127275000Y-85575000I0J-200000D01*
G01*
X127275000Y-86125000D01*
G75*
G02*
X127075000Y-86325000I-200000J0D01*
G01*
X126675000Y-86325000D01*
G75*
G02*
X126475000Y-86125000I0J200000D01*
G01*
G37*
G36*
G01*
X124825000Y-86125000D02*
X124825000Y-85575000D01*
G75*
G02*
X125025000Y-85375000I200000J0D01*
G01*
X125425000Y-85375000D01*
G75*
G02*
X125625000Y-85575000I0J-200000D01*
G01*
X125625000Y-86125000D01*
G75*
G02*
X125425000Y-86325000I-200000J0D01*
G01*
X125025000Y-86325000D01*
G75*
G02*
X124825000Y-86125000I0J200000D01*
G01*
G37*
G36*
G01*
X122875000Y-106525000D02*
X123425000Y-106525000D01*
G75*
G02*
X123625000Y-106725000I0J-200000D01*
G01*
X123625000Y-107125000D01*
G75*
G02*
X123425000Y-107325000I-200000J0D01*
G01*
X122875000Y-107325000D01*
G75*
G02*
X122675000Y-107125000I0J200000D01*
G01*
X122675000Y-106725000D01*
G75*
G02*
X122875000Y-106525000I200000J0D01*
G01*
G37*
G36*
G01*
X122875000Y-108175000D02*
X123425000Y-108175000D01*
G75*
G02*
X123625000Y-108375000I0J-200000D01*
G01*
X123625000Y-108775000D01*
G75*
G02*
X123425000Y-108975000I-200000J0D01*
G01*
X122875000Y-108975000D01*
G75*
G02*
X122675000Y-108775000I0J200000D01*
G01*
X122675000Y-108375000D01*
G75*
G02*
X122875000Y-108175000I200000J0D01*
G01*
G37*
G36*
G01*
X134775000Y-119175000D02*
X135325000Y-119175000D01*
G75*
G02*
X135525000Y-119375000I0J-200000D01*
G01*
X135525000Y-119775000D01*
G75*
G02*
X135325000Y-119975000I-200000J0D01*
G01*
X134775000Y-119975000D01*
G75*
G02*
X134575000Y-119775000I0J200000D01*
G01*
X134575000Y-119375000D01*
G75*
G02*
X134775000Y-119175000I200000J0D01*
G01*
G37*
G36*
G01*
X134775000Y-117525000D02*
X135325000Y-117525000D01*
G75*
G02*
X135525000Y-117725000I0J-200000D01*
G01*
X135525000Y-118125000D01*
G75*
G02*
X135325000Y-118325000I-200000J0D01*
G01*
X134775000Y-118325000D01*
G75*
G02*
X134575000Y-118125000I0J200000D01*
G01*
X134575000Y-117725000D01*
G75*
G02*
X134775000Y-117525000I200000J0D01*
G01*
G37*
G36*
G01*
X152575000Y-117525000D02*
X153125000Y-117525000D01*
G75*
G02*
X153325000Y-117725000I0J-200000D01*
G01*
X153325000Y-118125000D01*
G75*
G02*
X153125000Y-118325000I-200000J0D01*
G01*
X152575000Y-118325000D01*
G75*
G02*
X152375000Y-118125000I0J200000D01*
G01*
X152375000Y-117725000D01*
G75*
G02*
X152575000Y-117525000I200000J0D01*
G01*
G37*
G36*
G01*
X152575000Y-119175000D02*
X153125000Y-119175000D01*
G75*
G02*
X153325000Y-119375000I0J-200000D01*
G01*
X153325000Y-119775000D01*
G75*
G02*
X153125000Y-119975000I-200000J0D01*
G01*
X152575000Y-119975000D01*
G75*
G02*
X152375000Y-119775000I0J200000D01*
G01*
X152375000Y-119375000D01*
G75*
G02*
X152575000Y-119175000I200000J0D01*
G01*
G37*
G36*
G01*
X167975000Y-83425000D02*
X167975000Y-82875000D01*
G75*
G02*
X168175000Y-82675000I200000J0D01*
G01*
X168575000Y-82675000D01*
G75*
G02*
X168775000Y-82875000I0J-200000D01*
G01*
X168775000Y-83425000D01*
G75*
G02*
X168575000Y-83625000I-200000J0D01*
G01*
X168175000Y-83625000D01*
G75*
G02*
X167975000Y-83425000I0J200000D01*
G01*
G37*
G36*
G01*
X169625000Y-83425000D02*
X169625000Y-82875000D01*
G75*
G02*
X169825000Y-82675000I200000J0D01*
G01*
X170225000Y-82675000D01*
G75*
G02*
X170425000Y-82875000I0J-200000D01*
G01*
X170425000Y-83425000D01*
G75*
G02*
X170225000Y-83625000I-200000J0D01*
G01*
X169825000Y-83625000D01*
G75*
G02*
X169625000Y-83425000I0J200000D01*
G01*
G37*
G36*
G01*
X172875000Y-83425000D02*
X172875000Y-82875000D01*
G75*
G02*
X173075000Y-82675000I200000J0D01*
G01*
X173475000Y-82675000D01*
G75*
G02*
X173675000Y-82875000I0J-200000D01*
G01*
X173675000Y-83425000D01*
G75*
G02*
X173475000Y-83625000I-200000J0D01*
G01*
X173075000Y-83625000D01*
G75*
G02*
X172875000Y-83425000I0J200000D01*
G01*
G37*
G36*
G01*
X171225000Y-83425000D02*
X171225000Y-82875000D01*
G75*
G02*
X171425000Y-82675000I200000J0D01*
G01*
X171825000Y-82675000D01*
G75*
G02*
X172025000Y-82875000I0J-200000D01*
G01*
X172025000Y-83425000D01*
G75*
G02*
X171825000Y-83625000I-200000J0D01*
G01*
X171425000Y-83625000D01*
G75*
G02*
X171225000Y-83425000I0J200000D01*
G01*
G37*
G36*
G01*
X170625000Y-99325000D02*
X170075000Y-99325000D01*
G75*
G02*
X169875000Y-99125000I0J200000D01*
G01*
X169875000Y-98725000D01*
G75*
G02*
X170075000Y-98525000I200000J0D01*
G01*
X170625000Y-98525000D01*
G75*
G02*
X170825000Y-98725000I0J-200000D01*
G01*
X170825000Y-99125000D01*
G75*
G02*
X170625000Y-99325000I-200000J0D01*
G01*
G37*
G36*
G01*
X170625000Y-100975000D02*
X170075000Y-100975000D01*
G75*
G02*
X169875000Y-100775000I0J200000D01*
G01*
X169875000Y-100375000D01*
G75*
G02*
X170075000Y-100175000I200000J0D01*
G01*
X170625000Y-100175000D01*
G75*
G02*
X170825000Y-100375000I0J-200000D01*
G01*
X170825000Y-100775000D01*
G75*
G02*
X170625000Y-100975000I-200000J0D01*
G01*
G37*
G36*
G01*
X162625000Y-81125000D02*
X162075000Y-81125000D01*
G75*
G02*
X161875000Y-80925000I0J200000D01*
G01*
X161875000Y-80525000D01*
G75*
G02*
X162075000Y-80325000I200000J0D01*
G01*
X162625000Y-80325000D01*
G75*
G02*
X162825000Y-80525000I0J-200000D01*
G01*
X162825000Y-80925000D01*
G75*
G02*
X162625000Y-81125000I-200000J0D01*
G01*
G37*
G36*
G01*
X162625000Y-79475000D02*
X162075000Y-79475000D01*
G75*
G02*
X161875000Y-79275000I0J200000D01*
G01*
X161875000Y-78875000D01*
G75*
G02*
X162075000Y-78675000I200000J0D01*
G01*
X162625000Y-78675000D01*
G75*
G02*
X162825000Y-78875000I0J-200000D01*
G01*
X162825000Y-79275000D01*
G75*
G02*
X162625000Y-79475000I-200000J0D01*
G01*
G37*
G36*
G01*
X162625000Y-78075000D02*
X162075000Y-78075000D01*
G75*
G02*
X161875000Y-77875000I0J200000D01*
G01*
X161875000Y-77475000D01*
G75*
G02*
X162075000Y-77275000I200000J0D01*
G01*
X162625000Y-77275000D01*
G75*
G02*
X162825000Y-77475000I0J-200000D01*
G01*
X162825000Y-77875000D01*
G75*
G02*
X162625000Y-78075000I-200000J0D01*
G01*
G37*
G36*
G01*
X162625000Y-76425000D02*
X162075000Y-76425000D01*
G75*
G02*
X161875000Y-76225000I0J200000D01*
G01*
X161875000Y-75825000D01*
G75*
G02*
X162075000Y-75625000I200000J0D01*
G01*
X162625000Y-75625000D01*
G75*
G02*
X162825000Y-75825000I0J-200000D01*
G01*
X162825000Y-76225000D01*
G75*
G02*
X162625000Y-76425000I-200000J0D01*
G01*
G37*
G36*
G01*
X159925000Y-79475000D02*
X159375000Y-79475000D01*
G75*
G02*
X159175000Y-79275000I0J200000D01*
G01*
X159175000Y-78875000D01*
G75*
G02*
X159375000Y-78675000I200000J0D01*
G01*
X159925000Y-78675000D01*
G75*
G02*
X160125000Y-78875000I0J-200000D01*
G01*
X160125000Y-79275000D01*
G75*
G02*
X159925000Y-79475000I-200000J0D01*
G01*
G37*
G36*
G01*
X159925000Y-81125000D02*
X159375000Y-81125000D01*
G75*
G02*
X159175000Y-80925000I0J200000D01*
G01*
X159175000Y-80525000D01*
G75*
G02*
X159375000Y-80325000I200000J0D01*
G01*
X159925000Y-80325000D01*
G75*
G02*
X160125000Y-80525000I0J-200000D01*
G01*
X160125000Y-80925000D01*
G75*
G02*
X159925000Y-81125000I-200000J0D01*
G01*
G37*
G36*
G01*
X159925000Y-78075000D02*
X159375000Y-78075000D01*
G75*
G02*
X159175000Y-77875000I0J200000D01*
G01*
X159175000Y-77475000D01*
G75*
G02*
X159375000Y-77275000I200000J0D01*
G01*
X159925000Y-77275000D01*
G75*
G02*
X160125000Y-77475000I0J-200000D01*
G01*
X160125000Y-77875000D01*
G75*
G02*
X159925000Y-78075000I-200000J0D01*
G01*
G37*
G36*
G01*
X159925000Y-76425000D02*
X159375000Y-76425000D01*
G75*
G02*
X159175000Y-76225000I0J200000D01*
G01*
X159175000Y-75825000D01*
G75*
G02*
X159375000Y-75625000I200000J0D01*
G01*
X159925000Y-75625000D01*
G75*
G02*
X160125000Y-75825000I0J-200000D01*
G01*
X160125000Y-76225000D01*
G75*
G02*
X159925000Y-76425000I-200000J0D01*
G01*
G37*
D28*
X140900000Y-89720000D03*
D29*
X133400000Y-82220000D03*
X133400000Y-83490000D03*
X133400000Y-84760000D03*
X133400000Y-86030000D03*
X133400000Y-87300000D03*
X133400000Y-88570000D03*
X133400000Y-89840000D03*
X133400000Y-91110000D03*
X133400000Y-92380000D03*
X133400000Y-93650000D03*
X133400000Y-94920000D03*
X133400000Y-96190000D03*
X133400000Y-97460000D03*
X133400000Y-98730000D03*
D30*
X136185000Y-99730000D03*
X137455000Y-99730000D03*
X138725000Y-99730000D03*
X139995000Y-99730000D03*
X141265000Y-99730000D03*
X142535000Y-99730000D03*
X143805000Y-99730000D03*
X145075000Y-99730000D03*
X146345000Y-99730000D03*
X147615000Y-99730000D03*
D29*
X150400000Y-98730000D03*
X150400000Y-97460000D03*
X150400000Y-96190000D03*
X150400000Y-94920000D03*
X150400000Y-93650000D03*
X150400000Y-92380000D03*
X150400000Y-91110000D03*
X150400000Y-89840000D03*
X150400000Y-88570000D03*
X150400000Y-87300000D03*
X150400000Y-86030000D03*
X150400000Y-84760000D03*
X150400000Y-83490000D03*
X150400000Y-82220000D03*
G36*
G01*
X159850000Y-82375000D02*
X159850000Y-82175000D01*
G75*
G02*
X159950000Y-82075000I100000J0D01*
G01*
X161225000Y-82075000D01*
G75*
G02*
X161325000Y-82175000I0J-100000D01*
G01*
X161325000Y-82375000D01*
G75*
G02*
X161225000Y-82475000I-100000J0D01*
G01*
X159950000Y-82475000D01*
G75*
G02*
X159850000Y-82375000I0J100000D01*
G01*
G37*
G36*
G01*
X159850000Y-83025000D02*
X159850000Y-82825000D01*
G75*
G02*
X159950000Y-82725000I100000J0D01*
G01*
X161225000Y-82725000D01*
G75*
G02*
X161325000Y-82825000I0J-100000D01*
G01*
X161325000Y-83025000D01*
G75*
G02*
X161225000Y-83125000I-100000J0D01*
G01*
X159950000Y-83125000D01*
G75*
G02*
X159850000Y-83025000I0J100000D01*
G01*
G37*
G36*
G01*
X159850000Y-83675000D02*
X159850000Y-83475000D01*
G75*
G02*
X159950000Y-83375000I100000J0D01*
G01*
X161225000Y-83375000D01*
G75*
G02*
X161325000Y-83475000I0J-100000D01*
G01*
X161325000Y-83675000D01*
G75*
G02*
X161225000Y-83775000I-100000J0D01*
G01*
X159950000Y-83775000D01*
G75*
G02*
X159850000Y-83675000I0J100000D01*
G01*
G37*
G36*
G01*
X159850000Y-84325000D02*
X159850000Y-84125000D01*
G75*
G02*
X159950000Y-84025000I100000J0D01*
G01*
X161225000Y-84025000D01*
G75*
G02*
X161325000Y-84125000I0J-100000D01*
G01*
X161325000Y-84325000D01*
G75*
G02*
X161225000Y-84425000I-100000J0D01*
G01*
X159950000Y-84425000D01*
G75*
G02*
X159850000Y-84325000I0J100000D01*
G01*
G37*
G36*
G01*
X159850000Y-84975000D02*
X159850000Y-84775000D01*
G75*
G02*
X159950000Y-84675000I100000J0D01*
G01*
X161225000Y-84675000D01*
G75*
G02*
X161325000Y-84775000I0J-100000D01*
G01*
X161325000Y-84975000D01*
G75*
G02*
X161225000Y-85075000I-100000J0D01*
G01*
X159950000Y-85075000D01*
G75*
G02*
X159850000Y-84975000I0J100000D01*
G01*
G37*
G36*
G01*
X159850000Y-85625000D02*
X159850000Y-85425000D01*
G75*
G02*
X159950000Y-85325000I100000J0D01*
G01*
X161225000Y-85325000D01*
G75*
G02*
X161325000Y-85425000I0J-100000D01*
G01*
X161325000Y-85625000D01*
G75*
G02*
X161225000Y-85725000I-100000J0D01*
G01*
X159950000Y-85725000D01*
G75*
G02*
X159850000Y-85625000I0J100000D01*
G01*
G37*
G36*
G01*
X159850000Y-86275000D02*
X159850000Y-86075000D01*
G75*
G02*
X159950000Y-85975000I100000J0D01*
G01*
X161225000Y-85975000D01*
G75*
G02*
X161325000Y-86075000I0J-100000D01*
G01*
X161325000Y-86275000D01*
G75*
G02*
X161225000Y-86375000I-100000J0D01*
G01*
X159950000Y-86375000D01*
G75*
G02*
X159850000Y-86275000I0J100000D01*
G01*
G37*
G36*
G01*
X159850000Y-86925000D02*
X159850000Y-86725000D01*
G75*
G02*
X159950000Y-86625000I100000J0D01*
G01*
X161225000Y-86625000D01*
G75*
G02*
X161325000Y-86725000I0J-100000D01*
G01*
X161325000Y-86925000D01*
G75*
G02*
X161225000Y-87025000I-100000J0D01*
G01*
X159950000Y-87025000D01*
G75*
G02*
X159850000Y-86925000I0J100000D01*
G01*
G37*
G36*
G01*
X165575000Y-86925000D02*
X165575000Y-86725000D01*
G75*
G02*
X165675000Y-86625000I100000J0D01*
G01*
X166950000Y-86625000D01*
G75*
G02*
X167050000Y-86725000I0J-100000D01*
G01*
X167050000Y-86925000D01*
G75*
G02*
X166950000Y-87025000I-100000J0D01*
G01*
X165675000Y-87025000D01*
G75*
G02*
X165575000Y-86925000I0J100000D01*
G01*
G37*
G36*
G01*
X165575000Y-86275000D02*
X165575000Y-86075000D01*
G75*
G02*
X165675000Y-85975000I100000J0D01*
G01*
X166950000Y-85975000D01*
G75*
G02*
X167050000Y-86075000I0J-100000D01*
G01*
X167050000Y-86275000D01*
G75*
G02*
X166950000Y-86375000I-100000J0D01*
G01*
X165675000Y-86375000D01*
G75*
G02*
X165575000Y-86275000I0J100000D01*
G01*
G37*
G36*
G01*
X165575000Y-85625000D02*
X165575000Y-85425000D01*
G75*
G02*
X165675000Y-85325000I100000J0D01*
G01*
X166950000Y-85325000D01*
G75*
G02*
X167050000Y-85425000I0J-100000D01*
G01*
X167050000Y-85625000D01*
G75*
G02*
X166950000Y-85725000I-100000J0D01*
G01*
X165675000Y-85725000D01*
G75*
G02*
X165575000Y-85625000I0J100000D01*
G01*
G37*
G36*
G01*
X165575000Y-84975000D02*
X165575000Y-84775000D01*
G75*
G02*
X165675000Y-84675000I100000J0D01*
G01*
X166950000Y-84675000D01*
G75*
G02*
X167050000Y-84775000I0J-100000D01*
G01*
X167050000Y-84975000D01*
G75*
G02*
X166950000Y-85075000I-100000J0D01*
G01*
X165675000Y-85075000D01*
G75*
G02*
X165575000Y-84975000I0J100000D01*
G01*
G37*
G36*
G01*
X165575000Y-84325000D02*
X165575000Y-84125000D01*
G75*
G02*
X165675000Y-84025000I100000J0D01*
G01*
X166950000Y-84025000D01*
G75*
G02*
X167050000Y-84125000I0J-100000D01*
G01*
X167050000Y-84325000D01*
G75*
G02*
X166950000Y-84425000I-100000J0D01*
G01*
X165675000Y-84425000D01*
G75*
G02*
X165575000Y-84325000I0J100000D01*
G01*
G37*
G36*
G01*
X165575000Y-83675000D02*
X165575000Y-83475000D01*
G75*
G02*
X165675000Y-83375000I100000J0D01*
G01*
X166950000Y-83375000D01*
G75*
G02*
X167050000Y-83475000I0J-100000D01*
G01*
X167050000Y-83675000D01*
G75*
G02*
X166950000Y-83775000I-100000J0D01*
G01*
X165675000Y-83775000D01*
G75*
G02*
X165575000Y-83675000I0J100000D01*
G01*
G37*
G36*
G01*
X165575000Y-83025000D02*
X165575000Y-82825000D01*
G75*
G02*
X165675000Y-82725000I100000J0D01*
G01*
X166950000Y-82725000D01*
G75*
G02*
X167050000Y-82825000I0J-100000D01*
G01*
X167050000Y-83025000D01*
G75*
G02*
X166950000Y-83125000I-100000J0D01*
G01*
X165675000Y-83125000D01*
G75*
G02*
X165575000Y-83025000I0J100000D01*
G01*
G37*
G36*
G01*
X165575000Y-82375000D02*
X165575000Y-82175000D01*
G75*
G02*
X165675000Y-82075000I100000J0D01*
G01*
X166950000Y-82075000D01*
G75*
G02*
X167050000Y-82175000I0J-100000D01*
G01*
X167050000Y-82375000D01*
G75*
G02*
X166950000Y-82475000I-100000J0D01*
G01*
X165675000Y-82475000D01*
G75*
G02*
X165575000Y-82375000I0J100000D01*
G01*
G37*
G36*
G01*
X129950000Y-92195000D02*
X129950000Y-91895000D01*
G75*
G02*
X130100000Y-91745000I150000J0D01*
G01*
X131450000Y-91745000D01*
G75*
G02*
X131600000Y-91895000I0J-150000D01*
G01*
X131600000Y-92195000D01*
G75*
G02*
X131450000Y-92345000I-150000J0D01*
G01*
X130100000Y-92345000D01*
G75*
G02*
X129950000Y-92195000I0J150000D01*
G01*
G37*
G36*
G01*
X129950000Y-93465000D02*
X129950000Y-93165000D01*
G75*
G02*
X130100000Y-93015000I150000J0D01*
G01*
X131450000Y-93015000D01*
G75*
G02*
X131600000Y-93165000I0J-150000D01*
G01*
X131600000Y-93465000D01*
G75*
G02*
X131450000Y-93615000I-150000J0D01*
G01*
X130100000Y-93615000D01*
G75*
G02*
X129950000Y-93465000I0J150000D01*
G01*
G37*
G36*
G01*
X129950000Y-94735000D02*
X129950000Y-94435000D01*
G75*
G02*
X130100000Y-94285000I150000J0D01*
G01*
X131450000Y-94285000D01*
G75*
G02*
X131600000Y-94435000I0J-150000D01*
G01*
X131600000Y-94735000D01*
G75*
G02*
X131450000Y-94885000I-150000J0D01*
G01*
X130100000Y-94885000D01*
G75*
G02*
X129950000Y-94735000I0J150000D01*
G01*
G37*
G36*
G01*
X129950000Y-96005000D02*
X129950000Y-95705000D01*
G75*
G02*
X130100000Y-95555000I150000J0D01*
G01*
X131450000Y-95555000D01*
G75*
G02*
X131600000Y-95705000I0J-150000D01*
G01*
X131600000Y-96005000D01*
G75*
G02*
X131450000Y-96155000I-150000J0D01*
G01*
X130100000Y-96155000D01*
G75*
G02*
X129950000Y-96005000I0J150000D01*
G01*
G37*
G36*
G01*
X124700000Y-96005000D02*
X124700000Y-95705000D01*
G75*
G02*
X124850000Y-95555000I150000J0D01*
G01*
X126200000Y-95555000D01*
G75*
G02*
X126350000Y-95705000I0J-150000D01*
G01*
X126350000Y-96005000D01*
G75*
G02*
X126200000Y-96155000I-150000J0D01*
G01*
X124850000Y-96155000D01*
G75*
G02*
X124700000Y-96005000I0J150000D01*
G01*
G37*
G36*
G01*
X124700000Y-94735000D02*
X124700000Y-94435000D01*
G75*
G02*
X124850000Y-94285000I150000J0D01*
G01*
X126200000Y-94285000D01*
G75*
G02*
X126350000Y-94435000I0J-150000D01*
G01*
X126350000Y-94735000D01*
G75*
G02*
X126200000Y-94885000I-150000J0D01*
G01*
X124850000Y-94885000D01*
G75*
G02*
X124700000Y-94735000I0J150000D01*
G01*
G37*
G36*
G01*
X124700000Y-93465000D02*
X124700000Y-93165000D01*
G75*
G02*
X124850000Y-93015000I150000J0D01*
G01*
X126200000Y-93015000D01*
G75*
G02*
X126350000Y-93165000I0J-150000D01*
G01*
X126350000Y-93465000D01*
G75*
G02*
X126200000Y-93615000I-150000J0D01*
G01*
X124850000Y-93615000D01*
G75*
G02*
X124700000Y-93465000I0J150000D01*
G01*
G37*
G36*
G01*
X124700000Y-92195000D02*
X124700000Y-91895000D01*
G75*
G02*
X124850000Y-91745000I150000J0D01*
G01*
X126200000Y-91745000D01*
G75*
G02*
X126350000Y-91895000I0J-150000D01*
G01*
X126350000Y-92195000D01*
G75*
G02*
X126200000Y-92345000I-150000J0D01*
G01*
X124850000Y-92345000D01*
G75*
G02*
X124700000Y-92195000I0J150000D01*
G01*
G37*
G36*
G01*
X169050000Y-92855000D02*
X169050000Y-93155000D01*
G75*
G02*
X168900000Y-93305000I-150000J0D01*
G01*
X167250000Y-93305000D01*
G75*
G02*
X167100000Y-93155000I0J150000D01*
G01*
X167100000Y-92855000D01*
G75*
G02*
X167250000Y-92705000I150000J0D01*
G01*
X168900000Y-92705000D01*
G75*
G02*
X169050000Y-92855000I0J-150000D01*
G01*
G37*
G36*
G01*
X169050000Y-91585000D02*
X169050000Y-91885000D01*
G75*
G02*
X168900000Y-92035000I-150000J0D01*
G01*
X167250000Y-92035000D01*
G75*
G02*
X167100000Y-91885000I0J150000D01*
G01*
X167100000Y-91585000D01*
G75*
G02*
X167250000Y-91435000I150000J0D01*
G01*
X168900000Y-91435000D01*
G75*
G02*
X169050000Y-91585000I0J-150000D01*
G01*
G37*
G36*
G01*
X169050000Y-90315000D02*
X169050000Y-90615000D01*
G75*
G02*
X168900000Y-90765000I-150000J0D01*
G01*
X167250000Y-90765000D01*
G75*
G02*
X167100000Y-90615000I0J150000D01*
G01*
X167100000Y-90315000D01*
G75*
G02*
X167250000Y-90165000I150000J0D01*
G01*
X168900000Y-90165000D01*
G75*
G02*
X169050000Y-90315000I0J-150000D01*
G01*
G37*
G36*
G01*
X169050000Y-89045000D02*
X169050000Y-89345000D01*
G75*
G02*
X168900000Y-89495000I-150000J0D01*
G01*
X167250000Y-89495000D01*
G75*
G02*
X167100000Y-89345000I0J150000D01*
G01*
X167100000Y-89045000D01*
G75*
G02*
X167250000Y-88895000I150000J0D01*
G01*
X168900000Y-88895000D01*
G75*
G02*
X169050000Y-89045000I0J-150000D01*
G01*
G37*
G36*
G01*
X164100000Y-89045000D02*
X164100000Y-89345000D01*
G75*
G02*
X163950000Y-89495000I-150000J0D01*
G01*
X162300000Y-89495000D01*
G75*
G02*
X162150000Y-89345000I0J150000D01*
G01*
X162150000Y-89045000D01*
G75*
G02*
X162300000Y-88895000I150000J0D01*
G01*
X163950000Y-88895000D01*
G75*
G02*
X164100000Y-89045000I0J-150000D01*
G01*
G37*
G36*
G01*
X164100000Y-90315000D02*
X164100000Y-90615000D01*
G75*
G02*
X163950000Y-90765000I-150000J0D01*
G01*
X162300000Y-90765000D01*
G75*
G02*
X162150000Y-90615000I0J150000D01*
G01*
X162150000Y-90315000D01*
G75*
G02*
X162300000Y-90165000I150000J0D01*
G01*
X163950000Y-90165000D01*
G75*
G02*
X164100000Y-90315000I0J-150000D01*
G01*
G37*
G36*
G01*
X164100000Y-91585000D02*
X164100000Y-91885000D01*
G75*
G02*
X163950000Y-92035000I-150000J0D01*
G01*
X162300000Y-92035000D01*
G75*
G02*
X162150000Y-91885000I0J150000D01*
G01*
X162150000Y-91585000D01*
G75*
G02*
X162300000Y-91435000I150000J0D01*
G01*
X163950000Y-91435000D01*
G75*
G02*
X164100000Y-91585000I0J-150000D01*
G01*
G37*
G36*
G01*
X164100000Y-92855000D02*
X164100000Y-93155000D01*
G75*
G02*
X163950000Y-93305000I-150000J0D01*
G01*
X162300000Y-93305000D01*
G75*
G02*
X162150000Y-93155000I0J150000D01*
G01*
X162150000Y-92855000D01*
G75*
G02*
X162300000Y-92705000I150000J0D01*
G01*
X163950000Y-92705000D01*
G75*
G02*
X164100000Y-92855000I0J-150000D01*
G01*
G37*
G36*
G01*
X122145000Y-105850000D02*
X121845000Y-105850000D01*
G75*
G02*
X121695000Y-105700000I0J150000D01*
G01*
X121695000Y-104350000D01*
G75*
G02*
X121845000Y-104200000I150000J0D01*
G01*
X122145000Y-104200000D01*
G75*
G02*
X122295000Y-104350000I0J-150000D01*
G01*
X122295000Y-105700000D01*
G75*
G02*
X122145000Y-105850000I-150000J0D01*
G01*
G37*
G36*
G01*
X123415000Y-105850000D02*
X123115000Y-105850000D01*
G75*
G02*
X122965000Y-105700000I0J150000D01*
G01*
X122965000Y-104350000D01*
G75*
G02*
X123115000Y-104200000I150000J0D01*
G01*
X123415000Y-104200000D01*
G75*
G02*
X123565000Y-104350000I0J-150000D01*
G01*
X123565000Y-105700000D01*
G75*
G02*
X123415000Y-105850000I-150000J0D01*
G01*
G37*
G36*
G01*
X124685000Y-105850000D02*
X124385000Y-105850000D01*
G75*
G02*
X124235000Y-105700000I0J150000D01*
G01*
X124235000Y-104350000D01*
G75*
G02*
X124385000Y-104200000I150000J0D01*
G01*
X124685000Y-104200000D01*
G75*
G02*
X124835000Y-104350000I0J-150000D01*
G01*
X124835000Y-105700000D01*
G75*
G02*
X124685000Y-105850000I-150000J0D01*
G01*
G37*
G36*
G01*
X125955000Y-105850000D02*
X125655000Y-105850000D01*
G75*
G02*
X125505000Y-105700000I0J150000D01*
G01*
X125505000Y-104350000D01*
G75*
G02*
X125655000Y-104200000I150000J0D01*
G01*
X125955000Y-104200000D01*
G75*
G02*
X126105000Y-104350000I0J-150000D01*
G01*
X126105000Y-105700000D01*
G75*
G02*
X125955000Y-105850000I-150000J0D01*
G01*
G37*
G36*
G01*
X125955000Y-100600000D02*
X125655000Y-100600000D01*
G75*
G02*
X125505000Y-100450000I0J150000D01*
G01*
X125505000Y-99100000D01*
G75*
G02*
X125655000Y-98950000I150000J0D01*
G01*
X125955000Y-98950000D01*
G75*
G02*
X126105000Y-99100000I0J-150000D01*
G01*
X126105000Y-100450000D01*
G75*
G02*
X125955000Y-100600000I-150000J0D01*
G01*
G37*
G36*
G01*
X124685000Y-100600000D02*
X124385000Y-100600000D01*
G75*
G02*
X124235000Y-100450000I0J150000D01*
G01*
X124235000Y-99100000D01*
G75*
G02*
X124385000Y-98950000I150000J0D01*
G01*
X124685000Y-98950000D01*
G75*
G02*
X124835000Y-99100000I0J-150000D01*
G01*
X124835000Y-100450000D01*
G75*
G02*
X124685000Y-100600000I-150000J0D01*
G01*
G37*
G36*
G01*
X123415000Y-100600000D02*
X123115000Y-100600000D01*
G75*
G02*
X122965000Y-100450000I0J150000D01*
G01*
X122965000Y-99100000D01*
G75*
G02*
X123115000Y-98950000I150000J0D01*
G01*
X123415000Y-98950000D01*
G75*
G02*
X123565000Y-99100000I0J-150000D01*
G01*
X123565000Y-100450000D01*
G75*
G02*
X123415000Y-100600000I-150000J0D01*
G01*
G37*
G36*
G01*
X122145000Y-100600000D02*
X121845000Y-100600000D01*
G75*
G02*
X121695000Y-100450000I0J150000D01*
G01*
X121695000Y-99100000D01*
G75*
G02*
X121845000Y-98950000I150000J0D01*
G01*
X122145000Y-98950000D01*
G75*
G02*
X122295000Y-99100000I0J-150000D01*
G01*
X122295000Y-100450000D01*
G75*
G02*
X122145000Y-100600000I-150000J0D01*
G01*
G37*
D18*
X118150000Y-94550000D03*
D14*
X118150000Y-87350000D03*
D31*
X112150000Y-97700000D03*
X112150000Y-84200000D03*
X112150000Y-101500000D03*
X112150000Y-115000000D03*
D14*
X118150000Y-104650000D03*
D18*
X118150000Y-111850000D03*
D16*
X148400000Y-129150000D03*
X134900000Y-129150000D03*
D14*
X145250000Y-123150000D03*
X138050000Y-123150000D03*
D32*
X127050000Y-89900000D03*
X127050000Y-88000000D03*
X125050000Y-88950000D03*
D33*
X139000000Y-117550000D03*
X137100000Y-117550000D03*
X138050000Y-119550000D03*
D32*
X132150000Y-105400000D03*
X134150000Y-104450000D03*
X134150000Y-106350000D03*
D33*
X155850000Y-119550000D03*
X154900000Y-117550000D03*
X156800000Y-117550000D03*
D32*
X174100000Y-100500000D03*
X174100000Y-98600000D03*
X172100000Y-99550000D03*
D33*
X167200000Y-97350000D03*
X169100000Y-97350000D03*
X168150000Y-95350000D03*
G36*
G01*
X129625000Y-89875000D02*
X129625000Y-90425000D01*
G75*
G02*
X129425000Y-90625000I-200000J0D01*
G01*
X129025000Y-90625000D01*
G75*
G02*
X128825000Y-90425000I0J200000D01*
G01*
X128825000Y-89875000D01*
G75*
G02*
X129025000Y-89675000I200000J0D01*
G01*
X129425000Y-89675000D01*
G75*
G02*
X129625000Y-89875000I0J-200000D01*
G01*
G37*
G36*
G01*
X131275000Y-89875000D02*
X131275000Y-90425000D01*
G75*
G02*
X131075000Y-90625000I-200000J0D01*
G01*
X130675000Y-90625000D01*
G75*
G02*
X130475000Y-90425000I0J200000D01*
G01*
X130475000Y-89875000D01*
G75*
G02*
X130675000Y-89675000I200000J0D01*
G01*
X131075000Y-89675000D01*
G75*
G02*
X131275000Y-89875000I0J-200000D01*
G01*
G37*
G36*
G01*
X132975000Y-119175000D02*
X133525000Y-119175000D01*
G75*
G02*
X133725000Y-119375000I0J-200000D01*
G01*
X133725000Y-119775000D01*
G75*
G02*
X133525000Y-119975000I-200000J0D01*
G01*
X132975000Y-119975000D01*
G75*
G02*
X132775000Y-119775000I0J200000D01*
G01*
X132775000Y-119375000D01*
G75*
G02*
X132975000Y-119175000I200000J0D01*
G01*
G37*
G36*
G01*
X132975000Y-117525000D02*
X133525000Y-117525000D01*
G75*
G02*
X133725000Y-117725000I0J-200000D01*
G01*
X133725000Y-118125000D01*
G75*
G02*
X133525000Y-118325000I-200000J0D01*
G01*
X132975000Y-118325000D01*
G75*
G02*
X132775000Y-118125000I0J200000D01*
G01*
X132775000Y-117725000D01*
G75*
G02*
X132975000Y-117525000I200000J0D01*
G01*
G37*
G36*
G01*
X135625000Y-103925000D02*
X136175000Y-103925000D01*
G75*
G02*
X136375000Y-104125000I0J-200000D01*
G01*
X136375000Y-104525000D01*
G75*
G02*
X136175000Y-104725000I-200000J0D01*
G01*
X135625000Y-104725000D01*
G75*
G02*
X135425000Y-104525000I0J200000D01*
G01*
X135425000Y-104125000D01*
G75*
G02*
X135625000Y-103925000I200000J0D01*
G01*
G37*
G36*
G01*
X135625000Y-105575000D02*
X136175000Y-105575000D01*
G75*
G02*
X136375000Y-105775000I0J-200000D01*
G01*
X136375000Y-106175000D01*
G75*
G02*
X136175000Y-106375000I-200000J0D01*
G01*
X135625000Y-106375000D01*
G75*
G02*
X135425000Y-106175000I0J200000D01*
G01*
X135425000Y-105775000D01*
G75*
G02*
X135625000Y-105575000I200000J0D01*
G01*
G37*
G36*
G01*
X150775000Y-117525000D02*
X151325000Y-117525000D01*
G75*
G02*
X151525000Y-117725000I0J-200000D01*
G01*
X151525000Y-118125000D01*
G75*
G02*
X151325000Y-118325000I-200000J0D01*
G01*
X150775000Y-118325000D01*
G75*
G02*
X150575000Y-118125000I0J200000D01*
G01*
X150575000Y-117725000D01*
G75*
G02*
X150775000Y-117525000I200000J0D01*
G01*
G37*
G36*
G01*
X150775000Y-119175000D02*
X151325000Y-119175000D01*
G75*
G02*
X151525000Y-119375000I0J-200000D01*
G01*
X151525000Y-119775000D01*
G75*
G02*
X151325000Y-119975000I-200000J0D01*
G01*
X150775000Y-119975000D01*
G75*
G02*
X150575000Y-119775000I0J200000D01*
G01*
X150575000Y-119375000D01*
G75*
G02*
X150775000Y-119175000I200000J0D01*
G01*
G37*
G36*
G01*
X168475000Y-98525000D02*
X169025000Y-98525000D01*
G75*
G02*
X169225000Y-98725000I0J-200000D01*
G01*
X169225000Y-99125000D01*
G75*
G02*
X169025000Y-99325000I-200000J0D01*
G01*
X168475000Y-99325000D01*
G75*
G02*
X168275000Y-99125000I0J200000D01*
G01*
X168275000Y-98725000D01*
G75*
G02*
X168475000Y-98525000I200000J0D01*
G01*
G37*
G36*
G01*
X168475000Y-100175000D02*
X169025000Y-100175000D01*
G75*
G02*
X169225000Y-100375000I0J-200000D01*
G01*
X169225000Y-100775000D01*
G75*
G02*
X169025000Y-100975000I-200000J0D01*
G01*
X168475000Y-100975000D01*
G75*
G02*
X168275000Y-100775000I0J200000D01*
G01*
X168275000Y-100375000D01*
G75*
G02*
X168475000Y-100175000I200000J0D01*
G01*
G37*
D34*
X169800000Y-85650000D03*
X173100000Y-85650000D03*
D35*
X141740000Y-116220000D03*
X141740000Y-119520000D03*
X159610000Y-116300000D03*
X159610000Y-119600000D03*
D34*
X155700000Y-103700000D03*
X159000000Y-103700000D03*
G36*
G01*
X161650000Y-96475000D02*
X161650000Y-95225000D01*
G75*
G02*
X161800000Y-95075000I150000J0D01*
G01*
X162100000Y-95075000D01*
G75*
G02*
X162250000Y-95225000I0J-150000D01*
G01*
X162250000Y-96475000D01*
G75*
G02*
X162100000Y-96625000I-150000J0D01*
G01*
X161800000Y-96625000D01*
G75*
G02*
X161650000Y-96475000I0J150000D01*
G01*
G37*
G36*
G01*
X162650000Y-96475000D02*
X162650000Y-95225000D01*
G75*
G02*
X162800000Y-95075000I150000J0D01*
G01*
X163100000Y-95075000D01*
G75*
G02*
X163250000Y-95225000I0J-150000D01*
G01*
X163250000Y-96475000D01*
G75*
G02*
X163100000Y-96625000I-150000J0D01*
G01*
X162800000Y-96625000D01*
G75*
G02*
X162650000Y-96475000I0J150000D01*
G01*
G37*
G36*
G01*
X163650000Y-96475000D02*
X163650000Y-95225000D01*
G75*
G02*
X163800000Y-95075000I150000J0D01*
G01*
X164100000Y-95075000D01*
G75*
G02*
X164250000Y-95225000I0J-150000D01*
G01*
X164250000Y-96475000D01*
G75*
G02*
X164100000Y-96625000I-150000J0D01*
G01*
X163800000Y-96625000D01*
G75*
G02*
X163650000Y-96475000I0J150000D01*
G01*
G37*
G36*
G01*
X160050000Y-100375001D02*
X160050000Y-99074999D01*
G75*
G02*
X160299999Y-98825000I249999J0D01*
G01*
X161000001Y-98825000D01*
G75*
G02*
X161250000Y-99074999I0J-249999D01*
G01*
X161250000Y-100375001D01*
G75*
G02*
X161000001Y-100625000I-249999J0D01*
G01*
X160299999Y-100625000D01*
G75*
G02*
X160050000Y-100375001I0J249999D01*
G01*
G37*
G36*
G01*
X164650000Y-100375001D02*
X164650000Y-99074999D01*
G75*
G02*
X164899999Y-98825000I249999J0D01*
G01*
X165600001Y-98825000D01*
G75*
G02*
X165850000Y-99074999I0J-249999D01*
G01*
X165850000Y-100375001D01*
G75*
G02*
X165600001Y-100625000I-249999J0D01*
G01*
X164899999Y-100625000D01*
G75*
G02*
X164650000Y-100375001I0J249999D01*
G01*
G37*
G36*
G01*
X123400000Y-78675000D02*
X123900000Y-78675000D01*
G75*
G02*
X124125000Y-78900000I0J-225000D01*
G01*
X124125000Y-79350000D01*
G75*
G02*
X123900000Y-79575000I-225000J0D01*
G01*
X123400000Y-79575000D01*
G75*
G02*
X123175000Y-79350000I0J225000D01*
G01*
X123175000Y-78900000D01*
G75*
G02*
X123400000Y-78675000I225000J0D01*
G01*
G37*
G36*
G01*
X123400000Y-77125000D02*
X123900000Y-77125000D01*
G75*
G02*
X124125000Y-77350000I0J-225000D01*
G01*
X124125000Y-77800000D01*
G75*
G02*
X123900000Y-78025000I-225000J0D01*
G01*
X123400000Y-78025000D01*
G75*
G02*
X123175000Y-77800000I0J225000D01*
G01*
X123175000Y-77350000D01*
G75*
G02*
X123400000Y-77125000I225000J0D01*
G01*
G37*
G36*
G01*
X131075000Y-83500000D02*
X131075000Y-84000000D01*
G75*
G02*
X130850000Y-84225000I-225000J0D01*
G01*
X130400000Y-84225000D01*
G75*
G02*
X130175000Y-84000000I0J225000D01*
G01*
X130175000Y-83500000D01*
G75*
G02*
X130400000Y-83275000I225000J0D01*
G01*
X130850000Y-83275000D01*
G75*
G02*
X131075000Y-83500000I0J-225000D01*
G01*
G37*
G36*
G01*
X129525000Y-83500000D02*
X129525000Y-84000000D01*
G75*
G02*
X129300000Y-84225000I-225000J0D01*
G01*
X128850000Y-84225000D01*
G75*
G02*
X128625000Y-84000000I0J225000D01*
G01*
X128625000Y-83500000D01*
G75*
G02*
X128850000Y-83275000I225000J0D01*
G01*
X129300000Y-83275000D01*
G75*
G02*
X129525000Y-83500000I0J-225000D01*
G01*
G37*
G36*
G01*
X131100000Y-81475000D02*
X131100000Y-82425000D01*
G75*
G02*
X130850000Y-82675000I-250000J0D01*
G01*
X130350000Y-82675000D01*
G75*
G02*
X130100000Y-82425000I0J250000D01*
G01*
X130100000Y-81475000D01*
G75*
G02*
X130350000Y-81225000I250000J0D01*
G01*
X130850000Y-81225000D01*
G75*
G02*
X131100000Y-81475000I0J-250000D01*
G01*
G37*
G36*
G01*
X129200000Y-81475000D02*
X129200000Y-82425000D01*
G75*
G02*
X128950000Y-82675000I-250000J0D01*
G01*
X128450000Y-82675000D01*
G75*
G02*
X128200000Y-82425000I0J250000D01*
G01*
X128200000Y-81475000D01*
G75*
G02*
X128450000Y-81225000I250000J0D01*
G01*
X128950000Y-81225000D01*
G75*
G02*
X129200000Y-81475000I0J-250000D01*
G01*
G37*
D36*
X126850000Y-71750000D03*
X126850000Y-75750000D03*
G36*
G01*
X121605000Y-75700000D02*
X121905000Y-75700000D01*
G75*
G02*
X122055000Y-75850000I0J-150000D01*
G01*
X122055000Y-77500000D01*
G75*
G02*
X121905000Y-77650000I-150000J0D01*
G01*
X121605000Y-77650000D01*
G75*
G02*
X121455000Y-77500000I0J150000D01*
G01*
X121455000Y-75850000D01*
G75*
G02*
X121605000Y-75700000I150000J0D01*
G01*
G37*
G36*
G01*
X120335000Y-75700000D02*
X120635000Y-75700000D01*
G75*
G02*
X120785000Y-75850000I0J-150000D01*
G01*
X120785000Y-77500000D01*
G75*
G02*
X120635000Y-77650000I-150000J0D01*
G01*
X120335000Y-77650000D01*
G75*
G02*
X120185000Y-77500000I0J150000D01*
G01*
X120185000Y-75850000D01*
G75*
G02*
X120335000Y-75700000I150000J0D01*
G01*
G37*
G36*
G01*
X119065000Y-75700000D02*
X119365000Y-75700000D01*
G75*
G02*
X119515000Y-75850000I0J-150000D01*
G01*
X119515000Y-77500000D01*
G75*
G02*
X119365000Y-77650000I-150000J0D01*
G01*
X119065000Y-77650000D01*
G75*
G02*
X118915000Y-77500000I0J150000D01*
G01*
X118915000Y-75850000D01*
G75*
G02*
X119065000Y-75700000I150000J0D01*
G01*
G37*
G36*
G01*
X117795000Y-75700000D02*
X118095000Y-75700000D01*
G75*
G02*
X118245000Y-75850000I0J-150000D01*
G01*
X118245000Y-77500000D01*
G75*
G02*
X118095000Y-77650000I-150000J0D01*
G01*
X117795000Y-77650000D01*
G75*
G02*
X117645000Y-77500000I0J150000D01*
G01*
X117645000Y-75850000D01*
G75*
G02*
X117795000Y-75700000I150000J0D01*
G01*
G37*
G36*
G01*
X117795000Y-80650000D02*
X118095000Y-80650000D01*
G75*
G02*
X118245000Y-80800000I0J-150000D01*
G01*
X118245000Y-82450000D01*
G75*
G02*
X118095000Y-82600000I-150000J0D01*
G01*
X117795000Y-82600000D01*
G75*
G02*
X117645000Y-82450000I0J150000D01*
G01*
X117645000Y-80800000D01*
G75*
G02*
X117795000Y-80650000I150000J0D01*
G01*
G37*
G36*
G01*
X119065000Y-80650000D02*
X119365000Y-80650000D01*
G75*
G02*
X119515000Y-80800000I0J-150000D01*
G01*
X119515000Y-82450000D01*
G75*
G02*
X119365000Y-82600000I-150000J0D01*
G01*
X119065000Y-82600000D01*
G75*
G02*
X118915000Y-82450000I0J150000D01*
G01*
X118915000Y-80800000D01*
G75*
G02*
X119065000Y-80650000I150000J0D01*
G01*
G37*
G36*
G01*
X120335000Y-80650000D02*
X120635000Y-80650000D01*
G75*
G02*
X120785000Y-80800000I0J-150000D01*
G01*
X120785000Y-82450000D01*
G75*
G02*
X120635000Y-82600000I-150000J0D01*
G01*
X120335000Y-82600000D01*
G75*
G02*
X120185000Y-82450000I0J150000D01*
G01*
X120185000Y-80800000D01*
G75*
G02*
X120335000Y-80650000I150000J0D01*
G01*
G37*
G36*
G01*
X121605000Y-80650000D02*
X121905000Y-80650000D01*
G75*
G02*
X122055000Y-80800000I0J-150000D01*
G01*
X122055000Y-82450000D01*
G75*
G02*
X121905000Y-82600000I-150000J0D01*
G01*
X121605000Y-82600000D01*
G75*
G02*
X121455000Y-82450000I0J150000D01*
G01*
X121455000Y-80800000D01*
G75*
G02*
X121605000Y-80650000I150000J0D01*
G01*
G37*
G36*
G01*
X108150000Y-79800000D02*
X108150000Y-78700000D01*
G75*
G02*
X108400000Y-78450000I250000J0D01*
G01*
X111225000Y-78450000D01*
G75*
G02*
X111475000Y-78700000I0J-250000D01*
G01*
X111475000Y-79800000D01*
G75*
G02*
X111225000Y-80050000I-250000J0D01*
G01*
X108400000Y-80050000D01*
G75*
G02*
X108150000Y-79800000I0J250000D01*
G01*
G37*
G36*
G01*
X113225000Y-79800000D02*
X113225000Y-78700000D01*
G75*
G02*
X113475000Y-78450000I250000J0D01*
G01*
X116300000Y-78450000D01*
G75*
G02*
X116550000Y-78700000I0J-250000D01*
G01*
X116550000Y-79800000D01*
G75*
G02*
X116300000Y-80050000I-250000J0D01*
G01*
X113475000Y-80050000D01*
G75*
G02*
X113225000Y-79800000I0J250000D01*
G01*
G37*
G36*
G01*
X129450000Y-78224997D02*
X129450000Y-80075003D01*
G75*
G02*
X129200003Y-80325000I-249997J0D01*
G01*
X128374997Y-80325000D01*
G75*
G02*
X128125000Y-80075003I0J249997D01*
G01*
X128125000Y-78224997D01*
G75*
G02*
X128374997Y-77975000I249997J0D01*
G01*
X129200003Y-77975000D01*
G75*
G02*
X129450000Y-78224997I0J-249997D01*
G01*
G37*
G36*
G01*
X126375000Y-78224997D02*
X126375000Y-80075003D01*
G75*
G02*
X126125003Y-80325000I-249997J0D01*
G01*
X125299997Y-80325000D01*
G75*
G02*
X125050000Y-80075003I0J249997D01*
G01*
X125050000Y-78224997D01*
G75*
G02*
X125299997Y-77975000I249997J0D01*
G01*
X126125003Y-77975000D01*
G75*
G02*
X126375000Y-78224997I0J-249997D01*
G01*
G37*
D37*
X118075000Y-72000000D03*
X122225000Y-72000000D03*
G36*
G01*
X115175000Y-72775000D02*
X115725000Y-72775000D01*
G75*
G02*
X115925000Y-72975000I0J-200000D01*
G01*
X115925000Y-73375000D01*
G75*
G02*
X115725000Y-73575000I-200000J0D01*
G01*
X115175000Y-73575000D01*
G75*
G02*
X114975000Y-73375000I0J200000D01*
G01*
X114975000Y-72975000D01*
G75*
G02*
X115175000Y-72775000I200000J0D01*
G01*
G37*
G36*
G01*
X115175000Y-74425000D02*
X115725000Y-74425000D01*
G75*
G02*
X115925000Y-74625000I0J-200000D01*
G01*
X115925000Y-75025000D01*
G75*
G02*
X115725000Y-75225000I-200000J0D01*
G01*
X115175000Y-75225000D01*
G75*
G02*
X114975000Y-75025000I0J200000D01*
G01*
X114975000Y-74625000D01*
G75*
G02*
X115175000Y-74425000I200000J0D01*
G01*
G37*
G36*
G01*
X155606250Y-77975000D02*
X155093750Y-77975000D01*
G75*
G02*
X154875000Y-77756250I0J218750D01*
G01*
X154875000Y-77318750D01*
G75*
G02*
X155093750Y-77100000I218750J0D01*
G01*
X155606250Y-77100000D01*
G75*
G02*
X155825000Y-77318750I0J-218750D01*
G01*
X155825000Y-77756250D01*
G75*
G02*
X155606250Y-77975000I-218750J0D01*
G01*
G37*
G36*
G01*
X155606250Y-76400000D02*
X155093750Y-76400000D01*
G75*
G02*
X154875000Y-76181250I0J218750D01*
G01*
X154875000Y-75743750D01*
G75*
G02*
X155093750Y-75525000I218750J0D01*
G01*
X155606250Y-75525000D01*
G75*
G02*
X155825000Y-75743750I0J-218750D01*
G01*
X155825000Y-76181250D01*
G75*
G02*
X155606250Y-76400000I-218750J0D01*
G01*
G37*
G36*
G01*
X153825000Y-77975000D02*
X153275000Y-77975000D01*
G75*
G02*
X153075000Y-77775000I0J200000D01*
G01*
X153075000Y-77375000D01*
G75*
G02*
X153275000Y-77175000I200000J0D01*
G01*
X153825000Y-77175000D01*
G75*
G02*
X154025000Y-77375000I0J-200000D01*
G01*
X154025000Y-77775000D01*
G75*
G02*
X153825000Y-77975000I-200000J0D01*
G01*
G37*
G36*
G01*
X153825000Y-76325000D02*
X153275000Y-76325000D01*
G75*
G02*
X153075000Y-76125000I0J200000D01*
G01*
X153075000Y-75725000D01*
G75*
G02*
X153275000Y-75525000I200000J0D01*
G01*
X153825000Y-75525000D01*
G75*
G02*
X154025000Y-75725000I0J-200000D01*
G01*
X154025000Y-76125000D01*
G75*
G02*
X153825000Y-76325000I-200000J0D01*
G01*
G37*
G36*
G01*
X128625000Y-88725000D02*
X128625000Y-88175000D01*
G75*
G02*
X128825000Y-87975000I200000J0D01*
G01*
X129225000Y-87975000D01*
G75*
G02*
X129425000Y-88175000I0J-200000D01*
G01*
X129425000Y-88725000D01*
G75*
G02*
X129225000Y-88925000I-200000J0D01*
G01*
X128825000Y-88925000D01*
G75*
G02*
X128625000Y-88725000I0J200000D01*
G01*
G37*
G36*
G01*
X130275000Y-88725000D02*
X130275000Y-88175000D01*
G75*
G02*
X130475000Y-87975000I200000J0D01*
G01*
X130875000Y-87975000D01*
G75*
G02*
X131075000Y-88175000I0J-200000D01*
G01*
X131075000Y-88725000D01*
G75*
G02*
X130875000Y-88925000I-200000J0D01*
G01*
X130475000Y-88925000D01*
G75*
G02*
X130275000Y-88725000I0J200000D01*
G01*
G37*
G36*
G01*
X131925000Y-118325000D02*
X131375000Y-118325000D01*
G75*
G02*
X131175000Y-118125000I0J200000D01*
G01*
X131175000Y-117725000D01*
G75*
G02*
X131375000Y-117525000I200000J0D01*
G01*
X131925000Y-117525000D01*
G75*
G02*
X132125000Y-117725000I0J-200000D01*
G01*
X132125000Y-118125000D01*
G75*
G02*
X131925000Y-118325000I-200000J0D01*
G01*
G37*
G36*
G01*
X131925000Y-119975000D02*
X131375000Y-119975000D01*
G75*
G02*
X131175000Y-119775000I0J200000D01*
G01*
X131175000Y-119375000D01*
G75*
G02*
X131375000Y-119175000I200000J0D01*
G01*
X131925000Y-119175000D01*
G75*
G02*
X132125000Y-119375000I0J-200000D01*
G01*
X132125000Y-119775000D01*
G75*
G02*
X131925000Y-119975000I-200000J0D01*
G01*
G37*
G36*
G01*
X137725000Y-104725000D02*
X137175000Y-104725000D01*
G75*
G02*
X136975000Y-104525000I0J200000D01*
G01*
X136975000Y-104125000D01*
G75*
G02*
X137175000Y-103925000I200000J0D01*
G01*
X137725000Y-103925000D01*
G75*
G02*
X137925000Y-104125000I0J-200000D01*
G01*
X137925000Y-104525000D01*
G75*
G02*
X137725000Y-104725000I-200000J0D01*
G01*
G37*
G36*
G01*
X137725000Y-106375000D02*
X137175000Y-106375000D01*
G75*
G02*
X136975000Y-106175000I0J200000D01*
G01*
X136975000Y-105775000D01*
G75*
G02*
X137175000Y-105575000I200000J0D01*
G01*
X137725000Y-105575000D01*
G75*
G02*
X137925000Y-105775000I0J-200000D01*
G01*
X137925000Y-106175000D01*
G75*
G02*
X137725000Y-106375000I-200000J0D01*
G01*
G37*
G36*
G01*
X149725000Y-119975000D02*
X149175000Y-119975000D01*
G75*
G02*
X148975000Y-119775000I0J200000D01*
G01*
X148975000Y-119375000D01*
G75*
G02*
X149175000Y-119175000I200000J0D01*
G01*
X149725000Y-119175000D01*
G75*
G02*
X149925000Y-119375000I0J-200000D01*
G01*
X149925000Y-119775000D01*
G75*
G02*
X149725000Y-119975000I-200000J0D01*
G01*
G37*
G36*
G01*
X149725000Y-118325000D02*
X149175000Y-118325000D01*
G75*
G02*
X148975000Y-118125000I0J200000D01*
G01*
X148975000Y-117725000D01*
G75*
G02*
X149175000Y-117525000I200000J0D01*
G01*
X149725000Y-117525000D01*
G75*
G02*
X149925000Y-117725000I0J-200000D01*
G01*
X149925000Y-118125000D01*
G75*
G02*
X149725000Y-118325000I-200000J0D01*
G01*
G37*
G36*
G01*
X153375000Y-98325000D02*
X153925000Y-98325000D01*
G75*
G02*
X154125000Y-98525000I0J-200000D01*
G01*
X154125000Y-98925000D01*
G75*
G02*
X153925000Y-99125000I-200000J0D01*
G01*
X153375000Y-99125000D01*
G75*
G02*
X153175000Y-98925000I0J200000D01*
G01*
X153175000Y-98525000D01*
G75*
G02*
X153375000Y-98325000I200000J0D01*
G01*
G37*
G36*
G01*
X153375000Y-99975000D02*
X153925000Y-99975000D01*
G75*
G02*
X154125000Y-100175000I0J-200000D01*
G01*
X154125000Y-100575000D01*
G75*
G02*
X153925000Y-100775000I-200000J0D01*
G01*
X153375000Y-100775000D01*
G75*
G02*
X153175000Y-100575000I0J200000D01*
G01*
X153175000Y-100175000D01*
G75*
G02*
X153375000Y-99975000I200000J0D01*
G01*
G37*
G36*
G01*
X167425000Y-99325000D02*
X166875000Y-99325000D01*
G75*
G02*
X166675000Y-99125000I0J200000D01*
G01*
X166675000Y-98725000D01*
G75*
G02*
X166875000Y-98525000I200000J0D01*
G01*
X167425000Y-98525000D01*
G75*
G02*
X167625000Y-98725000I0J-200000D01*
G01*
X167625000Y-99125000D01*
G75*
G02*
X167425000Y-99325000I-200000J0D01*
G01*
G37*
G36*
G01*
X167425000Y-100975000D02*
X166875000Y-100975000D01*
G75*
G02*
X166675000Y-100775000I0J200000D01*
G01*
X166675000Y-100375000D01*
G75*
G02*
X166875000Y-100175000I200000J0D01*
G01*
X167425000Y-100175000D01*
G75*
G02*
X167625000Y-100375000I0J-200000D01*
G01*
X167625000Y-100775000D01*
G75*
G02*
X167425000Y-100975000I-200000J0D01*
G01*
G37*
M02*
