G04 #@! TF.GenerationSoftware,KiCad,Pcbnew,(5.1.10-1-10_14)*
G04 #@! TF.CreationDate,2021-08-04T20:57:59+10:00*
G04 #@! TF.ProjectId,esp32_battery_isolator,65737033-325f-4626-9174-746572795f69,D*
G04 #@! TF.SameCoordinates,Original*
G04 #@! TF.FileFunction,Copper,L3,Inr*
G04 #@! TF.FilePolarity,Positive*
%FSLAX46Y46*%
G04 Gerber Fmt 4.6, Leading zero omitted, Abs format (unit mm)*
G04 Created by KiCad (PCBNEW (5.1.10-1-10_14)) date 2021-08-04 20:57:59*
%MOMM*%
%LPD*%
G01*
G04 APERTURE LIST*
G04 #@! TA.AperFunction,ComponentPad*
%ADD10C,3.716000*%
G04 #@! TD*
G04 #@! TA.AperFunction,ComponentPad*
%ADD11O,2.600000X1.300000*%
G04 #@! TD*
G04 #@! TA.AperFunction,ComponentPad*
%ADD12O,1.300000X2.600000*%
G04 #@! TD*
G04 #@! TA.AperFunction,ComponentPad*
%ADD13O,1.200000X2.400000*%
G04 #@! TD*
G04 #@! TA.AperFunction,ComponentPad*
%ADD14R,3.716000X3.716000*%
G04 #@! TD*
G04 #@! TA.AperFunction,ComponentPad*
%ADD15O,1.900000X1.070000*%
G04 #@! TD*
G04 #@! TA.AperFunction,ComponentPad*
%ADD16C,1.300000*%
G04 #@! TD*
G04 #@! TA.AperFunction,ComponentPad*
%ADD17C,0.800000*%
G04 #@! TD*
G04 #@! TA.AperFunction,ComponentPad*
%ADD18C,6.400000*%
G04 #@! TD*
G04 #@! TA.AperFunction,ComponentPad*
%ADD19R,1.700000X1.700000*%
G04 #@! TD*
G04 #@! TA.AperFunction,ComponentPad*
%ADD20O,1.700000X1.700000*%
G04 #@! TD*
G04 #@! TA.AperFunction,ComponentPad*
%ADD21O,2.400000X1.200000*%
G04 #@! TD*
G04 #@! TA.AperFunction,ViaPad*
%ADD22C,0.800000*%
G04 #@! TD*
G04 #@! TA.AperFunction,Conductor*
%ADD23C,1.000000*%
G04 #@! TD*
G04 #@! TA.AperFunction,Conductor*
%ADD24C,0.167000*%
G04 #@! TD*
G04 #@! TA.AperFunction,Conductor*
%ADD25C,0.750000*%
G04 #@! TD*
G04 #@! TA.AperFunction,Conductor*
%ADD26C,0.200000*%
G04 #@! TD*
G04 #@! TA.AperFunction,Conductor*
%ADD27C,0.254000*%
G04 #@! TD*
G04 #@! TA.AperFunction,Conductor*
%ADD28C,0.100000*%
G04 #@! TD*
G04 APERTURE END LIST*
D10*
X167250000Y-113150000D03*
X167250000Y-105950000D03*
D11*
X173250000Y-116300000D03*
X173250000Y-102800000D03*
D12*
X166420000Y-129120000D03*
X152920000Y-129120000D03*
D10*
X163270000Y-123120000D03*
X156070000Y-123120000D03*
D13*
X116900000Y-129160000D03*
X130400000Y-129160000D03*
D10*
X120050000Y-123160000D03*
D14*
X127250000Y-123160000D03*
D15*
X174050000Y-88750000D03*
X173950000Y-95950000D03*
D16*
X171050000Y-89950000D03*
X171050000Y-94750000D03*
D17*
X112847056Y-129152944D03*
X111150000Y-128450000D03*
X109452944Y-129152944D03*
X108750000Y-130850000D03*
X109452944Y-132547056D03*
X111150000Y-133250000D03*
X112847056Y-132547056D03*
X113550000Y-130850000D03*
D18*
X111150000Y-130850000D03*
D17*
X173647056Y-76852944D03*
X171950000Y-76150000D03*
X170252944Y-76852944D03*
X169550000Y-78550000D03*
X170252944Y-80247056D03*
X171950000Y-80950000D03*
X173647056Y-80247056D03*
X174350000Y-78550000D03*
D18*
X171950000Y-78550000D03*
X171950000Y-130850000D03*
D17*
X174350000Y-130850000D03*
X173647056Y-132547056D03*
X171950000Y-133250000D03*
X170252944Y-132547056D03*
X169550000Y-130850000D03*
X170252944Y-129152944D03*
X171950000Y-128450000D03*
X173647056Y-129152944D03*
X112847056Y-76952944D03*
X111150000Y-76250000D03*
X109452944Y-76952944D03*
X108750000Y-78650000D03*
X109452944Y-80347056D03*
X111150000Y-81050000D03*
X112847056Y-80347056D03*
X113550000Y-78650000D03*
D18*
X111150000Y-78650000D03*
D19*
X160150000Y-90350000D03*
D20*
X160150000Y-92890000D03*
X160150000Y-95430000D03*
X160150000Y-97970000D03*
D14*
X118150000Y-94550000D03*
D10*
X118150000Y-87350000D03*
D21*
X112150000Y-97700000D03*
X112150000Y-84200000D03*
X112150000Y-101500000D03*
X112150000Y-115000000D03*
D10*
X118150000Y-104650000D03*
D14*
X118150000Y-111850000D03*
D12*
X148400000Y-129150000D03*
X134900000Y-129150000D03*
D10*
X145250000Y-123150000D03*
X138050000Y-123150000D03*
D22*
X131650000Y-86150000D03*
X139400000Y-91400000D03*
X142400000Y-91400000D03*
X140900000Y-89650000D03*
X142400000Y-88150000D03*
X139400000Y-88150000D03*
X119000000Y-75650000D03*
X128000000Y-88000000D03*
X129400000Y-95850000D03*
X125800000Y-101250000D03*
X136200000Y-98200000D03*
X133050000Y-104050000D03*
X135950000Y-102400000D03*
X137900000Y-105550000D03*
X144200000Y-105550000D03*
X148400000Y-105550000D03*
X154800000Y-105550000D03*
X157050000Y-103700000D03*
X157050000Y-103700000D03*
X165600000Y-97750000D03*
X169850000Y-91100000D03*
X174250000Y-83150000D03*
X166300000Y-75850000D03*
X157450000Y-84500000D03*
X155800000Y-87550000D03*
X165400000Y-90800000D03*
X137050000Y-116450000D03*
X154850000Y-116250000D03*
X159650000Y-114950000D03*
X141750000Y-114950000D03*
X172350000Y-90450000D03*
X155750000Y-78650000D03*
X163950000Y-75850000D03*
X161250000Y-76050000D03*
X158540484Y-76087664D03*
X152150000Y-82450000D03*
X173266964Y-98503510D03*
X167550000Y-95749994D03*
X174700000Y-125400000D03*
X135450000Y-83650000D03*
X155850000Y-98850000D03*
X163050000Y-94250000D03*
X154550000Y-84550000D03*
X129050000Y-92050000D03*
X124550000Y-98150000D03*
X169050000Y-81750000D03*
X154350000Y-98850000D03*
X152150000Y-86050000D03*
X166150000Y-91750000D03*
X152150000Y-87250000D03*
X165350000Y-92650000D03*
X155550000Y-92650000D03*
X162050000Y-82850000D03*
X157475000Y-92675000D03*
X162050000Y-84150000D03*
X131850000Y-119050000D03*
X108450000Y-105750000D03*
X108450000Y-104450000D03*
X108450000Y-103150000D03*
X115850000Y-78950000D03*
X149750000Y-118950000D03*
X168350000Y-85750000D03*
X171050000Y-101750000D03*
X166450000Y-80850000D03*
X120250000Y-102050000D03*
X122950000Y-102050000D03*
X121850000Y-103150000D03*
X120850000Y-106650000D03*
X121550000Y-86850000D03*
X122950000Y-87550000D03*
X163650000Y-77250000D03*
X123850000Y-85250000D03*
X121250000Y-85250000D03*
X115550000Y-86150000D03*
X112950000Y-87750000D03*
X135150000Y-92450000D03*
X148350000Y-97450000D03*
X128250000Y-104950000D03*
X129550000Y-105550000D03*
X125150000Y-106850000D03*
X126850000Y-106850000D03*
X144450000Y-117450000D03*
X145750000Y-118250000D03*
X144150000Y-115150000D03*
X146750000Y-115150000D03*
X161650000Y-115450000D03*
X164150000Y-115450000D03*
X162450000Y-117350000D03*
X162350000Y-107750000D03*
X163650000Y-108550000D03*
X161550000Y-110450000D03*
X163950000Y-110450000D03*
X159550000Y-108450000D03*
X172950000Y-119850000D03*
X163650000Y-117950000D03*
X124350000Y-101550000D03*
X157950000Y-79250000D03*
X141950000Y-121250000D03*
X141950000Y-124950000D03*
X147850000Y-121450000D03*
X148150000Y-125150000D03*
X141950000Y-129250000D03*
X145250000Y-129250000D03*
X122450000Y-94850000D03*
X121050000Y-94850000D03*
X121650000Y-92350000D03*
X122750000Y-93050000D03*
X124050000Y-92950000D03*
X160350000Y-121250000D03*
X166000000Y-122150000D03*
X160350000Y-124950000D03*
X166050000Y-125150000D03*
X160350000Y-129250000D03*
X163550000Y-129250000D03*
X163050000Y-103250000D03*
X165650000Y-103350000D03*
X168150000Y-103350000D03*
X166350000Y-108650000D03*
X168550000Y-108650000D03*
X132650000Y-101049999D03*
X132250000Y-116150000D03*
X127250000Y-95350000D03*
X126050000Y-97250000D03*
X129550000Y-99850000D03*
X128250000Y-99250000D03*
X128350000Y-97250000D03*
X137450000Y-101350000D03*
X149950000Y-116750000D03*
X161050000Y-77550000D03*
X130250000Y-88750000D03*
X121150000Y-90050000D03*
X122450000Y-90050000D03*
X123850000Y-90050000D03*
X119450000Y-90850000D03*
X115850000Y-90850000D03*
X110950000Y-90850000D03*
X131450000Y-101450000D03*
X131450000Y-102950000D03*
X127850000Y-102450000D03*
X129750000Y-102450000D03*
X159050000Y-100400000D03*
X155200000Y-96100000D03*
D23*
X153850000Y-85050000D02*
X153850000Y-94750000D01*
X154050000Y-85050000D02*
X153850000Y-85050000D01*
X154550000Y-84550000D02*
X154050000Y-85050000D01*
X152850000Y-84050000D02*
X153850000Y-85050000D01*
X135850000Y-84050000D02*
X152850000Y-84050000D01*
X135450000Y-83650000D02*
X135850000Y-84050000D01*
X166650000Y-79350000D02*
X169050000Y-81750000D01*
X159750000Y-79350000D02*
X166650000Y-79350000D01*
X154550000Y-84550000D02*
X159750000Y-79350000D01*
X124550000Y-95050000D02*
X124550000Y-98150000D01*
X127550000Y-92050000D02*
X124550000Y-95050000D01*
X129050000Y-92050000D02*
X127550000Y-92050000D01*
X153850000Y-94650000D02*
X153850000Y-94750000D01*
X157650000Y-94650000D02*
X153850000Y-94650000D01*
X159410000Y-92890000D02*
X157650000Y-94650000D01*
X161690000Y-92890000D02*
X159410000Y-92890000D01*
X163050000Y-94250000D02*
X161690000Y-92890000D01*
X133550000Y-85550000D02*
X133550000Y-87550000D01*
X133550000Y-87550000D02*
X129050000Y-92050000D01*
X135450000Y-83650000D02*
X133550000Y-85550000D01*
X153850000Y-98350000D02*
X154350000Y-98850000D01*
X153850000Y-94750000D02*
X153850000Y-98350000D01*
X155850000Y-98850000D02*
X154850000Y-98850000D01*
D24*
X151496499Y-99573103D02*
X151496499Y-86703501D01*
X153433906Y-101510510D02*
X151496499Y-99573103D01*
X164566093Y-101510511D02*
X153433906Y-101510510D01*
X166549999Y-99526605D02*
X164566093Y-101510511D01*
X151496499Y-86703501D02*
X152150000Y-86050000D01*
X166549999Y-92149999D02*
X166549999Y-99526605D01*
X166150000Y-91750000D02*
X166549999Y-92149999D01*
X152150000Y-87250000D02*
X152150000Y-99750000D01*
X153573501Y-101173501D02*
X164426499Y-101173501D01*
X152150000Y-99750000D02*
X153573501Y-101173501D01*
X164946499Y-100653501D02*
X164946499Y-93053501D01*
X164946499Y-93053501D02*
X165350000Y-92650000D01*
X164426499Y-101173501D02*
X164946499Y-100653501D01*
X155550000Y-92650000D02*
X155550000Y-89350000D01*
X155550000Y-89350000D02*
X162050000Y-82850000D01*
X161850000Y-84150000D02*
X162050000Y-84150000D01*
X157475000Y-88525000D02*
X161850000Y-84150000D01*
X157475000Y-92675000D02*
X157475000Y-88525000D01*
D23*
X117050000Y-105750000D02*
X118150000Y-104650000D01*
X108450000Y-105750000D02*
X117050000Y-105750000D01*
X108550000Y-104450000D02*
X117950000Y-104450000D01*
X108450000Y-104550000D02*
X108550000Y-104450000D01*
X116650000Y-103150000D02*
X118150000Y-104650000D01*
X108550000Y-103150000D02*
X116650000Y-103150000D01*
X108450000Y-103250000D02*
X108550000Y-103150000D01*
X111023945Y-82929990D02*
X112929990Y-82929990D01*
X108450000Y-105750000D02*
X108450000Y-85503935D01*
X108450000Y-85503935D02*
X111023945Y-82929990D01*
X169950000Y-95603602D02*
X168350000Y-94003602D01*
X168350000Y-94003602D02*
X168350000Y-85750000D01*
X168350000Y-82750000D02*
X166450000Y-80850000D01*
X168350000Y-85750000D02*
X168350000Y-82750000D01*
X171050000Y-101750000D02*
X170150000Y-101750000D01*
X169950000Y-101550000D02*
X169950000Y-95603602D01*
X170150000Y-101750000D02*
X169950000Y-101550000D01*
D25*
X112435695Y-82929990D02*
X112329990Y-82929990D01*
X115850000Y-79515685D02*
X112435695Y-82929990D01*
X115850000Y-78950000D02*
X115850000Y-79515685D01*
D23*
X164691442Y-119450000D02*
X169950000Y-114191442D01*
X150950000Y-119450000D02*
X164691442Y-119450000D01*
X150450000Y-118950000D02*
X150950000Y-119450000D01*
X169950000Y-114191442D02*
X169950000Y-101550000D01*
X149750000Y-118950000D02*
X150450000Y-118950000D01*
X129644001Y-120631999D02*
X129662002Y-120650000D01*
X121125000Y-109875000D02*
X121125000Y-116725000D01*
X125031999Y-120631999D02*
X129644001Y-120631999D01*
X121125000Y-116725000D02*
X125031999Y-120631999D01*
X118150000Y-106900000D02*
X121125000Y-109875000D01*
X129662002Y-120650000D02*
X131650000Y-120650000D01*
X118150000Y-104650000D02*
X118150000Y-106900000D01*
X148650000Y-120050000D02*
X149750000Y-118950000D01*
X132250000Y-120050000D02*
X148650000Y-120050000D01*
X131650000Y-120650000D02*
X132250000Y-120050000D01*
X131850000Y-120450000D02*
X131850000Y-119050000D01*
D26*
X154096592Y-81295010D02*
X127804990Y-81295010D01*
X158641602Y-76750000D02*
X154096592Y-81295010D01*
X127804990Y-81295010D02*
X124249999Y-84850001D01*
X163650000Y-77250000D02*
X163150000Y-76750000D01*
X163150000Y-76750000D02*
X158641602Y-76750000D01*
X124249999Y-84850001D02*
X123850000Y-85250000D01*
X140150000Y-97450000D02*
X148350000Y-97450000D01*
X135150000Y-92450000D02*
X140150000Y-97450000D01*
X154079999Y-83120001D02*
X157950000Y-79250000D01*
X150820001Y-83120001D02*
X154079999Y-83120001D01*
X149735031Y-82035031D02*
X150820001Y-83120001D01*
X135588241Y-82035031D02*
X149735031Y-82035031D01*
X132690011Y-87301591D02*
X132690011Y-84933261D01*
X127050000Y-91150000D02*
X128841602Y-91150000D01*
X124350000Y-101550000D02*
X123550000Y-100750000D01*
X123550000Y-94650000D02*
X127050000Y-91150000D01*
X123550000Y-100750000D02*
X123550000Y-94650000D01*
X132690011Y-84933261D02*
X135588241Y-82035031D01*
X128841602Y-91150000D02*
X132690011Y-87301591D01*
X132250000Y-101449999D02*
X132250000Y-116150000D01*
X132650000Y-101049999D02*
X132250000Y-101449999D01*
X137450000Y-103684315D02*
X137450000Y-101350000D01*
X149950000Y-116184315D02*
X137450000Y-103684315D01*
X149950000Y-116750000D02*
X149950000Y-116184315D01*
X154249855Y-81665020D02*
X135434978Y-81665020D01*
X161050000Y-77550000D02*
X158364875Y-77550000D01*
X132320000Y-84779998D02*
X132320000Y-86680000D01*
X132320000Y-86680000D02*
X130250000Y-88750000D01*
X135434978Y-81665020D02*
X132320000Y-84779998D01*
X158364875Y-77550000D02*
X154249855Y-81665020D01*
D24*
X159050000Y-99950000D02*
X159050000Y-100400000D01*
X155200000Y-96100000D02*
X159050000Y-99950000D01*
D27*
X139833236Y-97737105D02*
X139846605Y-97753395D01*
X139862895Y-97766764D01*
X139862899Y-97766768D01*
X139911623Y-97806756D01*
X139968538Y-97837176D01*
X139985804Y-97846405D01*
X140066293Y-97870822D01*
X140129022Y-97877000D01*
X140129033Y-97877000D01*
X140150000Y-97879065D01*
X140170967Y-97877000D01*
X147760956Y-97877000D01*
X147785302Y-97913436D01*
X147886564Y-98014698D01*
X148005636Y-98094259D01*
X148137942Y-98149062D01*
X148278397Y-98177000D01*
X148421603Y-98177000D01*
X148562058Y-98149062D01*
X148694364Y-98094259D01*
X148813436Y-98014698D01*
X148914698Y-97913436D01*
X148994259Y-97794364D01*
X149049062Y-97662058D01*
X149077000Y-97521603D01*
X149077000Y-97378397D01*
X149049062Y-97237942D01*
X148994259Y-97105636D01*
X148914698Y-96986564D01*
X148813436Y-96885302D01*
X148694364Y-96805741D01*
X148562058Y-96750938D01*
X148421603Y-96723000D01*
X148278397Y-96723000D01*
X148137942Y-96750938D01*
X148005636Y-96805741D01*
X147886564Y-96885302D01*
X147785302Y-96986564D01*
X147760956Y-97023000D01*
X140326869Y-97023000D01*
X137580868Y-94277000D01*
X151085999Y-94277000D01*
X151085999Y-99552939D01*
X151084013Y-99573103D01*
X151091939Y-99653575D01*
X151097832Y-99673000D01*
X151115412Y-99730954D01*
X151153529Y-99802267D01*
X151204827Y-99864775D01*
X151220497Y-99877635D01*
X153129383Y-101786522D01*
X153142234Y-101802181D01*
X153157893Y-101815032D01*
X153157896Y-101815035D01*
X153204740Y-101853479D01*
X153276054Y-101891597D01*
X153353433Y-101915070D01*
X153433905Y-101922996D01*
X153454079Y-101921009D01*
X164545929Y-101921011D01*
X164566093Y-101922997D01*
X164646565Y-101915071D01*
X164685254Y-101903334D01*
X164723944Y-101891598D01*
X164795257Y-101853481D01*
X164857764Y-101802183D01*
X164870619Y-101786519D01*
X166826007Y-99831132D01*
X166841671Y-99818277D01*
X166892969Y-99755770D01*
X166931086Y-99684457D01*
X166954559Y-99607077D01*
X166960499Y-99546769D01*
X166962485Y-99526605D01*
X166960499Y-99506441D01*
X166960499Y-96176310D01*
X166985302Y-96213430D01*
X167086564Y-96314692D01*
X167205636Y-96394253D01*
X167337942Y-96449056D01*
X167478397Y-96476994D01*
X167621603Y-96476994D01*
X167762058Y-96449056D01*
X167894364Y-96394253D01*
X168013436Y-96314692D01*
X168114698Y-96213430D01*
X168194259Y-96094358D01*
X168249062Y-95962052D01*
X168277000Y-95821597D01*
X168277000Y-95678391D01*
X168249062Y-95537936D01*
X168194259Y-95405630D01*
X168114698Y-95286558D01*
X168013436Y-95185296D01*
X167894364Y-95105735D01*
X167762058Y-95050932D01*
X167621603Y-95022994D01*
X167478397Y-95022994D01*
X167337942Y-95050932D01*
X167205636Y-95105735D01*
X167086564Y-95185296D01*
X166985302Y-95286558D01*
X166960499Y-95323678D01*
X166960499Y-94277000D01*
X167568722Y-94277000D01*
X167582255Y-94321611D01*
X167595615Y-94346605D01*
X167659048Y-94465281D01*
X167692167Y-94505636D01*
X167762394Y-94591208D01*
X167793952Y-94617107D01*
X169123001Y-95946158D01*
X169123000Y-101509386D01*
X169119000Y-101550000D01*
X169123000Y-101590614D01*
X169123000Y-101590623D01*
X169123001Y-101590633D01*
X169123001Y-104820248D01*
X168947200Y-104557144D01*
X168642856Y-104252800D01*
X168343473Y-104052759D01*
X168362058Y-104049062D01*
X168494364Y-103994259D01*
X168613436Y-103914698D01*
X168714698Y-103813436D01*
X168794259Y-103694364D01*
X168849062Y-103562058D01*
X168877000Y-103421603D01*
X168877000Y-103278397D01*
X168849062Y-103137942D01*
X168794259Y-103005636D01*
X168714698Y-102886564D01*
X168613436Y-102785302D01*
X168494364Y-102705741D01*
X168362058Y-102650938D01*
X168221603Y-102623000D01*
X168078397Y-102623000D01*
X167937942Y-102650938D01*
X167805636Y-102705741D01*
X167686564Y-102785302D01*
X167585302Y-102886564D01*
X167505741Y-103005636D01*
X167450938Y-103137942D01*
X167423000Y-103278397D01*
X167423000Y-103421603D01*
X167450938Y-103562058D01*
X167505741Y-103694364D01*
X167566386Y-103785127D01*
X167465204Y-103765000D01*
X167034796Y-103765000D01*
X166612659Y-103848969D01*
X166215015Y-104013678D01*
X165857144Y-104252800D01*
X165552800Y-104557144D01*
X165313678Y-104915015D01*
X165148969Y-105312659D01*
X165065000Y-105734796D01*
X165065000Y-106165204D01*
X165148969Y-106587341D01*
X165313678Y-106984985D01*
X165552800Y-107342856D01*
X165857144Y-107647200D01*
X166215015Y-107886322D01*
X166303564Y-107923000D01*
X166278397Y-107923000D01*
X166137942Y-107950938D01*
X166005636Y-108005741D01*
X165886564Y-108085302D01*
X165785302Y-108186564D01*
X165705741Y-108305636D01*
X165650938Y-108437942D01*
X165623000Y-108578397D01*
X165623000Y-108721603D01*
X165650938Y-108862058D01*
X165705741Y-108994364D01*
X165785302Y-109113436D01*
X165886564Y-109214698D01*
X166005636Y-109294259D01*
X166137942Y-109349062D01*
X166278397Y-109377000D01*
X166421603Y-109377000D01*
X166562058Y-109349062D01*
X166694364Y-109294259D01*
X166813436Y-109214698D01*
X166914698Y-109113436D01*
X166994259Y-108994364D01*
X167049062Y-108862058D01*
X167077000Y-108721603D01*
X167077000Y-108578397D01*
X167049062Y-108437942D01*
X166994259Y-108305636D01*
X166914698Y-108186564D01*
X166820509Y-108092375D01*
X167034796Y-108135000D01*
X167465204Y-108135000D01*
X167887341Y-108051031D01*
X168284985Y-107886322D01*
X168642856Y-107647200D01*
X168947200Y-107342856D01*
X169123001Y-107079752D01*
X169123000Y-108198990D01*
X169114698Y-108186564D01*
X169013436Y-108085302D01*
X168894364Y-108005741D01*
X168762058Y-107950938D01*
X168621603Y-107923000D01*
X168478397Y-107923000D01*
X168337942Y-107950938D01*
X168205636Y-108005741D01*
X168086564Y-108085302D01*
X167985302Y-108186564D01*
X167905741Y-108305636D01*
X167850938Y-108437942D01*
X167823000Y-108578397D01*
X167823000Y-108721603D01*
X167850938Y-108862058D01*
X167905741Y-108994364D01*
X167985302Y-109113436D01*
X168086564Y-109214698D01*
X168205636Y-109294259D01*
X168337942Y-109349062D01*
X168478397Y-109377000D01*
X168621603Y-109377000D01*
X168762058Y-109349062D01*
X168894364Y-109294259D01*
X169013436Y-109214698D01*
X169114698Y-109113436D01*
X169123000Y-109101011D01*
X169123000Y-112020247D01*
X168947200Y-111757144D01*
X168642856Y-111452800D01*
X168284985Y-111213678D01*
X167887341Y-111048969D01*
X167465204Y-110965000D01*
X167034796Y-110965000D01*
X166612659Y-111048969D01*
X166215015Y-111213678D01*
X165857144Y-111452800D01*
X165552800Y-111757144D01*
X165313678Y-112115015D01*
X165148969Y-112512659D01*
X165065000Y-112934796D01*
X165065000Y-113365204D01*
X165148969Y-113787341D01*
X165313678Y-114184985D01*
X165552800Y-114542856D01*
X165857144Y-114847200D01*
X166215015Y-115086322D01*
X166612659Y-115251031D01*
X167034796Y-115335000D01*
X167465204Y-115335000D01*
X167679518Y-115292370D01*
X164348889Y-118623000D01*
X151292553Y-118623000D01*
X151063505Y-118393952D01*
X151037606Y-118362394D01*
X150911679Y-118259048D01*
X150768010Y-118182255D01*
X150612120Y-118134966D01*
X150490624Y-118123000D01*
X150490614Y-118123000D01*
X150450000Y-118119000D01*
X150409386Y-118123000D01*
X149790614Y-118123000D01*
X149750000Y-118119000D01*
X149709386Y-118123000D01*
X149709376Y-118123000D01*
X149587880Y-118134966D01*
X149431990Y-118182255D01*
X149365113Y-118218002D01*
X149288320Y-118259048D01*
X149193948Y-118336498D01*
X149162394Y-118362394D01*
X149136499Y-118393947D01*
X148307447Y-119223000D01*
X132677000Y-119223000D01*
X132677000Y-119009376D01*
X132665034Y-118887880D01*
X132617745Y-118731990D01*
X132540952Y-118588321D01*
X132437606Y-118462394D01*
X132311679Y-118359048D01*
X132168010Y-118282255D01*
X132012120Y-118234966D01*
X131850000Y-118218999D01*
X131687881Y-118234966D01*
X131531991Y-118282255D01*
X131388322Y-118359048D01*
X131262395Y-118462394D01*
X131159049Y-118588321D01*
X131082256Y-118731990D01*
X131034967Y-118887880D01*
X131023001Y-119009376D01*
X131023000Y-119823000D01*
X129826016Y-119823000D01*
X129806121Y-119816965D01*
X129684625Y-119804999D01*
X129684615Y-119804999D01*
X129644001Y-119800999D01*
X129603387Y-119804999D01*
X125374553Y-119804999D01*
X121952000Y-116382447D01*
X121952000Y-109915610D01*
X121956000Y-109874999D01*
X121952000Y-109834388D01*
X121952000Y-109834376D01*
X121940034Y-109712880D01*
X121892745Y-109556990D01*
X121815952Y-109413321D01*
X121815951Y-109413319D01*
X121738502Y-109318947D01*
X121738496Y-109318941D01*
X121712606Y-109287394D01*
X121681060Y-109261505D01*
X120477000Y-108057446D01*
X120477000Y-107275125D01*
X120505636Y-107294259D01*
X120637942Y-107349062D01*
X120778397Y-107377000D01*
X120921603Y-107377000D01*
X121062058Y-107349062D01*
X121194364Y-107294259D01*
X121313436Y-107214698D01*
X121414698Y-107113436D01*
X121494259Y-106994364D01*
X121549062Y-106862058D01*
X121577000Y-106721603D01*
X121577000Y-106578397D01*
X121549062Y-106437942D01*
X121494259Y-106305636D01*
X121414698Y-106186564D01*
X121313436Y-106085302D01*
X121194364Y-106005741D01*
X121062058Y-105950938D01*
X120921603Y-105923000D01*
X120778397Y-105923000D01*
X120637942Y-105950938D01*
X120505636Y-106005741D01*
X120477000Y-106024875D01*
X120477000Y-103078397D01*
X121123000Y-103078397D01*
X121123000Y-103221603D01*
X121150938Y-103362058D01*
X121205741Y-103494364D01*
X121285302Y-103613436D01*
X121386564Y-103714698D01*
X121505636Y-103794259D01*
X121637942Y-103849062D01*
X121778397Y-103877000D01*
X121921603Y-103877000D01*
X122062058Y-103849062D01*
X122194364Y-103794259D01*
X122313436Y-103714698D01*
X122414698Y-103613436D01*
X122494259Y-103494364D01*
X122549062Y-103362058D01*
X122577000Y-103221603D01*
X122577000Y-103078397D01*
X122549062Y-102937942D01*
X122494259Y-102805636D01*
X122414698Y-102686564D01*
X122313436Y-102585302D01*
X122194364Y-102505741D01*
X122062058Y-102450938D01*
X121921603Y-102423000D01*
X121778397Y-102423000D01*
X121637942Y-102450938D01*
X121505636Y-102505741D01*
X121386564Y-102585302D01*
X121285302Y-102686564D01*
X121205741Y-102805636D01*
X121150938Y-102937942D01*
X121123000Y-103078397D01*
X120477000Y-103078397D01*
X120477000Y-102742873D01*
X120594364Y-102694259D01*
X120713436Y-102614698D01*
X120814698Y-102513436D01*
X120894259Y-102394364D01*
X120949062Y-102262058D01*
X120977000Y-102121603D01*
X120977000Y-101978397D01*
X122223000Y-101978397D01*
X122223000Y-102121603D01*
X122250938Y-102262058D01*
X122305741Y-102394364D01*
X122385302Y-102513436D01*
X122486564Y-102614698D01*
X122605636Y-102694259D01*
X122737942Y-102749062D01*
X122878397Y-102777000D01*
X123021603Y-102777000D01*
X123162058Y-102749062D01*
X123294364Y-102694259D01*
X123413436Y-102614698D01*
X123514698Y-102513436D01*
X123594259Y-102394364D01*
X123600872Y-102378397D01*
X127123000Y-102378397D01*
X127123000Y-102521603D01*
X127150938Y-102662058D01*
X127205741Y-102794364D01*
X127285302Y-102913436D01*
X127386564Y-103014698D01*
X127505636Y-103094259D01*
X127637942Y-103149062D01*
X127778397Y-103177000D01*
X127921603Y-103177000D01*
X128062058Y-103149062D01*
X128194364Y-103094259D01*
X128313436Y-103014698D01*
X128414698Y-102913436D01*
X128494259Y-102794364D01*
X128549062Y-102662058D01*
X128577000Y-102521603D01*
X128577000Y-102378397D01*
X129023000Y-102378397D01*
X129023000Y-102521603D01*
X129050938Y-102662058D01*
X129105741Y-102794364D01*
X129185302Y-102913436D01*
X129286564Y-103014698D01*
X129405636Y-103094259D01*
X129537942Y-103149062D01*
X129678397Y-103177000D01*
X129821603Y-103177000D01*
X129962058Y-103149062D01*
X130094364Y-103094259D01*
X130213436Y-103014698D01*
X130314698Y-102913436D01*
X130394259Y-102794364D01*
X130449062Y-102662058D01*
X130477000Y-102521603D01*
X130477000Y-102378397D01*
X130449062Y-102237942D01*
X130394259Y-102105636D01*
X130314698Y-101986564D01*
X130213436Y-101885302D01*
X130094364Y-101805741D01*
X129962058Y-101750938D01*
X129821603Y-101723000D01*
X129678397Y-101723000D01*
X129537942Y-101750938D01*
X129405636Y-101805741D01*
X129286564Y-101885302D01*
X129185302Y-101986564D01*
X129105741Y-102105636D01*
X129050938Y-102237942D01*
X129023000Y-102378397D01*
X128577000Y-102378397D01*
X128549062Y-102237942D01*
X128494259Y-102105636D01*
X128414698Y-101986564D01*
X128313436Y-101885302D01*
X128194364Y-101805741D01*
X128062058Y-101750938D01*
X127921603Y-101723000D01*
X127778397Y-101723000D01*
X127637942Y-101750938D01*
X127505636Y-101805741D01*
X127386564Y-101885302D01*
X127285302Y-101986564D01*
X127205741Y-102105636D01*
X127150938Y-102237942D01*
X127123000Y-102378397D01*
X123600872Y-102378397D01*
X123649062Y-102262058D01*
X123677000Y-102121603D01*
X123677000Y-101978397D01*
X123649062Y-101837942D01*
X123594259Y-101705636D01*
X123514698Y-101586564D01*
X123413436Y-101485302D01*
X123294364Y-101405741D01*
X123162058Y-101350938D01*
X123021603Y-101323000D01*
X122878397Y-101323000D01*
X122737942Y-101350938D01*
X122605636Y-101405741D01*
X122486564Y-101485302D01*
X122385302Y-101586564D01*
X122305741Y-101705636D01*
X122250938Y-101837942D01*
X122223000Y-101978397D01*
X120977000Y-101978397D01*
X120949062Y-101837942D01*
X120894259Y-101705636D01*
X120814698Y-101586564D01*
X120713436Y-101485302D01*
X120594364Y-101405741D01*
X120477000Y-101357127D01*
X120477000Y-95301011D01*
X120485302Y-95313436D01*
X120586564Y-95414698D01*
X120705636Y-95494259D01*
X120837942Y-95549062D01*
X120978397Y-95577000D01*
X121121603Y-95577000D01*
X121262058Y-95549062D01*
X121394364Y-95494259D01*
X121513436Y-95414698D01*
X121614698Y-95313436D01*
X121694259Y-95194364D01*
X121749062Y-95062058D01*
X121750000Y-95057342D01*
X121750938Y-95062058D01*
X121805741Y-95194364D01*
X121885302Y-95313436D01*
X121986564Y-95414698D01*
X122105636Y-95494259D01*
X122237942Y-95549062D01*
X122378397Y-95577000D01*
X122521603Y-95577000D01*
X122662058Y-95549062D01*
X122794364Y-95494259D01*
X122913436Y-95414698D01*
X123014698Y-95313436D01*
X123094259Y-95194364D01*
X123123001Y-95124975D01*
X123123000Y-100729033D01*
X123120935Y-100750000D01*
X123123000Y-100770967D01*
X123123000Y-100770977D01*
X123129178Y-100833706D01*
X123153595Y-100914195D01*
X123165516Y-100936498D01*
X123193245Y-100988376D01*
X123233232Y-101037100D01*
X123246605Y-101053395D01*
X123262900Y-101066768D01*
X123631549Y-101435418D01*
X123623000Y-101478397D01*
X123623000Y-101621603D01*
X123650938Y-101762058D01*
X123705741Y-101894364D01*
X123785302Y-102013436D01*
X123886564Y-102114698D01*
X124005636Y-102194259D01*
X124137942Y-102249062D01*
X124278397Y-102277000D01*
X124421603Y-102277000D01*
X124562058Y-102249062D01*
X124694364Y-102194259D01*
X124813436Y-102114698D01*
X124914698Y-102013436D01*
X124994259Y-101894364D01*
X125049062Y-101762058D01*
X125077000Y-101621603D01*
X125077000Y-101478397D01*
X125049062Y-101337942D01*
X124994259Y-101205636D01*
X124976059Y-101178397D01*
X125073000Y-101178397D01*
X125073000Y-101321603D01*
X125100938Y-101462058D01*
X125155741Y-101594364D01*
X125235302Y-101713436D01*
X125336564Y-101814698D01*
X125455636Y-101894259D01*
X125587942Y-101949062D01*
X125728397Y-101977000D01*
X125871603Y-101977000D01*
X126012058Y-101949062D01*
X126144364Y-101894259D01*
X126263436Y-101814698D01*
X126364698Y-101713436D01*
X126444259Y-101594364D01*
X126499062Y-101462058D01*
X126515703Y-101378397D01*
X130723000Y-101378397D01*
X130723000Y-101521603D01*
X130750938Y-101662058D01*
X130805741Y-101794364D01*
X130885302Y-101913436D01*
X130986564Y-102014698D01*
X131105636Y-102094259D01*
X131237942Y-102149062D01*
X131378397Y-102177000D01*
X131521603Y-102177000D01*
X131662058Y-102149062D01*
X131794364Y-102094259D01*
X131823000Y-102075125D01*
X131823000Y-102324875D01*
X131794364Y-102305741D01*
X131662058Y-102250938D01*
X131521603Y-102223000D01*
X131378397Y-102223000D01*
X131237942Y-102250938D01*
X131105636Y-102305741D01*
X130986564Y-102385302D01*
X130885302Y-102486564D01*
X130805741Y-102605636D01*
X130750938Y-102737942D01*
X130723000Y-102878397D01*
X130723000Y-103021603D01*
X130750938Y-103162058D01*
X130805741Y-103294364D01*
X130885302Y-103413436D01*
X130986564Y-103514698D01*
X131105636Y-103594259D01*
X131237942Y-103649062D01*
X131378397Y-103677000D01*
X131521603Y-103677000D01*
X131662058Y-103649062D01*
X131794364Y-103594259D01*
X131823000Y-103575125D01*
X131823001Y-115560956D01*
X131786564Y-115585302D01*
X131685302Y-115686564D01*
X131605741Y-115805636D01*
X131550938Y-115937942D01*
X131523000Y-116078397D01*
X131523000Y-116221603D01*
X131550938Y-116362058D01*
X131605741Y-116494364D01*
X131685302Y-116613436D01*
X131786564Y-116714698D01*
X131905636Y-116794259D01*
X132037942Y-116849062D01*
X132178397Y-116877000D01*
X132321603Y-116877000D01*
X132462058Y-116849062D01*
X132594364Y-116794259D01*
X132713436Y-116714698D01*
X132814698Y-116613436D01*
X132894259Y-116494364D01*
X132942294Y-116378397D01*
X136323000Y-116378397D01*
X136323000Y-116521603D01*
X136350938Y-116662058D01*
X136405741Y-116794364D01*
X136485302Y-116913436D01*
X136586564Y-117014698D01*
X136705636Y-117094259D01*
X136837942Y-117149062D01*
X136978397Y-117177000D01*
X137121603Y-117177000D01*
X137262058Y-117149062D01*
X137394364Y-117094259D01*
X137513436Y-117014698D01*
X137614698Y-116913436D01*
X137694259Y-116794364D01*
X137749062Y-116662058D01*
X137777000Y-116521603D01*
X137777000Y-116378397D01*
X137749062Y-116237942D01*
X137694259Y-116105636D01*
X137614698Y-115986564D01*
X137513436Y-115885302D01*
X137394364Y-115805741D01*
X137262058Y-115750938D01*
X137121603Y-115723000D01*
X136978397Y-115723000D01*
X136837942Y-115750938D01*
X136705636Y-115805741D01*
X136586564Y-115885302D01*
X136485302Y-115986564D01*
X136405741Y-116105636D01*
X136350938Y-116237942D01*
X136323000Y-116378397D01*
X132942294Y-116378397D01*
X132949062Y-116362058D01*
X132977000Y-116221603D01*
X132977000Y-116078397D01*
X132949062Y-115937942D01*
X132894259Y-115805636D01*
X132814698Y-115686564D01*
X132713436Y-115585302D01*
X132677000Y-115560956D01*
X132677000Y-114878397D01*
X141023000Y-114878397D01*
X141023000Y-115021603D01*
X141050938Y-115162058D01*
X141105741Y-115294364D01*
X141185302Y-115413436D01*
X141286564Y-115514698D01*
X141405636Y-115594259D01*
X141537942Y-115649062D01*
X141678397Y-115677000D01*
X141821603Y-115677000D01*
X141962058Y-115649062D01*
X142094364Y-115594259D01*
X142213436Y-115514698D01*
X142314698Y-115413436D01*
X142394259Y-115294364D01*
X142449062Y-115162058D01*
X142477000Y-115021603D01*
X142477000Y-114878397D01*
X142449062Y-114737942D01*
X142394259Y-114605636D01*
X142314698Y-114486564D01*
X142213436Y-114385302D01*
X142094364Y-114305741D01*
X141962058Y-114250938D01*
X141821603Y-114223000D01*
X141678397Y-114223000D01*
X141537942Y-114250938D01*
X141405636Y-114305741D01*
X141286564Y-114385302D01*
X141185302Y-114486564D01*
X141105741Y-114605636D01*
X141050938Y-114737942D01*
X141023000Y-114878397D01*
X132677000Y-114878397D01*
X132677000Y-104675125D01*
X132705636Y-104694259D01*
X132837942Y-104749062D01*
X132978397Y-104777000D01*
X133121603Y-104777000D01*
X133262058Y-104749062D01*
X133394364Y-104694259D01*
X133513436Y-104614698D01*
X133614698Y-104513436D01*
X133694259Y-104394364D01*
X133749062Y-104262058D01*
X133777000Y-104121603D01*
X133777000Y-103978397D01*
X133749062Y-103837942D01*
X133694259Y-103705636D01*
X133614698Y-103586564D01*
X133513436Y-103485302D01*
X133394364Y-103405741D01*
X133262058Y-103350938D01*
X133121603Y-103323000D01*
X132978397Y-103323000D01*
X132837942Y-103350938D01*
X132705636Y-103405741D01*
X132677000Y-103424875D01*
X132677000Y-102328397D01*
X135223000Y-102328397D01*
X135223000Y-102471603D01*
X135250938Y-102612058D01*
X135305741Y-102744364D01*
X135385302Y-102863436D01*
X135486564Y-102964698D01*
X135605636Y-103044259D01*
X135737942Y-103099062D01*
X135878397Y-103127000D01*
X136021603Y-103127000D01*
X136162058Y-103099062D01*
X136294364Y-103044259D01*
X136413436Y-102964698D01*
X136514698Y-102863436D01*
X136594259Y-102744364D01*
X136649062Y-102612058D01*
X136677000Y-102471603D01*
X136677000Y-102328397D01*
X136649062Y-102187942D01*
X136594259Y-102055636D01*
X136514698Y-101936564D01*
X136413436Y-101835302D01*
X136294364Y-101755741D01*
X136162058Y-101700938D01*
X136021603Y-101673000D01*
X135878397Y-101673000D01*
X135737942Y-101700938D01*
X135605636Y-101755741D01*
X135486564Y-101835302D01*
X135385302Y-101936564D01*
X135305741Y-102055636D01*
X135250938Y-102187942D01*
X135223000Y-102328397D01*
X132677000Y-102328397D01*
X132677000Y-101776999D01*
X132721603Y-101776999D01*
X132862058Y-101749061D01*
X132994364Y-101694258D01*
X133113436Y-101614697D01*
X133214698Y-101513435D01*
X133294259Y-101394363D01*
X133342293Y-101278397D01*
X136723000Y-101278397D01*
X136723000Y-101421603D01*
X136750938Y-101562058D01*
X136805741Y-101694364D01*
X136885302Y-101813436D01*
X136986564Y-101914698D01*
X137023001Y-101939044D01*
X137023000Y-103663348D01*
X137020935Y-103684315D01*
X137023000Y-103705282D01*
X137023000Y-103705292D01*
X137029178Y-103768021D01*
X137053595Y-103848510D01*
X137068823Y-103877000D01*
X137093245Y-103922691D01*
X137133232Y-103971415D01*
X137146605Y-103987710D01*
X137162900Y-104001083D01*
X137988098Y-104826281D01*
X137971603Y-104823000D01*
X137828397Y-104823000D01*
X137687942Y-104850938D01*
X137555636Y-104905741D01*
X137436564Y-104985302D01*
X137335302Y-105086564D01*
X137255741Y-105205636D01*
X137200938Y-105337942D01*
X137173000Y-105478397D01*
X137173000Y-105621603D01*
X137200938Y-105762058D01*
X137255741Y-105894364D01*
X137335302Y-106013436D01*
X137436564Y-106114698D01*
X137555636Y-106194259D01*
X137687942Y-106249062D01*
X137828397Y-106277000D01*
X137971603Y-106277000D01*
X138112058Y-106249062D01*
X138244364Y-106194259D01*
X138363436Y-106114698D01*
X138464698Y-106013436D01*
X138544259Y-105894364D01*
X138599062Y-105762058D01*
X138627000Y-105621603D01*
X138627000Y-105478397D01*
X138623719Y-105461902D01*
X149416841Y-116255025D01*
X149385302Y-116286564D01*
X149305741Y-116405636D01*
X149250938Y-116537942D01*
X149223000Y-116678397D01*
X149223000Y-116821603D01*
X149250938Y-116962058D01*
X149305741Y-117094364D01*
X149385302Y-117213436D01*
X149486564Y-117314698D01*
X149605636Y-117394259D01*
X149737942Y-117449062D01*
X149878397Y-117477000D01*
X150021603Y-117477000D01*
X150162058Y-117449062D01*
X150294364Y-117394259D01*
X150413436Y-117314698D01*
X150514698Y-117213436D01*
X150594259Y-117094364D01*
X150649062Y-116962058D01*
X150677000Y-116821603D01*
X150677000Y-116678397D01*
X150649062Y-116537942D01*
X150594259Y-116405636D01*
X150514698Y-116286564D01*
X150413436Y-116185302D01*
X150403102Y-116178397D01*
X154123000Y-116178397D01*
X154123000Y-116321603D01*
X154150938Y-116462058D01*
X154205741Y-116594364D01*
X154285302Y-116713436D01*
X154386564Y-116814698D01*
X154505636Y-116894259D01*
X154637942Y-116949062D01*
X154778397Y-116977000D01*
X154921603Y-116977000D01*
X155062058Y-116949062D01*
X155194364Y-116894259D01*
X155313436Y-116814698D01*
X155414698Y-116713436D01*
X155494259Y-116594364D01*
X155549062Y-116462058D01*
X155577000Y-116321603D01*
X155577000Y-116178397D01*
X155549062Y-116037942D01*
X155494259Y-115905636D01*
X155414698Y-115786564D01*
X155313436Y-115685302D01*
X155194364Y-115605741D01*
X155062058Y-115550938D01*
X154921603Y-115523000D01*
X154778397Y-115523000D01*
X154637942Y-115550938D01*
X154505636Y-115605741D01*
X154386564Y-115685302D01*
X154285302Y-115786564D01*
X154205741Y-115905636D01*
X154150938Y-116037942D01*
X154123000Y-116178397D01*
X150403102Y-116178397D01*
X150376749Y-116160789D01*
X150370822Y-116100608D01*
X150351812Y-116037942D01*
X150346405Y-116020118D01*
X150306756Y-115945939D01*
X150266768Y-115897214D01*
X150266764Y-115897210D01*
X150253395Y-115880920D01*
X150237105Y-115867551D01*
X149247951Y-114878397D01*
X158923000Y-114878397D01*
X158923000Y-115021603D01*
X158950938Y-115162058D01*
X159005741Y-115294364D01*
X159085302Y-115413436D01*
X159186564Y-115514698D01*
X159305636Y-115594259D01*
X159437942Y-115649062D01*
X159578397Y-115677000D01*
X159721603Y-115677000D01*
X159862058Y-115649062D01*
X159994364Y-115594259D01*
X160113436Y-115514698D01*
X160214698Y-115413436D01*
X160294259Y-115294364D01*
X160349062Y-115162058D01*
X160377000Y-115021603D01*
X160377000Y-114878397D01*
X160349062Y-114737942D01*
X160294259Y-114605636D01*
X160214698Y-114486564D01*
X160113436Y-114385302D01*
X159994364Y-114305741D01*
X159862058Y-114250938D01*
X159721603Y-114223000D01*
X159578397Y-114223000D01*
X159437942Y-114250938D01*
X159305636Y-114305741D01*
X159186564Y-114385302D01*
X159085302Y-114486564D01*
X159005741Y-114605636D01*
X158950938Y-114737942D01*
X158923000Y-114878397D01*
X149247951Y-114878397D01*
X139847951Y-105478397D01*
X143473000Y-105478397D01*
X143473000Y-105621603D01*
X143500938Y-105762058D01*
X143555741Y-105894364D01*
X143635302Y-106013436D01*
X143736564Y-106114698D01*
X143855636Y-106194259D01*
X143987942Y-106249062D01*
X144128397Y-106277000D01*
X144271603Y-106277000D01*
X144412058Y-106249062D01*
X144544364Y-106194259D01*
X144663436Y-106114698D01*
X144764698Y-106013436D01*
X144844259Y-105894364D01*
X144899062Y-105762058D01*
X144927000Y-105621603D01*
X144927000Y-105478397D01*
X147673000Y-105478397D01*
X147673000Y-105621603D01*
X147700938Y-105762058D01*
X147755741Y-105894364D01*
X147835302Y-106013436D01*
X147936564Y-106114698D01*
X148055636Y-106194259D01*
X148187942Y-106249062D01*
X148328397Y-106277000D01*
X148471603Y-106277000D01*
X148612058Y-106249062D01*
X148744364Y-106194259D01*
X148863436Y-106114698D01*
X148964698Y-106013436D01*
X149044259Y-105894364D01*
X149099062Y-105762058D01*
X149127000Y-105621603D01*
X149127000Y-105478397D01*
X154073000Y-105478397D01*
X154073000Y-105621603D01*
X154100938Y-105762058D01*
X154155741Y-105894364D01*
X154235302Y-106013436D01*
X154336564Y-106114698D01*
X154455636Y-106194259D01*
X154587942Y-106249062D01*
X154728397Y-106277000D01*
X154871603Y-106277000D01*
X155012058Y-106249062D01*
X155144364Y-106194259D01*
X155263436Y-106114698D01*
X155364698Y-106013436D01*
X155444259Y-105894364D01*
X155499062Y-105762058D01*
X155527000Y-105621603D01*
X155527000Y-105478397D01*
X155499062Y-105337942D01*
X155444259Y-105205636D01*
X155364698Y-105086564D01*
X155263436Y-104985302D01*
X155144364Y-104905741D01*
X155012058Y-104850938D01*
X154871603Y-104823000D01*
X154728397Y-104823000D01*
X154587942Y-104850938D01*
X154455636Y-104905741D01*
X154336564Y-104985302D01*
X154235302Y-105086564D01*
X154155741Y-105205636D01*
X154100938Y-105337942D01*
X154073000Y-105478397D01*
X149127000Y-105478397D01*
X149099062Y-105337942D01*
X149044259Y-105205636D01*
X148964698Y-105086564D01*
X148863436Y-104985302D01*
X148744364Y-104905741D01*
X148612058Y-104850938D01*
X148471603Y-104823000D01*
X148328397Y-104823000D01*
X148187942Y-104850938D01*
X148055636Y-104905741D01*
X147936564Y-104985302D01*
X147835302Y-105086564D01*
X147755741Y-105205636D01*
X147700938Y-105337942D01*
X147673000Y-105478397D01*
X144927000Y-105478397D01*
X144899062Y-105337942D01*
X144844259Y-105205636D01*
X144764698Y-105086564D01*
X144663436Y-104985302D01*
X144544364Y-104905741D01*
X144412058Y-104850938D01*
X144271603Y-104823000D01*
X144128397Y-104823000D01*
X143987942Y-104850938D01*
X143855636Y-104905741D01*
X143736564Y-104985302D01*
X143635302Y-105086564D01*
X143555741Y-105205636D01*
X143500938Y-105337942D01*
X143473000Y-105478397D01*
X139847951Y-105478397D01*
X137997951Y-103628397D01*
X156323000Y-103628397D01*
X156323000Y-103771603D01*
X156350938Y-103912058D01*
X156405741Y-104044364D01*
X156485302Y-104163436D01*
X156586564Y-104264698D01*
X156705636Y-104344259D01*
X156837942Y-104399062D01*
X156978397Y-104427000D01*
X157121603Y-104427000D01*
X157262058Y-104399062D01*
X157394364Y-104344259D01*
X157513436Y-104264698D01*
X157614698Y-104163436D01*
X157694259Y-104044364D01*
X157749062Y-103912058D01*
X157777000Y-103771603D01*
X157777000Y-103628397D01*
X157749062Y-103487942D01*
X157694259Y-103355636D01*
X157614698Y-103236564D01*
X157556531Y-103178397D01*
X162323000Y-103178397D01*
X162323000Y-103321603D01*
X162350938Y-103462058D01*
X162405741Y-103594364D01*
X162485302Y-103713436D01*
X162586564Y-103814698D01*
X162705636Y-103894259D01*
X162837942Y-103949062D01*
X162978397Y-103977000D01*
X163121603Y-103977000D01*
X163262058Y-103949062D01*
X163394364Y-103894259D01*
X163513436Y-103814698D01*
X163614698Y-103713436D01*
X163694259Y-103594364D01*
X163749062Y-103462058D01*
X163777000Y-103321603D01*
X163777000Y-103278397D01*
X164923000Y-103278397D01*
X164923000Y-103421603D01*
X164950938Y-103562058D01*
X165005741Y-103694364D01*
X165085302Y-103813436D01*
X165186564Y-103914698D01*
X165305636Y-103994259D01*
X165437942Y-104049062D01*
X165578397Y-104077000D01*
X165721603Y-104077000D01*
X165862058Y-104049062D01*
X165994364Y-103994259D01*
X166113436Y-103914698D01*
X166214698Y-103813436D01*
X166294259Y-103694364D01*
X166349062Y-103562058D01*
X166377000Y-103421603D01*
X166377000Y-103278397D01*
X166349062Y-103137942D01*
X166294259Y-103005636D01*
X166214698Y-102886564D01*
X166113436Y-102785302D01*
X165994364Y-102705741D01*
X165862058Y-102650938D01*
X165721603Y-102623000D01*
X165578397Y-102623000D01*
X165437942Y-102650938D01*
X165305636Y-102705741D01*
X165186564Y-102785302D01*
X165085302Y-102886564D01*
X165005741Y-103005636D01*
X164950938Y-103137942D01*
X164923000Y-103278397D01*
X163777000Y-103278397D01*
X163777000Y-103178397D01*
X163749062Y-103037942D01*
X163694259Y-102905636D01*
X163614698Y-102786564D01*
X163513436Y-102685302D01*
X163394364Y-102605741D01*
X163262058Y-102550938D01*
X163121603Y-102523000D01*
X162978397Y-102523000D01*
X162837942Y-102550938D01*
X162705636Y-102605741D01*
X162586564Y-102685302D01*
X162485302Y-102786564D01*
X162405741Y-102905636D01*
X162350938Y-103037942D01*
X162323000Y-103178397D01*
X157556531Y-103178397D01*
X157513436Y-103135302D01*
X157394364Y-103055741D01*
X157262058Y-103000938D01*
X157121603Y-102973000D01*
X156978397Y-102973000D01*
X156837942Y-103000938D01*
X156705636Y-103055741D01*
X156586564Y-103135302D01*
X156485302Y-103236564D01*
X156405741Y-103355636D01*
X156350938Y-103487942D01*
X156323000Y-103628397D01*
X137997951Y-103628397D01*
X137877000Y-103507447D01*
X137877000Y-101939044D01*
X137913436Y-101914698D01*
X138014698Y-101813436D01*
X138094259Y-101694364D01*
X138149062Y-101562058D01*
X138177000Y-101421603D01*
X138177000Y-101278397D01*
X138149062Y-101137942D01*
X138094259Y-101005636D01*
X138014698Y-100886564D01*
X137913436Y-100785302D01*
X137794364Y-100705741D01*
X137662058Y-100650938D01*
X137521603Y-100623000D01*
X137378397Y-100623000D01*
X137237942Y-100650938D01*
X137105636Y-100705741D01*
X136986564Y-100785302D01*
X136885302Y-100886564D01*
X136805741Y-101005636D01*
X136750938Y-101137942D01*
X136723000Y-101278397D01*
X133342293Y-101278397D01*
X133349062Y-101262057D01*
X133377000Y-101121602D01*
X133377000Y-100978396D01*
X133349062Y-100837941D01*
X133294259Y-100705635D01*
X133214698Y-100586563D01*
X133113436Y-100485301D01*
X132994364Y-100405740D01*
X132862058Y-100350937D01*
X132721603Y-100322999D01*
X132578397Y-100322999D01*
X132437942Y-100350937D01*
X132305636Y-100405740D01*
X132186564Y-100485301D01*
X132085302Y-100586563D01*
X132005741Y-100705635D01*
X131950938Y-100837941D01*
X131936858Y-100908724D01*
X131913436Y-100885302D01*
X131794364Y-100805741D01*
X131662058Y-100750938D01*
X131521603Y-100723000D01*
X131378397Y-100723000D01*
X131237942Y-100750938D01*
X131105636Y-100805741D01*
X130986564Y-100885302D01*
X130885302Y-100986564D01*
X130805741Y-101105636D01*
X130750938Y-101237942D01*
X130723000Y-101378397D01*
X126515703Y-101378397D01*
X126527000Y-101321603D01*
X126527000Y-101178397D01*
X126499062Y-101037942D01*
X126444259Y-100905636D01*
X126364698Y-100786564D01*
X126263436Y-100685302D01*
X126144364Y-100605741D01*
X126012058Y-100550938D01*
X125871603Y-100523000D01*
X125728397Y-100523000D01*
X125587942Y-100550938D01*
X125455636Y-100605741D01*
X125336564Y-100685302D01*
X125235302Y-100786564D01*
X125155741Y-100905636D01*
X125100938Y-101037942D01*
X125073000Y-101178397D01*
X124976059Y-101178397D01*
X124914698Y-101086564D01*
X124813436Y-100985302D01*
X124694364Y-100905741D01*
X124562058Y-100850938D01*
X124421603Y-100823000D01*
X124278397Y-100823000D01*
X124235418Y-100831549D01*
X123977000Y-100573132D01*
X123977000Y-99178397D01*
X127523000Y-99178397D01*
X127523000Y-99321603D01*
X127550938Y-99462058D01*
X127605741Y-99594364D01*
X127685302Y-99713436D01*
X127786564Y-99814698D01*
X127905636Y-99894259D01*
X128037942Y-99949062D01*
X128178397Y-99977000D01*
X128321603Y-99977000D01*
X128462058Y-99949062D01*
X128594364Y-99894259D01*
X128713436Y-99814698D01*
X128814698Y-99713436D01*
X128844918Y-99668209D01*
X128823000Y-99778397D01*
X128823000Y-99921603D01*
X128850938Y-100062058D01*
X128905741Y-100194364D01*
X128985302Y-100313436D01*
X129086564Y-100414698D01*
X129205636Y-100494259D01*
X129337942Y-100549062D01*
X129478397Y-100577000D01*
X129621603Y-100577000D01*
X129762058Y-100549062D01*
X129894364Y-100494259D01*
X130013436Y-100414698D01*
X130114698Y-100313436D01*
X130194259Y-100194364D01*
X130249062Y-100062058D01*
X130277000Y-99921603D01*
X130277000Y-99778397D01*
X130249062Y-99637942D01*
X130194259Y-99505636D01*
X130114698Y-99386564D01*
X130013436Y-99285302D01*
X129894364Y-99205741D01*
X129762058Y-99150938D01*
X129621603Y-99123000D01*
X129478397Y-99123000D01*
X129337942Y-99150938D01*
X129205636Y-99205741D01*
X129086564Y-99285302D01*
X128985302Y-99386564D01*
X128955082Y-99431791D01*
X128977000Y-99321603D01*
X128977000Y-99178397D01*
X128949062Y-99037942D01*
X128894259Y-98905636D01*
X128814698Y-98786564D01*
X128713436Y-98685302D01*
X128594364Y-98605741D01*
X128462058Y-98550938D01*
X128321603Y-98523000D01*
X128178397Y-98523000D01*
X128037942Y-98550938D01*
X127905636Y-98605741D01*
X127786564Y-98685302D01*
X127685302Y-98786564D01*
X127605741Y-98905636D01*
X127550938Y-99037942D01*
X127523000Y-99178397D01*
X123977000Y-99178397D01*
X123977000Y-98749592D01*
X124088322Y-98840952D01*
X124231991Y-98917745D01*
X124387881Y-98965034D01*
X124550000Y-98981001D01*
X124712120Y-98965034D01*
X124868010Y-98917745D01*
X125011679Y-98840952D01*
X125137606Y-98737606D01*
X125240952Y-98611679D01*
X125317745Y-98468010D01*
X125365034Y-98312120D01*
X125377000Y-98190624D01*
X125377000Y-98128397D01*
X135473000Y-98128397D01*
X135473000Y-98271603D01*
X135500938Y-98412058D01*
X135555741Y-98544364D01*
X135635302Y-98663436D01*
X135736564Y-98764698D01*
X135855636Y-98844259D01*
X135987942Y-98899062D01*
X136128397Y-98927000D01*
X136271603Y-98927000D01*
X136412058Y-98899062D01*
X136544364Y-98844259D01*
X136663436Y-98764698D01*
X136764698Y-98663436D01*
X136844259Y-98544364D01*
X136899062Y-98412058D01*
X136927000Y-98271603D01*
X136927000Y-98128397D01*
X136899062Y-97987942D01*
X136844259Y-97855636D01*
X136764698Y-97736564D01*
X136663436Y-97635302D01*
X136544364Y-97555741D01*
X136412058Y-97500938D01*
X136271603Y-97473000D01*
X136128397Y-97473000D01*
X135987942Y-97500938D01*
X135855636Y-97555741D01*
X135736564Y-97635302D01*
X135635302Y-97736564D01*
X135555741Y-97855636D01*
X135500938Y-97987942D01*
X135473000Y-98128397D01*
X125377000Y-98128397D01*
X125377000Y-97524977D01*
X125405741Y-97594364D01*
X125485302Y-97713436D01*
X125586564Y-97814698D01*
X125705636Y-97894259D01*
X125837942Y-97949062D01*
X125978397Y-97977000D01*
X126121603Y-97977000D01*
X126262058Y-97949062D01*
X126394364Y-97894259D01*
X126513436Y-97814698D01*
X126614698Y-97713436D01*
X126694259Y-97594364D01*
X126749062Y-97462058D01*
X126777000Y-97321603D01*
X126777000Y-97178397D01*
X127623000Y-97178397D01*
X127623000Y-97321603D01*
X127650938Y-97462058D01*
X127705741Y-97594364D01*
X127785302Y-97713436D01*
X127886564Y-97814698D01*
X128005636Y-97894259D01*
X128137942Y-97949062D01*
X128278397Y-97977000D01*
X128421603Y-97977000D01*
X128562058Y-97949062D01*
X128694364Y-97894259D01*
X128813436Y-97814698D01*
X128914698Y-97713436D01*
X128994259Y-97594364D01*
X129049062Y-97462058D01*
X129077000Y-97321603D01*
X129077000Y-97178397D01*
X129049062Y-97037942D01*
X128994259Y-96905636D01*
X128914698Y-96786564D01*
X128813436Y-96685302D01*
X128694364Y-96605741D01*
X128562058Y-96550938D01*
X128421603Y-96523000D01*
X128278397Y-96523000D01*
X128137942Y-96550938D01*
X128005636Y-96605741D01*
X127886564Y-96685302D01*
X127785302Y-96786564D01*
X127705741Y-96905636D01*
X127650938Y-97037942D01*
X127623000Y-97178397D01*
X126777000Y-97178397D01*
X126749062Y-97037942D01*
X126694259Y-96905636D01*
X126614698Y-96786564D01*
X126513436Y-96685302D01*
X126394364Y-96605741D01*
X126262058Y-96550938D01*
X126121603Y-96523000D01*
X125978397Y-96523000D01*
X125837942Y-96550938D01*
X125705636Y-96605741D01*
X125586564Y-96685302D01*
X125485302Y-96786564D01*
X125405741Y-96905636D01*
X125377000Y-96975023D01*
X125377000Y-95392553D01*
X125491156Y-95278397D01*
X126523000Y-95278397D01*
X126523000Y-95421603D01*
X126550938Y-95562058D01*
X126605741Y-95694364D01*
X126685302Y-95813436D01*
X126786564Y-95914698D01*
X126905636Y-95994259D01*
X127037942Y-96049062D01*
X127178397Y-96077000D01*
X127321603Y-96077000D01*
X127462058Y-96049062D01*
X127594364Y-95994259D01*
X127713436Y-95914698D01*
X127814698Y-95813436D01*
X127838110Y-95778397D01*
X128673000Y-95778397D01*
X128673000Y-95921603D01*
X128700938Y-96062058D01*
X128755741Y-96194364D01*
X128835302Y-96313436D01*
X128936564Y-96414698D01*
X129055636Y-96494259D01*
X129187942Y-96549062D01*
X129328397Y-96577000D01*
X129471603Y-96577000D01*
X129612058Y-96549062D01*
X129744364Y-96494259D01*
X129863436Y-96414698D01*
X129964698Y-96313436D01*
X130044259Y-96194364D01*
X130099062Y-96062058D01*
X130127000Y-95921603D01*
X130127000Y-95778397D01*
X130099062Y-95637942D01*
X130044259Y-95505636D01*
X129964698Y-95386564D01*
X129863436Y-95285302D01*
X129744364Y-95205741D01*
X129612058Y-95150938D01*
X129471603Y-95123000D01*
X129328397Y-95123000D01*
X129187942Y-95150938D01*
X129055636Y-95205741D01*
X128936564Y-95285302D01*
X128835302Y-95386564D01*
X128755741Y-95505636D01*
X128700938Y-95637942D01*
X128673000Y-95778397D01*
X127838110Y-95778397D01*
X127894259Y-95694364D01*
X127949062Y-95562058D01*
X127977000Y-95421603D01*
X127977000Y-95278397D01*
X127949062Y-95137942D01*
X127894259Y-95005636D01*
X127814698Y-94886564D01*
X127713436Y-94785302D01*
X127594364Y-94705741D01*
X127462058Y-94650938D01*
X127321603Y-94623000D01*
X127178397Y-94623000D01*
X127037942Y-94650938D01*
X126905636Y-94705741D01*
X126786564Y-94785302D01*
X126685302Y-94886564D01*
X126605741Y-95005636D01*
X126550938Y-95137942D01*
X126523000Y-95278397D01*
X125491156Y-95278397D01*
X126492554Y-94277000D01*
X136373132Y-94277000D01*
X139833236Y-97737105D01*
G04 #@! TA.AperFunction,Conductor*
D28*
G36*
X139833236Y-97737105D02*
G01*
X139846605Y-97753395D01*
X139862895Y-97766764D01*
X139862899Y-97766768D01*
X139911623Y-97806756D01*
X139968538Y-97837176D01*
X139985804Y-97846405D01*
X140066293Y-97870822D01*
X140129022Y-97877000D01*
X140129033Y-97877000D01*
X140150000Y-97879065D01*
X140170967Y-97877000D01*
X147760956Y-97877000D01*
X147785302Y-97913436D01*
X147886564Y-98014698D01*
X148005636Y-98094259D01*
X148137942Y-98149062D01*
X148278397Y-98177000D01*
X148421603Y-98177000D01*
X148562058Y-98149062D01*
X148694364Y-98094259D01*
X148813436Y-98014698D01*
X148914698Y-97913436D01*
X148994259Y-97794364D01*
X149049062Y-97662058D01*
X149077000Y-97521603D01*
X149077000Y-97378397D01*
X149049062Y-97237942D01*
X148994259Y-97105636D01*
X148914698Y-96986564D01*
X148813436Y-96885302D01*
X148694364Y-96805741D01*
X148562058Y-96750938D01*
X148421603Y-96723000D01*
X148278397Y-96723000D01*
X148137942Y-96750938D01*
X148005636Y-96805741D01*
X147886564Y-96885302D01*
X147785302Y-96986564D01*
X147760956Y-97023000D01*
X140326869Y-97023000D01*
X137580868Y-94277000D01*
X151085999Y-94277000D01*
X151085999Y-99552939D01*
X151084013Y-99573103D01*
X151091939Y-99653575D01*
X151097832Y-99673000D01*
X151115412Y-99730954D01*
X151153529Y-99802267D01*
X151204827Y-99864775D01*
X151220497Y-99877635D01*
X153129383Y-101786522D01*
X153142234Y-101802181D01*
X153157893Y-101815032D01*
X153157896Y-101815035D01*
X153204740Y-101853479D01*
X153276054Y-101891597D01*
X153353433Y-101915070D01*
X153433905Y-101922996D01*
X153454079Y-101921009D01*
X164545929Y-101921011D01*
X164566093Y-101922997D01*
X164646565Y-101915071D01*
X164685254Y-101903334D01*
X164723944Y-101891598D01*
X164795257Y-101853481D01*
X164857764Y-101802183D01*
X164870619Y-101786519D01*
X166826007Y-99831132D01*
X166841671Y-99818277D01*
X166892969Y-99755770D01*
X166931086Y-99684457D01*
X166954559Y-99607077D01*
X166960499Y-99546769D01*
X166962485Y-99526605D01*
X166960499Y-99506441D01*
X166960499Y-96176310D01*
X166985302Y-96213430D01*
X167086564Y-96314692D01*
X167205636Y-96394253D01*
X167337942Y-96449056D01*
X167478397Y-96476994D01*
X167621603Y-96476994D01*
X167762058Y-96449056D01*
X167894364Y-96394253D01*
X168013436Y-96314692D01*
X168114698Y-96213430D01*
X168194259Y-96094358D01*
X168249062Y-95962052D01*
X168277000Y-95821597D01*
X168277000Y-95678391D01*
X168249062Y-95537936D01*
X168194259Y-95405630D01*
X168114698Y-95286558D01*
X168013436Y-95185296D01*
X167894364Y-95105735D01*
X167762058Y-95050932D01*
X167621603Y-95022994D01*
X167478397Y-95022994D01*
X167337942Y-95050932D01*
X167205636Y-95105735D01*
X167086564Y-95185296D01*
X166985302Y-95286558D01*
X166960499Y-95323678D01*
X166960499Y-94277000D01*
X167568722Y-94277000D01*
X167582255Y-94321611D01*
X167595615Y-94346605D01*
X167659048Y-94465281D01*
X167692167Y-94505636D01*
X167762394Y-94591208D01*
X167793952Y-94617107D01*
X169123001Y-95946158D01*
X169123000Y-101509386D01*
X169119000Y-101550000D01*
X169123000Y-101590614D01*
X169123000Y-101590623D01*
X169123001Y-101590633D01*
X169123001Y-104820248D01*
X168947200Y-104557144D01*
X168642856Y-104252800D01*
X168343473Y-104052759D01*
X168362058Y-104049062D01*
X168494364Y-103994259D01*
X168613436Y-103914698D01*
X168714698Y-103813436D01*
X168794259Y-103694364D01*
X168849062Y-103562058D01*
X168877000Y-103421603D01*
X168877000Y-103278397D01*
X168849062Y-103137942D01*
X168794259Y-103005636D01*
X168714698Y-102886564D01*
X168613436Y-102785302D01*
X168494364Y-102705741D01*
X168362058Y-102650938D01*
X168221603Y-102623000D01*
X168078397Y-102623000D01*
X167937942Y-102650938D01*
X167805636Y-102705741D01*
X167686564Y-102785302D01*
X167585302Y-102886564D01*
X167505741Y-103005636D01*
X167450938Y-103137942D01*
X167423000Y-103278397D01*
X167423000Y-103421603D01*
X167450938Y-103562058D01*
X167505741Y-103694364D01*
X167566386Y-103785127D01*
X167465204Y-103765000D01*
X167034796Y-103765000D01*
X166612659Y-103848969D01*
X166215015Y-104013678D01*
X165857144Y-104252800D01*
X165552800Y-104557144D01*
X165313678Y-104915015D01*
X165148969Y-105312659D01*
X165065000Y-105734796D01*
X165065000Y-106165204D01*
X165148969Y-106587341D01*
X165313678Y-106984985D01*
X165552800Y-107342856D01*
X165857144Y-107647200D01*
X166215015Y-107886322D01*
X166303564Y-107923000D01*
X166278397Y-107923000D01*
X166137942Y-107950938D01*
X166005636Y-108005741D01*
X165886564Y-108085302D01*
X165785302Y-108186564D01*
X165705741Y-108305636D01*
X165650938Y-108437942D01*
X165623000Y-108578397D01*
X165623000Y-108721603D01*
X165650938Y-108862058D01*
X165705741Y-108994364D01*
X165785302Y-109113436D01*
X165886564Y-109214698D01*
X166005636Y-109294259D01*
X166137942Y-109349062D01*
X166278397Y-109377000D01*
X166421603Y-109377000D01*
X166562058Y-109349062D01*
X166694364Y-109294259D01*
X166813436Y-109214698D01*
X166914698Y-109113436D01*
X166994259Y-108994364D01*
X167049062Y-108862058D01*
X167077000Y-108721603D01*
X167077000Y-108578397D01*
X167049062Y-108437942D01*
X166994259Y-108305636D01*
X166914698Y-108186564D01*
X166820509Y-108092375D01*
X167034796Y-108135000D01*
X167465204Y-108135000D01*
X167887341Y-108051031D01*
X168284985Y-107886322D01*
X168642856Y-107647200D01*
X168947200Y-107342856D01*
X169123001Y-107079752D01*
X169123000Y-108198990D01*
X169114698Y-108186564D01*
X169013436Y-108085302D01*
X168894364Y-108005741D01*
X168762058Y-107950938D01*
X168621603Y-107923000D01*
X168478397Y-107923000D01*
X168337942Y-107950938D01*
X168205636Y-108005741D01*
X168086564Y-108085302D01*
X167985302Y-108186564D01*
X167905741Y-108305636D01*
X167850938Y-108437942D01*
X167823000Y-108578397D01*
X167823000Y-108721603D01*
X167850938Y-108862058D01*
X167905741Y-108994364D01*
X167985302Y-109113436D01*
X168086564Y-109214698D01*
X168205636Y-109294259D01*
X168337942Y-109349062D01*
X168478397Y-109377000D01*
X168621603Y-109377000D01*
X168762058Y-109349062D01*
X168894364Y-109294259D01*
X169013436Y-109214698D01*
X169114698Y-109113436D01*
X169123000Y-109101011D01*
X169123000Y-112020247D01*
X168947200Y-111757144D01*
X168642856Y-111452800D01*
X168284985Y-111213678D01*
X167887341Y-111048969D01*
X167465204Y-110965000D01*
X167034796Y-110965000D01*
X166612659Y-111048969D01*
X166215015Y-111213678D01*
X165857144Y-111452800D01*
X165552800Y-111757144D01*
X165313678Y-112115015D01*
X165148969Y-112512659D01*
X165065000Y-112934796D01*
X165065000Y-113365204D01*
X165148969Y-113787341D01*
X165313678Y-114184985D01*
X165552800Y-114542856D01*
X165857144Y-114847200D01*
X166215015Y-115086322D01*
X166612659Y-115251031D01*
X167034796Y-115335000D01*
X167465204Y-115335000D01*
X167679518Y-115292370D01*
X164348889Y-118623000D01*
X151292553Y-118623000D01*
X151063505Y-118393952D01*
X151037606Y-118362394D01*
X150911679Y-118259048D01*
X150768010Y-118182255D01*
X150612120Y-118134966D01*
X150490624Y-118123000D01*
X150490614Y-118123000D01*
X150450000Y-118119000D01*
X150409386Y-118123000D01*
X149790614Y-118123000D01*
X149750000Y-118119000D01*
X149709386Y-118123000D01*
X149709376Y-118123000D01*
X149587880Y-118134966D01*
X149431990Y-118182255D01*
X149365113Y-118218002D01*
X149288320Y-118259048D01*
X149193948Y-118336498D01*
X149162394Y-118362394D01*
X149136499Y-118393947D01*
X148307447Y-119223000D01*
X132677000Y-119223000D01*
X132677000Y-119009376D01*
X132665034Y-118887880D01*
X132617745Y-118731990D01*
X132540952Y-118588321D01*
X132437606Y-118462394D01*
X132311679Y-118359048D01*
X132168010Y-118282255D01*
X132012120Y-118234966D01*
X131850000Y-118218999D01*
X131687881Y-118234966D01*
X131531991Y-118282255D01*
X131388322Y-118359048D01*
X131262395Y-118462394D01*
X131159049Y-118588321D01*
X131082256Y-118731990D01*
X131034967Y-118887880D01*
X131023001Y-119009376D01*
X131023000Y-119823000D01*
X129826016Y-119823000D01*
X129806121Y-119816965D01*
X129684625Y-119804999D01*
X129684615Y-119804999D01*
X129644001Y-119800999D01*
X129603387Y-119804999D01*
X125374553Y-119804999D01*
X121952000Y-116382447D01*
X121952000Y-109915610D01*
X121956000Y-109874999D01*
X121952000Y-109834388D01*
X121952000Y-109834376D01*
X121940034Y-109712880D01*
X121892745Y-109556990D01*
X121815952Y-109413321D01*
X121815951Y-109413319D01*
X121738502Y-109318947D01*
X121738496Y-109318941D01*
X121712606Y-109287394D01*
X121681060Y-109261505D01*
X120477000Y-108057446D01*
X120477000Y-107275125D01*
X120505636Y-107294259D01*
X120637942Y-107349062D01*
X120778397Y-107377000D01*
X120921603Y-107377000D01*
X121062058Y-107349062D01*
X121194364Y-107294259D01*
X121313436Y-107214698D01*
X121414698Y-107113436D01*
X121494259Y-106994364D01*
X121549062Y-106862058D01*
X121577000Y-106721603D01*
X121577000Y-106578397D01*
X121549062Y-106437942D01*
X121494259Y-106305636D01*
X121414698Y-106186564D01*
X121313436Y-106085302D01*
X121194364Y-106005741D01*
X121062058Y-105950938D01*
X120921603Y-105923000D01*
X120778397Y-105923000D01*
X120637942Y-105950938D01*
X120505636Y-106005741D01*
X120477000Y-106024875D01*
X120477000Y-103078397D01*
X121123000Y-103078397D01*
X121123000Y-103221603D01*
X121150938Y-103362058D01*
X121205741Y-103494364D01*
X121285302Y-103613436D01*
X121386564Y-103714698D01*
X121505636Y-103794259D01*
X121637942Y-103849062D01*
X121778397Y-103877000D01*
X121921603Y-103877000D01*
X122062058Y-103849062D01*
X122194364Y-103794259D01*
X122313436Y-103714698D01*
X122414698Y-103613436D01*
X122494259Y-103494364D01*
X122549062Y-103362058D01*
X122577000Y-103221603D01*
X122577000Y-103078397D01*
X122549062Y-102937942D01*
X122494259Y-102805636D01*
X122414698Y-102686564D01*
X122313436Y-102585302D01*
X122194364Y-102505741D01*
X122062058Y-102450938D01*
X121921603Y-102423000D01*
X121778397Y-102423000D01*
X121637942Y-102450938D01*
X121505636Y-102505741D01*
X121386564Y-102585302D01*
X121285302Y-102686564D01*
X121205741Y-102805636D01*
X121150938Y-102937942D01*
X121123000Y-103078397D01*
X120477000Y-103078397D01*
X120477000Y-102742873D01*
X120594364Y-102694259D01*
X120713436Y-102614698D01*
X120814698Y-102513436D01*
X120894259Y-102394364D01*
X120949062Y-102262058D01*
X120977000Y-102121603D01*
X120977000Y-101978397D01*
X122223000Y-101978397D01*
X122223000Y-102121603D01*
X122250938Y-102262058D01*
X122305741Y-102394364D01*
X122385302Y-102513436D01*
X122486564Y-102614698D01*
X122605636Y-102694259D01*
X122737942Y-102749062D01*
X122878397Y-102777000D01*
X123021603Y-102777000D01*
X123162058Y-102749062D01*
X123294364Y-102694259D01*
X123413436Y-102614698D01*
X123514698Y-102513436D01*
X123594259Y-102394364D01*
X123600872Y-102378397D01*
X127123000Y-102378397D01*
X127123000Y-102521603D01*
X127150938Y-102662058D01*
X127205741Y-102794364D01*
X127285302Y-102913436D01*
X127386564Y-103014698D01*
X127505636Y-103094259D01*
X127637942Y-103149062D01*
X127778397Y-103177000D01*
X127921603Y-103177000D01*
X128062058Y-103149062D01*
X128194364Y-103094259D01*
X128313436Y-103014698D01*
X128414698Y-102913436D01*
X128494259Y-102794364D01*
X128549062Y-102662058D01*
X128577000Y-102521603D01*
X128577000Y-102378397D01*
X129023000Y-102378397D01*
X129023000Y-102521603D01*
X129050938Y-102662058D01*
X129105741Y-102794364D01*
X129185302Y-102913436D01*
X129286564Y-103014698D01*
X129405636Y-103094259D01*
X129537942Y-103149062D01*
X129678397Y-103177000D01*
X129821603Y-103177000D01*
X129962058Y-103149062D01*
X130094364Y-103094259D01*
X130213436Y-103014698D01*
X130314698Y-102913436D01*
X130394259Y-102794364D01*
X130449062Y-102662058D01*
X130477000Y-102521603D01*
X130477000Y-102378397D01*
X130449062Y-102237942D01*
X130394259Y-102105636D01*
X130314698Y-101986564D01*
X130213436Y-101885302D01*
X130094364Y-101805741D01*
X129962058Y-101750938D01*
X129821603Y-101723000D01*
X129678397Y-101723000D01*
X129537942Y-101750938D01*
X129405636Y-101805741D01*
X129286564Y-101885302D01*
X129185302Y-101986564D01*
X129105741Y-102105636D01*
X129050938Y-102237942D01*
X129023000Y-102378397D01*
X128577000Y-102378397D01*
X128549062Y-102237942D01*
X128494259Y-102105636D01*
X128414698Y-101986564D01*
X128313436Y-101885302D01*
X128194364Y-101805741D01*
X128062058Y-101750938D01*
X127921603Y-101723000D01*
X127778397Y-101723000D01*
X127637942Y-101750938D01*
X127505636Y-101805741D01*
X127386564Y-101885302D01*
X127285302Y-101986564D01*
X127205741Y-102105636D01*
X127150938Y-102237942D01*
X127123000Y-102378397D01*
X123600872Y-102378397D01*
X123649062Y-102262058D01*
X123677000Y-102121603D01*
X123677000Y-101978397D01*
X123649062Y-101837942D01*
X123594259Y-101705636D01*
X123514698Y-101586564D01*
X123413436Y-101485302D01*
X123294364Y-101405741D01*
X123162058Y-101350938D01*
X123021603Y-101323000D01*
X122878397Y-101323000D01*
X122737942Y-101350938D01*
X122605636Y-101405741D01*
X122486564Y-101485302D01*
X122385302Y-101586564D01*
X122305741Y-101705636D01*
X122250938Y-101837942D01*
X122223000Y-101978397D01*
X120977000Y-101978397D01*
X120949062Y-101837942D01*
X120894259Y-101705636D01*
X120814698Y-101586564D01*
X120713436Y-101485302D01*
X120594364Y-101405741D01*
X120477000Y-101357127D01*
X120477000Y-95301011D01*
X120485302Y-95313436D01*
X120586564Y-95414698D01*
X120705636Y-95494259D01*
X120837942Y-95549062D01*
X120978397Y-95577000D01*
X121121603Y-95577000D01*
X121262058Y-95549062D01*
X121394364Y-95494259D01*
X121513436Y-95414698D01*
X121614698Y-95313436D01*
X121694259Y-95194364D01*
X121749062Y-95062058D01*
X121750000Y-95057342D01*
X121750938Y-95062058D01*
X121805741Y-95194364D01*
X121885302Y-95313436D01*
X121986564Y-95414698D01*
X122105636Y-95494259D01*
X122237942Y-95549062D01*
X122378397Y-95577000D01*
X122521603Y-95577000D01*
X122662058Y-95549062D01*
X122794364Y-95494259D01*
X122913436Y-95414698D01*
X123014698Y-95313436D01*
X123094259Y-95194364D01*
X123123001Y-95124975D01*
X123123000Y-100729033D01*
X123120935Y-100750000D01*
X123123000Y-100770967D01*
X123123000Y-100770977D01*
X123129178Y-100833706D01*
X123153595Y-100914195D01*
X123165516Y-100936498D01*
X123193245Y-100988376D01*
X123233232Y-101037100D01*
X123246605Y-101053395D01*
X123262900Y-101066768D01*
X123631549Y-101435418D01*
X123623000Y-101478397D01*
X123623000Y-101621603D01*
X123650938Y-101762058D01*
X123705741Y-101894364D01*
X123785302Y-102013436D01*
X123886564Y-102114698D01*
X124005636Y-102194259D01*
X124137942Y-102249062D01*
X124278397Y-102277000D01*
X124421603Y-102277000D01*
X124562058Y-102249062D01*
X124694364Y-102194259D01*
X124813436Y-102114698D01*
X124914698Y-102013436D01*
X124994259Y-101894364D01*
X125049062Y-101762058D01*
X125077000Y-101621603D01*
X125077000Y-101478397D01*
X125049062Y-101337942D01*
X124994259Y-101205636D01*
X124976059Y-101178397D01*
X125073000Y-101178397D01*
X125073000Y-101321603D01*
X125100938Y-101462058D01*
X125155741Y-101594364D01*
X125235302Y-101713436D01*
X125336564Y-101814698D01*
X125455636Y-101894259D01*
X125587942Y-101949062D01*
X125728397Y-101977000D01*
X125871603Y-101977000D01*
X126012058Y-101949062D01*
X126144364Y-101894259D01*
X126263436Y-101814698D01*
X126364698Y-101713436D01*
X126444259Y-101594364D01*
X126499062Y-101462058D01*
X126515703Y-101378397D01*
X130723000Y-101378397D01*
X130723000Y-101521603D01*
X130750938Y-101662058D01*
X130805741Y-101794364D01*
X130885302Y-101913436D01*
X130986564Y-102014698D01*
X131105636Y-102094259D01*
X131237942Y-102149062D01*
X131378397Y-102177000D01*
X131521603Y-102177000D01*
X131662058Y-102149062D01*
X131794364Y-102094259D01*
X131823000Y-102075125D01*
X131823000Y-102324875D01*
X131794364Y-102305741D01*
X131662058Y-102250938D01*
X131521603Y-102223000D01*
X131378397Y-102223000D01*
X131237942Y-102250938D01*
X131105636Y-102305741D01*
X130986564Y-102385302D01*
X130885302Y-102486564D01*
X130805741Y-102605636D01*
X130750938Y-102737942D01*
X130723000Y-102878397D01*
X130723000Y-103021603D01*
X130750938Y-103162058D01*
X130805741Y-103294364D01*
X130885302Y-103413436D01*
X130986564Y-103514698D01*
X131105636Y-103594259D01*
X131237942Y-103649062D01*
X131378397Y-103677000D01*
X131521603Y-103677000D01*
X131662058Y-103649062D01*
X131794364Y-103594259D01*
X131823000Y-103575125D01*
X131823001Y-115560956D01*
X131786564Y-115585302D01*
X131685302Y-115686564D01*
X131605741Y-115805636D01*
X131550938Y-115937942D01*
X131523000Y-116078397D01*
X131523000Y-116221603D01*
X131550938Y-116362058D01*
X131605741Y-116494364D01*
X131685302Y-116613436D01*
X131786564Y-116714698D01*
X131905636Y-116794259D01*
X132037942Y-116849062D01*
X132178397Y-116877000D01*
X132321603Y-116877000D01*
X132462058Y-116849062D01*
X132594364Y-116794259D01*
X132713436Y-116714698D01*
X132814698Y-116613436D01*
X132894259Y-116494364D01*
X132942294Y-116378397D01*
X136323000Y-116378397D01*
X136323000Y-116521603D01*
X136350938Y-116662058D01*
X136405741Y-116794364D01*
X136485302Y-116913436D01*
X136586564Y-117014698D01*
X136705636Y-117094259D01*
X136837942Y-117149062D01*
X136978397Y-117177000D01*
X137121603Y-117177000D01*
X137262058Y-117149062D01*
X137394364Y-117094259D01*
X137513436Y-117014698D01*
X137614698Y-116913436D01*
X137694259Y-116794364D01*
X137749062Y-116662058D01*
X137777000Y-116521603D01*
X137777000Y-116378397D01*
X137749062Y-116237942D01*
X137694259Y-116105636D01*
X137614698Y-115986564D01*
X137513436Y-115885302D01*
X137394364Y-115805741D01*
X137262058Y-115750938D01*
X137121603Y-115723000D01*
X136978397Y-115723000D01*
X136837942Y-115750938D01*
X136705636Y-115805741D01*
X136586564Y-115885302D01*
X136485302Y-115986564D01*
X136405741Y-116105636D01*
X136350938Y-116237942D01*
X136323000Y-116378397D01*
X132942294Y-116378397D01*
X132949062Y-116362058D01*
X132977000Y-116221603D01*
X132977000Y-116078397D01*
X132949062Y-115937942D01*
X132894259Y-115805636D01*
X132814698Y-115686564D01*
X132713436Y-115585302D01*
X132677000Y-115560956D01*
X132677000Y-114878397D01*
X141023000Y-114878397D01*
X141023000Y-115021603D01*
X141050938Y-115162058D01*
X141105741Y-115294364D01*
X141185302Y-115413436D01*
X141286564Y-115514698D01*
X141405636Y-115594259D01*
X141537942Y-115649062D01*
X141678397Y-115677000D01*
X141821603Y-115677000D01*
X141962058Y-115649062D01*
X142094364Y-115594259D01*
X142213436Y-115514698D01*
X142314698Y-115413436D01*
X142394259Y-115294364D01*
X142449062Y-115162058D01*
X142477000Y-115021603D01*
X142477000Y-114878397D01*
X142449062Y-114737942D01*
X142394259Y-114605636D01*
X142314698Y-114486564D01*
X142213436Y-114385302D01*
X142094364Y-114305741D01*
X141962058Y-114250938D01*
X141821603Y-114223000D01*
X141678397Y-114223000D01*
X141537942Y-114250938D01*
X141405636Y-114305741D01*
X141286564Y-114385302D01*
X141185302Y-114486564D01*
X141105741Y-114605636D01*
X141050938Y-114737942D01*
X141023000Y-114878397D01*
X132677000Y-114878397D01*
X132677000Y-104675125D01*
X132705636Y-104694259D01*
X132837942Y-104749062D01*
X132978397Y-104777000D01*
X133121603Y-104777000D01*
X133262058Y-104749062D01*
X133394364Y-104694259D01*
X133513436Y-104614698D01*
X133614698Y-104513436D01*
X133694259Y-104394364D01*
X133749062Y-104262058D01*
X133777000Y-104121603D01*
X133777000Y-103978397D01*
X133749062Y-103837942D01*
X133694259Y-103705636D01*
X133614698Y-103586564D01*
X133513436Y-103485302D01*
X133394364Y-103405741D01*
X133262058Y-103350938D01*
X133121603Y-103323000D01*
X132978397Y-103323000D01*
X132837942Y-103350938D01*
X132705636Y-103405741D01*
X132677000Y-103424875D01*
X132677000Y-102328397D01*
X135223000Y-102328397D01*
X135223000Y-102471603D01*
X135250938Y-102612058D01*
X135305741Y-102744364D01*
X135385302Y-102863436D01*
X135486564Y-102964698D01*
X135605636Y-103044259D01*
X135737942Y-103099062D01*
X135878397Y-103127000D01*
X136021603Y-103127000D01*
X136162058Y-103099062D01*
X136294364Y-103044259D01*
X136413436Y-102964698D01*
X136514698Y-102863436D01*
X136594259Y-102744364D01*
X136649062Y-102612058D01*
X136677000Y-102471603D01*
X136677000Y-102328397D01*
X136649062Y-102187942D01*
X136594259Y-102055636D01*
X136514698Y-101936564D01*
X136413436Y-101835302D01*
X136294364Y-101755741D01*
X136162058Y-101700938D01*
X136021603Y-101673000D01*
X135878397Y-101673000D01*
X135737942Y-101700938D01*
X135605636Y-101755741D01*
X135486564Y-101835302D01*
X135385302Y-101936564D01*
X135305741Y-102055636D01*
X135250938Y-102187942D01*
X135223000Y-102328397D01*
X132677000Y-102328397D01*
X132677000Y-101776999D01*
X132721603Y-101776999D01*
X132862058Y-101749061D01*
X132994364Y-101694258D01*
X133113436Y-101614697D01*
X133214698Y-101513435D01*
X133294259Y-101394363D01*
X133342293Y-101278397D01*
X136723000Y-101278397D01*
X136723000Y-101421603D01*
X136750938Y-101562058D01*
X136805741Y-101694364D01*
X136885302Y-101813436D01*
X136986564Y-101914698D01*
X137023001Y-101939044D01*
X137023000Y-103663348D01*
X137020935Y-103684315D01*
X137023000Y-103705282D01*
X137023000Y-103705292D01*
X137029178Y-103768021D01*
X137053595Y-103848510D01*
X137068823Y-103877000D01*
X137093245Y-103922691D01*
X137133232Y-103971415D01*
X137146605Y-103987710D01*
X137162900Y-104001083D01*
X137988098Y-104826281D01*
X137971603Y-104823000D01*
X137828397Y-104823000D01*
X137687942Y-104850938D01*
X137555636Y-104905741D01*
X137436564Y-104985302D01*
X137335302Y-105086564D01*
X137255741Y-105205636D01*
X137200938Y-105337942D01*
X137173000Y-105478397D01*
X137173000Y-105621603D01*
X137200938Y-105762058D01*
X137255741Y-105894364D01*
X137335302Y-106013436D01*
X137436564Y-106114698D01*
X137555636Y-106194259D01*
X137687942Y-106249062D01*
X137828397Y-106277000D01*
X137971603Y-106277000D01*
X138112058Y-106249062D01*
X138244364Y-106194259D01*
X138363436Y-106114698D01*
X138464698Y-106013436D01*
X138544259Y-105894364D01*
X138599062Y-105762058D01*
X138627000Y-105621603D01*
X138627000Y-105478397D01*
X138623719Y-105461902D01*
X149416841Y-116255025D01*
X149385302Y-116286564D01*
X149305741Y-116405636D01*
X149250938Y-116537942D01*
X149223000Y-116678397D01*
X149223000Y-116821603D01*
X149250938Y-116962058D01*
X149305741Y-117094364D01*
X149385302Y-117213436D01*
X149486564Y-117314698D01*
X149605636Y-117394259D01*
X149737942Y-117449062D01*
X149878397Y-117477000D01*
X150021603Y-117477000D01*
X150162058Y-117449062D01*
X150294364Y-117394259D01*
X150413436Y-117314698D01*
X150514698Y-117213436D01*
X150594259Y-117094364D01*
X150649062Y-116962058D01*
X150677000Y-116821603D01*
X150677000Y-116678397D01*
X150649062Y-116537942D01*
X150594259Y-116405636D01*
X150514698Y-116286564D01*
X150413436Y-116185302D01*
X150403102Y-116178397D01*
X154123000Y-116178397D01*
X154123000Y-116321603D01*
X154150938Y-116462058D01*
X154205741Y-116594364D01*
X154285302Y-116713436D01*
X154386564Y-116814698D01*
X154505636Y-116894259D01*
X154637942Y-116949062D01*
X154778397Y-116977000D01*
X154921603Y-116977000D01*
X155062058Y-116949062D01*
X155194364Y-116894259D01*
X155313436Y-116814698D01*
X155414698Y-116713436D01*
X155494259Y-116594364D01*
X155549062Y-116462058D01*
X155577000Y-116321603D01*
X155577000Y-116178397D01*
X155549062Y-116037942D01*
X155494259Y-115905636D01*
X155414698Y-115786564D01*
X155313436Y-115685302D01*
X155194364Y-115605741D01*
X155062058Y-115550938D01*
X154921603Y-115523000D01*
X154778397Y-115523000D01*
X154637942Y-115550938D01*
X154505636Y-115605741D01*
X154386564Y-115685302D01*
X154285302Y-115786564D01*
X154205741Y-115905636D01*
X154150938Y-116037942D01*
X154123000Y-116178397D01*
X150403102Y-116178397D01*
X150376749Y-116160789D01*
X150370822Y-116100608D01*
X150351812Y-116037942D01*
X150346405Y-116020118D01*
X150306756Y-115945939D01*
X150266768Y-115897214D01*
X150266764Y-115897210D01*
X150253395Y-115880920D01*
X150237105Y-115867551D01*
X149247951Y-114878397D01*
X158923000Y-114878397D01*
X158923000Y-115021603D01*
X158950938Y-115162058D01*
X159005741Y-115294364D01*
X159085302Y-115413436D01*
X159186564Y-115514698D01*
X159305636Y-115594259D01*
X159437942Y-115649062D01*
X159578397Y-115677000D01*
X159721603Y-115677000D01*
X159862058Y-115649062D01*
X159994364Y-115594259D01*
X160113436Y-115514698D01*
X160214698Y-115413436D01*
X160294259Y-115294364D01*
X160349062Y-115162058D01*
X160377000Y-115021603D01*
X160377000Y-114878397D01*
X160349062Y-114737942D01*
X160294259Y-114605636D01*
X160214698Y-114486564D01*
X160113436Y-114385302D01*
X159994364Y-114305741D01*
X159862058Y-114250938D01*
X159721603Y-114223000D01*
X159578397Y-114223000D01*
X159437942Y-114250938D01*
X159305636Y-114305741D01*
X159186564Y-114385302D01*
X159085302Y-114486564D01*
X159005741Y-114605636D01*
X158950938Y-114737942D01*
X158923000Y-114878397D01*
X149247951Y-114878397D01*
X139847951Y-105478397D01*
X143473000Y-105478397D01*
X143473000Y-105621603D01*
X143500938Y-105762058D01*
X143555741Y-105894364D01*
X143635302Y-106013436D01*
X143736564Y-106114698D01*
X143855636Y-106194259D01*
X143987942Y-106249062D01*
X144128397Y-106277000D01*
X144271603Y-106277000D01*
X144412058Y-106249062D01*
X144544364Y-106194259D01*
X144663436Y-106114698D01*
X144764698Y-106013436D01*
X144844259Y-105894364D01*
X144899062Y-105762058D01*
X144927000Y-105621603D01*
X144927000Y-105478397D01*
X147673000Y-105478397D01*
X147673000Y-105621603D01*
X147700938Y-105762058D01*
X147755741Y-105894364D01*
X147835302Y-106013436D01*
X147936564Y-106114698D01*
X148055636Y-106194259D01*
X148187942Y-106249062D01*
X148328397Y-106277000D01*
X148471603Y-106277000D01*
X148612058Y-106249062D01*
X148744364Y-106194259D01*
X148863436Y-106114698D01*
X148964698Y-106013436D01*
X149044259Y-105894364D01*
X149099062Y-105762058D01*
X149127000Y-105621603D01*
X149127000Y-105478397D01*
X154073000Y-105478397D01*
X154073000Y-105621603D01*
X154100938Y-105762058D01*
X154155741Y-105894364D01*
X154235302Y-106013436D01*
X154336564Y-106114698D01*
X154455636Y-106194259D01*
X154587942Y-106249062D01*
X154728397Y-106277000D01*
X154871603Y-106277000D01*
X155012058Y-106249062D01*
X155144364Y-106194259D01*
X155263436Y-106114698D01*
X155364698Y-106013436D01*
X155444259Y-105894364D01*
X155499062Y-105762058D01*
X155527000Y-105621603D01*
X155527000Y-105478397D01*
X155499062Y-105337942D01*
X155444259Y-105205636D01*
X155364698Y-105086564D01*
X155263436Y-104985302D01*
X155144364Y-104905741D01*
X155012058Y-104850938D01*
X154871603Y-104823000D01*
X154728397Y-104823000D01*
X154587942Y-104850938D01*
X154455636Y-104905741D01*
X154336564Y-104985302D01*
X154235302Y-105086564D01*
X154155741Y-105205636D01*
X154100938Y-105337942D01*
X154073000Y-105478397D01*
X149127000Y-105478397D01*
X149099062Y-105337942D01*
X149044259Y-105205636D01*
X148964698Y-105086564D01*
X148863436Y-104985302D01*
X148744364Y-104905741D01*
X148612058Y-104850938D01*
X148471603Y-104823000D01*
X148328397Y-104823000D01*
X148187942Y-104850938D01*
X148055636Y-104905741D01*
X147936564Y-104985302D01*
X147835302Y-105086564D01*
X147755741Y-105205636D01*
X147700938Y-105337942D01*
X147673000Y-105478397D01*
X144927000Y-105478397D01*
X144899062Y-105337942D01*
X144844259Y-105205636D01*
X144764698Y-105086564D01*
X144663436Y-104985302D01*
X144544364Y-104905741D01*
X144412058Y-104850938D01*
X144271603Y-104823000D01*
X144128397Y-104823000D01*
X143987942Y-104850938D01*
X143855636Y-104905741D01*
X143736564Y-104985302D01*
X143635302Y-105086564D01*
X143555741Y-105205636D01*
X143500938Y-105337942D01*
X143473000Y-105478397D01*
X139847951Y-105478397D01*
X137997951Y-103628397D01*
X156323000Y-103628397D01*
X156323000Y-103771603D01*
X156350938Y-103912058D01*
X156405741Y-104044364D01*
X156485302Y-104163436D01*
X156586564Y-104264698D01*
X156705636Y-104344259D01*
X156837942Y-104399062D01*
X156978397Y-104427000D01*
X157121603Y-104427000D01*
X157262058Y-104399062D01*
X157394364Y-104344259D01*
X157513436Y-104264698D01*
X157614698Y-104163436D01*
X157694259Y-104044364D01*
X157749062Y-103912058D01*
X157777000Y-103771603D01*
X157777000Y-103628397D01*
X157749062Y-103487942D01*
X157694259Y-103355636D01*
X157614698Y-103236564D01*
X157556531Y-103178397D01*
X162323000Y-103178397D01*
X162323000Y-103321603D01*
X162350938Y-103462058D01*
X162405741Y-103594364D01*
X162485302Y-103713436D01*
X162586564Y-103814698D01*
X162705636Y-103894259D01*
X162837942Y-103949062D01*
X162978397Y-103977000D01*
X163121603Y-103977000D01*
X163262058Y-103949062D01*
X163394364Y-103894259D01*
X163513436Y-103814698D01*
X163614698Y-103713436D01*
X163694259Y-103594364D01*
X163749062Y-103462058D01*
X163777000Y-103321603D01*
X163777000Y-103278397D01*
X164923000Y-103278397D01*
X164923000Y-103421603D01*
X164950938Y-103562058D01*
X165005741Y-103694364D01*
X165085302Y-103813436D01*
X165186564Y-103914698D01*
X165305636Y-103994259D01*
X165437942Y-104049062D01*
X165578397Y-104077000D01*
X165721603Y-104077000D01*
X165862058Y-104049062D01*
X165994364Y-103994259D01*
X166113436Y-103914698D01*
X166214698Y-103813436D01*
X166294259Y-103694364D01*
X166349062Y-103562058D01*
X166377000Y-103421603D01*
X166377000Y-103278397D01*
X166349062Y-103137942D01*
X166294259Y-103005636D01*
X166214698Y-102886564D01*
X166113436Y-102785302D01*
X165994364Y-102705741D01*
X165862058Y-102650938D01*
X165721603Y-102623000D01*
X165578397Y-102623000D01*
X165437942Y-102650938D01*
X165305636Y-102705741D01*
X165186564Y-102785302D01*
X165085302Y-102886564D01*
X165005741Y-103005636D01*
X164950938Y-103137942D01*
X164923000Y-103278397D01*
X163777000Y-103278397D01*
X163777000Y-103178397D01*
X163749062Y-103037942D01*
X163694259Y-102905636D01*
X163614698Y-102786564D01*
X163513436Y-102685302D01*
X163394364Y-102605741D01*
X163262058Y-102550938D01*
X163121603Y-102523000D01*
X162978397Y-102523000D01*
X162837942Y-102550938D01*
X162705636Y-102605741D01*
X162586564Y-102685302D01*
X162485302Y-102786564D01*
X162405741Y-102905636D01*
X162350938Y-103037942D01*
X162323000Y-103178397D01*
X157556531Y-103178397D01*
X157513436Y-103135302D01*
X157394364Y-103055741D01*
X157262058Y-103000938D01*
X157121603Y-102973000D01*
X156978397Y-102973000D01*
X156837942Y-103000938D01*
X156705636Y-103055741D01*
X156586564Y-103135302D01*
X156485302Y-103236564D01*
X156405741Y-103355636D01*
X156350938Y-103487942D01*
X156323000Y-103628397D01*
X137997951Y-103628397D01*
X137877000Y-103507447D01*
X137877000Y-101939044D01*
X137913436Y-101914698D01*
X138014698Y-101813436D01*
X138094259Y-101694364D01*
X138149062Y-101562058D01*
X138177000Y-101421603D01*
X138177000Y-101278397D01*
X138149062Y-101137942D01*
X138094259Y-101005636D01*
X138014698Y-100886564D01*
X137913436Y-100785302D01*
X137794364Y-100705741D01*
X137662058Y-100650938D01*
X137521603Y-100623000D01*
X137378397Y-100623000D01*
X137237942Y-100650938D01*
X137105636Y-100705741D01*
X136986564Y-100785302D01*
X136885302Y-100886564D01*
X136805741Y-101005636D01*
X136750938Y-101137942D01*
X136723000Y-101278397D01*
X133342293Y-101278397D01*
X133349062Y-101262057D01*
X133377000Y-101121602D01*
X133377000Y-100978396D01*
X133349062Y-100837941D01*
X133294259Y-100705635D01*
X133214698Y-100586563D01*
X133113436Y-100485301D01*
X132994364Y-100405740D01*
X132862058Y-100350937D01*
X132721603Y-100322999D01*
X132578397Y-100322999D01*
X132437942Y-100350937D01*
X132305636Y-100405740D01*
X132186564Y-100485301D01*
X132085302Y-100586563D01*
X132005741Y-100705635D01*
X131950938Y-100837941D01*
X131936858Y-100908724D01*
X131913436Y-100885302D01*
X131794364Y-100805741D01*
X131662058Y-100750938D01*
X131521603Y-100723000D01*
X131378397Y-100723000D01*
X131237942Y-100750938D01*
X131105636Y-100805741D01*
X130986564Y-100885302D01*
X130885302Y-100986564D01*
X130805741Y-101105636D01*
X130750938Y-101237942D01*
X130723000Y-101378397D01*
X126515703Y-101378397D01*
X126527000Y-101321603D01*
X126527000Y-101178397D01*
X126499062Y-101037942D01*
X126444259Y-100905636D01*
X126364698Y-100786564D01*
X126263436Y-100685302D01*
X126144364Y-100605741D01*
X126012058Y-100550938D01*
X125871603Y-100523000D01*
X125728397Y-100523000D01*
X125587942Y-100550938D01*
X125455636Y-100605741D01*
X125336564Y-100685302D01*
X125235302Y-100786564D01*
X125155741Y-100905636D01*
X125100938Y-101037942D01*
X125073000Y-101178397D01*
X124976059Y-101178397D01*
X124914698Y-101086564D01*
X124813436Y-100985302D01*
X124694364Y-100905741D01*
X124562058Y-100850938D01*
X124421603Y-100823000D01*
X124278397Y-100823000D01*
X124235418Y-100831549D01*
X123977000Y-100573132D01*
X123977000Y-99178397D01*
X127523000Y-99178397D01*
X127523000Y-99321603D01*
X127550938Y-99462058D01*
X127605741Y-99594364D01*
X127685302Y-99713436D01*
X127786564Y-99814698D01*
X127905636Y-99894259D01*
X128037942Y-99949062D01*
X128178397Y-99977000D01*
X128321603Y-99977000D01*
X128462058Y-99949062D01*
X128594364Y-99894259D01*
X128713436Y-99814698D01*
X128814698Y-99713436D01*
X128844918Y-99668209D01*
X128823000Y-99778397D01*
X128823000Y-99921603D01*
X128850938Y-100062058D01*
X128905741Y-100194364D01*
X128985302Y-100313436D01*
X129086564Y-100414698D01*
X129205636Y-100494259D01*
X129337942Y-100549062D01*
X129478397Y-100577000D01*
X129621603Y-100577000D01*
X129762058Y-100549062D01*
X129894364Y-100494259D01*
X130013436Y-100414698D01*
X130114698Y-100313436D01*
X130194259Y-100194364D01*
X130249062Y-100062058D01*
X130277000Y-99921603D01*
X130277000Y-99778397D01*
X130249062Y-99637942D01*
X130194259Y-99505636D01*
X130114698Y-99386564D01*
X130013436Y-99285302D01*
X129894364Y-99205741D01*
X129762058Y-99150938D01*
X129621603Y-99123000D01*
X129478397Y-99123000D01*
X129337942Y-99150938D01*
X129205636Y-99205741D01*
X129086564Y-99285302D01*
X128985302Y-99386564D01*
X128955082Y-99431791D01*
X128977000Y-99321603D01*
X128977000Y-99178397D01*
X128949062Y-99037942D01*
X128894259Y-98905636D01*
X128814698Y-98786564D01*
X128713436Y-98685302D01*
X128594364Y-98605741D01*
X128462058Y-98550938D01*
X128321603Y-98523000D01*
X128178397Y-98523000D01*
X128037942Y-98550938D01*
X127905636Y-98605741D01*
X127786564Y-98685302D01*
X127685302Y-98786564D01*
X127605741Y-98905636D01*
X127550938Y-99037942D01*
X127523000Y-99178397D01*
X123977000Y-99178397D01*
X123977000Y-98749592D01*
X124088322Y-98840952D01*
X124231991Y-98917745D01*
X124387881Y-98965034D01*
X124550000Y-98981001D01*
X124712120Y-98965034D01*
X124868010Y-98917745D01*
X125011679Y-98840952D01*
X125137606Y-98737606D01*
X125240952Y-98611679D01*
X125317745Y-98468010D01*
X125365034Y-98312120D01*
X125377000Y-98190624D01*
X125377000Y-98128397D01*
X135473000Y-98128397D01*
X135473000Y-98271603D01*
X135500938Y-98412058D01*
X135555741Y-98544364D01*
X135635302Y-98663436D01*
X135736564Y-98764698D01*
X135855636Y-98844259D01*
X135987942Y-98899062D01*
X136128397Y-98927000D01*
X136271603Y-98927000D01*
X136412058Y-98899062D01*
X136544364Y-98844259D01*
X136663436Y-98764698D01*
X136764698Y-98663436D01*
X136844259Y-98544364D01*
X136899062Y-98412058D01*
X136927000Y-98271603D01*
X136927000Y-98128397D01*
X136899062Y-97987942D01*
X136844259Y-97855636D01*
X136764698Y-97736564D01*
X136663436Y-97635302D01*
X136544364Y-97555741D01*
X136412058Y-97500938D01*
X136271603Y-97473000D01*
X136128397Y-97473000D01*
X135987942Y-97500938D01*
X135855636Y-97555741D01*
X135736564Y-97635302D01*
X135635302Y-97736564D01*
X135555741Y-97855636D01*
X135500938Y-97987942D01*
X135473000Y-98128397D01*
X125377000Y-98128397D01*
X125377000Y-97524977D01*
X125405741Y-97594364D01*
X125485302Y-97713436D01*
X125586564Y-97814698D01*
X125705636Y-97894259D01*
X125837942Y-97949062D01*
X125978397Y-97977000D01*
X126121603Y-97977000D01*
X126262058Y-97949062D01*
X126394364Y-97894259D01*
X126513436Y-97814698D01*
X126614698Y-97713436D01*
X126694259Y-97594364D01*
X126749062Y-97462058D01*
X126777000Y-97321603D01*
X126777000Y-97178397D01*
X127623000Y-97178397D01*
X127623000Y-97321603D01*
X127650938Y-97462058D01*
X127705741Y-97594364D01*
X127785302Y-97713436D01*
X127886564Y-97814698D01*
X128005636Y-97894259D01*
X128137942Y-97949062D01*
X128278397Y-97977000D01*
X128421603Y-97977000D01*
X128562058Y-97949062D01*
X128694364Y-97894259D01*
X128813436Y-97814698D01*
X128914698Y-97713436D01*
X128994259Y-97594364D01*
X129049062Y-97462058D01*
X129077000Y-97321603D01*
X129077000Y-97178397D01*
X129049062Y-97037942D01*
X128994259Y-96905636D01*
X128914698Y-96786564D01*
X128813436Y-96685302D01*
X128694364Y-96605741D01*
X128562058Y-96550938D01*
X128421603Y-96523000D01*
X128278397Y-96523000D01*
X128137942Y-96550938D01*
X128005636Y-96605741D01*
X127886564Y-96685302D01*
X127785302Y-96786564D01*
X127705741Y-96905636D01*
X127650938Y-97037942D01*
X127623000Y-97178397D01*
X126777000Y-97178397D01*
X126749062Y-97037942D01*
X126694259Y-96905636D01*
X126614698Y-96786564D01*
X126513436Y-96685302D01*
X126394364Y-96605741D01*
X126262058Y-96550938D01*
X126121603Y-96523000D01*
X125978397Y-96523000D01*
X125837942Y-96550938D01*
X125705636Y-96605741D01*
X125586564Y-96685302D01*
X125485302Y-96786564D01*
X125405741Y-96905636D01*
X125377000Y-96975023D01*
X125377000Y-95392553D01*
X125491156Y-95278397D01*
X126523000Y-95278397D01*
X126523000Y-95421603D01*
X126550938Y-95562058D01*
X126605741Y-95694364D01*
X126685302Y-95813436D01*
X126786564Y-95914698D01*
X126905636Y-95994259D01*
X127037942Y-96049062D01*
X127178397Y-96077000D01*
X127321603Y-96077000D01*
X127462058Y-96049062D01*
X127594364Y-95994259D01*
X127713436Y-95914698D01*
X127814698Y-95813436D01*
X127838110Y-95778397D01*
X128673000Y-95778397D01*
X128673000Y-95921603D01*
X128700938Y-96062058D01*
X128755741Y-96194364D01*
X128835302Y-96313436D01*
X128936564Y-96414698D01*
X129055636Y-96494259D01*
X129187942Y-96549062D01*
X129328397Y-96577000D01*
X129471603Y-96577000D01*
X129612058Y-96549062D01*
X129744364Y-96494259D01*
X129863436Y-96414698D01*
X129964698Y-96313436D01*
X130044259Y-96194364D01*
X130099062Y-96062058D01*
X130127000Y-95921603D01*
X130127000Y-95778397D01*
X130099062Y-95637942D01*
X130044259Y-95505636D01*
X129964698Y-95386564D01*
X129863436Y-95285302D01*
X129744364Y-95205741D01*
X129612058Y-95150938D01*
X129471603Y-95123000D01*
X129328397Y-95123000D01*
X129187942Y-95150938D01*
X129055636Y-95205741D01*
X128936564Y-95285302D01*
X128835302Y-95386564D01*
X128755741Y-95505636D01*
X128700938Y-95637942D01*
X128673000Y-95778397D01*
X127838110Y-95778397D01*
X127894259Y-95694364D01*
X127949062Y-95562058D01*
X127977000Y-95421603D01*
X127977000Y-95278397D01*
X127949062Y-95137942D01*
X127894259Y-95005636D01*
X127814698Y-94886564D01*
X127713436Y-94785302D01*
X127594364Y-94705741D01*
X127462058Y-94650938D01*
X127321603Y-94623000D01*
X127178397Y-94623000D01*
X127037942Y-94650938D01*
X126905636Y-94705741D01*
X126786564Y-94785302D01*
X126685302Y-94886564D01*
X126605741Y-95005636D01*
X126550938Y-95137942D01*
X126523000Y-95278397D01*
X125491156Y-95278397D01*
X126492554Y-94277000D01*
X136373132Y-94277000D01*
X139833236Y-97737105D01*
G37*
G04 #@! TD.AperFunction*
M02*
