G04 #@! TF.GenerationSoftware,KiCad,Pcbnew,(5.1.10-1-10_14)*
G04 #@! TF.CreationDate,2021-08-04T20:57:59+10:00*
G04 #@! TF.ProjectId,esp32_battery_isolator,65737033-325f-4626-9174-746572795f69,D*
G04 #@! TF.SameCoordinates,Original*
G04 #@! TF.FileFunction,Soldermask,Top*
G04 #@! TF.FilePolarity,Negative*
%FSLAX46Y46*%
G04 Gerber Fmt 4.6, Leading zero omitted, Abs format (unit mm)*
G04 Created by KiCad (PCBNEW (5.1.10-1-10_14)) date 2021-08-04 20:57:59*
%MOMM*%
%LPD*%
G01*
G04 APERTURE LIST*
%ADD10R,0.350000X0.500000*%
%ADD11R,0.380000X0.430000*%
%ADD12R,2.450000X1.980000*%
%ADD13R,0.400000X0.300000*%
%ADD14C,3.716000*%
%ADD15O,2.600000X1.300000*%
%ADD16O,1.300000X2.600000*%
%ADD17O,1.200000X2.400000*%
%ADD18R,3.716000X3.716000*%
%ADD19R,1.400000X1.000000*%
%ADD20O,1.900000X1.070000*%
%ADD21R,1.350000X0.600000*%
%ADD22C,1.300000*%
%ADD23R,1.250000X0.400000*%
%ADD24C,0.800000*%
%ADD25C,6.400000*%
%ADD26R,1.700000X1.700000*%
%ADD27O,1.700000X1.700000*%
%ADD28R,5.000000X5.000000*%
%ADD29R,2.000000X0.900000*%
%ADD30R,0.900000X2.000000*%
%ADD31O,2.400000X1.200000*%
%ADD32R,0.900000X0.800000*%
%ADD33R,0.800000X0.900000*%
%ADD34R,0.800000X2.900000*%
%ADD35R,1.060000X0.650000*%
%ADD36R,0.900000X1.200000*%
%ADD37R,1.200000X0.900000*%
G04 APERTURE END LIST*
D10*
X121925000Y-89150000D03*
X122575000Y-89150000D03*
X121275000Y-89150000D03*
X123225000Y-89150000D03*
D11*
X120835000Y-87750000D03*
X123665000Y-87750000D03*
D12*
X122250000Y-87390000D03*
D13*
X121925000Y-86250000D03*
X121275000Y-86250000D03*
X122575000Y-86250000D03*
X123225000Y-86250000D03*
D10*
X122575000Y-90950000D03*
X121925000Y-90950000D03*
X123225000Y-90950000D03*
X121275000Y-90950000D03*
D11*
X123665000Y-92350000D03*
X120835000Y-92350000D03*
D12*
X122250000Y-92710000D03*
D13*
X122575000Y-93850000D03*
X123225000Y-93850000D03*
X121925000Y-93850000D03*
X121275000Y-93850000D03*
D10*
X144825000Y-119550000D03*
X145475000Y-119550000D03*
X144175000Y-119550000D03*
X146125000Y-119550000D03*
D11*
X143735000Y-118150000D03*
X146565000Y-118150000D03*
D12*
X145150000Y-117790000D03*
D13*
X144825000Y-116650000D03*
X144175000Y-116650000D03*
X145475000Y-116650000D03*
X146125000Y-116650000D03*
D10*
X129225000Y-103500000D03*
X128575000Y-103500000D03*
X129875000Y-103500000D03*
X127925000Y-103500000D03*
D11*
X130315000Y-104900000D03*
X127485000Y-104900000D03*
D12*
X128900000Y-105260000D03*
D13*
X129225000Y-106400000D03*
X129875000Y-106400000D03*
X128575000Y-106400000D03*
X127925000Y-106400000D03*
D10*
X162825000Y-119550000D03*
X163475000Y-119550000D03*
X162175000Y-119550000D03*
X164125000Y-119550000D03*
D11*
X161735000Y-118150000D03*
X164565000Y-118150000D03*
D12*
X163150000Y-117790000D03*
D13*
X162825000Y-116650000D03*
X162175000Y-116650000D03*
X163475000Y-116650000D03*
X164125000Y-116650000D03*
D10*
X163375000Y-106350000D03*
X162725000Y-106350000D03*
X164025000Y-106350000D03*
X162075000Y-106350000D03*
D11*
X164465000Y-107750000D03*
X161635000Y-107750000D03*
D12*
X163050000Y-108110000D03*
D13*
X163375000Y-109250000D03*
X164025000Y-109250000D03*
X162725000Y-109250000D03*
X162075000Y-109250000D03*
D10*
X128575000Y-101300000D03*
X129225000Y-101300000D03*
X127925000Y-101300000D03*
X129875000Y-101300000D03*
D11*
X127485000Y-99900000D03*
X130315000Y-99900000D03*
D12*
X128900000Y-99540000D03*
D13*
X128575000Y-98400000D03*
X127925000Y-98400000D03*
X129225000Y-98400000D03*
X129875000Y-98400000D03*
D14*
X167250000Y-113150000D03*
X167250000Y-105950000D03*
D15*
X173250000Y-116300000D03*
X173250000Y-102800000D03*
D16*
X166420000Y-129120000D03*
X152920000Y-129120000D03*
D14*
X163270000Y-123120000D03*
X156070000Y-123120000D03*
D17*
X116900000Y-129160000D03*
X130400000Y-129160000D03*
D14*
X120050000Y-123160000D03*
D18*
X127250000Y-123160000D03*
D19*
X144250000Y-106650000D03*
X137950000Y-106650000D03*
X137950000Y-103650000D03*
X144250000Y-103650000D03*
X154750000Y-106650000D03*
X148450000Y-106650000D03*
X148450000Y-103650000D03*
X154750000Y-103650000D03*
D20*
X174050000Y-88750000D03*
X173950000Y-95950000D03*
D21*
X173950000Y-91600000D03*
X173950000Y-93100000D03*
D22*
X171050000Y-89950000D03*
X171050000Y-94750000D03*
D23*
X171050000Y-91050000D03*
X171050000Y-91700000D03*
X171050000Y-92350000D03*
X171050000Y-93000000D03*
X171050000Y-93650000D03*
D24*
X112847056Y-129152944D03*
X111150000Y-128450000D03*
X109452944Y-129152944D03*
X108750000Y-130850000D03*
X109452944Y-132547056D03*
X111150000Y-133250000D03*
X112847056Y-132547056D03*
X113550000Y-130850000D03*
D25*
X111150000Y-130850000D03*
D24*
X173647056Y-76852944D03*
X171950000Y-76150000D03*
X170252944Y-76852944D03*
X169550000Y-78550000D03*
X170252944Y-80247056D03*
X171950000Y-80950000D03*
X173647056Y-80247056D03*
X174350000Y-78550000D03*
D25*
X171950000Y-78550000D03*
X171950000Y-130850000D03*
D24*
X174350000Y-130850000D03*
X173647056Y-132547056D03*
X171950000Y-133250000D03*
X170252944Y-132547056D03*
X169550000Y-130850000D03*
X170252944Y-129152944D03*
X171950000Y-128450000D03*
X173647056Y-129152944D03*
X112847056Y-76952944D03*
X111150000Y-76250000D03*
X109452944Y-76952944D03*
X108750000Y-78650000D03*
X109452944Y-80347056D03*
X111150000Y-81050000D03*
X112847056Y-80347056D03*
X113550000Y-78650000D03*
D25*
X111150000Y-78650000D03*
G36*
G01*
X130400000Y-86475000D02*
X130900000Y-86475000D01*
G75*
G02*
X131125000Y-86700000I0J-225000D01*
G01*
X131125000Y-87150000D01*
G75*
G02*
X130900000Y-87375000I-225000J0D01*
G01*
X130400000Y-87375000D01*
G75*
G02*
X130175000Y-87150000I0J225000D01*
G01*
X130175000Y-86700000D01*
G75*
G02*
X130400000Y-86475000I225000J0D01*
G01*
G37*
G36*
G01*
X130400000Y-84925000D02*
X130900000Y-84925000D01*
G75*
G02*
X131125000Y-85150000I0J-225000D01*
G01*
X131125000Y-85600000D01*
G75*
G02*
X130900000Y-85825000I-225000J0D01*
G01*
X130400000Y-85825000D01*
G75*
G02*
X130175000Y-85600000I0J225000D01*
G01*
X130175000Y-85150000D01*
G75*
G02*
X130400000Y-84925000I225000J0D01*
G01*
G37*
G36*
G01*
X116000000Y-78225000D02*
X115500000Y-78225000D01*
G75*
G02*
X115275000Y-78000000I0J225000D01*
G01*
X115275000Y-77550000D01*
G75*
G02*
X115500000Y-77325000I225000J0D01*
G01*
X116000000Y-77325000D01*
G75*
G02*
X116225000Y-77550000I0J-225000D01*
G01*
X116225000Y-78000000D01*
G75*
G02*
X116000000Y-78225000I-225000J0D01*
G01*
G37*
G36*
G01*
X116000000Y-76675000D02*
X115500000Y-76675000D01*
G75*
G02*
X115275000Y-76450000I0J225000D01*
G01*
X115275000Y-76000000D01*
G75*
G02*
X115500000Y-75775000I225000J0D01*
G01*
X116000000Y-75775000D01*
G75*
G02*
X116225000Y-76000000I0J-225000D01*
G01*
X116225000Y-76450000D01*
G75*
G02*
X116000000Y-76675000I-225000J0D01*
G01*
G37*
G36*
G01*
X156775003Y-83950000D02*
X154924997Y-83950000D01*
G75*
G02*
X154675000Y-83700003I0J249997D01*
G01*
X154675000Y-82874997D01*
G75*
G02*
X154924997Y-82625000I249997J0D01*
G01*
X156775003Y-82625000D01*
G75*
G02*
X157025000Y-82874997I0J-249997D01*
G01*
X157025000Y-83700003D01*
G75*
G02*
X156775003Y-83950000I-249997J0D01*
G01*
G37*
G36*
G01*
X156775003Y-80875000D02*
X154924997Y-80875000D01*
G75*
G02*
X154675000Y-80625003I0J249997D01*
G01*
X154675000Y-79799997D01*
G75*
G02*
X154924997Y-79550000I249997J0D01*
G01*
X156775003Y-79550000D01*
G75*
G02*
X157025000Y-79799997I0J-249997D01*
G01*
X157025000Y-80625003D01*
G75*
G02*
X156775003Y-80875000I-249997J0D01*
G01*
G37*
G36*
G01*
X158400000Y-83475000D02*
X158900000Y-83475000D01*
G75*
G02*
X159125000Y-83700000I0J-225000D01*
G01*
X159125000Y-84150000D01*
G75*
G02*
X158900000Y-84375000I-225000J0D01*
G01*
X158400000Y-84375000D01*
G75*
G02*
X158175000Y-84150000I0J225000D01*
G01*
X158175000Y-83700000D01*
G75*
G02*
X158400000Y-83475000I225000J0D01*
G01*
G37*
G36*
G01*
X158400000Y-81925000D02*
X158900000Y-81925000D01*
G75*
G02*
X159125000Y-82150000I0J-225000D01*
G01*
X159125000Y-82600000D01*
G75*
G02*
X158900000Y-82825000I-225000J0D01*
G01*
X158400000Y-82825000D01*
G75*
G02*
X158175000Y-82600000I0J225000D01*
G01*
X158175000Y-82150000D01*
G75*
G02*
X158400000Y-81925000I225000J0D01*
G01*
G37*
G36*
G01*
X158400000Y-85175000D02*
X158900000Y-85175000D01*
G75*
G02*
X159125000Y-85400000I0J-225000D01*
G01*
X159125000Y-85850000D01*
G75*
G02*
X158900000Y-86075000I-225000J0D01*
G01*
X158400000Y-86075000D01*
G75*
G02*
X158175000Y-85850000I0J225000D01*
G01*
X158175000Y-85400000D01*
G75*
G02*
X158400000Y-85175000I225000J0D01*
G01*
G37*
G36*
G01*
X158400000Y-86725000D02*
X158900000Y-86725000D01*
G75*
G02*
X159125000Y-86950000I0J-225000D01*
G01*
X159125000Y-87400000D01*
G75*
G02*
X158900000Y-87625000I-225000J0D01*
G01*
X158400000Y-87625000D01*
G75*
G02*
X158175000Y-87400000I0J225000D01*
G01*
X158175000Y-86950000D01*
G75*
G02*
X158400000Y-86725000I225000J0D01*
G01*
G37*
G36*
G01*
X154924997Y-88225000D02*
X156775003Y-88225000D01*
G75*
G02*
X157025000Y-88474997I0J-249997D01*
G01*
X157025000Y-89300003D01*
G75*
G02*
X156775003Y-89550000I-249997J0D01*
G01*
X154924997Y-89550000D01*
G75*
G02*
X154675000Y-89300003I0J249997D01*
G01*
X154675000Y-88474997D01*
G75*
G02*
X154924997Y-88225000I249997J0D01*
G01*
G37*
G36*
G01*
X154924997Y-85150000D02*
X156775003Y-85150000D01*
G75*
G02*
X157025000Y-85399997I0J-249997D01*
G01*
X157025000Y-86225003D01*
G75*
G02*
X156775003Y-86475000I-249997J0D01*
G01*
X154924997Y-86475000D01*
G75*
G02*
X154675000Y-86225003I0J249997D01*
G01*
X154675000Y-85399997D01*
G75*
G02*
X154924997Y-85150000I249997J0D01*
G01*
G37*
G36*
G01*
X169475000Y-96300000D02*
X169475000Y-96800000D01*
G75*
G02*
X169250000Y-97025000I-225000J0D01*
G01*
X168800000Y-97025000D01*
G75*
G02*
X168575000Y-96800000I0J225000D01*
G01*
X168575000Y-96300000D01*
G75*
G02*
X168800000Y-96075000I225000J0D01*
G01*
X169250000Y-96075000D01*
G75*
G02*
X169475000Y-96300000I0J-225000D01*
G01*
G37*
G36*
G01*
X167925000Y-96300000D02*
X167925000Y-96800000D01*
G75*
G02*
X167700000Y-97025000I-225000J0D01*
G01*
X167250000Y-97025000D01*
G75*
G02*
X167025000Y-96800000I0J225000D01*
G01*
X167025000Y-96300000D01*
G75*
G02*
X167250000Y-96075000I225000J0D01*
G01*
X167700000Y-96075000D01*
G75*
G02*
X167925000Y-96300000I0J-225000D01*
G01*
G37*
G36*
G01*
X165175000Y-96800000D02*
X165175000Y-96300000D01*
G75*
G02*
X165400000Y-96075000I225000J0D01*
G01*
X165850000Y-96075000D01*
G75*
G02*
X166075000Y-96300000I0J-225000D01*
G01*
X166075000Y-96800000D01*
G75*
G02*
X165850000Y-97025000I-225000J0D01*
G01*
X165400000Y-97025000D01*
G75*
G02*
X165175000Y-96800000I0J225000D01*
G01*
G37*
G36*
G01*
X163625000Y-96800000D02*
X163625000Y-96300000D01*
G75*
G02*
X163850000Y-96075000I225000J0D01*
G01*
X164300000Y-96075000D01*
G75*
G02*
X164525000Y-96300000I0J-225000D01*
G01*
X164525000Y-96800000D01*
G75*
G02*
X164300000Y-97025000I-225000J0D01*
G01*
X163850000Y-97025000D01*
G75*
G02*
X163625000Y-96800000I0J225000D01*
G01*
G37*
G36*
G01*
X131200000Y-84075000D02*
X130700000Y-84075000D01*
G75*
G02*
X130475000Y-83850000I0J225000D01*
G01*
X130475000Y-83400000D01*
G75*
G02*
X130700000Y-83175000I225000J0D01*
G01*
X131200000Y-83175000D01*
G75*
G02*
X131425000Y-83400000I0J-225000D01*
G01*
X131425000Y-83850000D01*
G75*
G02*
X131200000Y-84075000I-225000J0D01*
G01*
G37*
G36*
G01*
X131200000Y-82525000D02*
X130700000Y-82525000D01*
G75*
G02*
X130475000Y-82300000I0J225000D01*
G01*
X130475000Y-81850000D01*
G75*
G02*
X130700000Y-81625000I225000J0D01*
G01*
X131200000Y-81625000D01*
G75*
G02*
X131425000Y-81850000I0J-225000D01*
G01*
X131425000Y-82300000D01*
G75*
G02*
X131200000Y-82525000I-225000J0D01*
G01*
G37*
D26*
X160150000Y-90350000D03*
D27*
X160150000Y-92890000D03*
X160150000Y-95430000D03*
X160150000Y-97970000D03*
G36*
G01*
X128575000Y-84975000D02*
X129125000Y-84975000D01*
G75*
G02*
X129325000Y-85175000I0J-200000D01*
G01*
X129325000Y-85575000D01*
G75*
G02*
X129125000Y-85775000I-200000J0D01*
G01*
X128575000Y-85775000D01*
G75*
G02*
X128375000Y-85575000I0J200000D01*
G01*
X128375000Y-85175000D01*
G75*
G02*
X128575000Y-84975000I200000J0D01*
G01*
G37*
G36*
G01*
X128575000Y-83325000D02*
X129125000Y-83325000D01*
G75*
G02*
X129325000Y-83525000I0J-200000D01*
G01*
X129325000Y-83925000D01*
G75*
G02*
X129125000Y-84125000I-200000J0D01*
G01*
X128575000Y-84125000D01*
G75*
G02*
X128375000Y-83925000I0J200000D01*
G01*
X128375000Y-83525000D01*
G75*
G02*
X128575000Y-83325000I200000J0D01*
G01*
G37*
G36*
G01*
X133725000Y-102125000D02*
X133725000Y-102675000D01*
G75*
G02*
X133525000Y-102875000I-200000J0D01*
G01*
X133125000Y-102875000D01*
G75*
G02*
X132925000Y-102675000I0J200000D01*
G01*
X132925000Y-102125000D01*
G75*
G02*
X133125000Y-101925000I200000J0D01*
G01*
X133525000Y-101925000D01*
G75*
G02*
X133725000Y-102125000I0J-200000D01*
G01*
G37*
G36*
G01*
X135375000Y-102125000D02*
X135375000Y-102675000D01*
G75*
G02*
X135175000Y-102875000I-200000J0D01*
G01*
X134775000Y-102875000D01*
G75*
G02*
X134575000Y-102675000I0J200000D01*
G01*
X134575000Y-102125000D01*
G75*
G02*
X134775000Y-101925000I200000J0D01*
G01*
X135175000Y-101925000D01*
G75*
G02*
X135375000Y-102125000I0J-200000D01*
G01*
G37*
G36*
G01*
X157075000Y-97925000D02*
X157075000Y-97375000D01*
G75*
G02*
X157275000Y-97175000I200000J0D01*
G01*
X157675000Y-97175000D01*
G75*
G02*
X157875000Y-97375000I0J-200000D01*
G01*
X157875000Y-97925000D01*
G75*
G02*
X157675000Y-98125000I-200000J0D01*
G01*
X157275000Y-98125000D01*
G75*
G02*
X157075000Y-97925000I0J200000D01*
G01*
G37*
G36*
G01*
X155425000Y-97925000D02*
X155425000Y-97375000D01*
G75*
G02*
X155625000Y-97175000I200000J0D01*
G01*
X156025000Y-97175000D01*
G75*
G02*
X156225000Y-97375000I0J-200000D01*
G01*
X156225000Y-97925000D01*
G75*
G02*
X156025000Y-98125000I-200000J0D01*
G01*
X155625000Y-98125000D01*
G75*
G02*
X155425000Y-97925000I0J200000D01*
G01*
G37*
G36*
G01*
X155425000Y-100425000D02*
X155425000Y-99875000D01*
G75*
G02*
X155625000Y-99675000I200000J0D01*
G01*
X156025000Y-99675000D01*
G75*
G02*
X156225000Y-99875000I0J-200000D01*
G01*
X156225000Y-100425000D01*
G75*
G02*
X156025000Y-100625000I-200000J0D01*
G01*
X155625000Y-100625000D01*
G75*
G02*
X155425000Y-100425000I0J200000D01*
G01*
G37*
G36*
G01*
X157075000Y-100425000D02*
X157075000Y-99875000D01*
G75*
G02*
X157275000Y-99675000I200000J0D01*
G01*
X157675000Y-99675000D01*
G75*
G02*
X157875000Y-99875000I0J-200000D01*
G01*
X157875000Y-100425000D01*
G75*
G02*
X157675000Y-100625000I-200000J0D01*
G01*
X157275000Y-100625000D01*
G75*
G02*
X157075000Y-100425000I0J200000D01*
G01*
G37*
G36*
G01*
X154675000Y-97375000D02*
X154675000Y-97925000D01*
G75*
G02*
X154475000Y-98125000I-200000J0D01*
G01*
X154075000Y-98125000D01*
G75*
G02*
X153875000Y-97925000I0J200000D01*
G01*
X153875000Y-97375000D01*
G75*
G02*
X154075000Y-97175000I200000J0D01*
G01*
X154475000Y-97175000D01*
G75*
G02*
X154675000Y-97375000I0J-200000D01*
G01*
G37*
G36*
G01*
X153025000Y-97375000D02*
X153025000Y-97925000D01*
G75*
G02*
X152825000Y-98125000I-200000J0D01*
G01*
X152425000Y-98125000D01*
G75*
G02*
X152225000Y-97925000I0J200000D01*
G01*
X152225000Y-97375000D01*
G75*
G02*
X152425000Y-97175000I200000J0D01*
G01*
X152825000Y-97175000D01*
G75*
G02*
X153025000Y-97375000I0J-200000D01*
G01*
G37*
G36*
G01*
X153875000Y-100425000D02*
X153875000Y-99875000D01*
G75*
G02*
X154075000Y-99675000I200000J0D01*
G01*
X154475000Y-99675000D01*
G75*
G02*
X154675000Y-99875000I0J-200000D01*
G01*
X154675000Y-100425000D01*
G75*
G02*
X154475000Y-100625000I-200000J0D01*
G01*
X154075000Y-100625000D01*
G75*
G02*
X153875000Y-100425000I0J200000D01*
G01*
G37*
G36*
G01*
X152225000Y-100425000D02*
X152225000Y-99875000D01*
G75*
G02*
X152425000Y-99675000I200000J0D01*
G01*
X152825000Y-99675000D01*
G75*
G02*
X153025000Y-99875000I0J-200000D01*
G01*
X153025000Y-100425000D01*
G75*
G02*
X152825000Y-100625000I-200000J0D01*
G01*
X152425000Y-100625000D01*
G75*
G02*
X152225000Y-100425000I0J200000D01*
G01*
G37*
G36*
G01*
X165225000Y-81125000D02*
X164675000Y-81125000D01*
G75*
G02*
X164475000Y-80925000I0J200000D01*
G01*
X164475000Y-80525000D01*
G75*
G02*
X164675000Y-80325000I200000J0D01*
G01*
X165225000Y-80325000D01*
G75*
G02*
X165425000Y-80525000I0J-200000D01*
G01*
X165425000Y-80925000D01*
G75*
G02*
X165225000Y-81125000I-200000J0D01*
G01*
G37*
G36*
G01*
X165225000Y-79475000D02*
X164675000Y-79475000D01*
G75*
G02*
X164475000Y-79275000I0J200000D01*
G01*
X164475000Y-78875000D01*
G75*
G02*
X164675000Y-78675000I200000J0D01*
G01*
X165225000Y-78675000D01*
G75*
G02*
X165425000Y-78875000I0J-200000D01*
G01*
X165425000Y-79275000D01*
G75*
G02*
X165225000Y-79475000I-200000J0D01*
G01*
G37*
G36*
G01*
X165225000Y-76425000D02*
X164675000Y-76425000D01*
G75*
G02*
X164475000Y-76225000I0J200000D01*
G01*
X164475000Y-75825000D01*
G75*
G02*
X164675000Y-75625000I200000J0D01*
G01*
X165225000Y-75625000D01*
G75*
G02*
X165425000Y-75825000I0J-200000D01*
G01*
X165425000Y-76225000D01*
G75*
G02*
X165225000Y-76425000I-200000J0D01*
G01*
G37*
G36*
G01*
X165225000Y-78075000D02*
X164675000Y-78075000D01*
G75*
G02*
X164475000Y-77875000I0J200000D01*
G01*
X164475000Y-77475000D01*
G75*
G02*
X164675000Y-77275000I200000J0D01*
G01*
X165225000Y-77275000D01*
G75*
G02*
X165425000Y-77475000I0J-200000D01*
G01*
X165425000Y-77875000D01*
G75*
G02*
X165225000Y-78075000I-200000J0D01*
G01*
G37*
G36*
G01*
X167825000Y-81175000D02*
X167275000Y-81175000D01*
G75*
G02*
X167075000Y-80975000I0J200000D01*
G01*
X167075000Y-80575000D01*
G75*
G02*
X167275000Y-80375000I200000J0D01*
G01*
X167825000Y-80375000D01*
G75*
G02*
X168025000Y-80575000I0J-200000D01*
G01*
X168025000Y-80975000D01*
G75*
G02*
X167825000Y-81175000I-200000J0D01*
G01*
G37*
G36*
G01*
X167825000Y-79525000D02*
X167275000Y-79525000D01*
G75*
G02*
X167075000Y-79325000I0J200000D01*
G01*
X167075000Y-78925000D01*
G75*
G02*
X167275000Y-78725000I200000J0D01*
G01*
X167825000Y-78725000D01*
G75*
G02*
X168025000Y-78925000I0J-200000D01*
G01*
X168025000Y-79325000D01*
G75*
G02*
X167825000Y-79525000I-200000J0D01*
G01*
G37*
G36*
G01*
X167825000Y-76425000D02*
X167275000Y-76425000D01*
G75*
G02*
X167075000Y-76225000I0J200000D01*
G01*
X167075000Y-75825000D01*
G75*
G02*
X167275000Y-75625000I200000J0D01*
G01*
X167825000Y-75625000D01*
G75*
G02*
X168025000Y-75825000I0J-200000D01*
G01*
X168025000Y-76225000D01*
G75*
G02*
X167825000Y-76425000I-200000J0D01*
G01*
G37*
G36*
G01*
X167825000Y-78075000D02*
X167275000Y-78075000D01*
G75*
G02*
X167075000Y-77875000I0J200000D01*
G01*
X167075000Y-77475000D01*
G75*
G02*
X167275000Y-77275000I200000J0D01*
G01*
X167825000Y-77275000D01*
G75*
G02*
X168025000Y-77475000I0J-200000D01*
G01*
X168025000Y-77875000D01*
G75*
G02*
X167825000Y-78075000I-200000J0D01*
G01*
G37*
G36*
G01*
X126475000Y-86125000D02*
X126475000Y-85575000D01*
G75*
G02*
X126675000Y-85375000I200000J0D01*
G01*
X127075000Y-85375000D01*
G75*
G02*
X127275000Y-85575000I0J-200000D01*
G01*
X127275000Y-86125000D01*
G75*
G02*
X127075000Y-86325000I-200000J0D01*
G01*
X126675000Y-86325000D01*
G75*
G02*
X126475000Y-86125000I0J200000D01*
G01*
G37*
G36*
G01*
X124825000Y-86125000D02*
X124825000Y-85575000D01*
G75*
G02*
X125025000Y-85375000I200000J0D01*
G01*
X125425000Y-85375000D01*
G75*
G02*
X125625000Y-85575000I0J-200000D01*
G01*
X125625000Y-86125000D01*
G75*
G02*
X125425000Y-86325000I-200000J0D01*
G01*
X125025000Y-86325000D01*
G75*
G02*
X124825000Y-86125000I0J200000D01*
G01*
G37*
G36*
G01*
X122875000Y-106525000D02*
X123425000Y-106525000D01*
G75*
G02*
X123625000Y-106725000I0J-200000D01*
G01*
X123625000Y-107125000D01*
G75*
G02*
X123425000Y-107325000I-200000J0D01*
G01*
X122875000Y-107325000D01*
G75*
G02*
X122675000Y-107125000I0J200000D01*
G01*
X122675000Y-106725000D01*
G75*
G02*
X122875000Y-106525000I200000J0D01*
G01*
G37*
G36*
G01*
X122875000Y-108175000D02*
X123425000Y-108175000D01*
G75*
G02*
X123625000Y-108375000I0J-200000D01*
G01*
X123625000Y-108775000D01*
G75*
G02*
X123425000Y-108975000I-200000J0D01*
G01*
X122875000Y-108975000D01*
G75*
G02*
X122675000Y-108775000I0J200000D01*
G01*
X122675000Y-108375000D01*
G75*
G02*
X122875000Y-108175000I200000J0D01*
G01*
G37*
G36*
G01*
X134775000Y-119175000D02*
X135325000Y-119175000D01*
G75*
G02*
X135525000Y-119375000I0J-200000D01*
G01*
X135525000Y-119775000D01*
G75*
G02*
X135325000Y-119975000I-200000J0D01*
G01*
X134775000Y-119975000D01*
G75*
G02*
X134575000Y-119775000I0J200000D01*
G01*
X134575000Y-119375000D01*
G75*
G02*
X134775000Y-119175000I200000J0D01*
G01*
G37*
G36*
G01*
X134775000Y-117525000D02*
X135325000Y-117525000D01*
G75*
G02*
X135525000Y-117725000I0J-200000D01*
G01*
X135525000Y-118125000D01*
G75*
G02*
X135325000Y-118325000I-200000J0D01*
G01*
X134775000Y-118325000D01*
G75*
G02*
X134575000Y-118125000I0J200000D01*
G01*
X134575000Y-117725000D01*
G75*
G02*
X134775000Y-117525000I200000J0D01*
G01*
G37*
G36*
G01*
X152575000Y-117525000D02*
X153125000Y-117525000D01*
G75*
G02*
X153325000Y-117725000I0J-200000D01*
G01*
X153325000Y-118125000D01*
G75*
G02*
X153125000Y-118325000I-200000J0D01*
G01*
X152575000Y-118325000D01*
G75*
G02*
X152375000Y-118125000I0J200000D01*
G01*
X152375000Y-117725000D01*
G75*
G02*
X152575000Y-117525000I200000J0D01*
G01*
G37*
G36*
G01*
X152575000Y-119175000D02*
X153125000Y-119175000D01*
G75*
G02*
X153325000Y-119375000I0J-200000D01*
G01*
X153325000Y-119775000D01*
G75*
G02*
X153125000Y-119975000I-200000J0D01*
G01*
X152575000Y-119975000D01*
G75*
G02*
X152375000Y-119775000I0J200000D01*
G01*
X152375000Y-119375000D01*
G75*
G02*
X152575000Y-119175000I200000J0D01*
G01*
G37*
G36*
G01*
X167975000Y-83425000D02*
X167975000Y-82875000D01*
G75*
G02*
X168175000Y-82675000I200000J0D01*
G01*
X168575000Y-82675000D01*
G75*
G02*
X168775000Y-82875000I0J-200000D01*
G01*
X168775000Y-83425000D01*
G75*
G02*
X168575000Y-83625000I-200000J0D01*
G01*
X168175000Y-83625000D01*
G75*
G02*
X167975000Y-83425000I0J200000D01*
G01*
G37*
G36*
G01*
X169625000Y-83425000D02*
X169625000Y-82875000D01*
G75*
G02*
X169825000Y-82675000I200000J0D01*
G01*
X170225000Y-82675000D01*
G75*
G02*
X170425000Y-82875000I0J-200000D01*
G01*
X170425000Y-83425000D01*
G75*
G02*
X170225000Y-83625000I-200000J0D01*
G01*
X169825000Y-83625000D01*
G75*
G02*
X169625000Y-83425000I0J200000D01*
G01*
G37*
G36*
G01*
X172875000Y-83425000D02*
X172875000Y-82875000D01*
G75*
G02*
X173075000Y-82675000I200000J0D01*
G01*
X173475000Y-82675000D01*
G75*
G02*
X173675000Y-82875000I0J-200000D01*
G01*
X173675000Y-83425000D01*
G75*
G02*
X173475000Y-83625000I-200000J0D01*
G01*
X173075000Y-83625000D01*
G75*
G02*
X172875000Y-83425000I0J200000D01*
G01*
G37*
G36*
G01*
X171225000Y-83425000D02*
X171225000Y-82875000D01*
G75*
G02*
X171425000Y-82675000I200000J0D01*
G01*
X171825000Y-82675000D01*
G75*
G02*
X172025000Y-82875000I0J-200000D01*
G01*
X172025000Y-83425000D01*
G75*
G02*
X171825000Y-83625000I-200000J0D01*
G01*
X171425000Y-83625000D01*
G75*
G02*
X171225000Y-83425000I0J200000D01*
G01*
G37*
G36*
G01*
X170425000Y-99325000D02*
X169875000Y-99325000D01*
G75*
G02*
X169675000Y-99125000I0J200000D01*
G01*
X169675000Y-98725000D01*
G75*
G02*
X169875000Y-98525000I200000J0D01*
G01*
X170425000Y-98525000D01*
G75*
G02*
X170625000Y-98725000I0J-200000D01*
G01*
X170625000Y-99125000D01*
G75*
G02*
X170425000Y-99325000I-200000J0D01*
G01*
G37*
G36*
G01*
X170425000Y-100975000D02*
X169875000Y-100975000D01*
G75*
G02*
X169675000Y-100775000I0J200000D01*
G01*
X169675000Y-100375000D01*
G75*
G02*
X169875000Y-100175000I200000J0D01*
G01*
X170425000Y-100175000D01*
G75*
G02*
X170625000Y-100375000I0J-200000D01*
G01*
X170625000Y-100775000D01*
G75*
G02*
X170425000Y-100975000I-200000J0D01*
G01*
G37*
G36*
G01*
X162625000Y-81125000D02*
X162075000Y-81125000D01*
G75*
G02*
X161875000Y-80925000I0J200000D01*
G01*
X161875000Y-80525000D01*
G75*
G02*
X162075000Y-80325000I200000J0D01*
G01*
X162625000Y-80325000D01*
G75*
G02*
X162825000Y-80525000I0J-200000D01*
G01*
X162825000Y-80925000D01*
G75*
G02*
X162625000Y-81125000I-200000J0D01*
G01*
G37*
G36*
G01*
X162625000Y-79475000D02*
X162075000Y-79475000D01*
G75*
G02*
X161875000Y-79275000I0J200000D01*
G01*
X161875000Y-78875000D01*
G75*
G02*
X162075000Y-78675000I200000J0D01*
G01*
X162625000Y-78675000D01*
G75*
G02*
X162825000Y-78875000I0J-200000D01*
G01*
X162825000Y-79275000D01*
G75*
G02*
X162625000Y-79475000I-200000J0D01*
G01*
G37*
G36*
G01*
X162625000Y-78075000D02*
X162075000Y-78075000D01*
G75*
G02*
X161875000Y-77875000I0J200000D01*
G01*
X161875000Y-77475000D01*
G75*
G02*
X162075000Y-77275000I200000J0D01*
G01*
X162625000Y-77275000D01*
G75*
G02*
X162825000Y-77475000I0J-200000D01*
G01*
X162825000Y-77875000D01*
G75*
G02*
X162625000Y-78075000I-200000J0D01*
G01*
G37*
G36*
G01*
X162625000Y-76425000D02*
X162075000Y-76425000D01*
G75*
G02*
X161875000Y-76225000I0J200000D01*
G01*
X161875000Y-75825000D01*
G75*
G02*
X162075000Y-75625000I200000J0D01*
G01*
X162625000Y-75625000D01*
G75*
G02*
X162825000Y-75825000I0J-200000D01*
G01*
X162825000Y-76225000D01*
G75*
G02*
X162625000Y-76425000I-200000J0D01*
G01*
G37*
G36*
G01*
X159925000Y-79475000D02*
X159375000Y-79475000D01*
G75*
G02*
X159175000Y-79275000I0J200000D01*
G01*
X159175000Y-78875000D01*
G75*
G02*
X159375000Y-78675000I200000J0D01*
G01*
X159925000Y-78675000D01*
G75*
G02*
X160125000Y-78875000I0J-200000D01*
G01*
X160125000Y-79275000D01*
G75*
G02*
X159925000Y-79475000I-200000J0D01*
G01*
G37*
G36*
G01*
X159925000Y-81125000D02*
X159375000Y-81125000D01*
G75*
G02*
X159175000Y-80925000I0J200000D01*
G01*
X159175000Y-80525000D01*
G75*
G02*
X159375000Y-80325000I200000J0D01*
G01*
X159925000Y-80325000D01*
G75*
G02*
X160125000Y-80525000I0J-200000D01*
G01*
X160125000Y-80925000D01*
G75*
G02*
X159925000Y-81125000I-200000J0D01*
G01*
G37*
G36*
G01*
X159925000Y-78075000D02*
X159375000Y-78075000D01*
G75*
G02*
X159175000Y-77875000I0J200000D01*
G01*
X159175000Y-77475000D01*
G75*
G02*
X159375000Y-77275000I200000J0D01*
G01*
X159925000Y-77275000D01*
G75*
G02*
X160125000Y-77475000I0J-200000D01*
G01*
X160125000Y-77875000D01*
G75*
G02*
X159925000Y-78075000I-200000J0D01*
G01*
G37*
G36*
G01*
X159925000Y-76425000D02*
X159375000Y-76425000D01*
G75*
G02*
X159175000Y-76225000I0J200000D01*
G01*
X159175000Y-75825000D01*
G75*
G02*
X159375000Y-75625000I200000J0D01*
G01*
X159925000Y-75625000D01*
G75*
G02*
X160125000Y-75825000I0J-200000D01*
G01*
X160125000Y-76225000D01*
G75*
G02*
X159925000Y-76425000I-200000J0D01*
G01*
G37*
D28*
X140900000Y-89720000D03*
D29*
X133400000Y-82220000D03*
X133400000Y-83490000D03*
X133400000Y-84760000D03*
X133400000Y-86030000D03*
X133400000Y-87300000D03*
X133400000Y-88570000D03*
X133400000Y-89840000D03*
X133400000Y-91110000D03*
X133400000Y-92380000D03*
X133400000Y-93650000D03*
X133400000Y-94920000D03*
X133400000Y-96190000D03*
X133400000Y-97460000D03*
X133400000Y-98730000D03*
D30*
X136185000Y-99730000D03*
X137455000Y-99730000D03*
X138725000Y-99730000D03*
X139995000Y-99730000D03*
X141265000Y-99730000D03*
X142535000Y-99730000D03*
X143805000Y-99730000D03*
X145075000Y-99730000D03*
X146345000Y-99730000D03*
X147615000Y-99730000D03*
D29*
X150400000Y-98730000D03*
X150400000Y-97460000D03*
X150400000Y-96190000D03*
X150400000Y-94920000D03*
X150400000Y-93650000D03*
X150400000Y-92380000D03*
X150400000Y-91110000D03*
X150400000Y-89840000D03*
X150400000Y-88570000D03*
X150400000Y-87300000D03*
X150400000Y-86030000D03*
X150400000Y-84760000D03*
X150400000Y-83490000D03*
X150400000Y-82220000D03*
G36*
G01*
X159850000Y-82375000D02*
X159850000Y-82175000D01*
G75*
G02*
X159950000Y-82075000I100000J0D01*
G01*
X161225000Y-82075000D01*
G75*
G02*
X161325000Y-82175000I0J-100000D01*
G01*
X161325000Y-82375000D01*
G75*
G02*
X161225000Y-82475000I-100000J0D01*
G01*
X159950000Y-82475000D01*
G75*
G02*
X159850000Y-82375000I0J100000D01*
G01*
G37*
G36*
G01*
X159850000Y-83025000D02*
X159850000Y-82825000D01*
G75*
G02*
X159950000Y-82725000I100000J0D01*
G01*
X161225000Y-82725000D01*
G75*
G02*
X161325000Y-82825000I0J-100000D01*
G01*
X161325000Y-83025000D01*
G75*
G02*
X161225000Y-83125000I-100000J0D01*
G01*
X159950000Y-83125000D01*
G75*
G02*
X159850000Y-83025000I0J100000D01*
G01*
G37*
G36*
G01*
X159850000Y-83675000D02*
X159850000Y-83475000D01*
G75*
G02*
X159950000Y-83375000I100000J0D01*
G01*
X161225000Y-83375000D01*
G75*
G02*
X161325000Y-83475000I0J-100000D01*
G01*
X161325000Y-83675000D01*
G75*
G02*
X161225000Y-83775000I-100000J0D01*
G01*
X159950000Y-83775000D01*
G75*
G02*
X159850000Y-83675000I0J100000D01*
G01*
G37*
G36*
G01*
X159850000Y-84325000D02*
X159850000Y-84125000D01*
G75*
G02*
X159950000Y-84025000I100000J0D01*
G01*
X161225000Y-84025000D01*
G75*
G02*
X161325000Y-84125000I0J-100000D01*
G01*
X161325000Y-84325000D01*
G75*
G02*
X161225000Y-84425000I-100000J0D01*
G01*
X159950000Y-84425000D01*
G75*
G02*
X159850000Y-84325000I0J100000D01*
G01*
G37*
G36*
G01*
X159850000Y-84975000D02*
X159850000Y-84775000D01*
G75*
G02*
X159950000Y-84675000I100000J0D01*
G01*
X161225000Y-84675000D01*
G75*
G02*
X161325000Y-84775000I0J-100000D01*
G01*
X161325000Y-84975000D01*
G75*
G02*
X161225000Y-85075000I-100000J0D01*
G01*
X159950000Y-85075000D01*
G75*
G02*
X159850000Y-84975000I0J100000D01*
G01*
G37*
G36*
G01*
X159850000Y-85625000D02*
X159850000Y-85425000D01*
G75*
G02*
X159950000Y-85325000I100000J0D01*
G01*
X161225000Y-85325000D01*
G75*
G02*
X161325000Y-85425000I0J-100000D01*
G01*
X161325000Y-85625000D01*
G75*
G02*
X161225000Y-85725000I-100000J0D01*
G01*
X159950000Y-85725000D01*
G75*
G02*
X159850000Y-85625000I0J100000D01*
G01*
G37*
G36*
G01*
X159850000Y-86275000D02*
X159850000Y-86075000D01*
G75*
G02*
X159950000Y-85975000I100000J0D01*
G01*
X161225000Y-85975000D01*
G75*
G02*
X161325000Y-86075000I0J-100000D01*
G01*
X161325000Y-86275000D01*
G75*
G02*
X161225000Y-86375000I-100000J0D01*
G01*
X159950000Y-86375000D01*
G75*
G02*
X159850000Y-86275000I0J100000D01*
G01*
G37*
G36*
G01*
X159850000Y-86925000D02*
X159850000Y-86725000D01*
G75*
G02*
X159950000Y-86625000I100000J0D01*
G01*
X161225000Y-86625000D01*
G75*
G02*
X161325000Y-86725000I0J-100000D01*
G01*
X161325000Y-86925000D01*
G75*
G02*
X161225000Y-87025000I-100000J0D01*
G01*
X159950000Y-87025000D01*
G75*
G02*
X159850000Y-86925000I0J100000D01*
G01*
G37*
G36*
G01*
X165575000Y-86925000D02*
X165575000Y-86725000D01*
G75*
G02*
X165675000Y-86625000I100000J0D01*
G01*
X166950000Y-86625000D01*
G75*
G02*
X167050000Y-86725000I0J-100000D01*
G01*
X167050000Y-86925000D01*
G75*
G02*
X166950000Y-87025000I-100000J0D01*
G01*
X165675000Y-87025000D01*
G75*
G02*
X165575000Y-86925000I0J100000D01*
G01*
G37*
G36*
G01*
X165575000Y-86275000D02*
X165575000Y-86075000D01*
G75*
G02*
X165675000Y-85975000I100000J0D01*
G01*
X166950000Y-85975000D01*
G75*
G02*
X167050000Y-86075000I0J-100000D01*
G01*
X167050000Y-86275000D01*
G75*
G02*
X166950000Y-86375000I-100000J0D01*
G01*
X165675000Y-86375000D01*
G75*
G02*
X165575000Y-86275000I0J100000D01*
G01*
G37*
G36*
G01*
X165575000Y-85625000D02*
X165575000Y-85425000D01*
G75*
G02*
X165675000Y-85325000I100000J0D01*
G01*
X166950000Y-85325000D01*
G75*
G02*
X167050000Y-85425000I0J-100000D01*
G01*
X167050000Y-85625000D01*
G75*
G02*
X166950000Y-85725000I-100000J0D01*
G01*
X165675000Y-85725000D01*
G75*
G02*
X165575000Y-85625000I0J100000D01*
G01*
G37*
G36*
G01*
X165575000Y-84975000D02*
X165575000Y-84775000D01*
G75*
G02*
X165675000Y-84675000I100000J0D01*
G01*
X166950000Y-84675000D01*
G75*
G02*
X167050000Y-84775000I0J-100000D01*
G01*
X167050000Y-84975000D01*
G75*
G02*
X166950000Y-85075000I-100000J0D01*
G01*
X165675000Y-85075000D01*
G75*
G02*
X165575000Y-84975000I0J100000D01*
G01*
G37*
G36*
G01*
X165575000Y-84325000D02*
X165575000Y-84125000D01*
G75*
G02*
X165675000Y-84025000I100000J0D01*
G01*
X166950000Y-84025000D01*
G75*
G02*
X167050000Y-84125000I0J-100000D01*
G01*
X167050000Y-84325000D01*
G75*
G02*
X166950000Y-84425000I-100000J0D01*
G01*
X165675000Y-84425000D01*
G75*
G02*
X165575000Y-84325000I0J100000D01*
G01*
G37*
G36*
G01*
X165575000Y-83675000D02*
X165575000Y-83475000D01*
G75*
G02*
X165675000Y-83375000I100000J0D01*
G01*
X166950000Y-83375000D01*
G75*
G02*
X167050000Y-83475000I0J-100000D01*
G01*
X167050000Y-83675000D01*
G75*
G02*
X166950000Y-83775000I-100000J0D01*
G01*
X165675000Y-83775000D01*
G75*
G02*
X165575000Y-83675000I0J100000D01*
G01*
G37*
G36*
G01*
X165575000Y-83025000D02*
X165575000Y-82825000D01*
G75*
G02*
X165675000Y-82725000I100000J0D01*
G01*
X166950000Y-82725000D01*
G75*
G02*
X167050000Y-82825000I0J-100000D01*
G01*
X167050000Y-83025000D01*
G75*
G02*
X166950000Y-83125000I-100000J0D01*
G01*
X165675000Y-83125000D01*
G75*
G02*
X165575000Y-83025000I0J100000D01*
G01*
G37*
G36*
G01*
X165575000Y-82375000D02*
X165575000Y-82175000D01*
G75*
G02*
X165675000Y-82075000I100000J0D01*
G01*
X166950000Y-82075000D01*
G75*
G02*
X167050000Y-82175000I0J-100000D01*
G01*
X167050000Y-82375000D01*
G75*
G02*
X166950000Y-82475000I-100000J0D01*
G01*
X165675000Y-82475000D01*
G75*
G02*
X165575000Y-82375000I0J100000D01*
G01*
G37*
G36*
G01*
X129950000Y-92195000D02*
X129950000Y-91895000D01*
G75*
G02*
X130100000Y-91745000I150000J0D01*
G01*
X131450000Y-91745000D01*
G75*
G02*
X131600000Y-91895000I0J-150000D01*
G01*
X131600000Y-92195000D01*
G75*
G02*
X131450000Y-92345000I-150000J0D01*
G01*
X130100000Y-92345000D01*
G75*
G02*
X129950000Y-92195000I0J150000D01*
G01*
G37*
G36*
G01*
X129950000Y-93465000D02*
X129950000Y-93165000D01*
G75*
G02*
X130100000Y-93015000I150000J0D01*
G01*
X131450000Y-93015000D01*
G75*
G02*
X131600000Y-93165000I0J-150000D01*
G01*
X131600000Y-93465000D01*
G75*
G02*
X131450000Y-93615000I-150000J0D01*
G01*
X130100000Y-93615000D01*
G75*
G02*
X129950000Y-93465000I0J150000D01*
G01*
G37*
G36*
G01*
X129950000Y-94735000D02*
X129950000Y-94435000D01*
G75*
G02*
X130100000Y-94285000I150000J0D01*
G01*
X131450000Y-94285000D01*
G75*
G02*
X131600000Y-94435000I0J-150000D01*
G01*
X131600000Y-94735000D01*
G75*
G02*
X131450000Y-94885000I-150000J0D01*
G01*
X130100000Y-94885000D01*
G75*
G02*
X129950000Y-94735000I0J150000D01*
G01*
G37*
G36*
G01*
X129950000Y-96005000D02*
X129950000Y-95705000D01*
G75*
G02*
X130100000Y-95555000I150000J0D01*
G01*
X131450000Y-95555000D01*
G75*
G02*
X131600000Y-95705000I0J-150000D01*
G01*
X131600000Y-96005000D01*
G75*
G02*
X131450000Y-96155000I-150000J0D01*
G01*
X130100000Y-96155000D01*
G75*
G02*
X129950000Y-96005000I0J150000D01*
G01*
G37*
G36*
G01*
X124700000Y-96005000D02*
X124700000Y-95705000D01*
G75*
G02*
X124850000Y-95555000I150000J0D01*
G01*
X126200000Y-95555000D01*
G75*
G02*
X126350000Y-95705000I0J-150000D01*
G01*
X126350000Y-96005000D01*
G75*
G02*
X126200000Y-96155000I-150000J0D01*
G01*
X124850000Y-96155000D01*
G75*
G02*
X124700000Y-96005000I0J150000D01*
G01*
G37*
G36*
G01*
X124700000Y-94735000D02*
X124700000Y-94435000D01*
G75*
G02*
X124850000Y-94285000I150000J0D01*
G01*
X126200000Y-94285000D01*
G75*
G02*
X126350000Y-94435000I0J-150000D01*
G01*
X126350000Y-94735000D01*
G75*
G02*
X126200000Y-94885000I-150000J0D01*
G01*
X124850000Y-94885000D01*
G75*
G02*
X124700000Y-94735000I0J150000D01*
G01*
G37*
G36*
G01*
X124700000Y-93465000D02*
X124700000Y-93165000D01*
G75*
G02*
X124850000Y-93015000I150000J0D01*
G01*
X126200000Y-93015000D01*
G75*
G02*
X126350000Y-93165000I0J-150000D01*
G01*
X126350000Y-93465000D01*
G75*
G02*
X126200000Y-93615000I-150000J0D01*
G01*
X124850000Y-93615000D01*
G75*
G02*
X124700000Y-93465000I0J150000D01*
G01*
G37*
G36*
G01*
X124700000Y-92195000D02*
X124700000Y-91895000D01*
G75*
G02*
X124850000Y-91745000I150000J0D01*
G01*
X126200000Y-91745000D01*
G75*
G02*
X126350000Y-91895000I0J-150000D01*
G01*
X126350000Y-92195000D01*
G75*
G02*
X126200000Y-92345000I-150000J0D01*
G01*
X124850000Y-92345000D01*
G75*
G02*
X124700000Y-92195000I0J150000D01*
G01*
G37*
G36*
G01*
X167805000Y-88300000D02*
X168105000Y-88300000D01*
G75*
G02*
X168255000Y-88450000I0J-150000D01*
G01*
X168255000Y-90100000D01*
G75*
G02*
X168105000Y-90250000I-150000J0D01*
G01*
X167805000Y-90250000D01*
G75*
G02*
X167655000Y-90100000I0J150000D01*
G01*
X167655000Y-88450000D01*
G75*
G02*
X167805000Y-88300000I150000J0D01*
G01*
G37*
G36*
G01*
X166535000Y-88300000D02*
X166835000Y-88300000D01*
G75*
G02*
X166985000Y-88450000I0J-150000D01*
G01*
X166985000Y-90100000D01*
G75*
G02*
X166835000Y-90250000I-150000J0D01*
G01*
X166535000Y-90250000D01*
G75*
G02*
X166385000Y-90100000I0J150000D01*
G01*
X166385000Y-88450000D01*
G75*
G02*
X166535000Y-88300000I150000J0D01*
G01*
G37*
G36*
G01*
X165265000Y-88300000D02*
X165565000Y-88300000D01*
G75*
G02*
X165715000Y-88450000I0J-150000D01*
G01*
X165715000Y-90100000D01*
G75*
G02*
X165565000Y-90250000I-150000J0D01*
G01*
X165265000Y-90250000D01*
G75*
G02*
X165115000Y-90100000I0J150000D01*
G01*
X165115000Y-88450000D01*
G75*
G02*
X165265000Y-88300000I150000J0D01*
G01*
G37*
G36*
G01*
X163995000Y-88300000D02*
X164295000Y-88300000D01*
G75*
G02*
X164445000Y-88450000I0J-150000D01*
G01*
X164445000Y-90100000D01*
G75*
G02*
X164295000Y-90250000I-150000J0D01*
G01*
X163995000Y-90250000D01*
G75*
G02*
X163845000Y-90100000I0J150000D01*
G01*
X163845000Y-88450000D01*
G75*
G02*
X163995000Y-88300000I150000J0D01*
G01*
G37*
G36*
G01*
X163995000Y-93250000D02*
X164295000Y-93250000D01*
G75*
G02*
X164445000Y-93400000I0J-150000D01*
G01*
X164445000Y-95050000D01*
G75*
G02*
X164295000Y-95200000I-150000J0D01*
G01*
X163995000Y-95200000D01*
G75*
G02*
X163845000Y-95050000I0J150000D01*
G01*
X163845000Y-93400000D01*
G75*
G02*
X163995000Y-93250000I150000J0D01*
G01*
G37*
G36*
G01*
X165265000Y-93250000D02*
X165565000Y-93250000D01*
G75*
G02*
X165715000Y-93400000I0J-150000D01*
G01*
X165715000Y-95050000D01*
G75*
G02*
X165565000Y-95200000I-150000J0D01*
G01*
X165265000Y-95200000D01*
G75*
G02*
X165115000Y-95050000I0J150000D01*
G01*
X165115000Y-93400000D01*
G75*
G02*
X165265000Y-93250000I150000J0D01*
G01*
G37*
G36*
G01*
X166535000Y-93250000D02*
X166835000Y-93250000D01*
G75*
G02*
X166985000Y-93400000I0J-150000D01*
G01*
X166985000Y-95050000D01*
G75*
G02*
X166835000Y-95200000I-150000J0D01*
G01*
X166535000Y-95200000D01*
G75*
G02*
X166385000Y-95050000I0J150000D01*
G01*
X166385000Y-93400000D01*
G75*
G02*
X166535000Y-93250000I150000J0D01*
G01*
G37*
G36*
G01*
X167805000Y-93250000D02*
X168105000Y-93250000D01*
G75*
G02*
X168255000Y-93400000I0J-150000D01*
G01*
X168255000Y-95050000D01*
G75*
G02*
X168105000Y-95200000I-150000J0D01*
G01*
X167805000Y-95200000D01*
G75*
G02*
X167655000Y-95050000I0J150000D01*
G01*
X167655000Y-93400000D01*
G75*
G02*
X167805000Y-93250000I150000J0D01*
G01*
G37*
G36*
G01*
X122145000Y-105850000D02*
X121845000Y-105850000D01*
G75*
G02*
X121695000Y-105700000I0J150000D01*
G01*
X121695000Y-104350000D01*
G75*
G02*
X121845000Y-104200000I150000J0D01*
G01*
X122145000Y-104200000D01*
G75*
G02*
X122295000Y-104350000I0J-150000D01*
G01*
X122295000Y-105700000D01*
G75*
G02*
X122145000Y-105850000I-150000J0D01*
G01*
G37*
G36*
G01*
X123415000Y-105850000D02*
X123115000Y-105850000D01*
G75*
G02*
X122965000Y-105700000I0J150000D01*
G01*
X122965000Y-104350000D01*
G75*
G02*
X123115000Y-104200000I150000J0D01*
G01*
X123415000Y-104200000D01*
G75*
G02*
X123565000Y-104350000I0J-150000D01*
G01*
X123565000Y-105700000D01*
G75*
G02*
X123415000Y-105850000I-150000J0D01*
G01*
G37*
G36*
G01*
X124685000Y-105850000D02*
X124385000Y-105850000D01*
G75*
G02*
X124235000Y-105700000I0J150000D01*
G01*
X124235000Y-104350000D01*
G75*
G02*
X124385000Y-104200000I150000J0D01*
G01*
X124685000Y-104200000D01*
G75*
G02*
X124835000Y-104350000I0J-150000D01*
G01*
X124835000Y-105700000D01*
G75*
G02*
X124685000Y-105850000I-150000J0D01*
G01*
G37*
G36*
G01*
X125955000Y-105850000D02*
X125655000Y-105850000D01*
G75*
G02*
X125505000Y-105700000I0J150000D01*
G01*
X125505000Y-104350000D01*
G75*
G02*
X125655000Y-104200000I150000J0D01*
G01*
X125955000Y-104200000D01*
G75*
G02*
X126105000Y-104350000I0J-150000D01*
G01*
X126105000Y-105700000D01*
G75*
G02*
X125955000Y-105850000I-150000J0D01*
G01*
G37*
G36*
G01*
X125955000Y-100600000D02*
X125655000Y-100600000D01*
G75*
G02*
X125505000Y-100450000I0J150000D01*
G01*
X125505000Y-99100000D01*
G75*
G02*
X125655000Y-98950000I150000J0D01*
G01*
X125955000Y-98950000D01*
G75*
G02*
X126105000Y-99100000I0J-150000D01*
G01*
X126105000Y-100450000D01*
G75*
G02*
X125955000Y-100600000I-150000J0D01*
G01*
G37*
G36*
G01*
X124685000Y-100600000D02*
X124385000Y-100600000D01*
G75*
G02*
X124235000Y-100450000I0J150000D01*
G01*
X124235000Y-99100000D01*
G75*
G02*
X124385000Y-98950000I150000J0D01*
G01*
X124685000Y-98950000D01*
G75*
G02*
X124835000Y-99100000I0J-150000D01*
G01*
X124835000Y-100450000D01*
G75*
G02*
X124685000Y-100600000I-150000J0D01*
G01*
G37*
G36*
G01*
X123415000Y-100600000D02*
X123115000Y-100600000D01*
G75*
G02*
X122965000Y-100450000I0J150000D01*
G01*
X122965000Y-99100000D01*
G75*
G02*
X123115000Y-98950000I150000J0D01*
G01*
X123415000Y-98950000D01*
G75*
G02*
X123565000Y-99100000I0J-150000D01*
G01*
X123565000Y-100450000D01*
G75*
G02*
X123415000Y-100600000I-150000J0D01*
G01*
G37*
G36*
G01*
X122145000Y-100600000D02*
X121845000Y-100600000D01*
G75*
G02*
X121695000Y-100450000I0J150000D01*
G01*
X121695000Y-99100000D01*
G75*
G02*
X121845000Y-98950000I150000J0D01*
G01*
X122145000Y-98950000D01*
G75*
G02*
X122295000Y-99100000I0J-150000D01*
G01*
X122295000Y-100450000D01*
G75*
G02*
X122145000Y-100600000I-150000J0D01*
G01*
G37*
D18*
X118150000Y-94550000D03*
D14*
X118150000Y-87350000D03*
D31*
X112150000Y-97700000D03*
X112150000Y-84200000D03*
X112150000Y-101500000D03*
X112150000Y-115000000D03*
D14*
X118150000Y-104650000D03*
D18*
X118150000Y-111850000D03*
D16*
X148400000Y-129150000D03*
X134900000Y-129150000D03*
D14*
X145250000Y-123150000D03*
X138050000Y-123150000D03*
D32*
X127050000Y-89900000D03*
X127050000Y-88000000D03*
X125050000Y-88950000D03*
D33*
X139000000Y-117550000D03*
X137100000Y-117550000D03*
X138050000Y-119550000D03*
D32*
X132150000Y-105400000D03*
X134150000Y-104450000D03*
X134150000Y-106350000D03*
D33*
X155850000Y-119550000D03*
X154900000Y-117550000D03*
X156800000Y-117550000D03*
D32*
X174100000Y-100500000D03*
X174100000Y-98600000D03*
X172100000Y-99550000D03*
D33*
X171850000Y-126550000D03*
X173750000Y-126550000D03*
X172800000Y-124550000D03*
G36*
G01*
X129625000Y-89875000D02*
X129625000Y-90425000D01*
G75*
G02*
X129425000Y-90625000I-200000J0D01*
G01*
X129025000Y-90625000D01*
G75*
G02*
X128825000Y-90425000I0J200000D01*
G01*
X128825000Y-89875000D01*
G75*
G02*
X129025000Y-89675000I200000J0D01*
G01*
X129425000Y-89675000D01*
G75*
G02*
X129625000Y-89875000I0J-200000D01*
G01*
G37*
G36*
G01*
X131275000Y-89875000D02*
X131275000Y-90425000D01*
G75*
G02*
X131075000Y-90625000I-200000J0D01*
G01*
X130675000Y-90625000D01*
G75*
G02*
X130475000Y-90425000I0J200000D01*
G01*
X130475000Y-89875000D01*
G75*
G02*
X130675000Y-89675000I200000J0D01*
G01*
X131075000Y-89675000D01*
G75*
G02*
X131275000Y-89875000I0J-200000D01*
G01*
G37*
G36*
G01*
X132975000Y-119175000D02*
X133525000Y-119175000D01*
G75*
G02*
X133725000Y-119375000I0J-200000D01*
G01*
X133725000Y-119775000D01*
G75*
G02*
X133525000Y-119975000I-200000J0D01*
G01*
X132975000Y-119975000D01*
G75*
G02*
X132775000Y-119775000I0J200000D01*
G01*
X132775000Y-119375000D01*
G75*
G02*
X132975000Y-119175000I200000J0D01*
G01*
G37*
G36*
G01*
X132975000Y-117525000D02*
X133525000Y-117525000D01*
G75*
G02*
X133725000Y-117725000I0J-200000D01*
G01*
X133725000Y-118125000D01*
G75*
G02*
X133525000Y-118325000I-200000J0D01*
G01*
X132975000Y-118325000D01*
G75*
G02*
X132775000Y-118125000I0J200000D01*
G01*
X132775000Y-117725000D01*
G75*
G02*
X132975000Y-117525000I200000J0D01*
G01*
G37*
G36*
G01*
X135625000Y-103925000D02*
X136175000Y-103925000D01*
G75*
G02*
X136375000Y-104125000I0J-200000D01*
G01*
X136375000Y-104525000D01*
G75*
G02*
X136175000Y-104725000I-200000J0D01*
G01*
X135625000Y-104725000D01*
G75*
G02*
X135425000Y-104525000I0J200000D01*
G01*
X135425000Y-104125000D01*
G75*
G02*
X135625000Y-103925000I200000J0D01*
G01*
G37*
G36*
G01*
X135625000Y-105575000D02*
X136175000Y-105575000D01*
G75*
G02*
X136375000Y-105775000I0J-200000D01*
G01*
X136375000Y-106175000D01*
G75*
G02*
X136175000Y-106375000I-200000J0D01*
G01*
X135625000Y-106375000D01*
G75*
G02*
X135425000Y-106175000I0J200000D01*
G01*
X135425000Y-105775000D01*
G75*
G02*
X135625000Y-105575000I200000J0D01*
G01*
G37*
G36*
G01*
X150775000Y-117525000D02*
X151325000Y-117525000D01*
G75*
G02*
X151525000Y-117725000I0J-200000D01*
G01*
X151525000Y-118125000D01*
G75*
G02*
X151325000Y-118325000I-200000J0D01*
G01*
X150775000Y-118325000D01*
G75*
G02*
X150575000Y-118125000I0J200000D01*
G01*
X150575000Y-117725000D01*
G75*
G02*
X150775000Y-117525000I200000J0D01*
G01*
G37*
G36*
G01*
X150775000Y-119175000D02*
X151325000Y-119175000D01*
G75*
G02*
X151525000Y-119375000I0J-200000D01*
G01*
X151525000Y-119775000D01*
G75*
G02*
X151325000Y-119975000I-200000J0D01*
G01*
X150775000Y-119975000D01*
G75*
G02*
X150575000Y-119775000I0J200000D01*
G01*
X150575000Y-119375000D01*
G75*
G02*
X150775000Y-119175000I200000J0D01*
G01*
G37*
G36*
G01*
X167975000Y-98525000D02*
X168525000Y-98525000D01*
G75*
G02*
X168725000Y-98725000I0J-200000D01*
G01*
X168725000Y-99125000D01*
G75*
G02*
X168525000Y-99325000I-200000J0D01*
G01*
X167975000Y-99325000D01*
G75*
G02*
X167775000Y-99125000I0J200000D01*
G01*
X167775000Y-98725000D01*
G75*
G02*
X167975000Y-98525000I200000J0D01*
G01*
G37*
G36*
G01*
X167975000Y-100175000D02*
X168525000Y-100175000D01*
G75*
G02*
X168725000Y-100375000I0J-200000D01*
G01*
X168725000Y-100775000D01*
G75*
G02*
X168525000Y-100975000I-200000J0D01*
G01*
X167975000Y-100975000D01*
G75*
G02*
X167775000Y-100775000I0J200000D01*
G01*
X167775000Y-100375000D01*
G75*
G02*
X167975000Y-100175000I200000J0D01*
G01*
G37*
G36*
G01*
X115475000Y-81500000D02*
X116425000Y-81500000D01*
G75*
G02*
X116675000Y-81750000I0J-250000D01*
G01*
X116675000Y-82250000D01*
G75*
G02*
X116425000Y-82500000I-250000J0D01*
G01*
X115475000Y-82500000D01*
G75*
G02*
X115225000Y-82250000I0J250000D01*
G01*
X115225000Y-81750000D01*
G75*
G02*
X115475000Y-81500000I250000J0D01*
G01*
G37*
G36*
G01*
X115475000Y-79600000D02*
X116425000Y-79600000D01*
G75*
G02*
X116675000Y-79850000I0J-250000D01*
G01*
X116675000Y-80350000D01*
G75*
G02*
X116425000Y-80600000I-250000J0D01*
G01*
X115475000Y-80600000D01*
G75*
G02*
X115225000Y-80350000I0J250000D01*
G01*
X115225000Y-79850000D01*
G75*
G02*
X115475000Y-79600000I250000J0D01*
G01*
G37*
G36*
G01*
X123100000Y-78325000D02*
X123600000Y-78325000D01*
G75*
G02*
X123825000Y-78550000I0J-225000D01*
G01*
X123825000Y-79000000D01*
G75*
G02*
X123600000Y-79225000I-225000J0D01*
G01*
X123100000Y-79225000D01*
G75*
G02*
X122875000Y-79000000I0J225000D01*
G01*
X122875000Y-78550000D01*
G75*
G02*
X123100000Y-78325000I225000J0D01*
G01*
G37*
G36*
G01*
X123100000Y-76775000D02*
X123600000Y-76775000D01*
G75*
G02*
X123825000Y-77000000I0J-225000D01*
G01*
X123825000Y-77450000D01*
G75*
G02*
X123600000Y-77675000I-225000J0D01*
G01*
X123100000Y-77675000D01*
G75*
G02*
X122875000Y-77450000I0J225000D01*
G01*
X122875000Y-77000000D01*
G75*
G02*
X123100000Y-76775000I225000J0D01*
G01*
G37*
G36*
G01*
X120725000Y-79350000D02*
X120725000Y-79850000D01*
G75*
G02*
X120500000Y-80075000I-225000J0D01*
G01*
X120050000Y-80075000D01*
G75*
G02*
X119825000Y-79850000I0J225000D01*
G01*
X119825000Y-79350000D01*
G75*
G02*
X120050000Y-79125000I225000J0D01*
G01*
X120500000Y-79125000D01*
G75*
G02*
X120725000Y-79350000I0J-225000D01*
G01*
G37*
G36*
G01*
X119175000Y-79350000D02*
X119175000Y-79850000D01*
G75*
G02*
X118950000Y-80075000I-225000J0D01*
G01*
X118500000Y-80075000D01*
G75*
G02*
X118275000Y-79850000I0J225000D01*
G01*
X118275000Y-79350000D01*
G75*
G02*
X118500000Y-79125000I225000J0D01*
G01*
X118950000Y-79125000D01*
G75*
G02*
X119175000Y-79350000I0J-225000D01*
G01*
G37*
G36*
G01*
X127125000Y-81700000D02*
X126175000Y-81700000D01*
G75*
G02*
X125925000Y-81450000I0J250000D01*
G01*
X125925000Y-80950000D01*
G75*
G02*
X126175000Y-80700000I250000J0D01*
G01*
X127125000Y-80700000D01*
G75*
G02*
X127375000Y-80950000I0J-250000D01*
G01*
X127375000Y-81450000D01*
G75*
G02*
X127125000Y-81700000I-250000J0D01*
G01*
G37*
G36*
G01*
X127125000Y-79800000D02*
X126175000Y-79800000D01*
G75*
G02*
X125925000Y-79550000I0J250000D01*
G01*
X125925000Y-79050000D01*
G75*
G02*
X126175000Y-78800000I250000J0D01*
G01*
X127125000Y-78800000D01*
G75*
G02*
X127375000Y-79050000I0J-250000D01*
G01*
X127375000Y-79550000D01*
G75*
G02*
X127125000Y-79800000I-250000J0D01*
G01*
G37*
G36*
G01*
X129125000Y-82700000D02*
X128175000Y-82700000D01*
G75*
G02*
X127925000Y-82450000I0J250000D01*
G01*
X127925000Y-81950000D01*
G75*
G02*
X128175000Y-81700000I250000J0D01*
G01*
X129125000Y-81700000D01*
G75*
G02*
X129375000Y-81950000I0J-250000D01*
G01*
X129375000Y-82450000D01*
G75*
G02*
X129125000Y-82700000I-250000J0D01*
G01*
G37*
G36*
G01*
X129125000Y-80800000D02*
X128175000Y-80800000D01*
G75*
G02*
X127925000Y-80550000I0J250000D01*
G01*
X127925000Y-80050000D01*
G75*
G02*
X128175000Y-79800000I250000J0D01*
G01*
X129125000Y-79800000D01*
G75*
G02*
X129375000Y-80050000I0J-250000D01*
G01*
X129375000Y-80550000D01*
G75*
G02*
X129125000Y-80800000I-250000J0D01*
G01*
G37*
D34*
X122600000Y-81500000D03*
X124800000Y-81500000D03*
G36*
G01*
X124575000Y-76775000D02*
X125125000Y-76775000D01*
G75*
G02*
X125325000Y-76975000I0J-200000D01*
G01*
X125325000Y-77375000D01*
G75*
G02*
X125125000Y-77575000I-200000J0D01*
G01*
X124575000Y-77575000D01*
G75*
G02*
X124375000Y-77375000I0J200000D01*
G01*
X124375000Y-76975000D01*
G75*
G02*
X124575000Y-76775000I200000J0D01*
G01*
G37*
G36*
G01*
X124575000Y-78425000D02*
X125125000Y-78425000D01*
G75*
G02*
X125325000Y-78625000I0J-200000D01*
G01*
X125325000Y-79025000D01*
G75*
G02*
X125125000Y-79225000I-200000J0D01*
G01*
X124575000Y-79225000D01*
G75*
G02*
X124375000Y-79025000I0J200000D01*
G01*
X124375000Y-78625000D01*
G75*
G02*
X124575000Y-78425000I200000J0D01*
G01*
G37*
G36*
G01*
X121575000Y-78425000D02*
X122125000Y-78425000D01*
G75*
G02*
X122325000Y-78625000I0J-200000D01*
G01*
X122325000Y-79025000D01*
G75*
G02*
X122125000Y-79225000I-200000J0D01*
G01*
X121575000Y-79225000D01*
G75*
G02*
X121375000Y-79025000I0J200000D01*
G01*
X121375000Y-78625000D01*
G75*
G02*
X121575000Y-78425000I200000J0D01*
G01*
G37*
G36*
G01*
X121575000Y-76775000D02*
X122125000Y-76775000D01*
G75*
G02*
X122325000Y-76975000I0J-200000D01*
G01*
X122325000Y-77375000D01*
G75*
G02*
X122125000Y-77575000I-200000J0D01*
G01*
X121575000Y-77575000D01*
G75*
G02*
X121375000Y-77375000I0J200000D01*
G01*
X121375000Y-76975000D01*
G75*
G02*
X121575000Y-76775000I200000J0D01*
G01*
G37*
D35*
X120090000Y-78000000D03*
X120090000Y-77050000D03*
X120090000Y-76100000D03*
X117890000Y-76100000D03*
X117890000Y-78000000D03*
X117890000Y-77050000D03*
D36*
X121000000Y-81750000D03*
X117700000Y-81750000D03*
X169800000Y-85650000D03*
X173100000Y-85650000D03*
D37*
X141740000Y-116220000D03*
X141740000Y-119520000D03*
X159610000Y-116300000D03*
X159610000Y-119600000D03*
D36*
X158120000Y-103700000D03*
X161420000Y-103700000D03*
G36*
G01*
X173775000Y-119550000D02*
X175025000Y-119550000D01*
G75*
G02*
X175175000Y-119700000I0J-150000D01*
G01*
X175175000Y-120000000D01*
G75*
G02*
X175025000Y-120150000I-150000J0D01*
G01*
X173775000Y-120150000D01*
G75*
G02*
X173625000Y-120000000I0J150000D01*
G01*
X173625000Y-119700000D01*
G75*
G02*
X173775000Y-119550000I150000J0D01*
G01*
G37*
G36*
G01*
X173775000Y-120550000D02*
X175025000Y-120550000D01*
G75*
G02*
X175175000Y-120700000I0J-150000D01*
G01*
X175175000Y-121000000D01*
G75*
G02*
X175025000Y-121150000I-150000J0D01*
G01*
X173775000Y-121150000D01*
G75*
G02*
X173625000Y-121000000I0J150000D01*
G01*
X173625000Y-120700000D01*
G75*
G02*
X173775000Y-120550000I150000J0D01*
G01*
G37*
G36*
G01*
X173775000Y-121550000D02*
X175025000Y-121550000D01*
G75*
G02*
X175175000Y-121700000I0J-150000D01*
G01*
X175175000Y-122000000D01*
G75*
G02*
X175025000Y-122150000I-150000J0D01*
G01*
X173775000Y-122150000D01*
G75*
G02*
X173625000Y-122000000I0J150000D01*
G01*
X173625000Y-121700000D01*
G75*
G02*
X173775000Y-121550000I150000J0D01*
G01*
G37*
G36*
G01*
X169874999Y-117950000D02*
X171175001Y-117950000D01*
G75*
G02*
X171425000Y-118199999I0J-249999D01*
G01*
X171425000Y-118900001D01*
G75*
G02*
X171175001Y-119150000I-249999J0D01*
G01*
X169874999Y-119150000D01*
G75*
G02*
X169625000Y-118900001I0J249999D01*
G01*
X169625000Y-118199999D01*
G75*
G02*
X169874999Y-117950000I249999J0D01*
G01*
G37*
G36*
G01*
X169874999Y-122550000D02*
X171175001Y-122550000D01*
G75*
G02*
X171425000Y-122799999I0J-249999D01*
G01*
X171425000Y-123500001D01*
G75*
G02*
X171175001Y-123750000I-249999J0D01*
G01*
X169874999Y-123750000D01*
G75*
G02*
X169625000Y-123500001I0J249999D01*
G01*
X169625000Y-122799999D01*
G75*
G02*
X169874999Y-122550000I249999J0D01*
G01*
G37*
M02*
