G04 #@! TF.GenerationSoftware,KiCad,Pcbnew,(5.1.10-1-10_14)*
G04 #@! TF.CreationDate,2021-08-04T20:57:59+10:00*
G04 #@! TF.ProjectId,esp32_battery_isolator,65737033-325f-4626-9174-746572795f69,D*
G04 #@! TF.SameCoordinates,Original*
G04 #@! TF.FileFunction,Paste,Top*
G04 #@! TF.FilePolarity,Positive*
%FSLAX46Y46*%
G04 Gerber Fmt 4.6, Leading zero omitted, Abs format (unit mm)*
G04 Created by KiCad (PCBNEW (5.1.10-1-10_14)) date 2021-08-04 20:57:59*
%MOMM*%
%LPD*%
G01*
G04 APERTURE LIST*
%ADD10C,0.150000*%
%ADD11R,0.250000X0.400000*%
%ADD12R,0.280000X0.330000*%
%ADD13R,0.300000X0.200000*%
%ADD14R,1.300000X0.900000*%
%ADD15C,1.300000*%
%ADD16O,1.600000X0.850000*%
%ADD17R,1.250000X0.500000*%
%ADD18R,1.150000X0.300000*%
%ADD19R,4.900000X4.900000*%
%ADD20R,1.900000X0.800000*%
%ADD21R,0.800000X1.900000*%
%ADD22R,0.800000X0.700000*%
%ADD23R,0.700000X0.800000*%
%ADD24R,0.700000X2.800000*%
%ADD25R,0.960000X0.550000*%
%ADD26R,0.800000X1.100000*%
%ADD27R,1.100000X0.800000*%
G04 APERTURE END LIST*
D10*
G36*
X121585900Y-88211750D02*
G01*
X121585900Y-86568250D01*
X122914100Y-86568250D01*
X122914100Y-88211750D01*
X121585900Y-88211750D01*
G37*
X121585900Y-88211750D02*
X121585900Y-86568250D01*
X122914100Y-86568250D01*
X122914100Y-88211750D01*
X121585900Y-88211750D01*
G36*
X122914100Y-91888250D02*
G01*
X122914100Y-93531750D01*
X121585900Y-93531750D01*
X121585900Y-91888250D01*
X122914100Y-91888250D01*
G37*
X122914100Y-91888250D02*
X122914100Y-93531750D01*
X121585900Y-93531750D01*
X121585900Y-91888250D01*
X122914100Y-91888250D01*
G36*
X144485900Y-118611750D02*
G01*
X144485900Y-116968250D01*
X145814100Y-116968250D01*
X145814100Y-118611750D01*
X144485900Y-118611750D01*
G37*
X144485900Y-118611750D02*
X144485900Y-116968250D01*
X145814100Y-116968250D01*
X145814100Y-118611750D01*
X144485900Y-118611750D01*
G36*
X129564100Y-104438250D02*
G01*
X129564100Y-106081750D01*
X128235900Y-106081750D01*
X128235900Y-104438250D01*
X129564100Y-104438250D01*
G37*
X129564100Y-104438250D02*
X129564100Y-106081750D01*
X128235900Y-106081750D01*
X128235900Y-104438250D01*
X129564100Y-104438250D01*
G36*
X162485900Y-118611750D02*
G01*
X162485900Y-116968250D01*
X163814100Y-116968250D01*
X163814100Y-118611750D01*
X162485900Y-118611750D01*
G37*
X162485900Y-118611750D02*
X162485900Y-116968250D01*
X163814100Y-116968250D01*
X163814100Y-118611750D01*
X162485900Y-118611750D01*
G36*
X163714100Y-107288250D02*
G01*
X163714100Y-108931750D01*
X162385900Y-108931750D01*
X162385900Y-107288250D01*
X163714100Y-107288250D01*
G37*
X163714100Y-107288250D02*
X163714100Y-108931750D01*
X162385900Y-108931750D01*
X162385900Y-107288250D01*
X163714100Y-107288250D01*
G36*
X128235900Y-100361750D02*
G01*
X128235900Y-98718250D01*
X129564100Y-98718250D01*
X129564100Y-100361750D01*
X128235900Y-100361750D01*
G37*
X128235900Y-100361750D02*
X128235900Y-98718250D01*
X129564100Y-98718250D01*
X129564100Y-100361750D01*
X128235900Y-100361750D01*
D11*
X121925000Y-89150000D03*
X122575000Y-89150000D03*
X121275000Y-89150000D03*
X123225000Y-89150000D03*
D12*
X120835000Y-87750000D03*
X123665000Y-87750000D03*
D13*
X121925000Y-86250000D03*
X121275000Y-86250000D03*
X122575000Y-86250000D03*
X123225000Y-86250000D03*
D11*
X122575000Y-90950000D03*
X121925000Y-90950000D03*
X123225000Y-90950000D03*
X121275000Y-90950000D03*
D12*
X123665000Y-92350000D03*
X120835000Y-92350000D03*
D13*
X122575000Y-93850000D03*
X123225000Y-93850000D03*
X121925000Y-93850000D03*
X121275000Y-93850000D03*
D11*
X144825000Y-119550000D03*
X145475000Y-119550000D03*
X144175000Y-119550000D03*
X146125000Y-119550000D03*
D12*
X143735000Y-118150000D03*
X146565000Y-118150000D03*
D13*
X144825000Y-116650000D03*
X144175000Y-116650000D03*
X145475000Y-116650000D03*
X146125000Y-116650000D03*
D11*
X129225000Y-103500000D03*
X128575000Y-103500000D03*
X129875000Y-103500000D03*
X127925000Y-103500000D03*
D12*
X130315000Y-104900000D03*
X127485000Y-104900000D03*
D13*
X129225000Y-106400000D03*
X129875000Y-106400000D03*
X128575000Y-106400000D03*
X127925000Y-106400000D03*
D11*
X162825000Y-119550000D03*
X163475000Y-119550000D03*
X162175000Y-119550000D03*
X164125000Y-119550000D03*
D12*
X161735000Y-118150000D03*
X164565000Y-118150000D03*
D13*
X162825000Y-116650000D03*
X162175000Y-116650000D03*
X163475000Y-116650000D03*
X164125000Y-116650000D03*
D11*
X163375000Y-106350000D03*
X162725000Y-106350000D03*
X164025000Y-106350000D03*
X162075000Y-106350000D03*
D12*
X164465000Y-107750000D03*
X161635000Y-107750000D03*
D13*
X163375000Y-109250000D03*
X164025000Y-109250000D03*
X162725000Y-109250000D03*
X162075000Y-109250000D03*
D11*
X128575000Y-101300000D03*
X129225000Y-101300000D03*
X127925000Y-101300000D03*
X129875000Y-101300000D03*
D12*
X127485000Y-99900000D03*
X130315000Y-99900000D03*
D13*
X128575000Y-98400000D03*
X127925000Y-98400000D03*
X129225000Y-98400000D03*
X129875000Y-98400000D03*
D14*
X144250000Y-106650000D03*
X137950000Y-106650000D03*
X137950000Y-103650000D03*
X144250000Y-103650000D03*
X154750000Y-106650000D03*
X148450000Y-106650000D03*
X148450000Y-103650000D03*
X154750000Y-103650000D03*
D15*
X171050000Y-89950000D03*
X171050000Y-94750000D03*
D16*
X174050000Y-88750000D03*
D17*
X173950000Y-91600000D03*
X173950000Y-93100000D03*
D16*
X173950000Y-95950000D03*
D18*
X171050000Y-91050000D03*
X171050000Y-91700000D03*
X171050000Y-92350000D03*
X171050000Y-93000000D03*
X171050000Y-93650000D03*
G36*
G01*
X130425000Y-86525000D02*
X130875000Y-86525000D01*
G75*
G02*
X131075000Y-86725000I0J-200000D01*
G01*
X131075000Y-87125000D01*
G75*
G02*
X130875000Y-87325000I-200000J0D01*
G01*
X130425000Y-87325000D01*
G75*
G02*
X130225000Y-87125000I0J200000D01*
G01*
X130225000Y-86725000D01*
G75*
G02*
X130425000Y-86525000I200000J0D01*
G01*
G37*
G36*
G01*
X130425000Y-84975000D02*
X130875000Y-84975000D01*
G75*
G02*
X131075000Y-85175000I0J-200000D01*
G01*
X131075000Y-85575000D01*
G75*
G02*
X130875000Y-85775000I-200000J0D01*
G01*
X130425000Y-85775000D01*
G75*
G02*
X130225000Y-85575000I0J200000D01*
G01*
X130225000Y-85175000D01*
G75*
G02*
X130425000Y-84975000I200000J0D01*
G01*
G37*
G36*
G01*
X115975000Y-78175000D02*
X115525000Y-78175000D01*
G75*
G02*
X115325000Y-77975000I0J200000D01*
G01*
X115325000Y-77575000D01*
G75*
G02*
X115525000Y-77375000I200000J0D01*
G01*
X115975000Y-77375000D01*
G75*
G02*
X116175000Y-77575000I0J-200000D01*
G01*
X116175000Y-77975000D01*
G75*
G02*
X115975000Y-78175000I-200000J0D01*
G01*
G37*
G36*
G01*
X115975000Y-76625000D02*
X115525000Y-76625000D01*
G75*
G02*
X115325000Y-76425000I0J200000D01*
G01*
X115325000Y-76025000D01*
G75*
G02*
X115525000Y-75825000I200000J0D01*
G01*
X115975000Y-75825000D01*
G75*
G02*
X116175000Y-76025000I0J-200000D01*
G01*
X116175000Y-76425000D01*
G75*
G02*
X115975000Y-76625000I-200000J0D01*
G01*
G37*
G36*
G01*
X156743871Y-83900000D02*
X154956129Y-83900000D01*
G75*
G02*
X154725000Y-83668871I0J231129D01*
G01*
X154725000Y-82906129D01*
G75*
G02*
X154956129Y-82675000I231129J0D01*
G01*
X156743871Y-82675000D01*
G75*
G02*
X156975000Y-82906129I0J-231129D01*
G01*
X156975000Y-83668871D01*
G75*
G02*
X156743871Y-83900000I-231129J0D01*
G01*
G37*
G36*
G01*
X156743871Y-80825000D02*
X154956129Y-80825000D01*
G75*
G02*
X154725000Y-80593871I0J231129D01*
G01*
X154725000Y-79831129D01*
G75*
G02*
X154956129Y-79600000I231129J0D01*
G01*
X156743871Y-79600000D01*
G75*
G02*
X156975000Y-79831129I0J-231129D01*
G01*
X156975000Y-80593871D01*
G75*
G02*
X156743871Y-80825000I-231129J0D01*
G01*
G37*
G36*
G01*
X158425000Y-83525000D02*
X158875000Y-83525000D01*
G75*
G02*
X159075000Y-83725000I0J-200000D01*
G01*
X159075000Y-84125000D01*
G75*
G02*
X158875000Y-84325000I-200000J0D01*
G01*
X158425000Y-84325000D01*
G75*
G02*
X158225000Y-84125000I0J200000D01*
G01*
X158225000Y-83725000D01*
G75*
G02*
X158425000Y-83525000I200000J0D01*
G01*
G37*
G36*
G01*
X158425000Y-81975000D02*
X158875000Y-81975000D01*
G75*
G02*
X159075000Y-82175000I0J-200000D01*
G01*
X159075000Y-82575000D01*
G75*
G02*
X158875000Y-82775000I-200000J0D01*
G01*
X158425000Y-82775000D01*
G75*
G02*
X158225000Y-82575000I0J200000D01*
G01*
X158225000Y-82175000D01*
G75*
G02*
X158425000Y-81975000I200000J0D01*
G01*
G37*
G36*
G01*
X158425000Y-85225000D02*
X158875000Y-85225000D01*
G75*
G02*
X159075000Y-85425000I0J-200000D01*
G01*
X159075000Y-85825000D01*
G75*
G02*
X158875000Y-86025000I-200000J0D01*
G01*
X158425000Y-86025000D01*
G75*
G02*
X158225000Y-85825000I0J200000D01*
G01*
X158225000Y-85425000D01*
G75*
G02*
X158425000Y-85225000I200000J0D01*
G01*
G37*
G36*
G01*
X158425000Y-86775000D02*
X158875000Y-86775000D01*
G75*
G02*
X159075000Y-86975000I0J-200000D01*
G01*
X159075000Y-87375000D01*
G75*
G02*
X158875000Y-87575000I-200000J0D01*
G01*
X158425000Y-87575000D01*
G75*
G02*
X158225000Y-87375000I0J200000D01*
G01*
X158225000Y-86975000D01*
G75*
G02*
X158425000Y-86775000I200000J0D01*
G01*
G37*
G36*
G01*
X154956129Y-88275000D02*
X156743871Y-88275000D01*
G75*
G02*
X156975000Y-88506129I0J-231129D01*
G01*
X156975000Y-89268871D01*
G75*
G02*
X156743871Y-89500000I-231129J0D01*
G01*
X154956129Y-89500000D01*
G75*
G02*
X154725000Y-89268871I0J231129D01*
G01*
X154725000Y-88506129D01*
G75*
G02*
X154956129Y-88275000I231129J0D01*
G01*
G37*
G36*
G01*
X154956129Y-85200000D02*
X156743871Y-85200000D01*
G75*
G02*
X156975000Y-85431129I0J-231129D01*
G01*
X156975000Y-86193871D01*
G75*
G02*
X156743871Y-86425000I-231129J0D01*
G01*
X154956129Y-86425000D01*
G75*
G02*
X154725000Y-86193871I0J231129D01*
G01*
X154725000Y-85431129D01*
G75*
G02*
X154956129Y-85200000I231129J0D01*
G01*
G37*
G36*
G01*
X169425000Y-96325000D02*
X169425000Y-96775000D01*
G75*
G02*
X169225000Y-96975000I-200000J0D01*
G01*
X168825000Y-96975000D01*
G75*
G02*
X168625000Y-96775000I0J200000D01*
G01*
X168625000Y-96325000D01*
G75*
G02*
X168825000Y-96125000I200000J0D01*
G01*
X169225000Y-96125000D01*
G75*
G02*
X169425000Y-96325000I0J-200000D01*
G01*
G37*
G36*
G01*
X167875000Y-96325000D02*
X167875000Y-96775000D01*
G75*
G02*
X167675000Y-96975000I-200000J0D01*
G01*
X167275000Y-96975000D01*
G75*
G02*
X167075000Y-96775000I0J200000D01*
G01*
X167075000Y-96325000D01*
G75*
G02*
X167275000Y-96125000I200000J0D01*
G01*
X167675000Y-96125000D01*
G75*
G02*
X167875000Y-96325000I0J-200000D01*
G01*
G37*
G36*
G01*
X165225000Y-96775000D02*
X165225000Y-96325000D01*
G75*
G02*
X165425000Y-96125000I200000J0D01*
G01*
X165825000Y-96125000D01*
G75*
G02*
X166025000Y-96325000I0J-200000D01*
G01*
X166025000Y-96775000D01*
G75*
G02*
X165825000Y-96975000I-200000J0D01*
G01*
X165425000Y-96975000D01*
G75*
G02*
X165225000Y-96775000I0J200000D01*
G01*
G37*
G36*
G01*
X163675000Y-96775000D02*
X163675000Y-96325000D01*
G75*
G02*
X163875000Y-96125000I200000J0D01*
G01*
X164275000Y-96125000D01*
G75*
G02*
X164475000Y-96325000I0J-200000D01*
G01*
X164475000Y-96775000D01*
G75*
G02*
X164275000Y-96975000I-200000J0D01*
G01*
X163875000Y-96975000D01*
G75*
G02*
X163675000Y-96775000I0J200000D01*
G01*
G37*
G36*
G01*
X131175000Y-84025000D02*
X130725000Y-84025000D01*
G75*
G02*
X130525000Y-83825000I0J200000D01*
G01*
X130525000Y-83425000D01*
G75*
G02*
X130725000Y-83225000I200000J0D01*
G01*
X131175000Y-83225000D01*
G75*
G02*
X131375000Y-83425000I0J-200000D01*
G01*
X131375000Y-83825000D01*
G75*
G02*
X131175000Y-84025000I-200000J0D01*
G01*
G37*
G36*
G01*
X131175000Y-82475000D02*
X130725000Y-82475000D01*
G75*
G02*
X130525000Y-82275000I0J200000D01*
G01*
X130525000Y-81875000D01*
G75*
G02*
X130725000Y-81675000I200000J0D01*
G01*
X131175000Y-81675000D01*
G75*
G02*
X131375000Y-81875000I0J-200000D01*
G01*
X131375000Y-82275000D01*
G75*
G02*
X131175000Y-82475000I-200000J0D01*
G01*
G37*
G36*
G01*
X128600000Y-85025000D02*
X129100000Y-85025000D01*
G75*
G02*
X129275000Y-85200000I0J-175000D01*
G01*
X129275000Y-85550000D01*
G75*
G02*
X129100000Y-85725000I-175000J0D01*
G01*
X128600000Y-85725000D01*
G75*
G02*
X128425000Y-85550000I0J175000D01*
G01*
X128425000Y-85200000D01*
G75*
G02*
X128600000Y-85025000I175000J0D01*
G01*
G37*
G36*
G01*
X128600000Y-83375000D02*
X129100000Y-83375000D01*
G75*
G02*
X129275000Y-83550000I0J-175000D01*
G01*
X129275000Y-83900000D01*
G75*
G02*
X129100000Y-84075000I-175000J0D01*
G01*
X128600000Y-84075000D01*
G75*
G02*
X128425000Y-83900000I0J175000D01*
G01*
X128425000Y-83550000D01*
G75*
G02*
X128600000Y-83375000I175000J0D01*
G01*
G37*
G36*
G01*
X133675000Y-102150000D02*
X133675000Y-102650000D01*
G75*
G02*
X133500000Y-102825000I-175000J0D01*
G01*
X133150000Y-102825000D01*
G75*
G02*
X132975000Y-102650000I0J175000D01*
G01*
X132975000Y-102150000D01*
G75*
G02*
X133150000Y-101975000I175000J0D01*
G01*
X133500000Y-101975000D01*
G75*
G02*
X133675000Y-102150000I0J-175000D01*
G01*
G37*
G36*
G01*
X135325000Y-102150000D02*
X135325000Y-102650000D01*
G75*
G02*
X135150000Y-102825000I-175000J0D01*
G01*
X134800000Y-102825000D01*
G75*
G02*
X134625000Y-102650000I0J175000D01*
G01*
X134625000Y-102150000D01*
G75*
G02*
X134800000Y-101975000I175000J0D01*
G01*
X135150000Y-101975000D01*
G75*
G02*
X135325000Y-102150000I0J-175000D01*
G01*
G37*
G36*
G01*
X157125000Y-97900000D02*
X157125000Y-97400000D01*
G75*
G02*
X157300000Y-97225000I175000J0D01*
G01*
X157650000Y-97225000D01*
G75*
G02*
X157825000Y-97400000I0J-175000D01*
G01*
X157825000Y-97900000D01*
G75*
G02*
X157650000Y-98075000I-175000J0D01*
G01*
X157300000Y-98075000D01*
G75*
G02*
X157125000Y-97900000I0J175000D01*
G01*
G37*
G36*
G01*
X155475000Y-97900000D02*
X155475000Y-97400000D01*
G75*
G02*
X155650000Y-97225000I175000J0D01*
G01*
X156000000Y-97225000D01*
G75*
G02*
X156175000Y-97400000I0J-175000D01*
G01*
X156175000Y-97900000D01*
G75*
G02*
X156000000Y-98075000I-175000J0D01*
G01*
X155650000Y-98075000D01*
G75*
G02*
X155475000Y-97900000I0J175000D01*
G01*
G37*
G36*
G01*
X155475000Y-100400000D02*
X155475000Y-99900000D01*
G75*
G02*
X155650000Y-99725000I175000J0D01*
G01*
X156000000Y-99725000D01*
G75*
G02*
X156175000Y-99900000I0J-175000D01*
G01*
X156175000Y-100400000D01*
G75*
G02*
X156000000Y-100575000I-175000J0D01*
G01*
X155650000Y-100575000D01*
G75*
G02*
X155475000Y-100400000I0J175000D01*
G01*
G37*
G36*
G01*
X157125000Y-100400000D02*
X157125000Y-99900000D01*
G75*
G02*
X157300000Y-99725000I175000J0D01*
G01*
X157650000Y-99725000D01*
G75*
G02*
X157825000Y-99900000I0J-175000D01*
G01*
X157825000Y-100400000D01*
G75*
G02*
X157650000Y-100575000I-175000J0D01*
G01*
X157300000Y-100575000D01*
G75*
G02*
X157125000Y-100400000I0J175000D01*
G01*
G37*
G36*
G01*
X154625000Y-97400000D02*
X154625000Y-97900000D01*
G75*
G02*
X154450000Y-98075000I-175000J0D01*
G01*
X154100000Y-98075000D01*
G75*
G02*
X153925000Y-97900000I0J175000D01*
G01*
X153925000Y-97400000D01*
G75*
G02*
X154100000Y-97225000I175000J0D01*
G01*
X154450000Y-97225000D01*
G75*
G02*
X154625000Y-97400000I0J-175000D01*
G01*
G37*
G36*
G01*
X152975000Y-97400000D02*
X152975000Y-97900000D01*
G75*
G02*
X152800000Y-98075000I-175000J0D01*
G01*
X152450000Y-98075000D01*
G75*
G02*
X152275000Y-97900000I0J175000D01*
G01*
X152275000Y-97400000D01*
G75*
G02*
X152450000Y-97225000I175000J0D01*
G01*
X152800000Y-97225000D01*
G75*
G02*
X152975000Y-97400000I0J-175000D01*
G01*
G37*
G36*
G01*
X153925000Y-100400000D02*
X153925000Y-99900000D01*
G75*
G02*
X154100000Y-99725000I175000J0D01*
G01*
X154450000Y-99725000D01*
G75*
G02*
X154625000Y-99900000I0J-175000D01*
G01*
X154625000Y-100400000D01*
G75*
G02*
X154450000Y-100575000I-175000J0D01*
G01*
X154100000Y-100575000D01*
G75*
G02*
X153925000Y-100400000I0J175000D01*
G01*
G37*
G36*
G01*
X152275000Y-100400000D02*
X152275000Y-99900000D01*
G75*
G02*
X152450000Y-99725000I175000J0D01*
G01*
X152800000Y-99725000D01*
G75*
G02*
X152975000Y-99900000I0J-175000D01*
G01*
X152975000Y-100400000D01*
G75*
G02*
X152800000Y-100575000I-175000J0D01*
G01*
X152450000Y-100575000D01*
G75*
G02*
X152275000Y-100400000I0J175000D01*
G01*
G37*
G36*
G01*
X165200000Y-81075000D02*
X164700000Y-81075000D01*
G75*
G02*
X164525000Y-80900000I0J175000D01*
G01*
X164525000Y-80550000D01*
G75*
G02*
X164700000Y-80375000I175000J0D01*
G01*
X165200000Y-80375000D01*
G75*
G02*
X165375000Y-80550000I0J-175000D01*
G01*
X165375000Y-80900000D01*
G75*
G02*
X165200000Y-81075000I-175000J0D01*
G01*
G37*
G36*
G01*
X165200000Y-79425000D02*
X164700000Y-79425000D01*
G75*
G02*
X164525000Y-79250000I0J175000D01*
G01*
X164525000Y-78900000D01*
G75*
G02*
X164700000Y-78725000I175000J0D01*
G01*
X165200000Y-78725000D01*
G75*
G02*
X165375000Y-78900000I0J-175000D01*
G01*
X165375000Y-79250000D01*
G75*
G02*
X165200000Y-79425000I-175000J0D01*
G01*
G37*
G36*
G01*
X165200000Y-76375000D02*
X164700000Y-76375000D01*
G75*
G02*
X164525000Y-76200000I0J175000D01*
G01*
X164525000Y-75850000D01*
G75*
G02*
X164700000Y-75675000I175000J0D01*
G01*
X165200000Y-75675000D01*
G75*
G02*
X165375000Y-75850000I0J-175000D01*
G01*
X165375000Y-76200000D01*
G75*
G02*
X165200000Y-76375000I-175000J0D01*
G01*
G37*
G36*
G01*
X165200000Y-78025000D02*
X164700000Y-78025000D01*
G75*
G02*
X164525000Y-77850000I0J175000D01*
G01*
X164525000Y-77500000D01*
G75*
G02*
X164700000Y-77325000I175000J0D01*
G01*
X165200000Y-77325000D01*
G75*
G02*
X165375000Y-77500000I0J-175000D01*
G01*
X165375000Y-77850000D01*
G75*
G02*
X165200000Y-78025000I-175000J0D01*
G01*
G37*
G36*
G01*
X167800000Y-81125000D02*
X167300000Y-81125000D01*
G75*
G02*
X167125000Y-80950000I0J175000D01*
G01*
X167125000Y-80600000D01*
G75*
G02*
X167300000Y-80425000I175000J0D01*
G01*
X167800000Y-80425000D01*
G75*
G02*
X167975000Y-80600000I0J-175000D01*
G01*
X167975000Y-80950000D01*
G75*
G02*
X167800000Y-81125000I-175000J0D01*
G01*
G37*
G36*
G01*
X167800000Y-79475000D02*
X167300000Y-79475000D01*
G75*
G02*
X167125000Y-79300000I0J175000D01*
G01*
X167125000Y-78950000D01*
G75*
G02*
X167300000Y-78775000I175000J0D01*
G01*
X167800000Y-78775000D01*
G75*
G02*
X167975000Y-78950000I0J-175000D01*
G01*
X167975000Y-79300000D01*
G75*
G02*
X167800000Y-79475000I-175000J0D01*
G01*
G37*
G36*
G01*
X167800000Y-76375000D02*
X167300000Y-76375000D01*
G75*
G02*
X167125000Y-76200000I0J175000D01*
G01*
X167125000Y-75850000D01*
G75*
G02*
X167300000Y-75675000I175000J0D01*
G01*
X167800000Y-75675000D01*
G75*
G02*
X167975000Y-75850000I0J-175000D01*
G01*
X167975000Y-76200000D01*
G75*
G02*
X167800000Y-76375000I-175000J0D01*
G01*
G37*
G36*
G01*
X167800000Y-78025000D02*
X167300000Y-78025000D01*
G75*
G02*
X167125000Y-77850000I0J175000D01*
G01*
X167125000Y-77500000D01*
G75*
G02*
X167300000Y-77325000I175000J0D01*
G01*
X167800000Y-77325000D01*
G75*
G02*
X167975000Y-77500000I0J-175000D01*
G01*
X167975000Y-77850000D01*
G75*
G02*
X167800000Y-78025000I-175000J0D01*
G01*
G37*
G36*
G01*
X126525000Y-86100000D02*
X126525000Y-85600000D01*
G75*
G02*
X126700000Y-85425000I175000J0D01*
G01*
X127050000Y-85425000D01*
G75*
G02*
X127225000Y-85600000I0J-175000D01*
G01*
X127225000Y-86100000D01*
G75*
G02*
X127050000Y-86275000I-175000J0D01*
G01*
X126700000Y-86275000D01*
G75*
G02*
X126525000Y-86100000I0J175000D01*
G01*
G37*
G36*
G01*
X124875000Y-86100000D02*
X124875000Y-85600000D01*
G75*
G02*
X125050000Y-85425000I175000J0D01*
G01*
X125400000Y-85425000D01*
G75*
G02*
X125575000Y-85600000I0J-175000D01*
G01*
X125575000Y-86100000D01*
G75*
G02*
X125400000Y-86275000I-175000J0D01*
G01*
X125050000Y-86275000D01*
G75*
G02*
X124875000Y-86100000I0J175000D01*
G01*
G37*
G36*
G01*
X122900000Y-106575000D02*
X123400000Y-106575000D01*
G75*
G02*
X123575000Y-106750000I0J-175000D01*
G01*
X123575000Y-107100000D01*
G75*
G02*
X123400000Y-107275000I-175000J0D01*
G01*
X122900000Y-107275000D01*
G75*
G02*
X122725000Y-107100000I0J175000D01*
G01*
X122725000Y-106750000D01*
G75*
G02*
X122900000Y-106575000I175000J0D01*
G01*
G37*
G36*
G01*
X122900000Y-108225000D02*
X123400000Y-108225000D01*
G75*
G02*
X123575000Y-108400000I0J-175000D01*
G01*
X123575000Y-108750000D01*
G75*
G02*
X123400000Y-108925000I-175000J0D01*
G01*
X122900000Y-108925000D01*
G75*
G02*
X122725000Y-108750000I0J175000D01*
G01*
X122725000Y-108400000D01*
G75*
G02*
X122900000Y-108225000I175000J0D01*
G01*
G37*
G36*
G01*
X134800000Y-119225000D02*
X135300000Y-119225000D01*
G75*
G02*
X135475000Y-119400000I0J-175000D01*
G01*
X135475000Y-119750000D01*
G75*
G02*
X135300000Y-119925000I-175000J0D01*
G01*
X134800000Y-119925000D01*
G75*
G02*
X134625000Y-119750000I0J175000D01*
G01*
X134625000Y-119400000D01*
G75*
G02*
X134800000Y-119225000I175000J0D01*
G01*
G37*
G36*
G01*
X134800000Y-117575000D02*
X135300000Y-117575000D01*
G75*
G02*
X135475000Y-117750000I0J-175000D01*
G01*
X135475000Y-118100000D01*
G75*
G02*
X135300000Y-118275000I-175000J0D01*
G01*
X134800000Y-118275000D01*
G75*
G02*
X134625000Y-118100000I0J175000D01*
G01*
X134625000Y-117750000D01*
G75*
G02*
X134800000Y-117575000I175000J0D01*
G01*
G37*
G36*
G01*
X152600000Y-117575000D02*
X153100000Y-117575000D01*
G75*
G02*
X153275000Y-117750000I0J-175000D01*
G01*
X153275000Y-118100000D01*
G75*
G02*
X153100000Y-118275000I-175000J0D01*
G01*
X152600000Y-118275000D01*
G75*
G02*
X152425000Y-118100000I0J175000D01*
G01*
X152425000Y-117750000D01*
G75*
G02*
X152600000Y-117575000I175000J0D01*
G01*
G37*
G36*
G01*
X152600000Y-119225000D02*
X153100000Y-119225000D01*
G75*
G02*
X153275000Y-119400000I0J-175000D01*
G01*
X153275000Y-119750000D01*
G75*
G02*
X153100000Y-119925000I-175000J0D01*
G01*
X152600000Y-119925000D01*
G75*
G02*
X152425000Y-119750000I0J175000D01*
G01*
X152425000Y-119400000D01*
G75*
G02*
X152600000Y-119225000I175000J0D01*
G01*
G37*
G36*
G01*
X168025000Y-83400000D02*
X168025000Y-82900000D01*
G75*
G02*
X168200000Y-82725000I175000J0D01*
G01*
X168550000Y-82725000D01*
G75*
G02*
X168725000Y-82900000I0J-175000D01*
G01*
X168725000Y-83400000D01*
G75*
G02*
X168550000Y-83575000I-175000J0D01*
G01*
X168200000Y-83575000D01*
G75*
G02*
X168025000Y-83400000I0J175000D01*
G01*
G37*
G36*
G01*
X169675000Y-83400000D02*
X169675000Y-82900000D01*
G75*
G02*
X169850000Y-82725000I175000J0D01*
G01*
X170200000Y-82725000D01*
G75*
G02*
X170375000Y-82900000I0J-175000D01*
G01*
X170375000Y-83400000D01*
G75*
G02*
X170200000Y-83575000I-175000J0D01*
G01*
X169850000Y-83575000D01*
G75*
G02*
X169675000Y-83400000I0J175000D01*
G01*
G37*
G36*
G01*
X172925000Y-83400000D02*
X172925000Y-82900000D01*
G75*
G02*
X173100000Y-82725000I175000J0D01*
G01*
X173450000Y-82725000D01*
G75*
G02*
X173625000Y-82900000I0J-175000D01*
G01*
X173625000Y-83400000D01*
G75*
G02*
X173450000Y-83575000I-175000J0D01*
G01*
X173100000Y-83575000D01*
G75*
G02*
X172925000Y-83400000I0J175000D01*
G01*
G37*
G36*
G01*
X171275000Y-83400000D02*
X171275000Y-82900000D01*
G75*
G02*
X171450000Y-82725000I175000J0D01*
G01*
X171800000Y-82725000D01*
G75*
G02*
X171975000Y-82900000I0J-175000D01*
G01*
X171975000Y-83400000D01*
G75*
G02*
X171800000Y-83575000I-175000J0D01*
G01*
X171450000Y-83575000D01*
G75*
G02*
X171275000Y-83400000I0J175000D01*
G01*
G37*
G36*
G01*
X170400000Y-99275000D02*
X169900000Y-99275000D01*
G75*
G02*
X169725000Y-99100000I0J175000D01*
G01*
X169725000Y-98750000D01*
G75*
G02*
X169900000Y-98575000I175000J0D01*
G01*
X170400000Y-98575000D01*
G75*
G02*
X170575000Y-98750000I0J-175000D01*
G01*
X170575000Y-99100000D01*
G75*
G02*
X170400000Y-99275000I-175000J0D01*
G01*
G37*
G36*
G01*
X170400000Y-100925000D02*
X169900000Y-100925000D01*
G75*
G02*
X169725000Y-100750000I0J175000D01*
G01*
X169725000Y-100400000D01*
G75*
G02*
X169900000Y-100225000I175000J0D01*
G01*
X170400000Y-100225000D01*
G75*
G02*
X170575000Y-100400000I0J-175000D01*
G01*
X170575000Y-100750000D01*
G75*
G02*
X170400000Y-100925000I-175000J0D01*
G01*
G37*
G36*
G01*
X162600000Y-81075000D02*
X162100000Y-81075000D01*
G75*
G02*
X161925000Y-80900000I0J175000D01*
G01*
X161925000Y-80550000D01*
G75*
G02*
X162100000Y-80375000I175000J0D01*
G01*
X162600000Y-80375000D01*
G75*
G02*
X162775000Y-80550000I0J-175000D01*
G01*
X162775000Y-80900000D01*
G75*
G02*
X162600000Y-81075000I-175000J0D01*
G01*
G37*
G36*
G01*
X162600000Y-79425000D02*
X162100000Y-79425000D01*
G75*
G02*
X161925000Y-79250000I0J175000D01*
G01*
X161925000Y-78900000D01*
G75*
G02*
X162100000Y-78725000I175000J0D01*
G01*
X162600000Y-78725000D01*
G75*
G02*
X162775000Y-78900000I0J-175000D01*
G01*
X162775000Y-79250000D01*
G75*
G02*
X162600000Y-79425000I-175000J0D01*
G01*
G37*
G36*
G01*
X162600000Y-78025000D02*
X162100000Y-78025000D01*
G75*
G02*
X161925000Y-77850000I0J175000D01*
G01*
X161925000Y-77500000D01*
G75*
G02*
X162100000Y-77325000I175000J0D01*
G01*
X162600000Y-77325000D01*
G75*
G02*
X162775000Y-77500000I0J-175000D01*
G01*
X162775000Y-77850000D01*
G75*
G02*
X162600000Y-78025000I-175000J0D01*
G01*
G37*
G36*
G01*
X162600000Y-76375000D02*
X162100000Y-76375000D01*
G75*
G02*
X161925000Y-76200000I0J175000D01*
G01*
X161925000Y-75850000D01*
G75*
G02*
X162100000Y-75675000I175000J0D01*
G01*
X162600000Y-75675000D01*
G75*
G02*
X162775000Y-75850000I0J-175000D01*
G01*
X162775000Y-76200000D01*
G75*
G02*
X162600000Y-76375000I-175000J0D01*
G01*
G37*
G36*
G01*
X159900000Y-79425000D02*
X159400000Y-79425000D01*
G75*
G02*
X159225000Y-79250000I0J175000D01*
G01*
X159225000Y-78900000D01*
G75*
G02*
X159400000Y-78725000I175000J0D01*
G01*
X159900000Y-78725000D01*
G75*
G02*
X160075000Y-78900000I0J-175000D01*
G01*
X160075000Y-79250000D01*
G75*
G02*
X159900000Y-79425000I-175000J0D01*
G01*
G37*
G36*
G01*
X159900000Y-81075000D02*
X159400000Y-81075000D01*
G75*
G02*
X159225000Y-80900000I0J175000D01*
G01*
X159225000Y-80550000D01*
G75*
G02*
X159400000Y-80375000I175000J0D01*
G01*
X159900000Y-80375000D01*
G75*
G02*
X160075000Y-80550000I0J-175000D01*
G01*
X160075000Y-80900000D01*
G75*
G02*
X159900000Y-81075000I-175000J0D01*
G01*
G37*
G36*
G01*
X159900000Y-78025000D02*
X159400000Y-78025000D01*
G75*
G02*
X159225000Y-77850000I0J175000D01*
G01*
X159225000Y-77500000D01*
G75*
G02*
X159400000Y-77325000I175000J0D01*
G01*
X159900000Y-77325000D01*
G75*
G02*
X160075000Y-77500000I0J-175000D01*
G01*
X160075000Y-77850000D01*
G75*
G02*
X159900000Y-78025000I-175000J0D01*
G01*
G37*
G36*
G01*
X159900000Y-76375000D02*
X159400000Y-76375000D01*
G75*
G02*
X159225000Y-76200000I0J175000D01*
G01*
X159225000Y-75850000D01*
G75*
G02*
X159400000Y-75675000I175000J0D01*
G01*
X159900000Y-75675000D01*
G75*
G02*
X160075000Y-75850000I0J-175000D01*
G01*
X160075000Y-76200000D01*
G75*
G02*
X159900000Y-76375000I-175000J0D01*
G01*
G37*
D19*
X140900000Y-89720000D03*
D20*
X133400000Y-82220000D03*
X133400000Y-83490000D03*
X133400000Y-84760000D03*
X133400000Y-86030000D03*
X133400000Y-87300000D03*
X133400000Y-88570000D03*
X133400000Y-89840000D03*
X133400000Y-91110000D03*
X133400000Y-92380000D03*
X133400000Y-93650000D03*
X133400000Y-94920000D03*
X133400000Y-96190000D03*
X133400000Y-97460000D03*
X133400000Y-98730000D03*
D21*
X136185000Y-99730000D03*
X137455000Y-99730000D03*
X138725000Y-99730000D03*
X139995000Y-99730000D03*
X141265000Y-99730000D03*
X142535000Y-99730000D03*
X143805000Y-99730000D03*
X145075000Y-99730000D03*
X146345000Y-99730000D03*
X147615000Y-99730000D03*
D20*
X150400000Y-98730000D03*
X150400000Y-97460000D03*
X150400000Y-96190000D03*
X150400000Y-94920000D03*
X150400000Y-93650000D03*
X150400000Y-92380000D03*
X150400000Y-91110000D03*
X150400000Y-89840000D03*
X150400000Y-88570000D03*
X150400000Y-87300000D03*
X150400000Y-86030000D03*
X150400000Y-84760000D03*
X150400000Y-83490000D03*
X150400000Y-82220000D03*
G36*
G01*
X159900000Y-82350000D02*
X159900000Y-82200000D01*
G75*
G02*
X159975000Y-82125000I75000J0D01*
G01*
X161200000Y-82125000D01*
G75*
G02*
X161275000Y-82200000I0J-75000D01*
G01*
X161275000Y-82350000D01*
G75*
G02*
X161200000Y-82425000I-75000J0D01*
G01*
X159975000Y-82425000D01*
G75*
G02*
X159900000Y-82350000I0J75000D01*
G01*
G37*
G36*
G01*
X159900000Y-83000000D02*
X159900000Y-82850000D01*
G75*
G02*
X159975000Y-82775000I75000J0D01*
G01*
X161200000Y-82775000D01*
G75*
G02*
X161275000Y-82850000I0J-75000D01*
G01*
X161275000Y-83000000D01*
G75*
G02*
X161200000Y-83075000I-75000J0D01*
G01*
X159975000Y-83075000D01*
G75*
G02*
X159900000Y-83000000I0J75000D01*
G01*
G37*
G36*
G01*
X159900000Y-83650000D02*
X159900000Y-83500000D01*
G75*
G02*
X159975000Y-83425000I75000J0D01*
G01*
X161200000Y-83425000D01*
G75*
G02*
X161275000Y-83500000I0J-75000D01*
G01*
X161275000Y-83650000D01*
G75*
G02*
X161200000Y-83725000I-75000J0D01*
G01*
X159975000Y-83725000D01*
G75*
G02*
X159900000Y-83650000I0J75000D01*
G01*
G37*
G36*
G01*
X159900000Y-84300000D02*
X159900000Y-84150000D01*
G75*
G02*
X159975000Y-84075000I75000J0D01*
G01*
X161200000Y-84075000D01*
G75*
G02*
X161275000Y-84150000I0J-75000D01*
G01*
X161275000Y-84300000D01*
G75*
G02*
X161200000Y-84375000I-75000J0D01*
G01*
X159975000Y-84375000D01*
G75*
G02*
X159900000Y-84300000I0J75000D01*
G01*
G37*
G36*
G01*
X159900000Y-84950000D02*
X159900000Y-84800000D01*
G75*
G02*
X159975000Y-84725000I75000J0D01*
G01*
X161200000Y-84725000D01*
G75*
G02*
X161275000Y-84800000I0J-75000D01*
G01*
X161275000Y-84950000D01*
G75*
G02*
X161200000Y-85025000I-75000J0D01*
G01*
X159975000Y-85025000D01*
G75*
G02*
X159900000Y-84950000I0J75000D01*
G01*
G37*
G36*
G01*
X159900000Y-85600000D02*
X159900000Y-85450000D01*
G75*
G02*
X159975000Y-85375000I75000J0D01*
G01*
X161200000Y-85375000D01*
G75*
G02*
X161275000Y-85450000I0J-75000D01*
G01*
X161275000Y-85600000D01*
G75*
G02*
X161200000Y-85675000I-75000J0D01*
G01*
X159975000Y-85675000D01*
G75*
G02*
X159900000Y-85600000I0J75000D01*
G01*
G37*
G36*
G01*
X159900000Y-86250000D02*
X159900000Y-86100000D01*
G75*
G02*
X159975000Y-86025000I75000J0D01*
G01*
X161200000Y-86025000D01*
G75*
G02*
X161275000Y-86100000I0J-75000D01*
G01*
X161275000Y-86250000D01*
G75*
G02*
X161200000Y-86325000I-75000J0D01*
G01*
X159975000Y-86325000D01*
G75*
G02*
X159900000Y-86250000I0J75000D01*
G01*
G37*
G36*
G01*
X159900000Y-86900000D02*
X159900000Y-86750000D01*
G75*
G02*
X159975000Y-86675000I75000J0D01*
G01*
X161200000Y-86675000D01*
G75*
G02*
X161275000Y-86750000I0J-75000D01*
G01*
X161275000Y-86900000D01*
G75*
G02*
X161200000Y-86975000I-75000J0D01*
G01*
X159975000Y-86975000D01*
G75*
G02*
X159900000Y-86900000I0J75000D01*
G01*
G37*
G36*
G01*
X165625000Y-86900000D02*
X165625000Y-86750000D01*
G75*
G02*
X165700000Y-86675000I75000J0D01*
G01*
X166925000Y-86675000D01*
G75*
G02*
X167000000Y-86750000I0J-75000D01*
G01*
X167000000Y-86900000D01*
G75*
G02*
X166925000Y-86975000I-75000J0D01*
G01*
X165700000Y-86975000D01*
G75*
G02*
X165625000Y-86900000I0J75000D01*
G01*
G37*
G36*
G01*
X165625000Y-86250000D02*
X165625000Y-86100000D01*
G75*
G02*
X165700000Y-86025000I75000J0D01*
G01*
X166925000Y-86025000D01*
G75*
G02*
X167000000Y-86100000I0J-75000D01*
G01*
X167000000Y-86250000D01*
G75*
G02*
X166925000Y-86325000I-75000J0D01*
G01*
X165700000Y-86325000D01*
G75*
G02*
X165625000Y-86250000I0J75000D01*
G01*
G37*
G36*
G01*
X165625000Y-85600000D02*
X165625000Y-85450000D01*
G75*
G02*
X165700000Y-85375000I75000J0D01*
G01*
X166925000Y-85375000D01*
G75*
G02*
X167000000Y-85450000I0J-75000D01*
G01*
X167000000Y-85600000D01*
G75*
G02*
X166925000Y-85675000I-75000J0D01*
G01*
X165700000Y-85675000D01*
G75*
G02*
X165625000Y-85600000I0J75000D01*
G01*
G37*
G36*
G01*
X165625000Y-84950000D02*
X165625000Y-84800000D01*
G75*
G02*
X165700000Y-84725000I75000J0D01*
G01*
X166925000Y-84725000D01*
G75*
G02*
X167000000Y-84800000I0J-75000D01*
G01*
X167000000Y-84950000D01*
G75*
G02*
X166925000Y-85025000I-75000J0D01*
G01*
X165700000Y-85025000D01*
G75*
G02*
X165625000Y-84950000I0J75000D01*
G01*
G37*
G36*
G01*
X165625000Y-84300000D02*
X165625000Y-84150000D01*
G75*
G02*
X165700000Y-84075000I75000J0D01*
G01*
X166925000Y-84075000D01*
G75*
G02*
X167000000Y-84150000I0J-75000D01*
G01*
X167000000Y-84300000D01*
G75*
G02*
X166925000Y-84375000I-75000J0D01*
G01*
X165700000Y-84375000D01*
G75*
G02*
X165625000Y-84300000I0J75000D01*
G01*
G37*
G36*
G01*
X165625000Y-83650000D02*
X165625000Y-83500000D01*
G75*
G02*
X165700000Y-83425000I75000J0D01*
G01*
X166925000Y-83425000D01*
G75*
G02*
X167000000Y-83500000I0J-75000D01*
G01*
X167000000Y-83650000D01*
G75*
G02*
X166925000Y-83725000I-75000J0D01*
G01*
X165700000Y-83725000D01*
G75*
G02*
X165625000Y-83650000I0J75000D01*
G01*
G37*
G36*
G01*
X165625000Y-83000000D02*
X165625000Y-82850000D01*
G75*
G02*
X165700000Y-82775000I75000J0D01*
G01*
X166925000Y-82775000D01*
G75*
G02*
X167000000Y-82850000I0J-75000D01*
G01*
X167000000Y-83000000D01*
G75*
G02*
X166925000Y-83075000I-75000J0D01*
G01*
X165700000Y-83075000D01*
G75*
G02*
X165625000Y-83000000I0J75000D01*
G01*
G37*
G36*
G01*
X165625000Y-82350000D02*
X165625000Y-82200000D01*
G75*
G02*
X165700000Y-82125000I75000J0D01*
G01*
X166925000Y-82125000D01*
G75*
G02*
X167000000Y-82200000I0J-75000D01*
G01*
X167000000Y-82350000D01*
G75*
G02*
X166925000Y-82425000I-75000J0D01*
G01*
X165700000Y-82425000D01*
G75*
G02*
X165625000Y-82350000I0J75000D01*
G01*
G37*
G36*
G01*
X130000000Y-92170000D02*
X130000000Y-91920000D01*
G75*
G02*
X130125000Y-91795000I125000J0D01*
G01*
X131425000Y-91795000D01*
G75*
G02*
X131550000Y-91920000I0J-125000D01*
G01*
X131550000Y-92170000D01*
G75*
G02*
X131425000Y-92295000I-125000J0D01*
G01*
X130125000Y-92295000D01*
G75*
G02*
X130000000Y-92170000I0J125000D01*
G01*
G37*
G36*
G01*
X130000000Y-93440000D02*
X130000000Y-93190000D01*
G75*
G02*
X130125000Y-93065000I125000J0D01*
G01*
X131425000Y-93065000D01*
G75*
G02*
X131550000Y-93190000I0J-125000D01*
G01*
X131550000Y-93440000D01*
G75*
G02*
X131425000Y-93565000I-125000J0D01*
G01*
X130125000Y-93565000D01*
G75*
G02*
X130000000Y-93440000I0J125000D01*
G01*
G37*
G36*
G01*
X130000000Y-94710000D02*
X130000000Y-94460000D01*
G75*
G02*
X130125000Y-94335000I125000J0D01*
G01*
X131425000Y-94335000D01*
G75*
G02*
X131550000Y-94460000I0J-125000D01*
G01*
X131550000Y-94710000D01*
G75*
G02*
X131425000Y-94835000I-125000J0D01*
G01*
X130125000Y-94835000D01*
G75*
G02*
X130000000Y-94710000I0J125000D01*
G01*
G37*
G36*
G01*
X130000000Y-95980000D02*
X130000000Y-95730000D01*
G75*
G02*
X130125000Y-95605000I125000J0D01*
G01*
X131425000Y-95605000D01*
G75*
G02*
X131550000Y-95730000I0J-125000D01*
G01*
X131550000Y-95980000D01*
G75*
G02*
X131425000Y-96105000I-125000J0D01*
G01*
X130125000Y-96105000D01*
G75*
G02*
X130000000Y-95980000I0J125000D01*
G01*
G37*
G36*
G01*
X124750000Y-95980000D02*
X124750000Y-95730000D01*
G75*
G02*
X124875000Y-95605000I125000J0D01*
G01*
X126175000Y-95605000D01*
G75*
G02*
X126300000Y-95730000I0J-125000D01*
G01*
X126300000Y-95980000D01*
G75*
G02*
X126175000Y-96105000I-125000J0D01*
G01*
X124875000Y-96105000D01*
G75*
G02*
X124750000Y-95980000I0J125000D01*
G01*
G37*
G36*
G01*
X124750000Y-94710000D02*
X124750000Y-94460000D01*
G75*
G02*
X124875000Y-94335000I125000J0D01*
G01*
X126175000Y-94335000D01*
G75*
G02*
X126300000Y-94460000I0J-125000D01*
G01*
X126300000Y-94710000D01*
G75*
G02*
X126175000Y-94835000I-125000J0D01*
G01*
X124875000Y-94835000D01*
G75*
G02*
X124750000Y-94710000I0J125000D01*
G01*
G37*
G36*
G01*
X124750000Y-93440000D02*
X124750000Y-93190000D01*
G75*
G02*
X124875000Y-93065000I125000J0D01*
G01*
X126175000Y-93065000D01*
G75*
G02*
X126300000Y-93190000I0J-125000D01*
G01*
X126300000Y-93440000D01*
G75*
G02*
X126175000Y-93565000I-125000J0D01*
G01*
X124875000Y-93565000D01*
G75*
G02*
X124750000Y-93440000I0J125000D01*
G01*
G37*
G36*
G01*
X124750000Y-92170000D02*
X124750000Y-91920000D01*
G75*
G02*
X124875000Y-91795000I125000J0D01*
G01*
X126175000Y-91795000D01*
G75*
G02*
X126300000Y-91920000I0J-125000D01*
G01*
X126300000Y-92170000D01*
G75*
G02*
X126175000Y-92295000I-125000J0D01*
G01*
X124875000Y-92295000D01*
G75*
G02*
X124750000Y-92170000I0J125000D01*
G01*
G37*
G36*
G01*
X167830000Y-88350000D02*
X168080000Y-88350000D01*
G75*
G02*
X168205000Y-88475000I0J-125000D01*
G01*
X168205000Y-90075000D01*
G75*
G02*
X168080000Y-90200000I-125000J0D01*
G01*
X167830000Y-90200000D01*
G75*
G02*
X167705000Y-90075000I0J125000D01*
G01*
X167705000Y-88475000D01*
G75*
G02*
X167830000Y-88350000I125000J0D01*
G01*
G37*
G36*
G01*
X166560000Y-88350000D02*
X166810000Y-88350000D01*
G75*
G02*
X166935000Y-88475000I0J-125000D01*
G01*
X166935000Y-90075000D01*
G75*
G02*
X166810000Y-90200000I-125000J0D01*
G01*
X166560000Y-90200000D01*
G75*
G02*
X166435000Y-90075000I0J125000D01*
G01*
X166435000Y-88475000D01*
G75*
G02*
X166560000Y-88350000I125000J0D01*
G01*
G37*
G36*
G01*
X165290000Y-88350000D02*
X165540000Y-88350000D01*
G75*
G02*
X165665000Y-88475000I0J-125000D01*
G01*
X165665000Y-90075000D01*
G75*
G02*
X165540000Y-90200000I-125000J0D01*
G01*
X165290000Y-90200000D01*
G75*
G02*
X165165000Y-90075000I0J125000D01*
G01*
X165165000Y-88475000D01*
G75*
G02*
X165290000Y-88350000I125000J0D01*
G01*
G37*
G36*
G01*
X164020000Y-88350000D02*
X164270000Y-88350000D01*
G75*
G02*
X164395000Y-88475000I0J-125000D01*
G01*
X164395000Y-90075000D01*
G75*
G02*
X164270000Y-90200000I-125000J0D01*
G01*
X164020000Y-90200000D01*
G75*
G02*
X163895000Y-90075000I0J125000D01*
G01*
X163895000Y-88475000D01*
G75*
G02*
X164020000Y-88350000I125000J0D01*
G01*
G37*
G36*
G01*
X164020000Y-93300000D02*
X164270000Y-93300000D01*
G75*
G02*
X164395000Y-93425000I0J-125000D01*
G01*
X164395000Y-95025000D01*
G75*
G02*
X164270000Y-95150000I-125000J0D01*
G01*
X164020000Y-95150000D01*
G75*
G02*
X163895000Y-95025000I0J125000D01*
G01*
X163895000Y-93425000D01*
G75*
G02*
X164020000Y-93300000I125000J0D01*
G01*
G37*
G36*
G01*
X165290000Y-93300000D02*
X165540000Y-93300000D01*
G75*
G02*
X165665000Y-93425000I0J-125000D01*
G01*
X165665000Y-95025000D01*
G75*
G02*
X165540000Y-95150000I-125000J0D01*
G01*
X165290000Y-95150000D01*
G75*
G02*
X165165000Y-95025000I0J125000D01*
G01*
X165165000Y-93425000D01*
G75*
G02*
X165290000Y-93300000I125000J0D01*
G01*
G37*
G36*
G01*
X166560000Y-93300000D02*
X166810000Y-93300000D01*
G75*
G02*
X166935000Y-93425000I0J-125000D01*
G01*
X166935000Y-95025000D01*
G75*
G02*
X166810000Y-95150000I-125000J0D01*
G01*
X166560000Y-95150000D01*
G75*
G02*
X166435000Y-95025000I0J125000D01*
G01*
X166435000Y-93425000D01*
G75*
G02*
X166560000Y-93300000I125000J0D01*
G01*
G37*
G36*
G01*
X167830000Y-93300000D02*
X168080000Y-93300000D01*
G75*
G02*
X168205000Y-93425000I0J-125000D01*
G01*
X168205000Y-95025000D01*
G75*
G02*
X168080000Y-95150000I-125000J0D01*
G01*
X167830000Y-95150000D01*
G75*
G02*
X167705000Y-95025000I0J125000D01*
G01*
X167705000Y-93425000D01*
G75*
G02*
X167830000Y-93300000I125000J0D01*
G01*
G37*
G36*
G01*
X122120000Y-105800000D02*
X121870000Y-105800000D01*
G75*
G02*
X121745000Y-105675000I0J125000D01*
G01*
X121745000Y-104375000D01*
G75*
G02*
X121870000Y-104250000I125000J0D01*
G01*
X122120000Y-104250000D01*
G75*
G02*
X122245000Y-104375000I0J-125000D01*
G01*
X122245000Y-105675000D01*
G75*
G02*
X122120000Y-105800000I-125000J0D01*
G01*
G37*
G36*
G01*
X123390000Y-105800000D02*
X123140000Y-105800000D01*
G75*
G02*
X123015000Y-105675000I0J125000D01*
G01*
X123015000Y-104375000D01*
G75*
G02*
X123140000Y-104250000I125000J0D01*
G01*
X123390000Y-104250000D01*
G75*
G02*
X123515000Y-104375000I0J-125000D01*
G01*
X123515000Y-105675000D01*
G75*
G02*
X123390000Y-105800000I-125000J0D01*
G01*
G37*
G36*
G01*
X124660000Y-105800000D02*
X124410000Y-105800000D01*
G75*
G02*
X124285000Y-105675000I0J125000D01*
G01*
X124285000Y-104375000D01*
G75*
G02*
X124410000Y-104250000I125000J0D01*
G01*
X124660000Y-104250000D01*
G75*
G02*
X124785000Y-104375000I0J-125000D01*
G01*
X124785000Y-105675000D01*
G75*
G02*
X124660000Y-105800000I-125000J0D01*
G01*
G37*
G36*
G01*
X125930000Y-105800000D02*
X125680000Y-105800000D01*
G75*
G02*
X125555000Y-105675000I0J125000D01*
G01*
X125555000Y-104375000D01*
G75*
G02*
X125680000Y-104250000I125000J0D01*
G01*
X125930000Y-104250000D01*
G75*
G02*
X126055000Y-104375000I0J-125000D01*
G01*
X126055000Y-105675000D01*
G75*
G02*
X125930000Y-105800000I-125000J0D01*
G01*
G37*
G36*
G01*
X125930000Y-100550000D02*
X125680000Y-100550000D01*
G75*
G02*
X125555000Y-100425000I0J125000D01*
G01*
X125555000Y-99125000D01*
G75*
G02*
X125680000Y-99000000I125000J0D01*
G01*
X125930000Y-99000000D01*
G75*
G02*
X126055000Y-99125000I0J-125000D01*
G01*
X126055000Y-100425000D01*
G75*
G02*
X125930000Y-100550000I-125000J0D01*
G01*
G37*
G36*
G01*
X124660000Y-100550000D02*
X124410000Y-100550000D01*
G75*
G02*
X124285000Y-100425000I0J125000D01*
G01*
X124285000Y-99125000D01*
G75*
G02*
X124410000Y-99000000I125000J0D01*
G01*
X124660000Y-99000000D01*
G75*
G02*
X124785000Y-99125000I0J-125000D01*
G01*
X124785000Y-100425000D01*
G75*
G02*
X124660000Y-100550000I-125000J0D01*
G01*
G37*
G36*
G01*
X123390000Y-100550000D02*
X123140000Y-100550000D01*
G75*
G02*
X123015000Y-100425000I0J125000D01*
G01*
X123015000Y-99125000D01*
G75*
G02*
X123140000Y-99000000I125000J0D01*
G01*
X123390000Y-99000000D01*
G75*
G02*
X123515000Y-99125000I0J-125000D01*
G01*
X123515000Y-100425000D01*
G75*
G02*
X123390000Y-100550000I-125000J0D01*
G01*
G37*
G36*
G01*
X122120000Y-100550000D02*
X121870000Y-100550000D01*
G75*
G02*
X121745000Y-100425000I0J125000D01*
G01*
X121745000Y-99125000D01*
G75*
G02*
X121870000Y-99000000I125000J0D01*
G01*
X122120000Y-99000000D01*
G75*
G02*
X122245000Y-99125000I0J-125000D01*
G01*
X122245000Y-100425000D01*
G75*
G02*
X122120000Y-100550000I-125000J0D01*
G01*
G37*
D22*
X127050000Y-89900000D03*
X127050000Y-88000000D03*
X125050000Y-88950000D03*
D23*
X139000000Y-117550000D03*
X137100000Y-117550000D03*
X138050000Y-119550000D03*
D22*
X132150000Y-105400000D03*
X134150000Y-104450000D03*
X134150000Y-106350000D03*
D23*
X155850000Y-119550000D03*
X154900000Y-117550000D03*
X156800000Y-117550000D03*
D22*
X174100000Y-100500000D03*
X174100000Y-98600000D03*
X172100000Y-99550000D03*
D23*
X171850000Y-126550000D03*
X173750000Y-126550000D03*
X172800000Y-124550000D03*
G36*
G01*
X129575000Y-89900000D02*
X129575000Y-90400000D01*
G75*
G02*
X129400000Y-90575000I-175000J0D01*
G01*
X129050000Y-90575000D01*
G75*
G02*
X128875000Y-90400000I0J175000D01*
G01*
X128875000Y-89900000D01*
G75*
G02*
X129050000Y-89725000I175000J0D01*
G01*
X129400000Y-89725000D01*
G75*
G02*
X129575000Y-89900000I0J-175000D01*
G01*
G37*
G36*
G01*
X131225000Y-89900000D02*
X131225000Y-90400000D01*
G75*
G02*
X131050000Y-90575000I-175000J0D01*
G01*
X130700000Y-90575000D01*
G75*
G02*
X130525000Y-90400000I0J175000D01*
G01*
X130525000Y-89900000D01*
G75*
G02*
X130700000Y-89725000I175000J0D01*
G01*
X131050000Y-89725000D01*
G75*
G02*
X131225000Y-89900000I0J-175000D01*
G01*
G37*
G36*
G01*
X133000000Y-119225000D02*
X133500000Y-119225000D01*
G75*
G02*
X133675000Y-119400000I0J-175000D01*
G01*
X133675000Y-119750000D01*
G75*
G02*
X133500000Y-119925000I-175000J0D01*
G01*
X133000000Y-119925000D01*
G75*
G02*
X132825000Y-119750000I0J175000D01*
G01*
X132825000Y-119400000D01*
G75*
G02*
X133000000Y-119225000I175000J0D01*
G01*
G37*
G36*
G01*
X133000000Y-117575000D02*
X133500000Y-117575000D01*
G75*
G02*
X133675000Y-117750000I0J-175000D01*
G01*
X133675000Y-118100000D01*
G75*
G02*
X133500000Y-118275000I-175000J0D01*
G01*
X133000000Y-118275000D01*
G75*
G02*
X132825000Y-118100000I0J175000D01*
G01*
X132825000Y-117750000D01*
G75*
G02*
X133000000Y-117575000I175000J0D01*
G01*
G37*
G36*
G01*
X135650000Y-103975000D02*
X136150000Y-103975000D01*
G75*
G02*
X136325000Y-104150000I0J-175000D01*
G01*
X136325000Y-104500000D01*
G75*
G02*
X136150000Y-104675000I-175000J0D01*
G01*
X135650000Y-104675000D01*
G75*
G02*
X135475000Y-104500000I0J175000D01*
G01*
X135475000Y-104150000D01*
G75*
G02*
X135650000Y-103975000I175000J0D01*
G01*
G37*
G36*
G01*
X135650000Y-105625000D02*
X136150000Y-105625000D01*
G75*
G02*
X136325000Y-105800000I0J-175000D01*
G01*
X136325000Y-106150000D01*
G75*
G02*
X136150000Y-106325000I-175000J0D01*
G01*
X135650000Y-106325000D01*
G75*
G02*
X135475000Y-106150000I0J175000D01*
G01*
X135475000Y-105800000D01*
G75*
G02*
X135650000Y-105625000I175000J0D01*
G01*
G37*
G36*
G01*
X150800000Y-117575000D02*
X151300000Y-117575000D01*
G75*
G02*
X151475000Y-117750000I0J-175000D01*
G01*
X151475000Y-118100000D01*
G75*
G02*
X151300000Y-118275000I-175000J0D01*
G01*
X150800000Y-118275000D01*
G75*
G02*
X150625000Y-118100000I0J175000D01*
G01*
X150625000Y-117750000D01*
G75*
G02*
X150800000Y-117575000I175000J0D01*
G01*
G37*
G36*
G01*
X150800000Y-119225000D02*
X151300000Y-119225000D01*
G75*
G02*
X151475000Y-119400000I0J-175000D01*
G01*
X151475000Y-119750000D01*
G75*
G02*
X151300000Y-119925000I-175000J0D01*
G01*
X150800000Y-119925000D01*
G75*
G02*
X150625000Y-119750000I0J175000D01*
G01*
X150625000Y-119400000D01*
G75*
G02*
X150800000Y-119225000I175000J0D01*
G01*
G37*
G36*
G01*
X168000000Y-98575000D02*
X168500000Y-98575000D01*
G75*
G02*
X168675000Y-98750000I0J-175000D01*
G01*
X168675000Y-99100000D01*
G75*
G02*
X168500000Y-99275000I-175000J0D01*
G01*
X168000000Y-99275000D01*
G75*
G02*
X167825000Y-99100000I0J175000D01*
G01*
X167825000Y-98750000D01*
G75*
G02*
X168000000Y-98575000I175000J0D01*
G01*
G37*
G36*
G01*
X168000000Y-100225000D02*
X168500000Y-100225000D01*
G75*
G02*
X168675000Y-100400000I0J-175000D01*
G01*
X168675000Y-100750000D01*
G75*
G02*
X168500000Y-100925000I-175000J0D01*
G01*
X168000000Y-100925000D01*
G75*
G02*
X167825000Y-100750000I0J175000D01*
G01*
X167825000Y-100400000D01*
G75*
G02*
X168000000Y-100225000I175000J0D01*
G01*
G37*
G36*
G01*
X115500000Y-81550000D02*
X116400000Y-81550000D01*
G75*
G02*
X116625000Y-81775000I0J-225000D01*
G01*
X116625000Y-82225000D01*
G75*
G02*
X116400000Y-82450000I-225000J0D01*
G01*
X115500000Y-82450000D01*
G75*
G02*
X115275000Y-82225000I0J225000D01*
G01*
X115275000Y-81775000D01*
G75*
G02*
X115500000Y-81550000I225000J0D01*
G01*
G37*
G36*
G01*
X115500000Y-79650000D02*
X116400000Y-79650000D01*
G75*
G02*
X116625000Y-79875000I0J-225000D01*
G01*
X116625000Y-80325000D01*
G75*
G02*
X116400000Y-80550000I-225000J0D01*
G01*
X115500000Y-80550000D01*
G75*
G02*
X115275000Y-80325000I0J225000D01*
G01*
X115275000Y-79875000D01*
G75*
G02*
X115500000Y-79650000I225000J0D01*
G01*
G37*
G36*
G01*
X123125000Y-78375000D02*
X123575000Y-78375000D01*
G75*
G02*
X123775000Y-78575000I0J-200000D01*
G01*
X123775000Y-78975000D01*
G75*
G02*
X123575000Y-79175000I-200000J0D01*
G01*
X123125000Y-79175000D01*
G75*
G02*
X122925000Y-78975000I0J200000D01*
G01*
X122925000Y-78575000D01*
G75*
G02*
X123125000Y-78375000I200000J0D01*
G01*
G37*
G36*
G01*
X123125000Y-76825000D02*
X123575000Y-76825000D01*
G75*
G02*
X123775000Y-77025000I0J-200000D01*
G01*
X123775000Y-77425000D01*
G75*
G02*
X123575000Y-77625000I-200000J0D01*
G01*
X123125000Y-77625000D01*
G75*
G02*
X122925000Y-77425000I0J200000D01*
G01*
X122925000Y-77025000D01*
G75*
G02*
X123125000Y-76825000I200000J0D01*
G01*
G37*
G36*
G01*
X120675000Y-79375000D02*
X120675000Y-79825000D01*
G75*
G02*
X120475000Y-80025000I-200000J0D01*
G01*
X120075000Y-80025000D01*
G75*
G02*
X119875000Y-79825000I0J200000D01*
G01*
X119875000Y-79375000D01*
G75*
G02*
X120075000Y-79175000I200000J0D01*
G01*
X120475000Y-79175000D01*
G75*
G02*
X120675000Y-79375000I0J-200000D01*
G01*
G37*
G36*
G01*
X119125000Y-79375000D02*
X119125000Y-79825000D01*
G75*
G02*
X118925000Y-80025000I-200000J0D01*
G01*
X118525000Y-80025000D01*
G75*
G02*
X118325000Y-79825000I0J200000D01*
G01*
X118325000Y-79375000D01*
G75*
G02*
X118525000Y-79175000I200000J0D01*
G01*
X118925000Y-79175000D01*
G75*
G02*
X119125000Y-79375000I0J-200000D01*
G01*
G37*
G36*
G01*
X127100000Y-81650000D02*
X126200000Y-81650000D01*
G75*
G02*
X125975000Y-81425000I0J225000D01*
G01*
X125975000Y-80975000D01*
G75*
G02*
X126200000Y-80750000I225000J0D01*
G01*
X127100000Y-80750000D01*
G75*
G02*
X127325000Y-80975000I0J-225000D01*
G01*
X127325000Y-81425000D01*
G75*
G02*
X127100000Y-81650000I-225000J0D01*
G01*
G37*
G36*
G01*
X127100000Y-79750000D02*
X126200000Y-79750000D01*
G75*
G02*
X125975000Y-79525000I0J225000D01*
G01*
X125975000Y-79075000D01*
G75*
G02*
X126200000Y-78850000I225000J0D01*
G01*
X127100000Y-78850000D01*
G75*
G02*
X127325000Y-79075000I0J-225000D01*
G01*
X127325000Y-79525000D01*
G75*
G02*
X127100000Y-79750000I-225000J0D01*
G01*
G37*
G36*
G01*
X129100000Y-82650000D02*
X128200000Y-82650000D01*
G75*
G02*
X127975000Y-82425000I0J225000D01*
G01*
X127975000Y-81975000D01*
G75*
G02*
X128200000Y-81750000I225000J0D01*
G01*
X129100000Y-81750000D01*
G75*
G02*
X129325000Y-81975000I0J-225000D01*
G01*
X129325000Y-82425000D01*
G75*
G02*
X129100000Y-82650000I-225000J0D01*
G01*
G37*
G36*
G01*
X129100000Y-80750000D02*
X128200000Y-80750000D01*
G75*
G02*
X127975000Y-80525000I0J225000D01*
G01*
X127975000Y-80075000D01*
G75*
G02*
X128200000Y-79850000I225000J0D01*
G01*
X129100000Y-79850000D01*
G75*
G02*
X129325000Y-80075000I0J-225000D01*
G01*
X129325000Y-80525000D01*
G75*
G02*
X129100000Y-80750000I-225000J0D01*
G01*
G37*
D24*
X122600000Y-81500000D03*
X124800000Y-81500000D03*
G36*
G01*
X124600000Y-76825000D02*
X125100000Y-76825000D01*
G75*
G02*
X125275000Y-77000000I0J-175000D01*
G01*
X125275000Y-77350000D01*
G75*
G02*
X125100000Y-77525000I-175000J0D01*
G01*
X124600000Y-77525000D01*
G75*
G02*
X124425000Y-77350000I0J175000D01*
G01*
X124425000Y-77000000D01*
G75*
G02*
X124600000Y-76825000I175000J0D01*
G01*
G37*
G36*
G01*
X124600000Y-78475000D02*
X125100000Y-78475000D01*
G75*
G02*
X125275000Y-78650000I0J-175000D01*
G01*
X125275000Y-79000000D01*
G75*
G02*
X125100000Y-79175000I-175000J0D01*
G01*
X124600000Y-79175000D01*
G75*
G02*
X124425000Y-79000000I0J175000D01*
G01*
X124425000Y-78650000D01*
G75*
G02*
X124600000Y-78475000I175000J0D01*
G01*
G37*
G36*
G01*
X121600000Y-78475000D02*
X122100000Y-78475000D01*
G75*
G02*
X122275000Y-78650000I0J-175000D01*
G01*
X122275000Y-79000000D01*
G75*
G02*
X122100000Y-79175000I-175000J0D01*
G01*
X121600000Y-79175000D01*
G75*
G02*
X121425000Y-79000000I0J175000D01*
G01*
X121425000Y-78650000D01*
G75*
G02*
X121600000Y-78475000I175000J0D01*
G01*
G37*
G36*
G01*
X121600000Y-76825000D02*
X122100000Y-76825000D01*
G75*
G02*
X122275000Y-77000000I0J-175000D01*
G01*
X122275000Y-77350000D01*
G75*
G02*
X122100000Y-77525000I-175000J0D01*
G01*
X121600000Y-77525000D01*
G75*
G02*
X121425000Y-77350000I0J175000D01*
G01*
X121425000Y-77000000D01*
G75*
G02*
X121600000Y-76825000I175000J0D01*
G01*
G37*
D25*
X120090000Y-78000000D03*
X120090000Y-77050000D03*
X120090000Y-76100000D03*
X117890000Y-76100000D03*
X117890000Y-78000000D03*
X117890000Y-77050000D03*
D26*
X121000000Y-81750000D03*
X117700000Y-81750000D03*
X169800000Y-85650000D03*
X173100000Y-85650000D03*
D27*
X141740000Y-116220000D03*
X141740000Y-119520000D03*
X159610000Y-116300000D03*
X159610000Y-119600000D03*
D26*
X158120000Y-103700000D03*
X161420000Y-103700000D03*
G36*
G01*
X173800000Y-119600000D02*
X175000000Y-119600000D01*
G75*
G02*
X175125000Y-119725000I0J-125000D01*
G01*
X175125000Y-119975000D01*
G75*
G02*
X175000000Y-120100000I-125000J0D01*
G01*
X173800000Y-120100000D01*
G75*
G02*
X173675000Y-119975000I0J125000D01*
G01*
X173675000Y-119725000D01*
G75*
G02*
X173800000Y-119600000I125000J0D01*
G01*
G37*
G36*
G01*
X173800000Y-120600000D02*
X175000000Y-120600000D01*
G75*
G02*
X175125000Y-120725000I0J-125000D01*
G01*
X175125000Y-120975000D01*
G75*
G02*
X175000000Y-121100000I-125000J0D01*
G01*
X173800000Y-121100000D01*
G75*
G02*
X173675000Y-120975000I0J125000D01*
G01*
X173675000Y-120725000D01*
G75*
G02*
X173800000Y-120600000I125000J0D01*
G01*
G37*
G36*
G01*
X173800000Y-121600000D02*
X175000000Y-121600000D01*
G75*
G02*
X175125000Y-121725000I0J-125000D01*
G01*
X175125000Y-121975000D01*
G75*
G02*
X175000000Y-122100000I-125000J0D01*
G01*
X173800000Y-122100000D01*
G75*
G02*
X173675000Y-121975000I0J125000D01*
G01*
X173675000Y-121725000D01*
G75*
G02*
X173800000Y-121600000I125000J0D01*
G01*
G37*
G36*
G01*
X169904165Y-118000000D02*
X171145835Y-118000000D01*
G75*
G02*
X171375000Y-118229165I0J-229165D01*
G01*
X171375000Y-118870835D01*
G75*
G02*
X171145835Y-119100000I-229165J0D01*
G01*
X169904165Y-119100000D01*
G75*
G02*
X169675000Y-118870835I0J229165D01*
G01*
X169675000Y-118229165D01*
G75*
G02*
X169904165Y-118000000I229165J0D01*
G01*
G37*
G36*
G01*
X169904165Y-122600000D02*
X171145835Y-122600000D01*
G75*
G02*
X171375000Y-122829165I0J-229165D01*
G01*
X171375000Y-123470835D01*
G75*
G02*
X171145835Y-123700000I-229165J0D01*
G01*
X169904165Y-123700000D01*
G75*
G02*
X169675000Y-123470835I0J229165D01*
G01*
X169675000Y-122829165D01*
G75*
G02*
X169904165Y-122600000I229165J0D01*
G01*
G37*
M02*
