G04 #@! TF.GenerationSoftware,KiCad,Pcbnew,(5.1.10-1-10_14)*
G04 #@! TF.CreationDate,2021-09-03T21:49:34+10:00*
G04 #@! TF.ProjectId,esp32_battery_isolator,65737033-325f-4626-9174-746572795f69,F*
G04 #@! TF.SameCoordinates,Original*
G04 #@! TF.FileFunction,Copper,L3,Inr*
G04 #@! TF.FilePolarity,Positive*
%FSLAX46Y46*%
G04 Gerber Fmt 4.6, Leading zero omitted, Abs format (unit mm)*
G04 Created by KiCad (PCBNEW (5.1.10-1-10_14)) date 2021-09-03 21:49:34*
%MOMM*%
%LPD*%
G01*
G04 APERTURE LIST*
G04 #@! TA.AperFunction,ComponentPad*
%ADD10C,3.716000*%
G04 #@! TD*
G04 #@! TA.AperFunction,ComponentPad*
%ADD11O,2.600000X1.300000*%
G04 #@! TD*
G04 #@! TA.AperFunction,ComponentPad*
%ADD12O,1.300000X2.600000*%
G04 #@! TD*
G04 #@! TA.AperFunction,ComponentPad*
%ADD13O,1.200000X2.400000*%
G04 #@! TD*
G04 #@! TA.AperFunction,ComponentPad*
%ADD14R,3.716000X3.716000*%
G04 #@! TD*
G04 #@! TA.AperFunction,ComponentPad*
%ADD15O,1.900000X1.070000*%
G04 #@! TD*
G04 #@! TA.AperFunction,ComponentPad*
%ADD16C,1.300000*%
G04 #@! TD*
G04 #@! TA.AperFunction,ComponentPad*
%ADD17C,0.800000*%
G04 #@! TD*
G04 #@! TA.AperFunction,ComponentPad*
%ADD18C,6.400000*%
G04 #@! TD*
G04 #@! TA.AperFunction,ComponentPad*
%ADD19R,1.700000X1.700000*%
G04 #@! TD*
G04 #@! TA.AperFunction,ComponentPad*
%ADD20O,1.700000X1.700000*%
G04 #@! TD*
G04 #@! TA.AperFunction,ComponentPad*
%ADD21O,2.400000X1.200000*%
G04 #@! TD*
G04 #@! TA.AperFunction,ViaPad*
%ADD22C,1.000000*%
G04 #@! TD*
G04 #@! TA.AperFunction,ViaPad*
%ADD23C,0.800000*%
G04 #@! TD*
G04 #@! TA.AperFunction,Conductor*
%ADD24C,1.000000*%
G04 #@! TD*
G04 #@! TA.AperFunction,Conductor*
%ADD25C,0.167000*%
G04 #@! TD*
G04 #@! TA.AperFunction,Conductor*
%ADD26C,0.200000*%
G04 #@! TD*
G04 #@! TA.AperFunction,Conductor*
%ADD27C,0.254000*%
G04 #@! TD*
G04 #@! TA.AperFunction,Conductor*
%ADD28C,0.100000*%
G04 #@! TD*
G04 APERTURE END LIST*
D10*
X167250000Y-113150000D03*
X167250000Y-105950000D03*
D11*
X173250000Y-116300000D03*
X173250000Y-102800000D03*
D12*
X166420000Y-129120000D03*
X152920000Y-129120000D03*
D10*
X163270000Y-123120000D03*
X156070000Y-123120000D03*
D13*
X116900000Y-129160000D03*
X130400000Y-129160000D03*
D10*
X120050000Y-123160000D03*
D14*
X127250000Y-123160000D03*
D15*
X174050000Y-88750000D03*
X173950000Y-95950000D03*
D16*
X171050000Y-89950000D03*
X171050000Y-94750000D03*
D17*
X112847056Y-129152944D03*
X111150000Y-128450000D03*
X109452944Y-129152944D03*
X108750000Y-130850000D03*
X109452944Y-132547056D03*
X111150000Y-133250000D03*
X112847056Y-132547056D03*
X113550000Y-130850000D03*
D18*
X111150000Y-130850000D03*
D17*
X173647056Y-76852944D03*
X171950000Y-76150000D03*
X170252944Y-76852944D03*
X169550000Y-78550000D03*
X170252944Y-80247056D03*
X171950000Y-80950000D03*
X173647056Y-80247056D03*
X174350000Y-78550000D03*
D18*
X171950000Y-78550000D03*
X171950000Y-130850000D03*
D17*
X174350000Y-130850000D03*
X173647056Y-132547056D03*
X171950000Y-133250000D03*
X170252944Y-132547056D03*
X169550000Y-130850000D03*
X170252944Y-129152944D03*
X171950000Y-128450000D03*
X173647056Y-129152944D03*
X112847056Y-70352944D03*
X111150000Y-69650000D03*
X109452944Y-70352944D03*
X108750000Y-72050000D03*
X109452944Y-73747056D03*
X111150000Y-74450000D03*
X112847056Y-73747056D03*
X113550000Y-72050000D03*
D18*
X111150000Y-72050000D03*
D19*
X158000000Y-91750000D03*
D20*
X158000000Y-94290000D03*
X158000000Y-96830000D03*
X158000000Y-99370000D03*
D14*
X118150000Y-94550000D03*
D10*
X118150000Y-87350000D03*
D21*
X112150000Y-97700000D03*
X112150000Y-84200000D03*
X112150000Y-101500000D03*
X112150000Y-115000000D03*
D10*
X118150000Y-104650000D03*
D14*
X118150000Y-111850000D03*
D12*
X148400000Y-129150000D03*
X134900000Y-129150000D03*
D10*
X145250000Y-123150000D03*
X138050000Y-123150000D03*
D22*
X110150000Y-94150000D03*
X112650000Y-94150000D03*
X115150000Y-94150000D03*
D23*
X153650000Y-101050000D03*
X148350000Y-117950000D03*
X130650000Y-117950000D03*
X131650000Y-86150000D03*
X139400000Y-91400000D03*
X142400000Y-91400000D03*
X140900000Y-89650000D03*
X142400000Y-88150000D03*
X139400000Y-88150000D03*
X136200000Y-98200000D03*
X133050000Y-104050000D03*
X135950000Y-102400000D03*
X174250000Y-83150000D03*
X166300000Y-75850000D03*
X157450000Y-84500000D03*
X155800000Y-87550000D03*
X137050000Y-116450000D03*
X154850000Y-116250000D03*
X159650000Y-114950000D03*
X141750000Y-114950000D03*
X172350000Y-90450000D03*
X155750000Y-78650000D03*
X163950000Y-75850000D03*
X161250000Y-76050000D03*
X158540484Y-76087664D03*
X151900000Y-82400000D03*
X173266964Y-98503510D03*
X161600006Y-92600000D03*
X148900000Y-82400000D03*
X112450000Y-79300000D03*
X110500000Y-81300000D03*
X114800000Y-81300000D03*
X117900000Y-79800000D03*
X119200000Y-79800000D03*
X120500000Y-79800000D03*
X121800000Y-79800000D03*
X123650000Y-80550000D03*
X125000000Y-74650000D03*
X125000000Y-76250000D03*
X127050000Y-78200000D03*
X127050000Y-79900000D03*
X127450000Y-81850000D03*
X127600000Y-83450000D03*
X108750000Y-76150000D03*
X111650000Y-76150000D03*
X114100000Y-76150000D03*
X115500000Y-71350000D03*
X115500000Y-69600000D03*
X124950000Y-82550000D03*
X120150000Y-69800000D03*
X135050000Y-82200000D03*
X132600000Y-81300000D03*
X157200000Y-73350000D03*
X161050000Y-73350000D03*
X166350000Y-73300000D03*
X170100000Y-73300000D03*
X169600000Y-89800000D03*
X169859202Y-90996554D03*
X125796490Y-101250000D03*
X159550000Y-87650000D03*
X154650002Y-103750000D03*
X131525000Y-96875000D03*
X168150000Y-96450000D03*
X126150000Y-87950000D03*
X154550000Y-84550000D03*
X129050000Y-92050000D03*
X124550000Y-98150000D03*
X169050000Y-81750000D03*
X136979989Y-84770011D03*
X138929989Y-84770011D03*
X158100000Y-81000000D03*
X163950000Y-86950000D03*
X152150001Y-86550001D03*
X162850000Y-87450000D03*
X148750000Y-87150000D03*
X162050000Y-82850000D03*
X154500000Y-91149998D03*
X162050000Y-84150000D03*
X155650000Y-91150000D03*
X108450000Y-105750000D03*
X108450000Y-104450000D03*
X168350000Y-85750000D03*
X171050000Y-101750000D03*
X166450000Y-80850000D03*
X120250000Y-102050000D03*
X122950000Y-102050000D03*
X121850000Y-103150000D03*
X120850000Y-106650000D03*
X110950000Y-78050000D03*
X108550000Y-80450000D03*
X121550000Y-77850000D03*
X130250000Y-120150000D03*
X148250000Y-120050000D03*
X163650000Y-77250000D03*
X125200000Y-84900000D03*
D22*
X110150000Y-89150000D03*
X112650000Y-89150000D03*
X115150000Y-89150000D03*
X110150000Y-86650000D03*
X112650000Y-86650000D03*
X115150000Y-86650000D03*
X115150000Y-84050000D03*
X118050000Y-84050000D03*
D23*
X120850000Y-83850000D03*
X123250000Y-83750000D03*
X148350000Y-97450000D03*
X144150000Y-115650000D03*
X146750000Y-115150000D03*
X161650000Y-115450000D03*
X164150000Y-115450000D03*
X124650000Y-107150000D03*
X126650000Y-107150000D03*
X128650000Y-107150000D03*
X130650000Y-107150000D03*
X147900000Y-116900000D03*
X141750000Y-117700000D03*
X161950000Y-97449990D03*
D22*
X125150000Y-109150000D03*
X127650000Y-109150000D03*
X130150000Y-109150000D03*
X135150000Y-109150000D03*
X137650000Y-109150000D03*
X140150000Y-109150000D03*
X145150000Y-109150000D03*
X147650000Y-109150000D03*
X150150000Y-109150000D03*
X152650000Y-109150000D03*
X155150000Y-109150000D03*
X157650000Y-109150000D03*
X160150000Y-109150000D03*
X142650000Y-106650000D03*
X145150000Y-106650000D03*
X147650000Y-106650000D03*
X150150000Y-106650000D03*
X152650000Y-106650000D03*
X155150000Y-106650000D03*
X157650000Y-106650000D03*
X140150000Y-104150000D03*
X142650000Y-104150000D03*
X145150000Y-104150000D03*
X147650000Y-104150000D03*
X150150000Y-104150000D03*
X152650000Y-104150000D03*
X125150000Y-111650000D03*
X127650000Y-111650000D03*
X130150000Y-111650000D03*
X135150000Y-111650000D03*
X137650000Y-111650000D03*
X140150000Y-111650000D03*
X142650000Y-111650000D03*
X147650000Y-111650000D03*
X150150000Y-111650000D03*
X152650000Y-111650000D03*
X155150000Y-111650000D03*
X157650000Y-111650000D03*
X160150000Y-111650000D03*
X162650000Y-111650000D03*
X125150000Y-114150000D03*
X127650000Y-114150000D03*
X130150000Y-114150000D03*
X135150000Y-114150000D03*
X137650000Y-114150000D03*
X140150000Y-114150000D03*
X145150000Y-114150000D03*
X150150000Y-114150000D03*
X152650000Y-114150000D03*
X155150000Y-114150000D03*
X157650000Y-114150000D03*
X162650000Y-114150000D03*
X125150000Y-116650000D03*
X127650000Y-116650000D03*
X130150000Y-116650000D03*
D23*
X157950000Y-79250000D03*
X124304136Y-101472211D03*
D22*
X125150000Y-129150000D03*
X125150000Y-126650000D03*
X127650000Y-126650000D03*
X127650000Y-129150000D03*
X127650000Y-131650000D03*
X125150000Y-131650000D03*
X130150000Y-131650000D03*
X132650000Y-131650000D03*
X135150000Y-131650000D03*
X137650000Y-131650000D03*
X140150000Y-131650000D03*
X142650000Y-131650000D03*
X145150000Y-131650000D03*
X147650000Y-131650000D03*
X130150000Y-126650000D03*
X132650000Y-126650000D03*
X132650000Y-129150000D03*
X135150000Y-126650000D03*
X137650000Y-126650000D03*
X137650000Y-126650000D03*
X142650000Y-126650000D03*
X140150000Y-126650000D03*
X145150000Y-126650000D03*
X132650000Y-124150000D03*
X132650000Y-121650000D03*
X137650000Y-129150000D03*
X140150000Y-129150000D03*
X142650000Y-129150000D03*
X145150000Y-129150000D03*
X147650000Y-126650000D03*
X141550000Y-122050000D03*
X141550000Y-124450000D03*
X148650000Y-121950000D03*
X148650000Y-124550000D03*
D23*
X122450000Y-94850000D03*
X121050000Y-94850000D03*
X127475000Y-91775000D03*
X127475000Y-92950000D03*
X110650000Y-103150000D03*
X112650000Y-103150000D03*
X114650000Y-103150000D03*
X109650000Y-107150000D03*
X111650000Y-107150000D03*
X109650000Y-109150000D03*
D22*
X115150000Y-114150000D03*
X115150000Y-116650000D03*
X115150000Y-119150000D03*
X115150000Y-121650000D03*
X115150000Y-124150000D03*
X115150000Y-126650000D03*
X110150000Y-126650000D03*
X112650000Y-126650000D03*
X112650000Y-124150000D03*
X112650000Y-121650000D03*
X112650000Y-119150000D03*
X112650000Y-116650000D03*
X110150000Y-116650000D03*
X110150000Y-119150000D03*
X110150000Y-121650000D03*
X110150000Y-124150000D03*
X117650000Y-116650000D03*
X117650000Y-119150000D03*
X117650000Y-126650000D03*
X120150000Y-126650000D03*
X122650000Y-126650000D03*
X122650000Y-129150000D03*
X122650000Y-131650000D03*
X120150000Y-131650000D03*
X120150000Y-129150000D03*
X117650000Y-131650000D03*
X120150000Y-119150000D03*
X115150000Y-111650000D03*
X112650000Y-111950000D03*
X110150000Y-114150000D03*
X117650000Y-99150000D03*
X115150000Y-99150000D03*
X112650000Y-99150000D03*
X110150000Y-99150000D03*
D23*
X111650000Y-109150000D03*
X109650000Y-111350000D03*
D22*
X122850000Y-123150000D03*
X122250000Y-120550000D03*
X115250000Y-131650000D03*
X153050000Y-126650000D03*
X155150000Y-126650000D03*
X157650000Y-126650000D03*
X160150000Y-126650000D03*
X162650000Y-126650000D03*
X165150000Y-126650000D03*
X167650000Y-126650000D03*
X170150000Y-126650000D03*
X172650000Y-126650000D03*
X172650000Y-124150000D03*
X170150000Y-124150000D03*
X167650000Y-124150000D03*
X167650000Y-121650000D03*
X170150000Y-121650000D03*
X172650000Y-121650000D03*
X155150000Y-129150000D03*
X155150000Y-131650000D03*
X152650000Y-131650000D03*
X157650000Y-131650000D03*
X157650000Y-129150000D03*
X160150000Y-131650000D03*
X162650000Y-131650000D03*
X165150000Y-131650000D03*
X167650000Y-131650000D03*
X153050000Y-124150000D03*
X153050000Y-121650000D03*
X160150000Y-124150000D03*
X160150000Y-121650000D03*
X162650000Y-129150000D03*
X160150000Y-129150000D03*
D23*
X166350000Y-108650000D03*
X168550000Y-108650000D03*
D22*
X170850000Y-117350000D03*
X172650000Y-114150000D03*
X172650000Y-111650000D03*
X172650000Y-109150000D03*
X172650000Y-106650000D03*
X160650000Y-103150000D03*
X163150000Y-103150000D03*
X165650000Y-103150000D03*
X167650000Y-110150000D03*
X172650000Y-104650000D03*
D23*
X132650000Y-101049999D03*
X131886697Y-115752641D03*
X127250000Y-95350000D03*
X126250000Y-97250000D03*
X128350000Y-97250000D03*
X137450000Y-101350000D03*
X149950000Y-116750000D03*
X161050000Y-77550000D03*
X131839180Y-87851968D03*
X122800000Y-90450000D03*
X121450000Y-91100000D03*
X121400000Y-86650000D03*
X122725000Y-87525000D03*
X121150000Y-89050000D03*
X122450000Y-89050000D03*
X123750000Y-89050000D03*
X119450000Y-90850000D03*
X115850000Y-90850000D03*
X111050000Y-90850000D03*
X130850000Y-101050000D03*
X131450000Y-103050000D03*
X126850000Y-102950000D03*
X124950000Y-102950000D03*
D24*
X154050000Y-85050000D02*
X153850000Y-85050000D01*
X154550000Y-84550000D02*
X154050000Y-85050000D01*
X166650000Y-79350000D02*
X169050000Y-81750000D01*
X159750000Y-79350000D02*
X166650000Y-79350000D01*
X153850000Y-85050000D02*
X153570011Y-84770011D01*
X153570011Y-84770011D02*
X138929989Y-84770011D01*
X138929989Y-84770011D02*
X136979989Y-84770011D01*
X153300000Y-85600000D02*
X153850000Y-85050000D01*
X153300000Y-92200000D02*
X153300000Y-85600000D01*
X155390000Y-94290000D02*
X153300000Y-92200000D01*
X158000000Y-94290000D02*
X155390000Y-94290000D01*
X158100000Y-81000000D02*
X159750000Y-79350000D01*
X154550000Y-84550000D02*
X158100000Y-81000000D01*
X124550000Y-91450000D02*
X124550000Y-98150000D01*
X125650000Y-90350000D02*
X124550000Y-91450000D01*
X125750000Y-90350000D02*
X125779990Y-90320010D01*
X125650000Y-90350000D02*
X125750000Y-90350000D01*
X125779990Y-90320010D02*
X129050000Y-90320010D01*
X129050000Y-92050000D02*
X129050000Y-90320010D01*
X136979989Y-84770011D02*
X136979989Y-85335696D01*
X131965685Y-90350000D02*
X128950000Y-90350000D01*
X136979989Y-85335696D02*
X131965685Y-90350000D01*
D25*
X154500000Y-90400000D02*
X154500000Y-91149998D01*
X162050000Y-82850000D02*
X154500000Y-90400000D01*
X155650000Y-90550000D02*
X155650000Y-91150000D01*
X162050000Y-84150000D02*
X155650000Y-90550000D01*
D24*
X117050000Y-105750000D02*
X118150000Y-104650000D01*
X108450000Y-105750000D02*
X117050000Y-105750000D01*
X108550000Y-104450000D02*
X117950000Y-104450000D01*
X108450000Y-104550000D02*
X108550000Y-104450000D01*
X169950000Y-95603602D02*
X168350000Y-94003602D01*
X168350000Y-94003602D02*
X168350000Y-85750000D01*
X168350000Y-82750000D02*
X166450000Y-80850000D01*
X168350000Y-85750000D02*
X168350000Y-82750000D01*
X171050000Y-101750000D02*
X170150000Y-101750000D01*
X169950000Y-101550000D02*
X169950000Y-95603602D01*
X170150000Y-101750000D02*
X169950000Y-101550000D01*
X116920010Y-77779990D02*
X117460030Y-78320010D01*
X111220010Y-77779990D02*
X116920010Y-77779990D01*
X108450000Y-80550000D02*
X111220010Y-77779990D01*
X121079990Y-78320010D02*
X121550000Y-77850000D01*
X117460030Y-78320010D02*
X121079990Y-78320010D01*
X108450000Y-105750000D02*
X108450000Y-80550000D01*
X121125000Y-107625000D02*
X121125000Y-116725000D01*
X169950000Y-101550000D02*
X169950000Y-114191442D01*
X169950000Y-114191442D02*
X164091442Y-120050000D01*
X164091442Y-120050000D02*
X148250000Y-120050000D01*
X118150000Y-104650000D02*
X121125000Y-107625000D01*
X124450000Y-120050000D02*
X148250000Y-120050000D01*
X121125000Y-116725000D02*
X124450000Y-120050000D01*
D26*
X134804990Y-81295010D02*
X131200000Y-84900000D01*
X154096592Y-81295010D02*
X134804990Y-81295010D01*
X158641602Y-76750000D02*
X154096592Y-81295010D01*
X131200000Y-84900000D02*
X125200000Y-84900000D01*
X163150000Y-76750000D02*
X158641602Y-76750000D01*
X163650000Y-77250000D02*
X163150000Y-76750000D01*
X132509184Y-87682420D02*
X132509184Y-88182420D01*
X157950000Y-79250000D02*
X154100000Y-83100000D01*
X137091604Y-83100000D02*
X132509184Y-87682420D01*
X132509184Y-88182420D02*
X131141604Y-89550000D01*
X125250000Y-89550000D02*
X123550000Y-91250000D01*
X154100000Y-83100000D02*
X137091604Y-83100000D01*
X123550000Y-100718075D02*
X124304136Y-101472211D01*
X123550000Y-91250000D02*
X123550000Y-100718075D01*
X131141604Y-89550000D02*
X125250000Y-89550000D01*
X132250000Y-115389338D02*
X131886697Y-115752641D01*
X132650000Y-101049999D02*
X132250000Y-101449999D01*
X132250000Y-101449999D02*
X132250000Y-115389338D01*
X137450000Y-103684315D02*
X137450000Y-101350000D01*
X149950000Y-116184315D02*
X137450000Y-103684315D01*
X149950000Y-116750000D02*
X149950000Y-116184315D01*
X158364875Y-77550000D02*
X154249855Y-81665020D01*
X131839180Y-87286283D02*
X131839180Y-87851968D01*
X161050000Y-77550000D02*
X158364875Y-77550000D01*
X137460443Y-81665020D02*
X131839180Y-87286283D01*
X154249855Y-81665020D02*
X137460443Y-81665020D01*
D27*
X154776503Y-94846058D02*
X154802394Y-94877606D01*
X154833941Y-94903496D01*
X154833947Y-94903502D01*
X154928319Y-94980951D01*
X154928321Y-94980952D01*
X155071990Y-95057745D01*
X155227880Y-95105034D01*
X155349376Y-95117000D01*
X155349388Y-95117000D01*
X155389999Y-95121000D01*
X155430610Y-95117000D01*
X157162470Y-95117000D01*
X157249706Y-95204236D01*
X157442481Y-95333044D01*
X157656682Y-95421769D01*
X157884076Y-95467000D01*
X158115924Y-95467000D01*
X158343318Y-95421769D01*
X158557519Y-95333044D01*
X158750294Y-95204236D01*
X158914236Y-95040294D01*
X159043044Y-94847519D01*
X159131769Y-94633318D01*
X159177000Y-94405924D01*
X159177000Y-94277000D01*
X167568722Y-94277000D01*
X167582255Y-94321611D01*
X167582256Y-94321612D01*
X167659048Y-94465281D01*
X167692167Y-94505636D01*
X167762394Y-94591208D01*
X167793952Y-94617107D01*
X169123001Y-95946158D01*
X169123000Y-101509376D01*
X169123000Y-101509386D01*
X169119000Y-101550000D01*
X169123000Y-101590614D01*
X169123000Y-104820247D01*
X168947200Y-104557144D01*
X168642856Y-104252800D01*
X168284985Y-104013678D01*
X167887341Y-103848969D01*
X167465204Y-103765000D01*
X167034796Y-103765000D01*
X166612659Y-103848969D01*
X166215015Y-104013678D01*
X165857144Y-104252800D01*
X165552800Y-104557144D01*
X165313678Y-104915015D01*
X165148969Y-105312659D01*
X165065000Y-105734796D01*
X165065000Y-106165204D01*
X165148969Y-106587341D01*
X165313678Y-106984985D01*
X165552800Y-107342856D01*
X165857144Y-107647200D01*
X166215015Y-107886322D01*
X166303564Y-107923000D01*
X166278397Y-107923000D01*
X166137942Y-107950938D01*
X166005636Y-108005741D01*
X165886564Y-108085302D01*
X165785302Y-108186564D01*
X165705741Y-108305636D01*
X165650938Y-108437942D01*
X165623000Y-108578397D01*
X165623000Y-108721603D01*
X165650938Y-108862058D01*
X165705741Y-108994364D01*
X165785302Y-109113436D01*
X165886564Y-109214698D01*
X166005636Y-109294259D01*
X166137942Y-109349062D01*
X166278397Y-109377000D01*
X166421603Y-109377000D01*
X166562058Y-109349062D01*
X166694364Y-109294259D01*
X166813436Y-109214698D01*
X166914698Y-109113436D01*
X166994259Y-108994364D01*
X167049062Y-108862058D01*
X167077000Y-108721603D01*
X167077000Y-108578397D01*
X167049062Y-108437942D01*
X166994259Y-108305636D01*
X166914698Y-108186564D01*
X166820509Y-108092375D01*
X167034796Y-108135000D01*
X167465204Y-108135000D01*
X167887341Y-108051031D01*
X168284985Y-107886322D01*
X168642856Y-107647200D01*
X168947200Y-107342856D01*
X169123000Y-107079752D01*
X169123001Y-108198990D01*
X169114698Y-108186564D01*
X169013436Y-108085302D01*
X168894364Y-108005741D01*
X168762058Y-107950938D01*
X168621603Y-107923000D01*
X168478397Y-107923000D01*
X168337942Y-107950938D01*
X168205636Y-108005741D01*
X168086564Y-108085302D01*
X167985302Y-108186564D01*
X167905741Y-108305636D01*
X167850938Y-108437942D01*
X167823000Y-108578397D01*
X167823000Y-108721603D01*
X167850938Y-108862058D01*
X167905741Y-108994364D01*
X167985302Y-109113436D01*
X168086564Y-109214698D01*
X168205636Y-109294259D01*
X168337942Y-109349062D01*
X168478397Y-109377000D01*
X168621603Y-109377000D01*
X168762058Y-109349062D01*
X168894364Y-109294259D01*
X169013436Y-109214698D01*
X169114698Y-109113436D01*
X169123001Y-109101010D01*
X169123001Y-112020248D01*
X168947200Y-111757144D01*
X168642856Y-111452800D01*
X168284985Y-111213678D01*
X167887341Y-111048969D01*
X167465204Y-110965000D01*
X167034796Y-110965000D01*
X166612659Y-111048969D01*
X166215015Y-111213678D01*
X165857144Y-111452800D01*
X165552800Y-111757144D01*
X165313678Y-112115015D01*
X165148969Y-112512659D01*
X165065000Y-112934796D01*
X165065000Y-113365204D01*
X165148969Y-113787341D01*
X165313678Y-114184985D01*
X165552800Y-114542856D01*
X165857144Y-114847200D01*
X166215015Y-115086322D01*
X166612659Y-115251031D01*
X167034796Y-115335000D01*
X167465204Y-115335000D01*
X167679518Y-115292370D01*
X163748889Y-119223000D01*
X124792554Y-119223000D01*
X123447951Y-117878397D01*
X129923000Y-117878397D01*
X129923000Y-118021603D01*
X129950938Y-118162058D01*
X130005741Y-118294364D01*
X130085302Y-118413436D01*
X130186564Y-118514698D01*
X130305636Y-118594259D01*
X130437942Y-118649062D01*
X130578397Y-118677000D01*
X130721603Y-118677000D01*
X130862058Y-118649062D01*
X130994364Y-118594259D01*
X131113436Y-118514698D01*
X131214698Y-118413436D01*
X131294259Y-118294364D01*
X131349062Y-118162058D01*
X131377000Y-118021603D01*
X131377000Y-117878397D01*
X147623000Y-117878397D01*
X147623000Y-118021603D01*
X147650938Y-118162058D01*
X147705741Y-118294364D01*
X147785302Y-118413436D01*
X147886564Y-118514698D01*
X148005636Y-118594259D01*
X148137942Y-118649062D01*
X148278397Y-118677000D01*
X148421603Y-118677000D01*
X148562058Y-118649062D01*
X148694364Y-118594259D01*
X148813436Y-118514698D01*
X148914698Y-118413436D01*
X148994259Y-118294364D01*
X149049062Y-118162058D01*
X149077000Y-118021603D01*
X149077000Y-117878397D01*
X149049062Y-117737942D01*
X148994259Y-117605636D01*
X148914698Y-117486564D01*
X148813436Y-117385302D01*
X148694364Y-117305741D01*
X148562058Y-117250938D01*
X148421603Y-117223000D01*
X148278397Y-117223000D01*
X148137942Y-117250938D01*
X148005636Y-117305741D01*
X147886564Y-117385302D01*
X147785302Y-117486564D01*
X147705741Y-117605636D01*
X147650938Y-117737942D01*
X147623000Y-117878397D01*
X131377000Y-117878397D01*
X131349062Y-117737942D01*
X131294259Y-117605636D01*
X131214698Y-117486564D01*
X131113436Y-117385302D01*
X130994364Y-117305741D01*
X130862058Y-117250938D01*
X130721603Y-117223000D01*
X130578397Y-117223000D01*
X130437942Y-117250938D01*
X130305636Y-117305741D01*
X130186564Y-117385302D01*
X130085302Y-117486564D01*
X130005741Y-117605636D01*
X129950938Y-117737942D01*
X129923000Y-117878397D01*
X123447951Y-117878397D01*
X121952000Y-116382447D01*
X121952000Y-107665610D01*
X121956000Y-107624999D01*
X121952000Y-107584388D01*
X121952000Y-107584376D01*
X121940034Y-107462880D01*
X121892745Y-107306990D01*
X121815952Y-107163321D01*
X121815951Y-107163319D01*
X121738502Y-107068947D01*
X121738496Y-107068941D01*
X121712606Y-107037394D01*
X121681060Y-107011505D01*
X121543951Y-106874396D01*
X121549062Y-106862058D01*
X121577000Y-106721603D01*
X121577000Y-106578397D01*
X121549062Y-106437942D01*
X121494259Y-106305636D01*
X121414698Y-106186564D01*
X121313436Y-106085302D01*
X121194364Y-106005741D01*
X121062058Y-105950938D01*
X120921603Y-105923000D01*
X120778397Y-105923000D01*
X120637942Y-105950938D01*
X120625603Y-105956049D01*
X120477000Y-105807446D01*
X120477000Y-103078397D01*
X121123000Y-103078397D01*
X121123000Y-103221603D01*
X121150938Y-103362058D01*
X121205741Y-103494364D01*
X121285302Y-103613436D01*
X121386564Y-103714698D01*
X121505636Y-103794259D01*
X121637942Y-103849062D01*
X121778397Y-103877000D01*
X121921603Y-103877000D01*
X122062058Y-103849062D01*
X122194364Y-103794259D01*
X122313436Y-103714698D01*
X122414698Y-103613436D01*
X122494259Y-103494364D01*
X122549062Y-103362058D01*
X122577000Y-103221603D01*
X122577000Y-103078397D01*
X122549062Y-102937942D01*
X122524398Y-102878397D01*
X124223000Y-102878397D01*
X124223000Y-103021603D01*
X124250938Y-103162058D01*
X124305741Y-103294364D01*
X124385302Y-103413436D01*
X124486564Y-103514698D01*
X124605636Y-103594259D01*
X124737942Y-103649062D01*
X124878397Y-103677000D01*
X125021603Y-103677000D01*
X125162058Y-103649062D01*
X125294364Y-103594259D01*
X125413436Y-103514698D01*
X125514698Y-103413436D01*
X125594259Y-103294364D01*
X125649062Y-103162058D01*
X125677000Y-103021603D01*
X125677000Y-102878397D01*
X126123000Y-102878397D01*
X126123000Y-103021603D01*
X126150938Y-103162058D01*
X126205741Y-103294364D01*
X126285302Y-103413436D01*
X126386564Y-103514698D01*
X126505636Y-103594259D01*
X126637942Y-103649062D01*
X126778397Y-103677000D01*
X126921603Y-103677000D01*
X127062058Y-103649062D01*
X127194364Y-103594259D01*
X127313436Y-103514698D01*
X127414698Y-103413436D01*
X127494259Y-103294364D01*
X127549062Y-103162058D01*
X127577000Y-103021603D01*
X127577000Y-102978397D01*
X130723000Y-102978397D01*
X130723000Y-103121603D01*
X130750938Y-103262058D01*
X130805741Y-103394364D01*
X130885302Y-103513436D01*
X130986564Y-103614698D01*
X131105636Y-103694259D01*
X131237942Y-103749062D01*
X131378397Y-103777000D01*
X131521603Y-103777000D01*
X131662058Y-103749062D01*
X131794364Y-103694259D01*
X131823000Y-103675125D01*
X131823001Y-115025641D01*
X131815094Y-115025641D01*
X131674639Y-115053579D01*
X131542333Y-115108382D01*
X131423261Y-115187943D01*
X131321999Y-115289205D01*
X131242438Y-115408277D01*
X131187635Y-115540583D01*
X131159697Y-115681038D01*
X131159697Y-115824244D01*
X131187635Y-115964699D01*
X131242438Y-116097005D01*
X131321999Y-116216077D01*
X131423261Y-116317339D01*
X131542333Y-116396900D01*
X131674639Y-116451703D01*
X131815094Y-116479641D01*
X131958300Y-116479641D01*
X132098755Y-116451703D01*
X132231061Y-116396900D01*
X132258752Y-116378397D01*
X136323000Y-116378397D01*
X136323000Y-116521603D01*
X136350938Y-116662058D01*
X136405741Y-116794364D01*
X136485302Y-116913436D01*
X136586564Y-117014698D01*
X136705636Y-117094259D01*
X136837942Y-117149062D01*
X136978397Y-117177000D01*
X137121603Y-117177000D01*
X137262058Y-117149062D01*
X137394364Y-117094259D01*
X137513436Y-117014698D01*
X137614698Y-116913436D01*
X137694259Y-116794364D01*
X137749062Y-116662058D01*
X137777000Y-116521603D01*
X137777000Y-116378397D01*
X137749062Y-116237942D01*
X137694259Y-116105636D01*
X137614698Y-115986564D01*
X137513436Y-115885302D01*
X137394364Y-115805741D01*
X137262058Y-115750938D01*
X137121603Y-115723000D01*
X136978397Y-115723000D01*
X136837942Y-115750938D01*
X136705636Y-115805741D01*
X136586564Y-115885302D01*
X136485302Y-115986564D01*
X136405741Y-116105636D01*
X136350938Y-116237942D01*
X136323000Y-116378397D01*
X132258752Y-116378397D01*
X132350133Y-116317339D01*
X132451395Y-116216077D01*
X132530956Y-116097005D01*
X132585759Y-115964699D01*
X132613697Y-115824244D01*
X132613697Y-115681038D01*
X132603805Y-115631309D01*
X132606755Y-115627715D01*
X132646404Y-115553535D01*
X132646405Y-115553534D01*
X132670822Y-115473045D01*
X132677000Y-115410316D01*
X132677000Y-115410306D01*
X132679065Y-115389339D01*
X132677000Y-115368372D01*
X132677000Y-114878397D01*
X141023000Y-114878397D01*
X141023000Y-115021603D01*
X141050938Y-115162058D01*
X141105741Y-115294364D01*
X141185302Y-115413436D01*
X141286564Y-115514698D01*
X141405636Y-115594259D01*
X141537942Y-115649062D01*
X141678397Y-115677000D01*
X141821603Y-115677000D01*
X141962058Y-115649062D01*
X142094364Y-115594259D01*
X142213436Y-115514698D01*
X142314698Y-115413436D01*
X142394259Y-115294364D01*
X142449062Y-115162058D01*
X142477000Y-115021603D01*
X142477000Y-114878397D01*
X142449062Y-114737942D01*
X142394259Y-114605636D01*
X142314698Y-114486564D01*
X142213436Y-114385302D01*
X142094364Y-114305741D01*
X141962058Y-114250938D01*
X141821603Y-114223000D01*
X141678397Y-114223000D01*
X141537942Y-114250938D01*
X141405636Y-114305741D01*
X141286564Y-114385302D01*
X141185302Y-114486564D01*
X141105741Y-114605636D01*
X141050938Y-114737942D01*
X141023000Y-114878397D01*
X132677000Y-114878397D01*
X132677000Y-104675125D01*
X132705636Y-104694259D01*
X132837942Y-104749062D01*
X132978397Y-104777000D01*
X133121603Y-104777000D01*
X133262058Y-104749062D01*
X133394364Y-104694259D01*
X133513436Y-104614698D01*
X133614698Y-104513436D01*
X133694259Y-104394364D01*
X133749062Y-104262058D01*
X133777000Y-104121603D01*
X133777000Y-103978397D01*
X133749062Y-103837942D01*
X133694259Y-103705636D01*
X133614698Y-103586564D01*
X133513436Y-103485302D01*
X133394364Y-103405741D01*
X133262058Y-103350938D01*
X133121603Y-103323000D01*
X132978397Y-103323000D01*
X132837942Y-103350938D01*
X132705636Y-103405741D01*
X132677000Y-103424875D01*
X132677000Y-102328397D01*
X135223000Y-102328397D01*
X135223000Y-102471603D01*
X135250938Y-102612058D01*
X135305741Y-102744364D01*
X135385302Y-102863436D01*
X135486564Y-102964698D01*
X135605636Y-103044259D01*
X135737942Y-103099062D01*
X135878397Y-103127000D01*
X136021603Y-103127000D01*
X136162058Y-103099062D01*
X136294364Y-103044259D01*
X136413436Y-102964698D01*
X136514698Y-102863436D01*
X136594259Y-102744364D01*
X136649062Y-102612058D01*
X136677000Y-102471603D01*
X136677000Y-102328397D01*
X136649062Y-102187942D01*
X136594259Y-102055636D01*
X136514698Y-101936564D01*
X136413436Y-101835302D01*
X136294364Y-101755741D01*
X136162058Y-101700938D01*
X136021603Y-101673000D01*
X135878397Y-101673000D01*
X135737942Y-101700938D01*
X135605636Y-101755741D01*
X135486564Y-101835302D01*
X135385302Y-101936564D01*
X135305741Y-102055636D01*
X135250938Y-102187942D01*
X135223000Y-102328397D01*
X132677000Y-102328397D01*
X132677000Y-101776999D01*
X132721603Y-101776999D01*
X132862058Y-101749061D01*
X132994364Y-101694258D01*
X133113436Y-101614697D01*
X133214698Y-101513435D01*
X133294259Y-101394363D01*
X133342293Y-101278397D01*
X136723000Y-101278397D01*
X136723000Y-101421603D01*
X136750938Y-101562058D01*
X136805741Y-101694364D01*
X136885302Y-101813436D01*
X136986564Y-101914698D01*
X137023001Y-101939044D01*
X137023000Y-103663348D01*
X137020935Y-103684315D01*
X137023000Y-103705282D01*
X137023000Y-103705292D01*
X137029178Y-103768021D01*
X137053595Y-103848510D01*
X137068823Y-103877000D01*
X137093245Y-103922691D01*
X137111733Y-103945218D01*
X137146605Y-103987710D01*
X137162900Y-104001083D01*
X149416841Y-116255025D01*
X149385302Y-116286564D01*
X149305741Y-116405636D01*
X149250938Y-116537942D01*
X149223000Y-116678397D01*
X149223000Y-116821603D01*
X149250938Y-116962058D01*
X149305741Y-117094364D01*
X149385302Y-117213436D01*
X149486564Y-117314698D01*
X149605636Y-117394259D01*
X149737942Y-117449062D01*
X149878397Y-117477000D01*
X150021603Y-117477000D01*
X150162058Y-117449062D01*
X150294364Y-117394259D01*
X150413436Y-117314698D01*
X150514698Y-117213436D01*
X150594259Y-117094364D01*
X150649062Y-116962058D01*
X150677000Y-116821603D01*
X150677000Y-116678397D01*
X150649062Y-116537942D01*
X150594259Y-116405636D01*
X150514698Y-116286564D01*
X150413436Y-116185302D01*
X150403102Y-116178397D01*
X154123000Y-116178397D01*
X154123000Y-116321603D01*
X154150938Y-116462058D01*
X154205741Y-116594364D01*
X154285302Y-116713436D01*
X154386564Y-116814698D01*
X154505636Y-116894259D01*
X154637942Y-116949062D01*
X154778397Y-116977000D01*
X154921603Y-116977000D01*
X155062058Y-116949062D01*
X155194364Y-116894259D01*
X155313436Y-116814698D01*
X155414698Y-116713436D01*
X155494259Y-116594364D01*
X155549062Y-116462058D01*
X155577000Y-116321603D01*
X155577000Y-116178397D01*
X155549062Y-116037942D01*
X155494259Y-115905636D01*
X155414698Y-115786564D01*
X155313436Y-115685302D01*
X155194364Y-115605741D01*
X155062058Y-115550938D01*
X154921603Y-115523000D01*
X154778397Y-115523000D01*
X154637942Y-115550938D01*
X154505636Y-115605741D01*
X154386564Y-115685302D01*
X154285302Y-115786564D01*
X154205741Y-115905636D01*
X154150938Y-116037942D01*
X154123000Y-116178397D01*
X150403102Y-116178397D01*
X150376749Y-116160789D01*
X150370822Y-116100608D01*
X150351812Y-116037942D01*
X150346405Y-116020118D01*
X150306756Y-115945939D01*
X150266768Y-115897214D01*
X150266764Y-115897210D01*
X150253395Y-115880920D01*
X150237105Y-115867551D01*
X149247951Y-114878397D01*
X158923000Y-114878397D01*
X158923000Y-115021603D01*
X158950938Y-115162058D01*
X159005741Y-115294364D01*
X159085302Y-115413436D01*
X159186564Y-115514698D01*
X159305636Y-115594259D01*
X159437942Y-115649062D01*
X159578397Y-115677000D01*
X159721603Y-115677000D01*
X159862058Y-115649062D01*
X159994364Y-115594259D01*
X160113436Y-115514698D01*
X160214698Y-115413436D01*
X160294259Y-115294364D01*
X160349062Y-115162058D01*
X160377000Y-115021603D01*
X160377000Y-114878397D01*
X160349062Y-114737942D01*
X160294259Y-114605636D01*
X160214698Y-114486564D01*
X160113436Y-114385302D01*
X159994364Y-114305741D01*
X159862058Y-114250938D01*
X159721603Y-114223000D01*
X159578397Y-114223000D01*
X159437942Y-114250938D01*
X159305636Y-114305741D01*
X159186564Y-114385302D01*
X159085302Y-114486564D01*
X159005741Y-114605636D01*
X158950938Y-114737942D01*
X158923000Y-114878397D01*
X149247951Y-114878397D01*
X144438102Y-110068548D01*
X166823000Y-110068548D01*
X166823000Y-110231452D01*
X166854782Y-110391227D01*
X166917123Y-110541731D01*
X167007628Y-110677181D01*
X167122819Y-110792372D01*
X167258269Y-110882877D01*
X167408773Y-110945218D01*
X167568548Y-110977000D01*
X167731452Y-110977000D01*
X167891227Y-110945218D01*
X168041731Y-110882877D01*
X168177181Y-110792372D01*
X168292372Y-110677181D01*
X168382877Y-110541731D01*
X168445218Y-110391227D01*
X168477000Y-110231452D01*
X168477000Y-110068548D01*
X168445218Y-109908773D01*
X168382877Y-109758269D01*
X168292372Y-109622819D01*
X168177181Y-109507628D01*
X168041731Y-109417123D01*
X167891227Y-109354782D01*
X167731452Y-109323000D01*
X167568548Y-109323000D01*
X167408773Y-109354782D01*
X167258269Y-109417123D01*
X167122819Y-109507628D01*
X167007628Y-109622819D01*
X166917123Y-109758269D01*
X166854782Y-109908773D01*
X166823000Y-110068548D01*
X144438102Y-110068548D01*
X138047951Y-103678397D01*
X153923002Y-103678397D01*
X153923002Y-103821603D01*
X153950940Y-103962058D01*
X154005743Y-104094364D01*
X154085304Y-104213436D01*
X154186566Y-104314698D01*
X154305638Y-104394259D01*
X154437944Y-104449062D01*
X154578399Y-104477000D01*
X154721605Y-104477000D01*
X154862060Y-104449062D01*
X154994366Y-104394259D01*
X155113438Y-104314698D01*
X155214700Y-104213436D01*
X155294261Y-104094364D01*
X155349064Y-103962058D01*
X155377002Y-103821603D01*
X155377002Y-103678397D01*
X155349064Y-103537942D01*
X155294261Y-103405636D01*
X155214700Y-103286564D01*
X155113438Y-103185302D01*
X154994366Y-103105741D01*
X154904575Y-103068548D01*
X159823000Y-103068548D01*
X159823000Y-103231452D01*
X159854782Y-103391227D01*
X159917123Y-103541731D01*
X160007628Y-103677181D01*
X160122819Y-103792372D01*
X160258269Y-103882877D01*
X160408773Y-103945218D01*
X160568548Y-103977000D01*
X160731452Y-103977000D01*
X160891227Y-103945218D01*
X161041731Y-103882877D01*
X161177181Y-103792372D01*
X161292372Y-103677181D01*
X161382877Y-103541731D01*
X161445218Y-103391227D01*
X161477000Y-103231452D01*
X161477000Y-103068548D01*
X162323000Y-103068548D01*
X162323000Y-103231452D01*
X162354782Y-103391227D01*
X162417123Y-103541731D01*
X162507628Y-103677181D01*
X162622819Y-103792372D01*
X162758269Y-103882877D01*
X162908773Y-103945218D01*
X163068548Y-103977000D01*
X163231452Y-103977000D01*
X163391227Y-103945218D01*
X163541731Y-103882877D01*
X163677181Y-103792372D01*
X163792372Y-103677181D01*
X163882877Y-103541731D01*
X163945218Y-103391227D01*
X163977000Y-103231452D01*
X163977000Y-103068548D01*
X164823000Y-103068548D01*
X164823000Y-103231452D01*
X164854782Y-103391227D01*
X164917123Y-103541731D01*
X165007628Y-103677181D01*
X165122819Y-103792372D01*
X165258269Y-103882877D01*
X165408773Y-103945218D01*
X165568548Y-103977000D01*
X165731452Y-103977000D01*
X165891227Y-103945218D01*
X166041731Y-103882877D01*
X166177181Y-103792372D01*
X166292372Y-103677181D01*
X166382877Y-103541731D01*
X166445218Y-103391227D01*
X166477000Y-103231452D01*
X166477000Y-103068548D01*
X166445218Y-102908773D01*
X166382877Y-102758269D01*
X166292372Y-102622819D01*
X166177181Y-102507628D01*
X166041731Y-102417123D01*
X165891227Y-102354782D01*
X165731452Y-102323000D01*
X165568548Y-102323000D01*
X165408773Y-102354782D01*
X165258269Y-102417123D01*
X165122819Y-102507628D01*
X165007628Y-102622819D01*
X164917123Y-102758269D01*
X164854782Y-102908773D01*
X164823000Y-103068548D01*
X163977000Y-103068548D01*
X163945218Y-102908773D01*
X163882877Y-102758269D01*
X163792372Y-102622819D01*
X163677181Y-102507628D01*
X163541731Y-102417123D01*
X163391227Y-102354782D01*
X163231452Y-102323000D01*
X163068548Y-102323000D01*
X162908773Y-102354782D01*
X162758269Y-102417123D01*
X162622819Y-102507628D01*
X162507628Y-102622819D01*
X162417123Y-102758269D01*
X162354782Y-102908773D01*
X162323000Y-103068548D01*
X161477000Y-103068548D01*
X161445218Y-102908773D01*
X161382877Y-102758269D01*
X161292372Y-102622819D01*
X161177181Y-102507628D01*
X161041731Y-102417123D01*
X160891227Y-102354782D01*
X160731452Y-102323000D01*
X160568548Y-102323000D01*
X160408773Y-102354782D01*
X160258269Y-102417123D01*
X160122819Y-102507628D01*
X160007628Y-102622819D01*
X159917123Y-102758269D01*
X159854782Y-102908773D01*
X159823000Y-103068548D01*
X154904575Y-103068548D01*
X154862060Y-103050938D01*
X154721605Y-103023000D01*
X154578399Y-103023000D01*
X154437944Y-103050938D01*
X154305638Y-103105741D01*
X154186566Y-103185302D01*
X154085304Y-103286564D01*
X154005743Y-103405636D01*
X153950940Y-103537942D01*
X153923002Y-103678397D01*
X138047951Y-103678397D01*
X137877000Y-103507447D01*
X137877000Y-101939044D01*
X137913436Y-101914698D01*
X138014698Y-101813436D01*
X138094259Y-101694364D01*
X138149062Y-101562058D01*
X138177000Y-101421603D01*
X138177000Y-101278397D01*
X138149062Y-101137942D01*
X138094259Y-101005636D01*
X138076059Y-100978397D01*
X152923000Y-100978397D01*
X152923000Y-101121603D01*
X152950938Y-101262058D01*
X153005741Y-101394364D01*
X153085302Y-101513436D01*
X153186564Y-101614698D01*
X153305636Y-101694259D01*
X153437942Y-101749062D01*
X153578397Y-101777000D01*
X153721603Y-101777000D01*
X153862058Y-101749062D01*
X153994364Y-101694259D01*
X154113436Y-101614698D01*
X154214698Y-101513436D01*
X154294259Y-101394364D01*
X154349062Y-101262058D01*
X154377000Y-101121603D01*
X154377000Y-100978397D01*
X154349062Y-100837942D01*
X154294259Y-100705636D01*
X154214698Y-100586564D01*
X154113436Y-100485302D01*
X153994364Y-100405741D01*
X153862058Y-100350938D01*
X153721603Y-100323000D01*
X153578397Y-100323000D01*
X153437942Y-100350938D01*
X153305636Y-100405741D01*
X153186564Y-100485302D01*
X153085302Y-100586564D01*
X153005741Y-100705636D01*
X152950938Y-100837942D01*
X152923000Y-100978397D01*
X138076059Y-100978397D01*
X138014698Y-100886564D01*
X137913436Y-100785302D01*
X137794364Y-100705741D01*
X137662058Y-100650938D01*
X137521603Y-100623000D01*
X137378397Y-100623000D01*
X137237942Y-100650938D01*
X137105636Y-100705741D01*
X136986564Y-100785302D01*
X136885302Y-100886564D01*
X136805741Y-101005636D01*
X136750938Y-101137942D01*
X136723000Y-101278397D01*
X133342293Y-101278397D01*
X133349062Y-101262057D01*
X133377000Y-101121602D01*
X133377000Y-100978396D01*
X133349062Y-100837941D01*
X133294259Y-100705635D01*
X133214698Y-100586563D01*
X133113436Y-100485301D01*
X132994364Y-100405740D01*
X132862058Y-100350937D01*
X132721603Y-100322999D01*
X132578397Y-100322999D01*
X132437942Y-100350937D01*
X132305636Y-100405740D01*
X132186564Y-100485301D01*
X132085302Y-100586563D01*
X132005741Y-100705635D01*
X131950938Y-100837941D01*
X131923000Y-100978396D01*
X131923000Y-101121602D01*
X131931608Y-101164878D01*
X131893245Y-101211623D01*
X131872052Y-101251273D01*
X131853595Y-101285804D01*
X131829178Y-101366293D01*
X131823000Y-101429022D01*
X131823000Y-101429032D01*
X131820935Y-101449999D01*
X131823000Y-101470966D01*
X131823000Y-102424875D01*
X131794364Y-102405741D01*
X131662058Y-102350938D01*
X131521603Y-102323000D01*
X131378397Y-102323000D01*
X131237942Y-102350938D01*
X131105636Y-102405741D01*
X130986564Y-102485302D01*
X130885302Y-102586564D01*
X130805741Y-102705636D01*
X130750938Y-102837942D01*
X130723000Y-102978397D01*
X127577000Y-102978397D01*
X127577000Y-102878397D01*
X127549062Y-102737942D01*
X127494259Y-102605636D01*
X127414698Y-102486564D01*
X127313436Y-102385302D01*
X127194364Y-102305741D01*
X127062058Y-102250938D01*
X126921603Y-102223000D01*
X126778397Y-102223000D01*
X126637942Y-102250938D01*
X126505636Y-102305741D01*
X126386564Y-102385302D01*
X126285302Y-102486564D01*
X126205741Y-102605636D01*
X126150938Y-102737942D01*
X126123000Y-102878397D01*
X125677000Y-102878397D01*
X125649062Y-102737942D01*
X125594259Y-102605636D01*
X125514698Y-102486564D01*
X125413436Y-102385302D01*
X125294364Y-102305741D01*
X125162058Y-102250938D01*
X125021603Y-102223000D01*
X124878397Y-102223000D01*
X124737942Y-102250938D01*
X124605636Y-102305741D01*
X124486564Y-102385302D01*
X124385302Y-102486564D01*
X124305741Y-102605636D01*
X124250938Y-102737942D01*
X124223000Y-102878397D01*
X122524398Y-102878397D01*
X122494259Y-102805636D01*
X122414698Y-102686564D01*
X122313436Y-102585302D01*
X122194364Y-102505741D01*
X122062058Y-102450938D01*
X121921603Y-102423000D01*
X121778397Y-102423000D01*
X121637942Y-102450938D01*
X121505636Y-102505741D01*
X121386564Y-102585302D01*
X121285302Y-102686564D01*
X121205741Y-102805636D01*
X121150938Y-102937942D01*
X121123000Y-103078397D01*
X120477000Y-103078397D01*
X120477000Y-102742873D01*
X120594364Y-102694259D01*
X120713436Y-102614698D01*
X120814698Y-102513436D01*
X120894259Y-102394364D01*
X120949062Y-102262058D01*
X120977000Y-102121603D01*
X120977000Y-101978397D01*
X122223000Y-101978397D01*
X122223000Y-102121603D01*
X122250938Y-102262058D01*
X122305741Y-102394364D01*
X122385302Y-102513436D01*
X122486564Y-102614698D01*
X122605636Y-102694259D01*
X122737942Y-102749062D01*
X122878397Y-102777000D01*
X123021603Y-102777000D01*
X123162058Y-102749062D01*
X123294364Y-102694259D01*
X123413436Y-102614698D01*
X123514698Y-102513436D01*
X123594259Y-102394364D01*
X123649062Y-102262058D01*
X123677000Y-102121603D01*
X123677000Y-101978397D01*
X123649062Y-101837942D01*
X123594259Y-101705636D01*
X123514698Y-101586564D01*
X123413436Y-101485302D01*
X123294364Y-101405741D01*
X123162058Y-101350938D01*
X123021603Y-101323000D01*
X122878397Y-101323000D01*
X122737942Y-101350938D01*
X122605636Y-101405741D01*
X122486564Y-101485302D01*
X122385302Y-101586564D01*
X122305741Y-101705636D01*
X122250938Y-101837942D01*
X122223000Y-101978397D01*
X120977000Y-101978397D01*
X120949062Y-101837942D01*
X120894259Y-101705636D01*
X120814698Y-101586564D01*
X120713436Y-101485302D01*
X120594364Y-101405741D01*
X120477000Y-101357127D01*
X120477000Y-95301011D01*
X120485302Y-95313436D01*
X120586564Y-95414698D01*
X120705636Y-95494259D01*
X120837942Y-95549062D01*
X120978397Y-95577000D01*
X121121603Y-95577000D01*
X121262058Y-95549062D01*
X121394364Y-95494259D01*
X121513436Y-95414698D01*
X121614698Y-95313436D01*
X121694259Y-95194364D01*
X121749062Y-95062058D01*
X121750000Y-95057342D01*
X121750938Y-95062058D01*
X121805741Y-95194364D01*
X121885302Y-95313436D01*
X121986564Y-95414698D01*
X122105636Y-95494259D01*
X122237942Y-95549062D01*
X122378397Y-95577000D01*
X122521603Y-95577000D01*
X122662058Y-95549062D01*
X122794364Y-95494259D01*
X122913436Y-95414698D01*
X123014698Y-95313436D01*
X123094259Y-95194364D01*
X123123000Y-95124976D01*
X123123001Y-100697098D01*
X123120935Y-100718075D01*
X123123001Y-100739052D01*
X123123001Y-100739053D01*
X123129179Y-100801782D01*
X123146551Y-100859048D01*
X123153596Y-100882271D01*
X123193245Y-100956451D01*
X123233232Y-101005175D01*
X123233237Y-101005180D01*
X123246606Y-101021470D01*
X123262895Y-101034838D01*
X123585685Y-101357629D01*
X123577136Y-101400608D01*
X123577136Y-101543814D01*
X123605074Y-101684269D01*
X123659877Y-101816575D01*
X123739438Y-101935647D01*
X123840700Y-102036909D01*
X123959772Y-102116470D01*
X124092078Y-102171273D01*
X124232533Y-102199211D01*
X124375739Y-102199211D01*
X124516194Y-102171273D01*
X124648500Y-102116470D01*
X124767572Y-102036909D01*
X124868834Y-101935647D01*
X124948395Y-101816575D01*
X125003198Y-101684269D01*
X125031136Y-101543814D01*
X125031136Y-101400608D01*
X125003198Y-101260153D01*
X124969334Y-101178397D01*
X125069490Y-101178397D01*
X125069490Y-101321603D01*
X125097428Y-101462058D01*
X125152231Y-101594364D01*
X125231792Y-101713436D01*
X125333054Y-101814698D01*
X125452126Y-101894259D01*
X125584432Y-101949062D01*
X125724887Y-101977000D01*
X125868093Y-101977000D01*
X126008548Y-101949062D01*
X126140854Y-101894259D01*
X126259926Y-101814698D01*
X126361188Y-101713436D01*
X126440749Y-101594364D01*
X126495552Y-101462058D01*
X126523490Y-101321603D01*
X126523490Y-101178397D01*
X126495552Y-101037942D01*
X126470888Y-100978397D01*
X130123000Y-100978397D01*
X130123000Y-101121603D01*
X130150938Y-101262058D01*
X130205741Y-101394364D01*
X130285302Y-101513436D01*
X130386564Y-101614698D01*
X130505636Y-101694259D01*
X130637942Y-101749062D01*
X130778397Y-101777000D01*
X130921603Y-101777000D01*
X131062058Y-101749062D01*
X131194364Y-101694259D01*
X131313436Y-101614698D01*
X131414698Y-101513436D01*
X131494259Y-101394364D01*
X131549062Y-101262058D01*
X131577000Y-101121603D01*
X131577000Y-100978397D01*
X131549062Y-100837942D01*
X131494259Y-100705636D01*
X131414698Y-100586564D01*
X131313436Y-100485302D01*
X131194364Y-100405741D01*
X131062058Y-100350938D01*
X130921603Y-100323000D01*
X130778397Y-100323000D01*
X130637942Y-100350938D01*
X130505636Y-100405741D01*
X130386564Y-100485302D01*
X130285302Y-100586564D01*
X130205741Y-100705636D01*
X130150938Y-100837942D01*
X130123000Y-100978397D01*
X126470888Y-100978397D01*
X126440749Y-100905636D01*
X126361188Y-100786564D01*
X126259926Y-100685302D01*
X126140854Y-100605741D01*
X126008548Y-100550938D01*
X125868093Y-100523000D01*
X125724887Y-100523000D01*
X125584432Y-100550938D01*
X125452126Y-100605741D01*
X125333054Y-100685302D01*
X125231792Y-100786564D01*
X125152231Y-100905636D01*
X125097428Y-101037942D01*
X125069490Y-101178397D01*
X124969334Y-101178397D01*
X124948395Y-101127847D01*
X124868834Y-101008775D01*
X124767572Y-100907513D01*
X124648500Y-100827952D01*
X124516194Y-100773149D01*
X124375739Y-100745211D01*
X124232533Y-100745211D01*
X124189554Y-100753760D01*
X123977000Y-100541207D01*
X123977000Y-99254076D01*
X156823000Y-99254076D01*
X156823000Y-99485924D01*
X156868231Y-99713318D01*
X156956956Y-99927519D01*
X157085764Y-100120294D01*
X157249706Y-100284236D01*
X157442481Y-100413044D01*
X157656682Y-100501769D01*
X157884076Y-100547000D01*
X158115924Y-100547000D01*
X158343318Y-100501769D01*
X158557519Y-100413044D01*
X158750294Y-100284236D01*
X158914236Y-100120294D01*
X159043044Y-99927519D01*
X159131769Y-99713318D01*
X159177000Y-99485924D01*
X159177000Y-99254076D01*
X159131769Y-99026682D01*
X159043044Y-98812481D01*
X158914236Y-98619706D01*
X158750294Y-98455764D01*
X158557519Y-98326956D01*
X158343318Y-98238231D01*
X158115924Y-98193000D01*
X157884076Y-98193000D01*
X157656682Y-98238231D01*
X157442481Y-98326956D01*
X157249706Y-98455764D01*
X157085764Y-98619706D01*
X156956956Y-98812481D01*
X156868231Y-99026682D01*
X156823000Y-99254076D01*
X123977000Y-99254076D01*
X123977000Y-98749592D01*
X124088322Y-98840952D01*
X124231991Y-98917745D01*
X124387881Y-98965034D01*
X124550000Y-98981001D01*
X124712120Y-98965034D01*
X124868010Y-98917745D01*
X125011679Y-98840952D01*
X125137606Y-98737606D01*
X125240952Y-98611679D01*
X125317745Y-98468010D01*
X125365034Y-98312120D01*
X125377000Y-98190624D01*
X125377000Y-98128397D01*
X135473000Y-98128397D01*
X135473000Y-98271603D01*
X135500938Y-98412058D01*
X135555741Y-98544364D01*
X135635302Y-98663436D01*
X135736564Y-98764698D01*
X135855636Y-98844259D01*
X135987942Y-98899062D01*
X136128397Y-98927000D01*
X136271603Y-98927000D01*
X136412058Y-98899062D01*
X136544364Y-98844259D01*
X136663436Y-98764698D01*
X136764698Y-98663436D01*
X136844259Y-98544364D01*
X136899062Y-98412058D01*
X136927000Y-98271603D01*
X136927000Y-98128397D01*
X136899062Y-97987942D01*
X136844259Y-97855636D01*
X136764698Y-97736564D01*
X136663436Y-97635302D01*
X136544364Y-97555741D01*
X136412058Y-97500938D01*
X136271603Y-97473000D01*
X136128397Y-97473000D01*
X135987942Y-97500938D01*
X135855636Y-97555741D01*
X135736564Y-97635302D01*
X135635302Y-97736564D01*
X135555741Y-97855636D01*
X135500938Y-97987942D01*
X135473000Y-98128397D01*
X125377000Y-98128397D01*
X125377000Y-97178397D01*
X125523000Y-97178397D01*
X125523000Y-97321603D01*
X125550938Y-97462058D01*
X125605741Y-97594364D01*
X125685302Y-97713436D01*
X125786564Y-97814698D01*
X125905636Y-97894259D01*
X126037942Y-97949062D01*
X126178397Y-97977000D01*
X126321603Y-97977000D01*
X126462058Y-97949062D01*
X126594364Y-97894259D01*
X126713436Y-97814698D01*
X126814698Y-97713436D01*
X126894259Y-97594364D01*
X126949062Y-97462058D01*
X126977000Y-97321603D01*
X126977000Y-97178397D01*
X127623000Y-97178397D01*
X127623000Y-97321603D01*
X127650938Y-97462058D01*
X127705741Y-97594364D01*
X127785302Y-97713436D01*
X127886564Y-97814698D01*
X128005636Y-97894259D01*
X128137942Y-97949062D01*
X128278397Y-97977000D01*
X128421603Y-97977000D01*
X128562058Y-97949062D01*
X128694364Y-97894259D01*
X128813436Y-97814698D01*
X128914698Y-97713436D01*
X128994259Y-97594364D01*
X129049062Y-97462058D01*
X129077000Y-97321603D01*
X129077000Y-97178397D01*
X129049062Y-97037942D01*
X128994259Y-96905636D01*
X128925946Y-96803397D01*
X130798000Y-96803397D01*
X130798000Y-96946603D01*
X130825938Y-97087058D01*
X130880741Y-97219364D01*
X130960302Y-97338436D01*
X131061564Y-97439698D01*
X131180636Y-97519259D01*
X131312942Y-97574062D01*
X131453397Y-97602000D01*
X131596603Y-97602000D01*
X131737058Y-97574062D01*
X131869364Y-97519259D01*
X131988436Y-97439698D01*
X132049737Y-97378397D01*
X147623000Y-97378397D01*
X147623000Y-97521603D01*
X147650938Y-97662058D01*
X147705741Y-97794364D01*
X147785302Y-97913436D01*
X147886564Y-98014698D01*
X148005636Y-98094259D01*
X148137942Y-98149062D01*
X148278397Y-98177000D01*
X148421603Y-98177000D01*
X148562058Y-98149062D01*
X148694364Y-98094259D01*
X148813436Y-98014698D01*
X148914698Y-97913436D01*
X148994259Y-97794364D01*
X149049062Y-97662058D01*
X149077000Y-97521603D01*
X149077000Y-97378397D01*
X149049062Y-97237942D01*
X148994259Y-97105636D01*
X148914698Y-96986564D01*
X148813436Y-96885302D01*
X148694364Y-96805741D01*
X148562058Y-96750938D01*
X148421603Y-96723000D01*
X148278397Y-96723000D01*
X148137942Y-96750938D01*
X148005636Y-96805741D01*
X147886564Y-96885302D01*
X147785302Y-96986564D01*
X147705741Y-97105636D01*
X147650938Y-97237942D01*
X147623000Y-97378397D01*
X132049737Y-97378397D01*
X132089698Y-97338436D01*
X132169259Y-97219364D01*
X132224062Y-97087058D01*
X132252000Y-96946603D01*
X132252000Y-96803397D01*
X132234234Y-96714076D01*
X156823000Y-96714076D01*
X156823000Y-96945924D01*
X156868231Y-97173318D01*
X156956956Y-97387519D01*
X157085764Y-97580294D01*
X157249706Y-97744236D01*
X157442481Y-97873044D01*
X157656682Y-97961769D01*
X157884076Y-98007000D01*
X158115924Y-98007000D01*
X158343318Y-97961769D01*
X158557519Y-97873044D01*
X158750294Y-97744236D01*
X158914236Y-97580294D01*
X159043044Y-97387519D01*
X159131769Y-97173318D01*
X159177000Y-96945924D01*
X159177000Y-96714076D01*
X159131769Y-96486682D01*
X159086916Y-96378397D01*
X167423000Y-96378397D01*
X167423000Y-96521603D01*
X167450938Y-96662058D01*
X167505741Y-96794364D01*
X167585302Y-96913436D01*
X167686564Y-97014698D01*
X167805636Y-97094259D01*
X167937942Y-97149062D01*
X168078397Y-97177000D01*
X168221603Y-97177000D01*
X168362058Y-97149062D01*
X168494364Y-97094259D01*
X168613436Y-97014698D01*
X168714698Y-96913436D01*
X168794259Y-96794364D01*
X168849062Y-96662058D01*
X168877000Y-96521603D01*
X168877000Y-96378397D01*
X168849062Y-96237942D01*
X168794259Y-96105636D01*
X168714698Y-95986564D01*
X168613436Y-95885302D01*
X168494364Y-95805741D01*
X168362058Y-95750938D01*
X168221603Y-95723000D01*
X168078397Y-95723000D01*
X167937942Y-95750938D01*
X167805636Y-95805741D01*
X167686564Y-95885302D01*
X167585302Y-95986564D01*
X167505741Y-96105636D01*
X167450938Y-96237942D01*
X167423000Y-96378397D01*
X159086916Y-96378397D01*
X159043044Y-96272481D01*
X158914236Y-96079706D01*
X158750294Y-95915764D01*
X158557519Y-95786956D01*
X158343318Y-95698231D01*
X158115924Y-95653000D01*
X157884076Y-95653000D01*
X157656682Y-95698231D01*
X157442481Y-95786956D01*
X157249706Y-95915764D01*
X157085764Y-96079706D01*
X156956956Y-96272481D01*
X156868231Y-96486682D01*
X156823000Y-96714076D01*
X132234234Y-96714076D01*
X132224062Y-96662942D01*
X132169259Y-96530636D01*
X132089698Y-96411564D01*
X131988436Y-96310302D01*
X131869364Y-96230741D01*
X131737058Y-96175938D01*
X131596603Y-96148000D01*
X131453397Y-96148000D01*
X131312942Y-96175938D01*
X131180636Y-96230741D01*
X131061564Y-96310302D01*
X130960302Y-96411564D01*
X130880741Y-96530636D01*
X130825938Y-96662942D01*
X130798000Y-96803397D01*
X128925946Y-96803397D01*
X128914698Y-96786564D01*
X128813436Y-96685302D01*
X128694364Y-96605741D01*
X128562058Y-96550938D01*
X128421603Y-96523000D01*
X128278397Y-96523000D01*
X128137942Y-96550938D01*
X128005636Y-96605741D01*
X127886564Y-96685302D01*
X127785302Y-96786564D01*
X127705741Y-96905636D01*
X127650938Y-97037942D01*
X127623000Y-97178397D01*
X126977000Y-97178397D01*
X126949062Y-97037942D01*
X126894259Y-96905636D01*
X126814698Y-96786564D01*
X126713436Y-96685302D01*
X126594364Y-96605741D01*
X126462058Y-96550938D01*
X126321603Y-96523000D01*
X126178397Y-96523000D01*
X126037942Y-96550938D01*
X125905636Y-96605741D01*
X125786564Y-96685302D01*
X125685302Y-96786564D01*
X125605741Y-96905636D01*
X125550938Y-97037942D01*
X125523000Y-97178397D01*
X125377000Y-97178397D01*
X125377000Y-95278397D01*
X126523000Y-95278397D01*
X126523000Y-95421603D01*
X126550938Y-95562058D01*
X126605741Y-95694364D01*
X126685302Y-95813436D01*
X126786564Y-95914698D01*
X126905636Y-95994259D01*
X127037942Y-96049062D01*
X127178397Y-96077000D01*
X127321603Y-96077000D01*
X127462058Y-96049062D01*
X127594364Y-95994259D01*
X127713436Y-95914698D01*
X127814698Y-95813436D01*
X127894259Y-95694364D01*
X127949062Y-95562058D01*
X127977000Y-95421603D01*
X127977000Y-95278397D01*
X127949062Y-95137942D01*
X127894259Y-95005636D01*
X127814698Y-94886564D01*
X127713436Y-94785302D01*
X127594364Y-94705741D01*
X127462058Y-94650938D01*
X127321603Y-94623000D01*
X127178397Y-94623000D01*
X127037942Y-94650938D01*
X126905636Y-94705741D01*
X126786564Y-94785302D01*
X126685302Y-94886564D01*
X126605741Y-95005636D01*
X126550938Y-95137942D01*
X126523000Y-95278397D01*
X125377000Y-95278397D01*
X125377000Y-94277000D01*
X154207446Y-94277000D01*
X154776503Y-94846058D01*
G04 #@! TA.AperFunction,Conductor*
D28*
G36*
X154776503Y-94846058D02*
G01*
X154802394Y-94877606D01*
X154833941Y-94903496D01*
X154833947Y-94903502D01*
X154928319Y-94980951D01*
X154928321Y-94980952D01*
X155071990Y-95057745D01*
X155227880Y-95105034D01*
X155349376Y-95117000D01*
X155349388Y-95117000D01*
X155389999Y-95121000D01*
X155430610Y-95117000D01*
X157162470Y-95117000D01*
X157249706Y-95204236D01*
X157442481Y-95333044D01*
X157656682Y-95421769D01*
X157884076Y-95467000D01*
X158115924Y-95467000D01*
X158343318Y-95421769D01*
X158557519Y-95333044D01*
X158750294Y-95204236D01*
X158914236Y-95040294D01*
X159043044Y-94847519D01*
X159131769Y-94633318D01*
X159177000Y-94405924D01*
X159177000Y-94277000D01*
X167568722Y-94277000D01*
X167582255Y-94321611D01*
X167582256Y-94321612D01*
X167659048Y-94465281D01*
X167692167Y-94505636D01*
X167762394Y-94591208D01*
X167793952Y-94617107D01*
X169123001Y-95946158D01*
X169123000Y-101509376D01*
X169123000Y-101509386D01*
X169119000Y-101550000D01*
X169123000Y-101590614D01*
X169123000Y-104820247D01*
X168947200Y-104557144D01*
X168642856Y-104252800D01*
X168284985Y-104013678D01*
X167887341Y-103848969D01*
X167465204Y-103765000D01*
X167034796Y-103765000D01*
X166612659Y-103848969D01*
X166215015Y-104013678D01*
X165857144Y-104252800D01*
X165552800Y-104557144D01*
X165313678Y-104915015D01*
X165148969Y-105312659D01*
X165065000Y-105734796D01*
X165065000Y-106165204D01*
X165148969Y-106587341D01*
X165313678Y-106984985D01*
X165552800Y-107342856D01*
X165857144Y-107647200D01*
X166215015Y-107886322D01*
X166303564Y-107923000D01*
X166278397Y-107923000D01*
X166137942Y-107950938D01*
X166005636Y-108005741D01*
X165886564Y-108085302D01*
X165785302Y-108186564D01*
X165705741Y-108305636D01*
X165650938Y-108437942D01*
X165623000Y-108578397D01*
X165623000Y-108721603D01*
X165650938Y-108862058D01*
X165705741Y-108994364D01*
X165785302Y-109113436D01*
X165886564Y-109214698D01*
X166005636Y-109294259D01*
X166137942Y-109349062D01*
X166278397Y-109377000D01*
X166421603Y-109377000D01*
X166562058Y-109349062D01*
X166694364Y-109294259D01*
X166813436Y-109214698D01*
X166914698Y-109113436D01*
X166994259Y-108994364D01*
X167049062Y-108862058D01*
X167077000Y-108721603D01*
X167077000Y-108578397D01*
X167049062Y-108437942D01*
X166994259Y-108305636D01*
X166914698Y-108186564D01*
X166820509Y-108092375D01*
X167034796Y-108135000D01*
X167465204Y-108135000D01*
X167887341Y-108051031D01*
X168284985Y-107886322D01*
X168642856Y-107647200D01*
X168947200Y-107342856D01*
X169123000Y-107079752D01*
X169123001Y-108198990D01*
X169114698Y-108186564D01*
X169013436Y-108085302D01*
X168894364Y-108005741D01*
X168762058Y-107950938D01*
X168621603Y-107923000D01*
X168478397Y-107923000D01*
X168337942Y-107950938D01*
X168205636Y-108005741D01*
X168086564Y-108085302D01*
X167985302Y-108186564D01*
X167905741Y-108305636D01*
X167850938Y-108437942D01*
X167823000Y-108578397D01*
X167823000Y-108721603D01*
X167850938Y-108862058D01*
X167905741Y-108994364D01*
X167985302Y-109113436D01*
X168086564Y-109214698D01*
X168205636Y-109294259D01*
X168337942Y-109349062D01*
X168478397Y-109377000D01*
X168621603Y-109377000D01*
X168762058Y-109349062D01*
X168894364Y-109294259D01*
X169013436Y-109214698D01*
X169114698Y-109113436D01*
X169123001Y-109101010D01*
X169123001Y-112020248D01*
X168947200Y-111757144D01*
X168642856Y-111452800D01*
X168284985Y-111213678D01*
X167887341Y-111048969D01*
X167465204Y-110965000D01*
X167034796Y-110965000D01*
X166612659Y-111048969D01*
X166215015Y-111213678D01*
X165857144Y-111452800D01*
X165552800Y-111757144D01*
X165313678Y-112115015D01*
X165148969Y-112512659D01*
X165065000Y-112934796D01*
X165065000Y-113365204D01*
X165148969Y-113787341D01*
X165313678Y-114184985D01*
X165552800Y-114542856D01*
X165857144Y-114847200D01*
X166215015Y-115086322D01*
X166612659Y-115251031D01*
X167034796Y-115335000D01*
X167465204Y-115335000D01*
X167679518Y-115292370D01*
X163748889Y-119223000D01*
X124792554Y-119223000D01*
X123447951Y-117878397D01*
X129923000Y-117878397D01*
X129923000Y-118021603D01*
X129950938Y-118162058D01*
X130005741Y-118294364D01*
X130085302Y-118413436D01*
X130186564Y-118514698D01*
X130305636Y-118594259D01*
X130437942Y-118649062D01*
X130578397Y-118677000D01*
X130721603Y-118677000D01*
X130862058Y-118649062D01*
X130994364Y-118594259D01*
X131113436Y-118514698D01*
X131214698Y-118413436D01*
X131294259Y-118294364D01*
X131349062Y-118162058D01*
X131377000Y-118021603D01*
X131377000Y-117878397D01*
X147623000Y-117878397D01*
X147623000Y-118021603D01*
X147650938Y-118162058D01*
X147705741Y-118294364D01*
X147785302Y-118413436D01*
X147886564Y-118514698D01*
X148005636Y-118594259D01*
X148137942Y-118649062D01*
X148278397Y-118677000D01*
X148421603Y-118677000D01*
X148562058Y-118649062D01*
X148694364Y-118594259D01*
X148813436Y-118514698D01*
X148914698Y-118413436D01*
X148994259Y-118294364D01*
X149049062Y-118162058D01*
X149077000Y-118021603D01*
X149077000Y-117878397D01*
X149049062Y-117737942D01*
X148994259Y-117605636D01*
X148914698Y-117486564D01*
X148813436Y-117385302D01*
X148694364Y-117305741D01*
X148562058Y-117250938D01*
X148421603Y-117223000D01*
X148278397Y-117223000D01*
X148137942Y-117250938D01*
X148005636Y-117305741D01*
X147886564Y-117385302D01*
X147785302Y-117486564D01*
X147705741Y-117605636D01*
X147650938Y-117737942D01*
X147623000Y-117878397D01*
X131377000Y-117878397D01*
X131349062Y-117737942D01*
X131294259Y-117605636D01*
X131214698Y-117486564D01*
X131113436Y-117385302D01*
X130994364Y-117305741D01*
X130862058Y-117250938D01*
X130721603Y-117223000D01*
X130578397Y-117223000D01*
X130437942Y-117250938D01*
X130305636Y-117305741D01*
X130186564Y-117385302D01*
X130085302Y-117486564D01*
X130005741Y-117605636D01*
X129950938Y-117737942D01*
X129923000Y-117878397D01*
X123447951Y-117878397D01*
X121952000Y-116382447D01*
X121952000Y-107665610D01*
X121956000Y-107624999D01*
X121952000Y-107584388D01*
X121952000Y-107584376D01*
X121940034Y-107462880D01*
X121892745Y-107306990D01*
X121815952Y-107163321D01*
X121815951Y-107163319D01*
X121738502Y-107068947D01*
X121738496Y-107068941D01*
X121712606Y-107037394D01*
X121681060Y-107011505D01*
X121543951Y-106874396D01*
X121549062Y-106862058D01*
X121577000Y-106721603D01*
X121577000Y-106578397D01*
X121549062Y-106437942D01*
X121494259Y-106305636D01*
X121414698Y-106186564D01*
X121313436Y-106085302D01*
X121194364Y-106005741D01*
X121062058Y-105950938D01*
X120921603Y-105923000D01*
X120778397Y-105923000D01*
X120637942Y-105950938D01*
X120625603Y-105956049D01*
X120477000Y-105807446D01*
X120477000Y-103078397D01*
X121123000Y-103078397D01*
X121123000Y-103221603D01*
X121150938Y-103362058D01*
X121205741Y-103494364D01*
X121285302Y-103613436D01*
X121386564Y-103714698D01*
X121505636Y-103794259D01*
X121637942Y-103849062D01*
X121778397Y-103877000D01*
X121921603Y-103877000D01*
X122062058Y-103849062D01*
X122194364Y-103794259D01*
X122313436Y-103714698D01*
X122414698Y-103613436D01*
X122494259Y-103494364D01*
X122549062Y-103362058D01*
X122577000Y-103221603D01*
X122577000Y-103078397D01*
X122549062Y-102937942D01*
X122524398Y-102878397D01*
X124223000Y-102878397D01*
X124223000Y-103021603D01*
X124250938Y-103162058D01*
X124305741Y-103294364D01*
X124385302Y-103413436D01*
X124486564Y-103514698D01*
X124605636Y-103594259D01*
X124737942Y-103649062D01*
X124878397Y-103677000D01*
X125021603Y-103677000D01*
X125162058Y-103649062D01*
X125294364Y-103594259D01*
X125413436Y-103514698D01*
X125514698Y-103413436D01*
X125594259Y-103294364D01*
X125649062Y-103162058D01*
X125677000Y-103021603D01*
X125677000Y-102878397D01*
X126123000Y-102878397D01*
X126123000Y-103021603D01*
X126150938Y-103162058D01*
X126205741Y-103294364D01*
X126285302Y-103413436D01*
X126386564Y-103514698D01*
X126505636Y-103594259D01*
X126637942Y-103649062D01*
X126778397Y-103677000D01*
X126921603Y-103677000D01*
X127062058Y-103649062D01*
X127194364Y-103594259D01*
X127313436Y-103514698D01*
X127414698Y-103413436D01*
X127494259Y-103294364D01*
X127549062Y-103162058D01*
X127577000Y-103021603D01*
X127577000Y-102978397D01*
X130723000Y-102978397D01*
X130723000Y-103121603D01*
X130750938Y-103262058D01*
X130805741Y-103394364D01*
X130885302Y-103513436D01*
X130986564Y-103614698D01*
X131105636Y-103694259D01*
X131237942Y-103749062D01*
X131378397Y-103777000D01*
X131521603Y-103777000D01*
X131662058Y-103749062D01*
X131794364Y-103694259D01*
X131823000Y-103675125D01*
X131823001Y-115025641D01*
X131815094Y-115025641D01*
X131674639Y-115053579D01*
X131542333Y-115108382D01*
X131423261Y-115187943D01*
X131321999Y-115289205D01*
X131242438Y-115408277D01*
X131187635Y-115540583D01*
X131159697Y-115681038D01*
X131159697Y-115824244D01*
X131187635Y-115964699D01*
X131242438Y-116097005D01*
X131321999Y-116216077D01*
X131423261Y-116317339D01*
X131542333Y-116396900D01*
X131674639Y-116451703D01*
X131815094Y-116479641D01*
X131958300Y-116479641D01*
X132098755Y-116451703D01*
X132231061Y-116396900D01*
X132258752Y-116378397D01*
X136323000Y-116378397D01*
X136323000Y-116521603D01*
X136350938Y-116662058D01*
X136405741Y-116794364D01*
X136485302Y-116913436D01*
X136586564Y-117014698D01*
X136705636Y-117094259D01*
X136837942Y-117149062D01*
X136978397Y-117177000D01*
X137121603Y-117177000D01*
X137262058Y-117149062D01*
X137394364Y-117094259D01*
X137513436Y-117014698D01*
X137614698Y-116913436D01*
X137694259Y-116794364D01*
X137749062Y-116662058D01*
X137777000Y-116521603D01*
X137777000Y-116378397D01*
X137749062Y-116237942D01*
X137694259Y-116105636D01*
X137614698Y-115986564D01*
X137513436Y-115885302D01*
X137394364Y-115805741D01*
X137262058Y-115750938D01*
X137121603Y-115723000D01*
X136978397Y-115723000D01*
X136837942Y-115750938D01*
X136705636Y-115805741D01*
X136586564Y-115885302D01*
X136485302Y-115986564D01*
X136405741Y-116105636D01*
X136350938Y-116237942D01*
X136323000Y-116378397D01*
X132258752Y-116378397D01*
X132350133Y-116317339D01*
X132451395Y-116216077D01*
X132530956Y-116097005D01*
X132585759Y-115964699D01*
X132613697Y-115824244D01*
X132613697Y-115681038D01*
X132603805Y-115631309D01*
X132606755Y-115627715D01*
X132646404Y-115553535D01*
X132646405Y-115553534D01*
X132670822Y-115473045D01*
X132677000Y-115410316D01*
X132677000Y-115410306D01*
X132679065Y-115389339D01*
X132677000Y-115368372D01*
X132677000Y-114878397D01*
X141023000Y-114878397D01*
X141023000Y-115021603D01*
X141050938Y-115162058D01*
X141105741Y-115294364D01*
X141185302Y-115413436D01*
X141286564Y-115514698D01*
X141405636Y-115594259D01*
X141537942Y-115649062D01*
X141678397Y-115677000D01*
X141821603Y-115677000D01*
X141962058Y-115649062D01*
X142094364Y-115594259D01*
X142213436Y-115514698D01*
X142314698Y-115413436D01*
X142394259Y-115294364D01*
X142449062Y-115162058D01*
X142477000Y-115021603D01*
X142477000Y-114878397D01*
X142449062Y-114737942D01*
X142394259Y-114605636D01*
X142314698Y-114486564D01*
X142213436Y-114385302D01*
X142094364Y-114305741D01*
X141962058Y-114250938D01*
X141821603Y-114223000D01*
X141678397Y-114223000D01*
X141537942Y-114250938D01*
X141405636Y-114305741D01*
X141286564Y-114385302D01*
X141185302Y-114486564D01*
X141105741Y-114605636D01*
X141050938Y-114737942D01*
X141023000Y-114878397D01*
X132677000Y-114878397D01*
X132677000Y-104675125D01*
X132705636Y-104694259D01*
X132837942Y-104749062D01*
X132978397Y-104777000D01*
X133121603Y-104777000D01*
X133262058Y-104749062D01*
X133394364Y-104694259D01*
X133513436Y-104614698D01*
X133614698Y-104513436D01*
X133694259Y-104394364D01*
X133749062Y-104262058D01*
X133777000Y-104121603D01*
X133777000Y-103978397D01*
X133749062Y-103837942D01*
X133694259Y-103705636D01*
X133614698Y-103586564D01*
X133513436Y-103485302D01*
X133394364Y-103405741D01*
X133262058Y-103350938D01*
X133121603Y-103323000D01*
X132978397Y-103323000D01*
X132837942Y-103350938D01*
X132705636Y-103405741D01*
X132677000Y-103424875D01*
X132677000Y-102328397D01*
X135223000Y-102328397D01*
X135223000Y-102471603D01*
X135250938Y-102612058D01*
X135305741Y-102744364D01*
X135385302Y-102863436D01*
X135486564Y-102964698D01*
X135605636Y-103044259D01*
X135737942Y-103099062D01*
X135878397Y-103127000D01*
X136021603Y-103127000D01*
X136162058Y-103099062D01*
X136294364Y-103044259D01*
X136413436Y-102964698D01*
X136514698Y-102863436D01*
X136594259Y-102744364D01*
X136649062Y-102612058D01*
X136677000Y-102471603D01*
X136677000Y-102328397D01*
X136649062Y-102187942D01*
X136594259Y-102055636D01*
X136514698Y-101936564D01*
X136413436Y-101835302D01*
X136294364Y-101755741D01*
X136162058Y-101700938D01*
X136021603Y-101673000D01*
X135878397Y-101673000D01*
X135737942Y-101700938D01*
X135605636Y-101755741D01*
X135486564Y-101835302D01*
X135385302Y-101936564D01*
X135305741Y-102055636D01*
X135250938Y-102187942D01*
X135223000Y-102328397D01*
X132677000Y-102328397D01*
X132677000Y-101776999D01*
X132721603Y-101776999D01*
X132862058Y-101749061D01*
X132994364Y-101694258D01*
X133113436Y-101614697D01*
X133214698Y-101513435D01*
X133294259Y-101394363D01*
X133342293Y-101278397D01*
X136723000Y-101278397D01*
X136723000Y-101421603D01*
X136750938Y-101562058D01*
X136805741Y-101694364D01*
X136885302Y-101813436D01*
X136986564Y-101914698D01*
X137023001Y-101939044D01*
X137023000Y-103663348D01*
X137020935Y-103684315D01*
X137023000Y-103705282D01*
X137023000Y-103705292D01*
X137029178Y-103768021D01*
X137053595Y-103848510D01*
X137068823Y-103877000D01*
X137093245Y-103922691D01*
X137111733Y-103945218D01*
X137146605Y-103987710D01*
X137162900Y-104001083D01*
X149416841Y-116255025D01*
X149385302Y-116286564D01*
X149305741Y-116405636D01*
X149250938Y-116537942D01*
X149223000Y-116678397D01*
X149223000Y-116821603D01*
X149250938Y-116962058D01*
X149305741Y-117094364D01*
X149385302Y-117213436D01*
X149486564Y-117314698D01*
X149605636Y-117394259D01*
X149737942Y-117449062D01*
X149878397Y-117477000D01*
X150021603Y-117477000D01*
X150162058Y-117449062D01*
X150294364Y-117394259D01*
X150413436Y-117314698D01*
X150514698Y-117213436D01*
X150594259Y-117094364D01*
X150649062Y-116962058D01*
X150677000Y-116821603D01*
X150677000Y-116678397D01*
X150649062Y-116537942D01*
X150594259Y-116405636D01*
X150514698Y-116286564D01*
X150413436Y-116185302D01*
X150403102Y-116178397D01*
X154123000Y-116178397D01*
X154123000Y-116321603D01*
X154150938Y-116462058D01*
X154205741Y-116594364D01*
X154285302Y-116713436D01*
X154386564Y-116814698D01*
X154505636Y-116894259D01*
X154637942Y-116949062D01*
X154778397Y-116977000D01*
X154921603Y-116977000D01*
X155062058Y-116949062D01*
X155194364Y-116894259D01*
X155313436Y-116814698D01*
X155414698Y-116713436D01*
X155494259Y-116594364D01*
X155549062Y-116462058D01*
X155577000Y-116321603D01*
X155577000Y-116178397D01*
X155549062Y-116037942D01*
X155494259Y-115905636D01*
X155414698Y-115786564D01*
X155313436Y-115685302D01*
X155194364Y-115605741D01*
X155062058Y-115550938D01*
X154921603Y-115523000D01*
X154778397Y-115523000D01*
X154637942Y-115550938D01*
X154505636Y-115605741D01*
X154386564Y-115685302D01*
X154285302Y-115786564D01*
X154205741Y-115905636D01*
X154150938Y-116037942D01*
X154123000Y-116178397D01*
X150403102Y-116178397D01*
X150376749Y-116160789D01*
X150370822Y-116100608D01*
X150351812Y-116037942D01*
X150346405Y-116020118D01*
X150306756Y-115945939D01*
X150266768Y-115897214D01*
X150266764Y-115897210D01*
X150253395Y-115880920D01*
X150237105Y-115867551D01*
X149247951Y-114878397D01*
X158923000Y-114878397D01*
X158923000Y-115021603D01*
X158950938Y-115162058D01*
X159005741Y-115294364D01*
X159085302Y-115413436D01*
X159186564Y-115514698D01*
X159305636Y-115594259D01*
X159437942Y-115649062D01*
X159578397Y-115677000D01*
X159721603Y-115677000D01*
X159862058Y-115649062D01*
X159994364Y-115594259D01*
X160113436Y-115514698D01*
X160214698Y-115413436D01*
X160294259Y-115294364D01*
X160349062Y-115162058D01*
X160377000Y-115021603D01*
X160377000Y-114878397D01*
X160349062Y-114737942D01*
X160294259Y-114605636D01*
X160214698Y-114486564D01*
X160113436Y-114385302D01*
X159994364Y-114305741D01*
X159862058Y-114250938D01*
X159721603Y-114223000D01*
X159578397Y-114223000D01*
X159437942Y-114250938D01*
X159305636Y-114305741D01*
X159186564Y-114385302D01*
X159085302Y-114486564D01*
X159005741Y-114605636D01*
X158950938Y-114737942D01*
X158923000Y-114878397D01*
X149247951Y-114878397D01*
X144438102Y-110068548D01*
X166823000Y-110068548D01*
X166823000Y-110231452D01*
X166854782Y-110391227D01*
X166917123Y-110541731D01*
X167007628Y-110677181D01*
X167122819Y-110792372D01*
X167258269Y-110882877D01*
X167408773Y-110945218D01*
X167568548Y-110977000D01*
X167731452Y-110977000D01*
X167891227Y-110945218D01*
X168041731Y-110882877D01*
X168177181Y-110792372D01*
X168292372Y-110677181D01*
X168382877Y-110541731D01*
X168445218Y-110391227D01*
X168477000Y-110231452D01*
X168477000Y-110068548D01*
X168445218Y-109908773D01*
X168382877Y-109758269D01*
X168292372Y-109622819D01*
X168177181Y-109507628D01*
X168041731Y-109417123D01*
X167891227Y-109354782D01*
X167731452Y-109323000D01*
X167568548Y-109323000D01*
X167408773Y-109354782D01*
X167258269Y-109417123D01*
X167122819Y-109507628D01*
X167007628Y-109622819D01*
X166917123Y-109758269D01*
X166854782Y-109908773D01*
X166823000Y-110068548D01*
X144438102Y-110068548D01*
X138047951Y-103678397D01*
X153923002Y-103678397D01*
X153923002Y-103821603D01*
X153950940Y-103962058D01*
X154005743Y-104094364D01*
X154085304Y-104213436D01*
X154186566Y-104314698D01*
X154305638Y-104394259D01*
X154437944Y-104449062D01*
X154578399Y-104477000D01*
X154721605Y-104477000D01*
X154862060Y-104449062D01*
X154994366Y-104394259D01*
X155113438Y-104314698D01*
X155214700Y-104213436D01*
X155294261Y-104094364D01*
X155349064Y-103962058D01*
X155377002Y-103821603D01*
X155377002Y-103678397D01*
X155349064Y-103537942D01*
X155294261Y-103405636D01*
X155214700Y-103286564D01*
X155113438Y-103185302D01*
X154994366Y-103105741D01*
X154904575Y-103068548D01*
X159823000Y-103068548D01*
X159823000Y-103231452D01*
X159854782Y-103391227D01*
X159917123Y-103541731D01*
X160007628Y-103677181D01*
X160122819Y-103792372D01*
X160258269Y-103882877D01*
X160408773Y-103945218D01*
X160568548Y-103977000D01*
X160731452Y-103977000D01*
X160891227Y-103945218D01*
X161041731Y-103882877D01*
X161177181Y-103792372D01*
X161292372Y-103677181D01*
X161382877Y-103541731D01*
X161445218Y-103391227D01*
X161477000Y-103231452D01*
X161477000Y-103068548D01*
X162323000Y-103068548D01*
X162323000Y-103231452D01*
X162354782Y-103391227D01*
X162417123Y-103541731D01*
X162507628Y-103677181D01*
X162622819Y-103792372D01*
X162758269Y-103882877D01*
X162908773Y-103945218D01*
X163068548Y-103977000D01*
X163231452Y-103977000D01*
X163391227Y-103945218D01*
X163541731Y-103882877D01*
X163677181Y-103792372D01*
X163792372Y-103677181D01*
X163882877Y-103541731D01*
X163945218Y-103391227D01*
X163977000Y-103231452D01*
X163977000Y-103068548D01*
X164823000Y-103068548D01*
X164823000Y-103231452D01*
X164854782Y-103391227D01*
X164917123Y-103541731D01*
X165007628Y-103677181D01*
X165122819Y-103792372D01*
X165258269Y-103882877D01*
X165408773Y-103945218D01*
X165568548Y-103977000D01*
X165731452Y-103977000D01*
X165891227Y-103945218D01*
X166041731Y-103882877D01*
X166177181Y-103792372D01*
X166292372Y-103677181D01*
X166382877Y-103541731D01*
X166445218Y-103391227D01*
X166477000Y-103231452D01*
X166477000Y-103068548D01*
X166445218Y-102908773D01*
X166382877Y-102758269D01*
X166292372Y-102622819D01*
X166177181Y-102507628D01*
X166041731Y-102417123D01*
X165891227Y-102354782D01*
X165731452Y-102323000D01*
X165568548Y-102323000D01*
X165408773Y-102354782D01*
X165258269Y-102417123D01*
X165122819Y-102507628D01*
X165007628Y-102622819D01*
X164917123Y-102758269D01*
X164854782Y-102908773D01*
X164823000Y-103068548D01*
X163977000Y-103068548D01*
X163945218Y-102908773D01*
X163882877Y-102758269D01*
X163792372Y-102622819D01*
X163677181Y-102507628D01*
X163541731Y-102417123D01*
X163391227Y-102354782D01*
X163231452Y-102323000D01*
X163068548Y-102323000D01*
X162908773Y-102354782D01*
X162758269Y-102417123D01*
X162622819Y-102507628D01*
X162507628Y-102622819D01*
X162417123Y-102758269D01*
X162354782Y-102908773D01*
X162323000Y-103068548D01*
X161477000Y-103068548D01*
X161445218Y-102908773D01*
X161382877Y-102758269D01*
X161292372Y-102622819D01*
X161177181Y-102507628D01*
X161041731Y-102417123D01*
X160891227Y-102354782D01*
X160731452Y-102323000D01*
X160568548Y-102323000D01*
X160408773Y-102354782D01*
X160258269Y-102417123D01*
X160122819Y-102507628D01*
X160007628Y-102622819D01*
X159917123Y-102758269D01*
X159854782Y-102908773D01*
X159823000Y-103068548D01*
X154904575Y-103068548D01*
X154862060Y-103050938D01*
X154721605Y-103023000D01*
X154578399Y-103023000D01*
X154437944Y-103050938D01*
X154305638Y-103105741D01*
X154186566Y-103185302D01*
X154085304Y-103286564D01*
X154005743Y-103405636D01*
X153950940Y-103537942D01*
X153923002Y-103678397D01*
X138047951Y-103678397D01*
X137877000Y-103507447D01*
X137877000Y-101939044D01*
X137913436Y-101914698D01*
X138014698Y-101813436D01*
X138094259Y-101694364D01*
X138149062Y-101562058D01*
X138177000Y-101421603D01*
X138177000Y-101278397D01*
X138149062Y-101137942D01*
X138094259Y-101005636D01*
X138076059Y-100978397D01*
X152923000Y-100978397D01*
X152923000Y-101121603D01*
X152950938Y-101262058D01*
X153005741Y-101394364D01*
X153085302Y-101513436D01*
X153186564Y-101614698D01*
X153305636Y-101694259D01*
X153437942Y-101749062D01*
X153578397Y-101777000D01*
X153721603Y-101777000D01*
X153862058Y-101749062D01*
X153994364Y-101694259D01*
X154113436Y-101614698D01*
X154214698Y-101513436D01*
X154294259Y-101394364D01*
X154349062Y-101262058D01*
X154377000Y-101121603D01*
X154377000Y-100978397D01*
X154349062Y-100837942D01*
X154294259Y-100705636D01*
X154214698Y-100586564D01*
X154113436Y-100485302D01*
X153994364Y-100405741D01*
X153862058Y-100350938D01*
X153721603Y-100323000D01*
X153578397Y-100323000D01*
X153437942Y-100350938D01*
X153305636Y-100405741D01*
X153186564Y-100485302D01*
X153085302Y-100586564D01*
X153005741Y-100705636D01*
X152950938Y-100837942D01*
X152923000Y-100978397D01*
X138076059Y-100978397D01*
X138014698Y-100886564D01*
X137913436Y-100785302D01*
X137794364Y-100705741D01*
X137662058Y-100650938D01*
X137521603Y-100623000D01*
X137378397Y-100623000D01*
X137237942Y-100650938D01*
X137105636Y-100705741D01*
X136986564Y-100785302D01*
X136885302Y-100886564D01*
X136805741Y-101005636D01*
X136750938Y-101137942D01*
X136723000Y-101278397D01*
X133342293Y-101278397D01*
X133349062Y-101262057D01*
X133377000Y-101121602D01*
X133377000Y-100978396D01*
X133349062Y-100837941D01*
X133294259Y-100705635D01*
X133214698Y-100586563D01*
X133113436Y-100485301D01*
X132994364Y-100405740D01*
X132862058Y-100350937D01*
X132721603Y-100322999D01*
X132578397Y-100322999D01*
X132437942Y-100350937D01*
X132305636Y-100405740D01*
X132186564Y-100485301D01*
X132085302Y-100586563D01*
X132005741Y-100705635D01*
X131950938Y-100837941D01*
X131923000Y-100978396D01*
X131923000Y-101121602D01*
X131931608Y-101164878D01*
X131893245Y-101211623D01*
X131872052Y-101251273D01*
X131853595Y-101285804D01*
X131829178Y-101366293D01*
X131823000Y-101429022D01*
X131823000Y-101429032D01*
X131820935Y-101449999D01*
X131823000Y-101470966D01*
X131823000Y-102424875D01*
X131794364Y-102405741D01*
X131662058Y-102350938D01*
X131521603Y-102323000D01*
X131378397Y-102323000D01*
X131237942Y-102350938D01*
X131105636Y-102405741D01*
X130986564Y-102485302D01*
X130885302Y-102586564D01*
X130805741Y-102705636D01*
X130750938Y-102837942D01*
X130723000Y-102978397D01*
X127577000Y-102978397D01*
X127577000Y-102878397D01*
X127549062Y-102737942D01*
X127494259Y-102605636D01*
X127414698Y-102486564D01*
X127313436Y-102385302D01*
X127194364Y-102305741D01*
X127062058Y-102250938D01*
X126921603Y-102223000D01*
X126778397Y-102223000D01*
X126637942Y-102250938D01*
X126505636Y-102305741D01*
X126386564Y-102385302D01*
X126285302Y-102486564D01*
X126205741Y-102605636D01*
X126150938Y-102737942D01*
X126123000Y-102878397D01*
X125677000Y-102878397D01*
X125649062Y-102737942D01*
X125594259Y-102605636D01*
X125514698Y-102486564D01*
X125413436Y-102385302D01*
X125294364Y-102305741D01*
X125162058Y-102250938D01*
X125021603Y-102223000D01*
X124878397Y-102223000D01*
X124737942Y-102250938D01*
X124605636Y-102305741D01*
X124486564Y-102385302D01*
X124385302Y-102486564D01*
X124305741Y-102605636D01*
X124250938Y-102737942D01*
X124223000Y-102878397D01*
X122524398Y-102878397D01*
X122494259Y-102805636D01*
X122414698Y-102686564D01*
X122313436Y-102585302D01*
X122194364Y-102505741D01*
X122062058Y-102450938D01*
X121921603Y-102423000D01*
X121778397Y-102423000D01*
X121637942Y-102450938D01*
X121505636Y-102505741D01*
X121386564Y-102585302D01*
X121285302Y-102686564D01*
X121205741Y-102805636D01*
X121150938Y-102937942D01*
X121123000Y-103078397D01*
X120477000Y-103078397D01*
X120477000Y-102742873D01*
X120594364Y-102694259D01*
X120713436Y-102614698D01*
X120814698Y-102513436D01*
X120894259Y-102394364D01*
X120949062Y-102262058D01*
X120977000Y-102121603D01*
X120977000Y-101978397D01*
X122223000Y-101978397D01*
X122223000Y-102121603D01*
X122250938Y-102262058D01*
X122305741Y-102394364D01*
X122385302Y-102513436D01*
X122486564Y-102614698D01*
X122605636Y-102694259D01*
X122737942Y-102749062D01*
X122878397Y-102777000D01*
X123021603Y-102777000D01*
X123162058Y-102749062D01*
X123294364Y-102694259D01*
X123413436Y-102614698D01*
X123514698Y-102513436D01*
X123594259Y-102394364D01*
X123649062Y-102262058D01*
X123677000Y-102121603D01*
X123677000Y-101978397D01*
X123649062Y-101837942D01*
X123594259Y-101705636D01*
X123514698Y-101586564D01*
X123413436Y-101485302D01*
X123294364Y-101405741D01*
X123162058Y-101350938D01*
X123021603Y-101323000D01*
X122878397Y-101323000D01*
X122737942Y-101350938D01*
X122605636Y-101405741D01*
X122486564Y-101485302D01*
X122385302Y-101586564D01*
X122305741Y-101705636D01*
X122250938Y-101837942D01*
X122223000Y-101978397D01*
X120977000Y-101978397D01*
X120949062Y-101837942D01*
X120894259Y-101705636D01*
X120814698Y-101586564D01*
X120713436Y-101485302D01*
X120594364Y-101405741D01*
X120477000Y-101357127D01*
X120477000Y-95301011D01*
X120485302Y-95313436D01*
X120586564Y-95414698D01*
X120705636Y-95494259D01*
X120837942Y-95549062D01*
X120978397Y-95577000D01*
X121121603Y-95577000D01*
X121262058Y-95549062D01*
X121394364Y-95494259D01*
X121513436Y-95414698D01*
X121614698Y-95313436D01*
X121694259Y-95194364D01*
X121749062Y-95062058D01*
X121750000Y-95057342D01*
X121750938Y-95062058D01*
X121805741Y-95194364D01*
X121885302Y-95313436D01*
X121986564Y-95414698D01*
X122105636Y-95494259D01*
X122237942Y-95549062D01*
X122378397Y-95577000D01*
X122521603Y-95577000D01*
X122662058Y-95549062D01*
X122794364Y-95494259D01*
X122913436Y-95414698D01*
X123014698Y-95313436D01*
X123094259Y-95194364D01*
X123123000Y-95124976D01*
X123123001Y-100697098D01*
X123120935Y-100718075D01*
X123123001Y-100739052D01*
X123123001Y-100739053D01*
X123129179Y-100801782D01*
X123146551Y-100859048D01*
X123153596Y-100882271D01*
X123193245Y-100956451D01*
X123233232Y-101005175D01*
X123233237Y-101005180D01*
X123246606Y-101021470D01*
X123262895Y-101034838D01*
X123585685Y-101357629D01*
X123577136Y-101400608D01*
X123577136Y-101543814D01*
X123605074Y-101684269D01*
X123659877Y-101816575D01*
X123739438Y-101935647D01*
X123840700Y-102036909D01*
X123959772Y-102116470D01*
X124092078Y-102171273D01*
X124232533Y-102199211D01*
X124375739Y-102199211D01*
X124516194Y-102171273D01*
X124648500Y-102116470D01*
X124767572Y-102036909D01*
X124868834Y-101935647D01*
X124948395Y-101816575D01*
X125003198Y-101684269D01*
X125031136Y-101543814D01*
X125031136Y-101400608D01*
X125003198Y-101260153D01*
X124969334Y-101178397D01*
X125069490Y-101178397D01*
X125069490Y-101321603D01*
X125097428Y-101462058D01*
X125152231Y-101594364D01*
X125231792Y-101713436D01*
X125333054Y-101814698D01*
X125452126Y-101894259D01*
X125584432Y-101949062D01*
X125724887Y-101977000D01*
X125868093Y-101977000D01*
X126008548Y-101949062D01*
X126140854Y-101894259D01*
X126259926Y-101814698D01*
X126361188Y-101713436D01*
X126440749Y-101594364D01*
X126495552Y-101462058D01*
X126523490Y-101321603D01*
X126523490Y-101178397D01*
X126495552Y-101037942D01*
X126470888Y-100978397D01*
X130123000Y-100978397D01*
X130123000Y-101121603D01*
X130150938Y-101262058D01*
X130205741Y-101394364D01*
X130285302Y-101513436D01*
X130386564Y-101614698D01*
X130505636Y-101694259D01*
X130637942Y-101749062D01*
X130778397Y-101777000D01*
X130921603Y-101777000D01*
X131062058Y-101749062D01*
X131194364Y-101694259D01*
X131313436Y-101614698D01*
X131414698Y-101513436D01*
X131494259Y-101394364D01*
X131549062Y-101262058D01*
X131577000Y-101121603D01*
X131577000Y-100978397D01*
X131549062Y-100837942D01*
X131494259Y-100705636D01*
X131414698Y-100586564D01*
X131313436Y-100485302D01*
X131194364Y-100405741D01*
X131062058Y-100350938D01*
X130921603Y-100323000D01*
X130778397Y-100323000D01*
X130637942Y-100350938D01*
X130505636Y-100405741D01*
X130386564Y-100485302D01*
X130285302Y-100586564D01*
X130205741Y-100705636D01*
X130150938Y-100837942D01*
X130123000Y-100978397D01*
X126470888Y-100978397D01*
X126440749Y-100905636D01*
X126361188Y-100786564D01*
X126259926Y-100685302D01*
X126140854Y-100605741D01*
X126008548Y-100550938D01*
X125868093Y-100523000D01*
X125724887Y-100523000D01*
X125584432Y-100550938D01*
X125452126Y-100605741D01*
X125333054Y-100685302D01*
X125231792Y-100786564D01*
X125152231Y-100905636D01*
X125097428Y-101037942D01*
X125069490Y-101178397D01*
X124969334Y-101178397D01*
X124948395Y-101127847D01*
X124868834Y-101008775D01*
X124767572Y-100907513D01*
X124648500Y-100827952D01*
X124516194Y-100773149D01*
X124375739Y-100745211D01*
X124232533Y-100745211D01*
X124189554Y-100753760D01*
X123977000Y-100541207D01*
X123977000Y-99254076D01*
X156823000Y-99254076D01*
X156823000Y-99485924D01*
X156868231Y-99713318D01*
X156956956Y-99927519D01*
X157085764Y-100120294D01*
X157249706Y-100284236D01*
X157442481Y-100413044D01*
X157656682Y-100501769D01*
X157884076Y-100547000D01*
X158115924Y-100547000D01*
X158343318Y-100501769D01*
X158557519Y-100413044D01*
X158750294Y-100284236D01*
X158914236Y-100120294D01*
X159043044Y-99927519D01*
X159131769Y-99713318D01*
X159177000Y-99485924D01*
X159177000Y-99254076D01*
X159131769Y-99026682D01*
X159043044Y-98812481D01*
X158914236Y-98619706D01*
X158750294Y-98455764D01*
X158557519Y-98326956D01*
X158343318Y-98238231D01*
X158115924Y-98193000D01*
X157884076Y-98193000D01*
X157656682Y-98238231D01*
X157442481Y-98326956D01*
X157249706Y-98455764D01*
X157085764Y-98619706D01*
X156956956Y-98812481D01*
X156868231Y-99026682D01*
X156823000Y-99254076D01*
X123977000Y-99254076D01*
X123977000Y-98749592D01*
X124088322Y-98840952D01*
X124231991Y-98917745D01*
X124387881Y-98965034D01*
X124550000Y-98981001D01*
X124712120Y-98965034D01*
X124868010Y-98917745D01*
X125011679Y-98840952D01*
X125137606Y-98737606D01*
X125240952Y-98611679D01*
X125317745Y-98468010D01*
X125365034Y-98312120D01*
X125377000Y-98190624D01*
X125377000Y-98128397D01*
X135473000Y-98128397D01*
X135473000Y-98271603D01*
X135500938Y-98412058D01*
X135555741Y-98544364D01*
X135635302Y-98663436D01*
X135736564Y-98764698D01*
X135855636Y-98844259D01*
X135987942Y-98899062D01*
X136128397Y-98927000D01*
X136271603Y-98927000D01*
X136412058Y-98899062D01*
X136544364Y-98844259D01*
X136663436Y-98764698D01*
X136764698Y-98663436D01*
X136844259Y-98544364D01*
X136899062Y-98412058D01*
X136927000Y-98271603D01*
X136927000Y-98128397D01*
X136899062Y-97987942D01*
X136844259Y-97855636D01*
X136764698Y-97736564D01*
X136663436Y-97635302D01*
X136544364Y-97555741D01*
X136412058Y-97500938D01*
X136271603Y-97473000D01*
X136128397Y-97473000D01*
X135987942Y-97500938D01*
X135855636Y-97555741D01*
X135736564Y-97635302D01*
X135635302Y-97736564D01*
X135555741Y-97855636D01*
X135500938Y-97987942D01*
X135473000Y-98128397D01*
X125377000Y-98128397D01*
X125377000Y-97178397D01*
X125523000Y-97178397D01*
X125523000Y-97321603D01*
X125550938Y-97462058D01*
X125605741Y-97594364D01*
X125685302Y-97713436D01*
X125786564Y-97814698D01*
X125905636Y-97894259D01*
X126037942Y-97949062D01*
X126178397Y-97977000D01*
X126321603Y-97977000D01*
X126462058Y-97949062D01*
X126594364Y-97894259D01*
X126713436Y-97814698D01*
X126814698Y-97713436D01*
X126894259Y-97594364D01*
X126949062Y-97462058D01*
X126977000Y-97321603D01*
X126977000Y-97178397D01*
X127623000Y-97178397D01*
X127623000Y-97321603D01*
X127650938Y-97462058D01*
X127705741Y-97594364D01*
X127785302Y-97713436D01*
X127886564Y-97814698D01*
X128005636Y-97894259D01*
X128137942Y-97949062D01*
X128278397Y-97977000D01*
X128421603Y-97977000D01*
X128562058Y-97949062D01*
X128694364Y-97894259D01*
X128813436Y-97814698D01*
X128914698Y-97713436D01*
X128994259Y-97594364D01*
X129049062Y-97462058D01*
X129077000Y-97321603D01*
X129077000Y-97178397D01*
X129049062Y-97037942D01*
X128994259Y-96905636D01*
X128925946Y-96803397D01*
X130798000Y-96803397D01*
X130798000Y-96946603D01*
X130825938Y-97087058D01*
X130880741Y-97219364D01*
X130960302Y-97338436D01*
X131061564Y-97439698D01*
X131180636Y-97519259D01*
X131312942Y-97574062D01*
X131453397Y-97602000D01*
X131596603Y-97602000D01*
X131737058Y-97574062D01*
X131869364Y-97519259D01*
X131988436Y-97439698D01*
X132049737Y-97378397D01*
X147623000Y-97378397D01*
X147623000Y-97521603D01*
X147650938Y-97662058D01*
X147705741Y-97794364D01*
X147785302Y-97913436D01*
X147886564Y-98014698D01*
X148005636Y-98094259D01*
X148137942Y-98149062D01*
X148278397Y-98177000D01*
X148421603Y-98177000D01*
X148562058Y-98149062D01*
X148694364Y-98094259D01*
X148813436Y-98014698D01*
X148914698Y-97913436D01*
X148994259Y-97794364D01*
X149049062Y-97662058D01*
X149077000Y-97521603D01*
X149077000Y-97378397D01*
X149049062Y-97237942D01*
X148994259Y-97105636D01*
X148914698Y-96986564D01*
X148813436Y-96885302D01*
X148694364Y-96805741D01*
X148562058Y-96750938D01*
X148421603Y-96723000D01*
X148278397Y-96723000D01*
X148137942Y-96750938D01*
X148005636Y-96805741D01*
X147886564Y-96885302D01*
X147785302Y-96986564D01*
X147705741Y-97105636D01*
X147650938Y-97237942D01*
X147623000Y-97378397D01*
X132049737Y-97378397D01*
X132089698Y-97338436D01*
X132169259Y-97219364D01*
X132224062Y-97087058D01*
X132252000Y-96946603D01*
X132252000Y-96803397D01*
X132234234Y-96714076D01*
X156823000Y-96714076D01*
X156823000Y-96945924D01*
X156868231Y-97173318D01*
X156956956Y-97387519D01*
X157085764Y-97580294D01*
X157249706Y-97744236D01*
X157442481Y-97873044D01*
X157656682Y-97961769D01*
X157884076Y-98007000D01*
X158115924Y-98007000D01*
X158343318Y-97961769D01*
X158557519Y-97873044D01*
X158750294Y-97744236D01*
X158914236Y-97580294D01*
X159043044Y-97387519D01*
X159131769Y-97173318D01*
X159177000Y-96945924D01*
X159177000Y-96714076D01*
X159131769Y-96486682D01*
X159086916Y-96378397D01*
X167423000Y-96378397D01*
X167423000Y-96521603D01*
X167450938Y-96662058D01*
X167505741Y-96794364D01*
X167585302Y-96913436D01*
X167686564Y-97014698D01*
X167805636Y-97094259D01*
X167937942Y-97149062D01*
X168078397Y-97177000D01*
X168221603Y-97177000D01*
X168362058Y-97149062D01*
X168494364Y-97094259D01*
X168613436Y-97014698D01*
X168714698Y-96913436D01*
X168794259Y-96794364D01*
X168849062Y-96662058D01*
X168877000Y-96521603D01*
X168877000Y-96378397D01*
X168849062Y-96237942D01*
X168794259Y-96105636D01*
X168714698Y-95986564D01*
X168613436Y-95885302D01*
X168494364Y-95805741D01*
X168362058Y-95750938D01*
X168221603Y-95723000D01*
X168078397Y-95723000D01*
X167937942Y-95750938D01*
X167805636Y-95805741D01*
X167686564Y-95885302D01*
X167585302Y-95986564D01*
X167505741Y-96105636D01*
X167450938Y-96237942D01*
X167423000Y-96378397D01*
X159086916Y-96378397D01*
X159043044Y-96272481D01*
X158914236Y-96079706D01*
X158750294Y-95915764D01*
X158557519Y-95786956D01*
X158343318Y-95698231D01*
X158115924Y-95653000D01*
X157884076Y-95653000D01*
X157656682Y-95698231D01*
X157442481Y-95786956D01*
X157249706Y-95915764D01*
X157085764Y-96079706D01*
X156956956Y-96272481D01*
X156868231Y-96486682D01*
X156823000Y-96714076D01*
X132234234Y-96714076D01*
X132224062Y-96662942D01*
X132169259Y-96530636D01*
X132089698Y-96411564D01*
X131988436Y-96310302D01*
X131869364Y-96230741D01*
X131737058Y-96175938D01*
X131596603Y-96148000D01*
X131453397Y-96148000D01*
X131312942Y-96175938D01*
X131180636Y-96230741D01*
X131061564Y-96310302D01*
X130960302Y-96411564D01*
X130880741Y-96530636D01*
X130825938Y-96662942D01*
X130798000Y-96803397D01*
X128925946Y-96803397D01*
X128914698Y-96786564D01*
X128813436Y-96685302D01*
X128694364Y-96605741D01*
X128562058Y-96550938D01*
X128421603Y-96523000D01*
X128278397Y-96523000D01*
X128137942Y-96550938D01*
X128005636Y-96605741D01*
X127886564Y-96685302D01*
X127785302Y-96786564D01*
X127705741Y-96905636D01*
X127650938Y-97037942D01*
X127623000Y-97178397D01*
X126977000Y-97178397D01*
X126949062Y-97037942D01*
X126894259Y-96905636D01*
X126814698Y-96786564D01*
X126713436Y-96685302D01*
X126594364Y-96605741D01*
X126462058Y-96550938D01*
X126321603Y-96523000D01*
X126178397Y-96523000D01*
X126037942Y-96550938D01*
X125905636Y-96605741D01*
X125786564Y-96685302D01*
X125685302Y-96786564D01*
X125605741Y-96905636D01*
X125550938Y-97037942D01*
X125523000Y-97178397D01*
X125377000Y-97178397D01*
X125377000Y-95278397D01*
X126523000Y-95278397D01*
X126523000Y-95421603D01*
X126550938Y-95562058D01*
X126605741Y-95694364D01*
X126685302Y-95813436D01*
X126786564Y-95914698D01*
X126905636Y-95994259D01*
X127037942Y-96049062D01*
X127178397Y-96077000D01*
X127321603Y-96077000D01*
X127462058Y-96049062D01*
X127594364Y-95994259D01*
X127713436Y-95914698D01*
X127814698Y-95813436D01*
X127894259Y-95694364D01*
X127949062Y-95562058D01*
X127977000Y-95421603D01*
X127977000Y-95278397D01*
X127949062Y-95137942D01*
X127894259Y-95005636D01*
X127814698Y-94886564D01*
X127713436Y-94785302D01*
X127594364Y-94705741D01*
X127462058Y-94650938D01*
X127321603Y-94623000D01*
X127178397Y-94623000D01*
X127037942Y-94650938D01*
X126905636Y-94705741D01*
X126786564Y-94785302D01*
X126685302Y-94886564D01*
X126605741Y-95005636D01*
X126550938Y-95137942D01*
X126523000Y-95278397D01*
X125377000Y-95278397D01*
X125377000Y-94277000D01*
X154207446Y-94277000D01*
X154776503Y-94846058D01*
G37*
G04 #@! TD.AperFunction*
M02*
