G04 #@! TF.GenerationSoftware,KiCad,Pcbnew,(5.1.10-1-10_14)*
G04 #@! TF.CreationDate,2021-08-04T20:57:59+10:00*
G04 #@! TF.ProjectId,esp32_battery_isolator,65737033-325f-4626-9174-746572795f69,D*
G04 #@! TF.SameCoordinates,Original*
G04 #@! TF.FileFunction,Soldermask,Bot*
G04 #@! TF.FilePolarity,Negative*
%FSLAX46Y46*%
G04 Gerber Fmt 4.6, Leading zero omitted, Abs format (unit mm)*
G04 Created by KiCad (PCBNEW (5.1.10-1-10_14)) date 2021-08-04 20:57:59*
%MOMM*%
%LPD*%
G01*
G04 APERTURE LIST*
%ADD10C,3.716000*%
%ADD11O,2.600000X1.300000*%
%ADD12O,1.300000X2.600000*%
%ADD13O,1.200000X2.400000*%
%ADD14R,3.716000X3.716000*%
%ADD15O,1.900000X1.070000*%
%ADD16C,1.300000*%
%ADD17C,0.800000*%
%ADD18C,6.400000*%
%ADD19R,1.700000X1.700000*%
%ADD20O,1.700000X1.700000*%
%ADD21O,2.400000X1.200000*%
G04 APERTURE END LIST*
D10*
X167250000Y-113150000D03*
X167250000Y-105950000D03*
D11*
X173250000Y-116300000D03*
X173250000Y-102800000D03*
D12*
X166420000Y-129120000D03*
X152920000Y-129120000D03*
D10*
X163270000Y-123120000D03*
X156070000Y-123120000D03*
D13*
X116900000Y-129160000D03*
X130400000Y-129160000D03*
D10*
X120050000Y-123160000D03*
D14*
X127250000Y-123160000D03*
D15*
X174050000Y-88750000D03*
X173950000Y-95950000D03*
D16*
X171050000Y-89950000D03*
X171050000Y-94750000D03*
D17*
X112847056Y-129152944D03*
X111150000Y-128450000D03*
X109452944Y-129152944D03*
X108750000Y-130850000D03*
X109452944Y-132547056D03*
X111150000Y-133250000D03*
X112847056Y-132547056D03*
X113550000Y-130850000D03*
D18*
X111150000Y-130850000D03*
D17*
X173647056Y-76852944D03*
X171950000Y-76150000D03*
X170252944Y-76852944D03*
X169550000Y-78550000D03*
X170252944Y-80247056D03*
X171950000Y-80950000D03*
X173647056Y-80247056D03*
X174350000Y-78550000D03*
D18*
X171950000Y-78550000D03*
X171950000Y-130850000D03*
D17*
X174350000Y-130850000D03*
X173647056Y-132547056D03*
X171950000Y-133250000D03*
X170252944Y-132547056D03*
X169550000Y-130850000D03*
X170252944Y-129152944D03*
X171950000Y-128450000D03*
X173647056Y-129152944D03*
X112847056Y-76952944D03*
X111150000Y-76250000D03*
X109452944Y-76952944D03*
X108750000Y-78650000D03*
X109452944Y-80347056D03*
X111150000Y-81050000D03*
X112847056Y-80347056D03*
X113550000Y-78650000D03*
D18*
X111150000Y-78650000D03*
D19*
X160150000Y-90350000D03*
D20*
X160150000Y-92890000D03*
X160150000Y-95430000D03*
X160150000Y-97970000D03*
D14*
X118150000Y-94550000D03*
D10*
X118150000Y-87350000D03*
D21*
X112150000Y-97700000D03*
X112150000Y-84200000D03*
X112150000Y-101500000D03*
X112150000Y-115000000D03*
D10*
X118150000Y-104650000D03*
D14*
X118150000Y-111850000D03*
D12*
X148400000Y-129150000D03*
X134900000Y-129150000D03*
D10*
X145250000Y-123150000D03*
X138050000Y-123150000D03*
M02*
