G04 #@! TF.GenerationSoftware,KiCad,Pcbnew,(6.0.0-rc1-314-g10be483430)*
G04 #@! TF.CreationDate,2021-12-09T18:26:48+11:00*
G04 #@! TF.ProjectId,esp32_battery_isolator,65737033-325f-4626-9174-746572795f69,G*
G04 #@! TF.SameCoordinates,Original*
G04 #@! TF.FileFunction,Copper,L1,Top*
G04 #@! TF.FilePolarity,Positive*
%FSLAX46Y46*%
G04 Gerber Fmt 4.6, Leading zero omitted, Abs format (unit mm)*
G04 Created by KiCad (PCBNEW (6.0.0-rc1-314-g10be483430)) date 2021-12-09 18:26:48*
%MOMM*%
%LPD*%
G01*
G04 APERTURE LIST*
G04 Aperture macros list*
%AMRoundRect*
0 Rectangle with rounded corners*
0 $1 Rounding radius*
0 $2 $3 $4 $5 $6 $7 $8 $9 X,Y pos of 4 corners*
0 Add a 4 corners polygon primitive as box body*
4,1,4,$2,$3,$4,$5,$6,$7,$8,$9,$2,$3,0*
0 Add four circle primitives for the rounded corners*
1,1,$1+$1,$2,$3*
1,1,$1+$1,$4,$5*
1,1,$1+$1,$6,$7*
1,1,$1+$1,$8,$9*
0 Add four rect primitives between the rounded corners*
20,1,$1+$1,$2,$3,$4,$5,0*
20,1,$1+$1,$4,$5,$6,$7,0*
20,1,$1+$1,$6,$7,$8,$9,0*
20,1,$1+$1,$8,$9,$2,$3,0*%
%AMFreePoly0*
4,1,9,2.975000,-2.350000,1.425000,-2.350000,1.425000,-2.100000,-1.650000,-2.100000,-1.650000,2.100000,1.425000,2.100000,1.425000,2.350000,2.975000,2.350000,2.975000,-2.350000,2.975000,-2.350000,$1*%
G04 Aperture macros list end*
G04 #@! TA.AperFunction,ComponentPad*
%ADD10C,2.000000*%
G04 #@! TD*
G04 #@! TA.AperFunction,ComponentPad*
%ADD11C,15.000000*%
G04 #@! TD*
G04 #@! TA.AperFunction,SMDPad,CuDef*
%ADD12R,1.400000X1.000000*%
G04 #@! TD*
G04 #@! TA.AperFunction,SMDPad,CuDef*
%ADD13RoundRect,0.250000X0.925000X-0.412500X0.925000X0.412500X-0.925000X0.412500X-0.925000X-0.412500X0*%
G04 #@! TD*
G04 #@! TA.AperFunction,SMDPad,CuDef*
%ADD14R,0.800000X0.900000*%
G04 #@! TD*
G04 #@! TA.AperFunction,SMDPad,CuDef*
%ADD15R,0.350000X0.500000*%
G04 #@! TD*
G04 #@! TA.AperFunction,SMDPad,CuDef*
%ADD16R,0.400000X0.300000*%
G04 #@! TD*
G04 #@! TA.AperFunction,SMDPad,CuDef*
%ADD17R,0.380000X0.430000*%
G04 #@! TD*
G04 #@! TA.AperFunction,SMDPad,CuDef*
%ADD18R,2.450000X1.980000*%
G04 #@! TD*
G04 #@! TA.AperFunction,SMDPad,CuDef*
%ADD19RoundRect,0.100000X-0.637500X-0.100000X0.637500X-0.100000X0.637500X0.100000X-0.637500X0.100000X0*%
G04 #@! TD*
G04 #@! TA.AperFunction,ComponentPad*
%ADD20C,0.800000*%
G04 #@! TD*
G04 #@! TA.AperFunction,ComponentPad*
%ADD21C,6.400000*%
G04 #@! TD*
G04 #@! TA.AperFunction,SMDPad,CuDef*
%ADD22RoundRect,0.200000X-0.200000X-0.275000X0.200000X-0.275000X0.200000X0.275000X-0.200000X0.275000X0*%
G04 #@! TD*
G04 #@! TA.AperFunction,SMDPad,CuDef*
%ADD23R,0.700000X1.150000*%
G04 #@! TD*
G04 #@! TA.AperFunction,SMDPad,CuDef*
%ADD24FreePoly0,90.000000*%
G04 #@! TD*
G04 #@! TA.AperFunction,SMDPad,CuDef*
%ADD25R,3.300000X2.500000*%
G04 #@! TD*
G04 #@! TA.AperFunction,SMDPad,CuDef*
%ADD26RoundRect,0.484848X2.473624X-0.696188X2.086336X1.500232X-2.473624X0.696188X-2.086336X-1.500232X0*%
G04 #@! TD*
G04 #@! TA.AperFunction,SMDPad,CuDef*
%ADD27RoundRect,0.225000X-0.225000X-0.250000X0.225000X-0.250000X0.225000X0.250000X-0.225000X0.250000X0*%
G04 #@! TD*
G04 #@! TA.AperFunction,SMDPad,CuDef*
%ADD28RoundRect,0.150000X-0.150000X-0.625000X0.150000X-0.625000X0.150000X0.625000X-0.150000X0.625000X0*%
G04 #@! TD*
G04 #@! TA.AperFunction,SMDPad,CuDef*
%ADD29RoundRect,0.250000X-0.350000X-0.650000X0.350000X-0.650000X0.350000X0.650000X-0.350000X0.650000X0*%
G04 #@! TD*
G04 #@! TA.AperFunction,SMDPad,CuDef*
%ADD30RoundRect,0.484848X2.425591X0.848528X0.848528X2.425591X-2.425591X-0.848528X-0.848528X-2.425591X0*%
G04 #@! TD*
G04 #@! TA.AperFunction,SMDPad,CuDef*
%ADD31R,1.060000X0.400000*%
G04 #@! TD*
G04 #@! TA.AperFunction,SMDPad,CuDef*
%ADD32R,0.900000X1.200000*%
G04 #@! TD*
G04 #@! TA.AperFunction,SMDPad,CuDef*
%ADD33RoundRect,0.225000X-0.250000X0.225000X-0.250000X-0.225000X0.250000X-0.225000X0.250000X0.225000X0*%
G04 #@! TD*
G04 #@! TA.AperFunction,SMDPad,CuDef*
%ADD34RoundRect,0.200000X-0.275000X0.200000X-0.275000X-0.200000X0.275000X-0.200000X0.275000X0.200000X0*%
G04 #@! TD*
G04 #@! TA.AperFunction,SMDPad,CuDef*
%ADD35RoundRect,0.218750X-0.218750X-0.256250X0.218750X-0.256250X0.218750X0.256250X-0.218750X0.256250X0*%
G04 #@! TD*
G04 #@! TA.AperFunction,SMDPad,CuDef*
%ADD36RoundRect,0.250000X1.412500X0.550000X-1.412500X0.550000X-1.412500X-0.550000X1.412500X-0.550000X0*%
G04 #@! TD*
G04 #@! TA.AperFunction,SMDPad,CuDef*
%ADD37RoundRect,0.150000X0.150000X-0.825000X0.150000X0.825000X-0.150000X0.825000X-0.150000X-0.825000X0*%
G04 #@! TD*
G04 #@! TA.AperFunction,SMDPad,CuDef*
%ADD38RoundRect,0.484848X-2.315152X1.115152X-2.315152X-1.115152X2.315152X-1.115152X2.315152X1.115152X0*%
G04 #@! TD*
G04 #@! TA.AperFunction,SMDPad,CuDef*
%ADD39RoundRect,0.250000X0.412500X0.925000X-0.412500X0.925000X-0.412500X-0.925000X0.412500X-0.925000X0*%
G04 #@! TD*
G04 #@! TA.AperFunction,SMDPad,CuDef*
%ADD40FreePoly0,270.000000*%
G04 #@! TD*
G04 #@! TA.AperFunction,SMDPad,CuDef*
%ADD41RoundRect,0.200000X0.200000X0.275000X-0.200000X0.275000X-0.200000X-0.275000X0.200000X-0.275000X0*%
G04 #@! TD*
G04 #@! TA.AperFunction,SMDPad,CuDef*
%ADD42R,2.000000X0.900000*%
G04 #@! TD*
G04 #@! TA.AperFunction,SMDPad,CuDef*
%ADD43R,0.900000X2.000000*%
G04 #@! TD*
G04 #@! TA.AperFunction,SMDPad,CuDef*
%ADD44R,5.000000X5.000000*%
G04 #@! TD*
G04 #@! TA.AperFunction,SMDPad,CuDef*
%ADD45RoundRect,0.250000X0.475000X-0.250000X0.475000X0.250000X-0.475000X0.250000X-0.475000X-0.250000X0*%
G04 #@! TD*
G04 #@! TA.AperFunction,SMDPad,CuDef*
%ADD46R,1.450000X0.600000*%
G04 #@! TD*
G04 #@! TA.AperFunction,SMDPad,CuDef*
%ADD47R,1.450000X0.300000*%
G04 #@! TD*
G04 #@! TA.AperFunction,ComponentPad*
%ADD48O,1.600000X1.000000*%
G04 #@! TD*
G04 #@! TA.AperFunction,ComponentPad*
%ADD49O,2.100000X1.000000*%
G04 #@! TD*
G04 #@! TA.AperFunction,SMDPad,CuDef*
%ADD50RoundRect,0.225000X0.250000X-0.225000X0.250000X0.225000X-0.250000X0.225000X-0.250000X-0.225000X0*%
G04 #@! TD*
G04 #@! TA.AperFunction,SMDPad,CuDef*
%ADD51RoundRect,0.225000X0.225000X0.250000X-0.225000X0.250000X-0.225000X-0.250000X0.225000X-0.250000X0*%
G04 #@! TD*
G04 #@! TA.AperFunction,SMDPad,CuDef*
%ADD52RoundRect,0.484848X2.315152X-1.115152X2.315152X1.115152X-2.315152X1.115152X-2.315152X-1.115152X0*%
G04 #@! TD*
G04 #@! TA.AperFunction,SMDPad,CuDef*
%ADD53R,1.800000X2.500000*%
G04 #@! TD*
G04 #@! TA.AperFunction,SMDPad,CuDef*
%ADD54RoundRect,0.150000X-0.825000X-0.150000X0.825000X-0.150000X0.825000X0.150000X-0.825000X0.150000X0*%
G04 #@! TD*
G04 #@! TA.AperFunction,SMDPad,CuDef*
%ADD55R,1.300000X1.300000*%
G04 #@! TD*
G04 #@! TA.AperFunction,SMDPad,CuDef*
%ADD56R,5.100000X2.350000*%
G04 #@! TD*
G04 #@! TA.AperFunction,ViaPad*
%ADD57C,0.600000*%
G04 #@! TD*
G04 #@! TA.AperFunction,ViaPad*
%ADD58C,2.000000*%
G04 #@! TD*
G04 #@! TA.AperFunction,ViaPad*
%ADD59C,0.800000*%
G04 #@! TD*
G04 #@! TA.AperFunction,ViaPad*
%ADD60C,1.000000*%
G04 #@! TD*
G04 #@! TA.AperFunction,Conductor*
%ADD61C,0.300000*%
G04 #@! TD*
G04 #@! TA.AperFunction,Conductor*
%ADD62C,0.500000*%
G04 #@! TD*
G04 #@! TA.AperFunction,Conductor*
%ADD63C,1.500000*%
G04 #@! TD*
G04 #@! TA.AperFunction,Conductor*
%ADD64C,0.200000*%
G04 #@! TD*
G04 #@! TA.AperFunction,Conductor*
%ADD65C,0.600000*%
G04 #@! TD*
G04 APERTURE END LIST*
D10*
X183450000Y-128550000D03*
X183450000Y-119750000D03*
X187650000Y-130150000D03*
X191850000Y-119750000D03*
X191850000Y-128550000D03*
X187650000Y-118150000D03*
D11*
X187650000Y-124150000D03*
D10*
X181650000Y-124150000D03*
X193650000Y-124150000D03*
D12*
X190050000Y-60250000D03*
X196350000Y-60250000D03*
X196350000Y-63250000D03*
X190050000Y-63250000D03*
D13*
X162250000Y-57787500D03*
X162250000Y-54712500D03*
D14*
X162800000Y-67050000D03*
X160900000Y-67050000D03*
X161850000Y-69050000D03*
D15*
X185175000Y-97225000D03*
D16*
X185175000Y-100125000D03*
X187125000Y-100125000D03*
X186475000Y-100125000D03*
D17*
X187565000Y-98625000D03*
D18*
X186150000Y-98985000D03*
D16*
X185825000Y-100125000D03*
D17*
X184735000Y-98625000D03*
D15*
X186475000Y-97225000D03*
X185825000Y-97225000D03*
X187125000Y-97225000D03*
D19*
X124787500Y-63875000D03*
X124787500Y-64525000D03*
X124787500Y-65175000D03*
X124787500Y-65825000D03*
X124787500Y-66475000D03*
X124787500Y-67125000D03*
X124787500Y-67775000D03*
X124787500Y-68425000D03*
X130512500Y-68425000D03*
X130512500Y-67775000D03*
X130512500Y-67125000D03*
X130512500Y-66475000D03*
X130512500Y-65825000D03*
X130512500Y-65175000D03*
X130512500Y-64525000D03*
X130512500Y-63875000D03*
D20*
X170150000Y-127650000D03*
X171847056Y-131747056D03*
X168452944Y-131747056D03*
X171847056Y-128352944D03*
X170150000Y-132450000D03*
X167750000Y-130050000D03*
D21*
X170150000Y-130050000D03*
D20*
X172550000Y-130050000D03*
X168452944Y-128352944D03*
D22*
X165125000Y-57350000D03*
X166775000Y-57350000D03*
D23*
X155810000Y-81020000D03*
D24*
X153900000Y-77750000D03*
D23*
X153260000Y-81020000D03*
X151990000Y-81020000D03*
X154540000Y-81020000D03*
D25*
X163450000Y-132350000D03*
X163450000Y-125550000D03*
D22*
X187225000Y-92150000D03*
X188875000Y-92150000D03*
D10*
X121850000Y-49750000D03*
X123650000Y-54150000D03*
X113450000Y-49750000D03*
X111650000Y-54150000D03*
X117650000Y-60150000D03*
X117650000Y-48150000D03*
X113450000Y-58550000D03*
X121850000Y-58550000D03*
D11*
X117650000Y-54150000D03*
D26*
X132948782Y-58980116D03*
X131351218Y-49919884D03*
D22*
X165125000Y-69450000D03*
X166775000Y-69450000D03*
D27*
X109275000Y-77750000D03*
X110825000Y-77750000D03*
D12*
X196350000Y-65750000D03*
X190050000Y-65750000D03*
X196350000Y-68750000D03*
X190050000Y-68750000D03*
D28*
X163850000Y-76950000D03*
X164850000Y-76950000D03*
X165850000Y-76950000D03*
D29*
X167150000Y-80825000D03*
X162550000Y-80825000D03*
D30*
X141152691Y-86402691D03*
X134647309Y-79897309D03*
D27*
X134235000Y-123040000D03*
X135785000Y-123040000D03*
X158100000Y-46450000D03*
X159650000Y-46450000D03*
D31*
X168300000Y-119170000D03*
X168300000Y-119820000D03*
X168300000Y-120480000D03*
X168300000Y-121130000D03*
X170500000Y-121130000D03*
X170500000Y-120480000D03*
X170500000Y-119820000D03*
X170500000Y-119170000D03*
D32*
X163300000Y-74350000D03*
X166600000Y-74350000D03*
D14*
X110850000Y-107650000D03*
X108950000Y-107650000D03*
X109900000Y-109650000D03*
X147600000Y-103900000D03*
X145700000Y-103900000D03*
X146650000Y-105900000D03*
D33*
X188950000Y-78075000D03*
X188950000Y-79625000D03*
D10*
X148450000Y-128550000D03*
X158650000Y-124150000D03*
X156850000Y-128550000D03*
X152650000Y-118150000D03*
X148450000Y-119750000D03*
X156850000Y-119750000D03*
X146650000Y-124150000D03*
X152650000Y-130150000D03*
D11*
X152650000Y-124150000D03*
D15*
X116375000Y-97125000D03*
D17*
X118765000Y-98525000D03*
D16*
X117025000Y-100025000D03*
X116375000Y-100025000D03*
D18*
X117350000Y-98885000D03*
D17*
X115935000Y-98525000D03*
D16*
X117675000Y-100025000D03*
X118325000Y-100025000D03*
D15*
X117675000Y-97125000D03*
X118325000Y-97125000D03*
X117025000Y-97125000D03*
D32*
X185000000Y-86650000D03*
X188300000Y-86650000D03*
D34*
X109350000Y-63125000D03*
X109350000Y-64775000D03*
D15*
X152925000Y-97125000D03*
D16*
X154875000Y-100025000D03*
X154225000Y-100025000D03*
X153575000Y-100025000D03*
D18*
X153900000Y-98885000D03*
D17*
X155315000Y-98525000D03*
D16*
X152925000Y-100025000D03*
D17*
X152485000Y-98525000D03*
D15*
X154225000Y-97125000D03*
X153575000Y-97125000D03*
X154875000Y-97125000D03*
D35*
X188862500Y-52650000D03*
X190437500Y-52650000D03*
D36*
X153187500Y-48150000D03*
X148112500Y-48150000D03*
D14*
X168600000Y-76350000D03*
X170500000Y-76350000D03*
X169550000Y-74350000D03*
D31*
X133910000Y-119310000D03*
X133910000Y-119960000D03*
X133910000Y-120620000D03*
X133910000Y-121270000D03*
X136110000Y-121270000D03*
X136110000Y-120620000D03*
X136110000Y-119960000D03*
X136110000Y-119310000D03*
D27*
X139575000Y-122900000D03*
X141125000Y-122900000D03*
D31*
X109050000Y-74070000D03*
X109050000Y-74720000D03*
X109050000Y-75380000D03*
X109050000Y-76030000D03*
X111250000Y-76030000D03*
X111250000Y-75380000D03*
X111250000Y-74720000D03*
X111250000Y-74070000D03*
D27*
X168875000Y-122900000D03*
X170425000Y-122900000D03*
D37*
X190745000Y-83025000D03*
X192015000Y-83025000D03*
X193285000Y-83025000D03*
X194555000Y-83025000D03*
X194555000Y-78075000D03*
X193285000Y-78075000D03*
X192015000Y-78075000D03*
X190745000Y-78075000D03*
D36*
X143487500Y-48150000D03*
X138412500Y-48150000D03*
D38*
X154650000Y-104150000D03*
X154650000Y-113350000D03*
D33*
X122650000Y-64375000D03*
X122650000Y-65925000D03*
D22*
X188575000Y-54150000D03*
X190225000Y-54150000D03*
D39*
X119787500Y-66450000D03*
X116712500Y-66450000D03*
D23*
X134090000Y-64780000D03*
D40*
X136000000Y-68050000D03*
D23*
X136640000Y-64780000D03*
X137910000Y-64780000D03*
X135360000Y-64780000D03*
D34*
X111050000Y-63125000D03*
X111050000Y-64775000D03*
D23*
X145890000Y-64730000D03*
D40*
X147800000Y-68000000D03*
D23*
X149710000Y-64730000D03*
X147160000Y-64730000D03*
X148440000Y-64730000D03*
D41*
X166775000Y-61750000D03*
X165125000Y-61750000D03*
D34*
X173450000Y-73125000D03*
X173450000Y-74775000D03*
D25*
X128850000Y-131950000D03*
X128850000Y-125150000D03*
X176850000Y-132350000D03*
X176850000Y-125550000D03*
D27*
X128800000Y-122950000D03*
X130350000Y-122950000D03*
D10*
X135650000Y-100050000D03*
X139850000Y-110450000D03*
X139850000Y-101650000D03*
X141650000Y-106050000D03*
X131450000Y-110450000D03*
X135650000Y-112050000D03*
X131450000Y-101650000D03*
D11*
X135650000Y-106050000D03*
D10*
X129650000Y-106050000D03*
D14*
X178700000Y-101850000D03*
X180600000Y-101850000D03*
X179650000Y-99850000D03*
D22*
X165125000Y-63250000D03*
X166775000Y-63250000D03*
D14*
X184000000Y-74750000D03*
X182100000Y-74750000D03*
X183050000Y-76750000D03*
X180600000Y-103750000D03*
X178700000Y-103750000D03*
X179650000Y-105750000D03*
D38*
X116350000Y-104250000D03*
X116350000Y-113450000D03*
D22*
X168725000Y-78050000D03*
X170375000Y-78050000D03*
X128150000Y-71300000D03*
X129800000Y-71300000D03*
D41*
X126500000Y-71300000D03*
X124850000Y-71300000D03*
D33*
X122650000Y-67625000D03*
X122650000Y-69175000D03*
D20*
X114450000Y-69850000D03*
X112050000Y-67450000D03*
D21*
X112050000Y-69850000D03*
D20*
X113747056Y-71547056D03*
X110352944Y-71547056D03*
X112050000Y-72250000D03*
X113747056Y-68152944D03*
X110352944Y-68152944D03*
X109650000Y-69850000D03*
D10*
X169650000Y-100150000D03*
X169650000Y-112150000D03*
X163650000Y-106150000D03*
X165450000Y-101750000D03*
D11*
X169650000Y-106150000D03*
D10*
X173850000Y-110550000D03*
X165450000Y-110550000D03*
X175650000Y-106150000D03*
X173850000Y-101750000D03*
D31*
X128700000Y-119370000D03*
X128700000Y-120020000D03*
X128700000Y-120680000D03*
X128700000Y-121330000D03*
X130900000Y-121330000D03*
X130900000Y-120680000D03*
X130900000Y-120020000D03*
X130900000Y-119370000D03*
D42*
X169400000Y-52895000D03*
X169400000Y-54165000D03*
X169400000Y-55435000D03*
X169400000Y-56705000D03*
X169400000Y-57975000D03*
X169400000Y-59245000D03*
X169400000Y-60515000D03*
X169400000Y-61785000D03*
X169400000Y-63055000D03*
X169400000Y-64325000D03*
X169400000Y-65595000D03*
X169400000Y-66865000D03*
X169400000Y-68135000D03*
X169400000Y-69405000D03*
D43*
X172185000Y-70405000D03*
X173455000Y-70405000D03*
X174725000Y-70405000D03*
X175995000Y-70405000D03*
X177265000Y-70405000D03*
X178535000Y-70405000D03*
X179805000Y-70405000D03*
X181075000Y-70405000D03*
X182345000Y-70405000D03*
X183615000Y-70405000D03*
D42*
X186400000Y-69405000D03*
X186400000Y-68135000D03*
X186400000Y-66865000D03*
X186400000Y-65595000D03*
X186400000Y-64325000D03*
X186400000Y-63055000D03*
X186400000Y-61785000D03*
X186400000Y-60515000D03*
X186400000Y-59245000D03*
X186400000Y-57975000D03*
X186400000Y-56705000D03*
X186400000Y-55435000D03*
X186400000Y-54165000D03*
X186400000Y-52895000D03*
D44*
X176900000Y-60395000D03*
D45*
X165250000Y-55700000D03*
X165250000Y-53800000D03*
D31*
X145250000Y-52770000D03*
X145250000Y-53420000D03*
X145250000Y-54080000D03*
X145250000Y-54730000D03*
X147450000Y-54730000D03*
X147450000Y-54080000D03*
X147450000Y-53420000D03*
X147450000Y-52770000D03*
X139050000Y-119170000D03*
X139050000Y-119820000D03*
X139050000Y-120480000D03*
X139050000Y-121130000D03*
X141250000Y-121130000D03*
X141250000Y-120480000D03*
X141250000Y-119820000D03*
X141250000Y-119170000D03*
D46*
X190665000Y-94100000D03*
X190665000Y-93300000D03*
D47*
X190665000Y-92100000D03*
X190665000Y-91100000D03*
X190665000Y-90600000D03*
X190665000Y-89600000D03*
D46*
X190665000Y-88400000D03*
X190665000Y-87600000D03*
X190665000Y-87600000D03*
X190665000Y-88400000D03*
D47*
X190665000Y-89100000D03*
X190665000Y-90100000D03*
X190665000Y-91600000D03*
X190665000Y-92600000D03*
D46*
X190665000Y-93300000D03*
X190665000Y-94100000D03*
D48*
X195760000Y-95170000D03*
D49*
X191580000Y-95170000D03*
X191580000Y-86530000D03*
D48*
X195760000Y-86530000D03*
D41*
X129800000Y-72900000D03*
X128150000Y-72900000D03*
D14*
X147600000Y-107650000D03*
X145700000Y-107650000D03*
X146650000Y-109650000D03*
D20*
X135650000Y-132350000D03*
X133952944Y-131647056D03*
X135650000Y-127550000D03*
X137347056Y-128252944D03*
D21*
X135650000Y-129950000D03*
D20*
X133952944Y-128252944D03*
X138050000Y-129950000D03*
X137347056Y-131647056D03*
X133250000Y-129950000D03*
D14*
X160400000Y-64050000D03*
X158500000Y-64050000D03*
X159450000Y-66050000D03*
D50*
X167250000Y-54325000D03*
X167250000Y-52775000D03*
D14*
X180600000Y-107450000D03*
X178700000Y-107450000D03*
X179650000Y-109450000D03*
D10*
X113450000Y-89050000D03*
X123650000Y-84650000D03*
X113450000Y-80250000D03*
X111650000Y-84650000D03*
D11*
X117650000Y-84650000D03*
D10*
X117650000Y-90650000D03*
X121850000Y-89050000D03*
X121850000Y-80250000D03*
X117650000Y-78650000D03*
D27*
X145275000Y-56600000D03*
X146825000Y-56600000D03*
D38*
X188150000Y-104150000D03*
X188150000Y-113350000D03*
D14*
X108950000Y-102050000D03*
X110850000Y-102050000D03*
X109900000Y-100050000D03*
D22*
X187225000Y-89150000D03*
X188875000Y-89150000D03*
D34*
X187050000Y-77975000D03*
X187050000Y-79625000D03*
D51*
X166725000Y-58950000D03*
X165175000Y-58950000D03*
D14*
X110850000Y-103850000D03*
X108950000Y-103850000D03*
X109900000Y-105850000D03*
D30*
X135152691Y-92402691D03*
X128647309Y-85897309D03*
D14*
X145700000Y-101900000D03*
X147600000Y-101900000D03*
X146650000Y-99900000D03*
D52*
X124050000Y-107650000D03*
X124050000Y-98450000D03*
D26*
X141848782Y-63180116D03*
X140251218Y-54119884D03*
D53*
X157650000Y-58650000D03*
X157650000Y-54650000D03*
D22*
X124850000Y-72900000D03*
X126500000Y-72900000D03*
D14*
X156200000Y-64050000D03*
X154300000Y-64050000D03*
X155250000Y-66050000D03*
D54*
X156575000Y-48045000D03*
X156575000Y-49315000D03*
X156575000Y-50585000D03*
X156575000Y-51855000D03*
X161525000Y-51855000D03*
X161525000Y-50585000D03*
X161525000Y-49315000D03*
X161525000Y-48045000D03*
D20*
X192452944Y-56847056D03*
X194150000Y-57550000D03*
X194150000Y-52750000D03*
X191750000Y-55150000D03*
D21*
X194150000Y-55150000D03*
D20*
X192452944Y-53452944D03*
X195847056Y-56847056D03*
X196550000Y-55150000D03*
X195847056Y-53452944D03*
D39*
X119787500Y-69950000D03*
X116712500Y-69950000D03*
D10*
X121850000Y-128550000D03*
X117650000Y-118150000D03*
X113450000Y-119750000D03*
X113450000Y-128550000D03*
X123650000Y-124150000D03*
X111650000Y-124150000D03*
D11*
X117650000Y-124150000D03*
D10*
X121850000Y-119750000D03*
X117650000Y-130150000D03*
D55*
X179600000Y-73700000D03*
X175800000Y-77600000D03*
X175800000Y-73700000D03*
D23*
X146960000Y-81111079D03*
D24*
X145050000Y-77841079D03*
D23*
X143140000Y-81111079D03*
X144410000Y-81111079D03*
X145690000Y-81111079D03*
D33*
X196350000Y-78075000D03*
X196350000Y-79625000D03*
D56*
X151550000Y-53475000D03*
X151550000Y-57625000D03*
D41*
X166775000Y-67950000D03*
X165125000Y-67950000D03*
D57*
X171350000Y-76350000D03*
X121650000Y-69150000D03*
X178550000Y-61750000D03*
X178450000Y-108650000D03*
X159850000Y-49350000D03*
X175250000Y-58850000D03*
X123850000Y-68750000D03*
X142450000Y-119850000D03*
X155950000Y-55150000D03*
X165150000Y-59850000D03*
X182050000Y-73650000D03*
X147450000Y-51950000D03*
X163250000Y-51350000D03*
X195050000Y-63250000D03*
X148150000Y-47050000D03*
X175250000Y-61750000D03*
X188950000Y-80550000D03*
X123950000Y-71250000D03*
D58*
X176250000Y-99550000D03*
D57*
X136950000Y-47150000D03*
X159850000Y-48050000D03*
X189650000Y-86450000D03*
X178550000Y-58850000D03*
X178450000Y-104750000D03*
X195050000Y-68750000D03*
X184350000Y-52850000D03*
X193050000Y-94065000D03*
X139850000Y-47050000D03*
X159850000Y-51850000D03*
X155950000Y-53750000D03*
X175250000Y-60250000D03*
X125950000Y-65850000D03*
X171550000Y-122950000D03*
X136400000Y-122400000D03*
X160450000Y-53650000D03*
D58*
X162950000Y-127650000D03*
D57*
X136150000Y-118150000D03*
X163050000Y-53050000D03*
X167250000Y-120450000D03*
X165050000Y-52450000D03*
X138450000Y-47050000D03*
X121750000Y-66300000D03*
X193350000Y-81550000D03*
X149250000Y-47050000D03*
D58*
X128950000Y-127950000D03*
D57*
X117950000Y-65750000D03*
X130950000Y-118250000D03*
X147350000Y-57500000D03*
X178550000Y-60250000D03*
X191350000Y-68750000D03*
X117950000Y-69250000D03*
X161750000Y-67650000D03*
X110150000Y-75350000D03*
X191350000Y-63250000D03*
X162050000Y-47150000D03*
X189350000Y-94050000D03*
X157550000Y-64050000D03*
X147050000Y-47050000D03*
X145650000Y-108450000D03*
X176900000Y-60250000D03*
X187200000Y-91350000D03*
D58*
X176850000Y-128150000D03*
D57*
X196350000Y-80550000D03*
X171250000Y-77950000D03*
X172200000Y-72150000D03*
X164550000Y-70450000D03*
X195650000Y-87850000D03*
X111750000Y-77050000D03*
X127750000Y-120650000D03*
X130750000Y-71250000D03*
X145650000Y-104750000D03*
X144150000Y-54050000D03*
X159850000Y-50550000D03*
X187250000Y-90050000D03*
X131300000Y-122950000D03*
X160650000Y-46450000D03*
X132950000Y-120650000D03*
X142350000Y-122900000D03*
X113250000Y-74250000D03*
X108550000Y-104950000D03*
X137900000Y-121400000D03*
X108550000Y-108850000D03*
X195650000Y-93850000D03*
X165150000Y-64300000D03*
X155050000Y-59950000D03*
X159850000Y-58050000D03*
X110200000Y-63950000D03*
X112350000Y-74650000D03*
X127850000Y-122150000D03*
X133300000Y-122600000D03*
X120900000Y-70100000D03*
X142250000Y-118750000D03*
X153450000Y-59950000D03*
X109250000Y-78750000D03*
X193100000Y-76300000D03*
X151750000Y-59950000D03*
X150150000Y-59950000D03*
X162150000Y-59950000D03*
X155050000Y-58050000D03*
X159850000Y-59950000D03*
X138750000Y-121950000D03*
X167450000Y-122850000D03*
X177050000Y-73750000D03*
X145250000Y-57650000D03*
X146719011Y-55550000D03*
X128000000Y-63400000D03*
X113150000Y-75250000D03*
X171650000Y-120350000D03*
X129750000Y-121650000D03*
X184700000Y-58950000D03*
X137200000Y-119600000D03*
X140200000Y-120450000D03*
X147950000Y-55550000D03*
X132100000Y-121350000D03*
X127950000Y-64500000D03*
X184850000Y-55450000D03*
X135100000Y-121250000D03*
X142250000Y-121150000D03*
X112450000Y-76050000D03*
X171650000Y-121350000D03*
D59*
X194700000Y-60250000D03*
X184450000Y-60200000D03*
X191450000Y-60200000D03*
D58*
X125550000Y-47450000D03*
X110650000Y-47150000D03*
X136450000Y-51050000D03*
X126650000Y-58150000D03*
D59*
X126950000Y-61150000D03*
D58*
X132150000Y-53650000D03*
D57*
X126950000Y-65200000D03*
D59*
X174050000Y-64550000D03*
X191450000Y-65750000D03*
X174050000Y-67950000D03*
X194700000Y-65700000D03*
D58*
X123650000Y-132150000D03*
X121650000Y-114150000D03*
X110150000Y-114150000D03*
X110150000Y-131650000D03*
X132950000Y-125650000D03*
X148650000Y-114150000D03*
X140650000Y-127150000D03*
X164050000Y-121950000D03*
X143650000Y-132150000D03*
X162650000Y-118150000D03*
X144650000Y-116150000D03*
X160650000Y-114150000D03*
X177550000Y-116350000D03*
X181950000Y-112850000D03*
X194450000Y-112750000D03*
X181250000Y-132150000D03*
X194650000Y-132150000D03*
X195550000Y-117250000D03*
X174350000Y-122350000D03*
X167650000Y-84150000D03*
X145150000Y-94150000D03*
X132650000Y-90150000D03*
X129650000Y-96150000D03*
X155150000Y-94150000D03*
X152650000Y-84150000D03*
X172650000Y-94150000D03*
X147650000Y-84150000D03*
X182650000Y-94150000D03*
X160150000Y-94150000D03*
X138650000Y-84150000D03*
X182650000Y-84150000D03*
X140150000Y-94150000D03*
X177650000Y-94150000D03*
D57*
X164650000Y-74350000D03*
D58*
X157650000Y-84150000D03*
X172650000Y-84150000D03*
X167650000Y-94150000D03*
X150150000Y-94150000D03*
X177650000Y-84150000D03*
D57*
X160900000Y-74400000D03*
D58*
X151650000Y-107150000D03*
X157650000Y-100150000D03*
X158650000Y-104150000D03*
D57*
X148150000Y-110100000D03*
X163900000Y-68150000D03*
X145400000Y-110150000D03*
X163650000Y-100350000D03*
D58*
X189650000Y-100150000D03*
X187650000Y-108150000D03*
X195650000Y-107150000D03*
X113650000Y-101150000D03*
X115650000Y-108150000D03*
D59*
X182600000Y-98200000D03*
X190900000Y-98150000D03*
D57*
X166650000Y-78150000D03*
X164450000Y-99650000D03*
D58*
X130650000Y-115150000D03*
X123650000Y-104150000D03*
X126650000Y-112150000D03*
X142650000Y-100150000D03*
X132650000Y-76150000D03*
X122650000Y-76150000D03*
X124650000Y-91150000D03*
X109650000Y-92150000D03*
X128650000Y-80150000D03*
D60*
X137300000Y-67258922D03*
D58*
X143650000Y-72550000D03*
D60*
X152550000Y-78650000D03*
X148950000Y-69750000D03*
X155250000Y-76450000D03*
X146650000Y-67150000D03*
X155250000Y-78608921D03*
X148950000Y-67150000D03*
D58*
X158350000Y-72950000D03*
D60*
X146550000Y-69750000D03*
X134800000Y-67258922D03*
X152550000Y-76450000D03*
X137200000Y-69858922D03*
X145050000Y-77550000D03*
D58*
X157650000Y-68750000D03*
D60*
X143750000Y-78650000D03*
D58*
X139100000Y-74650000D03*
D60*
X134800000Y-69858922D03*
D58*
X152950000Y-68250000D03*
X128450000Y-67850000D03*
X149350000Y-77450000D03*
D60*
X146350000Y-76350000D03*
X135900000Y-68558922D03*
D58*
X153900000Y-72600000D03*
X149100000Y-72650000D03*
D60*
X153850000Y-77550000D03*
X146350000Y-78750000D03*
D58*
X142450000Y-68150000D03*
D60*
X147650000Y-68450000D03*
D58*
X159050000Y-77450000D03*
D60*
X143750000Y-76416079D03*
D58*
X151650000Y-63150000D03*
X141350000Y-58950000D03*
X146350000Y-59850000D03*
X135650000Y-62150000D03*
D61*
X133880000Y-120650000D02*
X133910000Y-120620000D01*
X121750000Y-66300000D02*
X122275000Y-66300000D01*
X165150000Y-59850000D02*
X165150000Y-58975000D01*
D62*
X138412500Y-47087500D02*
X138412500Y-48250000D01*
D61*
X147450000Y-51950000D02*
X147450000Y-52770000D01*
X195760000Y-87740000D02*
X195650000Y-87850000D01*
X129850000Y-71250000D02*
X129800000Y-71300000D01*
X170475000Y-122950000D02*
X170425000Y-122900000D01*
X189650000Y-86450000D02*
X189650000Y-86585000D01*
X186355000Y-52850000D02*
X186400000Y-52895000D01*
X128670000Y-120650000D02*
X128700000Y-120680000D01*
X161750000Y-67650000D02*
X161500000Y-67650000D01*
X191350000Y-68750000D02*
X190050000Y-68750000D01*
D62*
X139850000Y-47050000D02*
X138650000Y-48250000D01*
D61*
X145700000Y-104700000D02*
X145700000Y-103900000D01*
X108550000Y-104950000D02*
X108550000Y-104250000D01*
D62*
X138050000Y-48250000D02*
X138412500Y-48250000D01*
D61*
X189650000Y-86585000D02*
X190665000Y-87600000D01*
X157550000Y-64050000D02*
X158500000Y-64050000D01*
X136400000Y-122400000D02*
X135785000Y-123015000D01*
X187225000Y-91375000D02*
X187225000Y-92150000D01*
X187250000Y-90050000D02*
X187225000Y-90025000D01*
X178450000Y-107600000D02*
X178600000Y-107450000D01*
X193350000Y-81550000D02*
X193285000Y-81615000D01*
X135785000Y-123015000D02*
X135785000Y-123040000D01*
X167250000Y-120450000D02*
X168270000Y-120450000D01*
X195760000Y-86530000D02*
X195760000Y-87740000D01*
X138330978Y-120480000D02*
X139050000Y-120480000D01*
X187200000Y-91350000D02*
X187225000Y-91375000D01*
X196350000Y-80550000D02*
X196350000Y-79625000D01*
X147350000Y-57125000D02*
X146825000Y-56600000D01*
X108550000Y-108850000D02*
X108550000Y-108050000D01*
X117950000Y-65750000D02*
X117250000Y-66450000D01*
X190615000Y-94050000D02*
X190665000Y-94100000D01*
X191580000Y-95170000D02*
X191945000Y-95170000D01*
X108550000Y-108050000D02*
X108950000Y-107650000D01*
X161500000Y-67650000D02*
X160900000Y-67050000D01*
X123850000Y-68750000D02*
X123850000Y-68050000D01*
X137900000Y-120910978D02*
X138330978Y-120480000D01*
D63*
X162950000Y-126050000D02*
X163450000Y-125550000D01*
D61*
X172200000Y-70420000D02*
X172185000Y-70405000D01*
D62*
X138650000Y-48250000D02*
X138412500Y-48250000D01*
D61*
X111050000Y-77750000D02*
X111750000Y-77050000D01*
X142350000Y-122900000D02*
X141275000Y-122900000D01*
X117950000Y-69250000D02*
X117250000Y-69950000D01*
D62*
X148112500Y-47087500D02*
X148112500Y-48150000D01*
D61*
X110825000Y-77750000D02*
X111050000Y-77750000D01*
X121650000Y-69150000D02*
X122625000Y-69150000D01*
D63*
X128950000Y-127950000D02*
X128950000Y-125250000D01*
D61*
X127750000Y-120650000D02*
X128670000Y-120650000D01*
X178450000Y-108650000D02*
X178450000Y-107600000D01*
X124800000Y-71250000D02*
X124850000Y-71300000D01*
D63*
X176850000Y-128150000D02*
X176850000Y-125550000D01*
D61*
X136150000Y-119270000D02*
X136110000Y-119310000D01*
X130950000Y-118250000D02*
X130950000Y-119320000D01*
X165125000Y-69875000D02*
X165125000Y-69450000D01*
X131300000Y-122950000D02*
X130350000Y-122950000D01*
D63*
X162950000Y-127650000D02*
X162950000Y-126050000D01*
D61*
X182050000Y-74700000D02*
X182100000Y-74750000D01*
X188950000Y-80550000D02*
X188950000Y-79625000D01*
X145650000Y-108450000D02*
X145700000Y-108400000D01*
D62*
X148150000Y-47050000D02*
X148112500Y-47087500D01*
D61*
X147450000Y-51950000D02*
X147450000Y-53420000D01*
X195650000Y-95060000D02*
X195760000Y-95170000D01*
X125925000Y-65825000D02*
X125950000Y-65850000D01*
X171350000Y-76350000D02*
X170500000Y-76350000D01*
X123950000Y-71250000D02*
X124800000Y-71250000D01*
X186400000Y-52895000D02*
X188617500Y-52895000D01*
X172200000Y-72150000D02*
X172200000Y-70420000D01*
X117250000Y-66450000D02*
X116712500Y-66450000D01*
X132950000Y-120650000D02*
X133880000Y-120650000D01*
X191350000Y-63250000D02*
X190050000Y-63250000D01*
X144150000Y-54050000D02*
X145220000Y-54050000D01*
X108550000Y-104250000D02*
X108950000Y-103850000D01*
D63*
X128950000Y-125250000D02*
X128850000Y-125150000D01*
D61*
X123850000Y-68050000D02*
X124125000Y-67775000D01*
X142450000Y-119850000D02*
X141280000Y-119850000D01*
X189350000Y-94050000D02*
X190615000Y-94050000D01*
X191945000Y-95170000D02*
X193050000Y-94065000D01*
D62*
X149212500Y-47050000D02*
X148112500Y-48150000D01*
D61*
X117250000Y-69950000D02*
X116712500Y-69950000D01*
X182050000Y-73650000D02*
X182050000Y-74700000D01*
X171250000Y-77950000D02*
X170475000Y-77950000D01*
X110120000Y-75380000D02*
X110150000Y-75350000D01*
D62*
X136950000Y-47150000D02*
X138050000Y-48250000D01*
D61*
X187225000Y-90025000D02*
X187225000Y-89150000D01*
X141280000Y-119850000D02*
X141250000Y-119820000D01*
D62*
X149250000Y-47050000D02*
X149212500Y-47050000D01*
X147050000Y-47087500D02*
X148112500Y-48150000D01*
D61*
X164550000Y-70450000D02*
X165125000Y-69875000D01*
D62*
X147050000Y-47050000D02*
X147050000Y-47087500D01*
D61*
X170475000Y-77950000D02*
X170375000Y-78050000D01*
X124787500Y-65825000D02*
X125925000Y-65825000D01*
D64*
X113250000Y-74250000D02*
X113070000Y-74070000D01*
D61*
X147350000Y-57500000D02*
X147350000Y-57125000D01*
X145220000Y-54050000D02*
X145250000Y-54080000D01*
X178700000Y-103750000D02*
X178800000Y-103750000D01*
X195050000Y-68750000D02*
X196350000Y-68750000D01*
X195050000Y-63250000D02*
X196350000Y-63250000D01*
X178450000Y-104000000D02*
X178700000Y-103750000D01*
X171550000Y-122950000D02*
X170475000Y-122950000D01*
D62*
X138450000Y-47050000D02*
X138412500Y-47087500D01*
D61*
X168270000Y-120450000D02*
X168300000Y-120480000D01*
X145700000Y-108400000D02*
X145700000Y-107650000D01*
X130750000Y-71250000D02*
X129850000Y-71250000D01*
X123850000Y-68750000D02*
X124175000Y-68425000D01*
X188617500Y-52895000D02*
X188862500Y-52650000D01*
X124125000Y-67775000D02*
X124787500Y-67775000D01*
X122275000Y-66300000D02*
X122650000Y-65925000D01*
X195650000Y-93850000D02*
X195650000Y-95060000D01*
X122625000Y-69150000D02*
X122650000Y-69175000D01*
X109050000Y-75380000D02*
X110120000Y-75380000D01*
X193285000Y-81615000D02*
X193285000Y-83025000D01*
X137900000Y-121400000D02*
X137900000Y-120910978D01*
X130950000Y-119320000D02*
X130900000Y-119370000D01*
X165150000Y-58975000D02*
X165175000Y-58950000D01*
X136150000Y-118150000D02*
X136150000Y-119270000D01*
X124175000Y-68425000D02*
X124787500Y-68425000D01*
X184350000Y-52850000D02*
X186355000Y-52850000D01*
X178450000Y-104750000D02*
X178450000Y-104000000D01*
X145650000Y-104750000D02*
X145700000Y-104700000D01*
D64*
X113070000Y-74070000D02*
X111250000Y-74070000D01*
D61*
X111025000Y-63125000D02*
X111050000Y-63125000D01*
X196350000Y-77250000D02*
X196350000Y-78075000D01*
D64*
X168300000Y-121130000D02*
X168730000Y-121130000D01*
X170500000Y-119100000D02*
X170470009Y-119070009D01*
X170500000Y-119170000D02*
X170500000Y-119100000D01*
X169030000Y-121130000D02*
X169400000Y-120760000D01*
D61*
X145275000Y-57625000D02*
X145275000Y-56600000D01*
X127850000Y-122150000D02*
X127880000Y-122150000D01*
X120900000Y-70100000D02*
X120750000Y-69950000D01*
D64*
X157850000Y-52550000D02*
X155350000Y-52550000D01*
D61*
X112280000Y-74720000D02*
X112350000Y-74650000D01*
D64*
X141830000Y-119170000D02*
X142250000Y-118750000D01*
D61*
X193100000Y-76300000D02*
X195400000Y-76300000D01*
D64*
X170470009Y-119070009D02*
X169829991Y-119070009D01*
D61*
X122875000Y-67625000D02*
X122650000Y-67625000D01*
D64*
X168875000Y-121275000D02*
X168875000Y-122900000D01*
D61*
X124025000Y-66475000D02*
X122875000Y-67625000D01*
X109275000Y-78725000D02*
X109275000Y-77750000D01*
D64*
X168730000Y-121130000D02*
X168875000Y-121275000D01*
X154950000Y-52950000D02*
X154950000Y-55650000D01*
X154950000Y-55650000D02*
X152975000Y-57625000D01*
D61*
X128650000Y-122950000D02*
X127850000Y-122150000D01*
D64*
X157785000Y-50585000D02*
X158150000Y-50950000D01*
X169770000Y-119820000D02*
X170500000Y-119820000D01*
D61*
X122112500Y-67625000D02*
X119787500Y-69950000D01*
X109250000Y-78750000D02*
X109275000Y-78725000D01*
X109375000Y-63125000D02*
X109350000Y-63125000D01*
X133300000Y-122600000D02*
X133795000Y-122600000D01*
X138750000Y-121950000D02*
X138775000Y-121950000D01*
X110200000Y-63950000D02*
X111025000Y-63125000D01*
D64*
X158150000Y-50950000D02*
X158150000Y-52250000D01*
D61*
X170530000Y-119850000D02*
X170500000Y-119820000D01*
X110200000Y-63950000D02*
X109375000Y-63125000D01*
X145250000Y-56575000D02*
X145275000Y-56600000D01*
X133795000Y-122600000D02*
X134235000Y-123040000D01*
X165150000Y-63275000D02*
X165125000Y-63250000D01*
D64*
X141250000Y-119170000D02*
X141830000Y-119170000D01*
X169400000Y-120760000D02*
X169400000Y-120190000D01*
D61*
X165150000Y-64300000D02*
X165150000Y-63275000D01*
X124787500Y-66475000D02*
X124025000Y-66475000D01*
X177050000Y-73750000D02*
X175850000Y-73750000D01*
X109275000Y-77750000D02*
X109275000Y-76255000D01*
D64*
X155350000Y-52550000D02*
X154950000Y-52950000D01*
X152975000Y-57625000D02*
X151550000Y-57625000D01*
D61*
X109275000Y-76255000D02*
X109050000Y-76030000D01*
D64*
X158150000Y-52250000D02*
X157850000Y-52550000D01*
X169400000Y-119500000D02*
X169400000Y-120190000D01*
X169829991Y-119070009D02*
X169400000Y-119500000D01*
D61*
X145250000Y-57650000D02*
X145275000Y-57625000D01*
D64*
X156575000Y-50585000D02*
X157785000Y-50585000D01*
D61*
X133910000Y-121990000D02*
X133910000Y-121270000D01*
D64*
X169400000Y-120190000D02*
X169770000Y-119820000D01*
D61*
X138750000Y-121950000D02*
X139050000Y-121650000D01*
D64*
X167450000Y-122850000D02*
X168825000Y-122850000D01*
D61*
X145250000Y-54730000D02*
X145250000Y-56575000D01*
X127880000Y-122150000D02*
X128700000Y-121330000D01*
X195400000Y-76300000D02*
X196350000Y-77250000D01*
X120750000Y-69950000D02*
X119787500Y-69950000D01*
D64*
X168825000Y-122850000D02*
X168875000Y-122900000D01*
X168300000Y-121130000D02*
X169030000Y-121130000D01*
D61*
X175850000Y-73750000D02*
X175800000Y-73700000D01*
X111250000Y-74720000D02*
X112280000Y-74720000D01*
X133300000Y-122600000D02*
X133910000Y-121990000D01*
X128800000Y-122950000D02*
X128650000Y-122950000D01*
X138775000Y-121950000D02*
X139725000Y-122900000D01*
X139050000Y-121650000D02*
X139050000Y-121130000D01*
X122650000Y-67625000D02*
X122112500Y-67625000D01*
X194555000Y-78075000D02*
X196350000Y-78075000D01*
D64*
X186400000Y-56705000D02*
X190658060Y-56705000D01*
X193900000Y-59946940D02*
X193900000Y-74150000D01*
X190658060Y-56705000D02*
X193900000Y-59946940D01*
X193900000Y-74150000D02*
X192015000Y-76035000D01*
X192015000Y-76035000D02*
X192015000Y-78075000D01*
X191687072Y-79319520D02*
X192342928Y-79319520D01*
X191405480Y-57975000D02*
X193500000Y-60069520D01*
X191445480Y-75454520D02*
X191445480Y-79077928D01*
X193500000Y-60069520D02*
X193500000Y-73400000D01*
X192342928Y-79319520D02*
X193285000Y-78377448D01*
X193285000Y-78377448D02*
X193285000Y-78075000D01*
X186400000Y-57975000D02*
X191405480Y-57975000D01*
X193500000Y-73400000D02*
X191445480Y-75454520D01*
X191445480Y-79077928D02*
X191687072Y-79319520D01*
X186105000Y-58950000D02*
X186400000Y-59245000D01*
X146650489Y-55481478D02*
X146650489Y-54260489D01*
X130170000Y-120680000D02*
X130900000Y-120680000D01*
X125578060Y-63405480D02*
X125505480Y-63405480D01*
X184700000Y-58950000D02*
X186105000Y-58950000D01*
X120630422Y-64775000D02*
X111050000Y-64775000D01*
X141220000Y-120450000D02*
X141250000Y-120480000D01*
X125794520Y-64128060D02*
X125794520Y-63621940D01*
X124787500Y-64525000D02*
X125397580Y-64525000D01*
X129750000Y-121100000D02*
X130170000Y-120680000D01*
X111250000Y-75380000D02*
X113020000Y-75380000D01*
X146650489Y-54260489D02*
X146830978Y-54080000D01*
X129750000Y-121650000D02*
X129750000Y-121100000D01*
X137200000Y-120400000D02*
X137200000Y-119600000D01*
X140200000Y-120450000D02*
X141220000Y-120450000D01*
X125794520Y-63621940D02*
X125578060Y-63405480D01*
X146719011Y-55550000D02*
X146650489Y-55481478D01*
X136110000Y-120620000D02*
X136980000Y-120620000D01*
X171520000Y-120480000D02*
X171650000Y-120350000D01*
X113020000Y-75380000D02*
X113150000Y-75250000D01*
X125505480Y-63405480D02*
X121999942Y-63405480D01*
X125510960Y-63400000D02*
X125505480Y-63405480D01*
X170500000Y-120480000D02*
X171520000Y-120480000D01*
X136980000Y-120620000D02*
X137200000Y-120400000D01*
X136110000Y-119960000D02*
X136840000Y-119960000D01*
X136840000Y-119960000D02*
X137200000Y-119600000D01*
X125397580Y-64525000D02*
X125794520Y-64128060D01*
X146830978Y-54080000D02*
X147450000Y-54080000D01*
X121999942Y-63405480D02*
X120630422Y-64775000D01*
X128000000Y-63400000D02*
X125510960Y-63400000D01*
X123780480Y-66000000D02*
X123780480Y-65571940D01*
X170500000Y-121130000D02*
X171430000Y-121130000D01*
X130900000Y-120020000D02*
X131820000Y-120020000D01*
X184850000Y-55450000D02*
X186385000Y-55450000D01*
X131820000Y-120020000D02*
X132100000Y-120300000D01*
X122380480Y-66719520D02*
X123060960Y-66719520D01*
X186385000Y-55450000D02*
X186400000Y-55435000D01*
X109350000Y-64775000D02*
X110019520Y-65444520D01*
X113634808Y-65444520D02*
X116084808Y-67894520D01*
X116084808Y-67894520D02*
X121205480Y-67894520D01*
X123060960Y-66719520D02*
X123780480Y-66000000D01*
X126703167Y-64500000D02*
X127950000Y-64500000D01*
X123780480Y-65571940D02*
X124177420Y-65175000D01*
X141270000Y-121150000D02*
X141250000Y-121130000D01*
X110019520Y-65444520D02*
X113634808Y-65444520D01*
X135120000Y-121270000D02*
X136110000Y-121270000D01*
X130900000Y-121330000D02*
X132080000Y-121330000D01*
X121205480Y-67894520D02*
X122380480Y-66719520D01*
X124177420Y-65175000D02*
X124787500Y-65175000D01*
X142250000Y-121150000D02*
X141270000Y-121150000D01*
X124787500Y-65175000D02*
X126028167Y-65175000D01*
X126028167Y-65175000D02*
X126703167Y-64500000D01*
X111270000Y-76050000D02*
X111250000Y-76030000D01*
X132100000Y-120300000D02*
X132100000Y-121350000D01*
X171430000Y-121130000D02*
X171650000Y-121350000D01*
X135100000Y-121250000D02*
X135120000Y-121270000D01*
X112450000Y-76050000D02*
X111270000Y-76050000D01*
X147950000Y-55550000D02*
X147950000Y-55230000D01*
X147950000Y-55230000D02*
X147450000Y-54730000D01*
X132080000Y-121330000D02*
X132100000Y-121350000D01*
X169400000Y-55435000D02*
X168200000Y-55435000D01*
X166775000Y-56860000D02*
X166775000Y-57350000D01*
X197319511Y-78286079D02*
X197319511Y-61219511D01*
X196811070Y-78794520D02*
X197319511Y-78286079D01*
X191450000Y-60200000D02*
X190100000Y-60200000D01*
X179585000Y-55435000D02*
X184350000Y-60200000D01*
X194700000Y-60250000D02*
X196350000Y-60250000D01*
X169400000Y-55435000D02*
X179585000Y-55435000D01*
X197319511Y-61219511D02*
X196350000Y-60250000D01*
X194555000Y-83025000D02*
X194555000Y-80128450D01*
X190100000Y-60200000D02*
X190050000Y-60250000D01*
X166725000Y-57400000D02*
X166775000Y-57350000D01*
X166725000Y-58950000D02*
X166725000Y-57400000D01*
X168200000Y-55435000D02*
X166775000Y-56860000D01*
X195888930Y-78794520D02*
X196811070Y-78794520D01*
X194555000Y-80128450D02*
X195888930Y-78794520D01*
X166775000Y-69450000D02*
X169355000Y-69450000D01*
X169355000Y-69450000D02*
X169400000Y-69405000D01*
X190225000Y-52862500D02*
X190437500Y-52650000D01*
X190225000Y-54150000D02*
X190225000Y-52862500D01*
D62*
X188700978Y-93569511D02*
X188970489Y-93300000D01*
X187169511Y-93569511D02*
X188700978Y-93569511D01*
X188300000Y-86650000D02*
X187750000Y-86650000D01*
X189600978Y-88400000D02*
X190665000Y-88400000D01*
X188300000Y-87099022D02*
X189600978Y-88400000D01*
X187750000Y-86650000D02*
X186350000Y-88050000D01*
X188300000Y-86650000D02*
X188300000Y-87099022D01*
X186350000Y-92750000D02*
X187169511Y-93569511D01*
X186350000Y-88050000D02*
X186350000Y-92750000D01*
X188970489Y-93300000D02*
X190665000Y-93300000D01*
D64*
X126950000Y-65200000D02*
X126950000Y-65655411D01*
X126950000Y-65655411D02*
X126050000Y-66555411D01*
X125650000Y-72100000D02*
X124850000Y-72900000D01*
X126050000Y-66555411D02*
X126050000Y-70605456D01*
X126050000Y-70605456D02*
X125650000Y-71005456D01*
X125650000Y-71005456D02*
X125650000Y-72100000D01*
X191579022Y-90600000D02*
X190665000Y-90600000D01*
X192015000Y-83025000D02*
X192015000Y-84415000D01*
X193950000Y-86350000D02*
X193950000Y-88350000D01*
X191659511Y-90680489D02*
X191579022Y-90600000D01*
X193950000Y-88350000D02*
X191700000Y-90600000D01*
X192015000Y-84415000D02*
X193950000Y-86350000D01*
X191700000Y-90600000D02*
X190665000Y-90600000D01*
X191590000Y-91600000D02*
X191659511Y-91530489D01*
X191659511Y-91530489D02*
X191659511Y-90680489D01*
X190665000Y-91600000D02*
X191590000Y-91600000D01*
X190665000Y-91100000D02*
X189740000Y-91100000D01*
X193550000Y-86550000D02*
X193550000Y-88129022D01*
X193550000Y-88129022D02*
X191579022Y-90100000D01*
X190745000Y-83025000D02*
X190745000Y-83745000D01*
X190745000Y-83745000D02*
X193550000Y-86550000D01*
X189740000Y-91100000D02*
X189670489Y-91030489D01*
X191579022Y-90100000D02*
X190665000Y-90100000D01*
X189750978Y-90100000D02*
X190665000Y-90100000D01*
X189670489Y-91030489D02*
X189670489Y-90180489D01*
X189670489Y-90180489D02*
X189750978Y-90100000D01*
X169365000Y-61750000D02*
X169400000Y-61785000D01*
X166775000Y-61750000D02*
X169365000Y-61750000D01*
X128150000Y-71172580D02*
X128150000Y-71300000D01*
X129775001Y-64525000D02*
X126850000Y-67450001D01*
X126850000Y-67450001D02*
X126850000Y-69872580D01*
X130512500Y-64525000D02*
X129775001Y-64525000D01*
X126850000Y-69872580D02*
X128150000Y-71172580D01*
X128150000Y-71300000D02*
X128150000Y-72900000D01*
X194750000Y-65750000D02*
X194700000Y-65700000D01*
X169205000Y-63250000D02*
X169400000Y-63055000D01*
X188500000Y-66350000D02*
X189100000Y-65750000D01*
X196350000Y-65750000D02*
X194750000Y-65750000D01*
X186400000Y-69405000D02*
X184955000Y-69405000D01*
X184955000Y-69405000D02*
X184000000Y-68450000D01*
X174050000Y-64550000D02*
X172555000Y-63055000D01*
X183500000Y-67950000D02*
X174050000Y-67950000D01*
X186400000Y-69405000D02*
X187655978Y-69405000D01*
X184000000Y-68450000D02*
X183500000Y-67950000D01*
X172555000Y-63055000D02*
X169400000Y-63055000D01*
X166775000Y-63250000D02*
X169205000Y-63250000D01*
X190050000Y-65750000D02*
X191450000Y-65750000D01*
X189100000Y-65750000D02*
X190050000Y-65750000D01*
X187655978Y-69405000D02*
X188500000Y-68560978D01*
X188500000Y-68560978D02*
X188500000Y-66350000D01*
X126500000Y-72900000D02*
X126500000Y-71300000D01*
X126450000Y-67200001D02*
X126450000Y-71250000D01*
X130512500Y-63875000D02*
X129775001Y-63875000D01*
X126450000Y-71250000D02*
X126500000Y-71300000D01*
X129775001Y-63875000D02*
X126450000Y-67200001D01*
X122230000Y-119370000D02*
X121850000Y-119750000D01*
X128700000Y-119370000D02*
X122230000Y-119370000D01*
X188610000Y-89100000D02*
X188560000Y-89150000D01*
X190665000Y-89100000D02*
X188610000Y-89100000D01*
X139050000Y-119170000D02*
X140039511Y-118180489D01*
X140039511Y-118180489D02*
X146880489Y-118180489D01*
X146880489Y-118180489D02*
X148450000Y-119750000D01*
X176200489Y-118700489D02*
X168769511Y-118700489D01*
X168769511Y-118700489D02*
X168300000Y-119170000D01*
X181650000Y-124150000D02*
X176200489Y-118700489D01*
X166775000Y-67950000D02*
X169215000Y-67950000D01*
X169215000Y-67950000D02*
X169400000Y-68135000D01*
D65*
X145980480Y-48219520D02*
X145950000Y-48250000D01*
D64*
X109900000Y-99900000D02*
X112250000Y-97550000D01*
D65*
X131900000Y-72900000D02*
X129800000Y-72900000D01*
D64*
X110453706Y-73597272D02*
X122097272Y-73597272D01*
D65*
X133750000Y-72900000D02*
X131900000Y-72900000D01*
X145950000Y-48250000D02*
X143487500Y-48250000D01*
X108200000Y-46650000D02*
X108200000Y-58853156D01*
D64*
X146650000Y-99900000D02*
X149300000Y-97250000D01*
X179650000Y-99400000D02*
X181900000Y-97150000D01*
X153575000Y-96675000D02*
X153575000Y-97125000D01*
X158243871Y-67139031D02*
X159077429Y-67139031D01*
X184150000Y-97150000D02*
X184594511Y-96705489D01*
X184594511Y-96705489D02*
X185505489Y-96705489D01*
D65*
X141961079Y-81111079D02*
X133750000Y-72900000D01*
X152200000Y-48150000D02*
X150930480Y-49419520D01*
D64*
X157154840Y-66050000D02*
X158243871Y-67139031D01*
X155250000Y-66050000D02*
X157154840Y-66050000D01*
X115050000Y-97550000D02*
X116050000Y-96550000D01*
D65*
X108200000Y-58853156D02*
X112646844Y-63300000D01*
D64*
X110450489Y-73600489D02*
X110453706Y-73597272D01*
D65*
X145980480Y-49219520D02*
X145980480Y-47919520D01*
D64*
X160900000Y-68961602D02*
X160900000Y-74400000D01*
D65*
X145450000Y-44800000D02*
X110050000Y-44800000D01*
D64*
X122150000Y-73650000D02*
X122155480Y-73644520D01*
X128472580Y-117550000D02*
X131055411Y-117550000D01*
D65*
X145980480Y-47919520D02*
X145980480Y-48219520D01*
D64*
X149300000Y-97250000D02*
X151835978Y-97250000D01*
X153505489Y-96605489D02*
X153575000Y-96675000D01*
X152480489Y-96605489D02*
X153505489Y-96605489D01*
X112250000Y-97550000D02*
X115050000Y-97550000D01*
D65*
X112646844Y-63300000D02*
X121300000Y-63300000D01*
D64*
X129055480Y-73644520D02*
X129800000Y-72900000D01*
X181900000Y-97150000D02*
X184150000Y-97150000D01*
D65*
X145980480Y-47919520D02*
X145980480Y-45330480D01*
D64*
X122155480Y-73644520D02*
X129055480Y-73644520D01*
X132815411Y-119310000D02*
X133910000Y-119310000D01*
X116050000Y-96550000D02*
X116900000Y-96550000D01*
X116900000Y-96550000D02*
X117025000Y-96675000D01*
X131055411Y-117550000D02*
X132815411Y-119310000D01*
X120561290Y-109638710D02*
X128472580Y-117550000D01*
X109900000Y-100050000D02*
X109900000Y-99900000D01*
X117025000Y-96675000D02*
X117025000Y-97125000D01*
D65*
X145980480Y-45330480D02*
X145450000Y-44800000D01*
D64*
X109780000Y-74720000D02*
X110450489Y-74049511D01*
X179650000Y-99850000D02*
X179650000Y-99400000D01*
X120450000Y-102050000D02*
X120561290Y-102161290D01*
X110450489Y-74049511D02*
X110450489Y-73600489D01*
X185505489Y-96705489D02*
X185825000Y-97025000D01*
X109050000Y-74720000D02*
X109780000Y-74720000D01*
X122097272Y-73597272D02*
X122150000Y-73650000D01*
X159077429Y-67139031D02*
X160900000Y-68961602D01*
D65*
X143140000Y-81111079D02*
X141961079Y-81111079D01*
D64*
X151835978Y-97250000D02*
X152480489Y-96605489D01*
D65*
X121300000Y-63300000D02*
X122050000Y-62550000D01*
D64*
X164650000Y-74350000D02*
X163300000Y-74350000D01*
D65*
X146180480Y-49419520D02*
X145980480Y-49219520D01*
D64*
X124050000Y-98450000D02*
X120450000Y-102050000D01*
X185825000Y-97025000D02*
X185825000Y-97225000D01*
D65*
X122050000Y-62550000D02*
X131250000Y-62550000D01*
X153187500Y-48150000D02*
X152200000Y-48150000D01*
X131900000Y-63200000D02*
X131900000Y-72900000D01*
D64*
X120561290Y-102161290D02*
X120561290Y-109638710D01*
D65*
X150930480Y-49419520D02*
X146180480Y-49419520D01*
X131250000Y-62550000D02*
X131900000Y-63200000D01*
X110050000Y-44800000D02*
X108200000Y-46650000D01*
D61*
X173450000Y-73125000D02*
X173450000Y-70410000D01*
X173450000Y-70410000D02*
X173455000Y-70405000D01*
D64*
X187600000Y-68135000D02*
X188130480Y-67604520D01*
X186400000Y-68135000D02*
X187600000Y-68135000D01*
X187050000Y-77350000D02*
X187050000Y-77975000D01*
X192200000Y-72200000D02*
X187050000Y-77350000D01*
X189310978Y-64750000D02*
X191600000Y-64750000D01*
X188130480Y-65930498D02*
X189310978Y-64750000D01*
X188130480Y-67604520D02*
X188130480Y-65930498D01*
X192200000Y-65350000D02*
X192200000Y-72200000D01*
X191600000Y-64750000D02*
X192200000Y-65350000D01*
X190665000Y-92100000D02*
X188610000Y-92100000D01*
X188610000Y-92100000D02*
X188560000Y-92150000D01*
X158200000Y-66050000D02*
X159450000Y-66050000D01*
X161800000Y-66050000D02*
X162800000Y-67050000D01*
X159450000Y-66050000D02*
X161800000Y-66050000D01*
X156200000Y-64050000D02*
X158200000Y-66050000D01*
D61*
X164850000Y-76950000D02*
X164850000Y-76100000D01*
X164850000Y-76100000D02*
X166600000Y-74350000D01*
X166600000Y-74350000D02*
X169550000Y-74350000D01*
D64*
X170211602Y-75600000D02*
X169350000Y-75600000D01*
X169350000Y-75600000D02*
X168600000Y-76350000D01*
X171100000Y-68619520D02*
X171100000Y-74711602D01*
X186400000Y-66865000D02*
X172854520Y-66865000D01*
X172854520Y-66865000D02*
X171100000Y-68619520D01*
D61*
X168725000Y-78050000D02*
X168725000Y-76475000D01*
X168725000Y-76475000D02*
X168600000Y-76350000D01*
D64*
X171100000Y-74711602D02*
X170211602Y-75600000D01*
X160400000Y-64050000D02*
X160400000Y-63100000D01*
X161750000Y-61750000D02*
X165125000Y-61750000D01*
X160400000Y-63100000D02*
X161750000Y-61750000D01*
X139050000Y-119820000D02*
X138320000Y-119820000D01*
X146730489Y-110369511D02*
X147230489Y-110369511D01*
X149710978Y-104150000D02*
X154650000Y-104150000D01*
X147319511Y-108919511D02*
X146930489Y-108530489D01*
X147319511Y-110280489D02*
X147319511Y-108919511D01*
X138250489Y-118849511D02*
X146730489Y-110369511D01*
X138320000Y-119820000D02*
X138250489Y-119750489D01*
X147230489Y-110369511D02*
X147319511Y-110280489D01*
X146930489Y-106930489D02*
X149710978Y-104150000D01*
X146930489Y-108530489D02*
X146930489Y-106930489D01*
X138250489Y-119750489D02*
X138250489Y-118849511D01*
X139150000Y-131650000D02*
X139150000Y-128400000D01*
X139150000Y-128400000D02*
X137150000Y-126400000D01*
X108150000Y-112789022D02*
X108150000Y-132150000D01*
X109650000Y-133650000D02*
X137150000Y-133650000D01*
X148200000Y-110100000D02*
X148150000Y-110100000D01*
X160650000Y-109150000D02*
X149150000Y-109150000D01*
X137880969Y-120336719D02*
X137880969Y-118169031D01*
X110850000Y-110089022D02*
X108150000Y-112789022D01*
X161400000Y-108400000D02*
X160650000Y-109150000D01*
X149150000Y-109150000D02*
X148200000Y-110100000D01*
X161400000Y-102600000D02*
X161400000Y-108400000D01*
X108150000Y-132150000D02*
X109650000Y-133650000D01*
X137150000Y-126400000D02*
X137150000Y-121067688D01*
X163650000Y-100350000D02*
X161400000Y-102600000D01*
X137880969Y-118169031D02*
X145400000Y-110650000D01*
X137150000Y-121067688D02*
X137880969Y-120336719D01*
X164925000Y-68150000D02*
X165125000Y-67950000D01*
X137150000Y-133650000D02*
X139150000Y-131650000D01*
X163900000Y-68150000D02*
X164925000Y-68150000D01*
X110850000Y-107650000D02*
X110850000Y-110089022D01*
X145400000Y-110650000D02*
X145400000Y-110150000D01*
X170700000Y-74589022D02*
X170089022Y-75200000D01*
X170089022Y-75200000D02*
X167319511Y-75200000D01*
X186400000Y-65595000D02*
X172705000Y-65595000D01*
X172705000Y-65595000D02*
X170700000Y-67600000D01*
X170700000Y-67600000D02*
X170700000Y-74589022D01*
X165850000Y-76669511D02*
X165850000Y-76950000D01*
X167319511Y-75200000D02*
X165850000Y-76669511D01*
X177150000Y-110400000D02*
X181900000Y-110400000D01*
X172450978Y-113750000D02*
X173800000Y-113750000D01*
X168300000Y-119820000D02*
X167570000Y-119820000D01*
X167500489Y-119750489D02*
X167500489Y-118700489D01*
X173800000Y-113750000D02*
X177150000Y-110400000D01*
X167500489Y-118700489D02*
X172450978Y-113750000D01*
X167570000Y-119820000D02*
X167500489Y-119750489D01*
X181900000Y-110400000D02*
X188150000Y-104150000D01*
X186400000Y-54165000D02*
X188560000Y-54165000D01*
X188560000Y-54165000D02*
X188575000Y-54150000D01*
X129499511Y-119800489D02*
X129280000Y-120020000D01*
X120150000Y-108050000D02*
X120150000Y-109750000D01*
X129300489Y-118900489D02*
X129499511Y-118900489D01*
X116350000Y-104250000D02*
X120150000Y-108050000D01*
X120150000Y-109750000D02*
X129300489Y-118900489D01*
X129499511Y-118900489D02*
X129499511Y-119800489D01*
X129280000Y-120020000D02*
X128700000Y-120020000D01*
X191810960Y-64350000D02*
X192800000Y-65339040D01*
X187525024Y-78644520D02*
X186574976Y-78644520D01*
X187794520Y-78000000D02*
X187794520Y-78375024D01*
X186400000Y-63055000D02*
X188115978Y-63055000D01*
X192800000Y-72994520D02*
X187794520Y-78000000D01*
X192800000Y-65339040D02*
X192800000Y-72994520D01*
X189410978Y-64350000D02*
X191810960Y-64350000D01*
X186574976Y-78644520D02*
X184000000Y-76069544D01*
X184000000Y-76069544D02*
X184000000Y-74750000D01*
X187794520Y-78375024D02*
X187525024Y-78644520D01*
X188115978Y-63055000D02*
X189410978Y-64350000D01*
D61*
X175800000Y-77600000D02*
X182200000Y-77600000D01*
X182200000Y-77600000D02*
X183050000Y-76750000D01*
D64*
X179650000Y-107139022D02*
X178980489Y-106469511D01*
X180260978Y-103750000D02*
X180600000Y-103750000D01*
X178980489Y-106469511D02*
X178980489Y-105030489D01*
X178700000Y-101850000D02*
X180600000Y-103750000D01*
X178980489Y-105030489D02*
X180260978Y-103750000D01*
X179650000Y-109450000D02*
X179650000Y-107139022D01*
X182600000Y-98200000D02*
X182350000Y-98450000D01*
X181600000Y-99200000D02*
X181600000Y-102327420D01*
X190900000Y-97200000D02*
X190900000Y-98150000D01*
X182600000Y-98200000D02*
X181600000Y-99200000D01*
X181639031Y-106410969D02*
X180600000Y-107450000D01*
X188000000Y-94300000D02*
X190900000Y-97200000D01*
X185800000Y-80875000D02*
X185800000Y-93100000D01*
X187000000Y-94300000D02*
X188000000Y-94300000D01*
X181600000Y-102327420D02*
X181639031Y-102366451D01*
X181639031Y-102366451D02*
X181639031Y-106410969D01*
X185800000Y-93100000D02*
X187000000Y-94300000D01*
X187050000Y-79625000D02*
X185800000Y-80875000D01*
X145950000Y-105255411D02*
X145950000Y-106510978D01*
X145700000Y-101900000D02*
X147600000Y-103800000D01*
X146369511Y-106930489D02*
X146369511Y-109369511D01*
X147305411Y-103900000D02*
X145950000Y-105255411D01*
X147600000Y-103900000D02*
X147305411Y-103900000D01*
X147600000Y-103800000D02*
X147600000Y-103900000D01*
X145950000Y-106510978D02*
X146369511Y-106930489D01*
X146369511Y-109369511D02*
X146650000Y-109650000D01*
X180250000Y-105750000D02*
X181269511Y-104730489D01*
X181269511Y-102519511D02*
X180600000Y-101850000D01*
X181269511Y-104730489D02*
X181269511Y-102519511D01*
X179650000Y-105750000D02*
X180250000Y-105750000D01*
X180600000Y-99150000D02*
X182230480Y-97519520D01*
X180600000Y-101850000D02*
X180600000Y-99150000D01*
X184597580Y-97225000D02*
X185175000Y-97225000D01*
X184303060Y-97519520D02*
X184597580Y-97225000D01*
X182230480Y-97519520D02*
X184303060Y-97519520D01*
X161030480Y-102164109D02*
X161030480Y-108246940D01*
X160496940Y-108780480D02*
X148730480Y-108780480D01*
X163544589Y-99650000D02*
X161030480Y-102164109D01*
X171210891Y-78794520D02*
X173400000Y-76605411D01*
X166650000Y-78150000D02*
X167294520Y-78794520D01*
X173400000Y-76605411D02*
X173400000Y-74825000D01*
X161030480Y-108246940D02*
X160496940Y-108780480D01*
X167294520Y-78794520D02*
X171210891Y-78794520D01*
X148730480Y-108780480D02*
X147600000Y-107650000D01*
X173400000Y-74825000D02*
X173450000Y-74775000D01*
X164450000Y-99650000D02*
X163544589Y-99650000D01*
X145890000Y-66020480D02*
X145890000Y-64730000D01*
X155810000Y-79890000D02*
X155810000Y-81020000D01*
X154300000Y-65240960D02*
X154300000Y-64050000D01*
X155850000Y-79850000D02*
X155810000Y-79890000D01*
X153520480Y-66020480D02*
X154300000Y-65240960D01*
X144990000Y-66020480D02*
X145890000Y-66020480D01*
X134090000Y-65390000D02*
X134720480Y-66020480D01*
X134720480Y-66020480D02*
X144990000Y-66020480D01*
X155650000Y-79850000D02*
X159950000Y-79850000D01*
X161850000Y-77950000D02*
X161850000Y-69050000D01*
X150150000Y-79850000D02*
X155650000Y-79850000D01*
X161510978Y-69050000D02*
X161850000Y-69050000D01*
X156868380Y-65240960D02*
X158396931Y-66769511D01*
X147821079Y-80250000D02*
X149750000Y-80250000D01*
X144990000Y-66020480D02*
X153520480Y-66020480D01*
X146960000Y-81111079D02*
X147821079Y-80250000D01*
X154300000Y-65240960D02*
X156868380Y-65240960D01*
X149750000Y-80250000D02*
X150150000Y-79850000D01*
X159230489Y-66769511D02*
X161510978Y-69050000D01*
X158396931Y-66769511D02*
X159230489Y-66769511D01*
X134090000Y-64780000D02*
X134090000Y-65390000D01*
X159950000Y-79850000D02*
X161850000Y-77950000D01*
X155650000Y-79850000D02*
X155850000Y-79850000D01*
X147600000Y-100100000D02*
X149950000Y-97750000D01*
X146650000Y-105900000D02*
X146877420Y-105900000D01*
X148269511Y-104507909D02*
X148269511Y-102569511D01*
X149950000Y-97750000D02*
X152300000Y-97750000D01*
X152300000Y-97750000D02*
X152925000Y-97125000D01*
X147600000Y-101900000D02*
X147600000Y-100100000D01*
X146877420Y-105900000D02*
X148269511Y-104507909D01*
X148269511Y-102569511D02*
X147600000Y-101900000D01*
D61*
X123150000Y-63875000D02*
X122650000Y-64375000D01*
X121862500Y-64375000D02*
X119787500Y-66450000D01*
X122650000Y-64375000D02*
X121862500Y-64375000D01*
X124787500Y-63875000D02*
X123150000Y-63875000D01*
D64*
X112350000Y-98150000D02*
X115350000Y-98150000D01*
X115350000Y-98150000D02*
X116375000Y-97125000D01*
X111519511Y-104830489D02*
X111519511Y-102719511D01*
X110850000Y-102050000D02*
X110850000Y-99650000D01*
X111519511Y-102719511D02*
X110850000Y-102050000D01*
X110500000Y-105850000D02*
X111519511Y-104830489D01*
X110850000Y-99650000D02*
X112350000Y-98150000D01*
X109900000Y-105850000D02*
X110500000Y-105850000D01*
X135310489Y-112389511D02*
X135650000Y-112050000D01*
X135310489Y-119289511D02*
X135310489Y-112389511D01*
X134640000Y-119960000D02*
X135310489Y-119289511D01*
X133910000Y-119960000D02*
X134640000Y-119960000D01*
X109050000Y-74070000D02*
X108320000Y-74070000D01*
X108250489Y-78650489D02*
X109850000Y-80250000D01*
X108320000Y-74070000D02*
X108250489Y-74139511D01*
X109850000Y-80250000D02*
X113450000Y-80250000D01*
X108250489Y-74139511D02*
X108250489Y-78650489D01*
X109150000Y-105210978D02*
X109150000Y-106460978D01*
X109900000Y-107210978D02*
X109900000Y-109650000D01*
X110510978Y-103850000D02*
X109150000Y-105210978D01*
X109150000Y-106460978D02*
X109900000Y-107210978D01*
X109050000Y-102050000D02*
X110850000Y-103850000D01*
X110850000Y-103850000D02*
X110510978Y-103850000D01*
X108950000Y-102050000D02*
X109050000Y-102050000D01*
X188950000Y-78075000D02*
X190745000Y-78075000D01*
X146350000Y-59850000D02*
X146049511Y-59549511D01*
X145980000Y-53420000D02*
X145250000Y-53420000D01*
X146049511Y-53489511D02*
X145980000Y-53420000D01*
X146049511Y-59549511D02*
X146049511Y-53489511D01*
G04 #@! TA.AperFunction,Conductor*
G36*
X158544719Y-45967376D02*
G01*
X158555182Y-45974834D01*
X158602275Y-46012166D01*
X158643230Y-46070157D01*
X158650000Y-46110903D01*
X158650000Y-48624000D01*
X158629998Y-48692121D01*
X158576342Y-48738614D01*
X158524000Y-48750000D01*
X155550000Y-48750000D01*
X154969228Y-49112983D01*
X154780643Y-49230848D01*
X154713863Y-49250000D01*
X151476000Y-49250000D01*
X151407879Y-49229998D01*
X151361386Y-49176342D01*
X151350000Y-49124000D01*
X151350000Y-47176000D01*
X151370002Y-47107879D01*
X151423658Y-47061386D01*
X151476000Y-47050000D01*
X157450000Y-47050000D01*
X157450000Y-46202190D01*
X157470002Y-46134069D01*
X157486905Y-46113095D01*
X157613249Y-45986751D01*
X157675561Y-45952725D01*
X157701970Y-45949847D01*
X158476541Y-45947574D01*
X158544719Y-45967376D01*
G37*
G04 #@! TD.AperFunction*
G04 #@! TA.AperFunction,Conductor*
G36*
X120383386Y-110370002D02*
G01*
X120404360Y-110386905D01*
X128213095Y-118195640D01*
X128247121Y-118257952D01*
X128250000Y-118284735D01*
X128250000Y-119526843D01*
X128229998Y-119594964D01*
X128176342Y-119641457D01*
X128148579Y-119650422D01*
X128103474Y-119659393D01*
X128093158Y-119666286D01*
X128093156Y-119666287D01*
X128062026Y-119687088D01*
X128047077Y-119697077D01*
X128009393Y-119753474D01*
X127999500Y-119803209D01*
X127999501Y-120010599D01*
X127999501Y-120064292D01*
X127979499Y-120132412D01*
X127925844Y-120178905D01*
X127855570Y-120189010D01*
X127837399Y-120185009D01*
X127820259Y-120179883D01*
X127811283Y-120179828D01*
X127811282Y-120179828D01*
X127753847Y-120179477D01*
X127685489Y-120179060D01*
X127676858Y-120181527D01*
X127676856Y-120181527D01*
X127564536Y-120213628D01*
X127564534Y-120213629D01*
X127555905Y-120216095D01*
X127523106Y-120236790D01*
X127449990Y-120282923D01*
X127441924Y-120288012D01*
X127435981Y-120294741D01*
X127435980Y-120294742D01*
X127407809Y-120326640D01*
X127352709Y-120389029D01*
X127348895Y-120397152D01*
X127348894Y-120397154D01*
X127343098Y-120409500D01*
X127295432Y-120511025D01*
X127274697Y-120644193D01*
X127292172Y-120777828D01*
X127346451Y-120901187D01*
X127352228Y-120908060D01*
X127352229Y-120908061D01*
X127424853Y-120994456D01*
X127433172Y-121004353D01*
X127488791Y-121041376D01*
X127536840Y-121073360D01*
X127545362Y-121079033D01*
X127638464Y-121108120D01*
X127658741Y-121114455D01*
X127674002Y-121119223D01*
X127682972Y-121119387D01*
X127682976Y-121119388D01*
X127744742Y-121120520D01*
X127808752Y-121121693D01*
X127840359Y-121113076D01*
X127911340Y-121114455D01*
X127970310Y-121153992D01*
X127998542Y-121219134D01*
X127999500Y-121234639D01*
X127999501Y-121525053D01*
X127979499Y-121593173D01*
X127962596Y-121614148D01*
X127934227Y-121642517D01*
X127871915Y-121676543D01*
X127844366Y-121679420D01*
X127785489Y-121679060D01*
X127776858Y-121681527D01*
X127776856Y-121681527D01*
X127664536Y-121713628D01*
X127664534Y-121713629D01*
X127655905Y-121716095D01*
X127648317Y-121720883D01*
X127558065Y-121777828D01*
X127541924Y-121788012D01*
X127452709Y-121889029D01*
X127395432Y-122011025D01*
X127394052Y-122019890D01*
X127394051Y-122019892D01*
X127376376Y-122133412D01*
X127374697Y-122144193D01*
X127375861Y-122153095D01*
X127375861Y-122153098D01*
X127383738Y-122213333D01*
X127392172Y-122277828D01*
X127446451Y-122401187D01*
X127452228Y-122408060D01*
X127452229Y-122408061D01*
X127512603Y-122479883D01*
X127533172Y-122504353D01*
X127645362Y-122579033D01*
X127774002Y-122619223D01*
X127816850Y-122620008D01*
X127884592Y-122641255D01*
X127903636Y-122656892D01*
X128142595Y-122895851D01*
X128176621Y-122958163D01*
X128179500Y-122984946D01*
X128179500Y-123231128D01*
X128194168Y-123323740D01*
X128198669Y-123332573D01*
X128198669Y-123332574D01*
X128236267Y-123406364D01*
X128250000Y-123463567D01*
X128250000Y-123550000D01*
X128255311Y-123549975D01*
X128260605Y-123568003D01*
X128260605Y-123639000D01*
X128222221Y-123698726D01*
X128157640Y-123728219D01*
X128139713Y-123729501D01*
X127183210Y-123729501D01*
X127133474Y-123739393D01*
X127123158Y-123746286D01*
X127123156Y-123746287D01*
X127095691Y-123764639D01*
X127077077Y-123777077D01*
X127039393Y-123833474D01*
X127029500Y-123883209D01*
X127029501Y-126416790D01*
X127039393Y-126466526D01*
X127077077Y-126522923D01*
X127133474Y-126560607D01*
X127183209Y-126570500D01*
X127903500Y-126570500D01*
X127971621Y-126590502D01*
X128018114Y-126644158D01*
X128029500Y-126696500D01*
X128029500Y-127183155D01*
X128009498Y-127251276D01*
X128002450Y-127261160D01*
X127964130Y-127309769D01*
X127863966Y-127500150D01*
X127800173Y-127705597D01*
X127774888Y-127919229D01*
X127788958Y-128133891D01*
X127841911Y-128342395D01*
X127931974Y-128537757D01*
X128056131Y-128713436D01*
X128060265Y-128717463D01*
X128205606Y-128859048D01*
X128210224Y-128863547D01*
X128215020Y-128866752D01*
X128215023Y-128866754D01*
X128287352Y-128915082D01*
X128389093Y-128983063D01*
X128394396Y-128985341D01*
X128394399Y-128985343D01*
X128581439Y-129065701D01*
X128586746Y-129067981D01*
X128663893Y-129085438D01*
X128790928Y-129114183D01*
X128790933Y-129114184D01*
X128796565Y-129115458D01*
X128802336Y-129115685D01*
X128802338Y-129115685D01*
X128866759Y-129118216D01*
X129011522Y-129123904D01*
X129117971Y-129108469D01*
X129218705Y-129093864D01*
X129218710Y-129093863D01*
X129224419Y-129093035D01*
X129428125Y-129023886D01*
X129615819Y-128918773D01*
X129781215Y-128781215D01*
X129918773Y-128615819D01*
X130023886Y-128428125D01*
X130093035Y-128224419D01*
X130096777Y-128198617D01*
X130123371Y-128015196D01*
X130123904Y-128011522D01*
X130125515Y-127950000D01*
X130105831Y-127735779D01*
X130095763Y-127700080D01*
X130049008Y-127534298D01*
X130049006Y-127534293D01*
X130047438Y-127528733D01*
X130033343Y-127500150D01*
X129954845Y-127340974D01*
X129952291Y-127335795D01*
X129948838Y-127331171D01*
X129948832Y-127331161D01*
X129895542Y-127259797D01*
X129870810Y-127193247D01*
X129870500Y-127184409D01*
X129870500Y-126696499D01*
X129890502Y-126628378D01*
X129944158Y-126581885D01*
X129996500Y-126570499D01*
X130516790Y-126570499D01*
X130566526Y-126560607D01*
X130576842Y-126553714D01*
X130576844Y-126553713D01*
X130612610Y-126529814D01*
X130622923Y-126522923D01*
X130660607Y-126466526D01*
X130670500Y-126416791D01*
X130670499Y-123883210D01*
X130660607Y-123833474D01*
X130622923Y-123777077D01*
X130625562Y-123775314D01*
X130600948Y-123730238D01*
X130606013Y-123659423D01*
X130648560Y-123602587D01*
X130685135Y-123583621D01*
X130688944Y-123582384D01*
X130698740Y-123580832D01*
X130707575Y-123576330D01*
X130707579Y-123576329D01*
X130756386Y-123551461D01*
X130812985Y-123537729D01*
X133632115Y-123524231D01*
X133700330Y-123543907D01*
X133721813Y-123561135D01*
X133774633Y-123613955D01*
X133783466Y-123618455D01*
X133783465Y-123618455D01*
X133863869Y-123659423D01*
X133886260Y-123670832D01*
X133978872Y-123685500D01*
X134491128Y-123685500D01*
X134583740Y-123670832D01*
X134606132Y-123659423D01*
X134686535Y-123618455D01*
X134686534Y-123618455D01*
X134695367Y-123613955D01*
X134753983Y-123555339D01*
X134816295Y-123521313D01*
X134842470Y-123518436D01*
X135038000Y-123517499D01*
X135174729Y-123516845D01*
X135242945Y-123536521D01*
X135264427Y-123553749D01*
X135324633Y-123613955D01*
X135333466Y-123618455D01*
X135333465Y-123618455D01*
X135413869Y-123659423D01*
X135436260Y-123670832D01*
X135446049Y-123672382D01*
X135446051Y-123672383D01*
X135452946Y-123673475D01*
X135455998Y-123673958D01*
X135520150Y-123704371D01*
X135557677Y-123764639D01*
X135562282Y-123797389D01*
X135583747Y-126453106D01*
X135564296Y-126521386D01*
X135511018Y-126568311D01*
X135471140Y-126579411D01*
X135113713Y-126617609D01*
X135113707Y-126617610D01*
X135110329Y-126617971D01*
X135107006Y-126618695D01*
X135107003Y-126618696D01*
X135101596Y-126619875D01*
X134753629Y-126695744D01*
X134407414Y-126811586D01*
X134075735Y-126964141D01*
X133762472Y-127151625D01*
X133759746Y-127153687D01*
X133759744Y-127153688D01*
X133512109Y-127340974D01*
X133471290Y-127371845D01*
X133468805Y-127374187D01*
X133468800Y-127374191D01*
X133369798Y-127467486D01*
X133205594Y-127622224D01*
X133203382Y-127624814D01*
X133203380Y-127624816D01*
X133129487Y-127711334D01*
X132968493Y-127899833D01*
X132762761Y-128201426D01*
X132590803Y-128523473D01*
X132589528Y-128526645D01*
X132589526Y-128526649D01*
X132514439Y-128713436D01*
X132454633Y-128862208D01*
X132453715Y-128865476D01*
X132453712Y-128865483D01*
X132356763Y-129210390D01*
X132355842Y-129213668D01*
X132295586Y-129573742D01*
X132274571Y-129938217D01*
X132293041Y-130302831D01*
X132293578Y-130306186D01*
X132293579Y-130306192D01*
X132333124Y-130553077D01*
X132350782Y-130663316D01*
X132447116Y-131015458D01*
X132580919Y-131355135D01*
X132582502Y-131358150D01*
X132749040Y-131675359D01*
X132749045Y-131675367D01*
X132750624Y-131678375D01*
X132752518Y-131681193D01*
X132752523Y-131681202D01*
X132838642Y-131809360D01*
X132954246Y-131981397D01*
X133189403Y-132260655D01*
X133453344Y-132512882D01*
X133742982Y-132735129D01*
X133745895Y-132736900D01*
X134052014Y-132923024D01*
X134052019Y-132923027D01*
X134054929Y-132924796D01*
X134058017Y-132926242D01*
X134058016Y-132926242D01*
X134382450Y-133078219D01*
X134382460Y-133078223D01*
X134385534Y-133079663D01*
X134388752Y-133080765D01*
X134388755Y-133080766D01*
X134545095Y-133134293D01*
X134603064Y-133175282D01*
X134629670Y-133241105D01*
X134616466Y-133310863D01*
X134567644Y-133362409D01*
X134504281Y-133379500D01*
X109814234Y-133379500D01*
X109746113Y-133359498D01*
X109725139Y-133342595D01*
X108457405Y-132074860D01*
X108423379Y-132012548D01*
X108420500Y-131985765D01*
X108420500Y-112953257D01*
X108440502Y-112885136D01*
X108457405Y-112864162D01*
X110934662Y-110386905D01*
X110996974Y-110352879D01*
X111023757Y-110350000D01*
X120315265Y-110350000D01*
X120383386Y-110370002D01*
G37*
G04 #@! TD.AperFunction*
G04 #@! TA.AperFunction,Conductor*
G36*
X161379486Y-109167260D02*
G01*
X163095551Y-110171786D01*
X163138754Y-110213760D01*
X163139797Y-110215430D01*
X163140899Y-110217338D01*
X163440478Y-110661482D01*
X163770309Y-111083646D01*
X163771793Y-111085294D01*
X164127315Y-111480142D01*
X164127324Y-111480152D01*
X164128786Y-111481775D01*
X164130360Y-111483295D01*
X164512576Y-111852397D01*
X164512585Y-111852405D01*
X164514161Y-111853927D01*
X164924557Y-112198291D01*
X165357976Y-112513188D01*
X165812304Y-112797084D01*
X166285330Y-113048596D01*
X166287336Y-113049489D01*
X166287346Y-113049494D01*
X166772753Y-113265611D01*
X166772759Y-113265613D01*
X166774748Y-113266499D01*
X166776797Y-113267245D01*
X166776805Y-113267248D01*
X167003426Y-113349731D01*
X167278174Y-113449731D01*
X167280291Y-113450338D01*
X167280294Y-113450339D01*
X167645222Y-113554980D01*
X167793155Y-113597399D01*
X168317182Y-113708785D01*
X168847703Y-113783344D01*
X169292534Y-113814450D01*
X169347394Y-113831401D01*
X169487653Y-113913504D01*
X169536337Y-113965180D01*
X169550000Y-114022244D01*
X169550000Y-116216243D01*
X169529998Y-116284364D01*
X169513095Y-116305338D01*
X167336829Y-118481604D01*
X167317741Y-118497271D01*
X167305470Y-118505470D01*
X167298577Y-118515786D01*
X167298576Y-118515787D01*
X167290381Y-118528051D01*
X167290361Y-118528080D01*
X167272389Y-118554978D01*
X167272388Y-118554980D01*
X167245684Y-118594945D01*
X167243263Y-118607117D01*
X167239144Y-118627824D01*
X167230059Y-118673500D01*
X167224690Y-118700489D01*
X167227111Y-118712660D01*
X167227568Y-118714958D01*
X167229989Y-118739539D01*
X167229989Y-119711439D01*
X167227568Y-119736020D01*
X167224690Y-119750489D01*
X167227111Y-119762660D01*
X167229989Y-119777129D01*
X167242958Y-119842329D01*
X167236630Y-119913043D01*
X167193075Y-119969110D01*
X167154005Y-119988058D01*
X167131402Y-119994518D01*
X167064535Y-120013628D01*
X167064532Y-120013630D01*
X167055905Y-120016095D01*
X166941924Y-120088012D01*
X166935981Y-120094741D01*
X166935980Y-120094742D01*
X166924517Y-120107722D01*
X166852709Y-120189029D01*
X166848895Y-120197152D01*
X166848894Y-120197154D01*
X166824144Y-120249871D01*
X166795432Y-120311025D01*
X166794052Y-120319890D01*
X166794051Y-120319892D01*
X166793797Y-120321528D01*
X166774697Y-120444193D01*
X166792172Y-120577828D01*
X166846451Y-120701187D01*
X166852228Y-120708060D01*
X166852229Y-120708061D01*
X166922623Y-120791803D01*
X166933172Y-120804353D01*
X167045362Y-120879033D01*
X167119118Y-120902076D01*
X167159634Y-120914734D01*
X167174002Y-120919223D01*
X167182972Y-120919387D01*
X167182976Y-120919388D01*
X167244742Y-120920520D01*
X167308752Y-120921693D01*
X167438779Y-120886244D01*
X167439662Y-120889484D01*
X167493941Y-120882793D01*
X167557914Y-120913581D01*
X167595087Y-120974069D01*
X167599500Y-121007124D01*
X167599501Y-121178679D01*
X167599501Y-121346790D01*
X167609393Y-121396526D01*
X167616286Y-121406842D01*
X167616287Y-121406844D01*
X167624045Y-121418454D01*
X167647077Y-121452923D01*
X167703474Y-121490607D01*
X167753209Y-121500500D01*
X167793054Y-121500500D01*
X168478501Y-121500499D01*
X168546621Y-121520501D01*
X168593114Y-121574157D01*
X168604500Y-121626499D01*
X168604500Y-122153833D01*
X168584498Y-122221954D01*
X168530849Y-122268441D01*
X168526260Y-122269168D01*
X168414633Y-122326045D01*
X168326045Y-122414633D01*
X168283259Y-122498606D01*
X168277095Y-122510703D01*
X168228347Y-122562318D01*
X168164828Y-122579500D01*
X167895794Y-122579500D01*
X167827673Y-122559498D01*
X167800341Y-122535748D01*
X167768337Y-122498606D01*
X167768336Y-122498606D01*
X167762475Y-122491803D01*
X167649382Y-122418499D01*
X167640785Y-122415928D01*
X167640783Y-122415927D01*
X167563140Y-122392707D01*
X167520259Y-122379883D01*
X167511283Y-122379828D01*
X167511282Y-122379828D01*
X167453847Y-122379477D01*
X167385489Y-122379060D01*
X167376858Y-122381527D01*
X167376856Y-122381527D01*
X167264536Y-122413628D01*
X167264534Y-122413629D01*
X167255905Y-122416095D01*
X167141924Y-122488012D01*
X167135981Y-122494741D01*
X167135980Y-122494742D01*
X167092020Y-122544518D01*
X167052709Y-122589029D01*
X166995432Y-122711025D01*
X166994052Y-122719890D01*
X166994051Y-122719892D01*
X166986781Y-122766588D01*
X166974697Y-122844193D01*
X166975861Y-122853095D01*
X166975861Y-122853098D01*
X166983513Y-122911614D01*
X166992172Y-122977828D01*
X167046451Y-123101187D01*
X167052228Y-123108060D01*
X167052229Y-123108061D01*
X167100770Y-123165806D01*
X167133172Y-123204353D01*
X167245362Y-123279033D01*
X167374002Y-123319223D01*
X167382972Y-123319387D01*
X167382976Y-123319388D01*
X167444742Y-123320520D01*
X167508752Y-123321693D01*
X167517812Y-123319223D01*
X167630117Y-123288606D01*
X167630120Y-123288605D01*
X167638779Y-123286244D01*
X167646429Y-123281547D01*
X167646431Y-123281546D01*
X167745979Y-123220424D01*
X167745982Y-123220421D01*
X167753631Y-123215725D01*
X167763925Y-123204353D01*
X167802310Y-123161945D01*
X167862853Y-123124864D01*
X167895725Y-123120500D01*
X168137283Y-123120500D01*
X168205404Y-123140502D01*
X168251897Y-123194158D01*
X168261732Y-123226790D01*
X168269168Y-123273740D01*
X168273669Y-123282573D01*
X168273669Y-123282574D01*
X168277095Y-123289297D01*
X168326045Y-123385367D01*
X168414633Y-123473955D01*
X168526260Y-123530832D01*
X168618872Y-123545500D01*
X169131128Y-123545500D01*
X169223740Y-123530832D01*
X169234466Y-123525367D01*
X169326530Y-123478458D01*
X169326531Y-123478457D01*
X169335367Y-123473955D01*
X169342381Y-123466941D01*
X169349937Y-123461451D01*
X169416805Y-123437592D01*
X169485957Y-123453671D01*
X169535438Y-123504584D01*
X169550000Y-123563386D01*
X169550000Y-126629637D01*
X169529998Y-126697758D01*
X169476342Y-126744251D01*
X169450845Y-126752744D01*
X169253629Y-126795744D01*
X168907414Y-126911586D01*
X168904321Y-126913009D01*
X168904320Y-126913009D01*
X168765820Y-126976712D01*
X168575735Y-127064141D01*
X168572801Y-127065897D01*
X168572799Y-127065898D01*
X168300722Y-127228733D01*
X168262472Y-127251625D01*
X168259746Y-127253687D01*
X168259744Y-127253688D01*
X168011366Y-127441536D01*
X167971290Y-127471845D01*
X167968805Y-127474187D01*
X167968800Y-127474191D01*
X167869798Y-127567486D01*
X167705594Y-127722224D01*
X167703382Y-127724814D01*
X167703380Y-127724816D01*
X167610221Y-127833891D01*
X167468493Y-127999833D01*
X167377544Y-128133160D01*
X167267516Y-128294456D01*
X167262761Y-128301426D01*
X167169993Y-128475164D01*
X167093313Y-128618773D01*
X167090803Y-128623473D01*
X167089528Y-128626645D01*
X167089526Y-128626649D01*
X166994833Y-128862208D01*
X166954633Y-128962208D01*
X166953715Y-128965476D01*
X166953712Y-128965483D01*
X166856763Y-129310390D01*
X166855842Y-129313668D01*
X166795586Y-129673742D01*
X166774571Y-130038217D01*
X166793041Y-130402831D01*
X166793578Y-130406186D01*
X166793579Y-130406192D01*
X166833124Y-130653077D01*
X166850782Y-130763316D01*
X166947116Y-131115458D01*
X167080919Y-131455135D01*
X167082502Y-131458150D01*
X167249040Y-131775359D01*
X167249045Y-131775367D01*
X167250624Y-131778375D01*
X167252518Y-131781193D01*
X167252523Y-131781202D01*
X167300037Y-131851910D01*
X167454246Y-132081397D01*
X167689403Y-132360655D01*
X167953344Y-132612882D01*
X168242982Y-132835129D01*
X168245895Y-132836900D01*
X168552014Y-133023024D01*
X168552019Y-133023027D01*
X168554929Y-133024796D01*
X168558017Y-133026242D01*
X168558016Y-133026242D01*
X168882450Y-133178219D01*
X168882460Y-133178223D01*
X168885534Y-133179663D01*
X168888752Y-133180765D01*
X168888755Y-133180766D01*
X169227709Y-133296816D01*
X169227717Y-133296818D01*
X169230932Y-133297919D01*
X169234262Y-133298669D01*
X169234264Y-133298670D01*
X169451700Y-133347671D01*
X169513757Y-133382159D01*
X169547317Y-133444723D01*
X169550000Y-133470588D01*
X169550000Y-133857000D01*
X169529998Y-133925121D01*
X169476342Y-133971614D01*
X169424000Y-133983000D01*
X137503735Y-133983000D01*
X137435614Y-133962998D01*
X137389121Y-133909342D01*
X137379017Y-133839068D01*
X137408511Y-133774488D01*
X137414640Y-133767905D01*
X139313660Y-131868885D01*
X139332748Y-131853218D01*
X139345019Y-131845019D01*
X139360108Y-131822437D01*
X139360112Y-131822433D01*
X139397911Y-131765862D01*
X139397911Y-131765861D01*
X139404805Y-131755544D01*
X139414133Y-131708645D01*
X139414135Y-131708642D01*
X139414134Y-131708642D01*
X139420500Y-131676640D01*
X139420500Y-131676636D01*
X139425798Y-131650000D01*
X139422921Y-131635534D01*
X139420500Y-131610956D01*
X139420500Y-128439044D01*
X139422921Y-128414463D01*
X139425798Y-128400000D01*
X139420500Y-128373364D01*
X139420500Y-128373360D01*
X139404805Y-128294456D01*
X139360110Y-128227565D01*
X139360108Y-128227563D01*
X139345019Y-128204981D01*
X139332748Y-128196782D01*
X139313660Y-128181115D01*
X137457405Y-126324860D01*
X137423379Y-126262548D01*
X137420500Y-126235765D01*
X137420500Y-124283209D01*
X161629500Y-124283209D01*
X161629501Y-126816790D01*
X161639393Y-126866526D01*
X161677077Y-126922923D01*
X161733474Y-126960607D01*
X161783209Y-126970500D01*
X161788964Y-126970500D01*
X161854657Y-126997028D01*
X161895666Y-127054983D01*
X161898832Y-127125909D01*
X161887981Y-127154505D01*
X161866656Y-127195036D01*
X161866654Y-127195041D01*
X161863966Y-127200150D01*
X161800173Y-127405597D01*
X161774888Y-127619229D01*
X161788958Y-127833891D01*
X161841911Y-128042395D01*
X161844330Y-128047642D01*
X161927275Y-128227563D01*
X161931974Y-128237757D01*
X162056131Y-128413436D01*
X162210224Y-128563547D01*
X162215020Y-128566752D01*
X162215023Y-128566754D01*
X162287352Y-128615082D01*
X162389093Y-128683063D01*
X162394396Y-128685341D01*
X162394399Y-128685343D01*
X162581439Y-128765701D01*
X162586746Y-128767981D01*
X162663893Y-128785438D01*
X162790928Y-128814183D01*
X162790933Y-128814184D01*
X162796565Y-128815458D01*
X162802336Y-128815685D01*
X162802338Y-128815685D01*
X162866759Y-128818216D01*
X163011522Y-128823904D01*
X163117971Y-128808469D01*
X163218705Y-128793864D01*
X163218710Y-128793863D01*
X163224419Y-128793035D01*
X163428125Y-128723886D01*
X163615819Y-128618773D01*
X163781215Y-128481215D01*
X163918773Y-128315819D01*
X164023886Y-128128125D01*
X164093035Y-127924419D01*
X164106998Y-127828123D01*
X164122352Y-127722224D01*
X164123904Y-127711522D01*
X164125515Y-127650000D01*
X164105831Y-127435779D01*
X164087800Y-127371845D01*
X164049008Y-127234298D01*
X164049006Y-127234293D01*
X164047438Y-127228733D01*
X164044884Y-127223555D01*
X164044881Y-127223546D01*
X164009710Y-127152227D01*
X163997520Y-127082285D01*
X164025079Y-127016855D01*
X164083637Y-126976712D01*
X164122716Y-126970499D01*
X165116790Y-126970499D01*
X165166526Y-126960607D01*
X165176842Y-126953714D01*
X165176844Y-126953713D01*
X165212610Y-126929814D01*
X165222923Y-126922923D01*
X165260607Y-126866526D01*
X165270500Y-126816791D01*
X165270499Y-124283210D01*
X165260607Y-124233474D01*
X165222923Y-124177077D01*
X165166526Y-124139393D01*
X165116791Y-124129500D01*
X163450270Y-124129500D01*
X161783210Y-124129501D01*
X161733474Y-124139393D01*
X161723158Y-124146286D01*
X161723156Y-124146287D01*
X161692026Y-124167088D01*
X161677077Y-124177077D01*
X161639393Y-124233474D01*
X161629500Y-124283209D01*
X137420500Y-124283209D01*
X137420500Y-123652283D01*
X137440502Y-123584162D01*
X137494158Y-123537669D01*
X137547305Y-123526286D01*
X138807154Y-123534355D01*
X139257589Y-123537240D01*
X139276492Y-123538788D01*
X139291451Y-123541157D01*
X139318872Y-123545500D01*
X139831128Y-123545500D01*
X139836016Y-123544726D01*
X139836027Y-123544725D01*
X139848772Y-123542706D01*
X139869287Y-123541157D01*
X141191808Y-123549627D01*
X141233603Y-123549895D01*
X141250000Y-123550000D01*
X141250000Y-123547591D01*
X141264880Y-123545500D01*
X141381128Y-123545500D01*
X141473740Y-123530832D01*
X141585367Y-123473955D01*
X141673955Y-123385367D01*
X141722906Y-123289296D01*
X141771653Y-123237682D01*
X141835172Y-123220500D01*
X141949104Y-123220500D01*
X142017225Y-123240502D01*
X142029165Y-123249586D01*
X142033172Y-123254353D01*
X142040643Y-123259326D01*
X142040644Y-123259327D01*
X142134087Y-123321528D01*
X142145362Y-123329033D01*
X142274002Y-123369223D01*
X142282972Y-123369387D01*
X142282976Y-123369388D01*
X142344742Y-123370520D01*
X142408752Y-123371693D01*
X142417812Y-123369223D01*
X142530117Y-123338606D01*
X142530120Y-123338605D01*
X142538779Y-123336244D01*
X142546429Y-123331547D01*
X142546431Y-123331546D01*
X142645979Y-123270424D01*
X142645982Y-123270421D01*
X142653631Y-123265725D01*
X142663925Y-123254353D01*
X142738045Y-123172466D01*
X142738046Y-123172465D01*
X142744073Y-123165806D01*
X142766024Y-123120500D01*
X142798921Y-123052599D01*
X142798921Y-123052598D01*
X142802836Y-123044518D01*
X142825196Y-122911614D01*
X142825338Y-122900000D01*
X142817346Y-122844193D01*
X142807505Y-122775474D01*
X142807504Y-122775471D01*
X142806232Y-122766588D01*
X142750450Y-122643902D01*
X142662475Y-122541803D01*
X142549382Y-122468499D01*
X142540785Y-122465928D01*
X142540783Y-122465927D01*
X142463140Y-122442707D01*
X142420259Y-122429883D01*
X142411283Y-122429828D01*
X142411282Y-122429828D01*
X142353847Y-122429477D01*
X142285489Y-122429060D01*
X142276858Y-122431527D01*
X142276856Y-122431527D01*
X142164536Y-122463628D01*
X142164534Y-122463629D01*
X142155905Y-122466095D01*
X142041924Y-122538012D01*
X142035983Y-122544739D01*
X142030444Y-122549453D01*
X141965604Y-122578372D01*
X141948780Y-122579500D01*
X141835172Y-122579500D01*
X141767051Y-122559498D01*
X141722905Y-122510703D01*
X141716742Y-122498606D01*
X141673955Y-122414633D01*
X141585367Y-122326045D01*
X141473740Y-122269168D01*
X141381128Y-122254500D01*
X141376000Y-122254500D01*
X141375936Y-122254481D01*
X141371243Y-122254112D01*
X141371321Y-122253126D01*
X141307879Y-122234498D01*
X141261386Y-122180842D01*
X141250000Y-122128500D01*
X141250000Y-121626499D01*
X141270002Y-121558378D01*
X141323658Y-121511885D01*
X141375998Y-121500499D01*
X141796790Y-121500499D01*
X141846279Y-121490656D01*
X141916991Y-121496985D01*
X141940675Y-121509348D01*
X142045362Y-121579033D01*
X142174002Y-121619223D01*
X142182972Y-121619387D01*
X142182976Y-121619388D01*
X142244742Y-121620520D01*
X142308752Y-121621693D01*
X142317812Y-121619223D01*
X142430117Y-121588606D01*
X142430120Y-121588605D01*
X142438779Y-121586244D01*
X142446429Y-121581547D01*
X142446431Y-121581546D01*
X142545979Y-121520424D01*
X142545982Y-121520421D01*
X142553631Y-121515725D01*
X142563925Y-121504353D01*
X142638045Y-121422466D01*
X142638046Y-121422465D01*
X142644073Y-121415806D01*
X142654545Y-121394193D01*
X142698921Y-121302599D01*
X142698921Y-121302598D01*
X142702836Y-121294518D01*
X142725196Y-121161614D01*
X142725338Y-121150000D01*
X142717365Y-121094328D01*
X142707505Y-121025474D01*
X142707504Y-121025471D01*
X142706232Y-121016588D01*
X142700270Y-121003474D01*
X142673683Y-120945000D01*
X142650450Y-120893902D01*
X142562475Y-120791803D01*
X142449382Y-120718499D01*
X142440785Y-120715928D01*
X142440783Y-120715927D01*
X142363140Y-120692707D01*
X142320259Y-120679883D01*
X142311283Y-120679828D01*
X142311282Y-120679828D01*
X142253847Y-120679477D01*
X142185489Y-120679060D01*
X142111122Y-120700314D01*
X142040130Y-120699802D01*
X141980683Y-120660988D01*
X141951656Y-120596196D01*
X141950500Y-120579165D01*
X141950499Y-120317991D01*
X141970501Y-120249871D01*
X142024156Y-120203378D01*
X142094430Y-120193273D01*
X142146318Y-120213104D01*
X142221591Y-120263210D01*
X142245362Y-120279033D01*
X142374002Y-120319223D01*
X142382972Y-120319387D01*
X142382976Y-120319388D01*
X142444742Y-120320520D01*
X142508752Y-120321693D01*
X142522331Y-120317991D01*
X142630117Y-120288606D01*
X142630120Y-120288605D01*
X142638779Y-120286244D01*
X142646429Y-120281547D01*
X142646431Y-120281546D01*
X142745979Y-120220424D01*
X142745982Y-120220421D01*
X142753631Y-120215725D01*
X142763925Y-120204353D01*
X142838045Y-120122466D01*
X142838046Y-120122465D01*
X142844073Y-120115806D01*
X142854279Y-120094742D01*
X142898921Y-120002599D01*
X142898921Y-120002598D01*
X142902836Y-119994518D01*
X142925196Y-119861614D01*
X142925338Y-119850000D01*
X142911087Y-119750489D01*
X142907505Y-119725474D01*
X142907504Y-119725471D01*
X142906232Y-119716588D01*
X142850450Y-119593902D01*
X142762475Y-119491803D01*
X142649382Y-119418499D01*
X142523256Y-119380779D01*
X142463724Y-119342099D01*
X142434553Y-119277371D01*
X142445008Y-119207149D01*
X142493429Y-119152689D01*
X142553631Y-119115725D01*
X142574012Y-119093209D01*
X142638045Y-119022466D01*
X142638046Y-119022465D01*
X142644073Y-119015806D01*
X142665787Y-118970989D01*
X142698921Y-118902599D01*
X142698921Y-118902598D01*
X142702836Y-118894518D01*
X142725196Y-118761614D01*
X142725338Y-118750000D01*
X142716504Y-118688317D01*
X142707505Y-118625474D01*
X142707504Y-118625471D01*
X142706232Y-118616588D01*
X142700010Y-118602902D01*
X142683225Y-118565986D01*
X142650450Y-118493902D01*
X142562475Y-118391803D01*
X142449382Y-118318499D01*
X142440785Y-118315928D01*
X142440783Y-118315927D01*
X142363140Y-118292707D01*
X142320259Y-118279883D01*
X142311283Y-118279828D01*
X142311282Y-118279828D01*
X142253847Y-118279477D01*
X142185489Y-118279060D01*
X142176858Y-118281527D01*
X142176856Y-118281527D01*
X142064536Y-118313628D01*
X142064534Y-118313629D01*
X142055905Y-118316095D01*
X141941924Y-118388012D01*
X141935981Y-118394741D01*
X141935980Y-118394742D01*
X141930288Y-118401187D01*
X141852709Y-118489029D01*
X141848895Y-118497152D01*
X141848894Y-118497154D01*
X141830267Y-118536829D01*
X141795432Y-118611025D01*
X141794052Y-118619890D01*
X141794051Y-118619892D01*
X141782686Y-118692885D01*
X141752441Y-118757118D01*
X141692272Y-118794802D01*
X141658186Y-118799500D01*
X141376000Y-118799500D01*
X141307879Y-118779498D01*
X141261386Y-118725842D01*
X141250000Y-118673500D01*
X141250000Y-117201727D01*
X141270002Y-117133606D01*
X141286346Y-117113194D01*
X147777542Y-110539831D01*
X147839639Y-110505414D01*
X147910485Y-110510034D01*
X147937010Y-110523474D01*
X147945362Y-110529033D01*
X148038464Y-110558120D01*
X148058981Y-110564530D01*
X148074002Y-110569223D01*
X148082972Y-110569387D01*
X148082976Y-110569388D01*
X148144742Y-110570520D01*
X148208752Y-110571693D01*
X148217812Y-110569223D01*
X148330117Y-110538606D01*
X148330120Y-110538605D01*
X148338779Y-110536244D01*
X148346429Y-110531547D01*
X148346431Y-110531546D01*
X148445979Y-110470424D01*
X148445982Y-110470421D01*
X148453631Y-110465725D01*
X148463925Y-110454353D01*
X148538045Y-110372466D01*
X148538046Y-110372465D01*
X148544073Y-110365806D01*
X148572504Y-110307125D01*
X148598921Y-110252599D01*
X148598921Y-110252598D01*
X148602836Y-110244518D01*
X148625196Y-110111614D01*
X148625255Y-110106752D01*
X148625691Y-110101897D01*
X148627063Y-110102020D01*
X148646082Y-110040081D01*
X148662137Y-110020408D01*
X149225140Y-109457405D01*
X149287452Y-109423379D01*
X149314235Y-109420500D01*
X160610950Y-109420500D01*
X160635531Y-109422921D01*
X160650000Y-109425799D01*
X160662171Y-109423378D01*
X160676640Y-109420500D01*
X160755544Y-109404805D01*
X160808365Y-109369511D01*
X160822435Y-109360110D01*
X160822437Y-109360108D01*
X160845019Y-109345019D01*
X160853218Y-109332748D01*
X160868885Y-109313660D01*
X160995640Y-109186905D01*
X161057952Y-109152879D01*
X161084735Y-109150000D01*
X161315833Y-109150000D01*
X161379486Y-109167260D01*
G37*
G04 #@! TD.AperFunction*
G04 #@! TA.AperFunction,Conductor*
G36*
X133850544Y-73670002D02*
G01*
X133871518Y-73686905D01*
X140037035Y-79852422D01*
X140071061Y-79914734D01*
X140065996Y-79985549D01*
X140034098Y-80033455D01*
X124686346Y-94415940D01*
X124622963Y-94447925D01*
X124600189Y-94450000D01*
X107943000Y-94450000D01*
X107874879Y-94429998D01*
X107828386Y-94376342D01*
X107817000Y-94324000D01*
X107817000Y-80828476D01*
X107837002Y-80760355D01*
X107853316Y-80739973D01*
X109343575Y-79229844D01*
X109400115Y-79196785D01*
X109438779Y-79186244D01*
X109446429Y-79181547D01*
X109446431Y-79181546D01*
X109545979Y-79120424D01*
X109545982Y-79120421D01*
X109553631Y-79115725D01*
X109563925Y-79104353D01*
X109638045Y-79022466D01*
X109638046Y-79022465D01*
X109644073Y-79015806D01*
X109702836Y-78894518D01*
X109704324Y-78885671D01*
X109705244Y-78882790D01*
X109735595Y-78832597D01*
X110215620Y-78346172D01*
X110277705Y-78311736D01*
X110348553Y-78316331D01*
X110364255Y-78324696D01*
X110364633Y-78323955D01*
X110476260Y-78380832D01*
X110568872Y-78395500D01*
X111081128Y-78395500D01*
X111173740Y-78380832D01*
X111285367Y-78323955D01*
X111373955Y-78235367D01*
X111430832Y-78123740D01*
X111445500Y-78031128D01*
X111445500Y-77859946D01*
X111465502Y-77791825D01*
X111482405Y-77770851D01*
X111695087Y-77558169D01*
X111757399Y-77524143D01*
X111786490Y-77521285D01*
X111808752Y-77521693D01*
X111817416Y-77519331D01*
X111930117Y-77488606D01*
X111930120Y-77488605D01*
X111938779Y-77486244D01*
X111946429Y-77481547D01*
X111946431Y-77481546D01*
X112045979Y-77420424D01*
X112045982Y-77420421D01*
X112053631Y-77415725D01*
X112144073Y-77315806D01*
X112202836Y-77194518D01*
X112225196Y-77061614D01*
X112225338Y-77050000D01*
X112206232Y-76916588D01*
X112150450Y-76793902D01*
X112062475Y-76691803D01*
X112054941Y-76686919D01*
X112048178Y-76681020D01*
X112050512Y-76678344D01*
X112015307Y-76637368D01*
X112005499Y-76567052D01*
X112035263Y-76502596D01*
X112040458Y-76497003D01*
X112059405Y-76477804D01*
X112121491Y-76443368D01*
X112192339Y-76447965D01*
X112218907Y-76461423D01*
X112237887Y-76474058D01*
X112237891Y-76474060D01*
X112245362Y-76479033D01*
X112374002Y-76519223D01*
X112382972Y-76519387D01*
X112382976Y-76519388D01*
X112444742Y-76520520D01*
X112508752Y-76521693D01*
X112517812Y-76519223D01*
X112630117Y-76488606D01*
X112630120Y-76488605D01*
X112638779Y-76486244D01*
X112646429Y-76481547D01*
X112646431Y-76481546D01*
X112745979Y-76420424D01*
X112745982Y-76420421D01*
X112753631Y-76415725D01*
X112763925Y-76404353D01*
X112838045Y-76322466D01*
X112838046Y-76322465D01*
X112844073Y-76315806D01*
X112902836Y-76194518D01*
X112925196Y-76061614D01*
X112925338Y-76050000D01*
X112906232Y-75916588D01*
X112890446Y-75881868D01*
X112880460Y-75811577D01*
X112910061Y-75747045D01*
X112969851Y-75708762D01*
X113042721Y-75709450D01*
X113074002Y-75719223D01*
X113082972Y-75719387D01*
X113082976Y-75719388D01*
X113144742Y-75720520D01*
X113208752Y-75721693D01*
X113217812Y-75719223D01*
X113330117Y-75688606D01*
X113330120Y-75688605D01*
X113338779Y-75686244D01*
X113346429Y-75681547D01*
X113346431Y-75681546D01*
X113445979Y-75620424D01*
X113445982Y-75620421D01*
X113453631Y-75615725D01*
X113465757Y-75602329D01*
X113538045Y-75522466D01*
X113538046Y-75522465D01*
X113544073Y-75515806D01*
X113593671Y-75413436D01*
X113598921Y-75402599D01*
X113598921Y-75402598D01*
X113602836Y-75394518D01*
X113625196Y-75261614D01*
X113625338Y-75250000D01*
X113612909Y-75163209D01*
X113607505Y-75125474D01*
X113607504Y-75125471D01*
X113606232Y-75116588D01*
X113602518Y-75108419D01*
X113577928Y-75054336D01*
X113567942Y-74984045D01*
X113597542Y-74919514D01*
X113602945Y-74913682D01*
X114598091Y-73905268D01*
X114660175Y-73870832D01*
X114687773Y-73867772D01*
X121950811Y-73867772D01*
X122020813Y-73889007D01*
X122034138Y-73897911D01*
X122034141Y-73897912D01*
X122044457Y-73904805D01*
X122150000Y-73925799D01*
X122162171Y-73923378D01*
X122192019Y-73917441D01*
X122216600Y-73915020D01*
X129016430Y-73915020D01*
X129041011Y-73917441D01*
X129055480Y-73920319D01*
X129067651Y-73917898D01*
X129082120Y-73915020D01*
X129161024Y-73899325D01*
X129219713Y-73860110D01*
X129227915Y-73854630D01*
X129227917Y-73854628D01*
X129250499Y-73839539D01*
X129258698Y-73827268D01*
X129274365Y-73808180D01*
X129395640Y-73686905D01*
X129457952Y-73652879D01*
X129484735Y-73650000D01*
X133782423Y-73650000D01*
X133850544Y-73670002D01*
G37*
G04 #@! TD.AperFunction*
G04 #@! TA.AperFunction,Conductor*
G36*
X134592111Y-66266150D02*
G01*
X134593150Y-66263641D01*
X134604620Y-66268392D01*
X134614936Y-66275285D01*
X134627105Y-66277706D01*
X134627106Y-66277706D01*
X134693833Y-66290979D01*
X134693838Y-66290980D01*
X134693841Y-66290980D01*
X134693849Y-66290981D01*
X134706016Y-66293401D01*
X134720480Y-66296278D01*
X134734946Y-66293401D01*
X134759524Y-66290980D01*
X145850950Y-66290980D01*
X145875531Y-66293401D01*
X145890000Y-66296279D01*
X145902171Y-66293858D01*
X145904469Y-66293401D01*
X145929050Y-66290980D01*
X153481430Y-66290980D01*
X153506011Y-66293401D01*
X153520480Y-66296279D01*
X153532651Y-66293858D01*
X153547120Y-66290980D01*
X153613854Y-66277706D01*
X153613855Y-66277706D01*
X153626024Y-66275285D01*
X153636340Y-66268392D01*
X153647810Y-66263641D01*
X153648849Y-66266150D01*
X153702088Y-66250000D01*
X154553501Y-66250000D01*
X154621622Y-66270002D01*
X154668115Y-66323658D01*
X154679501Y-66375999D01*
X154679501Y-66516790D01*
X154689393Y-66566526D01*
X154696286Y-66576842D01*
X154696287Y-66576844D01*
X154717088Y-66607974D01*
X154727077Y-66622923D01*
X154783474Y-66660607D01*
X154833209Y-66670500D01*
X155249932Y-66670500D01*
X155666790Y-66670499D01*
X155716526Y-66660607D01*
X155726842Y-66653714D01*
X155726844Y-66653713D01*
X155762610Y-66629814D01*
X155772923Y-66622923D01*
X155810607Y-66566526D01*
X155820500Y-66516791D01*
X155820500Y-66446500D01*
X155840502Y-66378379D01*
X155894158Y-66331886D01*
X155946500Y-66320500D01*
X156990605Y-66320500D01*
X157058726Y-66340502D01*
X157079695Y-66357400D01*
X158024989Y-67302693D01*
X158040650Y-67321776D01*
X158048852Y-67334050D01*
X158138327Y-67393836D01*
X158182569Y-67402636D01*
X158217224Y-67409530D01*
X158217229Y-67409531D01*
X158217232Y-67409531D01*
X158217240Y-67409532D01*
X158229407Y-67411952D01*
X158243871Y-67414829D01*
X158258337Y-67411952D01*
X158282915Y-67409531D01*
X158913194Y-67409531D01*
X158981315Y-67429533D01*
X159002289Y-67446436D01*
X160592595Y-69036742D01*
X160626621Y-69099054D01*
X160629500Y-69125837D01*
X160629500Y-73949483D01*
X160609498Y-74017604D01*
X160591772Y-74037878D01*
X160591924Y-74038012D01*
X160502709Y-74139029D01*
X160498895Y-74147152D01*
X160498894Y-74147154D01*
X160487493Y-74171437D01*
X160445432Y-74261025D01*
X160424697Y-74394193D01*
X160442172Y-74527828D01*
X160496451Y-74651187D01*
X160502228Y-74658060D01*
X160502229Y-74658061D01*
X160508740Y-74665806D01*
X160583172Y-74754353D01*
X160695362Y-74829033D01*
X160824002Y-74869223D01*
X160832972Y-74869387D01*
X160832976Y-74869388D01*
X160894742Y-74870520D01*
X160958752Y-74871693D01*
X160967812Y-74869223D01*
X161080117Y-74838606D01*
X161080120Y-74838605D01*
X161088779Y-74836244D01*
X161096429Y-74831547D01*
X161096431Y-74831546D01*
X161195979Y-74770424D01*
X161195982Y-74770421D01*
X161203631Y-74765725D01*
X161213925Y-74754353D01*
X161294073Y-74665806D01*
X161295817Y-74667385D01*
X161340640Y-74630248D01*
X161411121Y-74621701D01*
X161475033Y-74652615D01*
X161512087Y-74713175D01*
X161516428Y-74744629D01*
X161549427Y-77797014D01*
X161530162Y-77865347D01*
X161512529Y-77887471D01*
X159886905Y-79513095D01*
X159824593Y-79547121D01*
X159797810Y-79550000D01*
X150950000Y-79550000D01*
X150944884Y-79556821D01*
X150921802Y-79563599D01*
X150893983Y-79577508D01*
X150871668Y-79579500D01*
X150189044Y-79579500D01*
X150164466Y-79577079D01*
X150150000Y-79574202D01*
X150137828Y-79576623D01*
X150123369Y-79579499D01*
X150123361Y-79579500D01*
X150123358Y-79579500D01*
X150123353Y-79579501D01*
X150088698Y-79586395D01*
X150044456Y-79595195D01*
X149954981Y-79654981D01*
X149946783Y-79667250D01*
X149931118Y-79686338D01*
X149704359Y-79913096D01*
X149642047Y-79947121D01*
X149615264Y-79950000D01*
X141517578Y-79950000D01*
X141449457Y-79929998D01*
X141428483Y-79913095D01*
X134129941Y-72614554D01*
X134123066Y-72605952D01*
X134122596Y-72606352D01*
X134116778Y-72599516D01*
X134111988Y-72591924D01*
X134074874Y-72559146D01*
X134069188Y-72553801D01*
X134058806Y-72543419D01*
X134051367Y-72537843D01*
X134043527Y-72531461D01*
X134017698Y-72508650D01*
X134010971Y-72502709D01*
X134002845Y-72498894D01*
X133997100Y-72495120D01*
X133991472Y-72491738D01*
X133985448Y-72488440D01*
X133978268Y-72483059D01*
X133969868Y-72479910D01*
X133969861Y-72479906D01*
X133937595Y-72467810D01*
X133928279Y-72463885D01*
X133888975Y-72445432D01*
X133880107Y-72444051D01*
X133873513Y-72442035D01*
X133867189Y-72440376D01*
X133860474Y-72438900D01*
X133852072Y-72435750D01*
X133843125Y-72435085D01*
X133843124Y-72435085D01*
X133819769Y-72433350D01*
X133808763Y-72432532D01*
X133798721Y-72431379D01*
X133793337Y-72430541D01*
X133791465Y-72430249D01*
X133791464Y-72430249D01*
X133786654Y-72429500D01*
X133772642Y-72429500D01*
X133763305Y-72429154D01*
X133755947Y-72428607D01*
X133717670Y-72425763D01*
X133708893Y-72427636D01*
X133699938Y-72428247D01*
X133699929Y-72428121D01*
X133686865Y-72429500D01*
X132620190Y-72429500D01*
X132552069Y-72409498D01*
X132505576Y-72355842D01*
X132494193Y-72304420D01*
X132474740Y-69639418D01*
X132450926Y-66376919D01*
X132470431Y-66308655D01*
X132523746Y-66261771D01*
X132576923Y-66250000D01*
X134538872Y-66250000D01*
X134592111Y-66266150D01*
G37*
G04 #@! TD.AperFunction*
G04 #@! TA.AperFunction,Conductor*
G36*
X170792121Y-53670002D02*
G01*
X170838614Y-53723658D01*
X170850000Y-53776000D01*
X170850000Y-54724000D01*
X170829998Y-54792121D01*
X170776342Y-54838614D01*
X170724000Y-54850000D01*
X170543072Y-54850000D01*
X170489286Y-54833684D01*
X170488311Y-54836037D01*
X170476843Y-54831287D01*
X170466526Y-54824393D01*
X170416791Y-54814500D01*
X169400165Y-54814500D01*
X168383210Y-54814501D01*
X168333474Y-54824393D01*
X168323156Y-54831287D01*
X168311686Y-54836038D01*
X168310711Y-54833684D01*
X168284537Y-54841624D01*
X168285498Y-54844896D01*
X168268116Y-54850000D01*
X168250000Y-54850000D01*
X168250000Y-54874130D01*
X168241936Y-54914668D01*
X168239393Y-54918474D01*
X168229500Y-54968209D01*
X168229500Y-55049928D01*
X168209498Y-55118049D01*
X168155842Y-55164542D01*
X168128082Y-55173506D01*
X168094456Y-55180195D01*
X168004981Y-55239981D01*
X167996779Y-55252255D01*
X167981113Y-55271343D01*
X166639360Y-56613095D01*
X166577048Y-56647121D01*
X166550265Y-56650000D01*
X166450000Y-56650000D01*
X166150000Y-56950000D01*
X166150000Y-57997810D01*
X166129998Y-58065931D01*
X166113095Y-58086905D01*
X165886905Y-58313095D01*
X165824593Y-58347121D01*
X165797810Y-58350000D01*
X165614502Y-58350000D01*
X165557300Y-58336267D01*
X165532577Y-58323670D01*
X165532573Y-58323669D01*
X165523740Y-58319168D01*
X165431128Y-58304500D01*
X164918872Y-58304500D01*
X164826260Y-58319168D01*
X164817427Y-58323669D01*
X164817423Y-58323670D01*
X164792700Y-58336267D01*
X164735498Y-58350000D01*
X164650000Y-58350000D01*
X164642428Y-58363630D01*
X164642427Y-58363631D01*
X163668930Y-60115925D01*
X163615135Y-60167432D01*
X161676604Y-61136698D01*
X161620255Y-61150000D01*
X153148069Y-61150000D01*
X153084671Y-61132888D01*
X153046605Y-61110725D01*
X153040015Y-61106888D01*
X153014790Y-61099481D01*
X152976217Y-61088155D01*
X152976213Y-61088154D01*
X152971894Y-61086886D01*
X152967445Y-61086246D01*
X152967439Y-61086245D01*
X152928448Y-61080639D01*
X152928441Y-61080638D01*
X152924000Y-61080000D01*
X150006293Y-61080000D01*
X149938172Y-61059998D01*
X149902242Y-61025059D01*
X149872693Y-60981790D01*
X147770378Y-57903402D01*
X147765658Y-57896831D01*
X147765182Y-57896200D01*
X147760283Y-57889712D01*
X147735196Y-57823296D01*
X147747444Y-57758848D01*
X147802836Y-57644518D01*
X147825196Y-57511614D01*
X147825338Y-57500000D01*
X147813877Y-57419968D01*
X147807505Y-57375474D01*
X147807504Y-57375471D01*
X147806232Y-57366588D01*
X147800737Y-57354501D01*
X147765918Y-57277923D01*
X147750450Y-57243902D01*
X147704238Y-57190270D01*
X147674924Y-57125609D01*
X147674742Y-57118554D01*
X147674207Y-57118601D01*
X147673245Y-57107614D01*
X147674206Y-57096635D01*
X147664624Y-57060876D01*
X147662244Y-57050143D01*
X147660435Y-57039883D01*
X147655817Y-57013692D01*
X147650303Y-57004142D01*
X147649184Y-57001068D01*
X147647806Y-56998112D01*
X147644952Y-56987461D01*
X147623714Y-56957129D01*
X147617817Y-56947873D01*
X147599305Y-56915809D01*
X147570939Y-56892007D01*
X147562836Y-56884581D01*
X147482405Y-56804150D01*
X147448379Y-56741838D01*
X147445500Y-56715055D01*
X147445500Y-56318872D01*
X147430832Y-56226260D01*
X147373955Y-56114633D01*
X147285367Y-56026045D01*
X147218796Y-55992126D01*
X147167182Y-55943378D01*
X147150000Y-55879859D01*
X147150000Y-55876000D01*
X147170002Y-55807879D01*
X147223658Y-55761386D01*
X147276000Y-55750000D01*
X147446103Y-55750000D01*
X147514224Y-55770002D01*
X147545636Y-55801872D01*
X147546451Y-55801187D01*
X147609339Y-55876000D01*
X147633172Y-55904353D01*
X147745362Y-55979033D01*
X147874002Y-56019223D01*
X147882972Y-56019387D01*
X147882976Y-56019388D01*
X147944742Y-56020520D01*
X148008752Y-56021693D01*
X148017812Y-56019223D01*
X148130117Y-55988606D01*
X148130120Y-55988605D01*
X148138779Y-55986244D01*
X148146429Y-55981547D01*
X148146431Y-55981546D01*
X148245979Y-55920424D01*
X148245982Y-55920421D01*
X148253631Y-55915725D01*
X148263925Y-55904353D01*
X148338049Y-55822461D01*
X148344073Y-55815806D01*
X148347987Y-55807728D01*
X148349462Y-55805541D01*
X148404137Y-55760252D01*
X148453920Y-55750000D01*
X154851622Y-55750000D01*
X154919743Y-55770002D01*
X154966236Y-55823658D01*
X154973860Y-55845440D01*
X155150000Y-56550000D01*
X159650000Y-56550000D01*
X159677341Y-56532424D01*
X160472041Y-56021545D01*
X161018870Y-55670012D01*
X161087005Y-55650000D01*
X163450000Y-55650000D01*
X164412507Y-54591243D01*
X164473129Y-54554293D01*
X164505738Y-54550000D01*
X165950000Y-54550000D01*
X166552000Y-53776000D01*
X166612167Y-53698643D01*
X166669777Y-53657152D01*
X166711625Y-53650000D01*
X170724000Y-53650000D01*
X170792121Y-53670002D01*
G37*
G04 #@! TD.AperFunction*
G04 #@! TA.AperFunction,Conductor*
G36*
X158522121Y-48940002D02*
G01*
X158568614Y-48993658D01*
X158580000Y-49046000D01*
X158580000Y-50124000D01*
X158559998Y-50192121D01*
X158506342Y-50238614D01*
X158454000Y-50250000D01*
X157720445Y-50250000D01*
X157652324Y-50229998D01*
X157631350Y-50213095D01*
X157586667Y-50168412D01*
X157484231Y-50120645D01*
X157437554Y-50114500D01*
X155712446Y-50114500D01*
X155665769Y-50120645D01*
X155563333Y-50168412D01*
X155510151Y-50221594D01*
X155462275Y-50250000D01*
X155450000Y-50250000D01*
X155450000Y-50292051D01*
X155441059Y-50332380D01*
X155442417Y-50332776D01*
X155439720Y-50342031D01*
X155435645Y-50350769D01*
X155429500Y-50397446D01*
X155429500Y-50772554D01*
X155435645Y-50819231D01*
X155439720Y-50827969D01*
X155442417Y-50837224D01*
X155441059Y-50837620D01*
X155450000Y-50877949D01*
X155450000Y-51562051D01*
X155441059Y-51602380D01*
X155442417Y-51602776D01*
X155439720Y-51612031D01*
X155435645Y-51620769D01*
X155429500Y-51667446D01*
X155429500Y-52042554D01*
X155430038Y-52046640D01*
X155430038Y-52046641D01*
X155435645Y-52089231D01*
X155432880Y-52089595D01*
X155432770Y-52145604D01*
X155401039Y-52198961D01*
X155346818Y-52253182D01*
X155282306Y-52287666D01*
X155274600Y-52289199D01*
X155244456Y-52295195D01*
X155234140Y-52302088D01*
X155169368Y-52345368D01*
X155154981Y-52354981D01*
X155146783Y-52367250D01*
X155131118Y-52386338D01*
X154786337Y-52731118D01*
X154767249Y-52746784D01*
X154754981Y-52754981D01*
X154739892Y-52777563D01*
X154739890Y-52777565D01*
X154726211Y-52798038D01*
X154695195Y-52844456D01*
X154679500Y-52923360D01*
X154674201Y-52950000D01*
X154676622Y-52962171D01*
X154677079Y-52964469D01*
X154679500Y-52989050D01*
X154679500Y-55454000D01*
X154659498Y-55522121D01*
X154605842Y-55568614D01*
X154553500Y-55580000D01*
X148538875Y-55580000D01*
X148470754Y-55559998D01*
X148424261Y-55506342D01*
X148414148Y-55471863D01*
X148407504Y-55425473D01*
X148406232Y-55416588D01*
X148350450Y-55293902D01*
X148262475Y-55191803D01*
X148251072Y-55184412D01*
X148248436Y-55181245D01*
X148248178Y-55181020D01*
X148248214Y-55180979D01*
X148205948Y-55130204D01*
X148204805Y-55124456D01*
X148174472Y-55079060D01*
X148171237Y-55074219D01*
X148150000Y-55004214D01*
X148150000Y-54951869D01*
X148150167Y-54948465D01*
X148150500Y-54946791D01*
X148150499Y-54513210D01*
X148150167Y-54511540D01*
X148150000Y-54508142D01*
X148150000Y-54301869D01*
X148150167Y-54298465D01*
X148150500Y-54296791D01*
X148150499Y-53863210D01*
X148150167Y-53861540D01*
X148150000Y-53858142D01*
X148150000Y-53641869D01*
X148150167Y-53638465D01*
X148150500Y-53636791D01*
X148150500Y-53420000D01*
X148150499Y-53208308D01*
X148150499Y-53203210D01*
X148150167Y-53201540D01*
X148150000Y-53198142D01*
X148150000Y-52991869D01*
X148150167Y-52988465D01*
X148150500Y-52986791D01*
X148150499Y-52553210D01*
X148150167Y-52551540D01*
X148150000Y-52548142D01*
X148150000Y-52050000D01*
X148048900Y-52050000D01*
X147980779Y-52029998D01*
X147934286Y-51976342D01*
X147924173Y-51941863D01*
X147907504Y-51825473D01*
X147906232Y-51816588D01*
X147900853Y-51804756D01*
X147854166Y-51702076D01*
X147850450Y-51693902D01*
X147762475Y-51591803D01*
X147649382Y-51518499D01*
X147640785Y-51515928D01*
X147640783Y-51515927D01*
X147563140Y-51492707D01*
X147520259Y-51479883D01*
X147511283Y-51479828D01*
X147511282Y-51479828D01*
X147453847Y-51479477D01*
X147385489Y-51479060D01*
X147376858Y-51481527D01*
X147376856Y-51481527D01*
X147264536Y-51513628D01*
X147264534Y-51513629D01*
X147255905Y-51516095D01*
X147141924Y-51588012D01*
X147135981Y-51594741D01*
X147135980Y-51594742D01*
X147075380Y-51663359D01*
X147052709Y-51689029D01*
X146995432Y-51811025D01*
X146976525Y-51932457D01*
X146974823Y-51943385D01*
X146944579Y-52007618D01*
X146884409Y-52045302D01*
X146850323Y-52050000D01*
X146376000Y-52050000D01*
X146307879Y-52029998D01*
X146261386Y-51976342D01*
X146250000Y-51924000D01*
X146250000Y-50016020D01*
X146270002Y-49947899D01*
X146323658Y-49901406D01*
X146376000Y-49890020D01*
X150863666Y-49890020D01*
X150874605Y-49891242D01*
X150874655Y-49890626D01*
X150883602Y-49891346D01*
X150892358Y-49893327D01*
X150941763Y-49890262D01*
X150949565Y-49890020D01*
X150964262Y-49890020D01*
X150968692Y-49889385D01*
X150968698Y-49889385D01*
X150973464Y-49888702D01*
X150983528Y-49887671D01*
X150999894Y-49886655D01*
X151017914Y-49885538D01*
X151017916Y-49885538D01*
X151026873Y-49884982D01*
X151035312Y-49881935D01*
X151042059Y-49880538D01*
X151048390Y-49878959D01*
X151055006Y-49877024D01*
X151063892Y-49875752D01*
X151103440Y-49857770D01*
X151112791Y-49853964D01*
X151153638Y-49839218D01*
X151160889Y-49833921D01*
X151166964Y-49830691D01*
X151172623Y-49827384D01*
X151178405Y-49823686D01*
X151186578Y-49819970D01*
X151219478Y-49791621D01*
X151227398Y-49785333D01*
X151233320Y-49781007D01*
X151233323Y-49781005D01*
X151237255Y-49778132D01*
X151247161Y-49768226D01*
X151254008Y-49761868D01*
X151281875Y-49737856D01*
X151288677Y-49731995D01*
X151293561Y-49724460D01*
X151299460Y-49717698D01*
X151299555Y-49717781D01*
X151307820Y-49707567D01*
X151558482Y-49456905D01*
X151620794Y-49422879D01*
X151647577Y-49420000D01*
X154713863Y-49420000D01*
X154718221Y-49419387D01*
X154718226Y-49419387D01*
X154733590Y-49417227D01*
X154760728Y-49413412D01*
X154827508Y-49394260D01*
X154831523Y-49392472D01*
X154831529Y-49392470D01*
X154866725Y-49376797D01*
X154870743Y-49375008D01*
X155059328Y-49257143D01*
X155479716Y-48994400D01*
X155568113Y-48939152D01*
X155634893Y-48920000D01*
X158454000Y-48920000D01*
X158522121Y-48940002D01*
G37*
G04 #@! TD.AperFunction*
G04 #@! TA.AperFunction,Conductor*
G36*
X164292121Y-73070002D02*
G01*
X164338614Y-73123658D01*
X164350000Y-73176000D01*
X164350000Y-78050000D01*
X164363739Y-78055152D01*
X164363740Y-78055153D01*
X167544418Y-79247907D01*
X168350000Y-79550000D01*
X168361118Y-79550075D01*
X168361120Y-79550075D01*
X182662600Y-79646058D01*
X183182654Y-79649548D01*
X183250639Y-79670007D01*
X183287040Y-79706246D01*
X184719496Y-81881456D01*
X185508732Y-83079926D01*
X185529500Y-83149225D01*
X185529500Y-93060950D01*
X185527079Y-93085531D01*
X185524201Y-93100000D01*
X185529500Y-93126640D01*
X185545195Y-93205544D01*
X185552089Y-93215862D01*
X185552090Y-93215864D01*
X185563807Y-93233399D01*
X185589888Y-93272433D01*
X185589892Y-93272437D01*
X185604981Y-93295019D01*
X185617252Y-93303218D01*
X185636340Y-93318885D01*
X186781115Y-94463660D01*
X186796782Y-94482748D01*
X186804981Y-94495019D01*
X186827563Y-94510108D01*
X186827565Y-94510110D01*
X186894456Y-94554805D01*
X186923625Y-94560607D01*
X186973353Y-94570499D01*
X186973358Y-94570500D01*
X186973361Y-94570500D01*
X186973369Y-94570501D01*
X186985536Y-94572921D01*
X187000000Y-94575798D01*
X187014466Y-94572921D01*
X187039044Y-94570500D01*
X187835765Y-94570500D01*
X187903886Y-94590502D01*
X187924860Y-94607405D01*
X190413095Y-97095639D01*
X190447120Y-97157951D01*
X190450000Y-97184734D01*
X190450000Y-97724000D01*
X190429998Y-97792121D01*
X190376342Y-97838614D01*
X190324000Y-97850000D01*
X187497940Y-97850000D01*
X187450870Y-97840637D01*
X187441526Y-97834393D01*
X187391791Y-97824500D01*
X187367971Y-97824500D01*
X185547112Y-97824501D01*
X185478992Y-97804499D01*
X185432499Y-97750843D01*
X185422395Y-97680569D01*
X185451889Y-97615989D01*
X185458018Y-97609406D01*
X185462610Y-97604814D01*
X185472923Y-97597923D01*
X185510607Y-97541526D01*
X185520500Y-97491791D01*
X185520499Y-96958210D01*
X185510607Y-96908474D01*
X185472923Y-96852077D01*
X185416526Y-96814393D01*
X185366791Y-96804500D01*
X185175032Y-96804500D01*
X184983210Y-96804501D01*
X184933474Y-96814393D01*
X184923158Y-96821286D01*
X184923156Y-96821287D01*
X184892026Y-96842088D01*
X184877077Y-96852077D01*
X184870186Y-96862390D01*
X184870184Y-96862392D01*
X184846056Y-96898502D01*
X184791579Y-96944030D01*
X184741291Y-96954500D01*
X184636624Y-96954500D01*
X184612046Y-96952079D01*
X184597580Y-96949202D01*
X184585408Y-96951623D01*
X184570949Y-96954499D01*
X184570941Y-96954500D01*
X184570938Y-96954500D01*
X184570933Y-96954501D01*
X184536278Y-96961395D01*
X184492036Y-96970195D01*
X184425145Y-97014890D01*
X184425143Y-97014892D01*
X184402561Y-97029981D01*
X184394362Y-97042252D01*
X184378695Y-97061340D01*
X184227920Y-97212115D01*
X184165608Y-97246141D01*
X184138825Y-97249020D01*
X182269530Y-97249020D01*
X182244949Y-97246599D01*
X182242651Y-97246142D01*
X182230480Y-97243721D01*
X182203840Y-97249020D01*
X182124936Y-97264715D01*
X182114617Y-97271610D01*
X182091608Y-97286984D01*
X182058046Y-97309409D01*
X182058042Y-97309412D01*
X182045778Y-97317607D01*
X182035461Y-97324501D01*
X182027262Y-97336772D01*
X182011595Y-97355860D01*
X181554360Y-97813095D01*
X181492048Y-97847121D01*
X181465265Y-97850000D01*
X155367339Y-97850000D01*
X155299218Y-97829998D01*
X155262575Y-97794004D01*
X155254816Y-97782392D01*
X155254814Y-97782390D01*
X155247923Y-97772077D01*
X155191526Y-97734393D01*
X155141791Y-97724500D01*
X155116495Y-97724500D01*
X153297112Y-97724501D01*
X153228992Y-97704499D01*
X153182499Y-97650843D01*
X153172395Y-97580569D01*
X153201889Y-97515989D01*
X153208018Y-97509406D01*
X153212610Y-97504814D01*
X153222923Y-97497923D01*
X153260607Y-97441526D01*
X153270500Y-97391791D01*
X153270499Y-96858210D01*
X153260607Y-96808474D01*
X153222923Y-96752077D01*
X153166526Y-96714393D01*
X153116791Y-96704500D01*
X152925032Y-96704500D01*
X152733210Y-96704501D01*
X152683474Y-96714393D01*
X152673158Y-96721286D01*
X152673156Y-96721287D01*
X152642026Y-96742088D01*
X152627077Y-96752077D01*
X152589393Y-96808474D01*
X152579500Y-96858209D01*
X152579500Y-97035765D01*
X152559498Y-97103886D01*
X152542595Y-97124860D01*
X152224860Y-97442595D01*
X152162548Y-97476621D01*
X152135765Y-97479500D01*
X149989050Y-97479500D01*
X149964469Y-97477079D01*
X149962171Y-97476622D01*
X149950000Y-97474201D01*
X149923360Y-97479500D01*
X149844456Y-97495195D01*
X149834137Y-97502090D01*
X149811128Y-97517464D01*
X149777566Y-97539889D01*
X149777562Y-97539892D01*
X149769170Y-97545500D01*
X149754981Y-97554981D01*
X149746782Y-97567252D01*
X149731115Y-97586340D01*
X149504360Y-97813095D01*
X149442048Y-97847121D01*
X149415265Y-97850000D01*
X130150000Y-97850000D01*
X130143939Y-97857163D01*
X126887748Y-101705389D01*
X126828476Y-101744471D01*
X126791561Y-101750000D01*
X120739394Y-101750000D01*
X120671273Y-101729998D01*
X120624780Y-101676342D01*
X120620468Y-101665624D01*
X119255985Y-97767099D01*
X119255984Y-97767098D01*
X119250000Y-97750000D01*
X118697940Y-97750000D01*
X118650870Y-97740637D01*
X118641526Y-97734393D01*
X118591791Y-97724500D01*
X118566495Y-97724500D01*
X116747112Y-97724501D01*
X116678992Y-97704499D01*
X116632499Y-97650843D01*
X116622395Y-97580569D01*
X116651889Y-97515989D01*
X116658018Y-97509406D01*
X116662610Y-97504814D01*
X116672923Y-97497923D01*
X116710607Y-97441526D01*
X116720500Y-97391791D01*
X116720499Y-96858210D01*
X116710607Y-96808474D01*
X116672923Y-96752077D01*
X116616526Y-96714393D01*
X116566791Y-96704500D01*
X116375032Y-96704500D01*
X116183210Y-96704501D01*
X116133474Y-96714393D01*
X116123158Y-96721286D01*
X116123156Y-96721287D01*
X116092026Y-96742088D01*
X116077077Y-96752077D01*
X116039393Y-96808474D01*
X116029500Y-96858209D01*
X116029500Y-97035765D01*
X116009498Y-97103886D01*
X115992595Y-97124860D01*
X115404360Y-97713095D01*
X115342048Y-97747121D01*
X115315265Y-97750000D01*
X107943000Y-97750000D01*
X107874879Y-97729998D01*
X107828386Y-97676342D01*
X107817000Y-97624000D01*
X107817000Y-94776000D01*
X107837002Y-94707879D01*
X107890658Y-94661386D01*
X107943000Y-94650000D01*
X124850000Y-94650000D01*
X140213610Y-80184264D01*
X140276917Y-80152129D01*
X140299984Y-80150000D01*
X146465550Y-80150000D01*
X146533671Y-80170002D01*
X146580164Y-80223658D01*
X146590268Y-80293932D01*
X146560774Y-80358512D01*
X146535552Y-80380765D01*
X146497392Y-80406263D01*
X146497390Y-80406265D01*
X146487077Y-80413156D01*
X146449393Y-80469553D01*
X146439500Y-80519288D01*
X146439501Y-81702869D01*
X146449393Y-81752605D01*
X146456286Y-81762921D01*
X146456287Y-81762923D01*
X146458009Y-81765500D01*
X146487077Y-81809002D01*
X146543474Y-81846686D01*
X146593209Y-81856579D01*
X146959940Y-81856579D01*
X147326790Y-81856578D01*
X147376526Y-81846686D01*
X147386842Y-81839793D01*
X147386844Y-81839792D01*
X147422610Y-81815893D01*
X147432923Y-81809002D01*
X147470607Y-81752605D01*
X147480500Y-81702870D01*
X147480499Y-81025315D01*
X147500501Y-80957194D01*
X147517404Y-80936220D01*
X147896219Y-80557405D01*
X147958531Y-80523379D01*
X147985314Y-80520500D01*
X149710950Y-80520500D01*
X149735531Y-80522921D01*
X149750000Y-80525799D01*
X149762171Y-80523378D01*
X149776640Y-80520500D01*
X149782733Y-80519288D01*
X149855544Y-80504805D01*
X149908302Y-80469553D01*
X149922435Y-80460110D01*
X149922437Y-80460108D01*
X149945019Y-80445019D01*
X149953216Y-80432751D01*
X149968882Y-80413663D01*
X150060468Y-80322077D01*
X150195639Y-80186905D01*
X150257952Y-80152880D01*
X150284735Y-80150000D01*
X155216325Y-80150000D01*
X155284446Y-80170002D01*
X155330939Y-80223658D01*
X155341043Y-80293932D01*
X155321089Y-80346003D01*
X155306288Y-80368153D01*
X155306286Y-80368159D01*
X155299393Y-80378474D01*
X155289500Y-80428209D01*
X155289501Y-81611790D01*
X155299393Y-81661526D01*
X155337077Y-81717923D01*
X155393474Y-81755607D01*
X155443209Y-81765500D01*
X155809940Y-81765500D01*
X156176790Y-81765499D01*
X156226526Y-81755607D01*
X156236842Y-81748714D01*
X156236844Y-81748713D01*
X156272610Y-81724814D01*
X156282923Y-81717923D01*
X156320607Y-81661526D01*
X156330500Y-81611791D01*
X156330499Y-80428210D01*
X156320607Y-80378474D01*
X156313711Y-80368153D01*
X156298911Y-80346003D01*
X156277695Y-80278251D01*
X156296477Y-80209783D01*
X156349294Y-80162340D01*
X156403675Y-80150000D01*
X160150000Y-80150000D01*
X160158097Y-80141903D01*
X161779500Y-80141903D01*
X161779501Y-81508096D01*
X161795095Y-81606562D01*
X161799598Y-81615399D01*
X161799598Y-81615400D01*
X161816898Y-81649353D01*
X161855567Y-81725245D01*
X161949755Y-81819433D01*
X161958588Y-81823933D01*
X161958587Y-81823933D01*
X162007994Y-81849107D01*
X162068438Y-81879905D01*
X162166903Y-81895500D01*
X162549961Y-81895500D01*
X162933096Y-81895499D01*
X162937990Y-81894724D01*
X163021765Y-81881457D01*
X163021768Y-81881456D01*
X163031562Y-81879905D01*
X163092007Y-81849107D01*
X163141413Y-81823933D01*
X163141412Y-81823933D01*
X163150245Y-81819433D01*
X163244433Y-81725245D01*
X163283102Y-81649353D01*
X163300404Y-81615396D01*
X163300404Y-81615395D01*
X163304905Y-81606562D01*
X163320500Y-81508097D01*
X163320499Y-80141904D01*
X163320499Y-80141903D01*
X166379500Y-80141903D01*
X166379501Y-81508096D01*
X166395095Y-81606562D01*
X166399598Y-81615399D01*
X166399598Y-81615400D01*
X166416898Y-81649353D01*
X166455567Y-81725245D01*
X166549755Y-81819433D01*
X166558588Y-81823933D01*
X166558587Y-81823933D01*
X166607994Y-81849107D01*
X166668438Y-81879905D01*
X166766903Y-81895500D01*
X167149961Y-81895500D01*
X167533096Y-81895499D01*
X167537990Y-81894724D01*
X167621765Y-81881457D01*
X167621768Y-81881456D01*
X167631562Y-81879905D01*
X167692007Y-81849107D01*
X167741413Y-81823933D01*
X167741412Y-81823933D01*
X167750245Y-81819433D01*
X167844433Y-81725245D01*
X167883102Y-81649353D01*
X167900404Y-81615396D01*
X167900404Y-81615395D01*
X167904905Y-81606562D01*
X167920500Y-81508097D01*
X167920499Y-80141904D01*
X167918680Y-80130419D01*
X167906457Y-80053235D01*
X167906456Y-80053231D01*
X167904905Y-80043438D01*
X167894205Y-80022437D01*
X167848933Y-79933587D01*
X167844433Y-79924755D01*
X167750245Y-79830567D01*
X167631562Y-79770095D01*
X167533097Y-79754500D01*
X167150039Y-79754500D01*
X166766904Y-79754501D01*
X166762011Y-79755276D01*
X166762010Y-79755276D01*
X166678235Y-79768543D01*
X166678232Y-79768544D01*
X166668438Y-79770095D01*
X166549755Y-79830567D01*
X166455567Y-79924755D01*
X166451067Y-79933587D01*
X166405796Y-80022437D01*
X166395095Y-80043438D01*
X166379500Y-80141903D01*
X163320499Y-80141903D01*
X163318680Y-80130419D01*
X163306457Y-80053235D01*
X163306456Y-80053231D01*
X163304905Y-80043438D01*
X163294205Y-80022437D01*
X163248933Y-79933587D01*
X163244433Y-79924755D01*
X163150245Y-79830567D01*
X163031562Y-79770095D01*
X162933097Y-79754500D01*
X162550039Y-79754500D01*
X162166904Y-79754501D01*
X162162011Y-79755276D01*
X162162010Y-79755276D01*
X162078235Y-79768543D01*
X162078232Y-79768544D01*
X162068438Y-79770095D01*
X161949755Y-79830567D01*
X161855567Y-79924755D01*
X161851067Y-79933587D01*
X161805796Y-80022437D01*
X161795095Y-80043438D01*
X161779500Y-80141903D01*
X160158097Y-80141903D01*
X162350000Y-77950000D01*
X162350000Y-73176000D01*
X162370002Y-73107879D01*
X162423658Y-73061386D01*
X162476000Y-73050000D01*
X164224000Y-73050000D01*
X164292121Y-73070002D01*
G37*
G04 #@! TD.AperFunction*
G04 #@! TA.AperFunction,Conductor*
G36*
X190269034Y-98070002D02*
G01*
X190315527Y-98123658D01*
X190325835Y-98159553D01*
X190344184Y-98298930D01*
X190401669Y-98437711D01*
X190493114Y-98556886D01*
X190612288Y-98648331D01*
X190681679Y-98677074D01*
X190743440Y-98702656D01*
X190743443Y-98702657D01*
X190751070Y-98705816D01*
X190900000Y-98725423D01*
X190908188Y-98724345D01*
X191040742Y-98706894D01*
X191048930Y-98705816D01*
X191056557Y-98702657D01*
X191056560Y-98702656D01*
X191118321Y-98677074D01*
X191187712Y-98648331D01*
X191306886Y-98556886D01*
X191398331Y-98437711D01*
X191455816Y-98298930D01*
X191474165Y-98159553D01*
X191502887Y-98094627D01*
X191562152Y-98055535D01*
X191599087Y-98050000D01*
X197357000Y-98050000D01*
X197425121Y-98070002D01*
X197471614Y-98123658D01*
X197483000Y-98176000D01*
X197483000Y-110424000D01*
X197462998Y-110492121D01*
X197409342Y-110538614D01*
X197357000Y-110550000D01*
X182476000Y-110550000D01*
X182407879Y-110529998D01*
X182361386Y-110476342D01*
X182350000Y-110424000D01*
X182350000Y-98886185D01*
X182370002Y-98818064D01*
X182423658Y-98771571D01*
X182492446Y-98761263D01*
X182600000Y-98775423D01*
X182608188Y-98774345D01*
X182740742Y-98756894D01*
X182748930Y-98755816D01*
X182756557Y-98752657D01*
X182756560Y-98752656D01*
X182824908Y-98724345D01*
X182887712Y-98698331D01*
X183006886Y-98606886D01*
X183098331Y-98487711D01*
X183155816Y-98348930D01*
X183175423Y-98200000D01*
X183174345Y-98191812D01*
X183174345Y-98183554D01*
X183175816Y-98183554D01*
X183185364Y-98122305D01*
X183232489Y-98069203D01*
X183299350Y-98050000D01*
X190200913Y-98050000D01*
X190269034Y-98070002D01*
G37*
G04 #@! TD.AperFunction*
G04 #@! TA.AperFunction,Conductor*
G36*
X145271044Y-45290502D02*
G01*
X145292018Y-45307405D01*
X145473075Y-45488462D01*
X145507101Y-45550774D01*
X145509980Y-45577557D01*
X145509980Y-47346092D01*
X145489978Y-47414213D01*
X145436322Y-47460706D01*
X145366048Y-47470810D01*
X145301468Y-47441316D01*
X145271713Y-47403295D01*
X145248933Y-47358587D01*
X145244433Y-47349755D01*
X145150245Y-47255567D01*
X145094400Y-47227113D01*
X145040396Y-47199596D01*
X145040395Y-47199596D01*
X145031562Y-47195095D01*
X144933097Y-47179500D01*
X143487646Y-47179500D01*
X142041904Y-47179501D01*
X142037011Y-47180276D01*
X142037010Y-47180276D01*
X141953235Y-47193543D01*
X141953232Y-47193544D01*
X141943438Y-47195095D01*
X141934601Y-47199598D01*
X141934600Y-47199598D01*
X141874882Y-47230026D01*
X141824755Y-47255567D01*
X141730567Y-47349755D01*
X141670095Y-47468438D01*
X141654500Y-47566903D01*
X141654501Y-48733096D01*
X141670095Y-48831562D01*
X141730567Y-48950245D01*
X141824755Y-49044433D01*
X141943438Y-49104905D01*
X142041903Y-49120500D01*
X143487354Y-49120500D01*
X144933096Y-49120499D01*
X144937990Y-49119724D01*
X145021765Y-49106457D01*
X145021768Y-49106456D01*
X145031562Y-49104905D01*
X145150245Y-49044433D01*
X145244433Y-48950245D01*
X145271713Y-48896705D01*
X145320461Y-48845090D01*
X145389376Y-48828024D01*
X145456578Y-48850925D01*
X145500730Y-48906522D01*
X145509980Y-48953908D01*
X145509980Y-49152706D01*
X145508758Y-49163645D01*
X145509374Y-49163695D01*
X145508654Y-49172642D01*
X145506673Y-49181398D01*
X145507229Y-49190358D01*
X145509738Y-49230803D01*
X145509980Y-49238605D01*
X145509980Y-49253302D01*
X145510615Y-49257732D01*
X145510615Y-49257738D01*
X145511298Y-49262504D01*
X145512329Y-49272568D01*
X145515018Y-49315913D01*
X145518065Y-49324352D01*
X145519462Y-49331099D01*
X145521041Y-49337430D01*
X145522976Y-49344046D01*
X145524248Y-49352932D01*
X145542230Y-49392480D01*
X145546036Y-49401830D01*
X145560782Y-49442678D01*
X145566079Y-49449929D01*
X145569309Y-49456004D01*
X145572616Y-49461663D01*
X145576314Y-49467445D01*
X145580030Y-49475618D01*
X145585889Y-49482418D01*
X145585890Y-49482419D01*
X145608375Y-49508513D01*
X145614667Y-49516438D01*
X145621868Y-49526295D01*
X145631774Y-49536201D01*
X145638132Y-49543048D01*
X145668005Y-49577717D01*
X145675540Y-49582601D01*
X145682302Y-49588500D01*
X145682219Y-49588595D01*
X145692433Y-49596860D01*
X145800539Y-49704966D01*
X145807414Y-49713568D01*
X145807884Y-49713168D01*
X145813702Y-49720004D01*
X145818492Y-49727596D01*
X145825220Y-49733538D01*
X145855605Y-49760373D01*
X145861292Y-49765719D01*
X145871674Y-49776101D01*
X145875267Y-49778794D01*
X145879113Y-49781677D01*
X145886953Y-49788059D01*
X145907407Y-49806123D01*
X145945225Y-49866208D01*
X145950000Y-49900565D01*
X145950000Y-52926444D01*
X145929998Y-52994565D01*
X145876342Y-53041058D01*
X145809264Y-53048870D01*
X145809023Y-53051314D01*
X145802858Y-53050707D01*
X145796791Y-53049500D01*
X145250089Y-53049500D01*
X144703210Y-53049501D01*
X144653474Y-53059393D01*
X144643158Y-53066286D01*
X144643156Y-53066287D01*
X144612026Y-53087088D01*
X144597077Y-53097077D01*
X144559393Y-53153474D01*
X144549500Y-53203209D01*
X144549501Y-53383967D01*
X144549501Y-53516388D01*
X144529499Y-53584508D01*
X144475844Y-53631001D01*
X144405570Y-53641106D01*
X144365553Y-53626090D01*
X144365065Y-53627147D01*
X144356912Y-53623380D01*
X144349382Y-53618499D01*
X144340785Y-53615928D01*
X144340783Y-53615927D01*
X144235724Y-53584508D01*
X144220259Y-53579883D01*
X144211283Y-53579828D01*
X144211282Y-53579828D01*
X144153847Y-53579477D01*
X144085489Y-53579060D01*
X144076858Y-53581527D01*
X144076856Y-53581527D01*
X143964536Y-53613628D01*
X143964534Y-53613629D01*
X143955905Y-53616095D01*
X143841924Y-53688012D01*
X143752709Y-53789029D01*
X143695432Y-53911025D01*
X143674697Y-54044193D01*
X143692172Y-54177828D01*
X143746451Y-54301187D01*
X143833172Y-54404353D01*
X143945362Y-54479033D01*
X144074002Y-54519223D01*
X144082972Y-54519387D01*
X144082976Y-54519388D01*
X144144742Y-54520520D01*
X144208752Y-54521693D01*
X144217812Y-54519223D01*
X144330117Y-54488606D01*
X144330120Y-54488605D01*
X144338779Y-54486244D01*
X144357573Y-54474704D01*
X144426088Y-54456107D01*
X144493784Y-54477504D01*
X144539165Y-54532103D01*
X144549500Y-54582080D01*
X144549501Y-54946790D01*
X144559393Y-54996526D01*
X144597077Y-55052923D01*
X144653474Y-55090607D01*
X144703209Y-55100500D01*
X144803500Y-55100500D01*
X144871621Y-55120502D01*
X144918114Y-55174158D01*
X144929500Y-55226500D01*
X144929500Y-55890304D01*
X144909498Y-55958425D01*
X144860703Y-56002571D01*
X144814633Y-56026045D01*
X144775025Y-56065653D01*
X144712713Y-56099679D01*
X144644573Y-56093158D01*
X144644116Y-56094722D01*
X144580292Y-56076084D01*
X144575967Y-56074821D01*
X144528062Y-56068005D01*
X140990818Y-56073257D01*
X138394929Y-56077112D01*
X138394928Y-56077112D01*
X138393590Y-56077114D01*
X138384491Y-56077522D01*
X138380238Y-56077712D01*
X138380233Y-56077712D01*
X138378901Y-56077772D01*
X138377553Y-56077891D01*
X138377552Y-56077891D01*
X138358574Y-56079565D01*
X138358552Y-56079567D01*
X138357208Y-56079686D01*
X138342629Y-56081611D01*
X138304046Y-56088414D01*
X138198797Y-56106972D01*
X138163317Y-56108149D01*
X138095359Y-56100767D01*
X138060511Y-56096981D01*
X138040598Y-56093177D01*
X138026563Y-56089303D01*
X138026554Y-56089301D01*
X138023826Y-56088548D01*
X138021036Y-56088043D01*
X137982109Y-56080998D01*
X137982103Y-56080997D01*
X137979306Y-56080491D01*
X137948780Y-56077774D01*
X137945945Y-56077778D01*
X137945940Y-56077778D01*
X133537517Y-56084324D01*
X131264465Y-56087699D01*
X131255081Y-56088165D01*
X131249636Y-56088436D01*
X131249632Y-56088436D01*
X131248109Y-56088512D01*
X131227894Y-56090496D01*
X131225483Y-56090733D01*
X131225480Y-56090733D01*
X131223976Y-56090881D01*
X131222484Y-56091101D01*
X131222480Y-56091101D01*
X131216753Y-56091944D01*
X131207772Y-56093265D01*
X131206304Y-56093554D01*
X131206291Y-56093556D01*
X130989673Y-56136168D01*
X130946351Y-56144690D01*
X128818867Y-56563195D01*
X128817104Y-56563650D01*
X128817101Y-56563651D01*
X128801380Y-56567711D01*
X128801370Y-56567714D01*
X128799604Y-56568170D01*
X128797876Y-56568726D01*
X128797859Y-56568731D01*
X128777624Y-56575243D01*
X128771583Y-56577187D01*
X128712332Y-56610537D01*
X128658676Y-56657030D01*
X128647829Y-56667297D01*
X128606888Y-56737614D01*
X128586886Y-56805735D01*
X128586246Y-56810184D01*
X128586245Y-56810190D01*
X128580639Y-56849181D01*
X128580638Y-56849188D01*
X128580000Y-56853629D01*
X128580000Y-61953500D01*
X128559998Y-62021621D01*
X128506342Y-62068114D01*
X128454000Y-62079500D01*
X122116813Y-62079500D01*
X122105875Y-62078278D01*
X122105825Y-62078894D01*
X122096876Y-62078174D01*
X122088121Y-62076193D01*
X122044773Y-62078883D01*
X122038721Y-62079258D01*
X122030918Y-62079500D01*
X122016218Y-62079500D01*
X122011788Y-62080135D01*
X122011782Y-62080135D01*
X122007009Y-62080819D01*
X121996947Y-62081850D01*
X121979476Y-62082934D01*
X121962565Y-62083983D01*
X121962563Y-62083983D01*
X121953607Y-62084539D01*
X121945168Y-62087586D01*
X121938415Y-62088984D01*
X121932107Y-62090557D01*
X121925481Y-62092494D01*
X121916588Y-62093768D01*
X121877036Y-62111752D01*
X121867683Y-62115559D01*
X121826842Y-62130302D01*
X121819589Y-62135601D01*
X121813506Y-62138835D01*
X121807873Y-62142126D01*
X121802075Y-62145834D01*
X121793902Y-62149550D01*
X121787100Y-62155411D01*
X121761012Y-62177890D01*
X121753091Y-62184179D01*
X121747163Y-62188510D01*
X121743224Y-62191388D01*
X121733312Y-62201300D01*
X121726465Y-62207658D01*
X121691803Y-62237525D01*
X121686919Y-62245060D01*
X121681020Y-62251822D01*
X121680924Y-62251738D01*
X121672665Y-62261947D01*
X121142018Y-62792595D01*
X121079705Y-62826620D01*
X121052922Y-62829500D01*
X112893922Y-62829500D01*
X112825801Y-62809498D01*
X112804827Y-62792595D01*
X108707405Y-58695174D01*
X108673379Y-58632862D01*
X108670500Y-58606079D01*
X108670500Y-47144193D01*
X136474697Y-47144193D01*
X136475861Y-47153095D01*
X136475861Y-47153098D01*
X136491008Y-47268929D01*
X136492172Y-47277828D01*
X136546451Y-47401187D01*
X136552226Y-47408057D01*
X136552229Y-47408062D01*
X136559354Y-47416538D01*
X136587875Y-47481553D01*
X136587352Y-47517322D01*
X136580275Y-47562008D01*
X136579500Y-47566903D01*
X136579501Y-48733096D01*
X136595095Y-48831562D01*
X136655567Y-48950245D01*
X136749755Y-49044433D01*
X136868438Y-49104905D01*
X136966903Y-49120500D01*
X138412354Y-49120500D01*
X139858096Y-49120499D01*
X139862990Y-49119724D01*
X139946765Y-49106457D01*
X139946768Y-49106456D01*
X139956562Y-49104905D01*
X140075245Y-49044433D01*
X140169433Y-48950245D01*
X140229905Y-48831562D01*
X140245500Y-48733097D01*
X140245499Y-47566904D01*
X140229905Y-47468438D01*
X140224673Y-47458169D01*
X140224311Y-47456245D01*
X140222338Y-47450172D01*
X140223123Y-47449917D01*
X140211568Y-47388395D01*
X140234818Y-47331109D01*
X140233029Y-47329902D01*
X140238045Y-47322466D01*
X140244073Y-47315806D01*
X140273259Y-47255567D01*
X140298921Y-47202599D01*
X140298921Y-47202598D01*
X140302836Y-47194518D01*
X140325196Y-47061614D01*
X140325267Y-47055779D01*
X140325279Y-47054859D01*
X140325279Y-47054854D01*
X140325338Y-47050000D01*
X140306232Y-46916588D01*
X140300010Y-46902902D01*
X140266388Y-46828956D01*
X140250450Y-46793902D01*
X140162475Y-46691803D01*
X140049382Y-46618499D01*
X140040785Y-46615928D01*
X140040783Y-46615927D01*
X139963140Y-46592707D01*
X139920259Y-46579883D01*
X139911283Y-46579828D01*
X139911282Y-46579828D01*
X139853847Y-46579477D01*
X139785489Y-46579060D01*
X139776858Y-46581527D01*
X139776856Y-46581527D01*
X139664536Y-46613628D01*
X139664534Y-46613629D01*
X139655905Y-46616095D01*
X139648317Y-46620883D01*
X139550730Y-46682456D01*
X139541924Y-46688012D01*
X139535981Y-46694741D01*
X139535980Y-46694742D01*
X139519301Y-46713628D01*
X139452709Y-46789029D01*
X139448894Y-46797154D01*
X139448893Y-46797156D01*
X139405805Y-46888931D01*
X139380845Y-46924479D01*
X139162727Y-47142596D01*
X139100415Y-47176621D01*
X139073632Y-47179500D01*
X139051305Y-47179500D01*
X138983184Y-47159498D01*
X138936691Y-47105842D01*
X138926937Y-47059644D01*
X138925596Y-47059731D01*
X138925279Y-47054859D01*
X138925338Y-47050000D01*
X138906232Y-46916588D01*
X138900010Y-46902902D01*
X138866388Y-46828956D01*
X138850450Y-46793902D01*
X138762475Y-46691803D01*
X138649382Y-46618499D01*
X138640785Y-46615928D01*
X138640783Y-46615927D01*
X138563140Y-46592707D01*
X138520259Y-46579883D01*
X138511283Y-46579828D01*
X138511282Y-46579828D01*
X138453847Y-46579477D01*
X138385489Y-46579060D01*
X138376858Y-46581527D01*
X138376856Y-46581527D01*
X138264536Y-46613628D01*
X138264534Y-46613629D01*
X138255905Y-46616095D01*
X138248317Y-46620883D01*
X138150730Y-46682456D01*
X138141924Y-46688012D01*
X138135981Y-46694741D01*
X138135980Y-46694742D01*
X138119301Y-46713628D01*
X138052709Y-46789029D01*
X138048895Y-46797152D01*
X138048894Y-46797154D01*
X138033963Y-46828956D01*
X137995432Y-46911025D01*
X137974697Y-47044193D01*
X137975862Y-47053100D01*
X137975838Y-47055038D01*
X137955006Y-47122910D01*
X137900787Y-47168745D01*
X137849847Y-47179501D01*
X137626368Y-47179501D01*
X137558247Y-47159499D01*
X137537273Y-47142596D01*
X137418189Y-47023512D01*
X137392583Y-46986569D01*
X137350450Y-46893902D01*
X137262475Y-46791803D01*
X137149382Y-46718499D01*
X137140785Y-46715928D01*
X137140783Y-46715927D01*
X137060117Y-46691803D01*
X137020259Y-46679883D01*
X137011283Y-46679828D01*
X137011282Y-46679828D01*
X136953847Y-46679477D01*
X136885489Y-46679060D01*
X136876858Y-46681527D01*
X136876856Y-46681527D01*
X136764536Y-46713628D01*
X136764534Y-46713629D01*
X136755905Y-46716095D01*
X136641924Y-46788012D01*
X136635981Y-46794741D01*
X136635980Y-46794742D01*
X136591694Y-46844887D01*
X136552709Y-46889029D01*
X136548895Y-46897152D01*
X136548894Y-46897154D01*
X136542382Y-46911025D01*
X136495432Y-47011025D01*
X136494052Y-47019890D01*
X136494051Y-47019892D01*
X136478011Y-47122910D01*
X136474697Y-47144193D01*
X108670500Y-47144193D01*
X108670500Y-46897077D01*
X108690502Y-46828956D01*
X108707405Y-46807982D01*
X110207982Y-45307405D01*
X110270294Y-45273379D01*
X110297077Y-45270500D01*
X145202923Y-45270500D01*
X145271044Y-45290502D01*
G37*
G04 #@! TD.AperFunction*
G04 #@! TA.AperFunction,Conductor*
G36*
X160019595Y-44497679D02*
G01*
X160029430Y-44498798D01*
X160038754Y-44498814D01*
X160052582Y-44501994D01*
X160066420Y-44498863D01*
X160070408Y-44498870D01*
X160077247Y-44499068D01*
X160363016Y-44515116D01*
X160377047Y-44516696D01*
X160532274Y-44543070D01*
X160676313Y-44567544D01*
X160690076Y-44570685D01*
X160981775Y-44654723D01*
X160995093Y-44659384D01*
X161275540Y-44775548D01*
X161288263Y-44781675D01*
X161553940Y-44928510D01*
X161565896Y-44936023D01*
X161813458Y-45111679D01*
X161824505Y-45120488D01*
X161951623Y-45234087D01*
X162026696Y-45301176D01*
X162050838Y-45322751D01*
X162060829Y-45332742D01*
X162263092Y-45559075D01*
X162271901Y-45570122D01*
X162447557Y-45817684D01*
X162455070Y-45829640D01*
X162600135Y-46092114D01*
X162601903Y-46095313D01*
X162608032Y-46108040D01*
X162708544Y-46350699D01*
X162724196Y-46388486D01*
X162728857Y-46401805D01*
X162812895Y-46693504D01*
X162816036Y-46707267D01*
X162835551Y-46822121D01*
X162855542Y-46939778D01*
X162866883Y-47006528D01*
X162868464Y-47020564D01*
X162877193Y-47176000D01*
X162884571Y-47307376D01*
X162884769Y-47314660D01*
X162884766Y-47316570D01*
X162881586Y-47330400D01*
X162884718Y-47344240D01*
X162884703Y-47352913D01*
X162885881Y-47363460D01*
X162885881Y-48647164D01*
X162883722Y-48666041D01*
X162884013Y-48666075D01*
X162883197Y-48673153D01*
X162881587Y-48680101D01*
X162881586Y-48680699D01*
X162881535Y-48680699D01*
X162898908Y-49012195D01*
X162950837Y-49340059D01*
X163036752Y-49660699D01*
X163155713Y-49970601D01*
X163306415Y-50266372D01*
X163487209Y-50544769D01*
X163489284Y-50547332D01*
X163489291Y-50547341D01*
X163599901Y-50683932D01*
X163696112Y-50802743D01*
X163930837Y-51037468D01*
X163933412Y-51039553D01*
X164186239Y-51244289D01*
X164186248Y-51244296D01*
X164188811Y-51246371D01*
X164467208Y-51427165D01*
X164576709Y-51482958D01*
X164760044Y-51576372D01*
X164760051Y-51576375D01*
X164762979Y-51577867D01*
X164766051Y-51579046D01*
X164766055Y-51579048D01*
X164794255Y-51589873D01*
X165072881Y-51696828D01*
X165393521Y-51782743D01*
X165567621Y-51810318D01*
X165718137Y-51834158D01*
X165718145Y-51834159D01*
X165721385Y-51834672D01*
X165969268Y-51847663D01*
X166034790Y-51851097D01*
X166052881Y-51852045D01*
X166052881Y-51851994D01*
X166060990Y-51850144D01*
X166063046Y-51850252D01*
X166071807Y-51849260D01*
X166071805Y-51847678D01*
X166080508Y-51847669D01*
X166082003Y-51848106D01*
X166085921Y-51847663D01*
X168656225Y-51844904D01*
X170723865Y-51842684D01*
X170792007Y-51862613D01*
X170838557Y-51916219D01*
X170850000Y-51968684D01*
X170850000Y-53354000D01*
X170829998Y-53422121D01*
X170776342Y-53468614D01*
X170724000Y-53480000D01*
X166711625Y-53480000D01*
X166694614Y-53481443D01*
X166685637Y-53482205D01*
X166685634Y-53482205D01*
X166682987Y-53482430D01*
X166641139Y-53489582D01*
X166634528Y-53492352D01*
X166634523Y-53492353D01*
X166577048Y-53516431D01*
X166577046Y-53516432D01*
X166570427Y-53519205D01*
X166534676Y-53544953D01*
X166516475Y-53558061D01*
X166516471Y-53558065D01*
X166512817Y-53560696D01*
X166477977Y-53594273D01*
X166475216Y-53597823D01*
X166475215Y-53597824D01*
X166417810Y-53671630D01*
X165904689Y-54331357D01*
X165847078Y-54372848D01*
X165805231Y-54380000D01*
X164505738Y-54380000D01*
X164490213Y-54381017D01*
X164485622Y-54381318D01*
X164485617Y-54381318D01*
X164483549Y-54381454D01*
X164469870Y-54383255D01*
X164457447Y-54384890D01*
X164457444Y-54384891D01*
X164450940Y-54385747D01*
X164444752Y-54387930D01*
X164390841Y-54406948D01*
X164390838Y-54406949D01*
X164384651Y-54409132D01*
X164324029Y-54446082D01*
X164286717Y-54476889D01*
X164283686Y-54480223D01*
X164283685Y-54480224D01*
X164114079Y-54666791D01*
X163432445Y-55416588D01*
X163412291Y-55438757D01*
X163351668Y-55475707D01*
X163319059Y-55480000D01*
X161087005Y-55480000D01*
X161039098Y-55486890D01*
X161034786Y-55488156D01*
X161034779Y-55488158D01*
X160982070Y-55503640D01*
X160970963Y-55506902D01*
X160966881Y-55508767D01*
X160966875Y-55508769D01*
X160931031Y-55525143D01*
X160931024Y-55525147D01*
X160926941Y-55527012D01*
X160380112Y-55878545D01*
X159756485Y-56279449D01*
X159631202Y-56359988D01*
X159563067Y-56380000D01*
X155381110Y-56380000D01*
X155312989Y-56359998D01*
X155266496Y-56306342D01*
X155258872Y-56284560D01*
X155161444Y-55894850D01*
X155164327Y-55823912D01*
X155178916Y-55794289D01*
X155190913Y-55776334D01*
X155190915Y-55776331D01*
X155197909Y-55765864D01*
X155204805Y-55755544D01*
X155220500Y-55676640D01*
X155225799Y-55650000D01*
X155222921Y-55635531D01*
X155220500Y-55610950D01*
X155220500Y-53114236D01*
X155240502Y-53046115D01*
X155257404Y-53025141D01*
X155425139Y-52857405D01*
X155487451Y-52823380D01*
X155514235Y-52820500D01*
X157810950Y-52820500D01*
X157835531Y-52822921D01*
X157850000Y-52825799D01*
X157862171Y-52823378D01*
X157876640Y-52820500D01*
X157955544Y-52804805D01*
X157996311Y-52777565D01*
X158005782Y-52771237D01*
X158075786Y-52750000D01*
X158750000Y-52750000D01*
X158750000Y-48848069D01*
X158767112Y-48784671D01*
X158789275Y-48746605D01*
X158793112Y-48740015D01*
X158810529Y-48680699D01*
X158811845Y-48676217D01*
X158811846Y-48676213D01*
X158813114Y-48671894D01*
X158814598Y-48661575D01*
X158819361Y-48628448D01*
X158819362Y-48628441D01*
X158820000Y-48624000D01*
X158820000Y-46110903D01*
X158817701Y-46083039D01*
X158810931Y-46042293D01*
X158782092Y-45972089D01*
X158741137Y-45914098D01*
X158738046Y-45910831D01*
X158738042Y-45910826D01*
X158710976Y-45882218D01*
X158710973Y-45882216D01*
X158707881Y-45878947D01*
X158660788Y-45841615D01*
X158653856Y-45836402D01*
X158643393Y-45828944D01*
X158638621Y-45826633D01*
X158638619Y-45826632D01*
X158596907Y-45806434D01*
X158592135Y-45804123D01*
X158575148Y-45799189D01*
X158528279Y-45785576D01*
X158528275Y-45785575D01*
X158523957Y-45784321D01*
X158476042Y-45777575D01*
X158471535Y-45777588D01*
X158471532Y-45777588D01*
X157703155Y-45779843D01*
X157703153Y-45779843D01*
X157701471Y-45779848D01*
X157690628Y-45780453D01*
X157685233Y-45780754D01*
X157685224Y-45780755D01*
X157683553Y-45780848D01*
X157657144Y-45783726D01*
X157651263Y-45785572D01*
X157651264Y-45785572D01*
X157599969Y-45801674D01*
X157599964Y-45801676D01*
X157594087Y-45803521D01*
X157531775Y-45837547D01*
X157493041Y-45866543D01*
X157366697Y-45992887D01*
X157354539Y-46006421D01*
X157337636Y-46027395D01*
X157329843Y-46042293D01*
X157309868Y-46080479D01*
X157306888Y-46086175D01*
X157305145Y-46092113D01*
X157305144Y-46092114D01*
X157300387Y-46108317D01*
X157286886Y-46154296D01*
X157286246Y-46158745D01*
X157286245Y-46158751D01*
X157280639Y-46197742D01*
X157280638Y-46197749D01*
X157280000Y-46202190D01*
X157280000Y-46754000D01*
X157259998Y-46822121D01*
X157206342Y-46868614D01*
X157154000Y-46880000D01*
X151476000Y-46880000D01*
X151439865Y-46883885D01*
X151436581Y-46884599D01*
X151436577Y-46884600D01*
X151421542Y-46887871D01*
X151387523Y-46895271D01*
X151312332Y-46932908D01*
X151311582Y-46931410D01*
X151283995Y-46939778D01*
X151285498Y-46944896D01*
X151268116Y-46950000D01*
X151250000Y-46950000D01*
X151250000Y-46963547D01*
X151247121Y-46976783D01*
X151243504Y-46975996D01*
X151232888Y-47015329D01*
X151206888Y-47059985D01*
X151186886Y-47128106D01*
X151186246Y-47132555D01*
X151186245Y-47132561D01*
X151180639Y-47171552D01*
X151180638Y-47171559D01*
X151180000Y-47176000D01*
X151180000Y-48452423D01*
X151159998Y-48520544D01*
X151143095Y-48541518D01*
X150772498Y-48912115D01*
X150710186Y-48946141D01*
X150683403Y-48949020D01*
X146576980Y-48949020D01*
X146508859Y-48929018D01*
X146462366Y-48875362D01*
X146450980Y-48823020D01*
X146450980Y-48242158D01*
X146451326Y-48232820D01*
X146454052Y-48196137D01*
X146454717Y-48187190D01*
X146452844Y-48178415D01*
X146452233Y-48169455D01*
X146452359Y-48169446D01*
X146450980Y-48156383D01*
X146450980Y-45397294D01*
X146452202Y-45386355D01*
X146451586Y-45386305D01*
X146452306Y-45377358D01*
X146454287Y-45368602D01*
X146451222Y-45319197D01*
X146450980Y-45311395D01*
X146450980Y-45296698D01*
X146449662Y-45287496D01*
X146448630Y-45277426D01*
X146446498Y-45243046D01*
X146446498Y-45243044D01*
X146445942Y-45234087D01*
X146442895Y-45225648D01*
X146441498Y-45218901D01*
X146439919Y-45212570D01*
X146437984Y-45205954D01*
X146436712Y-45197068D01*
X146418730Y-45157520D01*
X146414924Y-45148169D01*
X146403227Y-45115768D01*
X146400178Y-45107322D01*
X146394881Y-45100071D01*
X146391651Y-45093996D01*
X146388344Y-45088337D01*
X146384646Y-45082555D01*
X146380930Y-45074382D01*
X146352581Y-45041482D01*
X146346293Y-45033562D01*
X146341967Y-45027640D01*
X146341965Y-45027637D01*
X146339092Y-45023705D01*
X146329186Y-45013799D01*
X146322828Y-45006952D01*
X146298814Y-44979083D01*
X146292955Y-44972283D01*
X146291282Y-44971199D01*
X146254987Y-44914307D01*
X146250000Y-44879211D01*
X146250000Y-44615200D01*
X146270002Y-44547079D01*
X146323658Y-44500586D01*
X146376076Y-44489200D01*
X160019595Y-44497679D01*
G37*
G04 #@! TD.AperFunction*
G04 #@! TA.AperFunction,Conductor*
G36*
X118605946Y-97903587D02*
G01*
X118606062Y-97903204D01*
X118609950Y-97904383D01*
X118610998Y-97904592D01*
X118617704Y-97907370D01*
X118632595Y-97910332D01*
X118661751Y-97916132D01*
X118661757Y-97916133D01*
X118664774Y-97916733D01*
X118689624Y-97919181D01*
X118694863Y-97919697D01*
X118694865Y-97919697D01*
X118697940Y-97920000D01*
X119039994Y-97920000D01*
X119108115Y-97940002D01*
X119154608Y-97993658D01*
X119158917Y-98004368D01*
X119291275Y-98382535D01*
X119924796Y-100192596D01*
X119925264Y-100193957D01*
X120395842Y-101589398D01*
X120404203Y-101614193D01*
X120407017Y-101685134D01*
X120373904Y-101743551D01*
X120286337Y-101831118D01*
X120267250Y-101846783D01*
X120254981Y-101854981D01*
X120239897Y-101877557D01*
X120239890Y-101877565D01*
X120195195Y-101944457D01*
X120174201Y-102050000D01*
X120195195Y-102155543D01*
X120202089Y-102165860D01*
X120202089Y-102165861D01*
X120239886Y-102222430D01*
X120239897Y-102222444D01*
X120254981Y-102245019D01*
X120257141Y-102246463D01*
X120287911Y-102302811D01*
X120290790Y-102329594D01*
X120290790Y-109599660D01*
X120288369Y-109624241D01*
X120285491Y-109638710D01*
X120290790Y-109665350D01*
X120306485Y-109744254D01*
X120313380Y-109754573D01*
X120328754Y-109777582D01*
X120351172Y-109811134D01*
X120351182Y-109811148D01*
X120359377Y-109823412D01*
X120366271Y-109833729D01*
X120378542Y-109841928D01*
X120397630Y-109857595D01*
X120413095Y-109873060D01*
X120447121Y-109935372D01*
X120450000Y-109962155D01*
X120450000Y-110024000D01*
X120429998Y-110092121D01*
X120376342Y-110138614D01*
X120324000Y-110150000D01*
X111876000Y-110150000D01*
X111807879Y-110129998D01*
X111761386Y-110076342D01*
X111750000Y-110024000D01*
X111750000Y-105010647D01*
X111765651Y-104959050D01*
X111762673Y-104957817D01*
X111767423Y-104946349D01*
X111774316Y-104936033D01*
X111790011Y-104857129D01*
X111790011Y-104857125D01*
X111795309Y-104830489D01*
X111792432Y-104816023D01*
X111790011Y-104791445D01*
X111790011Y-102758560D01*
X111792432Y-102733979D01*
X111792889Y-102731681D01*
X111795310Y-102719511D01*
X111774317Y-102613968D01*
X111767423Y-102603650D01*
X111762673Y-102592183D01*
X111762917Y-102592082D01*
X111750000Y-102560944D01*
X111750000Y-102550000D01*
X111430191Y-101782458D01*
X111420499Y-101733997D01*
X111420499Y-101583210D01*
X111410607Y-101533474D01*
X111372923Y-101477077D01*
X111316526Y-101439393D01*
X111317771Y-101437530D01*
X111275253Y-101403267D01*
X111262446Y-101379870D01*
X111259693Y-101373263D01*
X111250000Y-101324800D01*
X111250000Y-99799263D01*
X111270002Y-99731142D01*
X111283415Y-99713800D01*
X112412581Y-98490537D01*
X112473483Y-98454048D01*
X112505166Y-98450000D01*
X115550000Y-98450000D01*
X116088385Y-97930342D01*
X116151289Y-97897425D01*
X116175889Y-97895000D01*
X118562778Y-97895000D01*
X118605946Y-97903587D01*
G37*
G04 #@! TD.AperFunction*
G04 #@! TA.AperFunction,Conductor*
G36*
X181612961Y-110670501D02*
G01*
X181624328Y-110670556D01*
X181867799Y-110671741D01*
X181884006Y-110673378D01*
X181887829Y-110673378D01*
X181900000Y-110675799D01*
X181912171Y-110673378D01*
X181918067Y-110673378D01*
X181931860Y-110672053D01*
X182063499Y-110672693D01*
X182293441Y-110673812D01*
X182345632Y-110688038D01*
X182346396Y-110686264D01*
X182353402Y-110689279D01*
X182359985Y-110693112D01*
X182367295Y-110695258D01*
X182367294Y-110695258D01*
X182423783Y-110711845D01*
X182423787Y-110711846D01*
X182428106Y-110713114D01*
X182432555Y-110713754D01*
X182432561Y-110713755D01*
X182471552Y-110719361D01*
X182471559Y-110719362D01*
X182476000Y-110720000D01*
X191784614Y-110720000D01*
X191785227Y-110720001D01*
X197357614Y-110747117D01*
X197425636Y-110767451D01*
X197471867Y-110821332D01*
X197483000Y-110873116D01*
X197483000Y-131116724D01*
X197481902Y-131126401D01*
X197481885Y-131135871D01*
X197478705Y-131149701D01*
X197481836Y-131163540D01*
X197481829Y-131167527D01*
X197481631Y-131174368D01*
X197465584Y-131460129D01*
X197464003Y-131474166D01*
X197461789Y-131487197D01*
X197413155Y-131773432D01*
X197410014Y-131787195D01*
X197325976Y-132078894D01*
X197321315Y-132092212D01*
X197210124Y-132360655D01*
X197205153Y-132372655D01*
X197199024Y-132385382D01*
X197052189Y-132651059D01*
X197044676Y-132663015D01*
X196869020Y-132910577D01*
X196860211Y-132921624D01*
X196657948Y-133147957D01*
X196647957Y-133157948D01*
X196421624Y-133360211D01*
X196410577Y-133369020D01*
X196163015Y-133544676D01*
X196151059Y-133552189D01*
X195885382Y-133699024D01*
X195872659Y-133705151D01*
X195592213Y-133821315D01*
X195578894Y-133825976D01*
X195287195Y-133910014D01*
X195273432Y-133913155D01*
X195129393Y-133937629D01*
X194974166Y-133964003D01*
X194960135Y-133965583D01*
X194673315Y-133981690D01*
X194666039Y-133981888D01*
X194664129Y-133981885D01*
X194650299Y-133978705D01*
X194636459Y-133981837D01*
X194627786Y-133981822D01*
X194617239Y-133983000D01*
X169976000Y-133983000D01*
X169907879Y-133962998D01*
X169861386Y-133909342D01*
X169850000Y-133857000D01*
X169850000Y-133545648D01*
X169870002Y-133477527D01*
X169923658Y-133431034D01*
X169976659Y-133419650D01*
X170238064Y-133421018D01*
X170314890Y-133421420D01*
X170318276Y-133421070D01*
X170318278Y-133421070D01*
X170674645Y-133384244D01*
X170674654Y-133384243D01*
X170678037Y-133383893D01*
X170681370Y-133383179D01*
X170681373Y-133383178D01*
X170791616Y-133359544D01*
X171035006Y-133307365D01*
X171381623Y-133192732D01*
X171713833Y-133041336D01*
X171915451Y-132921624D01*
X172024803Y-132856696D01*
X172024808Y-132856693D01*
X172027748Y-132854947D01*
X172319697Y-132635745D01*
X172586266Y-132386295D01*
X172588478Y-132383723D01*
X172588485Y-132383716D01*
X172822108Y-132112102D01*
X172824334Y-132109514D01*
X172932897Y-131951555D01*
X173029188Y-131811451D01*
X173029193Y-131811444D01*
X173031118Y-131808642D01*
X173032730Y-131805648D01*
X173032735Y-131805640D01*
X173202576Y-131490209D01*
X173204198Y-131487197D01*
X173341551Y-131148939D01*
X173346613Y-131131171D01*
X173440634Y-130801104D01*
X173441568Y-130797826D01*
X173503080Y-130437965D01*
X173525368Y-130073565D01*
X173525450Y-130050000D01*
X173505707Y-129685454D01*
X173446708Y-129325172D01*
X173349145Y-128973369D01*
X173344704Y-128962208D01*
X173215416Y-128637324D01*
X173214157Y-128634160D01*
X173103105Y-128424419D01*
X173044924Y-128314534D01*
X173044920Y-128314527D01*
X173043325Y-128311515D01*
X172838647Y-128009206D01*
X172602516Y-127730770D01*
X172337696Y-127479466D01*
X172047284Y-127258231D01*
X172044372Y-127256474D01*
X172044367Y-127256471D01*
X171737599Y-127071417D01*
X171737598Y-127071417D01*
X171734678Y-127069655D01*
X171722800Y-127064141D01*
X171618243Y-127015608D01*
X171403534Y-126915943D01*
X171400312Y-126914852D01*
X171400306Y-126914850D01*
X171060960Y-126799988D01*
X171057725Y-126798893D01*
X170701299Y-126719875D01*
X170573247Y-126705738D01*
X170341804Y-126680186D01*
X170341799Y-126680186D01*
X170338423Y-126679813D01*
X170335024Y-126679807D01*
X170335023Y-126679807D01*
X169975780Y-126679180D01*
X169907694Y-126659059D01*
X169861295Y-126605322D01*
X169850000Y-126553180D01*
X169850000Y-125350220D01*
X169850002Y-125349596D01*
X169855281Y-124283209D01*
X175029500Y-124283209D01*
X175029501Y-126816790D01*
X175039393Y-126866526D01*
X175077077Y-126922923D01*
X175133474Y-126960607D01*
X175183209Y-126970500D01*
X175803500Y-126970500D01*
X175871621Y-126990502D01*
X175918114Y-127044158D01*
X175929500Y-127096500D01*
X175929500Y-127383155D01*
X175909498Y-127451276D01*
X175902450Y-127461160D01*
X175864130Y-127509769D01*
X175763966Y-127700150D01*
X175700173Y-127905597D01*
X175674888Y-128119229D01*
X175688958Y-128333891D01*
X175741911Y-128542395D01*
X175831974Y-128737757D01*
X175956131Y-128913436D01*
X176110224Y-129063547D01*
X176115020Y-129066752D01*
X176115023Y-129066754D01*
X176187352Y-129115082D01*
X176289093Y-129183063D01*
X176294396Y-129185341D01*
X176294399Y-129185343D01*
X176481439Y-129265701D01*
X176486746Y-129267981D01*
X176563893Y-129285438D01*
X176690928Y-129314183D01*
X176690933Y-129314184D01*
X176696565Y-129315458D01*
X176702336Y-129315685D01*
X176702338Y-129315685D01*
X176766759Y-129318216D01*
X176911522Y-129323904D01*
X177017970Y-129308470D01*
X177118705Y-129293864D01*
X177118710Y-129293863D01*
X177124419Y-129293035D01*
X177328125Y-129223886D01*
X177515819Y-129118773D01*
X177681215Y-128981215D01*
X177818773Y-128815819D01*
X177923886Y-128628125D01*
X177993035Y-128424419D01*
X178006998Y-128328123D01*
X178023371Y-128215196D01*
X178023904Y-128211522D01*
X178025515Y-128150000D01*
X178005831Y-127935779D01*
X177995763Y-127900080D01*
X177949008Y-127734298D01*
X177949006Y-127734293D01*
X177947438Y-127728733D01*
X177944229Y-127722224D01*
X177854845Y-127540974D01*
X177852291Y-127535795D01*
X177848838Y-127531171D01*
X177848832Y-127531161D01*
X177795542Y-127459797D01*
X177770810Y-127393247D01*
X177770500Y-127384409D01*
X177770500Y-127096499D01*
X177790502Y-127028378D01*
X177844158Y-126981885D01*
X177896500Y-126970499D01*
X178516790Y-126970499D01*
X178566526Y-126960607D01*
X178576842Y-126953714D01*
X178576844Y-126953713D01*
X178612610Y-126929814D01*
X178622923Y-126922923D01*
X178660607Y-126866526D01*
X178670500Y-126816791D01*
X178670499Y-124283210D01*
X178660607Y-124233474D01*
X178622923Y-124177077D01*
X178566526Y-124139393D01*
X178516791Y-124129500D01*
X176850270Y-124129500D01*
X175183210Y-124129501D01*
X175133474Y-124139393D01*
X175123158Y-124146286D01*
X175123156Y-124146287D01*
X175092026Y-124167088D01*
X175077077Y-124177077D01*
X175039393Y-124233474D01*
X175029500Y-124283209D01*
X169855281Y-124283209D01*
X169858540Y-123624886D01*
X169878879Y-123556866D01*
X169932764Y-123510640D01*
X170003087Y-123500884D01*
X170041740Y-123513244D01*
X170067423Y-123526330D01*
X170067427Y-123526331D01*
X170076260Y-123530832D01*
X170168872Y-123545500D01*
X170681128Y-123545500D01*
X170773740Y-123530832D01*
X170885367Y-123473955D01*
X170973955Y-123385367D01*
X170997429Y-123339297D01*
X171046178Y-123287682D01*
X171109696Y-123270500D01*
X171149104Y-123270500D01*
X171217225Y-123290502D01*
X171229165Y-123299586D01*
X171233172Y-123304353D01*
X171240643Y-123309326D01*
X171240644Y-123309327D01*
X171337888Y-123374058D01*
X171345362Y-123379033D01*
X171474002Y-123419223D01*
X171482972Y-123419387D01*
X171482976Y-123419388D01*
X171544742Y-123420520D01*
X171608752Y-123421693D01*
X171617812Y-123419223D01*
X171730117Y-123388606D01*
X171730120Y-123388605D01*
X171738779Y-123386244D01*
X171746429Y-123381547D01*
X171746431Y-123381546D01*
X171845979Y-123320424D01*
X171845982Y-123320421D01*
X171853631Y-123315725D01*
X171863925Y-123304353D01*
X171938045Y-123222466D01*
X171938046Y-123222465D01*
X171944073Y-123215806D01*
X171960875Y-123181128D01*
X171998921Y-123102599D01*
X171998921Y-123102598D01*
X172002836Y-123094518D01*
X172025196Y-122961614D01*
X172025338Y-122950000D01*
X172006232Y-122816588D01*
X171950450Y-122693902D01*
X171862475Y-122591803D01*
X171749382Y-122518499D01*
X171740785Y-122515928D01*
X171740783Y-122515927D01*
X171663140Y-122492707D01*
X171620259Y-122479883D01*
X171611283Y-122479828D01*
X171611282Y-122479828D01*
X171553847Y-122479477D01*
X171485489Y-122479060D01*
X171476858Y-122481527D01*
X171476856Y-122481527D01*
X171364536Y-122513628D01*
X171364534Y-122513629D01*
X171355905Y-122516095D01*
X171348317Y-122520883D01*
X171275223Y-122567002D01*
X171241924Y-122588012D01*
X171235985Y-122594736D01*
X171234759Y-122595780D01*
X171169918Y-122624698D01*
X171099737Y-122613970D01*
X171046497Y-122567002D01*
X171033262Y-122538761D01*
X171032384Y-122536058D01*
X171030832Y-122526260D01*
X170973955Y-122414633D01*
X170885367Y-122326045D01*
X170773740Y-122269168D01*
X170681128Y-122254500D01*
X170168872Y-122254500D01*
X170076260Y-122269168D01*
X170067425Y-122273670D01*
X170067424Y-122273670D01*
X170048944Y-122283086D01*
X169979167Y-122296191D01*
X169913382Y-122269491D01*
X169872475Y-122211464D01*
X169865742Y-122170196D01*
X169868436Y-121625876D01*
X169888774Y-121557855D01*
X169942660Y-121511629D01*
X169994434Y-121500500D01*
X170904044Y-121500499D01*
X171046790Y-121500499D01*
X171090467Y-121491812D01*
X171161179Y-121498142D01*
X171217245Y-121541698D01*
X171230371Y-121564642D01*
X171246451Y-121601187D01*
X171252228Y-121608060D01*
X171252229Y-121608061D01*
X171258740Y-121615806D01*
X171333172Y-121704353D01*
X171445362Y-121779033D01*
X171574002Y-121819223D01*
X171582972Y-121819387D01*
X171582976Y-121819388D01*
X171644742Y-121820520D01*
X171708752Y-121821693D01*
X171717812Y-121819223D01*
X171830117Y-121788606D01*
X171830120Y-121788605D01*
X171838779Y-121786244D01*
X171846429Y-121781547D01*
X171846431Y-121781546D01*
X171945979Y-121720424D01*
X171945982Y-121720421D01*
X171953631Y-121715725D01*
X171963925Y-121704353D01*
X172038045Y-121622466D01*
X172038046Y-121622465D01*
X172044073Y-121615806D01*
X172055136Y-121592973D01*
X172098921Y-121502599D01*
X172098921Y-121502598D01*
X172102836Y-121494518D01*
X172125196Y-121361614D01*
X172125338Y-121350000D01*
X172106232Y-121216588D01*
X172050450Y-121093902D01*
X171962475Y-120991803D01*
X171907015Y-120955855D01*
X171860731Y-120902018D01*
X171850901Y-120831706D01*
X171880646Y-120767240D01*
X171909618Y-120742749D01*
X171953631Y-120715725D01*
X172044073Y-120615806D01*
X172102836Y-120494518D01*
X172125196Y-120361614D01*
X172125338Y-120350000D01*
X172106232Y-120216588D01*
X172050450Y-120093902D01*
X171962475Y-119991803D01*
X171849382Y-119918499D01*
X171840785Y-119915928D01*
X171840783Y-119915927D01*
X171763140Y-119892707D01*
X171720259Y-119879883D01*
X171711283Y-119879828D01*
X171711282Y-119879828D01*
X171653847Y-119879477D01*
X171585489Y-119879060D01*
X171576858Y-119881527D01*
X171576856Y-119881527D01*
X171464536Y-119913628D01*
X171464534Y-119913629D01*
X171455905Y-119916095D01*
X171448319Y-119920881D01*
X171448311Y-119920885D01*
X171393736Y-119955320D01*
X171325451Y-119974755D01*
X171257499Y-119954186D01*
X171211455Y-119900145D01*
X171200500Y-119848760D01*
X171200499Y-119609399D01*
X171200499Y-119603210D01*
X171190607Y-119553474D01*
X171183734Y-119543188D01*
X171176149Y-119472626D01*
X171183726Y-119446824D01*
X171190607Y-119436526D01*
X171200500Y-119386791D01*
X171200499Y-118953210D01*
X171190607Y-118903474D01*
X171152923Y-118847077D01*
X171096526Y-118809393D01*
X171046791Y-118799500D01*
X170863741Y-118799500D01*
X170509015Y-118799501D01*
X170484431Y-118797079D01*
X170482184Y-118796632D01*
X170470009Y-118794210D01*
X170457834Y-118796632D01*
X170455587Y-118797079D01*
X170431003Y-118799501D01*
X170009053Y-118799501D01*
X169940932Y-118779499D01*
X169894439Y-118725843D01*
X169883055Y-118672877D01*
X169892611Y-116742480D01*
X169912950Y-116674459D01*
X169929514Y-116654009D01*
X172526118Y-114057405D01*
X172588430Y-114023379D01*
X172615213Y-114020500D01*
X173760950Y-114020500D01*
X173785531Y-114022921D01*
X173800000Y-114025799D01*
X173812171Y-114023378D01*
X173826640Y-114020500D01*
X173905544Y-114004805D01*
X173938873Y-113982535D01*
X173972435Y-113960110D01*
X173972438Y-113960108D01*
X173984702Y-113951913D01*
X173984703Y-113951912D01*
X173995019Y-113945019D01*
X174003218Y-113932748D01*
X174018885Y-113913660D01*
X177085707Y-110846837D01*
X177108924Y-110828527D01*
X177336262Y-110689093D01*
X177402137Y-110670500D01*
X181612348Y-110670500D01*
X181612961Y-110670501D01*
G37*
G04 #@! TD.AperFunction*
G04 #@! TA.AperFunction,Conductor*
G36*
X144992121Y-98070002D02*
G01*
X145038614Y-98123658D01*
X145050000Y-98176000D01*
X145050000Y-109787808D01*
X145029998Y-109855929D01*
X145018442Y-109871215D01*
X145002709Y-109889029D01*
X144945432Y-110011025D01*
X144924697Y-110144193D01*
X144925861Y-110153095D01*
X144925861Y-110153098D01*
X144941008Y-110268929D01*
X144942172Y-110277828D01*
X144996451Y-110401187D01*
X145002226Y-110408057D01*
X145002229Y-110408062D01*
X145020450Y-110429738D01*
X145048972Y-110494753D01*
X145050000Y-110510814D01*
X145050000Y-110565265D01*
X145029998Y-110633386D01*
X145013095Y-110654360D01*
X138454360Y-117213095D01*
X138392048Y-117247121D01*
X138365265Y-117250000D01*
X128701675Y-117250000D01*
X128633554Y-117229998D01*
X128613205Y-117213716D01*
X121819288Y-110514159D01*
X121818663Y-110513538D01*
X120868695Y-109563570D01*
X120834669Y-109501258D01*
X120831790Y-109474475D01*
X120831790Y-102200340D01*
X120834211Y-102175759D01*
X120834668Y-102173461D01*
X120837089Y-102161290D01*
X120834668Y-102149117D01*
X120831010Y-102130726D01*
X120837339Y-102060012D01*
X120865494Y-102017051D01*
X120895640Y-101986905D01*
X120957952Y-101952879D01*
X120984735Y-101950000D01*
X126950000Y-101950000D01*
X130212253Y-98094611D01*
X130271524Y-98055529D01*
X130308439Y-98050000D01*
X144924000Y-98050000D01*
X144992121Y-98070002D01*
G37*
G04 #@! TD.AperFunction*
G04 #@! TA.AperFunction,Conductor*
G36*
X144596463Y-56257906D02*
G01*
X144643036Y-56311493D01*
X144654500Y-56364005D01*
X144654500Y-56881128D01*
X144669168Y-56973740D01*
X144726045Y-57085367D01*
X144814633Y-57173955D01*
X144823465Y-57178455D01*
X144823468Y-57178457D01*
X144827026Y-57180270D01*
X144830571Y-57183618D01*
X144831493Y-57184288D01*
X144831406Y-57184407D01*
X144878642Y-57229018D01*
X144895708Y-57297933D01*
X144872808Y-57365134D01*
X144864266Y-57375943D01*
X144852709Y-57389029D01*
X144795432Y-57511025D01*
X144794052Y-57519890D01*
X144794051Y-57519892D01*
X144778631Y-57618929D01*
X144774697Y-57644193D01*
X144775861Y-57653095D01*
X144775861Y-57653098D01*
X144788688Y-57751187D01*
X144792172Y-57777828D01*
X144846451Y-57901187D01*
X144852228Y-57908060D01*
X144852229Y-57908061D01*
X144920851Y-57989695D01*
X144933172Y-58004353D01*
X145045362Y-58079033D01*
X145174002Y-58119223D01*
X145182972Y-58119387D01*
X145182976Y-58119388D01*
X145244742Y-58120520D01*
X145308752Y-58121693D01*
X145317812Y-58119223D01*
X145430117Y-58088606D01*
X145430120Y-58088605D01*
X145438779Y-58086244D01*
X145446429Y-58081547D01*
X145446431Y-58081546D01*
X145545979Y-58020424D01*
X145545982Y-58020421D01*
X145553631Y-58015725D01*
X145563925Y-58004353D01*
X145638045Y-57922466D01*
X145638046Y-57922465D01*
X145644073Y-57915806D01*
X145655138Y-57892969D01*
X145698921Y-57802599D01*
X145698921Y-57802598D01*
X145702836Y-57794518D01*
X145725196Y-57661614D01*
X145725338Y-57650000D01*
X145706232Y-57516588D01*
X145700099Y-57503098D01*
X145654166Y-57402076D01*
X145650450Y-57393902D01*
X145644588Y-57387099D01*
X145639754Y-57379540D01*
X145642634Y-57377698D01*
X145620146Y-57328088D01*
X145630446Y-57257842D01*
X145677089Y-57204317D01*
X145687709Y-57198239D01*
X145726532Y-57178457D01*
X145726535Y-57178455D01*
X145735367Y-57173955D01*
X145823955Y-57085367D01*
X145880832Y-56973740D01*
X145895500Y-56881128D01*
X145895500Y-56876171D01*
X145895806Y-56872283D01*
X145921089Y-56805941D01*
X145978226Y-56763799D01*
X146049076Y-56759238D01*
X146067389Y-56764852D01*
X146126762Y-56788124D01*
X146182884Y-56831606D01*
X146205228Y-56885722D01*
X146219168Y-56973740D01*
X146276045Y-57085367D01*
X146364633Y-57173955D01*
X146476260Y-57230832D01*
X146568872Y-57245500D01*
X146766283Y-57245500D01*
X146834404Y-57265502D01*
X146880897Y-57319158D01*
X146890783Y-57390884D01*
X146874697Y-57494193D01*
X146875861Y-57503095D01*
X146875861Y-57503098D01*
X146891008Y-57618929D01*
X146892172Y-57627828D01*
X146946451Y-57751187D01*
X146952228Y-57758060D01*
X146952229Y-57758061D01*
X146989668Y-57802599D01*
X147033172Y-57854353D01*
X147050256Y-57865725D01*
X147135497Y-57922466D01*
X147145362Y-57929033D01*
X147274002Y-57969223D01*
X147282972Y-57969387D01*
X147282976Y-57969388D01*
X147344742Y-57970520D01*
X147408752Y-57971693D01*
X147417414Y-57969331D01*
X147417418Y-57969331D01*
X147492806Y-57948778D01*
X147563789Y-57950158D01*
X147622758Y-57989695D01*
X147629992Y-57999275D01*
X149850000Y-61250000D01*
X152924000Y-61250000D01*
X152992121Y-61270002D01*
X153038614Y-61323658D01*
X153050000Y-61376000D01*
X153050000Y-65623980D01*
X153029998Y-65692101D01*
X152976342Y-65738594D01*
X152924000Y-65749980D01*
X146286500Y-65749980D01*
X146218379Y-65729978D01*
X146171886Y-65676322D01*
X146160500Y-65623980D01*
X146160500Y-65598057D01*
X146180502Y-65529936D01*
X146234158Y-65483443D01*
X146261914Y-65474480D01*
X146306526Y-65465607D01*
X146316842Y-65458714D01*
X146316844Y-65458713D01*
X146352610Y-65434814D01*
X146362923Y-65427923D01*
X146400607Y-65371526D01*
X146410500Y-65321791D01*
X146410499Y-64138210D01*
X146400607Y-64088474D01*
X146362923Y-64032077D01*
X146306526Y-63994393D01*
X146256791Y-63984500D01*
X145890060Y-63984500D01*
X145523210Y-63984501D01*
X145473474Y-63994393D01*
X145463158Y-64001286D01*
X145463156Y-64001287D01*
X145462628Y-64001640D01*
X145417077Y-64032077D01*
X145379393Y-64088474D01*
X145369500Y-64138209D01*
X145369501Y-65321790D01*
X145379393Y-65371526D01*
X145417077Y-65427923D01*
X145473474Y-65465607D01*
X145485645Y-65468028D01*
X145518081Y-65474480D01*
X145580991Y-65507387D01*
X145616123Y-65569082D01*
X145619500Y-65598059D01*
X145619500Y-65623980D01*
X145599498Y-65692101D01*
X145545842Y-65738594D01*
X145493500Y-65749980D01*
X134884714Y-65749980D01*
X134816593Y-65729978D01*
X134795619Y-65713075D01*
X134630011Y-65547467D01*
X134595985Y-65485155D01*
X134601660Y-65421736D01*
X134600607Y-65421526D01*
X134602556Y-65411727D01*
X134610500Y-65371791D01*
X134610499Y-64188210D01*
X134600607Y-64138474D01*
X134562923Y-64082077D01*
X134506526Y-64044393D01*
X134456791Y-64034500D01*
X134090060Y-64034500D01*
X133723210Y-64034501D01*
X133673474Y-64044393D01*
X133663158Y-64051286D01*
X133663156Y-64051287D01*
X133632026Y-64072088D01*
X133617077Y-64082077D01*
X133579393Y-64138474D01*
X133569500Y-64188209D01*
X133569501Y-65371790D01*
X133579393Y-65421526D01*
X133617077Y-65477923D01*
X133673474Y-65515607D01*
X133723209Y-65525500D01*
X133787863Y-65525500D01*
X133855984Y-65545502D01*
X133878055Y-65567182D01*
X133879311Y-65565926D01*
X133888088Y-65574703D01*
X133894981Y-65585019D01*
X133907249Y-65593216D01*
X133926337Y-65608882D01*
X134152361Y-65834905D01*
X134186385Y-65897217D01*
X134181321Y-65968032D01*
X134138774Y-66024868D01*
X134072254Y-66049679D01*
X134063265Y-66050000D01*
X132576000Y-66050000D01*
X132507879Y-66029998D01*
X132461386Y-65976342D01*
X132450000Y-65924000D01*
X132450000Y-62150000D01*
X131538796Y-62150000D01*
X131481218Y-62135270D01*
X131478268Y-62133059D01*
X131469862Y-62129908D01*
X131469859Y-62129906D01*
X131437595Y-62117810D01*
X131428279Y-62113885D01*
X131388975Y-62095432D01*
X131380107Y-62094051D01*
X131373513Y-62092035D01*
X131367189Y-62090376D01*
X131360474Y-62088900D01*
X131352072Y-62085750D01*
X131343125Y-62085085D01*
X131343124Y-62085085D01*
X131319769Y-62083350D01*
X131308763Y-62082532D01*
X131298721Y-62081379D01*
X131293337Y-62080541D01*
X131291465Y-62080249D01*
X131291464Y-62080249D01*
X131286654Y-62079500D01*
X131272642Y-62079500D01*
X131263305Y-62079154D01*
X131255947Y-62078607D01*
X131217670Y-62075763D01*
X131208893Y-62077636D01*
X131199938Y-62078247D01*
X131199929Y-62078121D01*
X131186865Y-62079500D01*
X128876000Y-62079500D01*
X128807879Y-62059498D01*
X128761386Y-62005842D01*
X128750000Y-61953500D01*
X128750000Y-56853629D01*
X128770002Y-56785508D01*
X128823658Y-56739015D01*
X128851679Y-56729998D01*
X130979163Y-56311493D01*
X131240584Y-56260068D01*
X131264717Y-56257699D01*
X133537769Y-56254324D01*
X137949032Y-56247774D01*
X137993552Y-56255831D01*
X138011800Y-56262690D01*
X138019676Y-56263546D01*
X138019678Y-56263546D01*
X138076999Y-56269773D01*
X138176411Y-56280572D01*
X138182820Y-56279955D01*
X138182823Y-56279955D01*
X138202989Y-56278013D01*
X138213505Y-56277001D01*
X138333566Y-56255831D01*
X138372149Y-56249028D01*
X138393842Y-56247114D01*
X140991070Y-56243257D01*
X144528314Y-56238005D01*
X144596463Y-56257906D01*
G37*
G04 #@! TD.AperFunction*
G04 #@! TA.AperFunction,Conductor*
G36*
X155139387Y-97915002D02*
G01*
X155159561Y-97931111D01*
X155180089Y-97951275D01*
X155251324Y-97993112D01*
X155258754Y-97995294D01*
X155258755Y-97995294D01*
X155315122Y-98011845D01*
X155315126Y-98011846D01*
X155319445Y-98013114D01*
X155323894Y-98013754D01*
X155323900Y-98013755D01*
X155362891Y-98019361D01*
X155362898Y-98019362D01*
X155367339Y-98020000D01*
X163124000Y-98020000D01*
X163192121Y-98040002D01*
X163238614Y-98093658D01*
X163250000Y-98146000D01*
X163250000Y-99509854D01*
X163229998Y-99577975D01*
X163213095Y-99598949D01*
X160866820Y-101945224D01*
X160847732Y-101960891D01*
X160835461Y-101969090D01*
X160828568Y-101979406D01*
X160828567Y-101979407D01*
X160820372Y-101991671D01*
X160820352Y-101991700D01*
X160797946Y-102025234D01*
X160797945Y-102025236D01*
X160775675Y-102058565D01*
X160775675Y-102058566D01*
X160754681Y-102164109D01*
X160757102Y-102176280D01*
X160757559Y-102178578D01*
X160759980Y-102203159D01*
X160759980Y-108082705D01*
X160739978Y-108150826D01*
X160723075Y-108171800D01*
X160421800Y-108473075D01*
X160359488Y-108507101D01*
X160332705Y-108509980D01*
X149276000Y-108509980D01*
X149207879Y-108489978D01*
X149161386Y-108436322D01*
X149150000Y-108383980D01*
X149150000Y-99399263D01*
X149170002Y-99331142D01*
X149183415Y-99313800D01*
X150261385Y-98146000D01*
X150312582Y-98090537D01*
X150373483Y-98054048D01*
X150405166Y-98050000D01*
X152550000Y-98050000D01*
X152822791Y-97909058D01*
X152880628Y-97895000D01*
X155071266Y-97895000D01*
X155139387Y-97915002D01*
G37*
G04 #@! TD.AperFunction*
M02*
