M48
; DRILL file {KiCad (6.0.0-rc1-314-g10be483430)} date Thursday, 09 December 2021 at 06:26:58 pm
; FORMAT={-:-/ absolute / metric / decimal}
; #@! TF.CreationDate,2021-12-09T18:26:58+11:00
; #@! TF.GenerationSoftware,Kicad,Pcbnew,(6.0.0-rc1-314-g10be483430)
; #@! TF.FileFunction,Plated,1,4,PTH
FMAT,2
METRIC
; #@! TA.AperFunction,Plated,PTH,ViaDrill
T1C0.400
; #@! TA.AperFunction,Plated,PTH,ViaDrill
T2C0.450
; #@! TA.AperFunction,Plated,PTH,ViaDrill
T3C0.500
; #@! TA.AperFunction,Plated,PTH,ComponentDrill
T4C0.500
; #@! TA.AperFunction,Plated,PTH,ComponentDrill
T5C0.600
; #@! TA.AperFunction,Plated,PTH,ViaDrill
T6C1.000
; #@! TA.AperFunction,Plated,PTH,ComponentDrill
T7C1.000
; #@! TA.AperFunction,Plated,PTH,ComponentDrill
T8C3.200
; #@! TA.AperFunction,Plated,PTH,ComponentDrill
T9C9.100
%
G90
G05
T1
X108.55Y-104.95
X108.55Y-108.85
X109.25Y-78.75
X110.15Y-75.35
X110.2Y-63.95
X111.75Y-77.05
X112.35Y-74.65
X112.45Y-76.05
X113.15Y-75.25
X113.25Y-74.25
X117.95Y-65.75
X117.95Y-69.25
X120.9Y-70.1
X121.65Y-69.15
X121.75Y-66.3
X123.85Y-68.75
X123.95Y-71.25
X125.95Y-65.85
X126.95Y-65.2
X127.75Y-120.65
X127.85Y-122.15
X127.95Y-64.5
X128.0Y-63.4
X129.75Y-121.65
X130.75Y-71.25
X130.95Y-118.25
X131.3Y-122.95
X132.1Y-121.35
X132.95Y-120.65
X133.3Y-122.6
X135.1Y-121.25
X136.15Y-118.15
X136.4Y-122.4
X136.95Y-47.15
X137.2Y-119.6
X137.9Y-121.4
X138.45Y-47.05
X138.75Y-121.95
X139.85Y-47.05
X140.2Y-120.45
X142.25Y-118.75
X142.25Y-121.15
X142.35Y-122.9
X142.45Y-119.85
X144.15Y-54.05
X145.25Y-57.65
X145.4Y-110.15
X145.65Y-104.75
X145.65Y-108.45
X146.719Y-55.55
X147.05Y-47.05
X147.35Y-57.5
X147.45Y-51.95
X147.95Y-55.55
X148.15Y-47.05
X148.15Y-110.1
X149.25Y-47.05
X150.15Y-59.95
X151.75Y-59.95
X153.45Y-59.95
X155.05Y-58.05
X155.05Y-59.95
X155.95Y-53.75
X155.95Y-55.15
X157.55Y-64.05
X159.85Y-48.05
X159.85Y-49.35
X159.85Y-50.55
X159.85Y-51.85
X159.85Y-58.05
X159.85Y-59.95
X160.45Y-53.65
X160.65Y-46.45
X160.9Y-74.4
X161.75Y-67.65
X162.05Y-47.15
X162.15Y-59.95
X163.05Y-53.05
X163.25Y-51.35
X163.65Y-100.35
X163.9Y-68.15
X164.45Y-99.65
X164.55Y-70.45
X164.65Y-74.35
X165.05Y-52.45
X165.15Y-59.85
X165.15Y-64.3
X166.65Y-78.15
X167.25Y-120.45
X167.45Y-122.85
X171.25Y-77.95
X171.35Y-76.35
X171.55Y-122.95
X171.65Y-120.35
X171.65Y-121.35
X172.2Y-72.15
X175.25Y-58.85
X175.25Y-60.25
X175.25Y-61.75
X176.9Y-60.25
X177.05Y-73.75
X178.45Y-104.75
X178.45Y-108.65
X178.55Y-58.85
X178.55Y-60.25
X178.55Y-61.75
X182.05Y-73.65
X184.35Y-52.85
X184.7Y-58.95
X184.85Y-55.45
X187.2Y-91.35
X187.25Y-90.05
X188.95Y-80.55
X189.35Y-94.05
X189.65Y-86.45
X191.35Y-63.25
X191.35Y-68.75
X193.05Y-94.065
X193.1Y-76.3
X193.35Y-81.55
X195.05Y-63.25
X195.05Y-68.75
X195.65Y-87.85
X195.65Y-93.85
X196.35Y-80.55
T2
X126.95Y-61.15
X174.05Y-64.55
X174.05Y-67.95
X182.6Y-98.2
X184.45Y-60.2
X190.9Y-98.15
X191.45Y-60.2
X191.45Y-65.75
X194.7Y-60.25
X194.7Y-65.7
T3
X134.8Y-67.259
X134.8Y-69.859
X135.9Y-68.559
X137.2Y-69.859
X137.3Y-67.259
X143.75Y-76.416
X143.75Y-78.65
X145.05Y-77.55
X146.35Y-76.35
X146.35Y-78.75
X146.55Y-69.75
X146.65Y-67.15
X147.65Y-68.45
X148.95Y-67.15
X148.95Y-69.75
X152.55Y-76.45
X152.55Y-78.65
X153.85Y-77.55
X155.25Y-76.45
X155.25Y-78.609
T4
X109.65Y-69.85
X110.353Y-68.153
X110.353Y-71.547
X112.05Y-67.45
X112.05Y-72.25
X113.747Y-68.153
X113.747Y-71.547
X114.45Y-69.85
X133.25Y-129.95
X133.953Y-128.253
X133.953Y-131.647
X135.65Y-127.55
X135.65Y-132.35
X137.347Y-128.253
X137.347Y-131.647
X138.05Y-129.95
X167.75Y-130.05
X168.453Y-128.353
X168.453Y-131.747
X170.15Y-127.65
X170.15Y-132.45
X171.847Y-128.353
X171.847Y-131.747
X172.55Y-130.05
X191.75Y-55.15
X192.453Y-53.453
X192.453Y-56.847
X194.15Y-52.75
X194.15Y-57.55
X195.847Y-53.453
X195.847Y-56.847
X196.55Y-55.15
T6
X109.65Y-92.15
X110.15Y-114.15
X110.15Y-131.65
X110.65Y-47.15
X113.65Y-101.15
X115.65Y-108.15
X121.65Y-114.15
X122.65Y-76.15
X123.65Y-104.15
X123.65Y-132.15
X124.65Y-91.15
X125.55Y-47.45
X126.65Y-58.15
X126.65Y-112.15
X128.45Y-67.85
X128.65Y-80.15
X128.95Y-127.95
X129.65Y-96.15
X130.65Y-115.15
X132.15Y-53.65
X132.65Y-76.15
X132.65Y-90.15
X132.95Y-125.65
X135.65Y-62.15
X136.45Y-51.05
X138.65Y-84.15
X139.1Y-74.65
X140.15Y-94.15
X140.65Y-127.15
X141.35Y-58.95
X142.45Y-68.15
X142.65Y-100.15
X143.65Y-72.55
X143.65Y-132.15
X144.65Y-116.15
X145.15Y-94.15
X146.35Y-59.85
X147.65Y-84.15
X148.65Y-114.15
X149.1Y-72.65
X149.35Y-77.45
X150.15Y-94.15
X151.65Y-63.15
X151.65Y-107.15
X152.65Y-84.15
X152.95Y-68.25
X153.9Y-72.6
X155.15Y-94.15
X157.65Y-68.75
X157.65Y-84.15
X157.65Y-100.15
X158.35Y-72.95
X158.65Y-104.15
X159.05Y-77.45
X160.15Y-94.15
X160.65Y-114.15
X162.65Y-118.15
X162.95Y-127.65
X164.05Y-121.95
X167.65Y-84.15
X167.65Y-94.15
X172.65Y-84.15
X172.65Y-94.15
X174.35Y-122.35
X176.25Y-99.55
X176.85Y-128.15
X177.55Y-116.35
X177.65Y-84.15
X177.65Y-94.15
X181.25Y-132.15
X181.95Y-112.85
X182.65Y-84.15
X182.65Y-94.15
X187.65Y-108.15
X189.65Y-100.15
X194.45Y-112.75
X194.65Y-132.15
X195.55Y-117.25
X195.65Y-107.15
T7
X111.65Y-54.15
X111.65Y-84.65
X111.65Y-124.15
X113.45Y-49.75
X113.45Y-58.55
X113.45Y-80.25
X113.45Y-89.05
X113.45Y-119.75
X113.45Y-128.55
X117.65Y-48.15
X117.65Y-60.15
X117.65Y-78.65
X117.65Y-90.65
X117.65Y-118.15
X117.65Y-130.15
X121.85Y-49.75
X121.85Y-58.55
X121.85Y-80.25
X121.85Y-89.05
X121.85Y-119.75
X121.85Y-128.55
X123.65Y-54.15
X123.65Y-84.65
X123.65Y-124.15
X129.65Y-106.05
X131.45Y-101.65
X131.45Y-110.45
X135.65Y-100.05
X135.65Y-112.05
X139.85Y-101.65
X139.85Y-110.45
X141.65Y-106.05
X146.65Y-124.15
X148.45Y-119.75
X148.45Y-128.55
X152.65Y-118.15
X152.65Y-130.15
X156.85Y-119.75
X156.85Y-128.55
X158.65Y-124.15
X163.65Y-106.15
X165.45Y-101.75
X165.45Y-110.55
X169.65Y-100.15
X169.65Y-112.15
X173.85Y-101.75
X173.85Y-110.55
X175.65Y-106.15
X181.65Y-124.15
X183.45Y-119.75
X183.45Y-128.55
X187.65Y-118.15
X187.65Y-130.15
X191.85Y-119.75
X191.85Y-128.55
X193.65Y-124.15
T8
X112.05Y-69.85
X135.65Y-129.95
X170.15Y-130.05
X194.15Y-55.15
T9
X117.65Y-54.15
X117.65Y-84.65
X117.65Y-124.15
X135.65Y-106.05
X152.65Y-124.15
X169.65Y-106.15
X187.65Y-124.15
T5
G00X191.03Y-86.53
M15
G01X192.13Y-86.53
M16
G05
G00X191.03Y-95.17
M15
G01X192.13Y-95.17
M16
G05
G00X195.46Y-86.53
M15
G01X196.06Y-86.53
M16
G05
G00X195.46Y-95.17
M15
G01X196.06Y-95.17
M16
G05
T0
M30
