G04 #@! TF.GenerationSoftware,KiCad,Pcbnew,(6.0.0-rc1-314-g10be483430)*
G04 #@! TF.CreationDate,2021-12-09T18:26:49+11:00*
G04 #@! TF.ProjectId,esp32_battery_isolator,65737033-325f-4626-9174-746572795f69,G*
G04 #@! TF.SameCoordinates,Original*
G04 #@! TF.FileFunction,Soldermask,Bot*
G04 #@! TF.FilePolarity,Negative*
%FSLAX46Y46*%
G04 Gerber Fmt 4.6, Leading zero omitted, Abs format (unit mm)*
G04 Created by KiCad (PCBNEW (6.0.0-rc1-314-g10be483430)) date 2021-12-09 18:26:49*
%MOMM*%
%LPD*%
G01*
G04 APERTURE LIST*
%ADD10C,2.000000*%
%ADD11C,15.000000*%
%ADD12C,0.800000*%
%ADD13C,6.400000*%
%ADD14C,0.650000*%
%ADD15O,1.600000X1.000000*%
%ADD16O,2.100000X1.000000*%
G04 APERTURE END LIST*
D10*
X183450000Y-128550000D03*
X183450000Y-119750000D03*
X187650000Y-130150000D03*
X191850000Y-119750000D03*
X191850000Y-128550000D03*
X187650000Y-118150000D03*
D11*
X187650000Y-124150000D03*
D10*
X181650000Y-124150000D03*
X193650000Y-124150000D03*
D12*
X170150000Y-127650000D03*
X171847056Y-131747056D03*
X168452944Y-131747056D03*
X171847056Y-128352944D03*
X170150000Y-132450000D03*
X167750000Y-130050000D03*
D13*
X170150000Y-130050000D03*
D12*
X172550000Y-130050000D03*
X168452944Y-128352944D03*
D10*
X121850000Y-49750000D03*
X123650000Y-54150000D03*
X113450000Y-49750000D03*
X111650000Y-54150000D03*
X117650000Y-60150000D03*
X117650000Y-48150000D03*
X113450000Y-58550000D03*
X121850000Y-58550000D03*
D11*
X117650000Y-54150000D03*
D10*
X148450000Y-128550000D03*
X158650000Y-124150000D03*
X156850000Y-128550000D03*
X152650000Y-118150000D03*
X148450000Y-119750000D03*
X156850000Y-119750000D03*
X146650000Y-124150000D03*
X152650000Y-130150000D03*
D11*
X152650000Y-124150000D03*
D10*
X135650000Y-100050000D03*
X139850000Y-110450000D03*
X139850000Y-101650000D03*
X141650000Y-106050000D03*
X131450000Y-110450000D03*
X135650000Y-112050000D03*
X131450000Y-101650000D03*
D11*
X135650000Y-106050000D03*
D10*
X129650000Y-106050000D03*
D12*
X114450000Y-69850000D03*
X112050000Y-67450000D03*
D13*
X112050000Y-69850000D03*
D12*
X113747056Y-71547056D03*
X110352944Y-71547056D03*
X112050000Y-72250000D03*
X113747056Y-68152944D03*
X110352944Y-68152944D03*
X109650000Y-69850000D03*
D10*
X169650000Y-100150000D03*
X169650000Y-112150000D03*
X163650000Y-106150000D03*
X165450000Y-101750000D03*
D11*
X169650000Y-106150000D03*
D10*
X173850000Y-110550000D03*
X165450000Y-110550000D03*
X175650000Y-106150000D03*
X173850000Y-101750000D03*
D14*
X192110000Y-93740000D03*
X192110000Y-87960000D03*
D15*
X195760000Y-95170000D03*
D16*
X191580000Y-95170000D03*
X191580000Y-86530000D03*
D15*
X195760000Y-86530000D03*
D12*
X135650000Y-132350000D03*
X133952944Y-131647056D03*
X135650000Y-127550000D03*
X137347056Y-128252944D03*
D13*
X135650000Y-129950000D03*
D12*
X133952944Y-128252944D03*
X138050000Y-129950000D03*
X137347056Y-131647056D03*
X133250000Y-129950000D03*
D10*
X113450000Y-89050000D03*
X123650000Y-84650000D03*
X113450000Y-80250000D03*
X111650000Y-84650000D03*
D11*
X117650000Y-84650000D03*
D10*
X117650000Y-90650000D03*
X121850000Y-89050000D03*
X121850000Y-80250000D03*
X117650000Y-78650000D03*
D12*
X192452944Y-56847056D03*
X194150000Y-57550000D03*
X194150000Y-52750000D03*
X191750000Y-55150000D03*
D13*
X194150000Y-55150000D03*
D12*
X192452944Y-53452944D03*
X195847056Y-56847056D03*
X196550000Y-55150000D03*
X195847056Y-53452944D03*
D10*
X121850000Y-128550000D03*
X117650000Y-118150000D03*
X113450000Y-119750000D03*
X113450000Y-128550000D03*
X123650000Y-124150000D03*
X111650000Y-124150000D03*
D11*
X117650000Y-124150000D03*
D10*
X121850000Y-119750000D03*
X117650000Y-130150000D03*
M02*
