G04 #@! TF.GenerationSoftware,KiCad,Pcbnew,(5.1.7-0-10_14)*
G04 #@! TF.CreationDate,2021-03-13T08:57:52+11:00*
G04 #@! TF.ProjectId,esp32_battery_isolator,65737033-325f-4626-9174-746572795f69,D*
G04 #@! TF.SameCoordinates,Original*
G04 #@! TF.FileFunction,Soldermask,Top*
G04 #@! TF.FilePolarity,Negative*
%FSLAX46Y46*%
G04 Gerber Fmt 4.6, Leading zero omitted, Abs format (unit mm)*
G04 Created by KiCad (PCBNEW (5.1.7-0-10_14)) date 2021-03-13 08:57:52*
%MOMM*%
%LPD*%
G01*
G04 APERTURE LIST*
%ADD10R,1.400000X1.000000*%
%ADD11O,1.900000X1.070000*%
%ADD12R,1.350000X0.600000*%
%ADD13C,1.300000*%
%ADD14R,1.250000X0.400000*%
%ADD15C,0.800000*%
%ADD16C,6.400000*%
%ADD17R,1.800000X2.500000*%
%ADD18R,1.700000X1.700000*%
%ADD19O,1.700000X1.700000*%
%ADD20R,1.200000X2.200000*%
%ADD21R,5.800000X6.400000*%
%ADD22R,2.200000X1.200000*%
%ADD23R,6.400000X5.800000*%
%ADD24R,5.000000X5.000000*%
%ADD25R,2.000000X0.900000*%
%ADD26R,0.900000X2.000000*%
%ADD27R,3.716000X3.716000*%
%ADD28C,3.716000*%
%ADD29O,2.400000X1.200000*%
%ADD30O,1.300000X2.600000*%
%ADD31R,2.500000X2.300000*%
%ADD32R,0.900000X0.800000*%
%ADD33R,0.450000X0.600000*%
G04 APERTURE END LIST*
D10*
X146850000Y-107650000D03*
X140550000Y-107650000D03*
X140550000Y-104650000D03*
X146850000Y-104650000D03*
X155550000Y-107650000D03*
X149250000Y-107650000D03*
X149250000Y-104650000D03*
X155550000Y-104650000D03*
X164150000Y-107650000D03*
X157850000Y-107650000D03*
X157850000Y-104650000D03*
X164150000Y-104650000D03*
D11*
X174050000Y-112300000D03*
X173950000Y-119500000D03*
D12*
X173950000Y-115150000D03*
X173950000Y-116650000D03*
D13*
X171050000Y-113500000D03*
X171050000Y-118300000D03*
D14*
X171050000Y-114600000D03*
X171050000Y-115250000D03*
X171050000Y-115900000D03*
X171050000Y-116550000D03*
X171050000Y-117200000D03*
D15*
X112847056Y-129152944D03*
X111150000Y-128450000D03*
X109452944Y-129152944D03*
X108750000Y-130850000D03*
X109452944Y-132547056D03*
X111150000Y-133250000D03*
X112847056Y-132547056D03*
X113550000Y-130850000D03*
D16*
X111150000Y-130850000D03*
D15*
X173647056Y-76852944D03*
X171950000Y-76150000D03*
X170252944Y-76852944D03*
X169550000Y-78550000D03*
X170252944Y-80247056D03*
X171950000Y-80950000D03*
X173647056Y-80247056D03*
X174350000Y-78550000D03*
D16*
X171950000Y-78550000D03*
X171950000Y-130850000D03*
D15*
X174350000Y-130850000D03*
X173647056Y-132547056D03*
X171950000Y-133250000D03*
X170252944Y-132547056D03*
X169550000Y-130850000D03*
X170252944Y-129152944D03*
X171950000Y-128450000D03*
X173647056Y-129152944D03*
X112847056Y-76952944D03*
X111150000Y-76250000D03*
X109452944Y-76952944D03*
X108750000Y-78650000D03*
X109452944Y-80347056D03*
X111150000Y-81050000D03*
X112847056Y-80347056D03*
X113550000Y-78650000D03*
D16*
X111150000Y-78650000D03*
G36*
G01*
X130200000Y-88475000D02*
X130700000Y-88475000D01*
G75*
G02*
X130925000Y-88700000I0J-225000D01*
G01*
X130925000Y-89150000D01*
G75*
G02*
X130700000Y-89375000I-225000J0D01*
G01*
X130200000Y-89375000D01*
G75*
G02*
X129975000Y-89150000I0J225000D01*
G01*
X129975000Y-88700000D01*
G75*
G02*
X130200000Y-88475000I225000J0D01*
G01*
G37*
G36*
G01*
X130200000Y-86925000D02*
X130700000Y-86925000D01*
G75*
G02*
X130925000Y-87150000I0J-225000D01*
G01*
X130925000Y-87600000D01*
G75*
G02*
X130700000Y-87825000I-225000J0D01*
G01*
X130200000Y-87825000D01*
G75*
G02*
X129975000Y-87600000I0J225000D01*
G01*
X129975000Y-87150000D01*
G75*
G02*
X130200000Y-86925000I225000J0D01*
G01*
G37*
G36*
G01*
X114800000Y-126125000D02*
X115300000Y-126125000D01*
G75*
G02*
X115525000Y-126350000I0J-225000D01*
G01*
X115525000Y-126800000D01*
G75*
G02*
X115300000Y-127025000I-225000J0D01*
G01*
X114800000Y-127025000D01*
G75*
G02*
X114575000Y-126800000I0J225000D01*
G01*
X114575000Y-126350000D01*
G75*
G02*
X114800000Y-126125000I225000J0D01*
G01*
G37*
G36*
G01*
X114800000Y-127675000D02*
X115300000Y-127675000D01*
G75*
G02*
X115525000Y-127900000I0J-225000D01*
G01*
X115525000Y-128350000D01*
G75*
G02*
X115300000Y-128575000I-225000J0D01*
G01*
X114800000Y-128575000D01*
G75*
G02*
X114575000Y-128350000I0J225000D01*
G01*
X114575000Y-127900000D01*
G75*
G02*
X114800000Y-127675000I225000J0D01*
G01*
G37*
G36*
G01*
X118125000Y-119675003D02*
X118125000Y-117824997D01*
G75*
G02*
X118374997Y-117575000I249997J0D01*
G01*
X119200003Y-117575000D01*
G75*
G02*
X119450000Y-117824997I0J-249997D01*
G01*
X119450000Y-119675003D01*
G75*
G02*
X119200003Y-119925000I-249997J0D01*
G01*
X118374997Y-119925000D01*
G75*
G02*
X118125000Y-119675003I0J249997D01*
G01*
G37*
G36*
G01*
X115050000Y-119675003D02*
X115050000Y-117824997D01*
G75*
G02*
X115299997Y-117575000I249997J0D01*
G01*
X116125003Y-117575000D01*
G75*
G02*
X116375000Y-117824997I0J-249997D01*
G01*
X116375000Y-119675003D01*
G75*
G02*
X116125003Y-119925000I-249997J0D01*
G01*
X115299997Y-119925000D01*
G75*
G02*
X115050000Y-119675003I0J249997D01*
G01*
G37*
G36*
G01*
X156724997Y-80350000D02*
X158575003Y-80350000D01*
G75*
G02*
X158825000Y-80599997I0J-249997D01*
G01*
X158825000Y-81425003D01*
G75*
G02*
X158575003Y-81675000I-249997J0D01*
G01*
X156724997Y-81675000D01*
G75*
G02*
X156475000Y-81425003I0J249997D01*
G01*
X156475000Y-80599997D01*
G75*
G02*
X156724997Y-80350000I249997J0D01*
G01*
G37*
G36*
G01*
X156724997Y-83425000D02*
X158575003Y-83425000D01*
G75*
G02*
X158825000Y-83674997I0J-249997D01*
G01*
X158825000Y-84500003D01*
G75*
G02*
X158575003Y-84750000I-249997J0D01*
G01*
X156724997Y-84750000D01*
G75*
G02*
X156475000Y-84500003I0J249997D01*
G01*
X156475000Y-83674997D01*
G75*
G02*
X156724997Y-83425000I249997J0D01*
G01*
G37*
G36*
G01*
X161175000Y-80000000D02*
X161175000Y-79500000D01*
G75*
G02*
X161400000Y-79275000I225000J0D01*
G01*
X161850000Y-79275000D01*
G75*
G02*
X162075000Y-79500000I0J-225000D01*
G01*
X162075000Y-80000000D01*
G75*
G02*
X161850000Y-80225000I-225000J0D01*
G01*
X161400000Y-80225000D01*
G75*
G02*
X161175000Y-80000000I0J225000D01*
G01*
G37*
G36*
G01*
X159625000Y-80000000D02*
X159625000Y-79500000D01*
G75*
G02*
X159850000Y-79275000I225000J0D01*
G01*
X160300000Y-79275000D01*
G75*
G02*
X160525000Y-79500000I0J-225000D01*
G01*
X160525000Y-80000000D01*
G75*
G02*
X160300000Y-80225000I-225000J0D01*
G01*
X159850000Y-80225000D01*
G75*
G02*
X159625000Y-80000000I0J225000D01*
G01*
G37*
G36*
G01*
X163025000Y-80000000D02*
X163025000Y-79500000D01*
G75*
G02*
X163250000Y-79275000I225000J0D01*
G01*
X163700000Y-79275000D01*
G75*
G02*
X163925000Y-79500000I0J-225000D01*
G01*
X163925000Y-80000000D01*
G75*
G02*
X163700000Y-80225000I-225000J0D01*
G01*
X163250000Y-80225000D01*
G75*
G02*
X163025000Y-80000000I0J225000D01*
G01*
G37*
G36*
G01*
X164575000Y-80000000D02*
X164575000Y-79500000D01*
G75*
G02*
X164800000Y-79275000I225000J0D01*
G01*
X165250000Y-79275000D01*
G75*
G02*
X165475000Y-79500000I0J-225000D01*
G01*
X165475000Y-80000000D01*
G75*
G02*
X165250000Y-80225000I-225000J0D01*
G01*
X164800000Y-80225000D01*
G75*
G02*
X164575000Y-80000000I0J225000D01*
G01*
G37*
G36*
G01*
X158775000Y-87024997D02*
X158775000Y-88875003D01*
G75*
G02*
X158525003Y-89125000I-249997J0D01*
G01*
X157699997Y-89125000D01*
G75*
G02*
X157450000Y-88875003I0J249997D01*
G01*
X157450000Y-87024997D01*
G75*
G02*
X157699997Y-86775000I249997J0D01*
G01*
X158525003Y-86775000D01*
G75*
G02*
X158775000Y-87024997I0J-249997D01*
G01*
G37*
G36*
G01*
X161850000Y-87024997D02*
X161850000Y-88875003D01*
G75*
G02*
X161600003Y-89125000I-249997J0D01*
G01*
X160774997Y-89125000D01*
G75*
G02*
X160525000Y-88875003I0J249997D01*
G01*
X160525000Y-87024997D01*
G75*
G02*
X160774997Y-86775000I249997J0D01*
G01*
X161600003Y-86775000D01*
G75*
G02*
X161850000Y-87024997I0J-249997D01*
G01*
G37*
G36*
G01*
X174375000Y-103900000D02*
X174375000Y-104400000D01*
G75*
G02*
X174150000Y-104625000I-225000J0D01*
G01*
X173700000Y-104625000D01*
G75*
G02*
X173475000Y-104400000I0J225000D01*
G01*
X173475000Y-103900000D01*
G75*
G02*
X173700000Y-103675000I225000J0D01*
G01*
X174150000Y-103675000D01*
G75*
G02*
X174375000Y-103900000I0J-225000D01*
G01*
G37*
G36*
G01*
X172825000Y-103900000D02*
X172825000Y-104400000D01*
G75*
G02*
X172600000Y-104625000I-225000J0D01*
G01*
X172150000Y-104625000D01*
G75*
G02*
X171925000Y-104400000I0J225000D01*
G01*
X171925000Y-103900000D01*
G75*
G02*
X172150000Y-103675000I225000J0D01*
G01*
X172600000Y-103675000D01*
G75*
G02*
X172825000Y-103900000I0J-225000D01*
G01*
G37*
G36*
G01*
X171325000Y-110900000D02*
X171325000Y-111400000D01*
G75*
G02*
X171100000Y-111625000I-225000J0D01*
G01*
X170650000Y-111625000D01*
G75*
G02*
X170425000Y-111400000I0J225000D01*
G01*
X170425000Y-110900000D01*
G75*
G02*
X170650000Y-110675000I225000J0D01*
G01*
X171100000Y-110675000D01*
G75*
G02*
X171325000Y-110900000I0J-225000D01*
G01*
G37*
G36*
G01*
X172875000Y-110900000D02*
X172875000Y-111400000D01*
G75*
G02*
X172650000Y-111625000I-225000J0D01*
G01*
X172200000Y-111625000D01*
G75*
G02*
X171975000Y-111400000I0J225000D01*
G01*
X171975000Y-110900000D01*
G75*
G02*
X172200000Y-110675000I225000J0D01*
G01*
X172650000Y-110675000D01*
G75*
G02*
X172875000Y-110900000I0J-225000D01*
G01*
G37*
G36*
G01*
X126850000Y-77024997D02*
X126850000Y-78875003D01*
G75*
G02*
X126600003Y-79125000I-249997J0D01*
G01*
X125774997Y-79125000D01*
G75*
G02*
X125525000Y-78875003I0J249997D01*
G01*
X125525000Y-77024997D01*
G75*
G02*
X125774997Y-76775000I249997J0D01*
G01*
X126600003Y-76775000D01*
G75*
G02*
X126850000Y-77024997I0J-249997D01*
G01*
G37*
G36*
G01*
X123775000Y-77024997D02*
X123775000Y-78875003D01*
G75*
G02*
X123525003Y-79125000I-249997J0D01*
G01*
X122699997Y-79125000D01*
G75*
G02*
X122450000Y-78875003I0J249997D01*
G01*
X122450000Y-77024997D01*
G75*
G02*
X122699997Y-76775000I249997J0D01*
G01*
X123525003Y-76775000D01*
G75*
G02*
X123775000Y-77024997I0J-249997D01*
G01*
G37*
G36*
G01*
X129700000Y-83175000D02*
X129200000Y-83175000D01*
G75*
G02*
X128975000Y-82950000I0J225000D01*
G01*
X128975000Y-82500000D01*
G75*
G02*
X129200000Y-82275000I225000J0D01*
G01*
X129700000Y-82275000D01*
G75*
G02*
X129925000Y-82500000I0J-225000D01*
G01*
X129925000Y-82950000D01*
G75*
G02*
X129700000Y-83175000I-225000J0D01*
G01*
G37*
G36*
G01*
X129700000Y-81625000D02*
X129200000Y-81625000D01*
G75*
G02*
X128975000Y-81400000I0J225000D01*
G01*
X128975000Y-80950000D01*
G75*
G02*
X129200000Y-80725000I225000J0D01*
G01*
X129700000Y-80725000D01*
G75*
G02*
X129925000Y-80950000I0J-225000D01*
G01*
X129925000Y-81400000D01*
G75*
G02*
X129700000Y-81625000I-225000J0D01*
G01*
G37*
G36*
G01*
X157275000Y-91893750D02*
X157275000Y-92406250D01*
G75*
G02*
X157056250Y-92625000I-218750J0D01*
G01*
X156618750Y-92625000D01*
G75*
G02*
X156400000Y-92406250I0J218750D01*
G01*
X156400000Y-91893750D01*
G75*
G02*
X156618750Y-91675000I218750J0D01*
G01*
X157056250Y-91675000D01*
G75*
G02*
X157275000Y-91893750I0J-218750D01*
G01*
G37*
G36*
G01*
X155700000Y-91893750D02*
X155700000Y-92406250D01*
G75*
G02*
X155481250Y-92625000I-218750J0D01*
G01*
X155043750Y-92625000D01*
G75*
G02*
X154825000Y-92406250I0J218750D01*
G01*
X154825000Y-91893750D01*
G75*
G02*
X155043750Y-91675000I218750J0D01*
G01*
X155481250Y-91675000D01*
G75*
G02*
X155700000Y-91893750I0J-218750D01*
G01*
G37*
D17*
X170150000Y-125400000D03*
X170150000Y-121400000D03*
G36*
G01*
X157275000Y-94293750D02*
X157275000Y-94806250D01*
G75*
G02*
X157056250Y-95025000I-218750J0D01*
G01*
X156618750Y-95025000D01*
G75*
G02*
X156400000Y-94806250I0J218750D01*
G01*
X156400000Y-94293750D01*
G75*
G02*
X156618750Y-94075000I218750J0D01*
G01*
X157056250Y-94075000D01*
G75*
G02*
X157275000Y-94293750I0J-218750D01*
G01*
G37*
G36*
G01*
X155700000Y-94293750D02*
X155700000Y-94806250D01*
G75*
G02*
X155481250Y-95025000I-218750J0D01*
G01*
X155043750Y-95025000D01*
G75*
G02*
X154825000Y-94806250I0J218750D01*
G01*
X154825000Y-94293750D01*
G75*
G02*
X155043750Y-94075000I218750J0D01*
G01*
X155481250Y-94075000D01*
G75*
G02*
X155700000Y-94293750I0J-218750D01*
G01*
G37*
G36*
G01*
X155700000Y-96693750D02*
X155700000Y-97206250D01*
G75*
G02*
X155481250Y-97425000I-218750J0D01*
G01*
X155043750Y-97425000D01*
G75*
G02*
X154825000Y-97206250I0J218750D01*
G01*
X154825000Y-96693750D01*
G75*
G02*
X155043750Y-96475000I218750J0D01*
G01*
X155481250Y-96475000D01*
G75*
G02*
X155700000Y-96693750I0J-218750D01*
G01*
G37*
G36*
G01*
X157275000Y-96693750D02*
X157275000Y-97206250D01*
G75*
G02*
X157056250Y-97425000I-218750J0D01*
G01*
X156618750Y-97425000D01*
G75*
G02*
X156400000Y-97206250I0J218750D01*
G01*
X156400000Y-96693750D01*
G75*
G02*
X156618750Y-96475000I218750J0D01*
G01*
X157056250Y-96475000D01*
G75*
G02*
X157275000Y-96693750I0J-218750D01*
G01*
G37*
D18*
X161050000Y-92450000D03*
D19*
X161050000Y-94990000D03*
X161050000Y-97530000D03*
X161050000Y-100070000D03*
D20*
X132930000Y-110450000D03*
X128370000Y-110450000D03*
D21*
X130650000Y-116750000D03*
X125650000Y-87750000D03*
D20*
X123370000Y-81450000D03*
X127930000Y-81450000D03*
D22*
X130950000Y-105930000D03*
X130950000Y-101370000D03*
D23*
X124650000Y-103650000D03*
D20*
X150930000Y-110450000D03*
X146370000Y-110450000D03*
D21*
X148650000Y-116750000D03*
X164150000Y-116750000D03*
D20*
X161870000Y-110450000D03*
X166430000Y-110450000D03*
G36*
G01*
X130175000Y-85575000D02*
X130725000Y-85575000D01*
G75*
G02*
X130925000Y-85775000I0J-200000D01*
G01*
X130925000Y-86175000D01*
G75*
G02*
X130725000Y-86375000I-200000J0D01*
G01*
X130175000Y-86375000D01*
G75*
G02*
X129975000Y-86175000I0J200000D01*
G01*
X129975000Y-85775000D01*
G75*
G02*
X130175000Y-85575000I200000J0D01*
G01*
G37*
G36*
G01*
X130175000Y-83925000D02*
X130725000Y-83925000D01*
G75*
G02*
X130925000Y-84125000I0J-200000D01*
G01*
X130925000Y-84525000D01*
G75*
G02*
X130725000Y-84725000I-200000J0D01*
G01*
X130175000Y-84725000D01*
G75*
G02*
X129975000Y-84525000I0J200000D01*
G01*
X129975000Y-84125000D01*
G75*
G02*
X130175000Y-83925000I200000J0D01*
G01*
G37*
G36*
G01*
X158575000Y-99975000D02*
X159125000Y-99975000D01*
G75*
G02*
X159325000Y-100175000I0J-200000D01*
G01*
X159325000Y-100575000D01*
G75*
G02*
X159125000Y-100775000I-200000J0D01*
G01*
X158575000Y-100775000D01*
G75*
G02*
X158375000Y-100575000I0J200000D01*
G01*
X158375000Y-100175000D01*
G75*
G02*
X158575000Y-99975000I200000J0D01*
G01*
G37*
G36*
G01*
X158575000Y-98325000D02*
X159125000Y-98325000D01*
G75*
G02*
X159325000Y-98525000I0J-200000D01*
G01*
X159325000Y-98925000D01*
G75*
G02*
X159125000Y-99125000I-200000J0D01*
G01*
X158575000Y-99125000D01*
G75*
G02*
X158375000Y-98925000I0J200000D01*
G01*
X158375000Y-98525000D01*
G75*
G02*
X158575000Y-98325000I200000J0D01*
G01*
G37*
G36*
G01*
X156975000Y-98325000D02*
X157525000Y-98325000D01*
G75*
G02*
X157725000Y-98525000I0J-200000D01*
G01*
X157725000Y-98925000D01*
G75*
G02*
X157525000Y-99125000I-200000J0D01*
G01*
X156975000Y-99125000D01*
G75*
G02*
X156775000Y-98925000I0J200000D01*
G01*
X156775000Y-98525000D01*
G75*
G02*
X156975000Y-98325000I200000J0D01*
G01*
G37*
G36*
G01*
X156975000Y-99975000D02*
X157525000Y-99975000D01*
G75*
G02*
X157725000Y-100175000I0J-200000D01*
G01*
X157725000Y-100575000D01*
G75*
G02*
X157525000Y-100775000I-200000J0D01*
G01*
X156975000Y-100775000D01*
G75*
G02*
X156775000Y-100575000I0J200000D01*
G01*
X156775000Y-100175000D01*
G75*
G02*
X156975000Y-99975000I200000J0D01*
G01*
G37*
G36*
G01*
X139295000Y-101575000D02*
X139295000Y-102125000D01*
G75*
G02*
X139095000Y-102325000I-200000J0D01*
G01*
X138695000Y-102325000D01*
G75*
G02*
X138495000Y-102125000I0J200000D01*
G01*
X138495000Y-101575000D01*
G75*
G02*
X138695000Y-101375000I200000J0D01*
G01*
X139095000Y-101375000D01*
G75*
G02*
X139295000Y-101575000I0J-200000D01*
G01*
G37*
G36*
G01*
X140945000Y-101575000D02*
X140945000Y-102125000D01*
G75*
G02*
X140745000Y-102325000I-200000J0D01*
G01*
X140345000Y-102325000D01*
G75*
G02*
X140145000Y-102125000I0J200000D01*
G01*
X140145000Y-101575000D01*
G75*
G02*
X140345000Y-101375000I200000J0D01*
G01*
X140745000Y-101375000D01*
G75*
G02*
X140945000Y-101575000I0J-200000D01*
G01*
G37*
G36*
G01*
X155375000Y-98325000D02*
X155925000Y-98325000D01*
G75*
G02*
X156125000Y-98525000I0J-200000D01*
G01*
X156125000Y-98925000D01*
G75*
G02*
X155925000Y-99125000I-200000J0D01*
G01*
X155375000Y-99125000D01*
G75*
G02*
X155175000Y-98925000I0J200000D01*
G01*
X155175000Y-98525000D01*
G75*
G02*
X155375000Y-98325000I200000J0D01*
G01*
G37*
G36*
G01*
X155375000Y-99975000D02*
X155925000Y-99975000D01*
G75*
G02*
X156125000Y-100175000I0J-200000D01*
G01*
X156125000Y-100575000D01*
G75*
G02*
X155925000Y-100775000I-200000J0D01*
G01*
X155375000Y-100775000D01*
G75*
G02*
X155175000Y-100575000I0J200000D01*
G01*
X155175000Y-100175000D01*
G75*
G02*
X155375000Y-99975000I200000J0D01*
G01*
G37*
G36*
G01*
X155525000Y-83525000D02*
X154975000Y-83525000D01*
G75*
G02*
X154775000Y-83325000I0J200000D01*
G01*
X154775000Y-82925000D01*
G75*
G02*
X154975000Y-82725000I200000J0D01*
G01*
X155525000Y-82725000D01*
G75*
G02*
X155725000Y-82925000I0J-200000D01*
G01*
X155725000Y-83325000D01*
G75*
G02*
X155525000Y-83525000I-200000J0D01*
G01*
G37*
G36*
G01*
X155525000Y-85175000D02*
X154975000Y-85175000D01*
G75*
G02*
X154775000Y-84975000I0J200000D01*
G01*
X154775000Y-84575000D01*
G75*
G02*
X154975000Y-84375000I200000J0D01*
G01*
X155525000Y-84375000D01*
G75*
G02*
X155725000Y-84575000I0J-200000D01*
G01*
X155725000Y-84975000D01*
G75*
G02*
X155525000Y-85175000I-200000J0D01*
G01*
G37*
G36*
G01*
X153925000Y-85175000D02*
X153375000Y-85175000D01*
G75*
G02*
X153175000Y-84975000I0J200000D01*
G01*
X153175000Y-84575000D01*
G75*
G02*
X153375000Y-84375000I200000J0D01*
G01*
X153925000Y-84375000D01*
G75*
G02*
X154125000Y-84575000I0J-200000D01*
G01*
X154125000Y-84975000D01*
G75*
G02*
X153925000Y-85175000I-200000J0D01*
G01*
G37*
G36*
G01*
X153925000Y-83525000D02*
X153375000Y-83525000D01*
G75*
G02*
X153175000Y-83325000I0J200000D01*
G01*
X153175000Y-82925000D01*
G75*
G02*
X153375000Y-82725000I200000J0D01*
G01*
X153925000Y-82725000D01*
G75*
G02*
X154125000Y-82925000I0J-200000D01*
G01*
X154125000Y-83325000D01*
G75*
G02*
X153925000Y-83525000I-200000J0D01*
G01*
G37*
G36*
G01*
X148225000Y-102025000D02*
X148225000Y-101475000D01*
G75*
G02*
X148425000Y-101275000I200000J0D01*
G01*
X148825000Y-101275000D01*
G75*
G02*
X149025000Y-101475000I0J-200000D01*
G01*
X149025000Y-102025000D01*
G75*
G02*
X148825000Y-102225000I-200000J0D01*
G01*
X148425000Y-102225000D01*
G75*
G02*
X148225000Y-102025000I0J200000D01*
G01*
G37*
G36*
G01*
X149875000Y-102025000D02*
X149875000Y-101475000D01*
G75*
G02*
X150075000Y-101275000I200000J0D01*
G01*
X150475000Y-101275000D01*
G75*
G02*
X150675000Y-101475000I0J-200000D01*
G01*
X150675000Y-102025000D01*
G75*
G02*
X150475000Y-102225000I-200000J0D01*
G01*
X150075000Y-102225000D01*
G75*
G02*
X149875000Y-102025000I0J200000D01*
G01*
G37*
G36*
G01*
X165295000Y-105375000D02*
X165845000Y-105375000D01*
G75*
G02*
X166045000Y-105575000I0J-200000D01*
G01*
X166045000Y-105975000D01*
G75*
G02*
X165845000Y-106175000I-200000J0D01*
G01*
X165295000Y-106175000D01*
G75*
G02*
X165095000Y-105975000I0J200000D01*
G01*
X165095000Y-105575000D01*
G75*
G02*
X165295000Y-105375000I200000J0D01*
G01*
G37*
G36*
G01*
X165295000Y-103725000D02*
X165845000Y-103725000D01*
G75*
G02*
X166045000Y-103925000I0J-200000D01*
G01*
X166045000Y-104325000D01*
G75*
G02*
X165845000Y-104525000I-200000J0D01*
G01*
X165295000Y-104525000D01*
G75*
G02*
X165095000Y-104325000I0J200000D01*
G01*
X165095000Y-103925000D01*
G75*
G02*
X165295000Y-103725000I200000J0D01*
G01*
G37*
G36*
G01*
X117245000Y-77075000D02*
X117245000Y-77625000D01*
G75*
G02*
X117045000Y-77825000I-200000J0D01*
G01*
X116645000Y-77825000D01*
G75*
G02*
X116445000Y-77625000I0J200000D01*
G01*
X116445000Y-77075000D01*
G75*
G02*
X116645000Y-76875000I200000J0D01*
G01*
X117045000Y-76875000D01*
G75*
G02*
X117245000Y-77075000I0J-200000D01*
G01*
G37*
G36*
G01*
X115595000Y-77075000D02*
X115595000Y-77625000D01*
G75*
G02*
X115395000Y-77825000I-200000J0D01*
G01*
X114995000Y-77825000D01*
G75*
G02*
X114795000Y-77625000I0J200000D01*
G01*
X114795000Y-77075000D01*
G75*
G02*
X114995000Y-76875000I200000J0D01*
G01*
X115395000Y-76875000D01*
G75*
G02*
X115595000Y-77075000I0J-200000D01*
G01*
G37*
G36*
G01*
X116415000Y-76195000D02*
X116415000Y-75645000D01*
G75*
G02*
X116615000Y-75445000I200000J0D01*
G01*
X117015000Y-75445000D01*
G75*
G02*
X117215000Y-75645000I0J-200000D01*
G01*
X117215000Y-76195000D01*
G75*
G02*
X117015000Y-76395000I-200000J0D01*
G01*
X116615000Y-76395000D01*
G75*
G02*
X116415000Y-76195000I0J200000D01*
G01*
G37*
G36*
G01*
X114765000Y-76195000D02*
X114765000Y-75645000D01*
G75*
G02*
X114965000Y-75445000I200000J0D01*
G01*
X115365000Y-75445000D01*
G75*
G02*
X115565000Y-75645000I0J-200000D01*
G01*
X115565000Y-76195000D01*
G75*
G02*
X115365000Y-76395000I-200000J0D01*
G01*
X114965000Y-76395000D01*
G75*
G02*
X114765000Y-76195000I0J200000D01*
G01*
G37*
G36*
G01*
X172225000Y-122225000D02*
X172225000Y-121675000D01*
G75*
G02*
X172425000Y-121475000I200000J0D01*
G01*
X172825000Y-121475000D01*
G75*
G02*
X173025000Y-121675000I0J-200000D01*
G01*
X173025000Y-122225000D01*
G75*
G02*
X172825000Y-122425000I-200000J0D01*
G01*
X172425000Y-122425000D01*
G75*
G02*
X172225000Y-122225000I0J200000D01*
G01*
G37*
G36*
G01*
X173875000Y-122225000D02*
X173875000Y-121675000D01*
G75*
G02*
X174075000Y-121475000I200000J0D01*
G01*
X174475000Y-121475000D01*
G75*
G02*
X174675000Y-121675000I0J-200000D01*
G01*
X174675000Y-122225000D01*
G75*
G02*
X174475000Y-122425000I-200000J0D01*
G01*
X174075000Y-122425000D01*
G75*
G02*
X173875000Y-122225000I0J200000D01*
G01*
G37*
G36*
G01*
X173025000Y-123275000D02*
X173025000Y-123825000D01*
G75*
G02*
X172825000Y-124025000I-200000J0D01*
G01*
X172425000Y-124025000D01*
G75*
G02*
X172225000Y-123825000I0J200000D01*
G01*
X172225000Y-123275000D01*
G75*
G02*
X172425000Y-123075000I200000J0D01*
G01*
X172825000Y-123075000D01*
G75*
G02*
X173025000Y-123275000I0J-200000D01*
G01*
G37*
G36*
G01*
X174675000Y-123275000D02*
X174675000Y-123825000D01*
G75*
G02*
X174475000Y-124025000I-200000J0D01*
G01*
X174075000Y-124025000D01*
G75*
G02*
X173875000Y-123825000I0J200000D01*
G01*
X173875000Y-123275000D01*
G75*
G02*
X174075000Y-123075000I200000J0D01*
G01*
X174475000Y-123075000D01*
G75*
G02*
X174675000Y-123275000I0J-200000D01*
G01*
G37*
G36*
G01*
X126075000Y-81625000D02*
X126075000Y-81075000D01*
G75*
G02*
X126275000Y-80875000I200000J0D01*
G01*
X126675000Y-80875000D01*
G75*
G02*
X126875000Y-81075000I0J-200000D01*
G01*
X126875000Y-81625000D01*
G75*
G02*
X126675000Y-81825000I-200000J0D01*
G01*
X126275000Y-81825000D01*
G75*
G02*
X126075000Y-81625000I0J200000D01*
G01*
G37*
G36*
G01*
X124425000Y-81625000D02*
X124425000Y-81075000D01*
G75*
G02*
X124625000Y-80875000I200000J0D01*
G01*
X125025000Y-80875000D01*
G75*
G02*
X125225000Y-81075000I0J-200000D01*
G01*
X125225000Y-81625000D01*
G75*
G02*
X125025000Y-81825000I-200000J0D01*
G01*
X124625000Y-81825000D01*
G75*
G02*
X124425000Y-81625000I0J200000D01*
G01*
G37*
G36*
G01*
X129425000Y-108425000D02*
X129425000Y-107875000D01*
G75*
G02*
X129625000Y-107675000I200000J0D01*
G01*
X130025000Y-107675000D01*
G75*
G02*
X130225000Y-107875000I0J-200000D01*
G01*
X130225000Y-108425000D01*
G75*
G02*
X130025000Y-108625000I-200000J0D01*
G01*
X129625000Y-108625000D01*
G75*
G02*
X129425000Y-108425000I0J200000D01*
G01*
G37*
G36*
G01*
X131075000Y-108425000D02*
X131075000Y-107875000D01*
G75*
G02*
X131275000Y-107675000I200000J0D01*
G01*
X131675000Y-107675000D01*
G75*
G02*
X131875000Y-107875000I0J-200000D01*
G01*
X131875000Y-108425000D01*
G75*
G02*
X131675000Y-108625000I-200000J0D01*
G01*
X131275000Y-108625000D01*
G75*
G02*
X131075000Y-108425000I0J200000D01*
G01*
G37*
G36*
G01*
X131075000Y-110625000D02*
X131075000Y-110075000D01*
G75*
G02*
X131275000Y-109875000I200000J0D01*
G01*
X131675000Y-109875000D01*
G75*
G02*
X131875000Y-110075000I0J-200000D01*
G01*
X131875000Y-110625000D01*
G75*
G02*
X131675000Y-110825000I-200000J0D01*
G01*
X131275000Y-110825000D01*
G75*
G02*
X131075000Y-110625000I0J200000D01*
G01*
G37*
G36*
G01*
X129425000Y-110625000D02*
X129425000Y-110075000D01*
G75*
G02*
X129625000Y-109875000I200000J0D01*
G01*
X130025000Y-109875000D01*
G75*
G02*
X130225000Y-110075000I0J-200000D01*
G01*
X130225000Y-110625000D01*
G75*
G02*
X130025000Y-110825000I-200000J0D01*
G01*
X129625000Y-110825000D01*
G75*
G02*
X129425000Y-110625000I0J200000D01*
G01*
G37*
G36*
G01*
X147425000Y-110825000D02*
X147425000Y-110275000D01*
G75*
G02*
X147625000Y-110075000I200000J0D01*
G01*
X148025000Y-110075000D01*
G75*
G02*
X148225000Y-110275000I0J-200000D01*
G01*
X148225000Y-110825000D01*
G75*
G02*
X148025000Y-111025000I-200000J0D01*
G01*
X147625000Y-111025000D01*
G75*
G02*
X147425000Y-110825000I0J200000D01*
G01*
G37*
G36*
G01*
X149075000Y-110825000D02*
X149075000Y-110275000D01*
G75*
G02*
X149275000Y-110075000I200000J0D01*
G01*
X149675000Y-110075000D01*
G75*
G02*
X149875000Y-110275000I0J-200000D01*
G01*
X149875000Y-110825000D01*
G75*
G02*
X149675000Y-111025000I-200000J0D01*
G01*
X149275000Y-111025000D01*
G75*
G02*
X149075000Y-110825000I0J200000D01*
G01*
G37*
G36*
G01*
X169425000Y-84025000D02*
X169425000Y-83475000D01*
G75*
G02*
X169625000Y-83275000I200000J0D01*
G01*
X170025000Y-83275000D01*
G75*
G02*
X170225000Y-83475000I0J-200000D01*
G01*
X170225000Y-84025000D01*
G75*
G02*
X170025000Y-84225000I-200000J0D01*
G01*
X169625000Y-84225000D01*
G75*
G02*
X169425000Y-84025000I0J200000D01*
G01*
G37*
G36*
G01*
X171075000Y-84025000D02*
X171075000Y-83475000D01*
G75*
G02*
X171275000Y-83275000I200000J0D01*
G01*
X171675000Y-83275000D01*
G75*
G02*
X171875000Y-83475000I0J-200000D01*
G01*
X171875000Y-84025000D01*
G75*
G02*
X171675000Y-84225000I-200000J0D01*
G01*
X171275000Y-84225000D01*
G75*
G02*
X171075000Y-84025000I0J200000D01*
G01*
G37*
G36*
G01*
X173875000Y-84025000D02*
X173875000Y-83475000D01*
G75*
G02*
X174075000Y-83275000I200000J0D01*
G01*
X174475000Y-83275000D01*
G75*
G02*
X174675000Y-83475000I0J-200000D01*
G01*
X174675000Y-84025000D01*
G75*
G02*
X174475000Y-84225000I-200000J0D01*
G01*
X174075000Y-84225000D01*
G75*
G02*
X173875000Y-84025000I0J200000D01*
G01*
G37*
G36*
G01*
X172225000Y-84025000D02*
X172225000Y-83475000D01*
G75*
G02*
X172425000Y-83275000I200000J0D01*
G01*
X172825000Y-83275000D01*
G75*
G02*
X173025000Y-83475000I0J-200000D01*
G01*
X173025000Y-84025000D01*
G75*
G02*
X172825000Y-84225000I-200000J0D01*
G01*
X172425000Y-84225000D01*
G75*
G02*
X172225000Y-84025000I0J200000D01*
G01*
G37*
G36*
G01*
X164425000Y-110025000D02*
X163875000Y-110025000D01*
G75*
G02*
X163675000Y-109825000I0J200000D01*
G01*
X163675000Y-109425000D01*
G75*
G02*
X163875000Y-109225000I200000J0D01*
G01*
X164425000Y-109225000D01*
G75*
G02*
X164625000Y-109425000I0J-200000D01*
G01*
X164625000Y-109825000D01*
G75*
G02*
X164425000Y-110025000I-200000J0D01*
G01*
G37*
G36*
G01*
X164425000Y-111675000D02*
X163875000Y-111675000D01*
G75*
G02*
X163675000Y-111475000I0J200000D01*
G01*
X163675000Y-111075000D01*
G75*
G02*
X163875000Y-110875000I200000J0D01*
G01*
X164425000Y-110875000D01*
G75*
G02*
X164625000Y-111075000I0J-200000D01*
G01*
X164625000Y-111475000D01*
G75*
G02*
X164425000Y-111675000I-200000J0D01*
G01*
G37*
G36*
G01*
X129975000Y-93725000D02*
X130525000Y-93725000D01*
G75*
G02*
X130725000Y-93925000I0J-200000D01*
G01*
X130725000Y-94325000D01*
G75*
G02*
X130525000Y-94525000I-200000J0D01*
G01*
X129975000Y-94525000D01*
G75*
G02*
X129775000Y-94325000I0J200000D01*
G01*
X129775000Y-93925000D01*
G75*
G02*
X129975000Y-93725000I200000J0D01*
G01*
G37*
G36*
G01*
X129975000Y-95375000D02*
X130525000Y-95375000D01*
G75*
G02*
X130725000Y-95575000I0J-200000D01*
G01*
X130725000Y-95975000D01*
G75*
G02*
X130525000Y-96175000I-200000J0D01*
G01*
X129975000Y-96175000D01*
G75*
G02*
X129775000Y-95975000I0J200000D01*
G01*
X129775000Y-95575000D01*
G75*
G02*
X129975000Y-95375000I200000J0D01*
G01*
G37*
G36*
G01*
X129975000Y-96525000D02*
X130525000Y-96525000D01*
G75*
G02*
X130725000Y-96725000I0J-200000D01*
G01*
X130725000Y-97125000D01*
G75*
G02*
X130525000Y-97325000I-200000J0D01*
G01*
X129975000Y-97325000D01*
G75*
G02*
X129775000Y-97125000I0J200000D01*
G01*
X129775000Y-96725000D01*
G75*
G02*
X129975000Y-96525000I200000J0D01*
G01*
G37*
G36*
G01*
X129975000Y-98175000D02*
X130525000Y-98175000D01*
G75*
G02*
X130725000Y-98375000I0J-200000D01*
G01*
X130725000Y-98775000D01*
G75*
G02*
X130525000Y-98975000I-200000J0D01*
G01*
X129975000Y-98975000D01*
G75*
G02*
X129775000Y-98775000I0J200000D01*
G01*
X129775000Y-98375000D01*
G75*
G02*
X129975000Y-98175000I200000J0D01*
G01*
G37*
G36*
G01*
X123275000Y-108025000D02*
X123275000Y-107475000D01*
G75*
G02*
X123475000Y-107275000I200000J0D01*
G01*
X123875000Y-107275000D01*
G75*
G02*
X124075000Y-107475000I0J-200000D01*
G01*
X124075000Y-108025000D01*
G75*
G02*
X123875000Y-108225000I-200000J0D01*
G01*
X123475000Y-108225000D01*
G75*
G02*
X123275000Y-108025000I0J200000D01*
G01*
G37*
G36*
G01*
X121625000Y-108025000D02*
X121625000Y-107475000D01*
G75*
G02*
X121825000Y-107275000I200000J0D01*
G01*
X122225000Y-107275000D01*
G75*
G02*
X122425000Y-107475000I0J-200000D01*
G01*
X122425000Y-108025000D01*
G75*
G02*
X122225000Y-108225000I-200000J0D01*
G01*
X121825000Y-108225000D01*
G75*
G02*
X121625000Y-108025000I0J200000D01*
G01*
G37*
G36*
G01*
X124625000Y-108025000D02*
X124625000Y-107475000D01*
G75*
G02*
X124825000Y-107275000I200000J0D01*
G01*
X125225000Y-107275000D01*
G75*
G02*
X125425000Y-107475000I0J-200000D01*
G01*
X125425000Y-108025000D01*
G75*
G02*
X125225000Y-108225000I-200000J0D01*
G01*
X124825000Y-108225000D01*
G75*
G02*
X124625000Y-108025000I0J200000D01*
G01*
G37*
G36*
G01*
X126275000Y-108025000D02*
X126275000Y-107475000D01*
G75*
G02*
X126475000Y-107275000I200000J0D01*
G01*
X126875000Y-107275000D01*
G75*
G02*
X127075000Y-107475000I0J-200000D01*
G01*
X127075000Y-108025000D01*
G75*
G02*
X126875000Y-108225000I-200000J0D01*
G01*
X126475000Y-108225000D01*
G75*
G02*
X126275000Y-108025000I0J200000D01*
G01*
G37*
D24*
X140625000Y-89720000D03*
D25*
X133125000Y-82220000D03*
X133125000Y-83490000D03*
X133125000Y-84760000D03*
X133125000Y-86030000D03*
X133125000Y-87300000D03*
X133125000Y-88570000D03*
X133125000Y-89840000D03*
X133125000Y-91110000D03*
X133125000Y-92380000D03*
X133125000Y-93650000D03*
X133125000Y-94920000D03*
X133125000Y-96190000D03*
X133125000Y-97460000D03*
X133125000Y-98730000D03*
D26*
X135910000Y-99730000D03*
X137180000Y-99730000D03*
X138450000Y-99730000D03*
X139720000Y-99730000D03*
X140990000Y-99730000D03*
X142260000Y-99730000D03*
X143530000Y-99730000D03*
X144800000Y-99730000D03*
X146070000Y-99730000D03*
X147340000Y-99730000D03*
D25*
X150125000Y-98730000D03*
X150125000Y-97460000D03*
X150125000Y-96190000D03*
X150125000Y-94920000D03*
X150125000Y-93650000D03*
X150125000Y-92380000D03*
X150125000Y-91110000D03*
X150125000Y-89840000D03*
X150125000Y-88570000D03*
X150125000Y-87300000D03*
X150125000Y-86030000D03*
X150125000Y-84760000D03*
X150125000Y-83490000D03*
X150125000Y-82220000D03*
D21*
X111370000Y-119850000D03*
D20*
X113650000Y-126150000D03*
X109090000Y-126150000D03*
G36*
G01*
X159850000Y-81175000D02*
X159850000Y-80975000D01*
G75*
G02*
X159950000Y-80875000I100000J0D01*
G01*
X161225000Y-80875000D01*
G75*
G02*
X161325000Y-80975000I0J-100000D01*
G01*
X161325000Y-81175000D01*
G75*
G02*
X161225000Y-81275000I-100000J0D01*
G01*
X159950000Y-81275000D01*
G75*
G02*
X159850000Y-81175000I0J100000D01*
G01*
G37*
G36*
G01*
X159850000Y-81825000D02*
X159850000Y-81625000D01*
G75*
G02*
X159950000Y-81525000I100000J0D01*
G01*
X161225000Y-81525000D01*
G75*
G02*
X161325000Y-81625000I0J-100000D01*
G01*
X161325000Y-81825000D01*
G75*
G02*
X161225000Y-81925000I-100000J0D01*
G01*
X159950000Y-81925000D01*
G75*
G02*
X159850000Y-81825000I0J100000D01*
G01*
G37*
G36*
G01*
X159850000Y-82475000D02*
X159850000Y-82275000D01*
G75*
G02*
X159950000Y-82175000I100000J0D01*
G01*
X161225000Y-82175000D01*
G75*
G02*
X161325000Y-82275000I0J-100000D01*
G01*
X161325000Y-82475000D01*
G75*
G02*
X161225000Y-82575000I-100000J0D01*
G01*
X159950000Y-82575000D01*
G75*
G02*
X159850000Y-82475000I0J100000D01*
G01*
G37*
G36*
G01*
X159850000Y-83125000D02*
X159850000Y-82925000D01*
G75*
G02*
X159950000Y-82825000I100000J0D01*
G01*
X161225000Y-82825000D01*
G75*
G02*
X161325000Y-82925000I0J-100000D01*
G01*
X161325000Y-83125000D01*
G75*
G02*
X161225000Y-83225000I-100000J0D01*
G01*
X159950000Y-83225000D01*
G75*
G02*
X159850000Y-83125000I0J100000D01*
G01*
G37*
G36*
G01*
X159850000Y-83775000D02*
X159850000Y-83575000D01*
G75*
G02*
X159950000Y-83475000I100000J0D01*
G01*
X161225000Y-83475000D01*
G75*
G02*
X161325000Y-83575000I0J-100000D01*
G01*
X161325000Y-83775000D01*
G75*
G02*
X161225000Y-83875000I-100000J0D01*
G01*
X159950000Y-83875000D01*
G75*
G02*
X159850000Y-83775000I0J100000D01*
G01*
G37*
G36*
G01*
X159850000Y-84425000D02*
X159850000Y-84225000D01*
G75*
G02*
X159950000Y-84125000I100000J0D01*
G01*
X161225000Y-84125000D01*
G75*
G02*
X161325000Y-84225000I0J-100000D01*
G01*
X161325000Y-84425000D01*
G75*
G02*
X161225000Y-84525000I-100000J0D01*
G01*
X159950000Y-84525000D01*
G75*
G02*
X159850000Y-84425000I0J100000D01*
G01*
G37*
G36*
G01*
X159850000Y-85075000D02*
X159850000Y-84875000D01*
G75*
G02*
X159950000Y-84775000I100000J0D01*
G01*
X161225000Y-84775000D01*
G75*
G02*
X161325000Y-84875000I0J-100000D01*
G01*
X161325000Y-85075000D01*
G75*
G02*
X161225000Y-85175000I-100000J0D01*
G01*
X159950000Y-85175000D01*
G75*
G02*
X159850000Y-85075000I0J100000D01*
G01*
G37*
G36*
G01*
X159850000Y-85725000D02*
X159850000Y-85525000D01*
G75*
G02*
X159950000Y-85425000I100000J0D01*
G01*
X161225000Y-85425000D01*
G75*
G02*
X161325000Y-85525000I0J-100000D01*
G01*
X161325000Y-85725000D01*
G75*
G02*
X161225000Y-85825000I-100000J0D01*
G01*
X159950000Y-85825000D01*
G75*
G02*
X159850000Y-85725000I0J100000D01*
G01*
G37*
G36*
G01*
X165575000Y-85725000D02*
X165575000Y-85525000D01*
G75*
G02*
X165675000Y-85425000I100000J0D01*
G01*
X166950000Y-85425000D01*
G75*
G02*
X167050000Y-85525000I0J-100000D01*
G01*
X167050000Y-85725000D01*
G75*
G02*
X166950000Y-85825000I-100000J0D01*
G01*
X165675000Y-85825000D01*
G75*
G02*
X165575000Y-85725000I0J100000D01*
G01*
G37*
G36*
G01*
X165575000Y-85075000D02*
X165575000Y-84875000D01*
G75*
G02*
X165675000Y-84775000I100000J0D01*
G01*
X166950000Y-84775000D01*
G75*
G02*
X167050000Y-84875000I0J-100000D01*
G01*
X167050000Y-85075000D01*
G75*
G02*
X166950000Y-85175000I-100000J0D01*
G01*
X165675000Y-85175000D01*
G75*
G02*
X165575000Y-85075000I0J100000D01*
G01*
G37*
G36*
G01*
X165575000Y-84425000D02*
X165575000Y-84225000D01*
G75*
G02*
X165675000Y-84125000I100000J0D01*
G01*
X166950000Y-84125000D01*
G75*
G02*
X167050000Y-84225000I0J-100000D01*
G01*
X167050000Y-84425000D01*
G75*
G02*
X166950000Y-84525000I-100000J0D01*
G01*
X165675000Y-84525000D01*
G75*
G02*
X165575000Y-84425000I0J100000D01*
G01*
G37*
G36*
G01*
X165575000Y-83775000D02*
X165575000Y-83575000D01*
G75*
G02*
X165675000Y-83475000I100000J0D01*
G01*
X166950000Y-83475000D01*
G75*
G02*
X167050000Y-83575000I0J-100000D01*
G01*
X167050000Y-83775000D01*
G75*
G02*
X166950000Y-83875000I-100000J0D01*
G01*
X165675000Y-83875000D01*
G75*
G02*
X165575000Y-83775000I0J100000D01*
G01*
G37*
G36*
G01*
X165575000Y-83125000D02*
X165575000Y-82925000D01*
G75*
G02*
X165675000Y-82825000I100000J0D01*
G01*
X166950000Y-82825000D01*
G75*
G02*
X167050000Y-82925000I0J-100000D01*
G01*
X167050000Y-83125000D01*
G75*
G02*
X166950000Y-83225000I-100000J0D01*
G01*
X165675000Y-83225000D01*
G75*
G02*
X165575000Y-83125000I0J100000D01*
G01*
G37*
G36*
G01*
X165575000Y-82475000D02*
X165575000Y-82275000D01*
G75*
G02*
X165675000Y-82175000I100000J0D01*
G01*
X166950000Y-82175000D01*
G75*
G02*
X167050000Y-82275000I0J-100000D01*
G01*
X167050000Y-82475000D01*
G75*
G02*
X166950000Y-82575000I-100000J0D01*
G01*
X165675000Y-82575000D01*
G75*
G02*
X165575000Y-82475000I0J100000D01*
G01*
G37*
G36*
G01*
X165575000Y-81825000D02*
X165575000Y-81625000D01*
G75*
G02*
X165675000Y-81525000I100000J0D01*
G01*
X166950000Y-81525000D01*
G75*
G02*
X167050000Y-81625000I0J-100000D01*
G01*
X167050000Y-81825000D01*
G75*
G02*
X166950000Y-81925000I-100000J0D01*
G01*
X165675000Y-81925000D01*
G75*
G02*
X165575000Y-81825000I0J100000D01*
G01*
G37*
G36*
G01*
X165575000Y-81175000D02*
X165575000Y-80975000D01*
G75*
G02*
X165675000Y-80875000I100000J0D01*
G01*
X166950000Y-80875000D01*
G75*
G02*
X167050000Y-80975000I0J-100000D01*
G01*
X167050000Y-81175000D01*
G75*
G02*
X166950000Y-81275000I-100000J0D01*
G01*
X165675000Y-81275000D01*
G75*
G02*
X165575000Y-81175000I0J100000D01*
G01*
G37*
G36*
G01*
X127450000Y-94395000D02*
X127450000Y-94095000D01*
G75*
G02*
X127600000Y-93945000I150000J0D01*
G01*
X128950000Y-93945000D01*
G75*
G02*
X129100000Y-94095000I0J-150000D01*
G01*
X129100000Y-94395000D01*
G75*
G02*
X128950000Y-94545000I-150000J0D01*
G01*
X127600000Y-94545000D01*
G75*
G02*
X127450000Y-94395000I0J150000D01*
G01*
G37*
G36*
G01*
X127450000Y-95665000D02*
X127450000Y-95365000D01*
G75*
G02*
X127600000Y-95215000I150000J0D01*
G01*
X128950000Y-95215000D01*
G75*
G02*
X129100000Y-95365000I0J-150000D01*
G01*
X129100000Y-95665000D01*
G75*
G02*
X128950000Y-95815000I-150000J0D01*
G01*
X127600000Y-95815000D01*
G75*
G02*
X127450000Y-95665000I0J150000D01*
G01*
G37*
G36*
G01*
X127450000Y-96935000D02*
X127450000Y-96635000D01*
G75*
G02*
X127600000Y-96485000I150000J0D01*
G01*
X128950000Y-96485000D01*
G75*
G02*
X129100000Y-96635000I0J-150000D01*
G01*
X129100000Y-96935000D01*
G75*
G02*
X128950000Y-97085000I-150000J0D01*
G01*
X127600000Y-97085000D01*
G75*
G02*
X127450000Y-96935000I0J150000D01*
G01*
G37*
G36*
G01*
X127450000Y-98205000D02*
X127450000Y-97905000D01*
G75*
G02*
X127600000Y-97755000I150000J0D01*
G01*
X128950000Y-97755000D01*
G75*
G02*
X129100000Y-97905000I0J-150000D01*
G01*
X129100000Y-98205000D01*
G75*
G02*
X128950000Y-98355000I-150000J0D01*
G01*
X127600000Y-98355000D01*
G75*
G02*
X127450000Y-98205000I0J150000D01*
G01*
G37*
G36*
G01*
X122200000Y-98205000D02*
X122200000Y-97905000D01*
G75*
G02*
X122350000Y-97755000I150000J0D01*
G01*
X123700000Y-97755000D01*
G75*
G02*
X123850000Y-97905000I0J-150000D01*
G01*
X123850000Y-98205000D01*
G75*
G02*
X123700000Y-98355000I-150000J0D01*
G01*
X122350000Y-98355000D01*
G75*
G02*
X122200000Y-98205000I0J150000D01*
G01*
G37*
G36*
G01*
X122200000Y-96935000D02*
X122200000Y-96635000D01*
G75*
G02*
X122350000Y-96485000I150000J0D01*
G01*
X123700000Y-96485000D01*
G75*
G02*
X123850000Y-96635000I0J-150000D01*
G01*
X123850000Y-96935000D01*
G75*
G02*
X123700000Y-97085000I-150000J0D01*
G01*
X122350000Y-97085000D01*
G75*
G02*
X122200000Y-96935000I0J150000D01*
G01*
G37*
G36*
G01*
X122200000Y-95665000D02*
X122200000Y-95365000D01*
G75*
G02*
X122350000Y-95215000I150000J0D01*
G01*
X123700000Y-95215000D01*
G75*
G02*
X123850000Y-95365000I0J-150000D01*
G01*
X123850000Y-95665000D01*
G75*
G02*
X123700000Y-95815000I-150000J0D01*
G01*
X122350000Y-95815000D01*
G75*
G02*
X122200000Y-95665000I0J150000D01*
G01*
G37*
G36*
G01*
X122200000Y-94395000D02*
X122200000Y-94095000D01*
G75*
G02*
X122350000Y-93945000I150000J0D01*
G01*
X123700000Y-93945000D01*
G75*
G02*
X123850000Y-94095000I0J-150000D01*
G01*
X123850000Y-94395000D01*
G75*
G02*
X123700000Y-94545000I-150000J0D01*
G01*
X122350000Y-94545000D01*
G75*
G02*
X122200000Y-94395000I0J150000D01*
G01*
G37*
G36*
G01*
X167950000Y-105895000D02*
X167950000Y-105595000D01*
G75*
G02*
X168100000Y-105445000I150000J0D01*
G01*
X169750000Y-105445000D01*
G75*
G02*
X169900000Y-105595000I0J-150000D01*
G01*
X169900000Y-105895000D01*
G75*
G02*
X169750000Y-106045000I-150000J0D01*
G01*
X168100000Y-106045000D01*
G75*
G02*
X167950000Y-105895000I0J150000D01*
G01*
G37*
G36*
G01*
X167950000Y-107165000D02*
X167950000Y-106865000D01*
G75*
G02*
X168100000Y-106715000I150000J0D01*
G01*
X169750000Y-106715000D01*
G75*
G02*
X169900000Y-106865000I0J-150000D01*
G01*
X169900000Y-107165000D01*
G75*
G02*
X169750000Y-107315000I-150000J0D01*
G01*
X168100000Y-107315000D01*
G75*
G02*
X167950000Y-107165000I0J150000D01*
G01*
G37*
G36*
G01*
X167950000Y-108435000D02*
X167950000Y-108135000D01*
G75*
G02*
X168100000Y-107985000I150000J0D01*
G01*
X169750000Y-107985000D01*
G75*
G02*
X169900000Y-108135000I0J-150000D01*
G01*
X169900000Y-108435000D01*
G75*
G02*
X169750000Y-108585000I-150000J0D01*
G01*
X168100000Y-108585000D01*
G75*
G02*
X167950000Y-108435000I0J150000D01*
G01*
G37*
G36*
G01*
X167950000Y-109705000D02*
X167950000Y-109405000D01*
G75*
G02*
X168100000Y-109255000I150000J0D01*
G01*
X169750000Y-109255000D01*
G75*
G02*
X169900000Y-109405000I0J-150000D01*
G01*
X169900000Y-109705000D01*
G75*
G02*
X169750000Y-109855000I-150000J0D01*
G01*
X168100000Y-109855000D01*
G75*
G02*
X167950000Y-109705000I0J150000D01*
G01*
G37*
G36*
G01*
X172900000Y-109705000D02*
X172900000Y-109405000D01*
G75*
G02*
X173050000Y-109255000I150000J0D01*
G01*
X174700000Y-109255000D01*
G75*
G02*
X174850000Y-109405000I0J-150000D01*
G01*
X174850000Y-109705000D01*
G75*
G02*
X174700000Y-109855000I-150000J0D01*
G01*
X173050000Y-109855000D01*
G75*
G02*
X172900000Y-109705000I0J150000D01*
G01*
G37*
G36*
G01*
X172900000Y-108435000D02*
X172900000Y-108135000D01*
G75*
G02*
X173050000Y-107985000I150000J0D01*
G01*
X174700000Y-107985000D01*
G75*
G02*
X174850000Y-108135000I0J-150000D01*
G01*
X174850000Y-108435000D01*
G75*
G02*
X174700000Y-108585000I-150000J0D01*
G01*
X173050000Y-108585000D01*
G75*
G02*
X172900000Y-108435000I0J150000D01*
G01*
G37*
G36*
G01*
X172900000Y-107165000D02*
X172900000Y-106865000D01*
G75*
G02*
X173050000Y-106715000I150000J0D01*
G01*
X174700000Y-106715000D01*
G75*
G02*
X174850000Y-106865000I0J-150000D01*
G01*
X174850000Y-107165000D01*
G75*
G02*
X174700000Y-107315000I-150000J0D01*
G01*
X173050000Y-107315000D01*
G75*
G02*
X172900000Y-107165000I0J150000D01*
G01*
G37*
G36*
G01*
X172900000Y-105895000D02*
X172900000Y-105595000D01*
G75*
G02*
X173050000Y-105445000I150000J0D01*
G01*
X174700000Y-105445000D01*
G75*
G02*
X174850000Y-105595000I0J-150000D01*
G01*
X174850000Y-105895000D01*
G75*
G02*
X174700000Y-106045000I-150000J0D01*
G01*
X173050000Y-106045000D01*
G75*
G02*
X172900000Y-105895000I0J150000D01*
G01*
G37*
G36*
G01*
X122395000Y-116100000D02*
X122095000Y-116100000D01*
G75*
G02*
X121945000Y-115950000I0J150000D01*
G01*
X121945000Y-114600000D01*
G75*
G02*
X122095000Y-114450000I150000J0D01*
G01*
X122395000Y-114450000D01*
G75*
G02*
X122545000Y-114600000I0J-150000D01*
G01*
X122545000Y-115950000D01*
G75*
G02*
X122395000Y-116100000I-150000J0D01*
G01*
G37*
G36*
G01*
X123665000Y-116100000D02*
X123365000Y-116100000D01*
G75*
G02*
X123215000Y-115950000I0J150000D01*
G01*
X123215000Y-114600000D01*
G75*
G02*
X123365000Y-114450000I150000J0D01*
G01*
X123665000Y-114450000D01*
G75*
G02*
X123815000Y-114600000I0J-150000D01*
G01*
X123815000Y-115950000D01*
G75*
G02*
X123665000Y-116100000I-150000J0D01*
G01*
G37*
G36*
G01*
X124935000Y-116100000D02*
X124635000Y-116100000D01*
G75*
G02*
X124485000Y-115950000I0J150000D01*
G01*
X124485000Y-114600000D01*
G75*
G02*
X124635000Y-114450000I150000J0D01*
G01*
X124935000Y-114450000D01*
G75*
G02*
X125085000Y-114600000I0J-150000D01*
G01*
X125085000Y-115950000D01*
G75*
G02*
X124935000Y-116100000I-150000J0D01*
G01*
G37*
G36*
G01*
X126205000Y-116100000D02*
X125905000Y-116100000D01*
G75*
G02*
X125755000Y-115950000I0J150000D01*
G01*
X125755000Y-114600000D01*
G75*
G02*
X125905000Y-114450000I150000J0D01*
G01*
X126205000Y-114450000D01*
G75*
G02*
X126355000Y-114600000I0J-150000D01*
G01*
X126355000Y-115950000D01*
G75*
G02*
X126205000Y-116100000I-150000J0D01*
G01*
G37*
G36*
G01*
X126205000Y-110850000D02*
X125905000Y-110850000D01*
G75*
G02*
X125755000Y-110700000I0J150000D01*
G01*
X125755000Y-109350000D01*
G75*
G02*
X125905000Y-109200000I150000J0D01*
G01*
X126205000Y-109200000D01*
G75*
G02*
X126355000Y-109350000I0J-150000D01*
G01*
X126355000Y-110700000D01*
G75*
G02*
X126205000Y-110850000I-150000J0D01*
G01*
G37*
G36*
G01*
X124935000Y-110850000D02*
X124635000Y-110850000D01*
G75*
G02*
X124485000Y-110700000I0J150000D01*
G01*
X124485000Y-109350000D01*
G75*
G02*
X124635000Y-109200000I150000J0D01*
G01*
X124935000Y-109200000D01*
G75*
G02*
X125085000Y-109350000I0J-150000D01*
G01*
X125085000Y-110700000D01*
G75*
G02*
X124935000Y-110850000I-150000J0D01*
G01*
G37*
G36*
G01*
X123665000Y-110850000D02*
X123365000Y-110850000D01*
G75*
G02*
X123215000Y-110700000I0J150000D01*
G01*
X123215000Y-109350000D01*
G75*
G02*
X123365000Y-109200000I150000J0D01*
G01*
X123665000Y-109200000D01*
G75*
G02*
X123815000Y-109350000I0J-150000D01*
G01*
X123815000Y-110700000D01*
G75*
G02*
X123665000Y-110850000I-150000J0D01*
G01*
G37*
G36*
G01*
X122395000Y-110850000D02*
X122095000Y-110850000D01*
G75*
G02*
X121945000Y-110700000I0J150000D01*
G01*
X121945000Y-109350000D01*
G75*
G02*
X122095000Y-109200000I150000J0D01*
G01*
X122395000Y-109200000D01*
G75*
G02*
X122545000Y-109350000I0J-150000D01*
G01*
X122545000Y-110700000D01*
G75*
G02*
X122395000Y-110850000I-150000J0D01*
G01*
G37*
D27*
X118150000Y-94250000D03*
D28*
X118150000Y-87050000D03*
D29*
X112150000Y-97400000D03*
X112150000Y-83900000D03*
X112150000Y-100900000D03*
X112150000Y-114400000D03*
D28*
X118150000Y-104050000D03*
D27*
X118150000Y-111250000D03*
D28*
X120050000Y-123150000D03*
X127250000Y-123150000D03*
D30*
X116900000Y-129150000D03*
X130400000Y-129150000D03*
D27*
X165650000Y-91550000D03*
D28*
X165650000Y-98750000D03*
D29*
X171650000Y-88400000D03*
X171650000Y-101900000D03*
D30*
X148400000Y-129150000D03*
X134900000Y-129150000D03*
D28*
X145250000Y-123150000D03*
X138050000Y-123150000D03*
X156050000Y-123150000D03*
X163250000Y-123150000D03*
D30*
X152900000Y-129150000D03*
X166400000Y-129150000D03*
G36*
G01*
X110375000Y-125975000D02*
X110925000Y-125975000D01*
G75*
G02*
X111125000Y-126175000I0J-200000D01*
G01*
X111125000Y-126575000D01*
G75*
G02*
X110925000Y-126775000I-200000J0D01*
G01*
X110375000Y-126775000D01*
G75*
G02*
X110175000Y-126575000I0J200000D01*
G01*
X110175000Y-126175000D01*
G75*
G02*
X110375000Y-125975000I200000J0D01*
G01*
G37*
G36*
G01*
X110375000Y-124325000D02*
X110925000Y-124325000D01*
G75*
G02*
X111125000Y-124525000I0J-200000D01*
G01*
X111125000Y-124925000D01*
G75*
G02*
X110925000Y-125125000I-200000J0D01*
G01*
X110375000Y-125125000D01*
G75*
G02*
X110175000Y-124925000I0J200000D01*
G01*
X110175000Y-124525000D01*
G75*
G02*
X110375000Y-124325000I200000J0D01*
G01*
G37*
G36*
G01*
X112325000Y-126775000D02*
X111775000Y-126775000D01*
G75*
G02*
X111575000Y-126575000I0J200000D01*
G01*
X111575000Y-126175000D01*
G75*
G02*
X111775000Y-125975000I200000J0D01*
G01*
X112325000Y-125975000D01*
G75*
G02*
X112525000Y-126175000I0J-200000D01*
G01*
X112525000Y-126575000D01*
G75*
G02*
X112325000Y-126775000I-200000J0D01*
G01*
G37*
G36*
G01*
X112325000Y-125125000D02*
X111775000Y-125125000D01*
G75*
G02*
X111575000Y-124925000I0J200000D01*
G01*
X111575000Y-124525000D01*
G75*
G02*
X111775000Y-124325000I200000J0D01*
G01*
X112325000Y-124325000D01*
G75*
G02*
X112525000Y-124525000I0J-200000D01*
G01*
X112525000Y-124925000D01*
G75*
G02*
X112325000Y-125125000I-200000J0D01*
G01*
G37*
D31*
X116560000Y-80530000D03*
X120860000Y-80530000D03*
X133790000Y-104130000D03*
X138090000Y-104130000D03*
D32*
X118740000Y-75810000D03*
X118740000Y-77710000D03*
X120740000Y-76760000D03*
X136990000Y-113790000D03*
X136990000Y-111890000D03*
X134990000Y-112840000D03*
X133830000Y-108070000D03*
X135830000Y-107120000D03*
X135830000Y-109020000D03*
X153080000Y-110770000D03*
X155080000Y-109820000D03*
X155080000Y-111720000D03*
X157640000Y-113810000D03*
X157640000Y-115710000D03*
X159640000Y-114760000D03*
D33*
X135150000Y-117300000D03*
X135150000Y-115200000D03*
X153100000Y-114900000D03*
X153100000Y-117000000D03*
X168600000Y-117050000D03*
X168600000Y-114950000D03*
M02*
