G04 #@! TF.GenerationSoftware,KiCad,Pcbnew,(5.1.5-0-10_14)*
G04 #@! TF.CreationDate,2020-07-17T10:51:53+10:00*
G04 #@! TF.ProjectId,esp32_battery_isolator,65737033-325f-4626-9174-746572795f69,rev?*
G04 #@! TF.SameCoordinates,Original*
G04 #@! TF.FileFunction,Soldermask,Bot*
G04 #@! TF.FilePolarity,Negative*
%FSLAX46Y46*%
G04 Gerber Fmt 4.6, Leading zero omitted, Abs format (unit mm)*
G04 Created by KiCad (PCBNEW (5.1.5-0-10_14)) date 2020-07-17 10:51:53*
%MOMM*%
%LPD*%
G04 APERTURE LIST*
%ADD10C,0.100000*%
G04 APERTURE END LIST*
D10*
G36*
X185834239Y-133811467D02*
G01*
X186148282Y-133873934D01*
X186739926Y-134119001D01*
X187272392Y-134474784D01*
X187725216Y-134927608D01*
X188080999Y-135460074D01*
X188326066Y-136051718D01*
X188326066Y-136051719D01*
X188451000Y-136679803D01*
X188451000Y-137320197D01*
X188388533Y-137634239D01*
X188326066Y-137948282D01*
X188080999Y-138539926D01*
X187725216Y-139072392D01*
X187272392Y-139525216D01*
X186739926Y-139880999D01*
X186148282Y-140126066D01*
X185834239Y-140188533D01*
X185520197Y-140251000D01*
X184879803Y-140251000D01*
X184565761Y-140188533D01*
X184251718Y-140126066D01*
X183660074Y-139880999D01*
X183127608Y-139525216D01*
X182674784Y-139072392D01*
X182319001Y-138539926D01*
X182073934Y-137948282D01*
X182011467Y-137634239D01*
X181949000Y-137320197D01*
X181949000Y-136679803D01*
X182073934Y-136051719D01*
X182073934Y-136051718D01*
X182319001Y-135460074D01*
X182674784Y-134927608D01*
X183127608Y-134474784D01*
X183660074Y-134119001D01*
X184251718Y-133873934D01*
X184565761Y-133811467D01*
X184879803Y-133749000D01*
X185520197Y-133749000D01*
X185834239Y-133811467D01*
G37*
G36*
X106434239Y-133811467D02*
G01*
X106748282Y-133873934D01*
X107339926Y-134119001D01*
X107872392Y-134474784D01*
X108325216Y-134927608D01*
X108680999Y-135460074D01*
X108926066Y-136051718D01*
X108926066Y-136051719D01*
X109051000Y-136679803D01*
X109051000Y-137320197D01*
X108988533Y-137634239D01*
X108926066Y-137948282D01*
X108680999Y-138539926D01*
X108325216Y-139072392D01*
X107872392Y-139525216D01*
X107339926Y-139880999D01*
X106748282Y-140126066D01*
X106434239Y-140188533D01*
X106120197Y-140251000D01*
X105479803Y-140251000D01*
X105165761Y-140188533D01*
X104851718Y-140126066D01*
X104260074Y-139880999D01*
X103727608Y-139525216D01*
X103274784Y-139072392D01*
X102919001Y-138539926D01*
X102673934Y-137948282D01*
X102611467Y-137634239D01*
X102549000Y-137320197D01*
X102549000Y-136679803D01*
X102673934Y-136051719D01*
X102673934Y-136051718D01*
X102919001Y-135460074D01*
X103274784Y-134927608D01*
X103727608Y-134474784D01*
X104260074Y-134119001D01*
X104851718Y-133873934D01*
X105165761Y-133811467D01*
X105479803Y-133749000D01*
X106120197Y-133749000D01*
X106434239Y-133811467D01*
G37*
G36*
X132622684Y-126230106D02*
G01*
X132920472Y-126320439D01*
X133194909Y-126467128D01*
X133435458Y-126664542D01*
X133632872Y-126905091D01*
X133779561Y-127179528D01*
X133869894Y-127477316D01*
X133901000Y-127793140D01*
X133901000Y-131206860D01*
X133869894Y-131522684D01*
X133779561Y-131820472D01*
X133632872Y-132094909D01*
X133435458Y-132335458D01*
X133194909Y-132532872D01*
X132920472Y-132679561D01*
X132622684Y-132769894D01*
X132306860Y-132801000D01*
X128893140Y-132801000D01*
X128577316Y-132769894D01*
X128279528Y-132679561D01*
X128005091Y-132532872D01*
X127764542Y-132335458D01*
X127567128Y-132094909D01*
X127420439Y-131820472D01*
X127330106Y-131522684D01*
X127299000Y-131206860D01*
X127299000Y-127793140D01*
X127330106Y-127477316D01*
X127420439Y-127179528D01*
X127567128Y-126905091D01*
X127764542Y-126664542D01*
X128005091Y-126467128D01*
X128279528Y-126320439D01*
X128577316Y-126230106D01*
X128893140Y-126199000D01*
X132306860Y-126199000D01*
X132622684Y-126230106D01*
G37*
G36*
X150622684Y-126230106D02*
G01*
X150920472Y-126320439D01*
X151194909Y-126467128D01*
X151435458Y-126664542D01*
X151632872Y-126905091D01*
X151779561Y-127179528D01*
X151869894Y-127477316D01*
X151901000Y-127793140D01*
X151901000Y-131206860D01*
X151869894Y-131522684D01*
X151779561Y-131820472D01*
X151632872Y-132094909D01*
X151435458Y-132335458D01*
X151194909Y-132532872D01*
X150920472Y-132679561D01*
X150622684Y-132769894D01*
X150306860Y-132801000D01*
X146893140Y-132801000D01*
X146577316Y-132769894D01*
X146279528Y-132679561D01*
X146005091Y-132532872D01*
X145764542Y-132335458D01*
X145567128Y-132094909D01*
X145420439Y-131820472D01*
X145330106Y-131522684D01*
X145299000Y-131206860D01*
X145299000Y-127793140D01*
X145330106Y-127477316D01*
X145420439Y-127179528D01*
X145567128Y-126905091D01*
X145764542Y-126664542D01*
X146005091Y-126467128D01*
X146279528Y-126320439D01*
X146577316Y-126230106D01*
X146893140Y-126199000D01*
X150306860Y-126199000D01*
X150622684Y-126230106D01*
G37*
G36*
X168122684Y-126230106D02*
G01*
X168420472Y-126320439D01*
X168694909Y-126467128D01*
X168935458Y-126664542D01*
X169132872Y-126905091D01*
X169279561Y-127179528D01*
X169369894Y-127477316D01*
X169401000Y-127793140D01*
X169401000Y-131206860D01*
X169369894Y-131522684D01*
X169279561Y-131820472D01*
X169132872Y-132094909D01*
X168935458Y-132335458D01*
X168694909Y-132532872D01*
X168420472Y-132679561D01*
X168122684Y-132769894D01*
X167806860Y-132801000D01*
X164393140Y-132801000D01*
X164077316Y-132769894D01*
X163779528Y-132679561D01*
X163505091Y-132532872D01*
X163264542Y-132335458D01*
X163067128Y-132094909D01*
X162920439Y-131820472D01*
X162830106Y-131522684D01*
X162799000Y-131206860D01*
X162799000Y-127793140D01*
X162830106Y-127477316D01*
X162920439Y-127179528D01*
X163067128Y-126905091D01*
X163264542Y-126664542D01*
X163505091Y-126467128D01*
X163779528Y-126320439D01*
X164077316Y-126230106D01*
X164393140Y-126199000D01*
X167806860Y-126199000D01*
X168122684Y-126230106D01*
G37*
G36*
X185373297Y-124627704D02*
G01*
X185647637Y-124710924D01*
X185900462Y-124846062D01*
X186122070Y-125027930D01*
X186303938Y-125249538D01*
X186439076Y-125502363D01*
X186522296Y-125776703D01*
X186551000Y-126068140D01*
X186551000Y-129731860D01*
X186522296Y-130023297D01*
X186439076Y-130297637D01*
X186303938Y-130550462D01*
X186122070Y-130772070D01*
X185900462Y-130953938D01*
X185647637Y-131089076D01*
X185373297Y-131172296D01*
X185081860Y-131201000D01*
X181918140Y-131201000D01*
X181626703Y-131172296D01*
X181352363Y-131089076D01*
X181099538Y-130953938D01*
X180877930Y-130772070D01*
X180696062Y-130550462D01*
X180560924Y-130297637D01*
X180477704Y-130023297D01*
X180449000Y-129731860D01*
X180449000Y-126068140D01*
X180477704Y-125776703D01*
X180560924Y-125502363D01*
X180696062Y-125249538D01*
X180877930Y-125027930D01*
X181099538Y-124846062D01*
X181352363Y-124710924D01*
X181626703Y-124627704D01*
X181918140Y-124599000D01*
X185081860Y-124599000D01*
X185373297Y-124627704D01*
G37*
G36*
X112769615Y-117492115D02*
G01*
X113184649Y-117618015D01*
X113567137Y-117822458D01*
X113902399Y-118097601D01*
X114177542Y-118432863D01*
X114381985Y-118815351D01*
X114507885Y-119230385D01*
X114551000Y-119668140D01*
X114551000Y-124331860D01*
X114507885Y-124769615D01*
X114381985Y-125184649D01*
X114177542Y-125567137D01*
X113902399Y-125902399D01*
X113567137Y-126177542D01*
X113184649Y-126381985D01*
X112769615Y-126507885D01*
X112331860Y-126551000D01*
X107668140Y-126551000D01*
X107230385Y-126507885D01*
X106815351Y-126381985D01*
X106432863Y-126177542D01*
X106097601Y-125902399D01*
X105822458Y-125567137D01*
X105618015Y-125184649D01*
X105492115Y-124769615D01*
X105449000Y-124331860D01*
X105449000Y-119668140D01*
X105492115Y-119230385D01*
X105618015Y-118815351D01*
X105822458Y-118432863D01*
X106097601Y-118097601D01*
X106432863Y-117822458D01*
X106815351Y-117618015D01*
X107230385Y-117492115D01*
X107668140Y-117449000D01*
X112331860Y-117449000D01*
X112769615Y-117492115D01*
G37*
G36*
X131562865Y-119125855D02*
G01*
X132163608Y-119374691D01*
X132163610Y-119374692D01*
X132704265Y-119735946D01*
X133164054Y-120195735D01*
X133525308Y-120736390D01*
X133525309Y-120736392D01*
X133774145Y-121337135D01*
X133901000Y-121974879D01*
X133901000Y-122625121D01*
X133774145Y-123262865D01*
X133525309Y-123863608D01*
X133525308Y-123863610D01*
X133164054Y-124404265D01*
X132704265Y-124864054D01*
X132163610Y-125225308D01*
X132163609Y-125225309D01*
X132163608Y-125225309D01*
X131562865Y-125474145D01*
X130925121Y-125601000D01*
X130274879Y-125601000D01*
X129637135Y-125474145D01*
X129036392Y-125225309D01*
X129036391Y-125225309D01*
X129036390Y-125225308D01*
X128495735Y-124864054D01*
X128035946Y-124404265D01*
X127674692Y-123863610D01*
X127674691Y-123863608D01*
X127425855Y-123262865D01*
X127299000Y-122625121D01*
X127299000Y-121974879D01*
X127425855Y-121337135D01*
X127674691Y-120736392D01*
X127674692Y-120736390D01*
X128035946Y-120195735D01*
X128495735Y-119735946D01*
X129036390Y-119374692D01*
X129036392Y-119374691D01*
X129637135Y-119125855D01*
X130274879Y-118999000D01*
X130925121Y-118999000D01*
X131562865Y-119125855D01*
G37*
G36*
X149562865Y-119125855D02*
G01*
X150163608Y-119374691D01*
X150163610Y-119374692D01*
X150704265Y-119735946D01*
X151164054Y-120195735D01*
X151525308Y-120736390D01*
X151525309Y-120736392D01*
X151774145Y-121337135D01*
X151901000Y-121974879D01*
X151901000Y-122625121D01*
X151774145Y-123262865D01*
X151525309Y-123863608D01*
X151525308Y-123863610D01*
X151164054Y-124404265D01*
X150704265Y-124864054D01*
X150163610Y-125225308D01*
X150163609Y-125225309D01*
X150163608Y-125225309D01*
X149562865Y-125474145D01*
X148925121Y-125601000D01*
X148274879Y-125601000D01*
X147637135Y-125474145D01*
X147036392Y-125225309D01*
X147036391Y-125225309D01*
X147036390Y-125225308D01*
X146495735Y-124864054D01*
X146035946Y-124404265D01*
X145674692Y-123863610D01*
X145674691Y-123863608D01*
X145425855Y-123262865D01*
X145299000Y-122625121D01*
X145299000Y-121974879D01*
X145425855Y-121337135D01*
X145674691Y-120736392D01*
X145674692Y-120736390D01*
X146035946Y-120195735D01*
X146495735Y-119735946D01*
X147036390Y-119374692D01*
X147036392Y-119374691D01*
X147637135Y-119125855D01*
X148274879Y-118999000D01*
X148925121Y-118999000D01*
X149562865Y-119125855D01*
G37*
G36*
X167062865Y-119125855D02*
G01*
X167663608Y-119374691D01*
X167663610Y-119374692D01*
X168204265Y-119735946D01*
X168664054Y-120195735D01*
X169025308Y-120736390D01*
X169025309Y-120736392D01*
X169274145Y-121337135D01*
X169401000Y-121974879D01*
X169401000Y-122625121D01*
X169274145Y-123262865D01*
X169025309Y-123863608D01*
X169025308Y-123863610D01*
X168664054Y-124404265D01*
X168204265Y-124864054D01*
X167663610Y-125225308D01*
X167663609Y-125225309D01*
X167663608Y-125225309D01*
X167062865Y-125474145D01*
X166425121Y-125601000D01*
X165774879Y-125601000D01*
X165137135Y-125474145D01*
X164536392Y-125225309D01*
X164536391Y-125225309D01*
X164536390Y-125225308D01*
X163995735Y-124864054D01*
X163535946Y-124404265D01*
X163174692Y-123863610D01*
X163174691Y-123863608D01*
X162925855Y-123262865D01*
X162799000Y-122625121D01*
X162799000Y-121974879D01*
X162925855Y-121337135D01*
X163174691Y-120736392D01*
X163174692Y-120736390D01*
X163535946Y-120195735D01*
X163995735Y-119735946D01*
X164536390Y-119374692D01*
X164536392Y-119374691D01*
X165137135Y-119125855D01*
X165774879Y-118999000D01*
X166425121Y-118999000D01*
X167062865Y-119125855D01*
G37*
G36*
X184462865Y-117525855D02*
G01*
X185063608Y-117774691D01*
X185063610Y-117774692D01*
X185604265Y-118135946D01*
X186064054Y-118595735D01*
X186418269Y-119125856D01*
X186425309Y-119136392D01*
X186674145Y-119737135D01*
X186801000Y-120374879D01*
X186801000Y-121025121D01*
X186674145Y-121662865D01*
X186544904Y-121974880D01*
X186425308Y-122263610D01*
X186064054Y-122804265D01*
X185604265Y-123264054D01*
X185063610Y-123625308D01*
X185063609Y-123625309D01*
X185063608Y-123625309D01*
X184462865Y-123874145D01*
X183825121Y-124001000D01*
X183174879Y-124001000D01*
X182537135Y-123874145D01*
X181936392Y-123625309D01*
X181936391Y-123625309D01*
X181936390Y-123625308D01*
X181395735Y-123264054D01*
X180935946Y-122804265D01*
X180574692Y-122263610D01*
X180455096Y-121974880D01*
X180325855Y-121662865D01*
X180199000Y-121025121D01*
X180199000Y-120374879D01*
X180325855Y-119737135D01*
X180574691Y-119136392D01*
X180581731Y-119125856D01*
X180935946Y-118595735D01*
X181395735Y-118135946D01*
X181936390Y-117774692D01*
X181936392Y-117774691D01*
X182537135Y-117525855D01*
X183174879Y-117399000D01*
X183825121Y-117399000D01*
X184462865Y-117525855D01*
G37*
G36*
X110985401Y-106046054D02*
G01*
X111473322Y-106143107D01*
X112392546Y-106523862D01*
X113219825Y-107076632D01*
X113923368Y-107780175D01*
X114476138Y-108607454D01*
X114856893Y-109526678D01*
X115051000Y-110502520D01*
X115051000Y-111497480D01*
X114856893Y-112473322D01*
X114476138Y-113392546D01*
X113923368Y-114219825D01*
X113219825Y-114923368D01*
X112392546Y-115476138D01*
X111473322Y-115856893D01*
X110985401Y-115953946D01*
X110497481Y-116051000D01*
X109502519Y-116051000D01*
X109014599Y-115953946D01*
X108526678Y-115856893D01*
X107607454Y-115476138D01*
X106780175Y-114923368D01*
X106076632Y-114219825D01*
X105523862Y-113392546D01*
X105143107Y-112473322D01*
X104949000Y-111497480D01*
X104949000Y-110502520D01*
X105143107Y-109526678D01*
X105523862Y-108607454D01*
X106076632Y-107780175D01*
X106780175Y-107076632D01*
X107607454Y-106523862D01*
X108526678Y-106143107D01*
X109014599Y-106046053D01*
X109502519Y-105949000D01*
X110497481Y-105949000D01*
X110985401Y-106046054D01*
G37*
G36*
X170113512Y-90803927D02*
G01*
X170262812Y-90833624D01*
X170426784Y-90901544D01*
X170574354Y-91000147D01*
X170699853Y-91125646D01*
X170798456Y-91273216D01*
X170866376Y-91437188D01*
X170901000Y-91611259D01*
X170901000Y-91788741D01*
X170866376Y-91962812D01*
X170798456Y-92126784D01*
X170699853Y-92274354D01*
X170574354Y-92399853D01*
X170426784Y-92498456D01*
X170262812Y-92566376D01*
X170113512Y-92596073D01*
X170088742Y-92601000D01*
X169911258Y-92601000D01*
X169886488Y-92596073D01*
X169737188Y-92566376D01*
X169573216Y-92498456D01*
X169425646Y-92399853D01*
X169300147Y-92274354D01*
X169201544Y-92126784D01*
X169133624Y-91962812D01*
X169099000Y-91788741D01*
X169099000Y-91611259D01*
X169133624Y-91437188D01*
X169201544Y-91273216D01*
X169300147Y-91125646D01*
X169425646Y-91000147D01*
X169573216Y-90901544D01*
X169737188Y-90833624D01*
X169886488Y-90803927D01*
X169911258Y-90799000D01*
X170088742Y-90799000D01*
X170113512Y-90803927D01*
G37*
G36*
X170113512Y-88263927D02*
G01*
X170262812Y-88293624D01*
X170426784Y-88361544D01*
X170574354Y-88460147D01*
X170699853Y-88585646D01*
X170798456Y-88733216D01*
X170866376Y-88897188D01*
X170901000Y-89071259D01*
X170901000Y-89248741D01*
X170866376Y-89422812D01*
X170798456Y-89586784D01*
X170699853Y-89734354D01*
X170574354Y-89859853D01*
X170426784Y-89958456D01*
X170262812Y-90026376D01*
X170113512Y-90056073D01*
X170088742Y-90061000D01*
X169911258Y-90061000D01*
X169886488Y-90056073D01*
X169737188Y-90026376D01*
X169573216Y-89958456D01*
X169425646Y-89859853D01*
X169300147Y-89734354D01*
X169201544Y-89586784D01*
X169133624Y-89422812D01*
X169099000Y-89248741D01*
X169099000Y-89071259D01*
X169133624Y-88897188D01*
X169201544Y-88733216D01*
X169300147Y-88585646D01*
X169425646Y-88460147D01*
X169573216Y-88361544D01*
X169737188Y-88293624D01*
X169886488Y-88263927D01*
X169911258Y-88259000D01*
X170088742Y-88259000D01*
X170113512Y-88263927D01*
G37*
G36*
X176901531Y-85821544D02*
G01*
X177062812Y-85853624D01*
X177226784Y-85921544D01*
X177374354Y-86020147D01*
X177499853Y-86145646D01*
X177598456Y-86293216D01*
X177666376Y-86457188D01*
X177701000Y-86631259D01*
X177701000Y-86808741D01*
X177666376Y-86982812D01*
X177598456Y-87146784D01*
X177499853Y-87294354D01*
X177374354Y-87419853D01*
X177226784Y-87518456D01*
X177062812Y-87586376D01*
X176913512Y-87616073D01*
X176888742Y-87621000D01*
X176711258Y-87621000D01*
X176686488Y-87616073D01*
X176537188Y-87586376D01*
X176373216Y-87518456D01*
X176225646Y-87419853D01*
X176100147Y-87294354D01*
X176001544Y-87146784D01*
X175933624Y-86982812D01*
X175899000Y-86808741D01*
X175899000Y-86631259D01*
X175933624Y-86457188D01*
X176001544Y-86293216D01*
X176100147Y-86145646D01*
X176225646Y-86020147D01*
X176373216Y-85921544D01*
X176537188Y-85853624D01*
X176698469Y-85821544D01*
X176711258Y-85819000D01*
X176888742Y-85819000D01*
X176901531Y-85821544D01*
G37*
G36*
X170113512Y-85723927D02*
G01*
X170262812Y-85753624D01*
X170426784Y-85821544D01*
X170574354Y-85920147D01*
X170699853Y-86045646D01*
X170798456Y-86193216D01*
X170866376Y-86357188D01*
X170901000Y-86531259D01*
X170901000Y-86708741D01*
X170866376Y-86882812D01*
X170798456Y-87046784D01*
X170699853Y-87194354D01*
X170574354Y-87319853D01*
X170426784Y-87418456D01*
X170262812Y-87486376D01*
X170113512Y-87516073D01*
X170088742Y-87521000D01*
X169911258Y-87521000D01*
X169886488Y-87516073D01*
X169737188Y-87486376D01*
X169573216Y-87418456D01*
X169425646Y-87319853D01*
X169300147Y-87194354D01*
X169201544Y-87046784D01*
X169133624Y-86882812D01*
X169099000Y-86708741D01*
X169099000Y-86531259D01*
X169133624Y-86357188D01*
X169201544Y-86193216D01*
X169300147Y-86045646D01*
X169425646Y-85920147D01*
X169573216Y-85821544D01*
X169737188Y-85753624D01*
X169886488Y-85723927D01*
X169911258Y-85719000D01*
X170088742Y-85719000D01*
X170113512Y-85723927D01*
G37*
G36*
X176901531Y-83281544D02*
G01*
X177062812Y-83313624D01*
X177226784Y-83381544D01*
X177374354Y-83480147D01*
X177499853Y-83605646D01*
X177598456Y-83753216D01*
X177666376Y-83917188D01*
X177701000Y-84091259D01*
X177701000Y-84268741D01*
X177666376Y-84442812D01*
X177598456Y-84606784D01*
X177499853Y-84754354D01*
X177374354Y-84879853D01*
X177226784Y-84978456D01*
X177062812Y-85046376D01*
X176913512Y-85076073D01*
X176888742Y-85081000D01*
X176711258Y-85081000D01*
X176686488Y-85076073D01*
X176537188Y-85046376D01*
X176373216Y-84978456D01*
X176225646Y-84879853D01*
X176100147Y-84754354D01*
X176001544Y-84606784D01*
X175933624Y-84442812D01*
X175899000Y-84268741D01*
X175899000Y-84091259D01*
X175933624Y-83917188D01*
X176001544Y-83753216D01*
X176100147Y-83605646D01*
X176225646Y-83480147D01*
X176373216Y-83381544D01*
X176537188Y-83313624D01*
X176698469Y-83281544D01*
X176711258Y-83279000D01*
X176888742Y-83279000D01*
X176901531Y-83281544D01*
G37*
G36*
X170113512Y-83183927D02*
G01*
X170262812Y-83213624D01*
X170426784Y-83281544D01*
X170574354Y-83380147D01*
X170699853Y-83505646D01*
X170798456Y-83653216D01*
X170866376Y-83817188D01*
X170901000Y-83991259D01*
X170901000Y-84168741D01*
X170866376Y-84342812D01*
X170798456Y-84506784D01*
X170699853Y-84654354D01*
X170574354Y-84779853D01*
X170426784Y-84878456D01*
X170262812Y-84946376D01*
X170113512Y-84976073D01*
X170088742Y-84981000D01*
X169911258Y-84981000D01*
X169886488Y-84976073D01*
X169737188Y-84946376D01*
X169573216Y-84878456D01*
X169425646Y-84779853D01*
X169300147Y-84654354D01*
X169201544Y-84506784D01*
X169133624Y-84342812D01*
X169099000Y-84168741D01*
X169099000Y-83991259D01*
X169133624Y-83817188D01*
X169201544Y-83653216D01*
X169300147Y-83505646D01*
X169425646Y-83380147D01*
X169573216Y-83281544D01*
X169737188Y-83213624D01*
X169886488Y-83183927D01*
X169911258Y-83179000D01*
X170088742Y-83179000D01*
X170113512Y-83183927D01*
G37*
G36*
X176901531Y-80741544D02*
G01*
X177062812Y-80773624D01*
X177226784Y-80841544D01*
X177374354Y-80940147D01*
X177499853Y-81065646D01*
X177598456Y-81213216D01*
X177666376Y-81377188D01*
X177701000Y-81551259D01*
X177701000Y-81728741D01*
X177666376Y-81902812D01*
X177598456Y-82066784D01*
X177499853Y-82214354D01*
X177374354Y-82339853D01*
X177226784Y-82438456D01*
X177062812Y-82506376D01*
X176913512Y-82536073D01*
X176888742Y-82541000D01*
X176711258Y-82541000D01*
X176686488Y-82536073D01*
X176537188Y-82506376D01*
X176373216Y-82438456D01*
X176225646Y-82339853D01*
X176100147Y-82214354D01*
X176001544Y-82066784D01*
X175933624Y-81902812D01*
X175899000Y-81728741D01*
X175899000Y-81551259D01*
X175933624Y-81377188D01*
X176001544Y-81213216D01*
X176100147Y-81065646D01*
X176225646Y-80940147D01*
X176373216Y-80841544D01*
X176537188Y-80773624D01*
X176698469Y-80741544D01*
X176711258Y-80739000D01*
X176888742Y-80739000D01*
X176901531Y-80741544D01*
G37*
G36*
X170113512Y-80643927D02*
G01*
X170262812Y-80673624D01*
X170426784Y-80741544D01*
X170574354Y-80840147D01*
X170699853Y-80965646D01*
X170798456Y-81113216D01*
X170866376Y-81277188D01*
X170901000Y-81451259D01*
X170901000Y-81628741D01*
X170866376Y-81802812D01*
X170798456Y-81966784D01*
X170699853Y-82114354D01*
X170574354Y-82239853D01*
X170426784Y-82338456D01*
X170262812Y-82406376D01*
X170113512Y-82436073D01*
X170088742Y-82441000D01*
X169911258Y-82441000D01*
X169886488Y-82436073D01*
X169737188Y-82406376D01*
X169573216Y-82338456D01*
X169425646Y-82239853D01*
X169300147Y-82114354D01*
X169201544Y-81966784D01*
X169133624Y-81802812D01*
X169099000Y-81628741D01*
X169099000Y-81451259D01*
X169133624Y-81277188D01*
X169201544Y-81113216D01*
X169300147Y-80965646D01*
X169425646Y-80840147D01*
X169573216Y-80741544D01*
X169737188Y-80673624D01*
X169886488Y-80643927D01*
X169911258Y-80639000D01*
X170088742Y-80639000D01*
X170113512Y-80643927D01*
G37*
G36*
X185834239Y-75811467D02*
G01*
X186148282Y-75873934D01*
X186739926Y-76119001D01*
X187272392Y-76474784D01*
X187725216Y-76927608D01*
X188080999Y-77460074D01*
X188326066Y-78051718D01*
X188326066Y-78051719D01*
X188451000Y-78679803D01*
X188451000Y-79320197D01*
X188388533Y-79634239D01*
X188326066Y-79948282D01*
X188080999Y-80539926D01*
X187879464Y-80841544D01*
X187725217Y-81072391D01*
X187272391Y-81525217D01*
X187233416Y-81551259D01*
X186739926Y-81880999D01*
X186148282Y-82126066D01*
X185834239Y-82188533D01*
X185520197Y-82251000D01*
X184879803Y-82251000D01*
X184565761Y-82188533D01*
X184251718Y-82126066D01*
X183660074Y-81880999D01*
X183166584Y-81551259D01*
X183127609Y-81525217D01*
X182674783Y-81072391D01*
X182520536Y-80841544D01*
X182319001Y-80539926D01*
X182073934Y-79948282D01*
X182011467Y-79634239D01*
X181949000Y-79320197D01*
X181949000Y-78679803D01*
X182073934Y-78051719D01*
X182073934Y-78051718D01*
X182319001Y-77460074D01*
X182674784Y-76927608D01*
X183127608Y-76474784D01*
X183660074Y-76119001D01*
X184251718Y-75873934D01*
X184565761Y-75811467D01*
X184879803Y-75749000D01*
X185520197Y-75749000D01*
X185834239Y-75811467D01*
G37*
G36*
X106434239Y-75811467D02*
G01*
X106748282Y-75873934D01*
X107339926Y-76119001D01*
X107872392Y-76474784D01*
X108325216Y-76927608D01*
X108680999Y-77460074D01*
X108926066Y-78051718D01*
X108926066Y-78051719D01*
X109051000Y-78679803D01*
X109051000Y-79320197D01*
X108988533Y-79634239D01*
X108926066Y-79948282D01*
X108680999Y-80539926D01*
X108479464Y-80841544D01*
X108325217Y-81072391D01*
X107872391Y-81525217D01*
X107833416Y-81551259D01*
X107339926Y-81880999D01*
X106748282Y-82126066D01*
X106434239Y-82188533D01*
X106120197Y-82251000D01*
X105479803Y-82251000D01*
X105165761Y-82188533D01*
X104851718Y-82126066D01*
X104260074Y-81880999D01*
X103766584Y-81551259D01*
X103727609Y-81525217D01*
X103274783Y-81072391D01*
X103120536Y-80841544D01*
X102919001Y-80539926D01*
X102673934Y-79948282D01*
X102611467Y-79634239D01*
X102549000Y-79320197D01*
X102549000Y-78679803D01*
X102673934Y-78051719D01*
X102673934Y-78051718D01*
X102919001Y-77460074D01*
X103274784Y-76927608D01*
X103727608Y-76474784D01*
X104260074Y-76119001D01*
X104851718Y-75873934D01*
X105165761Y-75811467D01*
X105479803Y-75749000D01*
X106120197Y-75749000D01*
X106434239Y-75811467D01*
G37*
G36*
X177701000Y-80001000D02*
G01*
X175899000Y-80001000D01*
X175899000Y-78199000D01*
X177701000Y-78199000D01*
X177701000Y-80001000D01*
G37*
G36*
X170901000Y-79901000D02*
G01*
X169099000Y-79901000D01*
X169099000Y-78099000D01*
X170901000Y-78099000D01*
X170901000Y-79901000D01*
G37*
M02*
