G04 #@! TF.GenerationSoftware,KiCad,Pcbnew,(5.1.7-0-10_14)*
G04 #@! TF.CreationDate,2021-02-08T09:34:28+11:00*
G04 #@! TF.ProjectId,esp32_battery_isolator,65737033-325f-4626-9174-746572795f69,D*
G04 #@! TF.SameCoordinates,Original*
G04 #@! TF.FileFunction,Soldermask,Bot*
G04 #@! TF.FilePolarity,Negative*
%FSLAX46Y46*%
G04 Gerber Fmt 4.6, Leading zero omitted, Abs format (unit mm)*
G04 Created by KiCad (PCBNEW (5.1.7-0-10_14)) date 2021-02-08 09:34:28*
%MOMM*%
%LPD*%
G01*
G04 APERTURE LIST*
%ADD10O,1.900000X1.070000*%
%ADD11C,1.300000*%
%ADD12C,0.800000*%
%ADD13C,6.400000*%
%ADD14R,1.700000X1.700000*%
%ADD15O,1.700000X1.700000*%
%ADD16R,3.716000X3.716000*%
%ADD17C,3.716000*%
%ADD18O,2.400000X1.200000*%
%ADD19O,1.300000X2.600000*%
G04 APERTURE END LIST*
D10*
X174050000Y-112300000D03*
X173950000Y-119500000D03*
D11*
X171050000Y-113500000D03*
X171050000Y-118300000D03*
D12*
X112847056Y-129152944D03*
X111150000Y-128450000D03*
X109452944Y-129152944D03*
X108750000Y-130850000D03*
X109452944Y-132547056D03*
X111150000Y-133250000D03*
X112847056Y-132547056D03*
X113550000Y-130850000D03*
D13*
X111150000Y-130850000D03*
D12*
X173647056Y-76852944D03*
X171950000Y-76150000D03*
X170252944Y-76852944D03*
X169550000Y-78550000D03*
X170252944Y-80247056D03*
X171950000Y-80950000D03*
X173647056Y-80247056D03*
X174350000Y-78550000D03*
D13*
X171950000Y-78550000D03*
X171950000Y-130850000D03*
D12*
X174350000Y-130850000D03*
X173647056Y-132547056D03*
X171950000Y-133250000D03*
X170252944Y-132547056D03*
X169550000Y-130850000D03*
X170252944Y-129152944D03*
X171950000Y-128450000D03*
X173647056Y-129152944D03*
X112847056Y-76952944D03*
X111150000Y-76250000D03*
X109452944Y-76952944D03*
X108750000Y-78650000D03*
X109452944Y-80347056D03*
X111150000Y-81050000D03*
X112847056Y-80347056D03*
X113550000Y-78650000D03*
D13*
X111150000Y-78650000D03*
D14*
X161050000Y-92450000D03*
D15*
X161050000Y-94990000D03*
X161050000Y-97530000D03*
X161050000Y-100070000D03*
D16*
X118150000Y-94250000D03*
D17*
X118150000Y-87050000D03*
D18*
X112150000Y-97400000D03*
X112150000Y-83900000D03*
X112150000Y-100900000D03*
X112150000Y-114400000D03*
D17*
X118150000Y-104050000D03*
D16*
X118150000Y-111250000D03*
D17*
X120050000Y-123150000D03*
X127250000Y-123150000D03*
D19*
X116900000Y-129150000D03*
X130400000Y-129150000D03*
D16*
X165650000Y-91550000D03*
D17*
X165650000Y-98750000D03*
D18*
X171650000Y-88400000D03*
X171650000Y-101900000D03*
D19*
X148400000Y-129150000D03*
X134900000Y-129150000D03*
D17*
X145250000Y-123150000D03*
X138050000Y-123150000D03*
X156050000Y-123150000D03*
X163250000Y-123150000D03*
D19*
X152900000Y-129150000D03*
X166400000Y-129150000D03*
M02*
