G04 #@! TF.GenerationSoftware,KiCad,Pcbnew,(5.1.5-0-10_14)*
G04 #@! TF.CreationDate,2020-07-17T10:51:53+10:00*
G04 #@! TF.ProjectId,esp32_battery_isolator,65737033-325f-4626-9174-746572795f69,rev?*
G04 #@! TF.SameCoordinates,Original*
G04 #@! TF.FileFunction,Soldermask,Top*
G04 #@! TF.FilePolarity,Negative*
%FSLAX46Y46*%
G04 Gerber Fmt 4.6, Leading zero omitted, Abs format (unit mm)*
G04 Created by KiCad (PCBNEW (5.1.5-0-10_14)) date 2020-07-17 10:51:53*
%MOMM*%
%LPD*%
G04 APERTURE LIST*
%ADD10C,0.100000*%
G04 APERTURE END LIST*
D10*
G36*
X185834239Y-133811467D02*
G01*
X186148282Y-133873934D01*
X186739926Y-134119001D01*
X187272392Y-134474784D01*
X187725216Y-134927608D01*
X188080999Y-135460074D01*
X188326066Y-136051718D01*
X188326066Y-136051719D01*
X188451000Y-136679803D01*
X188451000Y-137320197D01*
X188388533Y-137634239D01*
X188326066Y-137948282D01*
X188080999Y-138539926D01*
X187725216Y-139072392D01*
X187272392Y-139525216D01*
X186739926Y-139880999D01*
X186148282Y-140126066D01*
X185834239Y-140188533D01*
X185520197Y-140251000D01*
X184879803Y-140251000D01*
X184565761Y-140188533D01*
X184251718Y-140126066D01*
X183660074Y-139880999D01*
X183127608Y-139525216D01*
X182674784Y-139072392D01*
X182319001Y-138539926D01*
X182073934Y-137948282D01*
X182011467Y-137634239D01*
X181949000Y-137320197D01*
X181949000Y-136679803D01*
X182073934Y-136051719D01*
X182073934Y-136051718D01*
X182319001Y-135460074D01*
X182674784Y-134927608D01*
X183127608Y-134474784D01*
X183660074Y-134119001D01*
X184251718Y-133873934D01*
X184565761Y-133811467D01*
X184879803Y-133749000D01*
X185520197Y-133749000D01*
X185834239Y-133811467D01*
G37*
G36*
X106434239Y-133811467D02*
G01*
X106748282Y-133873934D01*
X107339926Y-134119001D01*
X107872392Y-134474784D01*
X108325216Y-134927608D01*
X108680999Y-135460074D01*
X108926066Y-136051718D01*
X108926066Y-136051719D01*
X109051000Y-136679803D01*
X109051000Y-137320197D01*
X108988533Y-137634239D01*
X108926066Y-137948282D01*
X108680999Y-138539926D01*
X108325216Y-139072392D01*
X107872392Y-139525216D01*
X107339926Y-139880999D01*
X106748282Y-140126066D01*
X106434239Y-140188533D01*
X106120197Y-140251000D01*
X105479803Y-140251000D01*
X105165761Y-140188533D01*
X104851718Y-140126066D01*
X104260074Y-139880999D01*
X103727608Y-139525216D01*
X103274784Y-139072392D01*
X102919001Y-138539926D01*
X102673934Y-137948282D01*
X102611467Y-137634239D01*
X102549000Y-137320197D01*
X102549000Y-136679803D01*
X102673934Y-136051719D01*
X102673934Y-136051718D01*
X102919001Y-135460074D01*
X103274784Y-134927608D01*
X103727608Y-134474784D01*
X104260074Y-134119001D01*
X104851718Y-133873934D01*
X105165761Y-133811467D01*
X105479803Y-133749000D01*
X106120197Y-133749000D01*
X106434239Y-133811467D01*
G37*
G36*
X132622684Y-126230106D02*
G01*
X132920472Y-126320439D01*
X133194909Y-126467128D01*
X133435458Y-126664542D01*
X133632872Y-126905091D01*
X133779561Y-127179528D01*
X133869894Y-127477316D01*
X133901000Y-127793140D01*
X133901000Y-131206860D01*
X133869894Y-131522684D01*
X133779561Y-131820472D01*
X133632872Y-132094909D01*
X133435458Y-132335458D01*
X133194909Y-132532872D01*
X132920472Y-132679561D01*
X132622684Y-132769894D01*
X132306860Y-132801000D01*
X128893140Y-132801000D01*
X128577316Y-132769894D01*
X128279528Y-132679561D01*
X128005091Y-132532872D01*
X127764542Y-132335458D01*
X127567128Y-132094909D01*
X127420439Y-131820472D01*
X127330106Y-131522684D01*
X127299000Y-131206860D01*
X127299000Y-127793140D01*
X127330106Y-127477316D01*
X127420439Y-127179528D01*
X127567128Y-126905091D01*
X127764542Y-126664542D01*
X128005091Y-126467128D01*
X128279528Y-126320439D01*
X128577316Y-126230106D01*
X128893140Y-126199000D01*
X132306860Y-126199000D01*
X132622684Y-126230106D01*
G37*
G36*
X168122684Y-126230106D02*
G01*
X168420472Y-126320439D01*
X168694909Y-126467128D01*
X168935458Y-126664542D01*
X169132872Y-126905091D01*
X169279561Y-127179528D01*
X169369894Y-127477316D01*
X169401000Y-127793140D01*
X169401000Y-131206860D01*
X169369894Y-131522684D01*
X169279561Y-131820472D01*
X169132872Y-132094909D01*
X168935458Y-132335458D01*
X168694909Y-132532872D01*
X168420472Y-132679561D01*
X168122684Y-132769894D01*
X167806860Y-132801000D01*
X164393140Y-132801000D01*
X164077316Y-132769894D01*
X163779528Y-132679561D01*
X163505091Y-132532872D01*
X163264542Y-132335458D01*
X163067128Y-132094909D01*
X162920439Y-131820472D01*
X162830106Y-131522684D01*
X162799000Y-131206860D01*
X162799000Y-127793140D01*
X162830106Y-127477316D01*
X162920439Y-127179528D01*
X163067128Y-126905091D01*
X163264542Y-126664542D01*
X163505091Y-126467128D01*
X163779528Y-126320439D01*
X164077316Y-126230106D01*
X164393140Y-126199000D01*
X167806860Y-126199000D01*
X168122684Y-126230106D01*
G37*
G36*
X150622684Y-126230106D02*
G01*
X150920472Y-126320439D01*
X151194909Y-126467128D01*
X151435458Y-126664542D01*
X151632872Y-126905091D01*
X151779561Y-127179528D01*
X151869894Y-127477316D01*
X151901000Y-127793140D01*
X151901000Y-131206860D01*
X151869894Y-131522684D01*
X151779561Y-131820472D01*
X151632872Y-132094909D01*
X151435458Y-132335458D01*
X151194909Y-132532872D01*
X150920472Y-132679561D01*
X150622684Y-132769894D01*
X150306860Y-132801000D01*
X146893140Y-132801000D01*
X146577316Y-132769894D01*
X146279528Y-132679561D01*
X146005091Y-132532872D01*
X145764542Y-132335458D01*
X145567128Y-132094909D01*
X145420439Y-131820472D01*
X145330106Y-131522684D01*
X145299000Y-131206860D01*
X145299000Y-127793140D01*
X145330106Y-127477316D01*
X145420439Y-127179528D01*
X145567128Y-126905091D01*
X145764542Y-126664542D01*
X146005091Y-126467128D01*
X146279528Y-126320439D01*
X146577316Y-126230106D01*
X146893140Y-126199000D01*
X150306860Y-126199000D01*
X150622684Y-126230106D01*
G37*
G36*
X125379591Y-130603085D02*
G01*
X125413569Y-130613393D01*
X125444890Y-130630134D01*
X125472339Y-130652661D01*
X125494866Y-130680110D01*
X125511607Y-130711431D01*
X125521915Y-130745409D01*
X125526000Y-130786890D01*
X125526000Y-131388110D01*
X125521915Y-131429591D01*
X125511607Y-131463569D01*
X125494866Y-131494890D01*
X125472339Y-131522339D01*
X125444890Y-131544866D01*
X125413569Y-131561607D01*
X125379591Y-131571915D01*
X125338110Y-131576000D01*
X124661890Y-131576000D01*
X124620409Y-131571915D01*
X124586431Y-131561607D01*
X124555110Y-131544866D01*
X124527661Y-131522339D01*
X124505134Y-131494890D01*
X124488393Y-131463569D01*
X124478085Y-131429591D01*
X124474000Y-131388110D01*
X124474000Y-130786890D01*
X124478085Y-130745409D01*
X124488393Y-130711431D01*
X124505134Y-130680110D01*
X124527661Y-130652661D01*
X124555110Y-130630134D01*
X124586431Y-130613393D01*
X124620409Y-130603085D01*
X124661890Y-130599000D01*
X125338110Y-130599000D01*
X125379591Y-130603085D01*
G37*
G36*
X118379591Y-130603085D02*
G01*
X118413569Y-130613393D01*
X118444890Y-130630134D01*
X118472339Y-130652661D01*
X118494866Y-130680110D01*
X118511607Y-130711431D01*
X118521915Y-130745409D01*
X118526000Y-130786890D01*
X118526000Y-131388110D01*
X118521915Y-131429591D01*
X118511607Y-131463569D01*
X118494866Y-131494890D01*
X118472339Y-131522339D01*
X118444890Y-131544866D01*
X118413569Y-131561607D01*
X118379591Y-131571915D01*
X118338110Y-131576000D01*
X117661890Y-131576000D01*
X117620409Y-131571915D01*
X117586431Y-131561607D01*
X117555110Y-131544866D01*
X117527661Y-131522339D01*
X117505134Y-131494890D01*
X117488393Y-131463569D01*
X117478085Y-131429591D01*
X117474000Y-131388110D01*
X117474000Y-130786890D01*
X117478085Y-130745409D01*
X117488393Y-130711431D01*
X117505134Y-130680110D01*
X117527661Y-130652661D01*
X117555110Y-130630134D01*
X117586431Y-130613393D01*
X117620409Y-130603085D01*
X117661890Y-130599000D01*
X118338110Y-130599000D01*
X118379591Y-130603085D01*
G37*
G36*
X140979591Y-130603085D02*
G01*
X141013569Y-130613393D01*
X141044890Y-130630134D01*
X141072339Y-130652661D01*
X141094866Y-130680110D01*
X141111607Y-130711431D01*
X141121915Y-130745409D01*
X141126000Y-130786890D01*
X141126000Y-131388110D01*
X141121915Y-131429591D01*
X141111607Y-131463569D01*
X141094866Y-131494890D01*
X141072339Y-131522339D01*
X141044890Y-131544866D01*
X141013569Y-131561607D01*
X140979591Y-131571915D01*
X140938110Y-131576000D01*
X140261890Y-131576000D01*
X140220409Y-131571915D01*
X140186431Y-131561607D01*
X140155110Y-131544866D01*
X140127661Y-131522339D01*
X140105134Y-131494890D01*
X140088393Y-131463569D01*
X140078085Y-131429591D01*
X140074000Y-131388110D01*
X140074000Y-130786890D01*
X140078085Y-130745409D01*
X140088393Y-130711431D01*
X140105134Y-130680110D01*
X140127661Y-130652661D01*
X140155110Y-130630134D01*
X140186431Y-130613393D01*
X140220409Y-130603085D01*
X140261890Y-130599000D01*
X140938110Y-130599000D01*
X140979591Y-130603085D01*
G37*
G36*
X123579591Y-130603085D02*
G01*
X123613569Y-130613393D01*
X123644890Y-130630134D01*
X123672339Y-130652661D01*
X123694866Y-130680110D01*
X123711607Y-130711431D01*
X123721915Y-130745409D01*
X123726000Y-130786890D01*
X123726000Y-131388110D01*
X123721915Y-131429591D01*
X123711607Y-131463569D01*
X123694866Y-131494890D01*
X123672339Y-131522339D01*
X123644890Y-131544866D01*
X123613569Y-131561607D01*
X123579591Y-131571915D01*
X123538110Y-131576000D01*
X122861890Y-131576000D01*
X122820409Y-131571915D01*
X122786431Y-131561607D01*
X122755110Y-131544866D01*
X122727661Y-131522339D01*
X122705134Y-131494890D01*
X122688393Y-131463569D01*
X122678085Y-131429591D01*
X122674000Y-131388110D01*
X122674000Y-130786890D01*
X122678085Y-130745409D01*
X122688393Y-130711431D01*
X122705134Y-130680110D01*
X122727661Y-130652661D01*
X122755110Y-130630134D01*
X122786431Y-130613393D01*
X122820409Y-130603085D01*
X122861890Y-130599000D01*
X123538110Y-130599000D01*
X123579591Y-130603085D01*
G37*
G36*
X116479591Y-130603085D02*
G01*
X116513569Y-130613393D01*
X116544890Y-130630134D01*
X116572339Y-130652661D01*
X116594866Y-130680110D01*
X116611607Y-130711431D01*
X116621915Y-130745409D01*
X116626000Y-130786890D01*
X116626000Y-131388110D01*
X116621915Y-131429591D01*
X116611607Y-131463569D01*
X116594866Y-131494890D01*
X116572339Y-131522339D01*
X116544890Y-131544866D01*
X116513569Y-131561607D01*
X116479591Y-131571915D01*
X116438110Y-131576000D01*
X115761890Y-131576000D01*
X115720409Y-131571915D01*
X115686431Y-131561607D01*
X115655110Y-131544866D01*
X115627661Y-131522339D01*
X115605134Y-131494890D01*
X115588393Y-131463569D01*
X115578085Y-131429591D01*
X115574000Y-131388110D01*
X115574000Y-130786890D01*
X115578085Y-130745409D01*
X115588393Y-130711431D01*
X115605134Y-130680110D01*
X115627661Y-130652661D01*
X115655110Y-130630134D01*
X115686431Y-130613393D01*
X115720409Y-130603085D01*
X115761890Y-130599000D01*
X116438110Y-130599000D01*
X116479591Y-130603085D01*
G37*
G36*
X142779591Y-130553085D02*
G01*
X142813569Y-130563393D01*
X142844890Y-130580134D01*
X142872339Y-130602661D01*
X142894866Y-130630110D01*
X142911607Y-130661431D01*
X142921915Y-130695409D01*
X142926000Y-130736890D01*
X142926000Y-131338110D01*
X142921915Y-131379591D01*
X142911607Y-131413569D01*
X142894866Y-131444890D01*
X142872339Y-131472339D01*
X142844890Y-131494866D01*
X142813569Y-131511607D01*
X142779591Y-131521915D01*
X142738110Y-131526000D01*
X142061890Y-131526000D01*
X142020409Y-131521915D01*
X141986431Y-131511607D01*
X141955110Y-131494866D01*
X141927661Y-131472339D01*
X141905134Y-131444890D01*
X141888393Y-131413569D01*
X141878085Y-131379591D01*
X141874000Y-131338110D01*
X141874000Y-130736890D01*
X141878085Y-130695409D01*
X141888393Y-130661431D01*
X141905134Y-130630110D01*
X141927661Y-130602661D01*
X141955110Y-130580134D01*
X141986431Y-130563393D01*
X142020409Y-130553085D01*
X142061890Y-130549000D01*
X142738110Y-130549000D01*
X142779591Y-130553085D01*
G37*
G36*
X185373297Y-124627704D02*
G01*
X185647637Y-124710924D01*
X185900462Y-124846062D01*
X186122070Y-125027930D01*
X186303938Y-125249538D01*
X186439076Y-125502363D01*
X186522296Y-125776703D01*
X186551000Y-126068140D01*
X186551000Y-129731860D01*
X186522296Y-130023297D01*
X186439076Y-130297637D01*
X186303938Y-130550462D01*
X186122070Y-130772070D01*
X185900462Y-130953938D01*
X185647637Y-131089076D01*
X185373297Y-131172296D01*
X185081860Y-131201000D01*
X181918140Y-131201000D01*
X181626703Y-131172296D01*
X181352363Y-131089076D01*
X181099538Y-130953938D01*
X180877930Y-130772070D01*
X180696062Y-130550462D01*
X180560924Y-130297637D01*
X180477704Y-130023297D01*
X180449000Y-129731860D01*
X180449000Y-126068140D01*
X180477704Y-125776703D01*
X180560924Y-125502363D01*
X180696062Y-125249538D01*
X180877930Y-125027930D01*
X181099538Y-124846062D01*
X181352363Y-124710924D01*
X181626703Y-124627704D01*
X181918140Y-124599000D01*
X185081860Y-124599000D01*
X185373297Y-124627704D01*
G37*
G36*
X118379591Y-129028085D02*
G01*
X118413569Y-129038393D01*
X118444890Y-129055134D01*
X118472339Y-129077661D01*
X118494866Y-129105110D01*
X118511607Y-129136431D01*
X118521915Y-129170409D01*
X118526000Y-129211890D01*
X118526000Y-129813110D01*
X118521915Y-129854591D01*
X118511607Y-129888569D01*
X118494866Y-129919890D01*
X118472339Y-129947339D01*
X118444890Y-129969866D01*
X118413569Y-129986607D01*
X118379591Y-129996915D01*
X118338110Y-130001000D01*
X117661890Y-130001000D01*
X117620409Y-129996915D01*
X117586431Y-129986607D01*
X117555110Y-129969866D01*
X117527661Y-129947339D01*
X117505134Y-129919890D01*
X117488393Y-129888569D01*
X117478085Y-129854591D01*
X117474000Y-129813110D01*
X117474000Y-129211890D01*
X117478085Y-129170409D01*
X117488393Y-129136431D01*
X117505134Y-129105110D01*
X117527661Y-129077661D01*
X117555110Y-129055134D01*
X117586431Y-129038393D01*
X117620409Y-129028085D01*
X117661890Y-129024000D01*
X118338110Y-129024000D01*
X118379591Y-129028085D01*
G37*
G36*
X116479591Y-129028085D02*
G01*
X116513569Y-129038393D01*
X116544890Y-129055134D01*
X116572339Y-129077661D01*
X116594866Y-129105110D01*
X116611607Y-129136431D01*
X116621915Y-129170409D01*
X116626000Y-129211890D01*
X116626000Y-129813110D01*
X116621915Y-129854591D01*
X116611607Y-129888569D01*
X116594866Y-129919890D01*
X116572339Y-129947339D01*
X116544890Y-129969866D01*
X116513569Y-129986607D01*
X116479591Y-129996915D01*
X116438110Y-130001000D01*
X115761890Y-130001000D01*
X115720409Y-129996915D01*
X115686431Y-129986607D01*
X115655110Y-129969866D01*
X115627661Y-129947339D01*
X115605134Y-129919890D01*
X115588393Y-129888569D01*
X115578085Y-129854591D01*
X115574000Y-129813110D01*
X115574000Y-129211890D01*
X115578085Y-129170409D01*
X115588393Y-129136431D01*
X115605134Y-129105110D01*
X115627661Y-129077661D01*
X115655110Y-129055134D01*
X115686431Y-129038393D01*
X115720409Y-129028085D01*
X115761890Y-129024000D01*
X116438110Y-129024000D01*
X116479591Y-129028085D01*
G37*
G36*
X123579591Y-129028085D02*
G01*
X123613569Y-129038393D01*
X123644890Y-129055134D01*
X123672339Y-129077661D01*
X123694866Y-129105110D01*
X123711607Y-129136431D01*
X123721915Y-129170409D01*
X123726000Y-129211890D01*
X123726000Y-129813110D01*
X123721915Y-129854591D01*
X123711607Y-129888569D01*
X123694866Y-129919890D01*
X123672339Y-129947339D01*
X123644890Y-129969866D01*
X123613569Y-129986607D01*
X123579591Y-129996915D01*
X123538110Y-130001000D01*
X122861890Y-130001000D01*
X122820409Y-129996915D01*
X122786431Y-129986607D01*
X122755110Y-129969866D01*
X122727661Y-129947339D01*
X122705134Y-129919890D01*
X122688393Y-129888569D01*
X122678085Y-129854591D01*
X122674000Y-129813110D01*
X122674000Y-129211890D01*
X122678085Y-129170409D01*
X122688393Y-129136431D01*
X122705134Y-129105110D01*
X122727661Y-129077661D01*
X122755110Y-129055134D01*
X122786431Y-129038393D01*
X122820409Y-129028085D01*
X122861890Y-129024000D01*
X123538110Y-129024000D01*
X123579591Y-129028085D01*
G37*
G36*
X140979591Y-129028085D02*
G01*
X141013569Y-129038393D01*
X141044890Y-129055134D01*
X141072339Y-129077661D01*
X141094866Y-129105110D01*
X141111607Y-129136431D01*
X141121915Y-129170409D01*
X141126000Y-129211890D01*
X141126000Y-129813110D01*
X141121915Y-129854591D01*
X141111607Y-129888569D01*
X141094866Y-129919890D01*
X141072339Y-129947339D01*
X141044890Y-129969866D01*
X141013569Y-129986607D01*
X140979591Y-129996915D01*
X140938110Y-130001000D01*
X140261890Y-130001000D01*
X140220409Y-129996915D01*
X140186431Y-129986607D01*
X140155110Y-129969866D01*
X140127661Y-129947339D01*
X140105134Y-129919890D01*
X140088393Y-129888569D01*
X140078085Y-129854591D01*
X140074000Y-129813110D01*
X140074000Y-129211890D01*
X140078085Y-129170409D01*
X140088393Y-129136431D01*
X140105134Y-129105110D01*
X140127661Y-129077661D01*
X140155110Y-129055134D01*
X140186431Y-129038393D01*
X140220409Y-129028085D01*
X140261890Y-129024000D01*
X140938110Y-129024000D01*
X140979591Y-129028085D01*
G37*
G36*
X125379591Y-129028085D02*
G01*
X125413569Y-129038393D01*
X125444890Y-129055134D01*
X125472339Y-129077661D01*
X125494866Y-129105110D01*
X125511607Y-129136431D01*
X125521915Y-129170409D01*
X125526000Y-129211890D01*
X125526000Y-129813110D01*
X125521915Y-129854591D01*
X125511607Y-129888569D01*
X125494866Y-129919890D01*
X125472339Y-129947339D01*
X125444890Y-129969866D01*
X125413569Y-129986607D01*
X125379591Y-129996915D01*
X125338110Y-130001000D01*
X124661890Y-130001000D01*
X124620409Y-129996915D01*
X124586431Y-129986607D01*
X124555110Y-129969866D01*
X124527661Y-129947339D01*
X124505134Y-129919890D01*
X124488393Y-129888569D01*
X124478085Y-129854591D01*
X124474000Y-129813110D01*
X124474000Y-129211890D01*
X124478085Y-129170409D01*
X124488393Y-129136431D01*
X124505134Y-129105110D01*
X124527661Y-129077661D01*
X124555110Y-129055134D01*
X124586431Y-129038393D01*
X124620409Y-129028085D01*
X124661890Y-129024000D01*
X125338110Y-129024000D01*
X125379591Y-129028085D01*
G37*
G36*
X142779591Y-128978085D02*
G01*
X142813569Y-128988393D01*
X142844890Y-129005134D01*
X142872339Y-129027661D01*
X142894866Y-129055110D01*
X142911607Y-129086431D01*
X142921915Y-129120409D01*
X142926000Y-129161890D01*
X142926000Y-129763110D01*
X142921915Y-129804591D01*
X142911607Y-129838569D01*
X142894866Y-129869890D01*
X142872339Y-129897339D01*
X142844890Y-129919866D01*
X142813569Y-129936607D01*
X142779591Y-129946915D01*
X142738110Y-129951000D01*
X142061890Y-129951000D01*
X142020409Y-129946915D01*
X141986431Y-129936607D01*
X141955110Y-129919866D01*
X141927661Y-129897339D01*
X141905134Y-129869890D01*
X141888393Y-129838569D01*
X141878085Y-129804591D01*
X141874000Y-129763110D01*
X141874000Y-129161890D01*
X141878085Y-129120409D01*
X141888393Y-129086431D01*
X141905134Y-129055110D01*
X141927661Y-129027661D01*
X141955110Y-129005134D01*
X141986431Y-128988393D01*
X142020409Y-128978085D01*
X142061890Y-128974000D01*
X142738110Y-128974000D01*
X142779591Y-128978085D01*
G37*
G36*
X112769615Y-117492115D02*
G01*
X113184649Y-117618015D01*
X113567137Y-117822458D01*
X113902399Y-118097601D01*
X114177542Y-118432863D01*
X114381985Y-118815351D01*
X114507885Y-119230385D01*
X114551000Y-119668140D01*
X114551000Y-124331860D01*
X114507885Y-124769615D01*
X114381985Y-125184649D01*
X114177542Y-125567137D01*
X113902399Y-125902399D01*
X113567137Y-126177542D01*
X113184649Y-126381985D01*
X112769615Y-126507885D01*
X112331860Y-126551000D01*
X107668140Y-126551000D01*
X107230385Y-126507885D01*
X106815351Y-126381985D01*
X106432863Y-126177542D01*
X106097601Y-125902399D01*
X105822458Y-125567137D01*
X105618015Y-125184649D01*
X105492115Y-124769615D01*
X105449000Y-124331860D01*
X105449000Y-119668140D01*
X105492115Y-119230385D01*
X105618015Y-118815351D01*
X105822458Y-118432863D01*
X106097601Y-118097601D01*
X106432863Y-117822458D01*
X106815351Y-117618015D01*
X107230385Y-117492115D01*
X107668140Y-117449000D01*
X112331860Y-117449000D01*
X112769615Y-117492115D01*
G37*
G36*
X149562865Y-119125855D02*
G01*
X150153584Y-119370539D01*
X150163610Y-119374692D01*
X150704265Y-119735946D01*
X151164054Y-120195735D01*
X151359673Y-120488500D01*
X151525309Y-120736392D01*
X151774145Y-121337135D01*
X151901000Y-121974879D01*
X151901000Y-122625121D01*
X151774145Y-123262865D01*
X151525309Y-123863608D01*
X151525308Y-123863610D01*
X151164054Y-124404265D01*
X150704265Y-124864054D01*
X150163610Y-125225308D01*
X150163609Y-125225309D01*
X150163608Y-125225309D01*
X149562865Y-125474145D01*
X148925121Y-125601000D01*
X148274879Y-125601000D01*
X147637135Y-125474145D01*
X147036392Y-125225309D01*
X147036391Y-125225309D01*
X147036390Y-125225308D01*
X146495735Y-124864054D01*
X146035946Y-124404265D01*
X145674692Y-123863610D01*
X145674691Y-123863608D01*
X145425855Y-123262865D01*
X145299000Y-122625121D01*
X145299000Y-121974879D01*
X145425855Y-121337135D01*
X145674691Y-120736392D01*
X145840327Y-120488500D01*
X146035946Y-120195735D01*
X146495735Y-119735946D01*
X147036390Y-119374692D01*
X147046416Y-119370539D01*
X147637135Y-119125855D01*
X148274879Y-118999000D01*
X148925121Y-118999000D01*
X149562865Y-119125855D01*
G37*
G36*
X131562865Y-119125855D02*
G01*
X132153584Y-119370539D01*
X132163610Y-119374692D01*
X132704265Y-119735946D01*
X133164054Y-120195735D01*
X133359673Y-120488500D01*
X133525309Y-120736392D01*
X133774145Y-121337135D01*
X133901000Y-121974879D01*
X133901000Y-122625121D01*
X133774145Y-123262865D01*
X133525309Y-123863608D01*
X133525308Y-123863610D01*
X133164054Y-124404265D01*
X132704265Y-124864054D01*
X132163610Y-125225308D01*
X132163609Y-125225309D01*
X132163608Y-125225309D01*
X131562865Y-125474145D01*
X130925121Y-125601000D01*
X130274879Y-125601000D01*
X129637135Y-125474145D01*
X129036392Y-125225309D01*
X129036391Y-125225309D01*
X129036390Y-125225308D01*
X128495735Y-124864054D01*
X128035946Y-124404265D01*
X127674692Y-123863610D01*
X127674691Y-123863608D01*
X127425855Y-123262865D01*
X127299000Y-122625121D01*
X127299000Y-121974879D01*
X127425855Y-121337135D01*
X127674691Y-120736392D01*
X127840327Y-120488500D01*
X128035946Y-120195735D01*
X128495735Y-119735946D01*
X129036390Y-119374692D01*
X129046416Y-119370539D01*
X129637135Y-119125855D01*
X130274879Y-118999000D01*
X130925121Y-118999000D01*
X131562865Y-119125855D01*
G37*
G36*
X167062865Y-119125855D02*
G01*
X167653584Y-119370539D01*
X167663610Y-119374692D01*
X168204265Y-119735946D01*
X168664054Y-120195735D01*
X168859673Y-120488500D01*
X169025309Y-120736392D01*
X169274145Y-121337135D01*
X169401000Y-121974879D01*
X169401000Y-122625121D01*
X169274145Y-123262865D01*
X169025309Y-123863608D01*
X169025308Y-123863610D01*
X168664054Y-124404265D01*
X168204265Y-124864054D01*
X167663610Y-125225308D01*
X167663609Y-125225309D01*
X167663608Y-125225309D01*
X167062865Y-125474145D01*
X166425121Y-125601000D01*
X165774879Y-125601000D01*
X165137135Y-125474145D01*
X164536392Y-125225309D01*
X164536391Y-125225309D01*
X164536390Y-125225308D01*
X163995735Y-124864054D01*
X163535946Y-124404265D01*
X163174692Y-123863610D01*
X163174691Y-123863608D01*
X162925855Y-123262865D01*
X162799000Y-122625121D01*
X162799000Y-121974879D01*
X162925855Y-121337135D01*
X163174691Y-120736392D01*
X163340327Y-120488500D01*
X163535946Y-120195735D01*
X163995735Y-119735946D01*
X164536390Y-119374692D01*
X164546416Y-119370539D01*
X165137135Y-119125855D01*
X165774879Y-118999000D01*
X166425121Y-118999000D01*
X167062865Y-119125855D01*
G37*
G36*
X184462865Y-117525855D02*
G01*
X185063608Y-117774691D01*
X185063610Y-117774692D01*
X185604265Y-118135946D01*
X186064054Y-118595735D01*
X186418269Y-119125856D01*
X186425309Y-119136392D01*
X186674145Y-119737135D01*
X186801000Y-120374879D01*
X186801000Y-121025121D01*
X186674145Y-121662865D01*
X186544904Y-121974880D01*
X186425308Y-122263610D01*
X186064054Y-122804265D01*
X185604265Y-123264054D01*
X185063610Y-123625308D01*
X185063609Y-123625309D01*
X185063608Y-123625309D01*
X184462865Y-123874145D01*
X183825121Y-124001000D01*
X183174879Y-124001000D01*
X182537135Y-123874145D01*
X181936392Y-123625309D01*
X181936391Y-123625309D01*
X181936390Y-123625308D01*
X181395735Y-123264054D01*
X180935946Y-122804265D01*
X180574692Y-122263610D01*
X180455096Y-121974880D01*
X180325855Y-121662865D01*
X180199000Y-121025121D01*
X180199000Y-120374879D01*
X180325855Y-119737135D01*
X180574691Y-119136392D01*
X180581731Y-119125856D01*
X180935946Y-118595735D01*
X181395735Y-118135946D01*
X181936390Y-117774692D01*
X181936392Y-117774691D01*
X182537135Y-117525855D01*
X183174879Y-117399000D01*
X183825121Y-117399000D01*
X184462865Y-117525855D01*
G37*
G36*
X172879591Y-119515585D02*
G01*
X172913569Y-119525893D01*
X172944890Y-119542634D01*
X172972339Y-119565161D01*
X172994866Y-119592610D01*
X173011607Y-119623931D01*
X173021915Y-119657909D01*
X173026000Y-119699390D01*
X173026000Y-120300610D01*
X173021915Y-120342091D01*
X173011607Y-120376069D01*
X172994866Y-120407390D01*
X172972339Y-120434839D01*
X172944890Y-120457366D01*
X172913569Y-120474107D01*
X172879591Y-120484415D01*
X172838110Y-120488500D01*
X172161890Y-120488500D01*
X172120409Y-120484415D01*
X172086431Y-120474107D01*
X172055110Y-120457366D01*
X172027661Y-120434839D01*
X172005134Y-120407390D01*
X171988393Y-120376069D01*
X171978085Y-120342091D01*
X171974000Y-120300610D01*
X171974000Y-119699390D01*
X171978085Y-119657909D01*
X171988393Y-119623931D01*
X172005134Y-119592610D01*
X172027661Y-119565161D01*
X172055110Y-119542634D01*
X172086431Y-119525893D01*
X172120409Y-119515585D01*
X172161890Y-119511500D01*
X172838110Y-119511500D01*
X172879591Y-119515585D01*
G37*
G36*
X137379591Y-119303085D02*
G01*
X137413569Y-119313393D01*
X137444890Y-119330134D01*
X137472339Y-119352661D01*
X137494866Y-119380110D01*
X137511607Y-119411431D01*
X137521915Y-119445409D01*
X137526000Y-119486890D01*
X137526000Y-120088110D01*
X137521915Y-120129591D01*
X137511607Y-120163569D01*
X137494866Y-120194890D01*
X137472339Y-120222339D01*
X137444890Y-120244866D01*
X137413569Y-120261607D01*
X137379591Y-120271915D01*
X137338110Y-120276000D01*
X136661890Y-120276000D01*
X136620409Y-120271915D01*
X136586431Y-120261607D01*
X136555110Y-120244866D01*
X136527661Y-120222339D01*
X136505134Y-120194890D01*
X136488393Y-120163569D01*
X136478085Y-120129591D01*
X136474000Y-120088110D01*
X136474000Y-119486890D01*
X136478085Y-119445409D01*
X136488393Y-119411431D01*
X136505134Y-119380110D01*
X136527661Y-119352661D01*
X136555110Y-119330134D01*
X136586431Y-119313393D01*
X136620409Y-119303085D01*
X136661890Y-119299000D01*
X137338110Y-119299000D01*
X137379591Y-119303085D01*
G37*
G36*
X155379591Y-119303085D02*
G01*
X155413569Y-119313393D01*
X155444890Y-119330134D01*
X155472339Y-119352661D01*
X155494866Y-119380110D01*
X155511607Y-119411431D01*
X155521915Y-119445409D01*
X155526000Y-119486890D01*
X155526000Y-120088110D01*
X155521915Y-120129591D01*
X155511607Y-120163569D01*
X155494866Y-120194890D01*
X155472339Y-120222339D01*
X155444890Y-120244866D01*
X155413569Y-120261607D01*
X155379591Y-120271915D01*
X155338110Y-120276000D01*
X154661890Y-120276000D01*
X154620409Y-120271915D01*
X154586431Y-120261607D01*
X154555110Y-120244866D01*
X154527661Y-120222339D01*
X154505134Y-120194890D01*
X154488393Y-120163569D01*
X154478085Y-120129591D01*
X154474000Y-120088110D01*
X154474000Y-119486890D01*
X154478085Y-119445409D01*
X154488393Y-119411431D01*
X154505134Y-119380110D01*
X154527661Y-119352661D01*
X154555110Y-119330134D01*
X154586431Y-119313393D01*
X154620409Y-119303085D01*
X154661890Y-119299000D01*
X155338110Y-119299000D01*
X155379591Y-119303085D01*
G37*
G36*
X172879591Y-117940585D02*
G01*
X172913569Y-117950893D01*
X172944890Y-117967634D01*
X172972339Y-117990161D01*
X172994866Y-118017610D01*
X173011607Y-118048931D01*
X173021915Y-118082909D01*
X173026000Y-118124390D01*
X173026000Y-118725610D01*
X173021915Y-118767091D01*
X173011607Y-118801069D01*
X172994866Y-118832390D01*
X172972339Y-118859839D01*
X172944890Y-118882366D01*
X172913569Y-118899107D01*
X172879591Y-118909415D01*
X172838110Y-118913500D01*
X172161890Y-118913500D01*
X172120409Y-118909415D01*
X172086431Y-118899107D01*
X172055110Y-118882366D01*
X172027661Y-118859839D01*
X172005134Y-118832390D01*
X171988393Y-118801069D01*
X171978085Y-118767091D01*
X171974000Y-118725610D01*
X171974000Y-118124390D01*
X171978085Y-118082909D01*
X171988393Y-118048931D01*
X172005134Y-118017610D01*
X172027661Y-117990161D01*
X172055110Y-117967634D01*
X172086431Y-117950893D01*
X172120409Y-117940585D01*
X172161890Y-117936500D01*
X172838110Y-117936500D01*
X172879591Y-117940585D01*
G37*
G36*
X155379591Y-117728085D02*
G01*
X155413569Y-117738393D01*
X155444890Y-117755134D01*
X155472339Y-117777661D01*
X155494866Y-117805110D01*
X155511607Y-117836431D01*
X155521915Y-117870409D01*
X155526000Y-117911890D01*
X155526000Y-118513110D01*
X155521915Y-118554591D01*
X155511607Y-118588569D01*
X155494866Y-118619890D01*
X155472339Y-118647339D01*
X155444890Y-118669866D01*
X155413569Y-118686607D01*
X155379591Y-118696915D01*
X155338110Y-118701000D01*
X154661890Y-118701000D01*
X154620409Y-118696915D01*
X154586431Y-118686607D01*
X154555110Y-118669866D01*
X154527661Y-118647339D01*
X154505134Y-118619890D01*
X154488393Y-118588569D01*
X154478085Y-118554591D01*
X154474000Y-118513110D01*
X154474000Y-117911890D01*
X154478085Y-117870409D01*
X154488393Y-117836431D01*
X154505134Y-117805110D01*
X154527661Y-117777661D01*
X154555110Y-117755134D01*
X154586431Y-117738393D01*
X154620409Y-117728085D01*
X154661890Y-117724000D01*
X155338110Y-117724000D01*
X155379591Y-117728085D01*
G37*
G36*
X137379591Y-117728085D02*
G01*
X137413569Y-117738393D01*
X137444890Y-117755134D01*
X137472339Y-117777661D01*
X137494866Y-117805110D01*
X137511607Y-117836431D01*
X137521915Y-117870409D01*
X137526000Y-117911890D01*
X137526000Y-118513110D01*
X137521915Y-118554591D01*
X137511607Y-118588569D01*
X137494866Y-118619890D01*
X137472339Y-118647339D01*
X137444890Y-118669866D01*
X137413569Y-118686607D01*
X137379591Y-118696915D01*
X137338110Y-118701000D01*
X136661890Y-118701000D01*
X136620409Y-118696915D01*
X136586431Y-118686607D01*
X136555110Y-118669866D01*
X136527661Y-118647339D01*
X136505134Y-118619890D01*
X136488393Y-118588569D01*
X136478085Y-118554591D01*
X136474000Y-118513110D01*
X136474000Y-117911890D01*
X136478085Y-117870409D01*
X136488393Y-117836431D01*
X136505134Y-117805110D01*
X136527661Y-117777661D01*
X136555110Y-117755134D01*
X136586431Y-117738393D01*
X136620409Y-117728085D01*
X136661890Y-117724000D01*
X137338110Y-117724000D01*
X137379591Y-117728085D01*
G37*
G36*
X131206000Y-116876000D02*
G01*
X130604000Y-116876000D01*
X130604000Y-115924000D01*
X131206000Y-115924000D01*
X131206000Y-116876000D01*
G37*
G36*
X165436000Y-116876000D02*
G01*
X164834000Y-116876000D01*
X164834000Y-115924000D01*
X165436000Y-115924000D01*
X165436000Y-116876000D01*
G37*
G36*
X164166000Y-116876000D02*
G01*
X163564000Y-116876000D01*
X163564000Y-115924000D01*
X164166000Y-115924000D01*
X164166000Y-116876000D01*
G37*
G36*
X162896000Y-116876000D02*
G01*
X162294000Y-116876000D01*
X162294000Y-115924000D01*
X162896000Y-115924000D01*
X162896000Y-116876000D01*
G37*
G36*
X129936000Y-116876000D02*
G01*
X129334000Y-116876000D01*
X129334000Y-115924000D01*
X129936000Y-115924000D01*
X129936000Y-116876000D01*
G37*
G36*
X166706000Y-116876000D02*
G01*
X166104000Y-116876000D01*
X166104000Y-115924000D01*
X166706000Y-115924000D01*
X166706000Y-116876000D01*
G37*
G36*
X128666000Y-116876000D02*
G01*
X128064000Y-116876000D01*
X128064000Y-115924000D01*
X128666000Y-115924000D01*
X128666000Y-116876000D01*
G37*
G36*
X149206000Y-116876000D02*
G01*
X148604000Y-116876000D01*
X148604000Y-115924000D01*
X149206000Y-115924000D01*
X149206000Y-116876000D01*
G37*
G36*
X147936000Y-116876000D02*
G01*
X147334000Y-116876000D01*
X147334000Y-115924000D01*
X147936000Y-115924000D01*
X147936000Y-116876000D01*
G37*
G36*
X146666000Y-116876000D02*
G01*
X146064000Y-116876000D01*
X146064000Y-115924000D01*
X146666000Y-115924000D01*
X146666000Y-116876000D01*
G37*
G36*
X145396000Y-116876000D02*
G01*
X144794000Y-116876000D01*
X144794000Y-115924000D01*
X145396000Y-115924000D01*
X145396000Y-116876000D01*
G37*
G36*
X127396000Y-116876000D02*
G01*
X126794000Y-116876000D01*
X126794000Y-115924000D01*
X127396000Y-115924000D01*
X127396000Y-116876000D01*
G37*
G36*
X110985401Y-106046054D02*
G01*
X111473322Y-106143107D01*
X112392546Y-106523862D01*
X113219825Y-107076632D01*
X113923368Y-107780175D01*
X114476138Y-108607454D01*
X114856893Y-109526678D01*
X115051000Y-110502520D01*
X115051000Y-111497480D01*
X114856893Y-112473322D01*
X114476138Y-113392546D01*
X113923368Y-114219825D01*
X113219825Y-114923368D01*
X112392546Y-115476138D01*
X111473322Y-115856893D01*
X111135952Y-115924000D01*
X110497481Y-116051000D01*
X109502519Y-116051000D01*
X108864048Y-115924000D01*
X108526678Y-115856893D01*
X107607454Y-115476138D01*
X106780175Y-114923368D01*
X106076632Y-114219825D01*
X105523862Y-113392546D01*
X105143107Y-112473322D01*
X104949000Y-111497480D01*
X104949000Y-110502520D01*
X105143107Y-109526678D01*
X105523862Y-108607454D01*
X106076632Y-107780175D01*
X106780175Y-107076632D01*
X107607454Y-106523862D01*
X108526678Y-106143107D01*
X109014599Y-106046053D01*
X109502519Y-105949000D01*
X110497481Y-105949000D01*
X110985401Y-106046054D01*
G37*
G36*
X187979591Y-114503085D02*
G01*
X188013569Y-114513393D01*
X188044890Y-114530134D01*
X188072339Y-114552661D01*
X188094866Y-114580110D01*
X188111607Y-114611431D01*
X188121915Y-114645409D01*
X188126000Y-114686890D01*
X188126000Y-115288110D01*
X188121915Y-115329591D01*
X188111607Y-115363569D01*
X188094866Y-115394890D01*
X188072339Y-115422339D01*
X188044890Y-115444866D01*
X188013569Y-115461607D01*
X187979591Y-115471915D01*
X187938110Y-115476000D01*
X187261890Y-115476000D01*
X187220409Y-115471915D01*
X187186431Y-115461607D01*
X187155110Y-115444866D01*
X187127661Y-115422339D01*
X187105134Y-115394890D01*
X187088393Y-115363569D01*
X187078085Y-115329591D01*
X187074000Y-115288110D01*
X187074000Y-114686890D01*
X187078085Y-114645409D01*
X187088393Y-114611431D01*
X187105134Y-114580110D01*
X187127661Y-114552661D01*
X187155110Y-114530134D01*
X187186431Y-114513393D01*
X187220409Y-114503085D01*
X187261890Y-114499000D01*
X187938110Y-114499000D01*
X187979591Y-114503085D01*
G37*
G36*
X184106000Y-115276000D02*
G01*
X183504000Y-115276000D01*
X183504000Y-114324000D01*
X184106000Y-114324000D01*
X184106000Y-115276000D01*
G37*
G36*
X182836000Y-115276000D02*
G01*
X182234000Y-115276000D01*
X182234000Y-114324000D01*
X182836000Y-114324000D01*
X182836000Y-115276000D01*
G37*
G36*
X181566000Y-115276000D02*
G01*
X180964000Y-115276000D01*
X180964000Y-114324000D01*
X181566000Y-114324000D01*
X181566000Y-115276000D01*
G37*
G36*
X180296000Y-115276000D02*
G01*
X179694000Y-115276000D01*
X179694000Y-114324000D01*
X180296000Y-114324000D01*
X180296000Y-115276000D01*
G37*
G36*
X162894999Y-110174999D02*
G01*
X162895001Y-110175001D01*
X162895605Y-110181137D01*
X162895605Y-110849396D01*
X162898007Y-110873782D01*
X162905120Y-110897231D01*
X162916671Y-110918842D01*
X162932216Y-110937784D01*
X162951158Y-110953329D01*
X162972769Y-110964880D01*
X162996218Y-110971993D01*
X163020604Y-110974395D01*
X163439396Y-110974395D01*
X163463782Y-110971993D01*
X163487231Y-110964880D01*
X163508842Y-110953329D01*
X163527784Y-110937784D01*
X163543329Y-110918842D01*
X163554880Y-110897231D01*
X163561993Y-110873782D01*
X163564395Y-110849396D01*
X163564395Y-110181137D01*
X163564999Y-110175001D01*
X163565001Y-110174999D01*
X163571137Y-110174395D01*
X164158863Y-110174395D01*
X164164999Y-110174999D01*
X164165001Y-110175001D01*
X164165605Y-110181137D01*
X164165605Y-110849396D01*
X164168007Y-110873782D01*
X164175120Y-110897231D01*
X164186671Y-110918842D01*
X164202216Y-110937784D01*
X164221158Y-110953329D01*
X164242769Y-110964880D01*
X164266218Y-110971993D01*
X164290604Y-110974395D01*
X164709396Y-110974395D01*
X164733782Y-110971993D01*
X164757231Y-110964880D01*
X164778842Y-110953329D01*
X164797784Y-110937784D01*
X164813329Y-110918842D01*
X164824880Y-110897231D01*
X164831993Y-110873782D01*
X164834395Y-110849396D01*
X164834395Y-110181137D01*
X164834999Y-110175001D01*
X164835001Y-110174999D01*
X164841137Y-110174395D01*
X165428863Y-110174395D01*
X165434999Y-110174999D01*
X165435001Y-110175001D01*
X165435605Y-110181137D01*
X165435605Y-110849396D01*
X165438007Y-110873782D01*
X165445120Y-110897231D01*
X165456671Y-110918842D01*
X165472216Y-110937784D01*
X165491158Y-110953329D01*
X165512769Y-110964880D01*
X165536218Y-110971993D01*
X165560604Y-110974395D01*
X165979396Y-110974395D01*
X166003782Y-110971993D01*
X166027231Y-110964880D01*
X166048842Y-110953329D01*
X166067784Y-110937784D01*
X166083329Y-110918842D01*
X166094880Y-110897231D01*
X166101993Y-110873782D01*
X166104395Y-110849396D01*
X166104395Y-110181137D01*
X166104999Y-110175001D01*
X166105001Y-110174999D01*
X166111137Y-110174395D01*
X166698863Y-110174395D01*
X166704999Y-110174999D01*
X166705001Y-110175001D01*
X166705605Y-110181137D01*
X166705605Y-114718863D01*
X166705001Y-114724999D01*
X166704999Y-114725001D01*
X166698863Y-114725605D01*
X162301137Y-114725605D01*
X162295001Y-114725001D01*
X162294999Y-114724999D01*
X162294395Y-114718863D01*
X162294395Y-110181137D01*
X162294999Y-110175001D01*
X162295001Y-110174999D01*
X162301137Y-110174395D01*
X162888863Y-110174395D01*
X162894999Y-110174999D01*
G37*
G36*
X145394999Y-110174999D02*
G01*
X145395001Y-110175001D01*
X145395605Y-110181137D01*
X145395605Y-110849396D01*
X145398007Y-110873782D01*
X145405120Y-110897231D01*
X145416671Y-110918842D01*
X145432216Y-110937784D01*
X145451158Y-110953329D01*
X145472769Y-110964880D01*
X145496218Y-110971993D01*
X145520604Y-110974395D01*
X145939396Y-110974395D01*
X145963782Y-110971993D01*
X145987231Y-110964880D01*
X146008842Y-110953329D01*
X146027784Y-110937784D01*
X146043329Y-110918842D01*
X146054880Y-110897231D01*
X146061993Y-110873782D01*
X146064395Y-110849396D01*
X146064395Y-110181137D01*
X146064999Y-110175001D01*
X146065001Y-110174999D01*
X146071137Y-110174395D01*
X146658863Y-110174395D01*
X146664999Y-110174999D01*
X146665001Y-110175001D01*
X146665605Y-110181137D01*
X146665605Y-110849396D01*
X146668007Y-110873782D01*
X146675120Y-110897231D01*
X146686671Y-110918842D01*
X146702216Y-110937784D01*
X146721158Y-110953329D01*
X146742769Y-110964880D01*
X146766218Y-110971993D01*
X146790604Y-110974395D01*
X147209396Y-110974395D01*
X147233782Y-110971993D01*
X147257231Y-110964880D01*
X147278842Y-110953329D01*
X147297784Y-110937784D01*
X147313329Y-110918842D01*
X147324880Y-110897231D01*
X147331993Y-110873782D01*
X147334395Y-110849396D01*
X147334395Y-110181137D01*
X147334999Y-110175001D01*
X147335001Y-110174999D01*
X147341137Y-110174395D01*
X147928863Y-110174395D01*
X147934999Y-110174999D01*
X147935001Y-110175001D01*
X147935605Y-110181137D01*
X147935605Y-110849396D01*
X147938007Y-110873782D01*
X147945120Y-110897231D01*
X147956671Y-110918842D01*
X147972216Y-110937784D01*
X147991158Y-110953329D01*
X148012769Y-110964880D01*
X148036218Y-110971993D01*
X148060604Y-110974395D01*
X148479396Y-110974395D01*
X148503782Y-110971993D01*
X148527231Y-110964880D01*
X148548842Y-110953329D01*
X148567784Y-110937784D01*
X148583329Y-110918842D01*
X148594880Y-110897231D01*
X148601993Y-110873782D01*
X148604395Y-110849396D01*
X148604395Y-110181137D01*
X148604999Y-110175001D01*
X148605001Y-110174999D01*
X148611137Y-110174395D01*
X149198863Y-110174395D01*
X149204999Y-110174999D01*
X149205001Y-110175001D01*
X149205605Y-110181137D01*
X149205605Y-114718863D01*
X149205001Y-114724999D01*
X149204999Y-114725001D01*
X149198863Y-114725605D01*
X144801137Y-114725605D01*
X144795001Y-114725001D01*
X144794999Y-114724999D01*
X144794395Y-114718863D01*
X144794395Y-110181137D01*
X144794999Y-110175001D01*
X144795001Y-110174999D01*
X144801137Y-110174395D01*
X145388863Y-110174395D01*
X145394999Y-110174999D01*
G37*
G36*
X127394999Y-110174999D02*
G01*
X127395001Y-110175001D01*
X127395605Y-110181137D01*
X127395605Y-110849396D01*
X127398007Y-110873782D01*
X127405120Y-110897231D01*
X127416671Y-110918842D01*
X127432216Y-110937784D01*
X127451158Y-110953329D01*
X127472769Y-110964880D01*
X127496218Y-110971993D01*
X127520604Y-110974395D01*
X127939396Y-110974395D01*
X127963782Y-110971993D01*
X127987231Y-110964880D01*
X128008842Y-110953329D01*
X128027784Y-110937784D01*
X128043329Y-110918842D01*
X128054880Y-110897231D01*
X128061993Y-110873782D01*
X128064395Y-110849396D01*
X128064395Y-110181137D01*
X128064999Y-110175001D01*
X128065001Y-110174999D01*
X128071137Y-110174395D01*
X128658863Y-110174395D01*
X128664999Y-110174999D01*
X128665001Y-110175001D01*
X128665605Y-110181137D01*
X128665605Y-110849396D01*
X128668007Y-110873782D01*
X128675120Y-110897231D01*
X128686671Y-110918842D01*
X128702216Y-110937784D01*
X128721158Y-110953329D01*
X128742769Y-110964880D01*
X128766218Y-110971993D01*
X128790604Y-110974395D01*
X129209396Y-110974395D01*
X129233782Y-110971993D01*
X129257231Y-110964880D01*
X129278842Y-110953329D01*
X129297784Y-110937784D01*
X129313329Y-110918842D01*
X129324880Y-110897231D01*
X129331993Y-110873782D01*
X129334395Y-110849396D01*
X129334395Y-110181137D01*
X129334999Y-110175001D01*
X129335001Y-110174999D01*
X129341137Y-110174395D01*
X129928863Y-110174395D01*
X129934999Y-110174999D01*
X129935001Y-110175001D01*
X129935605Y-110181137D01*
X129935605Y-110849396D01*
X129938007Y-110873782D01*
X129945120Y-110897231D01*
X129956671Y-110918842D01*
X129972216Y-110937784D01*
X129991158Y-110953329D01*
X130012769Y-110964880D01*
X130036218Y-110971993D01*
X130060604Y-110974395D01*
X130479396Y-110974395D01*
X130503782Y-110971993D01*
X130527231Y-110964880D01*
X130548842Y-110953329D01*
X130567784Y-110937784D01*
X130583329Y-110918842D01*
X130594880Y-110897231D01*
X130601993Y-110873782D01*
X130604395Y-110849396D01*
X130604395Y-110181137D01*
X130604999Y-110175001D01*
X130605001Y-110174999D01*
X130611137Y-110174395D01*
X131198863Y-110174395D01*
X131204999Y-110174999D01*
X131205001Y-110175001D01*
X131205605Y-110181137D01*
X131205605Y-114718863D01*
X131205001Y-114724999D01*
X131204999Y-114725001D01*
X131198863Y-114725605D01*
X126801137Y-114725605D01*
X126795001Y-114725001D01*
X126794999Y-114724999D01*
X126794395Y-114718863D01*
X126794395Y-110181137D01*
X126794999Y-110175001D01*
X126795001Y-110174999D01*
X126801137Y-110174395D01*
X127388863Y-110174395D01*
X127394999Y-110174999D01*
G37*
G36*
X187979591Y-112928085D02*
G01*
X188013569Y-112938393D01*
X188044890Y-112955134D01*
X188072339Y-112977661D01*
X188094866Y-113005110D01*
X188111607Y-113036431D01*
X188121915Y-113070409D01*
X188126000Y-113111890D01*
X188126000Y-113713110D01*
X188121915Y-113754591D01*
X188111607Y-113788569D01*
X188094866Y-113819890D01*
X188072339Y-113847339D01*
X188044890Y-113869866D01*
X188013569Y-113886607D01*
X187979591Y-113896915D01*
X187938110Y-113901000D01*
X187261890Y-113901000D01*
X187220409Y-113896915D01*
X187186431Y-113886607D01*
X187155110Y-113869866D01*
X187127661Y-113847339D01*
X187105134Y-113819890D01*
X187088393Y-113788569D01*
X187078085Y-113754591D01*
X187074000Y-113713110D01*
X187074000Y-113111890D01*
X187078085Y-113070409D01*
X187088393Y-113036431D01*
X187105134Y-113005110D01*
X187127661Y-112977661D01*
X187155110Y-112955134D01*
X187186431Y-112938393D01*
X187220409Y-112928085D01*
X187261890Y-112924000D01*
X187938110Y-112924000D01*
X187979591Y-112928085D01*
G37*
G36*
X180294999Y-108574999D02*
G01*
X180295001Y-108575001D01*
X180295605Y-108581137D01*
X180295605Y-109249396D01*
X180298007Y-109273782D01*
X180305120Y-109297231D01*
X180316671Y-109318842D01*
X180332216Y-109337784D01*
X180351158Y-109353329D01*
X180372769Y-109364880D01*
X180396218Y-109371993D01*
X180420604Y-109374395D01*
X180839396Y-109374395D01*
X180863782Y-109371993D01*
X180887231Y-109364880D01*
X180908842Y-109353329D01*
X180927784Y-109337784D01*
X180943329Y-109318842D01*
X180954880Y-109297231D01*
X180961993Y-109273782D01*
X180964395Y-109249396D01*
X180964395Y-108581137D01*
X180964999Y-108575001D01*
X180965001Y-108574999D01*
X180971137Y-108574395D01*
X181558863Y-108574395D01*
X181564999Y-108574999D01*
X181565001Y-108575001D01*
X181565605Y-108581137D01*
X181565605Y-109249396D01*
X181568007Y-109273782D01*
X181575120Y-109297231D01*
X181586671Y-109318842D01*
X181602216Y-109337784D01*
X181621158Y-109353329D01*
X181642769Y-109364880D01*
X181666218Y-109371993D01*
X181690604Y-109374395D01*
X182109396Y-109374395D01*
X182133782Y-109371993D01*
X182157231Y-109364880D01*
X182178842Y-109353329D01*
X182197784Y-109337784D01*
X182213329Y-109318842D01*
X182224880Y-109297231D01*
X182231993Y-109273782D01*
X182234395Y-109249396D01*
X182234395Y-108581137D01*
X182234999Y-108575001D01*
X182235001Y-108574999D01*
X182241137Y-108574395D01*
X182828863Y-108574395D01*
X182834999Y-108574999D01*
X182835001Y-108575001D01*
X182835605Y-108581137D01*
X182835605Y-109249396D01*
X182838007Y-109273782D01*
X182845120Y-109297231D01*
X182856671Y-109318842D01*
X182872216Y-109337784D01*
X182891158Y-109353329D01*
X182912769Y-109364880D01*
X182936218Y-109371993D01*
X182960604Y-109374395D01*
X183379396Y-109374395D01*
X183403782Y-109371993D01*
X183427231Y-109364880D01*
X183448842Y-109353329D01*
X183467784Y-109337784D01*
X183483329Y-109318842D01*
X183494880Y-109297231D01*
X183501993Y-109273782D01*
X183504395Y-109249396D01*
X183504395Y-108581137D01*
X183504999Y-108575001D01*
X183505001Y-108574999D01*
X183511137Y-108574395D01*
X184098863Y-108574395D01*
X184104999Y-108574999D01*
X184105001Y-108575001D01*
X184105605Y-108581137D01*
X184105605Y-113118863D01*
X184105001Y-113124999D01*
X184104999Y-113125001D01*
X184098863Y-113125605D01*
X179701137Y-113125605D01*
X179695001Y-113125001D01*
X179694999Y-113124999D01*
X179694395Y-113118863D01*
X179694395Y-108581137D01*
X179694999Y-108575001D01*
X179695001Y-108574999D01*
X179701137Y-108574395D01*
X180288863Y-108574395D01*
X180294999Y-108574999D01*
G37*
G36*
X158951000Y-112551000D02*
G01*
X157049000Y-112551000D01*
X157049000Y-110749000D01*
X158951000Y-110749000D01*
X158951000Y-112551000D01*
G37*
G36*
X155951000Y-112551000D02*
G01*
X154049000Y-112551000D01*
X154049000Y-110749000D01*
X155951000Y-110749000D01*
X155951000Y-112551000D01*
G37*
G36*
X138451000Y-112301000D02*
G01*
X136549000Y-112301000D01*
X136549000Y-110499000D01*
X138451000Y-110499000D01*
X138451000Y-112301000D01*
G37*
G36*
X141451000Y-112301000D02*
G01*
X139549000Y-112301000D01*
X139549000Y-110499000D01*
X141451000Y-110499000D01*
X141451000Y-112301000D01*
G37*
G36*
X120451000Y-112301000D02*
G01*
X118549000Y-112301000D01*
X118549000Y-110499000D01*
X120451000Y-110499000D01*
X120451000Y-112301000D01*
G37*
G36*
X123451000Y-112301000D02*
G01*
X121549000Y-112301000D01*
X121549000Y-110499000D01*
X123451000Y-110499000D01*
X123451000Y-112301000D01*
G37*
G36*
X173351000Y-110951000D02*
G01*
X171449000Y-110951000D01*
X171449000Y-109149000D01*
X173351000Y-109149000D01*
X173351000Y-110951000D01*
G37*
G36*
X176351000Y-110951000D02*
G01*
X174449000Y-110951000D01*
X174449000Y-109149000D01*
X176351000Y-109149000D01*
X176351000Y-110951000D01*
G37*
G36*
X154201000Y-109651000D02*
G01*
X153199000Y-109651000D01*
X153199000Y-108949000D01*
X154201000Y-108949000D01*
X154201000Y-109651000D01*
G37*
G36*
X159801000Y-109651000D02*
G01*
X158799000Y-109651000D01*
X158799000Y-108949000D01*
X159801000Y-108949000D01*
X159801000Y-109651000D01*
G37*
G36*
X124301000Y-109401000D02*
G01*
X123299000Y-109401000D01*
X123299000Y-108699000D01*
X124301000Y-108699000D01*
X124301000Y-109401000D01*
G37*
G36*
X118701000Y-109401000D02*
G01*
X117699000Y-109401000D01*
X117699000Y-108699000D01*
X118701000Y-108699000D01*
X118701000Y-109401000D01*
G37*
G36*
X136701000Y-109401000D02*
G01*
X135699000Y-109401000D01*
X135699000Y-108699000D01*
X136701000Y-108699000D01*
X136701000Y-109401000D01*
G37*
G36*
X142301000Y-109401000D02*
G01*
X141299000Y-109401000D01*
X141299000Y-108699000D01*
X142301000Y-108699000D01*
X142301000Y-109401000D01*
G37*
G36*
X177201000Y-108051000D02*
G01*
X176199000Y-108051000D01*
X176199000Y-107349000D01*
X177201000Y-107349000D01*
X177201000Y-108051000D01*
G37*
G36*
X171601000Y-108051000D02*
G01*
X170599000Y-108051000D01*
X170599000Y-107349000D01*
X171601000Y-107349000D01*
X171601000Y-108051000D01*
G37*
G36*
X156801000Y-107651000D02*
G01*
X156199000Y-107651000D01*
X156199000Y-105949000D01*
X156801000Y-105949000D01*
X156801000Y-107651000D01*
G37*
G36*
X158401000Y-107651000D02*
G01*
X157799000Y-107651000D01*
X157799000Y-105949000D01*
X158401000Y-105949000D01*
X158401000Y-107651000D01*
G37*
G36*
X155201000Y-107651000D02*
G01*
X154599000Y-107651000D01*
X154599000Y-105949000D01*
X155201000Y-105949000D01*
X155201000Y-107651000D01*
G37*
G36*
X119701000Y-107401000D02*
G01*
X119099000Y-107401000D01*
X119099000Y-105699000D01*
X119701000Y-105699000D01*
X119701000Y-107401000D01*
G37*
G36*
X121301000Y-107401000D02*
G01*
X120699000Y-107401000D01*
X120699000Y-105699000D01*
X121301000Y-105699000D01*
X121301000Y-107401000D01*
G37*
G36*
X122901000Y-107401000D02*
G01*
X122299000Y-107401000D01*
X122299000Y-105699000D01*
X122901000Y-105699000D01*
X122901000Y-107401000D01*
G37*
G36*
X140901000Y-107401000D02*
G01*
X140299000Y-107401000D01*
X140299000Y-105699000D01*
X140901000Y-105699000D01*
X140901000Y-107401000D01*
G37*
G36*
X139301000Y-107401000D02*
G01*
X138699000Y-107401000D01*
X138699000Y-105699000D01*
X139301000Y-105699000D01*
X139301000Y-107401000D01*
G37*
G36*
X137701000Y-107401000D02*
G01*
X137099000Y-107401000D01*
X137099000Y-105699000D01*
X137701000Y-105699000D01*
X137701000Y-107401000D01*
G37*
G36*
X172601000Y-106051000D02*
G01*
X171999000Y-106051000D01*
X171999000Y-104349000D01*
X172601000Y-104349000D01*
X172601000Y-106051000D01*
G37*
G36*
X174201000Y-106051000D02*
G01*
X173599000Y-106051000D01*
X173599000Y-104349000D01*
X174201000Y-104349000D01*
X174201000Y-106051000D01*
G37*
G36*
X175801000Y-106051000D02*
G01*
X175199000Y-106051000D01*
X175199000Y-104349000D01*
X175801000Y-104349000D01*
X175801000Y-106051000D01*
G37*
G36*
X179759928Y-100856764D02*
G01*
X179781009Y-100863160D01*
X179800445Y-100873548D01*
X179817476Y-100887524D01*
X179831452Y-100904555D01*
X179841840Y-100923991D01*
X179848236Y-100945072D01*
X179851000Y-100973140D01*
X179851000Y-101436860D01*
X179848236Y-101464928D01*
X179841840Y-101486009D01*
X179831452Y-101505445D01*
X179817476Y-101522476D01*
X179800445Y-101536452D01*
X179781009Y-101546840D01*
X179759928Y-101553236D01*
X179731860Y-101556000D01*
X178118140Y-101556000D01*
X178090072Y-101553236D01*
X178068991Y-101546840D01*
X178049555Y-101536452D01*
X178032524Y-101522476D01*
X178018548Y-101505445D01*
X178008160Y-101486009D01*
X178001764Y-101464928D01*
X177999000Y-101436860D01*
X177999000Y-100973140D01*
X178001764Y-100945072D01*
X178008160Y-100923991D01*
X178018548Y-100904555D01*
X178032524Y-100887524D01*
X178049555Y-100873548D01*
X178068991Y-100863160D01*
X178090072Y-100856764D01*
X178118140Y-100854000D01*
X179731860Y-100854000D01*
X179759928Y-100856764D01*
G37*
G36*
X184909928Y-100856764D02*
G01*
X184931009Y-100863160D01*
X184950445Y-100873548D01*
X184967476Y-100887524D01*
X184981452Y-100904555D01*
X184991840Y-100923991D01*
X184998236Y-100945072D01*
X185001000Y-100973140D01*
X185001000Y-101436860D01*
X184998236Y-101464928D01*
X184991840Y-101486009D01*
X184981452Y-101505445D01*
X184967476Y-101522476D01*
X184950445Y-101536452D01*
X184931009Y-101546840D01*
X184909928Y-101553236D01*
X184881860Y-101556000D01*
X183268140Y-101556000D01*
X183240072Y-101553236D01*
X183218991Y-101546840D01*
X183199555Y-101536452D01*
X183182524Y-101522476D01*
X183168548Y-101505445D01*
X183158160Y-101486009D01*
X183151764Y-101464928D01*
X183149000Y-101436860D01*
X183149000Y-100973140D01*
X183151764Y-100945072D01*
X183158160Y-100923991D01*
X183168548Y-100904555D01*
X183182524Y-100887524D01*
X183199555Y-100873548D01*
X183218991Y-100863160D01*
X183240072Y-100856764D01*
X183268140Y-100854000D01*
X184881860Y-100854000D01*
X184909928Y-100856764D01*
G37*
G36*
X179759928Y-99586764D02*
G01*
X179781009Y-99593160D01*
X179800445Y-99603548D01*
X179817476Y-99617524D01*
X179831452Y-99634555D01*
X179841840Y-99653991D01*
X179848236Y-99675072D01*
X179851000Y-99703140D01*
X179851000Y-100166860D01*
X179848236Y-100194928D01*
X179841840Y-100216009D01*
X179831452Y-100235445D01*
X179817476Y-100252476D01*
X179800445Y-100266452D01*
X179781009Y-100276840D01*
X179759928Y-100283236D01*
X179731860Y-100286000D01*
X178118140Y-100286000D01*
X178090072Y-100283236D01*
X178068991Y-100276840D01*
X178049555Y-100266452D01*
X178032524Y-100252476D01*
X178018548Y-100235445D01*
X178008160Y-100216009D01*
X178001764Y-100194928D01*
X177999000Y-100166860D01*
X177999000Y-99703140D01*
X178001764Y-99675072D01*
X178008160Y-99653991D01*
X178018548Y-99634555D01*
X178032524Y-99617524D01*
X178049555Y-99603548D01*
X178068991Y-99593160D01*
X178090072Y-99586764D01*
X178118140Y-99584000D01*
X179731860Y-99584000D01*
X179759928Y-99586764D01*
G37*
G36*
X184909928Y-99586764D02*
G01*
X184931009Y-99593160D01*
X184950445Y-99603548D01*
X184967476Y-99617524D01*
X184981452Y-99634555D01*
X184991840Y-99653991D01*
X184998236Y-99675072D01*
X185001000Y-99703140D01*
X185001000Y-100166860D01*
X184998236Y-100194928D01*
X184991840Y-100216009D01*
X184981452Y-100235445D01*
X184967476Y-100252476D01*
X184950445Y-100266452D01*
X184931009Y-100276840D01*
X184909928Y-100283236D01*
X184881860Y-100286000D01*
X183268140Y-100286000D01*
X183240072Y-100283236D01*
X183218991Y-100276840D01*
X183199555Y-100266452D01*
X183182524Y-100252476D01*
X183168548Y-100235445D01*
X183158160Y-100216009D01*
X183151764Y-100194928D01*
X183149000Y-100166860D01*
X183149000Y-99703140D01*
X183151764Y-99675072D01*
X183158160Y-99653991D01*
X183168548Y-99634555D01*
X183182524Y-99617524D01*
X183199555Y-99603548D01*
X183218991Y-99593160D01*
X183240072Y-99586764D01*
X183268140Y-99584000D01*
X184881860Y-99584000D01*
X184909928Y-99586764D01*
G37*
G36*
X179759928Y-98316764D02*
G01*
X179781009Y-98323160D01*
X179800445Y-98333548D01*
X179817476Y-98347524D01*
X179831452Y-98364555D01*
X179841840Y-98383991D01*
X179848236Y-98405072D01*
X179851000Y-98433140D01*
X179851000Y-98896860D01*
X179848236Y-98924928D01*
X179841840Y-98946009D01*
X179831452Y-98965445D01*
X179817476Y-98982476D01*
X179800445Y-98996452D01*
X179781009Y-99006840D01*
X179759928Y-99013236D01*
X179731860Y-99016000D01*
X178118140Y-99016000D01*
X178090072Y-99013236D01*
X178068991Y-99006840D01*
X178049555Y-98996452D01*
X178032524Y-98982476D01*
X178018548Y-98965445D01*
X178008160Y-98946009D01*
X178001764Y-98924928D01*
X177999000Y-98896860D01*
X177999000Y-98433140D01*
X178001764Y-98405072D01*
X178008160Y-98383991D01*
X178018548Y-98364555D01*
X178032524Y-98347524D01*
X178049555Y-98333548D01*
X178068991Y-98323160D01*
X178090072Y-98316764D01*
X178118140Y-98314000D01*
X179731860Y-98314000D01*
X179759928Y-98316764D01*
G37*
G36*
X184909928Y-98316764D02*
G01*
X184931009Y-98323160D01*
X184950445Y-98333548D01*
X184967476Y-98347524D01*
X184981452Y-98364555D01*
X184991840Y-98383991D01*
X184998236Y-98405072D01*
X185001000Y-98433140D01*
X185001000Y-98896860D01*
X184998236Y-98924928D01*
X184991840Y-98946009D01*
X184981452Y-98965445D01*
X184967476Y-98982476D01*
X184950445Y-98996452D01*
X184931009Y-99006840D01*
X184909928Y-99013236D01*
X184881860Y-99016000D01*
X183268140Y-99016000D01*
X183240072Y-99013236D01*
X183218991Y-99006840D01*
X183199555Y-98996452D01*
X183182524Y-98982476D01*
X183168548Y-98965445D01*
X183158160Y-98946009D01*
X183151764Y-98924928D01*
X183149000Y-98896860D01*
X183149000Y-98433140D01*
X183151764Y-98405072D01*
X183158160Y-98383991D01*
X183168548Y-98364555D01*
X183182524Y-98347524D01*
X183199555Y-98333548D01*
X183218991Y-98323160D01*
X183240072Y-98316764D01*
X183268140Y-98314000D01*
X184881860Y-98314000D01*
X184909928Y-98316764D01*
G37*
G36*
X184909928Y-97046764D02*
G01*
X184931009Y-97053160D01*
X184950445Y-97063548D01*
X184967476Y-97077524D01*
X184981452Y-97094555D01*
X184991840Y-97113991D01*
X184998236Y-97135072D01*
X185001000Y-97163140D01*
X185001000Y-97626860D01*
X184998236Y-97654928D01*
X184991840Y-97676009D01*
X184981452Y-97695445D01*
X184967476Y-97712476D01*
X184950445Y-97726452D01*
X184931009Y-97736840D01*
X184909928Y-97743236D01*
X184881860Y-97746000D01*
X183268140Y-97746000D01*
X183240072Y-97743236D01*
X183218991Y-97736840D01*
X183199555Y-97726452D01*
X183182524Y-97712476D01*
X183168548Y-97695445D01*
X183158160Y-97676009D01*
X183151764Y-97654928D01*
X183149000Y-97626860D01*
X183149000Y-97163140D01*
X183151764Y-97135072D01*
X183158160Y-97113991D01*
X183168548Y-97094555D01*
X183182524Y-97077524D01*
X183199555Y-97063548D01*
X183218991Y-97053160D01*
X183240072Y-97046764D01*
X183268140Y-97044000D01*
X184881860Y-97044000D01*
X184909928Y-97046764D01*
G37*
G36*
X179759928Y-97046764D02*
G01*
X179781009Y-97053160D01*
X179800445Y-97063548D01*
X179817476Y-97077524D01*
X179831452Y-97094555D01*
X179841840Y-97113991D01*
X179848236Y-97135072D01*
X179851000Y-97163140D01*
X179851000Y-97626860D01*
X179848236Y-97654928D01*
X179841840Y-97676009D01*
X179831452Y-97695445D01*
X179817476Y-97712476D01*
X179800445Y-97726452D01*
X179781009Y-97736840D01*
X179759928Y-97743236D01*
X179731860Y-97746000D01*
X178118140Y-97746000D01*
X178090072Y-97743236D01*
X178068991Y-97736840D01*
X178049555Y-97726452D01*
X178032524Y-97712476D01*
X178018548Y-97695445D01*
X178008160Y-97676009D01*
X178001764Y-97654928D01*
X177999000Y-97626860D01*
X177999000Y-97163140D01*
X178001764Y-97135072D01*
X178008160Y-97113991D01*
X178018548Y-97094555D01*
X178032524Y-97077524D01*
X178049555Y-97063548D01*
X178068991Y-97053160D01*
X178090072Y-97046764D01*
X178118140Y-97044000D01*
X179731860Y-97044000D01*
X179759928Y-97046764D01*
G37*
G36*
X140029591Y-95678085D02*
G01*
X140063569Y-95688393D01*
X140094890Y-95705134D01*
X140122339Y-95727661D01*
X140144866Y-95755110D01*
X140161607Y-95786431D01*
X140171915Y-95820409D01*
X140176000Y-95861890D01*
X140176000Y-96538110D01*
X140171915Y-96579591D01*
X140161607Y-96613569D01*
X140144866Y-96644890D01*
X140122339Y-96672339D01*
X140094890Y-96694866D01*
X140063569Y-96711607D01*
X140029591Y-96721915D01*
X139988110Y-96726000D01*
X139386890Y-96726000D01*
X139345409Y-96721915D01*
X139311431Y-96711607D01*
X139280110Y-96694866D01*
X139252661Y-96672339D01*
X139230134Y-96644890D01*
X139213393Y-96613569D01*
X139203085Y-96579591D01*
X139199000Y-96538110D01*
X139199000Y-95861890D01*
X139203085Y-95820409D01*
X139213393Y-95786431D01*
X139230134Y-95755110D01*
X139252661Y-95727661D01*
X139280110Y-95705134D01*
X139311431Y-95688393D01*
X139345409Y-95678085D01*
X139386890Y-95674000D01*
X139988110Y-95674000D01*
X140029591Y-95678085D01*
G37*
G36*
X138454591Y-95678085D02*
G01*
X138488569Y-95688393D01*
X138519890Y-95705134D01*
X138547339Y-95727661D01*
X138569866Y-95755110D01*
X138586607Y-95786431D01*
X138596915Y-95820409D01*
X138601000Y-95861890D01*
X138601000Y-96538110D01*
X138596915Y-96579591D01*
X138586607Y-96613569D01*
X138569866Y-96644890D01*
X138547339Y-96672339D01*
X138519890Y-96694866D01*
X138488569Y-96711607D01*
X138454591Y-96721915D01*
X138413110Y-96726000D01*
X137811890Y-96726000D01*
X137770409Y-96721915D01*
X137736431Y-96711607D01*
X137705110Y-96694866D01*
X137677661Y-96672339D01*
X137655134Y-96644890D01*
X137638393Y-96613569D01*
X137628085Y-96579591D01*
X137624000Y-96538110D01*
X137624000Y-95861890D01*
X137628085Y-95820409D01*
X137638393Y-95786431D01*
X137655134Y-95755110D01*
X137677661Y-95727661D01*
X137705110Y-95705134D01*
X137736431Y-95688393D01*
X137770409Y-95678085D01*
X137811890Y-95674000D01*
X138413110Y-95674000D01*
X138454591Y-95678085D01*
G37*
G36*
X186084468Y-94803565D02*
G01*
X186123138Y-94815296D01*
X186158777Y-94834346D01*
X186190017Y-94859983D01*
X186215654Y-94891223D01*
X186234704Y-94926862D01*
X186246435Y-94965532D01*
X186251000Y-95011888D01*
X186251000Y-95663112D01*
X186246435Y-95709468D01*
X186234704Y-95748138D01*
X186215654Y-95783777D01*
X186190017Y-95815017D01*
X186158777Y-95840654D01*
X186123138Y-95859704D01*
X186084468Y-95871435D01*
X186038112Y-95876000D01*
X184961888Y-95876000D01*
X184915532Y-95871435D01*
X184876862Y-95859704D01*
X184841223Y-95840654D01*
X184809983Y-95815017D01*
X184784346Y-95783777D01*
X184765296Y-95748138D01*
X184753565Y-95709468D01*
X184749000Y-95663112D01*
X184749000Y-95011888D01*
X184753565Y-94965532D01*
X184765296Y-94926862D01*
X184784346Y-94891223D01*
X184809983Y-94859983D01*
X184841223Y-94834346D01*
X184876862Y-94815296D01*
X184915532Y-94803565D01*
X184961888Y-94799000D01*
X186038112Y-94799000D01*
X186084468Y-94803565D01*
G37*
G36*
X141386000Y-94806000D02*
G01*
X140384000Y-94806000D01*
X140384000Y-92704000D01*
X141386000Y-92704000D01*
X141386000Y-94806000D01*
G37*
G36*
X152816000Y-94806000D02*
G01*
X151814000Y-94806000D01*
X151814000Y-92704000D01*
X152816000Y-92704000D01*
X152816000Y-94806000D01*
G37*
G36*
X151546000Y-94806000D02*
G01*
X150544000Y-94806000D01*
X150544000Y-92704000D01*
X151546000Y-92704000D01*
X151546000Y-94806000D01*
G37*
G36*
X142656000Y-94806000D02*
G01*
X141654000Y-94806000D01*
X141654000Y-92704000D01*
X142656000Y-92704000D01*
X142656000Y-94806000D01*
G37*
G36*
X143926000Y-94806000D02*
G01*
X142924000Y-94806000D01*
X142924000Y-92704000D01*
X143926000Y-92704000D01*
X143926000Y-94806000D01*
G37*
G36*
X145196000Y-94806000D02*
G01*
X144194000Y-94806000D01*
X144194000Y-92704000D01*
X145196000Y-92704000D01*
X145196000Y-94806000D01*
G37*
G36*
X150276000Y-94806000D02*
G01*
X149274000Y-94806000D01*
X149274000Y-92704000D01*
X150276000Y-92704000D01*
X150276000Y-94806000D01*
G37*
G36*
X146466000Y-94806000D02*
G01*
X145464000Y-94806000D01*
X145464000Y-92704000D01*
X146466000Y-92704000D01*
X146466000Y-94806000D01*
G37*
G36*
X147736000Y-94806000D02*
G01*
X146734000Y-94806000D01*
X146734000Y-92704000D01*
X147736000Y-92704000D01*
X147736000Y-94806000D01*
G37*
G36*
X149006000Y-94806000D02*
G01*
X148004000Y-94806000D01*
X148004000Y-92704000D01*
X149006000Y-92704000D01*
X149006000Y-94806000D01*
G37*
G36*
X163701000Y-94801000D02*
G01*
X162299000Y-94801000D01*
X162299000Y-93149000D01*
X163701000Y-93149000D01*
X163701000Y-94801000D01*
G37*
G36*
X159201000Y-94801000D02*
G01*
X157799000Y-94801000D01*
X157799000Y-93149000D01*
X159201000Y-93149000D01*
X159201000Y-94801000D01*
G37*
G36*
X186084468Y-92928565D02*
G01*
X186123138Y-92940296D01*
X186158777Y-92959346D01*
X186190017Y-92984983D01*
X186215654Y-93016223D01*
X186234704Y-93051862D01*
X186246435Y-93090532D01*
X186251000Y-93136888D01*
X186251000Y-93788112D01*
X186246435Y-93834468D01*
X186234704Y-93873138D01*
X186215654Y-93908777D01*
X186190017Y-93940017D01*
X186158777Y-93965654D01*
X186123138Y-93984704D01*
X186084468Y-93996435D01*
X186038112Y-94001000D01*
X184961888Y-94001000D01*
X184915532Y-93996435D01*
X184876862Y-93984704D01*
X184841223Y-93965654D01*
X184809983Y-93940017D01*
X184784346Y-93908777D01*
X184765296Y-93873138D01*
X184753565Y-93834468D01*
X184749000Y-93788112D01*
X184749000Y-93136888D01*
X184753565Y-93090532D01*
X184765296Y-93051862D01*
X184784346Y-93016223D01*
X184809983Y-92984983D01*
X184841223Y-92959346D01*
X184876862Y-92940296D01*
X184915532Y-92928565D01*
X184961888Y-92924000D01*
X186038112Y-92924000D01*
X186084468Y-92928565D01*
G37*
G36*
X139151000Y-93256000D02*
G01*
X137049000Y-93256000D01*
X137049000Y-92254000D01*
X139151000Y-92254000D01*
X139151000Y-93256000D01*
G37*
G36*
X156151000Y-93256000D02*
G01*
X154049000Y-93256000D01*
X154049000Y-92254000D01*
X156151000Y-92254000D01*
X156151000Y-93256000D01*
G37*
G36*
X170113512Y-90803927D02*
G01*
X170262812Y-90833624D01*
X170426784Y-90901544D01*
X170574354Y-91000147D01*
X170699853Y-91125646D01*
X170798456Y-91273216D01*
X170866376Y-91437188D01*
X170901000Y-91611259D01*
X170901000Y-91788741D01*
X170866376Y-91962812D01*
X170798456Y-92126784D01*
X170699853Y-92274354D01*
X170574354Y-92399853D01*
X170426784Y-92498456D01*
X170262812Y-92566376D01*
X170113512Y-92596073D01*
X170088742Y-92601000D01*
X169911258Y-92601000D01*
X169886488Y-92596073D01*
X169737188Y-92566376D01*
X169573216Y-92498456D01*
X169425646Y-92399853D01*
X169300147Y-92274354D01*
X169201544Y-92126784D01*
X169133624Y-91962812D01*
X169099000Y-91788741D01*
X169099000Y-91611259D01*
X169133624Y-91437188D01*
X169201544Y-91273216D01*
X169300147Y-91125646D01*
X169425646Y-91000147D01*
X169573216Y-90901544D01*
X169737188Y-90833624D01*
X169886488Y-90803927D01*
X169911258Y-90799000D01*
X170088742Y-90799000D01*
X170113512Y-90803927D01*
G37*
G36*
X156151000Y-91986000D02*
G01*
X154049000Y-91986000D01*
X154049000Y-90984000D01*
X156151000Y-90984000D01*
X156151000Y-91986000D01*
G37*
G36*
X139151000Y-91986000D02*
G01*
X137049000Y-91986000D01*
X137049000Y-90984000D01*
X139151000Y-90984000D01*
X139151000Y-91986000D01*
G37*
G36*
X130809468Y-89753565D02*
G01*
X130848138Y-89765296D01*
X130883777Y-89784346D01*
X130915017Y-89809983D01*
X130940654Y-89841223D01*
X130959704Y-89876862D01*
X130971435Y-89915532D01*
X130976000Y-89961888D01*
X130976000Y-91038112D01*
X130971435Y-91084468D01*
X130959704Y-91123138D01*
X130940654Y-91158777D01*
X130915017Y-91190017D01*
X130883777Y-91215654D01*
X130848138Y-91234704D01*
X130809468Y-91246435D01*
X130763112Y-91251000D01*
X130111888Y-91251000D01*
X130065532Y-91246435D01*
X130026862Y-91234704D01*
X129991223Y-91215654D01*
X129959983Y-91190017D01*
X129934346Y-91158777D01*
X129915296Y-91123138D01*
X129903565Y-91084468D01*
X129899000Y-91038112D01*
X129899000Y-89961888D01*
X129903565Y-89915532D01*
X129915296Y-89876862D01*
X129934346Y-89841223D01*
X129959983Y-89809983D01*
X129991223Y-89784346D01*
X130026862Y-89765296D01*
X130065532Y-89753565D01*
X130111888Y-89749000D01*
X130763112Y-89749000D01*
X130809468Y-89753565D01*
G37*
G36*
X128934468Y-89753565D02*
G01*
X128973138Y-89765296D01*
X129008777Y-89784346D01*
X129040017Y-89809983D01*
X129065654Y-89841223D01*
X129084704Y-89876862D01*
X129096435Y-89915532D01*
X129101000Y-89961888D01*
X129101000Y-91038112D01*
X129096435Y-91084468D01*
X129084704Y-91123138D01*
X129065654Y-91158777D01*
X129040017Y-91190017D01*
X129008777Y-91215654D01*
X128973138Y-91234704D01*
X128934468Y-91246435D01*
X128888112Y-91251000D01*
X128236888Y-91251000D01*
X128190532Y-91246435D01*
X128151862Y-91234704D01*
X128116223Y-91215654D01*
X128084983Y-91190017D01*
X128059346Y-91158777D01*
X128040296Y-91123138D01*
X128028565Y-91084468D01*
X128024000Y-91038112D01*
X128024000Y-89961888D01*
X128028565Y-89915532D01*
X128040296Y-89876862D01*
X128059346Y-89841223D01*
X128084983Y-89809983D01*
X128116223Y-89784346D01*
X128151862Y-89765296D01*
X128190532Y-89753565D01*
X128236888Y-89749000D01*
X128888112Y-89749000D01*
X128934468Y-89753565D01*
G37*
G36*
X156151000Y-90716000D02*
G01*
X154049000Y-90716000D01*
X154049000Y-89714000D01*
X156151000Y-89714000D01*
X156151000Y-90716000D01*
G37*
G36*
X139151000Y-90716000D02*
G01*
X137049000Y-90716000D01*
X137049000Y-89714000D01*
X139151000Y-89714000D01*
X139151000Y-90716000D01*
G37*
G36*
X170113512Y-88263927D02*
G01*
X170262812Y-88293624D01*
X170426784Y-88361544D01*
X170574354Y-88460147D01*
X170699853Y-88585646D01*
X170798456Y-88733216D01*
X170866376Y-88897188D01*
X170901000Y-89071259D01*
X170901000Y-89248741D01*
X170866376Y-89422812D01*
X170798456Y-89586784D01*
X170699853Y-89734354D01*
X170574354Y-89859853D01*
X170426784Y-89958456D01*
X170262812Y-90026376D01*
X170113512Y-90056073D01*
X170088742Y-90061000D01*
X169911258Y-90061000D01*
X169886488Y-90056073D01*
X169737188Y-90026376D01*
X169573216Y-89958456D01*
X169425646Y-89859853D01*
X169300147Y-89734354D01*
X169201544Y-89586784D01*
X169133624Y-89422812D01*
X169099000Y-89248741D01*
X169099000Y-89071259D01*
X169133624Y-88897188D01*
X169201544Y-88733216D01*
X169300147Y-88585646D01*
X169425646Y-88460147D01*
X169573216Y-88361544D01*
X169737188Y-88293624D01*
X169886488Y-88263927D01*
X169911258Y-88259000D01*
X170088742Y-88259000D01*
X170113512Y-88263927D01*
G37*
G36*
X114534592Y-88843086D02*
G01*
X114568570Y-88853394D01*
X114599891Y-88870135D01*
X114627340Y-88892662D01*
X114649867Y-88920111D01*
X114666608Y-88951432D01*
X114676916Y-88985410D01*
X114681001Y-89026891D01*
X114681001Y-89703111D01*
X114676916Y-89744590D01*
X114666608Y-89778570D01*
X114649867Y-89809891D01*
X114627340Y-89837340D01*
X114599891Y-89859867D01*
X114568570Y-89876608D01*
X114534592Y-89886916D01*
X114493111Y-89891001D01*
X113891891Y-89891001D01*
X113850410Y-89886916D01*
X113816432Y-89876608D01*
X113785111Y-89859867D01*
X113757662Y-89837340D01*
X113735135Y-89809891D01*
X113718394Y-89778570D01*
X113708086Y-89744590D01*
X113704001Y-89703111D01*
X113704001Y-89026891D01*
X113708086Y-88985410D01*
X113718394Y-88951432D01*
X113735135Y-88920111D01*
X113757662Y-88892662D01*
X113785111Y-88870135D01*
X113816432Y-88853394D01*
X113850410Y-88843086D01*
X113891891Y-88839001D01*
X114493111Y-88839001D01*
X114534592Y-88843086D01*
G37*
G36*
X122554592Y-88843086D02*
G01*
X122588570Y-88853394D01*
X122619891Y-88870135D01*
X122647340Y-88892662D01*
X122669867Y-88920111D01*
X122686608Y-88951432D01*
X122696916Y-88985410D01*
X122701001Y-89026891D01*
X122701001Y-89703111D01*
X122696916Y-89744590D01*
X122686608Y-89778570D01*
X122669867Y-89809891D01*
X122647340Y-89837340D01*
X122619891Y-89859867D01*
X122588570Y-89876608D01*
X122554592Y-89886916D01*
X122513111Y-89891001D01*
X121911891Y-89891001D01*
X121870410Y-89886916D01*
X121836432Y-89876608D01*
X121805111Y-89859867D01*
X121777662Y-89837340D01*
X121755135Y-89809891D01*
X121738394Y-89778570D01*
X121728086Y-89744590D01*
X121724001Y-89703111D01*
X121724001Y-89026891D01*
X121728086Y-88985410D01*
X121738394Y-88951432D01*
X121755135Y-88920111D01*
X121777662Y-88892662D01*
X121805111Y-88870135D01*
X121836432Y-88853394D01*
X121870410Y-88843086D01*
X121911891Y-88839001D01*
X122513111Y-88839001D01*
X122554592Y-88843086D01*
G37*
G36*
X120979592Y-88843086D02*
G01*
X121013570Y-88853394D01*
X121044891Y-88870135D01*
X121072340Y-88892662D01*
X121094867Y-88920111D01*
X121111608Y-88951432D01*
X121121916Y-88985410D01*
X121126001Y-89026891D01*
X121126001Y-89703111D01*
X121121916Y-89744590D01*
X121111608Y-89778570D01*
X121094867Y-89809891D01*
X121072340Y-89837340D01*
X121044891Y-89859867D01*
X121013570Y-89876608D01*
X120979592Y-89886916D01*
X120938111Y-89891001D01*
X120336891Y-89891001D01*
X120295410Y-89886916D01*
X120261432Y-89876608D01*
X120230111Y-89859867D01*
X120202662Y-89837340D01*
X120180135Y-89809891D01*
X120163394Y-89778570D01*
X120153086Y-89744590D01*
X120149001Y-89703111D01*
X120149001Y-89026891D01*
X120153086Y-88985410D01*
X120163394Y-88951432D01*
X120180135Y-88920111D01*
X120202662Y-88892662D01*
X120230111Y-88870135D01*
X120261432Y-88853394D01*
X120295410Y-88843086D01*
X120336891Y-88839001D01*
X120938111Y-88839001D01*
X120979592Y-88843086D01*
G37*
G36*
X116969592Y-88843086D02*
G01*
X117003570Y-88853394D01*
X117034891Y-88870135D01*
X117062340Y-88892662D01*
X117084867Y-88920111D01*
X117101608Y-88951432D01*
X117111916Y-88985410D01*
X117116001Y-89026891D01*
X117116001Y-89703111D01*
X117111916Y-89744590D01*
X117101608Y-89778570D01*
X117084867Y-89809891D01*
X117062340Y-89837340D01*
X117034891Y-89859867D01*
X117003570Y-89876608D01*
X116969592Y-89886916D01*
X116928111Y-89891001D01*
X116326891Y-89891001D01*
X116285410Y-89886916D01*
X116251432Y-89876608D01*
X116220111Y-89859867D01*
X116192662Y-89837340D01*
X116170135Y-89809891D01*
X116153394Y-89778570D01*
X116143086Y-89744590D01*
X116139001Y-89703111D01*
X116139001Y-89026891D01*
X116143086Y-88985410D01*
X116153394Y-88951432D01*
X116170135Y-88920111D01*
X116192662Y-88892662D01*
X116220111Y-88870135D01*
X116251432Y-88853394D01*
X116285410Y-88843086D01*
X116326891Y-88839001D01*
X116928111Y-88839001D01*
X116969592Y-88843086D01*
G37*
G36*
X118544592Y-88843086D02*
G01*
X118578570Y-88853394D01*
X118609891Y-88870135D01*
X118637340Y-88892662D01*
X118659867Y-88920111D01*
X118676608Y-88951432D01*
X118686916Y-88985410D01*
X118691001Y-89026891D01*
X118691001Y-89703111D01*
X118686916Y-89744590D01*
X118676608Y-89778570D01*
X118659867Y-89809891D01*
X118637340Y-89837340D01*
X118609891Y-89859867D01*
X118578570Y-89876608D01*
X118544592Y-89886916D01*
X118503111Y-89891001D01*
X117901891Y-89891001D01*
X117860410Y-89886916D01*
X117826432Y-89876608D01*
X117795111Y-89859867D01*
X117767662Y-89837340D01*
X117745135Y-89809891D01*
X117728394Y-89778570D01*
X117718086Y-89744590D01*
X117714001Y-89703111D01*
X117714001Y-89026891D01*
X117718086Y-88985410D01*
X117728394Y-88951432D01*
X117745135Y-88920111D01*
X117767662Y-88892662D01*
X117795111Y-88870135D01*
X117826432Y-88853394D01*
X117860410Y-88843086D01*
X117901891Y-88839001D01*
X118503111Y-88839001D01*
X118544592Y-88843086D01*
G37*
G36*
X112959592Y-88843086D02*
G01*
X112993570Y-88853394D01*
X113024891Y-88870135D01*
X113052340Y-88892662D01*
X113074867Y-88920111D01*
X113091608Y-88951432D01*
X113101916Y-88985410D01*
X113106001Y-89026891D01*
X113106001Y-89703111D01*
X113101916Y-89744590D01*
X113091608Y-89778570D01*
X113074867Y-89809891D01*
X113052340Y-89837340D01*
X113024891Y-89859867D01*
X112993570Y-89876608D01*
X112959592Y-89886916D01*
X112918111Y-89891001D01*
X112316891Y-89891001D01*
X112275410Y-89886916D01*
X112241432Y-89876608D01*
X112210111Y-89859867D01*
X112182662Y-89837340D01*
X112160135Y-89809891D01*
X112143394Y-89778570D01*
X112133086Y-89744590D01*
X112129001Y-89703111D01*
X112129001Y-89026891D01*
X112133086Y-88985410D01*
X112143394Y-88951432D01*
X112160135Y-88920111D01*
X112182662Y-88892662D01*
X112210111Y-88870135D01*
X112241432Y-88853394D01*
X112275410Y-88843086D01*
X112316891Y-88839001D01*
X112918111Y-88839001D01*
X112959592Y-88843086D01*
G37*
G36*
X139151000Y-89446000D02*
G01*
X137049000Y-89446000D01*
X137049000Y-88444000D01*
X139151000Y-88444000D01*
X139151000Y-89446000D01*
G37*
G36*
X156151000Y-89446000D02*
G01*
X154049000Y-89446000D01*
X154049000Y-88444000D01*
X156151000Y-88444000D01*
X156151000Y-89446000D01*
G37*
G36*
X131126000Y-89181000D02*
G01*
X128474000Y-89181000D01*
X128474000Y-88019000D01*
X131126000Y-88019000D01*
X131126000Y-89181000D01*
G37*
G36*
X139151000Y-88176000D02*
G01*
X137049000Y-88176000D01*
X137049000Y-87174000D01*
X139151000Y-87174000D01*
X139151000Y-88176000D01*
G37*
G36*
X156151000Y-88176000D02*
G01*
X154049000Y-88176000D01*
X154049000Y-87174000D01*
X156151000Y-87174000D01*
X156151000Y-88176000D01*
G37*
G36*
X133384468Y-86841065D02*
G01*
X133423138Y-86852796D01*
X133458777Y-86871846D01*
X133490017Y-86897483D01*
X133515654Y-86928723D01*
X133534704Y-86964362D01*
X133546435Y-87003032D01*
X133551000Y-87049388D01*
X133551000Y-87700612D01*
X133546435Y-87746968D01*
X133534704Y-87785638D01*
X133515654Y-87821277D01*
X133490017Y-87852517D01*
X133458777Y-87878154D01*
X133423138Y-87897204D01*
X133384468Y-87908935D01*
X133338112Y-87913500D01*
X132261888Y-87913500D01*
X132215532Y-87908935D01*
X132176862Y-87897204D01*
X132141223Y-87878154D01*
X132109983Y-87852517D01*
X132084346Y-87821277D01*
X132065296Y-87785638D01*
X132053565Y-87746968D01*
X132049000Y-87700612D01*
X132049000Y-87049388D01*
X132053565Y-87003032D01*
X132065296Y-86964362D01*
X132084346Y-86928723D01*
X132109983Y-86897483D01*
X132141223Y-86871846D01*
X132176862Y-86852796D01*
X132215532Y-86841065D01*
X132261888Y-86836500D01*
X133338112Y-86836500D01*
X133384468Y-86841065D01*
G37*
G36*
X176913512Y-85823927D02*
G01*
X177062812Y-85853624D01*
X177226784Y-85921544D01*
X177374354Y-86020147D01*
X177499853Y-86145646D01*
X177598456Y-86293216D01*
X177666376Y-86457188D01*
X177681109Y-86531259D01*
X177698413Y-86618250D01*
X177701000Y-86631259D01*
X177701000Y-86808741D01*
X177666376Y-86982812D01*
X177598456Y-87146784D01*
X177499853Y-87294354D01*
X177374354Y-87419853D01*
X177226784Y-87518456D01*
X177062812Y-87586376D01*
X176913512Y-87616073D01*
X176888742Y-87621000D01*
X176711258Y-87621000D01*
X176686488Y-87616073D01*
X176537188Y-87586376D01*
X176373216Y-87518456D01*
X176225646Y-87419853D01*
X176100147Y-87294354D01*
X176001544Y-87146784D01*
X175933624Y-86982812D01*
X175899000Y-86808741D01*
X175899000Y-86631259D01*
X175901588Y-86618250D01*
X175918891Y-86531259D01*
X175933624Y-86457188D01*
X176001544Y-86293216D01*
X176100147Y-86145646D01*
X176225646Y-86020147D01*
X176373216Y-85921544D01*
X176537188Y-85853624D01*
X176686488Y-85823927D01*
X176711258Y-85819000D01*
X176888742Y-85819000D01*
X176913512Y-85823927D01*
G37*
G36*
X170113512Y-85723927D02*
G01*
X170262812Y-85753624D01*
X170426784Y-85821544D01*
X170574354Y-85920147D01*
X170699853Y-86045646D01*
X170798456Y-86193216D01*
X170866376Y-86357188D01*
X170891312Y-86482552D01*
X170899875Y-86525600D01*
X170901000Y-86531259D01*
X170901000Y-86708741D01*
X170866376Y-86882812D01*
X170798456Y-87046784D01*
X170699853Y-87194354D01*
X170574354Y-87319853D01*
X170426784Y-87418456D01*
X170262812Y-87486376D01*
X170113512Y-87516073D01*
X170088742Y-87521000D01*
X169911258Y-87521000D01*
X169886488Y-87516073D01*
X169737188Y-87486376D01*
X169573216Y-87418456D01*
X169425646Y-87319853D01*
X169300147Y-87194354D01*
X169201544Y-87046784D01*
X169133624Y-86882812D01*
X169099000Y-86708741D01*
X169099000Y-86531259D01*
X169100126Y-86525600D01*
X169108688Y-86482552D01*
X169133624Y-86357188D01*
X169201544Y-86193216D01*
X169300147Y-86045646D01*
X169425646Y-85920147D01*
X169573216Y-85821544D01*
X169737188Y-85753624D01*
X169886488Y-85723927D01*
X169911258Y-85719000D01*
X170088742Y-85719000D01*
X170113512Y-85723927D01*
G37*
G36*
X183754591Y-86378085D02*
G01*
X183788569Y-86388393D01*
X183819890Y-86405134D01*
X183847339Y-86427661D01*
X183869866Y-86455110D01*
X183886607Y-86486431D01*
X183896915Y-86520409D01*
X183901000Y-86561890D01*
X183901000Y-87238110D01*
X183896915Y-87279591D01*
X183886607Y-87313569D01*
X183869866Y-87344890D01*
X183847339Y-87372339D01*
X183819890Y-87394866D01*
X183788569Y-87411607D01*
X183754591Y-87421915D01*
X183713110Y-87426000D01*
X183111890Y-87426000D01*
X183070409Y-87421915D01*
X183036431Y-87411607D01*
X183005110Y-87394866D01*
X182977661Y-87372339D01*
X182955134Y-87344890D01*
X182938393Y-87313569D01*
X182928085Y-87279591D01*
X182924000Y-87238110D01*
X182924000Y-86561890D01*
X182928085Y-86520409D01*
X182938393Y-86486431D01*
X182955134Y-86455110D01*
X182977661Y-86427661D01*
X183005110Y-86405134D01*
X183036431Y-86388393D01*
X183070409Y-86378085D01*
X183111890Y-86374000D01*
X183713110Y-86374000D01*
X183754591Y-86378085D01*
G37*
G36*
X185329591Y-86378085D02*
G01*
X185363569Y-86388393D01*
X185394890Y-86405134D01*
X185422339Y-86427661D01*
X185444866Y-86455110D01*
X185461607Y-86486431D01*
X185471915Y-86520409D01*
X185476000Y-86561890D01*
X185476000Y-87238110D01*
X185471915Y-87279591D01*
X185461607Y-87313569D01*
X185444866Y-87344890D01*
X185422339Y-87372339D01*
X185394890Y-87394866D01*
X185363569Y-87411607D01*
X185329591Y-87421915D01*
X185288110Y-87426000D01*
X184686890Y-87426000D01*
X184645409Y-87421915D01*
X184611431Y-87411607D01*
X184580110Y-87394866D01*
X184552661Y-87372339D01*
X184530134Y-87344890D01*
X184513393Y-87313569D01*
X184503085Y-87279591D01*
X184499000Y-87238110D01*
X184499000Y-86561890D01*
X184503085Y-86520409D01*
X184513393Y-86486431D01*
X184530134Y-86455110D01*
X184552661Y-86427661D01*
X184580110Y-86405134D01*
X184611431Y-86388393D01*
X184645409Y-86378085D01*
X184686890Y-86374000D01*
X185288110Y-86374000D01*
X185329591Y-86378085D01*
G37*
G36*
X114534592Y-86333086D02*
G01*
X114568570Y-86343394D01*
X114599891Y-86360135D01*
X114627340Y-86382662D01*
X114649867Y-86410111D01*
X114666608Y-86441432D01*
X114676916Y-86475410D01*
X114681001Y-86516891D01*
X114681001Y-87193111D01*
X114676916Y-87234592D01*
X114666608Y-87268570D01*
X114649867Y-87299891D01*
X114627340Y-87327340D01*
X114599891Y-87349867D01*
X114568570Y-87366608D01*
X114534592Y-87376916D01*
X114493111Y-87381001D01*
X113891891Y-87381001D01*
X113850410Y-87376916D01*
X113816432Y-87366608D01*
X113785111Y-87349867D01*
X113757662Y-87327340D01*
X113735135Y-87299891D01*
X113718394Y-87268570D01*
X113708086Y-87234592D01*
X113704001Y-87193111D01*
X113704001Y-86516891D01*
X113708086Y-86475410D01*
X113718394Y-86441432D01*
X113735135Y-86410111D01*
X113757662Y-86382662D01*
X113785111Y-86360135D01*
X113816432Y-86343394D01*
X113850410Y-86333086D01*
X113891891Y-86329001D01*
X114493111Y-86329001D01*
X114534592Y-86333086D01*
G37*
G36*
X116969592Y-86333086D02*
G01*
X117003570Y-86343394D01*
X117034891Y-86360135D01*
X117062340Y-86382662D01*
X117084867Y-86410111D01*
X117101608Y-86441432D01*
X117111916Y-86475410D01*
X117116001Y-86516891D01*
X117116001Y-87193111D01*
X117111916Y-87234592D01*
X117101608Y-87268570D01*
X117084867Y-87299891D01*
X117062340Y-87327340D01*
X117034891Y-87349867D01*
X117003570Y-87366608D01*
X116969592Y-87376916D01*
X116928111Y-87381001D01*
X116326891Y-87381001D01*
X116285410Y-87376916D01*
X116251432Y-87366608D01*
X116220111Y-87349867D01*
X116192662Y-87327340D01*
X116170135Y-87299891D01*
X116153394Y-87268570D01*
X116143086Y-87234592D01*
X116139001Y-87193111D01*
X116139001Y-86516891D01*
X116143086Y-86475410D01*
X116153394Y-86441432D01*
X116170135Y-86410111D01*
X116192662Y-86382662D01*
X116220111Y-86360135D01*
X116251432Y-86343394D01*
X116285410Y-86333086D01*
X116326891Y-86329001D01*
X116928111Y-86329001D01*
X116969592Y-86333086D01*
G37*
G36*
X118544592Y-86333086D02*
G01*
X118578570Y-86343394D01*
X118609891Y-86360135D01*
X118637340Y-86382662D01*
X118659867Y-86410111D01*
X118676608Y-86441432D01*
X118686916Y-86475410D01*
X118691001Y-86516891D01*
X118691001Y-87193111D01*
X118686916Y-87234592D01*
X118676608Y-87268570D01*
X118659867Y-87299891D01*
X118637340Y-87327340D01*
X118609891Y-87349867D01*
X118578570Y-87366608D01*
X118544592Y-87376916D01*
X118503111Y-87381001D01*
X117901891Y-87381001D01*
X117860410Y-87376916D01*
X117826432Y-87366608D01*
X117795111Y-87349867D01*
X117767662Y-87327340D01*
X117745135Y-87299891D01*
X117728394Y-87268570D01*
X117718086Y-87234592D01*
X117714001Y-87193111D01*
X117714001Y-86516891D01*
X117718086Y-86475410D01*
X117728394Y-86441432D01*
X117745135Y-86410111D01*
X117767662Y-86382662D01*
X117795111Y-86360135D01*
X117826432Y-86343394D01*
X117860410Y-86333086D01*
X117901891Y-86329001D01*
X118503111Y-86329001D01*
X118544592Y-86333086D01*
G37*
G36*
X120979592Y-86333086D02*
G01*
X121013570Y-86343394D01*
X121044891Y-86360135D01*
X121072340Y-86382662D01*
X121094867Y-86410111D01*
X121111608Y-86441432D01*
X121121916Y-86475410D01*
X121126001Y-86516891D01*
X121126001Y-87193111D01*
X121121916Y-87234592D01*
X121111608Y-87268570D01*
X121094867Y-87299891D01*
X121072340Y-87327340D01*
X121044891Y-87349867D01*
X121013570Y-87366608D01*
X120979592Y-87376916D01*
X120938111Y-87381001D01*
X120336891Y-87381001D01*
X120295410Y-87376916D01*
X120261432Y-87366608D01*
X120230111Y-87349867D01*
X120202662Y-87327340D01*
X120180135Y-87299891D01*
X120163394Y-87268570D01*
X120153086Y-87234592D01*
X120149001Y-87193111D01*
X120149001Y-86516891D01*
X120153086Y-86475410D01*
X120163394Y-86441432D01*
X120180135Y-86410111D01*
X120202662Y-86382662D01*
X120230111Y-86360135D01*
X120261432Y-86343394D01*
X120295410Y-86333086D01*
X120336891Y-86329001D01*
X120938111Y-86329001D01*
X120979592Y-86333086D01*
G37*
G36*
X122554592Y-86333086D02*
G01*
X122588570Y-86343394D01*
X122619891Y-86360135D01*
X122647340Y-86382662D01*
X122669867Y-86410111D01*
X122686608Y-86441432D01*
X122696916Y-86475410D01*
X122701001Y-86516891D01*
X122701001Y-87193111D01*
X122696916Y-87234592D01*
X122686608Y-87268570D01*
X122669867Y-87299891D01*
X122647340Y-87327340D01*
X122619891Y-87349867D01*
X122588570Y-87366608D01*
X122554592Y-87376916D01*
X122513111Y-87381001D01*
X121911891Y-87381001D01*
X121870410Y-87376916D01*
X121836432Y-87366608D01*
X121805111Y-87349867D01*
X121777662Y-87327340D01*
X121755135Y-87299891D01*
X121738394Y-87268570D01*
X121728086Y-87234592D01*
X121724001Y-87193111D01*
X121724001Y-86516891D01*
X121728086Y-86475410D01*
X121738394Y-86441432D01*
X121755135Y-86410111D01*
X121777662Y-86382662D01*
X121805111Y-86360135D01*
X121836432Y-86343394D01*
X121870410Y-86333086D01*
X121911891Y-86329001D01*
X122513111Y-86329001D01*
X122554592Y-86333086D01*
G37*
G36*
X112959592Y-86333086D02*
G01*
X112993570Y-86343394D01*
X113024891Y-86360135D01*
X113052340Y-86382662D01*
X113074867Y-86410111D01*
X113091608Y-86441432D01*
X113101916Y-86475410D01*
X113106001Y-86516891D01*
X113106001Y-87193111D01*
X113101916Y-87234592D01*
X113091608Y-87268570D01*
X113074867Y-87299891D01*
X113052340Y-87327340D01*
X113024891Y-87349867D01*
X112993570Y-87366608D01*
X112959592Y-87376916D01*
X112918111Y-87381001D01*
X112316891Y-87381001D01*
X112275410Y-87376916D01*
X112241432Y-87366608D01*
X112210111Y-87349867D01*
X112182662Y-87327340D01*
X112160135Y-87299891D01*
X112143394Y-87268570D01*
X112133086Y-87234592D01*
X112129001Y-87193111D01*
X112129001Y-86516891D01*
X112133086Y-86475410D01*
X112143394Y-86441432D01*
X112160135Y-86410111D01*
X112182662Y-86382662D01*
X112210111Y-86360135D01*
X112241432Y-86343394D01*
X112275410Y-86333086D01*
X112316891Y-86329001D01*
X112918111Y-86329001D01*
X112959592Y-86333086D01*
G37*
G36*
X131126000Y-86981000D02*
G01*
X130374000Y-86981000D01*
X130374000Y-85819000D01*
X131126000Y-85819000D01*
X131126000Y-86981000D01*
G37*
G36*
X129226000Y-86981000D02*
G01*
X128474000Y-86981000D01*
X128474000Y-85819000D01*
X129226000Y-85819000D01*
X129226000Y-86981000D01*
G37*
G36*
X156151000Y-86906000D02*
G01*
X154049000Y-86906000D01*
X154049000Y-85904000D01*
X156151000Y-85904000D01*
X156151000Y-86906000D01*
G37*
G36*
X139151000Y-86906000D02*
G01*
X137049000Y-86906000D01*
X137049000Y-85904000D01*
X139151000Y-85904000D01*
X139151000Y-86906000D01*
G37*
G36*
X163701000Y-86851000D02*
G01*
X162299000Y-86851000D01*
X162299000Y-85199000D01*
X163701000Y-85199000D01*
X163701000Y-86851000D01*
G37*
G36*
X159201000Y-86851000D02*
G01*
X157799000Y-86851000D01*
X157799000Y-85199000D01*
X159201000Y-85199000D01*
X159201000Y-86851000D01*
G37*
G36*
X148151000Y-86296000D02*
G01*
X143049000Y-86296000D01*
X143049000Y-81194000D01*
X148151000Y-81194000D01*
X148151000Y-86296000D01*
G37*
G36*
X133384468Y-84966065D02*
G01*
X133423138Y-84977796D01*
X133458777Y-84996846D01*
X133490017Y-85022483D01*
X133515654Y-85053723D01*
X133534704Y-85089362D01*
X133546435Y-85128032D01*
X133551000Y-85174388D01*
X133551000Y-85825612D01*
X133546435Y-85871968D01*
X133534704Y-85910638D01*
X133515654Y-85946277D01*
X133490017Y-85977517D01*
X133458777Y-86003154D01*
X133423138Y-86022204D01*
X133384468Y-86033935D01*
X133338112Y-86038500D01*
X132261888Y-86038500D01*
X132215532Y-86033935D01*
X132176862Y-86022204D01*
X132141223Y-86003154D01*
X132109983Y-85977517D01*
X132084346Y-85946277D01*
X132065296Y-85910638D01*
X132053565Y-85871968D01*
X132049000Y-85825612D01*
X132049000Y-85174388D01*
X132053565Y-85128032D01*
X132065296Y-85089362D01*
X132084346Y-85053723D01*
X132109983Y-85022483D01*
X132141223Y-84996846D01*
X132176862Y-84977796D01*
X132215532Y-84966065D01*
X132261888Y-84961500D01*
X133338112Y-84961500D01*
X133384468Y-84966065D01*
G37*
G36*
X139151000Y-85636000D02*
G01*
X137049000Y-85636000D01*
X137049000Y-84634000D01*
X139151000Y-84634000D01*
X139151000Y-85636000D01*
G37*
G36*
X156151000Y-85636000D02*
G01*
X154049000Y-85636000D01*
X154049000Y-84634000D01*
X156151000Y-84634000D01*
X156151000Y-85636000D01*
G37*
G36*
X185329591Y-84478085D02*
G01*
X185363569Y-84488393D01*
X185394890Y-84505134D01*
X185422339Y-84527661D01*
X185444866Y-84555110D01*
X185461607Y-84586431D01*
X185471915Y-84620409D01*
X185476000Y-84661890D01*
X185476000Y-85338110D01*
X185471915Y-85379591D01*
X185461607Y-85413569D01*
X185444866Y-85444890D01*
X185422339Y-85472339D01*
X185394890Y-85494866D01*
X185363569Y-85511607D01*
X185329591Y-85521915D01*
X185288110Y-85526000D01*
X184686890Y-85526000D01*
X184645409Y-85521915D01*
X184611431Y-85511607D01*
X184580110Y-85494866D01*
X184552661Y-85472339D01*
X184530134Y-85444890D01*
X184513393Y-85413569D01*
X184503085Y-85379591D01*
X184499000Y-85338110D01*
X184499000Y-84661890D01*
X184503085Y-84620409D01*
X184513393Y-84586431D01*
X184530134Y-84555110D01*
X184552661Y-84527661D01*
X184580110Y-84505134D01*
X184611431Y-84488393D01*
X184645409Y-84478085D01*
X184686890Y-84474000D01*
X185288110Y-84474000D01*
X185329591Y-84478085D01*
G37*
G36*
X183754591Y-84478085D02*
G01*
X183788569Y-84488393D01*
X183819890Y-84505134D01*
X183847339Y-84527661D01*
X183869866Y-84555110D01*
X183886607Y-84586431D01*
X183896915Y-84620409D01*
X183901000Y-84661890D01*
X183901000Y-85338110D01*
X183896915Y-85379591D01*
X183886607Y-85413569D01*
X183869866Y-85444890D01*
X183847339Y-85472339D01*
X183819890Y-85494866D01*
X183788569Y-85511607D01*
X183754591Y-85521915D01*
X183713110Y-85526000D01*
X183111890Y-85526000D01*
X183070409Y-85521915D01*
X183036431Y-85511607D01*
X183005110Y-85494866D01*
X182977661Y-85472339D01*
X182955134Y-85444890D01*
X182938393Y-85413569D01*
X182928085Y-85379591D01*
X182924000Y-85338110D01*
X182924000Y-84661890D01*
X182928085Y-84620409D01*
X182938393Y-84586431D01*
X182955134Y-84555110D01*
X182977661Y-84527661D01*
X183005110Y-84505134D01*
X183036431Y-84488393D01*
X183070409Y-84478085D01*
X183111890Y-84474000D01*
X183713110Y-84474000D01*
X183754591Y-84478085D01*
G37*
G36*
X176901531Y-83281544D02*
G01*
X177062812Y-83313624D01*
X177226784Y-83381544D01*
X177374354Y-83480147D01*
X177499853Y-83605646D01*
X177598456Y-83753216D01*
X177666376Y-83917188D01*
X177701000Y-84091259D01*
X177701000Y-84268741D01*
X177666376Y-84442812D01*
X177598456Y-84606784D01*
X177499853Y-84754354D01*
X177374354Y-84879853D01*
X177226784Y-84978456D01*
X177062812Y-85046376D01*
X176913512Y-85076073D01*
X176888742Y-85081000D01*
X176711258Y-85081000D01*
X176686488Y-85076073D01*
X176537188Y-85046376D01*
X176373216Y-84978456D01*
X176225646Y-84879853D01*
X176100147Y-84754354D01*
X176001544Y-84606784D01*
X175933624Y-84442812D01*
X175899000Y-84268741D01*
X175899000Y-84091259D01*
X175933624Y-83917188D01*
X176001544Y-83753216D01*
X176100147Y-83605646D01*
X176225646Y-83480147D01*
X176373216Y-83381544D01*
X176537188Y-83313624D01*
X176698469Y-83281544D01*
X176711258Y-83279000D01*
X176888742Y-83279000D01*
X176901531Y-83281544D01*
G37*
G36*
X170113512Y-83183927D02*
G01*
X170262812Y-83213624D01*
X170426784Y-83281544D01*
X170574354Y-83380147D01*
X170699853Y-83505646D01*
X170798456Y-83653216D01*
X170866376Y-83817188D01*
X170901000Y-83991259D01*
X170901000Y-84168741D01*
X170866376Y-84342812D01*
X170798456Y-84506784D01*
X170699853Y-84654354D01*
X170574354Y-84779853D01*
X170426784Y-84878456D01*
X170262812Y-84946376D01*
X170113512Y-84976073D01*
X170088742Y-84981000D01*
X169911258Y-84981000D01*
X169886488Y-84976073D01*
X169737188Y-84946376D01*
X169573216Y-84878456D01*
X169425646Y-84779853D01*
X169300147Y-84654354D01*
X169201544Y-84506784D01*
X169133624Y-84342812D01*
X169099000Y-84168741D01*
X169099000Y-83991259D01*
X169133624Y-83817188D01*
X169201544Y-83653216D01*
X169300147Y-83505646D01*
X169425646Y-83380147D01*
X169573216Y-83281544D01*
X169737188Y-83213624D01*
X169886488Y-83183927D01*
X169911258Y-83179000D01*
X170088742Y-83179000D01*
X170113512Y-83183927D01*
G37*
G36*
X156151000Y-84366000D02*
G01*
X154049000Y-84366000D01*
X154049000Y-83364000D01*
X156151000Y-83364000D01*
X156151000Y-84366000D01*
G37*
G36*
X139151000Y-84366000D02*
G01*
X137049000Y-84366000D01*
X137049000Y-83364000D01*
X139151000Y-83364000D01*
X139151000Y-84366000D01*
G37*
G36*
X130734468Y-82753565D02*
G01*
X130773138Y-82765296D01*
X130808777Y-82784346D01*
X130840017Y-82809983D01*
X130865654Y-82841223D01*
X130884704Y-82876862D01*
X130896435Y-82915532D01*
X130901000Y-82961888D01*
X130901000Y-84038112D01*
X130896435Y-84084468D01*
X130884704Y-84123138D01*
X130865654Y-84158777D01*
X130840017Y-84190017D01*
X130808777Y-84215654D01*
X130773138Y-84234704D01*
X130734468Y-84246435D01*
X130688112Y-84251000D01*
X130036888Y-84251000D01*
X129990532Y-84246435D01*
X129951862Y-84234704D01*
X129916223Y-84215654D01*
X129884983Y-84190017D01*
X129859346Y-84158777D01*
X129840296Y-84123138D01*
X129828565Y-84084468D01*
X129824000Y-84038112D01*
X129824000Y-82961888D01*
X129828565Y-82915532D01*
X129840296Y-82876862D01*
X129859346Y-82841223D01*
X129884983Y-82809983D01*
X129916223Y-82784346D01*
X129951862Y-82765296D01*
X129990532Y-82753565D01*
X130036888Y-82749000D01*
X130688112Y-82749000D01*
X130734468Y-82753565D01*
G37*
G36*
X132609468Y-82753565D02*
G01*
X132648138Y-82765296D01*
X132683777Y-82784346D01*
X132715017Y-82809983D01*
X132740654Y-82841223D01*
X132759704Y-82876862D01*
X132771435Y-82915532D01*
X132776000Y-82961888D01*
X132776000Y-84038112D01*
X132771435Y-84084468D01*
X132759704Y-84123138D01*
X132740654Y-84158777D01*
X132715017Y-84190017D01*
X132683777Y-84215654D01*
X132648138Y-84234704D01*
X132609468Y-84246435D01*
X132563112Y-84251000D01*
X131911888Y-84251000D01*
X131865532Y-84246435D01*
X131826862Y-84234704D01*
X131791223Y-84215654D01*
X131759983Y-84190017D01*
X131734346Y-84158777D01*
X131715296Y-84123138D01*
X131703565Y-84084468D01*
X131699000Y-84038112D01*
X131699000Y-82961888D01*
X131703565Y-82915532D01*
X131715296Y-82876862D01*
X131734346Y-82841223D01*
X131759983Y-82809983D01*
X131791223Y-82784346D01*
X131826862Y-82765296D01*
X131865532Y-82753565D01*
X131911888Y-82749000D01*
X132563112Y-82749000D01*
X132609468Y-82753565D01*
G37*
G36*
X156151000Y-83096000D02*
G01*
X154049000Y-83096000D01*
X154049000Y-82094000D01*
X156151000Y-82094000D01*
X156151000Y-83096000D01*
G37*
G36*
X139151000Y-83096000D02*
G01*
X137049000Y-83096000D01*
X137049000Y-82094000D01*
X139151000Y-82094000D01*
X139151000Y-83096000D01*
G37*
G36*
X176901531Y-80741544D02*
G01*
X177062812Y-80773624D01*
X177226784Y-80841544D01*
X177374354Y-80940147D01*
X177499853Y-81065646D01*
X177598456Y-81213216D01*
X177666376Y-81377188D01*
X177701000Y-81551259D01*
X177701000Y-81728741D01*
X177666376Y-81902812D01*
X177598456Y-82066784D01*
X177499853Y-82214354D01*
X177374354Y-82339853D01*
X177226784Y-82438456D01*
X177062812Y-82506376D01*
X176913512Y-82536073D01*
X176888742Y-82541000D01*
X176711258Y-82541000D01*
X176686488Y-82536073D01*
X176537188Y-82506376D01*
X176373216Y-82438456D01*
X176225646Y-82339853D01*
X176100147Y-82214354D01*
X176001544Y-82066784D01*
X175933624Y-81902812D01*
X175899000Y-81728741D01*
X175899000Y-81551259D01*
X175933624Y-81377188D01*
X176001544Y-81213216D01*
X176100147Y-81065646D01*
X176225646Y-80940147D01*
X176373216Y-80841544D01*
X176537188Y-80773624D01*
X176698469Y-80741544D01*
X176711258Y-80739000D01*
X176888742Y-80739000D01*
X176901531Y-80741544D01*
G37*
G36*
X170113512Y-80643927D02*
G01*
X170262812Y-80673624D01*
X170426784Y-80741544D01*
X170574354Y-80840147D01*
X170699853Y-80965646D01*
X170798456Y-81113216D01*
X170866376Y-81277188D01*
X170901000Y-81451259D01*
X170901000Y-81628741D01*
X170866376Y-81802812D01*
X170798456Y-81966784D01*
X170699853Y-82114354D01*
X170574354Y-82239853D01*
X170426784Y-82338456D01*
X170262812Y-82406376D01*
X170113512Y-82436073D01*
X170088742Y-82441000D01*
X169911258Y-82441000D01*
X169886488Y-82436073D01*
X169737188Y-82406376D01*
X169573216Y-82338456D01*
X169425646Y-82239853D01*
X169300147Y-82114354D01*
X169201544Y-81966784D01*
X169133624Y-81802812D01*
X169099000Y-81628741D01*
X169099000Y-81451259D01*
X169133624Y-81277188D01*
X169201544Y-81113216D01*
X169300147Y-80965646D01*
X169425646Y-80840147D01*
X169573216Y-80741544D01*
X169737188Y-80673624D01*
X169886488Y-80643927D01*
X169911258Y-80639000D01*
X170088742Y-80639000D01*
X170113512Y-80643927D01*
G37*
G36*
X185834239Y-75811467D02*
G01*
X186148282Y-75873934D01*
X186739926Y-76119001D01*
X187272392Y-76474784D01*
X187725216Y-76927608D01*
X188080999Y-77460074D01*
X188326066Y-78051718D01*
X188354947Y-78196915D01*
X188451000Y-78679803D01*
X188451000Y-79320197D01*
X188408919Y-79531750D01*
X188326066Y-79948282D01*
X188080999Y-80539926D01*
X187855865Y-80876862D01*
X187725217Y-81072391D01*
X187272391Y-81525217D01*
X187233416Y-81551259D01*
X186739926Y-81880999D01*
X186148282Y-82126066D01*
X185916657Y-82172139D01*
X185520197Y-82251000D01*
X184879803Y-82251000D01*
X184483343Y-82172139D01*
X184251718Y-82126066D01*
X183660074Y-81880999D01*
X183166584Y-81551259D01*
X183127609Y-81525217D01*
X182674783Y-81072391D01*
X182544135Y-80876862D01*
X182319001Y-80539926D01*
X182073934Y-79948282D01*
X181991081Y-79531750D01*
X181949000Y-79320197D01*
X181949000Y-78679803D01*
X182045053Y-78196915D01*
X182073934Y-78051718D01*
X182319001Y-77460074D01*
X182674784Y-76927608D01*
X183127608Y-76474784D01*
X183660074Y-76119001D01*
X184251718Y-75873934D01*
X184565761Y-75811467D01*
X184879803Y-75749000D01*
X185520197Y-75749000D01*
X185834239Y-75811467D01*
G37*
G36*
X106434239Y-75811467D02*
G01*
X106748282Y-75873934D01*
X107339926Y-76119001D01*
X107872392Y-76474784D01*
X108325216Y-76927608D01*
X108680999Y-77460074D01*
X108926066Y-78051718D01*
X108954947Y-78196915D01*
X109051000Y-78679803D01*
X109051000Y-79320197D01*
X109008919Y-79531750D01*
X108926066Y-79948282D01*
X108680999Y-80539926D01*
X108455865Y-80876862D01*
X108325217Y-81072391D01*
X107872391Y-81525217D01*
X107833416Y-81551259D01*
X107339926Y-81880999D01*
X106748282Y-82126066D01*
X106516657Y-82172139D01*
X106120197Y-82251000D01*
X105479803Y-82251000D01*
X105083343Y-82172139D01*
X104851718Y-82126066D01*
X104260074Y-81880999D01*
X103766584Y-81551259D01*
X103727609Y-81525217D01*
X103274783Y-81072391D01*
X103144135Y-80876862D01*
X102919001Y-80539926D01*
X102673934Y-79948282D01*
X102591081Y-79531750D01*
X102549000Y-79320197D01*
X102549000Y-78679803D01*
X102645053Y-78196915D01*
X102673934Y-78051718D01*
X102919001Y-77460074D01*
X103274784Y-76927608D01*
X103727608Y-76474784D01*
X104260074Y-76119001D01*
X104851718Y-75873934D01*
X105165761Y-75811467D01*
X105479803Y-75749000D01*
X106120197Y-75749000D01*
X106434239Y-75811467D01*
G37*
G36*
X132609468Y-80753565D02*
G01*
X132648138Y-80765296D01*
X132683777Y-80784346D01*
X132715017Y-80809983D01*
X132740654Y-80841223D01*
X132759704Y-80876862D01*
X132771435Y-80915532D01*
X132776000Y-80961888D01*
X132776000Y-82038112D01*
X132771435Y-82084468D01*
X132759704Y-82123138D01*
X132740654Y-82158777D01*
X132715017Y-82190017D01*
X132683777Y-82215654D01*
X132648138Y-82234704D01*
X132609468Y-82246435D01*
X132563112Y-82251000D01*
X131911888Y-82251000D01*
X131865532Y-82246435D01*
X131826862Y-82234704D01*
X131791223Y-82215654D01*
X131759983Y-82190017D01*
X131734346Y-82158777D01*
X131715296Y-82123138D01*
X131703565Y-82084468D01*
X131699000Y-82038112D01*
X131699000Y-80961888D01*
X131703565Y-80915532D01*
X131715296Y-80876862D01*
X131734346Y-80841223D01*
X131759983Y-80809983D01*
X131791223Y-80784346D01*
X131826862Y-80765296D01*
X131865532Y-80753565D01*
X131911888Y-80749000D01*
X132563112Y-80749000D01*
X132609468Y-80753565D01*
G37*
G36*
X130734468Y-80753565D02*
G01*
X130773138Y-80765296D01*
X130808777Y-80784346D01*
X130840017Y-80809983D01*
X130865654Y-80841223D01*
X130884704Y-80876862D01*
X130896435Y-80915532D01*
X130901000Y-80961888D01*
X130901000Y-82038112D01*
X130896435Y-82084468D01*
X130884704Y-82123138D01*
X130865654Y-82158777D01*
X130840017Y-82190017D01*
X130808777Y-82215654D01*
X130773138Y-82234704D01*
X130734468Y-82246435D01*
X130688112Y-82251000D01*
X130036888Y-82251000D01*
X129990532Y-82246435D01*
X129951862Y-82234704D01*
X129916223Y-82215654D01*
X129884983Y-82190017D01*
X129859346Y-82158777D01*
X129840296Y-82123138D01*
X129828565Y-82084468D01*
X129824000Y-82038112D01*
X129824000Y-80961888D01*
X129828565Y-80915532D01*
X129840296Y-80876862D01*
X129859346Y-80841223D01*
X129884983Y-80809983D01*
X129916223Y-80784346D01*
X129951862Y-80765296D01*
X129990532Y-80753565D01*
X130036888Y-80749000D01*
X130688112Y-80749000D01*
X130734468Y-80753565D01*
G37*
G36*
X156151000Y-81826000D02*
G01*
X154049000Y-81826000D01*
X154049000Y-80824000D01*
X156151000Y-80824000D01*
X156151000Y-81826000D01*
G37*
G36*
X139151000Y-81826000D02*
G01*
X137049000Y-81826000D01*
X137049000Y-80824000D01*
X139151000Y-80824000D01*
X139151000Y-81826000D01*
G37*
G36*
X156151000Y-80556000D02*
G01*
X154049000Y-80556000D01*
X154049000Y-79554000D01*
X156151000Y-79554000D01*
X156151000Y-80556000D01*
G37*
G36*
X139151000Y-80556000D02*
G01*
X137049000Y-80556000D01*
X137049000Y-79554000D01*
X139151000Y-79554000D01*
X139151000Y-80556000D01*
G37*
G36*
X177701000Y-80001000D02*
G01*
X175899000Y-80001000D01*
X175899000Y-78199000D01*
X177701000Y-78199000D01*
X177701000Y-80001000D01*
G37*
G36*
X133384468Y-78903565D02*
G01*
X133423138Y-78915296D01*
X133458777Y-78934346D01*
X133490017Y-78959983D01*
X133515654Y-78991223D01*
X133534704Y-79026862D01*
X133546435Y-79065532D01*
X133551000Y-79111888D01*
X133551000Y-79763112D01*
X133546435Y-79809468D01*
X133534704Y-79848138D01*
X133515654Y-79883777D01*
X133490017Y-79915017D01*
X133458777Y-79940654D01*
X133423138Y-79959704D01*
X133384468Y-79971435D01*
X133338112Y-79976000D01*
X132261888Y-79976000D01*
X132215532Y-79971435D01*
X132176862Y-79959704D01*
X132141223Y-79940654D01*
X132109983Y-79915017D01*
X132084346Y-79883777D01*
X132065296Y-79848138D01*
X132053565Y-79809468D01*
X132049000Y-79763112D01*
X132049000Y-79111888D01*
X132053565Y-79065532D01*
X132065296Y-79026862D01*
X132084346Y-78991223D01*
X132109983Y-78959983D01*
X132141223Y-78934346D01*
X132176862Y-78915296D01*
X132215532Y-78903565D01*
X132261888Y-78899000D01*
X133338112Y-78899000D01*
X133384468Y-78903565D01*
G37*
G36*
X170901000Y-79901000D02*
G01*
X169099000Y-79901000D01*
X169099000Y-78099000D01*
X170901000Y-78099000D01*
X170901000Y-79901000D01*
G37*
G36*
X135979591Y-78803085D02*
G01*
X136013569Y-78813393D01*
X136044890Y-78830134D01*
X136072339Y-78852661D01*
X136094866Y-78880110D01*
X136111607Y-78911431D01*
X136121915Y-78945409D01*
X136126000Y-78986890D01*
X136126000Y-79588110D01*
X136121915Y-79629591D01*
X136111607Y-79663569D01*
X136094866Y-79694890D01*
X136072339Y-79722339D01*
X136044890Y-79744866D01*
X136013569Y-79761607D01*
X135979591Y-79771915D01*
X135938110Y-79776000D01*
X135261890Y-79776000D01*
X135220409Y-79771915D01*
X135186431Y-79761607D01*
X135155110Y-79744866D01*
X135127661Y-79722339D01*
X135105134Y-79694890D01*
X135088393Y-79663569D01*
X135078085Y-79629591D01*
X135074000Y-79588110D01*
X135074000Y-78986890D01*
X135078085Y-78945409D01*
X135088393Y-78911431D01*
X135105134Y-78880110D01*
X135127661Y-78852661D01*
X135155110Y-78830134D01*
X135186431Y-78813393D01*
X135220409Y-78803085D01*
X135261890Y-78799000D01*
X135938110Y-78799000D01*
X135979591Y-78803085D01*
G37*
G36*
X139151000Y-79286000D02*
G01*
X137049000Y-79286000D01*
X137049000Y-78284000D01*
X139151000Y-78284000D01*
X139151000Y-79286000D01*
G37*
G36*
X156151000Y-79286000D02*
G01*
X154049000Y-79286000D01*
X154049000Y-78284000D01*
X156151000Y-78284000D01*
X156151000Y-79286000D01*
G37*
G36*
X135979591Y-77228085D02*
G01*
X136013569Y-77238393D01*
X136044890Y-77255134D01*
X136072339Y-77277661D01*
X136094866Y-77305110D01*
X136111607Y-77336431D01*
X136121915Y-77370409D01*
X136126000Y-77411890D01*
X136126000Y-78013110D01*
X136121915Y-78054591D01*
X136111607Y-78088569D01*
X136094866Y-78119890D01*
X136072339Y-78147339D01*
X136044890Y-78169866D01*
X136013569Y-78186607D01*
X135979591Y-78196915D01*
X135938110Y-78201000D01*
X135261890Y-78201000D01*
X135220409Y-78196915D01*
X135186431Y-78186607D01*
X135155110Y-78169866D01*
X135127661Y-78147339D01*
X135105134Y-78119890D01*
X135088393Y-78088569D01*
X135078085Y-78054591D01*
X135074000Y-78013110D01*
X135074000Y-77411890D01*
X135078085Y-77370409D01*
X135088393Y-77336431D01*
X135105134Y-77305110D01*
X135127661Y-77277661D01*
X135155110Y-77255134D01*
X135186431Y-77238393D01*
X135220409Y-77228085D01*
X135261890Y-77224000D01*
X135938110Y-77224000D01*
X135979591Y-77228085D01*
G37*
G36*
X133384468Y-77028565D02*
G01*
X133423138Y-77040296D01*
X133458777Y-77059346D01*
X133490017Y-77084983D01*
X133515654Y-77116223D01*
X133534704Y-77151862D01*
X133546435Y-77190532D01*
X133551000Y-77236888D01*
X133551000Y-77888112D01*
X133546435Y-77934468D01*
X133534704Y-77973138D01*
X133515654Y-78008777D01*
X133490017Y-78040017D01*
X133458777Y-78065654D01*
X133423138Y-78084704D01*
X133384468Y-78096435D01*
X133338112Y-78101000D01*
X132261888Y-78101000D01*
X132215532Y-78096435D01*
X132176862Y-78084704D01*
X132141223Y-78065654D01*
X132109983Y-78040017D01*
X132084346Y-78008777D01*
X132065296Y-77973138D01*
X132053565Y-77934468D01*
X132049000Y-77888112D01*
X132049000Y-77236888D01*
X132053565Y-77190532D01*
X132065296Y-77151862D01*
X132084346Y-77116223D01*
X132109983Y-77084983D01*
X132141223Y-77059346D01*
X132176862Y-77040296D01*
X132215532Y-77028565D01*
X132261888Y-77024000D01*
X133338112Y-77024000D01*
X133384468Y-77028565D01*
G37*
G36*
X139151000Y-78016000D02*
G01*
X137049000Y-78016000D01*
X137049000Y-77014000D01*
X139151000Y-77014000D01*
X139151000Y-78016000D01*
G37*
G36*
X156151000Y-78016000D02*
G01*
X154049000Y-78016000D01*
X154049000Y-77014000D01*
X156151000Y-77014000D01*
X156151000Y-78016000D01*
G37*
G36*
X156151000Y-76746000D02*
G01*
X154049000Y-76746000D01*
X154049000Y-75744000D01*
X156151000Y-75744000D01*
X156151000Y-76746000D01*
G37*
G36*
X139151000Y-76746000D02*
G01*
X137049000Y-76746000D01*
X137049000Y-75744000D01*
X139151000Y-75744000D01*
X139151000Y-76746000D01*
G37*
M02*
