G04 #@! TF.GenerationSoftware,KiCad,Pcbnew,(5.1.10-1-10_14)*
G04 #@! TF.CreationDate,2021-08-04T20:57:59+10:00*
G04 #@! TF.ProjectId,esp32_battery_isolator,65737033-325f-4626-9174-746572795f69,D*
G04 #@! TF.SameCoordinates,Original*
G04 #@! TF.FileFunction,Legend,Top*
G04 #@! TF.FilePolarity,Positive*
%FSLAX46Y46*%
G04 Gerber Fmt 4.6, Leading zero omitted, Abs format (unit mm)*
G04 Created by KiCad (PCBNEW (5.1.10-1-10_14)) date 2021-08-04 20:57:59*
%MOMM*%
%LPD*%
G01*
G04 APERTURE LIST*
%ADD10C,0.150000*%
%ADD11C,0.300000*%
%ADD12C,0.250000*%
%ADD13C,0.010000*%
%ADD14C,0.120000*%
G04 APERTURE END LIST*
D10*
X153069047Y-84221428D02*
X153830952Y-84221428D01*
X153450000Y-84602380D02*
X153450000Y-83840476D01*
X160844047Y-90521428D02*
X161605952Y-90521428D01*
X161225000Y-90902380D02*
X161225000Y-90140476D01*
X114669047Y-116421428D02*
X115430952Y-116421428D01*
X115050000Y-116802380D02*
X115050000Y-116040476D01*
D11*
X123728571Y-114446428D02*
X124085714Y-114565476D01*
X124204761Y-114684523D01*
X124323809Y-114922619D01*
X124323809Y-115279761D01*
X124204761Y-115517857D01*
X124085714Y-115636904D01*
X123847619Y-115755952D01*
X122895238Y-115755952D01*
X122895238Y-113255952D01*
X123728571Y-113255952D01*
X123966666Y-113375000D01*
X124085714Y-113494047D01*
X124204761Y-113732142D01*
X124204761Y-113970238D01*
X124085714Y-114208333D01*
X123966666Y-114327380D01*
X123728571Y-114446428D01*
X122895238Y-114446428D01*
X125157142Y-113255952D02*
X126704761Y-113255952D01*
X125871428Y-114208333D01*
X126228571Y-114208333D01*
X126466666Y-114327380D01*
X126585714Y-114446428D01*
X126704761Y-114684523D01*
X126704761Y-115279761D01*
X126585714Y-115517857D01*
X126466666Y-115636904D01*
X126228571Y-115755952D01*
X125514285Y-115755952D01*
X125276190Y-115636904D01*
X125157142Y-115517857D01*
X129561904Y-113136904D02*
X127419047Y-116351190D01*
X124264285Y-119567857D02*
X124145238Y-119686904D01*
X123788095Y-119805952D01*
X123550000Y-119805952D01*
X123192857Y-119686904D01*
X122954761Y-119448809D01*
X122835714Y-119210714D01*
X122716666Y-118734523D01*
X122716666Y-118377380D01*
X122835714Y-117901190D01*
X122954761Y-117663095D01*
X123192857Y-117425000D01*
X123550000Y-117305952D01*
X123788095Y-117305952D01*
X124145238Y-117425000D01*
X124264285Y-117544047D01*
X125335714Y-119805952D02*
X125335714Y-117305952D01*
X125335714Y-118496428D02*
X126764285Y-118496428D01*
X126764285Y-119805952D02*
X126764285Y-117305952D01*
X129264285Y-117425000D02*
X129026190Y-117305952D01*
X128669047Y-117305952D01*
X128311904Y-117425000D01*
X128073809Y-117663095D01*
X127954761Y-117901190D01*
X127835714Y-118377380D01*
X127835714Y-118734523D01*
X127954761Y-119210714D01*
X128073809Y-119448809D01*
X128311904Y-119686904D01*
X128669047Y-119805952D01*
X128907142Y-119805952D01*
X129264285Y-119686904D01*
X129383333Y-119567857D01*
X129383333Y-118734523D01*
X128907142Y-118734523D01*
X164080952Y-113266666D02*
X164080952Y-114457142D01*
X161580952Y-114457142D01*
X161580952Y-112671428D02*
X161580952Y-111123809D01*
X162533333Y-111957142D01*
X162533333Y-111600000D01*
X162652380Y-111361904D01*
X162771428Y-111242857D01*
X163009523Y-111123809D01*
X163604761Y-111123809D01*
X163842857Y-111242857D01*
X163961904Y-111361904D01*
X164080952Y-111600000D01*
X164080952Y-112314285D01*
X163961904Y-112552380D01*
X163842857Y-112671428D01*
X154433333Y-112980952D02*
X153242857Y-112980952D01*
X153242857Y-110480952D01*
X155147619Y-110719047D02*
X155266666Y-110600000D01*
X155504761Y-110480952D01*
X156100000Y-110480952D01*
X156338095Y-110600000D01*
X156457142Y-110719047D01*
X156576190Y-110957142D01*
X156576190Y-111195238D01*
X156457142Y-111552380D01*
X155028571Y-112980952D01*
X156576190Y-112980952D01*
D10*
X140602380Y-109302380D02*
X140269047Y-108826190D01*
X140030952Y-109302380D02*
X140030952Y-108302380D01*
X140411904Y-108302380D01*
X140507142Y-108350000D01*
X140554761Y-108397619D01*
X140602380Y-108492857D01*
X140602380Y-108635714D01*
X140554761Y-108730952D01*
X140507142Y-108778571D01*
X140411904Y-108826190D01*
X140030952Y-108826190D01*
X140983333Y-109254761D02*
X141126190Y-109302380D01*
X141364285Y-109302380D01*
X141459523Y-109254761D01*
X141507142Y-109207142D01*
X141554761Y-109111904D01*
X141554761Y-109016666D01*
X141507142Y-108921428D01*
X141459523Y-108873809D01*
X141364285Y-108826190D01*
X141173809Y-108778571D01*
X141078571Y-108730952D01*
X141030952Y-108683333D01*
X140983333Y-108588095D01*
X140983333Y-108492857D01*
X141030952Y-108397619D01*
X141078571Y-108350000D01*
X141173809Y-108302380D01*
X141411904Y-108302380D01*
X141554761Y-108350000D01*
X141840476Y-108302380D02*
X142411904Y-108302380D01*
X142126190Y-109302380D02*
X142126190Y-108302380D01*
X150092857Y-108778571D02*
X150235714Y-108826190D01*
X150283333Y-108873809D01*
X150330952Y-108969047D01*
X150330952Y-109111904D01*
X150283333Y-109207142D01*
X150235714Y-109254761D01*
X150140476Y-109302380D01*
X149759523Y-109302380D01*
X149759523Y-108302380D01*
X150092857Y-108302380D01*
X150188095Y-108350000D01*
X150235714Y-108397619D01*
X150283333Y-108492857D01*
X150283333Y-108588095D01*
X150235714Y-108683333D01*
X150188095Y-108730952D01*
X150092857Y-108778571D01*
X149759523Y-108778571D01*
X150950000Y-108302380D02*
X151140476Y-108302380D01*
X151235714Y-108350000D01*
X151330952Y-108445238D01*
X151378571Y-108635714D01*
X151378571Y-108969047D01*
X151330952Y-109159523D01*
X151235714Y-109254761D01*
X151140476Y-109302380D01*
X150950000Y-109302380D01*
X150854761Y-109254761D01*
X150759523Y-109159523D01*
X150711904Y-108969047D01*
X150711904Y-108635714D01*
X150759523Y-108445238D01*
X150854761Y-108350000D01*
X150950000Y-108302380D01*
X151997619Y-108302380D02*
X152188095Y-108302380D01*
X152283333Y-108350000D01*
X152378571Y-108445238D01*
X152426190Y-108635714D01*
X152426190Y-108969047D01*
X152378571Y-109159523D01*
X152283333Y-109254761D01*
X152188095Y-109302380D01*
X151997619Y-109302380D01*
X151902380Y-109254761D01*
X151807142Y-109159523D01*
X151759523Y-108969047D01*
X151759523Y-108635714D01*
X151807142Y-108445238D01*
X151902380Y-108350000D01*
X151997619Y-108302380D01*
X152711904Y-108302380D02*
X153283333Y-108302380D01*
X152997619Y-109302380D02*
X152997619Y-108302380D01*
D11*
X136233333Y-112880952D02*
X135042857Y-112880952D01*
X135042857Y-110380952D01*
X138376190Y-112880952D02*
X136947619Y-112880952D01*
X137661904Y-112880952D02*
X137661904Y-110380952D01*
X137423809Y-110738095D01*
X137185714Y-110976190D01*
X136947619Y-111095238D01*
D12*
X121792857Y-110540476D02*
X121697619Y-110826190D01*
X121602380Y-110921428D01*
X121411904Y-111016666D01*
X121126190Y-111016666D01*
X120935714Y-110921428D01*
X120840476Y-110826190D01*
X120745238Y-110635714D01*
X120745238Y-109873809D01*
X122745238Y-109873809D01*
X122745238Y-110540476D01*
X122650000Y-110730952D01*
X122554761Y-110826190D01*
X122364285Y-110921428D01*
X122173809Y-110921428D01*
X121983333Y-110826190D01*
X121888095Y-110730952D01*
X121792857Y-110540476D01*
X121792857Y-109873809D01*
X122554761Y-111778571D02*
X122650000Y-111873809D01*
X122745238Y-112064285D01*
X122745238Y-112540476D01*
X122650000Y-112730952D01*
X122554761Y-112826190D01*
X122364285Y-112921428D01*
X122173809Y-112921428D01*
X121888095Y-112826190D01*
X120745238Y-111683333D01*
X120745238Y-112921428D01*
X121592857Y-96440476D02*
X121497619Y-96726190D01*
X121402380Y-96821428D01*
X121211904Y-96916666D01*
X120926190Y-96916666D01*
X120735714Y-96821428D01*
X120640476Y-96726190D01*
X120545238Y-96535714D01*
X120545238Y-95773809D01*
X122545238Y-95773809D01*
X122545238Y-96440476D01*
X122450000Y-96630952D01*
X122354761Y-96726190D01*
X122164285Y-96821428D01*
X121973809Y-96821428D01*
X121783333Y-96726190D01*
X121688095Y-96630952D01*
X121592857Y-96440476D01*
X121592857Y-95773809D01*
X120545238Y-98821428D02*
X120545238Y-97678571D01*
X120545238Y-98250000D02*
X122545238Y-98250000D01*
X122259523Y-98059523D01*
X122069047Y-97869047D01*
X121973809Y-97678571D01*
D13*
G36*
X110991666Y-121794797D02*
G01*
X110848791Y-121807134D01*
X110675992Y-121822415D01*
X110540336Y-121835393D01*
X110436740Y-121846787D01*
X110360121Y-121857317D01*
X110305397Y-121867702D01*
X110267484Y-121878662D01*
X110241301Y-121890914D01*
X110236801Y-121893730D01*
X110183344Y-121949791D01*
X110138728Y-122036783D01*
X110107833Y-122143488D01*
X110097847Y-122213051D01*
X110088320Y-122321019D01*
X110405775Y-122334759D01*
X110495858Y-122337703D01*
X110621933Y-122340431D01*
X110777659Y-122342874D01*
X110956696Y-122344963D01*
X111152702Y-122346631D01*
X111359337Y-122347807D01*
X111570260Y-122348423D01*
X111672365Y-122348500D01*
X112621500Y-122348500D01*
X112621500Y-123555000D01*
X110084161Y-123555000D01*
X110092766Y-123623792D01*
X110100872Y-123688688D01*
X110110745Y-123767838D01*
X110113884Y-123793024D01*
X110145436Y-123901582D01*
X110208400Y-123983173D01*
X110300500Y-124034969D01*
X110311618Y-124038519D01*
X110367761Y-124049964D01*
X110453353Y-124061077D01*
X110555526Y-124070396D01*
X110635664Y-124075345D01*
X110736742Y-124080839D01*
X110825991Y-124086844D01*
X110892620Y-124092566D01*
X110922875Y-124096503D01*
X110970500Y-124106140D01*
X110970500Y-125460000D01*
X110827625Y-125457823D01*
X110742083Y-125453793D01*
X110632703Y-125444823D01*
X110517475Y-125432502D01*
X110464747Y-125425780D01*
X110176245Y-125368665D01*
X109912377Y-125278125D01*
X109669660Y-125152382D01*
X109444611Y-124989659D01*
X109250406Y-124806008D01*
X109100344Y-124633452D01*
X108981435Y-124463883D01*
X108890261Y-124289060D01*
X108823399Y-124100745D01*
X108777431Y-123890698D01*
X108748935Y-123650681D01*
X108744253Y-123586750D01*
X108738435Y-123467992D01*
X108734506Y-123322871D01*
X108732364Y-123158058D01*
X108731906Y-122980226D01*
X108733030Y-122796048D01*
X108735634Y-122612197D01*
X108739614Y-122435343D01*
X108744869Y-122272162D01*
X108751297Y-122129323D01*
X108758794Y-122013501D01*
X108767259Y-121931368D01*
X108769919Y-121914583D01*
X108803569Y-121791199D01*
X108860813Y-121649278D01*
X108935633Y-121500531D01*
X109022005Y-121356669D01*
X109113910Y-121229404D01*
X109135732Y-121203086D01*
X109313580Y-121013133D01*
X109497921Y-120854194D01*
X109693919Y-120723888D01*
X109906736Y-120619830D01*
X110141536Y-120539637D01*
X110403482Y-120480923D01*
X110697737Y-120441307D01*
X110806458Y-120431733D01*
X110991666Y-120417326D01*
X110991666Y-121794797D01*
G37*
X110991666Y-121794797D02*
X110848791Y-121807134D01*
X110675992Y-121822415D01*
X110540336Y-121835393D01*
X110436740Y-121846787D01*
X110360121Y-121857317D01*
X110305397Y-121867702D01*
X110267484Y-121878662D01*
X110241301Y-121890914D01*
X110236801Y-121893730D01*
X110183344Y-121949791D01*
X110138728Y-122036783D01*
X110107833Y-122143488D01*
X110097847Y-122213051D01*
X110088320Y-122321019D01*
X110405775Y-122334759D01*
X110495858Y-122337703D01*
X110621933Y-122340431D01*
X110777659Y-122342874D01*
X110956696Y-122344963D01*
X111152702Y-122346631D01*
X111359337Y-122347807D01*
X111570260Y-122348423D01*
X111672365Y-122348500D01*
X112621500Y-122348500D01*
X112621500Y-123555000D01*
X110084161Y-123555000D01*
X110092766Y-123623792D01*
X110100872Y-123688688D01*
X110110745Y-123767838D01*
X110113884Y-123793024D01*
X110145436Y-123901582D01*
X110208400Y-123983173D01*
X110300500Y-124034969D01*
X110311618Y-124038519D01*
X110367761Y-124049964D01*
X110453353Y-124061077D01*
X110555526Y-124070396D01*
X110635664Y-124075345D01*
X110736742Y-124080839D01*
X110825991Y-124086844D01*
X110892620Y-124092566D01*
X110922875Y-124096503D01*
X110970500Y-124106140D01*
X110970500Y-125460000D01*
X110827625Y-125457823D01*
X110742083Y-125453793D01*
X110632703Y-125444823D01*
X110517475Y-125432502D01*
X110464747Y-125425780D01*
X110176245Y-125368665D01*
X109912377Y-125278125D01*
X109669660Y-125152382D01*
X109444611Y-124989659D01*
X109250406Y-124806008D01*
X109100344Y-124633452D01*
X108981435Y-124463883D01*
X108890261Y-124289060D01*
X108823399Y-124100745D01*
X108777431Y-123890698D01*
X108748935Y-123650681D01*
X108744253Y-123586750D01*
X108738435Y-123467992D01*
X108734506Y-123322871D01*
X108732364Y-123158058D01*
X108731906Y-122980226D01*
X108733030Y-122796048D01*
X108735634Y-122612197D01*
X108739614Y-122435343D01*
X108744869Y-122272162D01*
X108751297Y-122129323D01*
X108758794Y-122013501D01*
X108767259Y-121931368D01*
X108769919Y-121914583D01*
X108803569Y-121791199D01*
X108860813Y-121649278D01*
X108935633Y-121500531D01*
X109022005Y-121356669D01*
X109113910Y-121229404D01*
X109135732Y-121203086D01*
X109313580Y-121013133D01*
X109497921Y-120854194D01*
X109693919Y-120723888D01*
X109906736Y-120619830D01*
X110141536Y-120539637D01*
X110403482Y-120480923D01*
X110697737Y-120441307D01*
X110806458Y-120431733D01*
X110991666Y-120417326D01*
X110991666Y-121794797D01*
G36*
X112610916Y-125449417D02*
G01*
X112006221Y-125455026D01*
X111850272Y-125455982D01*
X111708236Y-125455913D01*
X111585583Y-125454896D01*
X111487784Y-125453010D01*
X111420310Y-125450332D01*
X111388632Y-125446941D01*
X111387096Y-125446207D01*
X111383574Y-125422261D01*
X111380364Y-125361150D01*
X111377573Y-125268039D01*
X111375309Y-125148096D01*
X111373680Y-125006488D01*
X111372796Y-124848382D01*
X111372666Y-124757972D01*
X111372666Y-124084167D01*
X112622086Y-124084167D01*
X112610916Y-125449417D01*
G37*
X112610916Y-125449417D02*
X112006221Y-125455026D01*
X111850272Y-125455982D01*
X111708236Y-125455913D01*
X111585583Y-125454896D01*
X111487784Y-125453010D01*
X111420310Y-125450332D01*
X111388632Y-125446941D01*
X111387096Y-125446207D01*
X111383574Y-125422261D01*
X111380364Y-125361150D01*
X111377573Y-125268039D01*
X111375309Y-125148096D01*
X111373680Y-125006488D01*
X111372796Y-124848382D01*
X111372666Y-124757972D01*
X111372666Y-124084167D01*
X112622086Y-124084167D01*
X112610916Y-125449417D01*
G36*
X111750863Y-117930888D02*
G01*
X112131303Y-117932934D01*
X112470397Y-117935210D01*
X112769130Y-117937733D01*
X113028490Y-117940519D01*
X113249463Y-117943583D01*
X113433035Y-117946941D01*
X113580193Y-117950611D01*
X113691923Y-117954607D01*
X113769212Y-117958946D01*
X113813045Y-117963644D01*
X113817416Y-117964519D01*
X113919383Y-117996006D01*
X114042066Y-118046495D01*
X114172179Y-118109775D01*
X114296434Y-118179631D01*
X114349673Y-118213395D01*
X114504710Y-118333974D01*
X114655827Y-118483918D01*
X114793401Y-118651775D01*
X114907808Y-118826093D01*
X114973101Y-118955289D01*
X114988315Y-118990378D01*
X115002022Y-119023154D01*
X115014315Y-119055903D01*
X115025286Y-119090912D01*
X115035028Y-119130466D01*
X115043632Y-119176854D01*
X115051192Y-119232361D01*
X115057799Y-119299274D01*
X115063545Y-119379879D01*
X115068525Y-119476464D01*
X115072828Y-119591313D01*
X115076549Y-119726715D01*
X115079778Y-119884955D01*
X115082610Y-120068320D01*
X115085135Y-120279096D01*
X115087447Y-120519571D01*
X115089637Y-120792030D01*
X115091799Y-121098760D01*
X115094024Y-121442048D01*
X115096404Y-121824180D01*
X115097749Y-122041343D01*
X115114559Y-124750437D01*
X115031732Y-124915170D01*
X114952993Y-125054699D01*
X114868253Y-125165091D01*
X114765852Y-125259165D01*
X114639309Y-125346519D01*
X114482008Y-125444560D01*
X113758129Y-125454850D01*
X113587023Y-125456805D01*
X113429424Y-125457688D01*
X113290317Y-125457543D01*
X113174691Y-125456413D01*
X113087532Y-125454340D01*
X113033828Y-125451368D01*
X113018375Y-125448459D01*
X113014464Y-125423916D01*
X113010903Y-125362282D01*
X113007815Y-125268799D01*
X113005322Y-125148706D01*
X113003548Y-125007247D01*
X113002613Y-124849662D01*
X113002500Y-124770416D01*
X113002500Y-124109054D01*
X113081875Y-124097690D01*
X113148549Y-124089156D01*
X113234001Y-124079517D01*
X113288250Y-124073961D01*
X113427154Y-124056534D01*
X113531180Y-124033648D01*
X113607665Y-124003014D01*
X113663945Y-123962344D01*
X113672026Y-123954273D01*
X113732750Y-123890894D01*
X113732750Y-122951922D01*
X113732695Y-122727971D01*
X113732417Y-122542449D01*
X113731745Y-122391454D01*
X113730508Y-122271081D01*
X113728536Y-122177427D01*
X113725658Y-122106589D01*
X113721703Y-122054662D01*
X113716500Y-122017743D01*
X113709879Y-121991929D01*
X113701669Y-121973315D01*
X113691699Y-121957999D01*
X113689128Y-121954517D01*
X113650247Y-121915142D01*
X113595115Y-121883706D01*
X113517434Y-121858219D01*
X113410909Y-121836690D01*
X113269242Y-121817129D01*
X113245916Y-121814396D01*
X113013083Y-121787583D01*
X113007494Y-121115542D01*
X113001905Y-120443500D01*
X113770863Y-120443500D01*
X113757328Y-120236965D01*
X113741538Y-120053942D01*
X113720115Y-119907854D01*
X113692031Y-119793553D01*
X113656255Y-119705892D01*
X113648232Y-119691355D01*
X113583095Y-119602133D01*
X113491535Y-119507221D01*
X113385798Y-119418149D01*
X113287940Y-119352103D01*
X113182416Y-119290249D01*
X111700750Y-119275959D01*
X111368086Y-119272675D01*
X111075051Y-119269568D01*
X110818940Y-119266532D01*
X110597049Y-119263460D01*
X110406673Y-119260246D01*
X110245108Y-119256783D01*
X110109651Y-119252964D01*
X109997596Y-119248684D01*
X109906240Y-119243835D01*
X109832879Y-119238312D01*
X109774808Y-119232007D01*
X109729322Y-119224814D01*
X109693719Y-119216627D01*
X109665293Y-119207338D01*
X109641340Y-119196843D01*
X109637011Y-119194672D01*
X109517470Y-119112125D01*
X109412621Y-118997232D01*
X109347471Y-118892334D01*
X109317715Y-118827256D01*
X109300183Y-118765348D01*
X109291720Y-118690871D01*
X109289265Y-118602000D01*
X109290459Y-118505069D01*
X109298044Y-118434198D01*
X109315105Y-118373242D01*
X109344733Y-118306058D01*
X109346588Y-118302268D01*
X109438595Y-118162411D01*
X109565446Y-118046590D01*
X109681061Y-117976707D01*
X109790143Y-117921432D01*
X111750863Y-117930888D01*
G37*
X111750863Y-117930888D02*
X112131303Y-117932934D01*
X112470397Y-117935210D01*
X112769130Y-117937733D01*
X113028490Y-117940519D01*
X113249463Y-117943583D01*
X113433035Y-117946941D01*
X113580193Y-117950611D01*
X113691923Y-117954607D01*
X113769212Y-117958946D01*
X113813045Y-117963644D01*
X113817416Y-117964519D01*
X113919383Y-117996006D01*
X114042066Y-118046495D01*
X114172179Y-118109775D01*
X114296434Y-118179631D01*
X114349673Y-118213395D01*
X114504710Y-118333974D01*
X114655827Y-118483918D01*
X114793401Y-118651775D01*
X114907808Y-118826093D01*
X114973101Y-118955289D01*
X114988315Y-118990378D01*
X115002022Y-119023154D01*
X115014315Y-119055903D01*
X115025286Y-119090912D01*
X115035028Y-119130466D01*
X115043632Y-119176854D01*
X115051192Y-119232361D01*
X115057799Y-119299274D01*
X115063545Y-119379879D01*
X115068525Y-119476464D01*
X115072828Y-119591313D01*
X115076549Y-119726715D01*
X115079778Y-119884955D01*
X115082610Y-120068320D01*
X115085135Y-120279096D01*
X115087447Y-120519571D01*
X115089637Y-120792030D01*
X115091799Y-121098760D01*
X115094024Y-121442048D01*
X115096404Y-121824180D01*
X115097749Y-122041343D01*
X115114559Y-124750437D01*
X115031732Y-124915170D01*
X114952993Y-125054699D01*
X114868253Y-125165091D01*
X114765852Y-125259165D01*
X114639309Y-125346519D01*
X114482008Y-125444560D01*
X113758129Y-125454850D01*
X113587023Y-125456805D01*
X113429424Y-125457688D01*
X113290317Y-125457543D01*
X113174691Y-125456413D01*
X113087532Y-125454340D01*
X113033828Y-125451368D01*
X113018375Y-125448459D01*
X113014464Y-125423916D01*
X113010903Y-125362282D01*
X113007815Y-125268799D01*
X113005322Y-125148706D01*
X113003548Y-125007247D01*
X113002613Y-124849662D01*
X113002500Y-124770416D01*
X113002500Y-124109054D01*
X113081875Y-124097690D01*
X113148549Y-124089156D01*
X113234001Y-124079517D01*
X113288250Y-124073961D01*
X113427154Y-124056534D01*
X113531180Y-124033648D01*
X113607665Y-124003014D01*
X113663945Y-123962344D01*
X113672026Y-123954273D01*
X113732750Y-123890894D01*
X113732750Y-122951922D01*
X113732695Y-122727971D01*
X113732417Y-122542449D01*
X113731745Y-122391454D01*
X113730508Y-122271081D01*
X113728536Y-122177427D01*
X113725658Y-122106589D01*
X113721703Y-122054662D01*
X113716500Y-122017743D01*
X113709879Y-121991929D01*
X113701669Y-121973315D01*
X113691699Y-121957999D01*
X113689128Y-121954517D01*
X113650247Y-121915142D01*
X113595115Y-121883706D01*
X113517434Y-121858219D01*
X113410909Y-121836690D01*
X113269242Y-121817129D01*
X113245916Y-121814396D01*
X113013083Y-121787583D01*
X113007494Y-121115542D01*
X113001905Y-120443500D01*
X113770863Y-120443500D01*
X113757328Y-120236965D01*
X113741538Y-120053942D01*
X113720115Y-119907854D01*
X113692031Y-119793553D01*
X113656255Y-119705892D01*
X113648232Y-119691355D01*
X113583095Y-119602133D01*
X113491535Y-119507221D01*
X113385798Y-119418149D01*
X113287940Y-119352103D01*
X113182416Y-119290249D01*
X111700750Y-119275959D01*
X111368086Y-119272675D01*
X111075051Y-119269568D01*
X110818940Y-119266532D01*
X110597049Y-119263460D01*
X110406673Y-119260246D01*
X110245108Y-119256783D01*
X110109651Y-119252964D01*
X109997596Y-119248684D01*
X109906240Y-119243835D01*
X109832879Y-119238312D01*
X109774808Y-119232007D01*
X109729322Y-119224814D01*
X109693719Y-119216627D01*
X109665293Y-119207338D01*
X109641340Y-119196843D01*
X109637011Y-119194672D01*
X109517470Y-119112125D01*
X109412621Y-118997232D01*
X109347471Y-118892334D01*
X109317715Y-118827256D01*
X109300183Y-118765348D01*
X109291720Y-118690871D01*
X109289265Y-118602000D01*
X109290459Y-118505069D01*
X109298044Y-118434198D01*
X109315105Y-118373242D01*
X109344733Y-118306058D01*
X109346588Y-118302268D01*
X109438595Y-118162411D01*
X109565446Y-118046590D01*
X109681061Y-117976707D01*
X109790143Y-117921432D01*
X111750863Y-117930888D01*
G36*
X112621500Y-121798167D02*
G01*
X111372666Y-121798167D01*
X111372666Y-120443500D01*
X112621500Y-120443500D01*
X112621500Y-121798167D01*
G37*
X112621500Y-121798167D02*
X111372666Y-121798167D01*
X111372666Y-120443500D01*
X112621500Y-120443500D01*
X112621500Y-121798167D01*
D14*
X123800000Y-87200000D02*
X123800000Y-86200000D01*
X123800000Y-88300000D02*
X123800000Y-89300000D01*
X120700000Y-87200000D02*
X120700000Y-86200000D01*
X120700000Y-88300000D02*
X120700000Y-89300000D01*
X121350000Y-89850000D02*
G75*
G03*
X121350000Y-89850000I-100000J0D01*
G01*
X120700000Y-92900000D02*
X120700000Y-93900000D01*
X120700000Y-91800000D02*
X120700000Y-90800000D01*
X123800000Y-92900000D02*
X123800000Y-93900000D01*
X123800000Y-91800000D02*
X123800000Y-90800000D01*
X123350000Y-90250000D02*
G75*
G03*
X123350000Y-90250000I-100000J0D01*
G01*
X146700000Y-117600000D02*
X146700000Y-116600000D01*
X146700000Y-118700000D02*
X146700000Y-119700000D01*
X143600000Y-117600000D02*
X143600000Y-116600000D01*
X143600000Y-118700000D02*
X143600000Y-119700000D01*
X144250000Y-120250000D02*
G75*
G03*
X144250000Y-120250000I-100000J0D01*
G01*
X127350000Y-105450000D02*
X127350000Y-106450000D01*
X127350000Y-104350000D02*
X127350000Y-103350000D01*
X130450000Y-105450000D02*
X130450000Y-106450000D01*
X130450000Y-104350000D02*
X130450000Y-103350000D01*
X130000000Y-102800000D02*
G75*
G03*
X130000000Y-102800000I-100000J0D01*
G01*
X164700000Y-117600000D02*
X164700000Y-116600000D01*
X164700000Y-118700000D02*
X164700000Y-119700000D01*
X161600000Y-117600000D02*
X161600000Y-116600000D01*
X161600000Y-118700000D02*
X161600000Y-119700000D01*
X162250000Y-120250000D02*
G75*
G03*
X162250000Y-120250000I-100000J0D01*
G01*
X161500000Y-108300000D02*
X161500000Y-109300000D01*
X161500000Y-107200000D02*
X161500000Y-106200000D01*
X164600000Y-108300000D02*
X164600000Y-109300000D01*
X164600000Y-107200000D02*
X164600000Y-106200000D01*
X164150000Y-105650000D02*
G75*
G03*
X164150000Y-105650000I-100000J0D01*
G01*
X130450000Y-99350000D02*
X130450000Y-98350000D01*
X130450000Y-100450000D02*
X130450000Y-101450000D01*
X127350000Y-99350000D02*
X127350000Y-98350000D01*
X127350000Y-100450000D02*
X127350000Y-101450000D01*
X128000000Y-102000000D02*
G75*
G03*
X128000000Y-102000000I-100000J0D01*
G01*
X165400000Y-117300000D02*
X165400000Y-115260000D01*
X165400000Y-111040000D02*
X165400000Y-108060000D01*
X165400000Y-103840000D02*
X165400000Y-101800000D01*
X165400000Y-101800000D02*
X182600000Y-101800000D01*
X182600000Y-101800000D02*
X182600000Y-117300000D01*
X182600000Y-117300000D02*
X165400000Y-117300000D01*
X167350000Y-117850000D02*
G75*
G03*
X167350000Y-117850000I-100000J0D01*
G01*
X151470000Y-123120000D02*
G75*
G03*
X151470000Y-123120000I-100000J0D01*
G01*
X151920000Y-138470000D02*
X151920000Y-121270000D01*
X167420000Y-138470000D02*
X151920000Y-138470000D01*
X167420000Y-121270000D02*
X167420000Y-138470000D01*
X165380000Y-121270000D02*
X167420000Y-121270000D01*
X158180000Y-121270000D02*
X161160000Y-121270000D01*
X151920000Y-121270000D02*
X153960000Y-121270000D01*
X129400000Y-120660000D02*
G75*
G03*
X129400000Y-120660000I-150000J0D01*
G01*
X115900000Y-121310000D02*
X117650000Y-121310000D01*
X131400000Y-121310000D02*
X129650000Y-121310000D01*
X115900000Y-121310000D02*
X115900000Y-139510000D01*
X115900000Y-139510000D02*
X131400000Y-139510000D01*
X131400000Y-139510000D02*
X131400000Y-121310000D01*
X143450000Y-102550000D02*
X143450000Y-103100000D01*
X137650000Y-102550000D02*
X143450000Y-102550000D01*
X143450000Y-104250000D02*
X143450000Y-106000000D01*
X138700000Y-106050000D02*
X138700000Y-104300000D01*
X143450000Y-107750000D02*
X143450000Y-107250000D01*
X138700000Y-107750000D02*
X143450000Y-107750000D01*
X138700000Y-107250000D02*
X138700000Y-107750000D01*
X153950000Y-102550000D02*
X153950000Y-103100000D01*
X148150000Y-102550000D02*
X153950000Y-102550000D01*
X153950000Y-104250000D02*
X153950000Y-106000000D01*
X149200000Y-106050000D02*
X149200000Y-104300000D01*
X153950000Y-107750000D02*
X153950000Y-107250000D01*
X149200000Y-107750000D02*
X153950000Y-107750000D01*
X149200000Y-107250000D02*
X149200000Y-107750000D01*
X170760000Y-94110000D02*
X170310000Y-94110000D01*
X170310000Y-93660000D02*
X170310000Y-94110000D01*
X170990000Y-96110000D02*
X170990000Y-95690000D01*
X172970000Y-96110000D02*
X170990000Y-96110000D01*
X175340000Y-96110000D02*
X174940000Y-96110000D01*
X174940000Y-88590000D02*
X175340000Y-88590000D01*
X170990000Y-88590000D02*
X170990000Y-89010000D01*
X172970000Y-88590000D02*
X170990000Y-88590000D01*
X130140000Y-86009420D02*
X130140000Y-86290580D01*
X131160000Y-86009420D02*
X131160000Y-86290580D01*
X115240000Y-77140580D02*
X115240000Y-76859420D01*
X116260000Y-77140580D02*
X116260000Y-76859420D01*
X154340000Y-80000000D02*
X154340000Y-84210000D01*
X154340000Y-84210000D02*
X157360000Y-84210000D01*
X157360000Y-84210000D02*
X157360000Y-80000000D01*
X158140000Y-83009420D02*
X158140000Y-83290580D01*
X159160000Y-83009420D02*
X159160000Y-83290580D01*
X159160000Y-86259420D02*
X159160000Y-86540580D01*
X158140000Y-86259420D02*
X158140000Y-86540580D01*
X154340000Y-84890000D02*
X154340000Y-89100000D01*
X157360000Y-84890000D02*
X154340000Y-84890000D01*
X157360000Y-89100000D02*
X157360000Y-84890000D01*
X168390580Y-97060000D02*
X168109420Y-97060000D01*
X168390580Y-96040000D02*
X168109420Y-96040000D01*
X164709420Y-97060000D02*
X164990580Y-97060000D01*
X164709420Y-96040000D02*
X164990580Y-96040000D01*
X130440000Y-82990580D02*
X130440000Y-82709420D01*
X131460000Y-82990580D02*
X131460000Y-82709420D01*
X158820000Y-91620000D02*
X161480000Y-91620000D01*
X158820000Y-91620000D02*
X158820000Y-99300000D01*
X158820000Y-99300000D02*
X161480000Y-99300000D01*
X161480000Y-91620000D02*
X161480000Y-99300000D01*
X161480000Y-89020000D02*
X161480000Y-90350000D01*
X160150000Y-89020000D02*
X161480000Y-89020000D01*
X128327500Y-84312742D02*
X128327500Y-84787258D01*
X129372500Y-84312742D02*
X129372500Y-84787258D01*
X134387258Y-101877500D02*
X133912742Y-101877500D01*
X134387258Y-102922500D02*
X133912742Y-102922500D01*
X156412742Y-98172500D02*
X156887258Y-98172500D01*
X156412742Y-97127500D02*
X156887258Y-97127500D01*
X156412742Y-99627500D02*
X156887258Y-99627500D01*
X156412742Y-100672500D02*
X156887258Y-100672500D01*
X153687258Y-98172500D02*
X153212742Y-98172500D01*
X153687258Y-97127500D02*
X153212742Y-97127500D01*
X153212742Y-100672500D02*
X153687258Y-100672500D01*
X153212742Y-99627500D02*
X153687258Y-99627500D01*
X164427500Y-80137258D02*
X164427500Y-79662742D01*
X165472500Y-80137258D02*
X165472500Y-79662742D01*
X165472500Y-77087258D02*
X165472500Y-76612742D01*
X164427500Y-77087258D02*
X164427500Y-76612742D01*
X167027500Y-80187258D02*
X167027500Y-79712742D01*
X168072500Y-80187258D02*
X168072500Y-79712742D01*
X168072500Y-77087258D02*
X168072500Y-76612742D01*
X167027500Y-77087258D02*
X167027500Y-76612742D01*
X125812742Y-86372500D02*
X126287258Y-86372500D01*
X125812742Y-85327500D02*
X126287258Y-85327500D01*
X123672500Y-107512742D02*
X123672500Y-107987258D01*
X122627500Y-107512742D02*
X122627500Y-107987258D01*
X134527500Y-118512742D02*
X134527500Y-118987258D01*
X135572500Y-118512742D02*
X135572500Y-118987258D01*
X153372500Y-118512742D02*
X153372500Y-118987258D01*
X152327500Y-118512742D02*
X152327500Y-118987258D01*
X168962742Y-82627500D02*
X169437258Y-82627500D01*
X168962742Y-83672500D02*
X169437258Y-83672500D01*
X172212742Y-83672500D02*
X172687258Y-83672500D01*
X172212742Y-82627500D02*
X172687258Y-82627500D01*
X170672500Y-99987258D02*
X170672500Y-99512742D01*
X169627500Y-99987258D02*
X169627500Y-99512742D01*
X161827500Y-80137258D02*
X161827500Y-79662742D01*
X162872500Y-80137258D02*
X162872500Y-79662742D01*
X161827500Y-77087258D02*
X161827500Y-76612742D01*
X162872500Y-77087258D02*
X162872500Y-76612742D01*
X160172500Y-80137258D02*
X160172500Y-79662742D01*
X159127500Y-80137258D02*
X159127500Y-79662742D01*
X159127500Y-77087258D02*
X159127500Y-76612742D01*
X160172500Y-77087258D02*
X160172500Y-76612742D01*
X132780000Y-99575000D02*
X132780000Y-100355000D01*
X132780000Y-100355000D02*
X133780000Y-100355000D01*
X151020000Y-99575000D02*
X151020000Y-100355000D01*
X151020000Y-100355000D02*
X150020000Y-100355000D01*
X132780000Y-74610000D02*
X151020000Y-74610000D01*
X151020000Y-74610000D02*
X151020000Y-81030000D01*
X132780000Y-74610000D02*
X132780000Y-81030000D01*
X132780000Y-81030000D02*
X132400000Y-81030000D01*
X163450000Y-87285000D02*
X165650000Y-87285000D01*
X163450000Y-87285000D02*
X161250000Y-87285000D01*
X163450000Y-81815000D02*
X165650000Y-81815000D01*
X163450000Y-81815000D02*
X159850000Y-81815000D01*
X128150000Y-91390000D02*
X124700000Y-91390000D01*
X128150000Y-91390000D02*
X130100000Y-91390000D01*
X128150000Y-96510000D02*
X126200000Y-96510000D01*
X128150000Y-96510000D02*
X130100000Y-96510000D01*
X163490000Y-91750000D02*
X163490000Y-93700000D01*
X163490000Y-91750000D02*
X163490000Y-89800000D01*
X168610000Y-91750000D02*
X168610000Y-93700000D01*
X168610000Y-91750000D02*
X168610000Y-88300000D01*
X126460000Y-102400000D02*
X126460000Y-100450000D01*
X126460000Y-102400000D02*
X126460000Y-104350000D01*
X121340000Y-102400000D02*
X121340000Y-100450000D01*
X121340000Y-102400000D02*
X121340000Y-105850000D01*
X101800000Y-98700000D02*
X120000000Y-98700000D01*
X101800000Y-83200000D02*
X101800000Y-98700000D01*
X120000000Y-83200000D02*
X101800000Y-83200000D01*
X120000000Y-98700000D02*
X120000000Y-96950000D01*
X120000000Y-83200000D02*
X120000000Y-84950000D01*
X120800000Y-96550000D02*
G75*
G03*
X120800000Y-96550000I-150000J0D01*
G01*
X120800000Y-113850000D02*
G75*
G03*
X120800000Y-113850000I-150000J0D01*
G01*
X120000000Y-100500000D02*
X120000000Y-102250000D01*
X120000000Y-116000000D02*
X120000000Y-114250000D01*
X120000000Y-100500000D02*
X101800000Y-100500000D01*
X101800000Y-100500000D02*
X101800000Y-116000000D01*
X101800000Y-116000000D02*
X120000000Y-116000000D01*
X133450000Y-123150000D02*
G75*
G03*
X133450000Y-123150000I-100000J0D01*
G01*
X133900000Y-138500000D02*
X133900000Y-121300000D01*
X149400000Y-138500000D02*
X133900000Y-138500000D01*
X149400000Y-121300000D02*
X149400000Y-138500000D01*
X147360000Y-121300000D02*
X149400000Y-121300000D01*
X140160000Y-121300000D02*
X143140000Y-121300000D01*
X133900000Y-121300000D02*
X135940000Y-121300000D01*
X125290000Y-87370000D02*
X125290000Y-88300000D01*
X125290000Y-90530000D02*
X125290000Y-89600000D01*
X125290000Y-90530000D02*
X127450000Y-90530000D01*
X125290000Y-87370000D02*
X126750000Y-87370000D01*
X136470000Y-119310000D02*
X137400000Y-119310000D01*
X139630000Y-119310000D02*
X138700000Y-119310000D01*
X139630000Y-119310000D02*
X139630000Y-117150000D01*
X136470000Y-119310000D02*
X136470000Y-117850000D01*
X132390000Y-103820000D02*
X133850000Y-103820000D01*
X132390000Y-106980000D02*
X134550000Y-106980000D01*
X132390000Y-106980000D02*
X132390000Y-106050000D01*
X132390000Y-103820000D02*
X132390000Y-104750000D01*
X154270000Y-119310000D02*
X154270000Y-117850000D01*
X157430000Y-119310000D02*
X157430000Y-117150000D01*
X157430000Y-119310000D02*
X156500000Y-119310000D01*
X154270000Y-119310000D02*
X155200000Y-119310000D01*
X172340000Y-97970000D02*
X172340000Y-98900000D01*
X172340000Y-101130000D02*
X172340000Y-100200000D01*
X172340000Y-101130000D02*
X174500000Y-101130000D01*
X172340000Y-97970000D02*
X173800000Y-97970000D01*
X174380000Y-124790000D02*
X174380000Y-126250000D01*
X171220000Y-124790000D02*
X171220000Y-126950000D01*
X171220000Y-124790000D02*
X172150000Y-124790000D01*
X174380000Y-124790000D02*
X173450000Y-124790000D01*
X130287258Y-90672500D02*
X129812742Y-90672500D01*
X130287258Y-89627500D02*
X129812742Y-89627500D01*
X133772500Y-118512742D02*
X133772500Y-118987258D01*
X132727500Y-118512742D02*
X132727500Y-118987258D01*
X135377500Y-104912742D02*
X135377500Y-105387258D01*
X136422500Y-104912742D02*
X136422500Y-105387258D01*
X150527500Y-118512742D02*
X150527500Y-118987258D01*
X151572500Y-118512742D02*
X151572500Y-118987258D01*
X168772500Y-99512742D02*
X168772500Y-99987258D01*
X167727500Y-99512742D02*
X167727500Y-99987258D01*
X115215000Y-80788748D02*
X115215000Y-81311252D01*
X116685000Y-80788748D02*
X116685000Y-81311252D01*
X122840000Y-77859420D02*
X122840000Y-78140580D01*
X123860000Y-77859420D02*
X123860000Y-78140580D01*
X119640580Y-80110000D02*
X119359420Y-80110000D01*
X119640580Y-79090000D02*
X119359420Y-79090000D01*
X125915000Y-80511252D02*
X125915000Y-79988748D01*
X127385000Y-80511252D02*
X127385000Y-79988748D01*
X127915000Y-81511252D02*
X127915000Y-80988748D01*
X129385000Y-81511252D02*
X129385000Y-80988748D01*
X122200000Y-79900000D02*
X125200000Y-79900000D01*
X122200000Y-83100000D02*
X125200000Y-83100000D01*
X125372500Y-77762742D02*
X125372500Y-78237258D01*
X124327500Y-77762742D02*
X124327500Y-78237258D01*
X121327500Y-77762742D02*
X121327500Y-78237258D01*
X122372500Y-77762742D02*
X122372500Y-78237258D01*
X119890000Y-75440000D02*
X118090000Y-75440000D01*
X118090000Y-78660000D02*
X120540000Y-78660000D01*
X121600000Y-82750000D02*
X121600000Y-80750000D01*
X121600000Y-80750000D02*
X117700000Y-80750000D01*
X121600000Y-82750000D02*
X117700000Y-82750000D01*
X169200000Y-84650000D02*
X169200000Y-86650000D01*
X169200000Y-86650000D02*
X173100000Y-86650000D01*
X169200000Y-84650000D02*
X173100000Y-84650000D01*
X140740000Y-120120000D02*
X140740000Y-116220000D01*
X142740000Y-120120000D02*
X142740000Y-116220000D01*
X140740000Y-120120000D02*
X142740000Y-120120000D01*
X158610000Y-120200000D02*
X158610000Y-116300000D01*
X160610000Y-120200000D02*
X160610000Y-116300000D01*
X158610000Y-120200000D02*
X160610000Y-120200000D01*
X162020000Y-104700000D02*
X158120000Y-104700000D01*
X162020000Y-102700000D02*
X158120000Y-102700000D01*
X162020000Y-104700000D02*
X162020000Y-102700000D01*
X169715000Y-119410000D02*
X169715000Y-122290000D01*
X174185000Y-123460000D02*
X174185000Y-122410000D01*
X171685000Y-123460000D02*
X174185000Y-123460000D01*
X174185000Y-119290000D02*
X175175000Y-119290000D01*
X174185000Y-118240000D02*
X174185000Y-119290000D01*
X171685000Y-118240000D02*
X174185000Y-118240000D01*
D10*
X121554761Y-85697619D02*
X121459523Y-85650000D01*
X121364285Y-85554761D01*
X121221428Y-85411904D01*
X121126190Y-85364285D01*
X121030952Y-85364285D01*
X121078571Y-85602380D02*
X120983333Y-85554761D01*
X120888095Y-85459523D01*
X120840476Y-85269047D01*
X120840476Y-84935714D01*
X120888095Y-84745238D01*
X120983333Y-84650000D01*
X121078571Y-84602380D01*
X121269047Y-84602380D01*
X121364285Y-84650000D01*
X121459523Y-84745238D01*
X121507142Y-84935714D01*
X121507142Y-85269047D01*
X121459523Y-85459523D01*
X121364285Y-85554761D01*
X121269047Y-85602380D01*
X121078571Y-85602380D01*
X122364285Y-84935714D02*
X122364285Y-85602380D01*
X122126190Y-84554761D02*
X121888095Y-85269047D01*
X122507142Y-85269047D01*
X121678571Y-95397619D02*
X121583333Y-95350000D01*
X121488095Y-95254761D01*
X121345238Y-95111904D01*
X121250000Y-95064285D01*
X121154761Y-95064285D01*
X121202380Y-95302380D02*
X121107142Y-95254761D01*
X121011904Y-95159523D01*
X120964285Y-94969047D01*
X120964285Y-94635714D01*
X121011904Y-94445238D01*
X121107142Y-94350000D01*
X121202380Y-94302380D01*
X121392857Y-94302380D01*
X121488095Y-94350000D01*
X121583333Y-94445238D01*
X121630952Y-94635714D01*
X121630952Y-94969047D01*
X121583333Y-95159523D01*
X121488095Y-95254761D01*
X121392857Y-95302380D01*
X121202380Y-95302380D01*
X122583333Y-95302380D02*
X122011904Y-95302380D01*
X122297619Y-95302380D02*
X122297619Y-94302380D01*
X122202380Y-94445238D01*
X122107142Y-94540476D01*
X122011904Y-94588095D01*
X123535714Y-95302380D02*
X122964285Y-95302380D01*
X123250000Y-95302380D02*
X123250000Y-94302380D01*
X123154761Y-94445238D01*
X123059523Y-94540476D01*
X122964285Y-94588095D01*
X144954761Y-116097619D02*
X144859523Y-116050000D01*
X144764285Y-115954761D01*
X144621428Y-115811904D01*
X144526190Y-115764285D01*
X144430952Y-115764285D01*
X144478571Y-116002380D02*
X144383333Y-115954761D01*
X144288095Y-115859523D01*
X144240476Y-115669047D01*
X144240476Y-115335714D01*
X144288095Y-115145238D01*
X144383333Y-115050000D01*
X144478571Y-115002380D01*
X144669047Y-115002380D01*
X144764285Y-115050000D01*
X144859523Y-115145238D01*
X144907142Y-115335714D01*
X144907142Y-115669047D01*
X144859523Y-115859523D01*
X144764285Y-115954761D01*
X144669047Y-116002380D01*
X144478571Y-116002380D01*
X145288095Y-115097619D02*
X145335714Y-115050000D01*
X145430952Y-115002380D01*
X145669047Y-115002380D01*
X145764285Y-115050000D01*
X145811904Y-115097619D01*
X145859523Y-115192857D01*
X145859523Y-115288095D01*
X145811904Y-115430952D01*
X145240476Y-116002380D01*
X145859523Y-116002380D01*
X128804761Y-108197619D02*
X128709523Y-108150000D01*
X128614285Y-108054761D01*
X128471428Y-107911904D01*
X128376190Y-107864285D01*
X128280952Y-107864285D01*
X128328571Y-108102380D02*
X128233333Y-108054761D01*
X128138095Y-107959523D01*
X128090476Y-107769047D01*
X128090476Y-107435714D01*
X128138095Y-107245238D01*
X128233333Y-107150000D01*
X128328571Y-107102380D01*
X128519047Y-107102380D01*
X128614285Y-107150000D01*
X128709523Y-107245238D01*
X128757142Y-107435714D01*
X128757142Y-107769047D01*
X128709523Y-107959523D01*
X128614285Y-108054761D01*
X128519047Y-108102380D01*
X128328571Y-108102380D01*
X129614285Y-107102380D02*
X129423809Y-107102380D01*
X129328571Y-107150000D01*
X129280952Y-107197619D01*
X129185714Y-107340476D01*
X129138095Y-107530952D01*
X129138095Y-107911904D01*
X129185714Y-108007142D01*
X129233333Y-108054761D01*
X129328571Y-108102380D01*
X129519047Y-108102380D01*
X129614285Y-108054761D01*
X129661904Y-108007142D01*
X129709523Y-107911904D01*
X129709523Y-107673809D01*
X129661904Y-107578571D01*
X129614285Y-107530952D01*
X129519047Y-107483333D01*
X129328571Y-107483333D01*
X129233333Y-107530952D01*
X129185714Y-107578571D01*
X129138095Y-107673809D01*
X163154761Y-116097619D02*
X163059523Y-116050000D01*
X162964285Y-115954761D01*
X162821428Y-115811904D01*
X162726190Y-115764285D01*
X162630952Y-115764285D01*
X162678571Y-116002380D02*
X162583333Y-115954761D01*
X162488095Y-115859523D01*
X162440476Y-115669047D01*
X162440476Y-115335714D01*
X162488095Y-115145238D01*
X162583333Y-115050000D01*
X162678571Y-115002380D01*
X162869047Y-115002380D01*
X162964285Y-115050000D01*
X163059523Y-115145238D01*
X163107142Y-115335714D01*
X163107142Y-115669047D01*
X163059523Y-115859523D01*
X162964285Y-115954761D01*
X162869047Y-116002380D01*
X162678571Y-116002380D01*
X163678571Y-115430952D02*
X163583333Y-115383333D01*
X163535714Y-115335714D01*
X163488095Y-115240476D01*
X163488095Y-115192857D01*
X163535714Y-115097619D01*
X163583333Y-115050000D01*
X163678571Y-115002380D01*
X163869047Y-115002380D01*
X163964285Y-115050000D01*
X164011904Y-115097619D01*
X164059523Y-115192857D01*
X164059523Y-115240476D01*
X164011904Y-115335714D01*
X163964285Y-115383333D01*
X163869047Y-115430952D01*
X163678571Y-115430952D01*
X163583333Y-115478571D01*
X163535714Y-115526190D01*
X163488095Y-115621428D01*
X163488095Y-115811904D01*
X163535714Y-115907142D01*
X163583333Y-115954761D01*
X163678571Y-116002380D01*
X163869047Y-116002380D01*
X163964285Y-115954761D01*
X164011904Y-115907142D01*
X164059523Y-115811904D01*
X164059523Y-115621428D01*
X164011904Y-115526190D01*
X163964285Y-115478571D01*
X163869047Y-115430952D01*
X162278571Y-110697619D02*
X162183333Y-110650000D01*
X162088095Y-110554761D01*
X161945238Y-110411904D01*
X161850000Y-110364285D01*
X161754761Y-110364285D01*
X161802380Y-110602380D02*
X161707142Y-110554761D01*
X161611904Y-110459523D01*
X161564285Y-110269047D01*
X161564285Y-109935714D01*
X161611904Y-109745238D01*
X161707142Y-109650000D01*
X161802380Y-109602380D01*
X161992857Y-109602380D01*
X162088095Y-109650000D01*
X162183333Y-109745238D01*
X162230952Y-109935714D01*
X162230952Y-110269047D01*
X162183333Y-110459523D01*
X162088095Y-110554761D01*
X161992857Y-110602380D01*
X161802380Y-110602380D01*
X163183333Y-110602380D02*
X162611904Y-110602380D01*
X162897619Y-110602380D02*
X162897619Y-109602380D01*
X162802380Y-109745238D01*
X162707142Y-109840476D01*
X162611904Y-109888095D01*
X163802380Y-109602380D02*
X163897619Y-109602380D01*
X163992857Y-109650000D01*
X164040476Y-109697619D01*
X164088095Y-109792857D01*
X164135714Y-109983333D01*
X164135714Y-110221428D01*
X164088095Y-110411904D01*
X164040476Y-110507142D01*
X163992857Y-110554761D01*
X163897619Y-110602380D01*
X163802380Y-110602380D01*
X163707142Y-110554761D01*
X163659523Y-110507142D01*
X163611904Y-110411904D01*
X163564285Y-110221428D01*
X163564285Y-109983333D01*
X163611904Y-109792857D01*
X163659523Y-109697619D01*
X163707142Y-109650000D01*
X163802380Y-109602380D01*
X125078571Y-98097619D02*
X124983333Y-98050000D01*
X124888095Y-97954761D01*
X124745238Y-97811904D01*
X124650000Y-97764285D01*
X124554761Y-97764285D01*
X124602380Y-98002380D02*
X124507142Y-97954761D01*
X124411904Y-97859523D01*
X124364285Y-97669047D01*
X124364285Y-97335714D01*
X124411904Y-97145238D01*
X124507142Y-97050000D01*
X124602380Y-97002380D01*
X124792857Y-97002380D01*
X124888095Y-97050000D01*
X124983333Y-97145238D01*
X125030952Y-97335714D01*
X125030952Y-97669047D01*
X124983333Y-97859523D01*
X124888095Y-97954761D01*
X124792857Y-98002380D01*
X124602380Y-98002380D01*
X125983333Y-98002380D02*
X125411904Y-98002380D01*
X125697619Y-98002380D02*
X125697619Y-97002380D01*
X125602380Y-97145238D01*
X125507142Y-97240476D01*
X125411904Y-97288095D01*
X126316666Y-97002380D02*
X126935714Y-97002380D01*
X126602380Y-97383333D01*
X126745238Y-97383333D01*
X126840476Y-97430952D01*
X126888095Y-97478571D01*
X126935714Y-97573809D01*
X126935714Y-97811904D01*
X126888095Y-97907142D01*
X126840476Y-97954761D01*
X126745238Y-98002380D01*
X126459523Y-98002380D01*
X126364285Y-97954761D01*
X126316666Y-97907142D01*
X171916666Y-106202380D02*
X171916666Y-106916666D01*
X171869047Y-107059523D01*
X171773809Y-107154761D01*
X171630952Y-107202380D01*
X171535714Y-107202380D01*
X172535714Y-106630952D02*
X172440476Y-106583333D01*
X172392857Y-106535714D01*
X172345238Y-106440476D01*
X172345238Y-106392857D01*
X172392857Y-106297619D01*
X172440476Y-106250000D01*
X172535714Y-106202380D01*
X172726190Y-106202380D01*
X172821428Y-106250000D01*
X172869047Y-106297619D01*
X172916666Y-106392857D01*
X172916666Y-106440476D01*
X172869047Y-106535714D01*
X172821428Y-106583333D01*
X172726190Y-106630952D01*
X172535714Y-106630952D01*
X172440476Y-106678571D01*
X172392857Y-106726190D01*
X172345238Y-106821428D01*
X172345238Y-107011904D01*
X172392857Y-107107142D01*
X172440476Y-107154761D01*
X172535714Y-107202380D01*
X172726190Y-107202380D01*
X172821428Y-107154761D01*
X172869047Y-107107142D01*
X172916666Y-107011904D01*
X172916666Y-106821428D01*
X172869047Y-106726190D01*
X172821428Y-106678571D01*
X172726190Y-106630952D01*
X159566666Y-128352380D02*
X159566666Y-129066666D01*
X159519047Y-129209523D01*
X159423809Y-129304761D01*
X159280952Y-129352380D01*
X159185714Y-129352380D01*
X159947619Y-128352380D02*
X160614285Y-128352380D01*
X160185714Y-129352380D01*
X123316666Y-128602380D02*
X123316666Y-129316666D01*
X123269047Y-129459523D01*
X123173809Y-129554761D01*
X123030952Y-129602380D01*
X122935714Y-129602380D01*
X124221428Y-128602380D02*
X124030952Y-128602380D01*
X123935714Y-128650000D01*
X123888095Y-128697619D01*
X123792857Y-128840476D01*
X123745238Y-129030952D01*
X123745238Y-129411904D01*
X123792857Y-129507142D01*
X123840476Y-129554761D01*
X123935714Y-129602380D01*
X124126190Y-129602380D01*
X124221428Y-129554761D01*
X124269047Y-129507142D01*
X124316666Y-129411904D01*
X124316666Y-129173809D01*
X124269047Y-129078571D01*
X124221428Y-129030952D01*
X124126190Y-128983333D01*
X123935714Y-128983333D01*
X123840476Y-129030952D01*
X123792857Y-129078571D01*
X123745238Y-129173809D01*
X139691666Y-105029761D02*
X139834523Y-105077380D01*
X140072619Y-105077380D01*
X140167857Y-105029761D01*
X140215476Y-104982142D01*
X140263095Y-104886904D01*
X140263095Y-104791666D01*
X140215476Y-104696428D01*
X140167857Y-104648809D01*
X140072619Y-104601190D01*
X139882142Y-104553571D01*
X139786904Y-104505952D01*
X139739285Y-104458333D01*
X139691666Y-104363095D01*
X139691666Y-104267857D01*
X139739285Y-104172619D01*
X139786904Y-104125000D01*
X139882142Y-104077380D01*
X140120238Y-104077380D01*
X140263095Y-104125000D01*
X140596428Y-104077380D02*
X140834523Y-105077380D01*
X141025000Y-104363095D01*
X141215476Y-105077380D01*
X141453571Y-104077380D01*
X142358333Y-105077380D02*
X141786904Y-105077380D01*
X142072619Y-105077380D02*
X142072619Y-104077380D01*
X141977380Y-104220238D01*
X141882142Y-104315476D01*
X141786904Y-104363095D01*
X150241666Y-104979761D02*
X150384523Y-105027380D01*
X150622619Y-105027380D01*
X150717857Y-104979761D01*
X150765476Y-104932142D01*
X150813095Y-104836904D01*
X150813095Y-104741666D01*
X150765476Y-104646428D01*
X150717857Y-104598809D01*
X150622619Y-104551190D01*
X150432142Y-104503571D01*
X150336904Y-104455952D01*
X150289285Y-104408333D01*
X150241666Y-104313095D01*
X150241666Y-104217857D01*
X150289285Y-104122619D01*
X150336904Y-104075000D01*
X150432142Y-104027380D01*
X150670238Y-104027380D01*
X150813095Y-104075000D01*
X151146428Y-104027380D02*
X151384523Y-105027380D01*
X151575000Y-104313095D01*
X151765476Y-105027380D01*
X152003571Y-104027380D01*
X152336904Y-104122619D02*
X152384523Y-104075000D01*
X152479761Y-104027380D01*
X152717857Y-104027380D01*
X152813095Y-104075000D01*
X152860714Y-104122619D01*
X152908333Y-104217857D01*
X152908333Y-104313095D01*
X152860714Y-104455952D01*
X152289285Y-105027380D01*
X152908333Y-105027380D01*
X172516666Y-94002380D02*
X172516666Y-94716666D01*
X172469047Y-94859523D01*
X172373809Y-94954761D01*
X172230952Y-95002380D01*
X172135714Y-95002380D01*
X172897619Y-94002380D02*
X173516666Y-94002380D01*
X173183333Y-94383333D01*
X173326190Y-94383333D01*
X173421428Y-94430952D01*
X173469047Y-94478571D01*
X173516666Y-94573809D01*
X173516666Y-94811904D01*
X173469047Y-94907142D01*
X173421428Y-94954761D01*
X173326190Y-95002380D01*
X173040476Y-95002380D01*
X172945238Y-94954761D01*
X172897619Y-94907142D01*
X131607142Y-88616666D02*
X131654761Y-88664285D01*
X131702380Y-88807142D01*
X131702380Y-88902380D01*
X131654761Y-89045238D01*
X131559523Y-89140476D01*
X131464285Y-89188095D01*
X131273809Y-89235714D01*
X131130952Y-89235714D01*
X130940476Y-89188095D01*
X130845238Y-89140476D01*
X130750000Y-89045238D01*
X130702380Y-88902380D01*
X130702380Y-88807142D01*
X130750000Y-88664285D01*
X130797619Y-88616666D01*
X131702380Y-87664285D02*
X131702380Y-88235714D01*
X131702380Y-87950000D02*
X130702380Y-87950000D01*
X130845238Y-88045238D01*
X130940476Y-88140476D01*
X130988095Y-88235714D01*
X114113333Y-76217142D02*
X114065714Y-76264761D01*
X113922857Y-76312380D01*
X113827619Y-76312380D01*
X113684761Y-76264761D01*
X113589523Y-76169523D01*
X113541904Y-76074285D01*
X113494285Y-75883809D01*
X113494285Y-75740952D01*
X113541904Y-75550476D01*
X113589523Y-75455238D01*
X113684761Y-75360000D01*
X113827619Y-75312380D01*
X113922857Y-75312380D01*
X114065714Y-75360000D01*
X114113333Y-75407619D01*
X114494285Y-75407619D02*
X114541904Y-75360000D01*
X114637142Y-75312380D01*
X114875238Y-75312380D01*
X114970476Y-75360000D01*
X115018095Y-75407619D01*
X115065714Y-75502857D01*
X115065714Y-75598095D01*
X115018095Y-75740952D01*
X114446666Y-76312380D01*
X115065714Y-76312380D01*
X155883333Y-82107142D02*
X155835714Y-82154761D01*
X155692857Y-82202380D01*
X155597619Y-82202380D01*
X155454761Y-82154761D01*
X155359523Y-82059523D01*
X155311904Y-81964285D01*
X155264285Y-81773809D01*
X155264285Y-81630952D01*
X155311904Y-81440476D01*
X155359523Y-81345238D01*
X155454761Y-81250000D01*
X155597619Y-81202380D01*
X155692857Y-81202380D01*
X155835714Y-81250000D01*
X155883333Y-81297619D01*
X156740476Y-81535714D02*
X156740476Y-82202380D01*
X156502380Y-81154761D02*
X156264285Y-81869047D01*
X156883333Y-81869047D01*
X162607142Y-83316666D02*
X162654761Y-83364285D01*
X162702380Y-83507142D01*
X162702380Y-83602380D01*
X162654761Y-83745238D01*
X162559523Y-83840476D01*
X162464285Y-83888095D01*
X162273809Y-83935714D01*
X162130952Y-83935714D01*
X161940476Y-83888095D01*
X161845238Y-83840476D01*
X161750000Y-83745238D01*
X161702380Y-83602380D01*
X161702380Y-83507142D01*
X161750000Y-83364285D01*
X161797619Y-83316666D01*
X161702380Y-82411904D02*
X161702380Y-82888095D01*
X162178571Y-82935714D01*
X162130952Y-82888095D01*
X162083333Y-82792857D01*
X162083333Y-82554761D01*
X162130952Y-82459523D01*
X162178571Y-82411904D01*
X162273809Y-82364285D01*
X162511904Y-82364285D01*
X162607142Y-82411904D01*
X162654761Y-82459523D01*
X162702380Y-82554761D01*
X162702380Y-82792857D01*
X162654761Y-82888095D01*
X162607142Y-82935714D01*
X162607142Y-86366666D02*
X162654761Y-86414285D01*
X162702380Y-86557142D01*
X162702380Y-86652380D01*
X162654761Y-86795238D01*
X162559523Y-86890476D01*
X162464285Y-86938095D01*
X162273809Y-86985714D01*
X162130952Y-86985714D01*
X161940476Y-86938095D01*
X161845238Y-86890476D01*
X161750000Y-86795238D01*
X161702380Y-86652380D01*
X161702380Y-86557142D01*
X161750000Y-86414285D01*
X161797619Y-86366666D01*
X161702380Y-85509523D02*
X161702380Y-85700000D01*
X161750000Y-85795238D01*
X161797619Y-85842857D01*
X161940476Y-85938095D01*
X162130952Y-85985714D01*
X162511904Y-85985714D01*
X162607142Y-85938095D01*
X162654761Y-85890476D01*
X162702380Y-85795238D01*
X162702380Y-85604761D01*
X162654761Y-85509523D01*
X162607142Y-85461904D01*
X162511904Y-85414285D01*
X162273809Y-85414285D01*
X162178571Y-85461904D01*
X162130952Y-85509523D01*
X162083333Y-85604761D01*
X162083333Y-85795238D01*
X162130952Y-85890476D01*
X162178571Y-85938095D01*
X162273809Y-85985714D01*
X155583333Y-87682142D02*
X155535714Y-87729761D01*
X155392857Y-87777380D01*
X155297619Y-87777380D01*
X155154761Y-87729761D01*
X155059523Y-87634523D01*
X155011904Y-87539285D01*
X154964285Y-87348809D01*
X154964285Y-87205952D01*
X155011904Y-87015476D01*
X155059523Y-86920238D01*
X155154761Y-86825000D01*
X155297619Y-86777380D01*
X155392857Y-86777380D01*
X155535714Y-86825000D01*
X155583333Y-86872619D01*
X155916666Y-86777380D02*
X156583333Y-86777380D01*
X156154761Y-87777380D01*
X169607142Y-94916666D02*
X169654761Y-94964285D01*
X169702380Y-95107142D01*
X169702380Y-95202380D01*
X169654761Y-95345238D01*
X169559523Y-95440476D01*
X169464285Y-95488095D01*
X169273809Y-95535714D01*
X169130952Y-95535714D01*
X168940476Y-95488095D01*
X168845238Y-95440476D01*
X168750000Y-95345238D01*
X168702380Y-95202380D01*
X168702380Y-95107142D01*
X168750000Y-94964285D01*
X168797619Y-94916666D01*
X169702380Y-94440476D02*
X169702380Y-94250000D01*
X169654761Y-94154761D01*
X169607142Y-94107142D01*
X169464285Y-94011904D01*
X169273809Y-93964285D01*
X168892857Y-93964285D01*
X168797619Y-94011904D01*
X168750000Y-94059523D01*
X168702380Y-94154761D01*
X168702380Y-94345238D01*
X168750000Y-94440476D01*
X168797619Y-94488095D01*
X168892857Y-94535714D01*
X169130952Y-94535714D01*
X169226190Y-94488095D01*
X169273809Y-94440476D01*
X169321428Y-94345238D01*
X169321428Y-94154761D01*
X169273809Y-94059523D01*
X169226190Y-94011904D01*
X169130952Y-93964285D01*
X163007142Y-95192857D02*
X163054761Y-95240476D01*
X163102380Y-95383333D01*
X163102380Y-95478571D01*
X163054761Y-95621428D01*
X162959523Y-95716666D01*
X162864285Y-95764285D01*
X162673809Y-95811904D01*
X162530952Y-95811904D01*
X162340476Y-95764285D01*
X162245238Y-95716666D01*
X162150000Y-95621428D01*
X162102380Y-95478571D01*
X162102380Y-95383333D01*
X162150000Y-95240476D01*
X162197619Y-95192857D01*
X163102380Y-94240476D02*
X163102380Y-94811904D01*
X163102380Y-94526190D02*
X162102380Y-94526190D01*
X162245238Y-94621428D01*
X162340476Y-94716666D01*
X162388095Y-94811904D01*
X162102380Y-93621428D02*
X162102380Y-93526190D01*
X162150000Y-93430952D01*
X162197619Y-93383333D01*
X162292857Y-93335714D01*
X162483333Y-93288095D01*
X162721428Y-93288095D01*
X162911904Y-93335714D01*
X163007142Y-93383333D01*
X163054761Y-93430952D01*
X163102380Y-93526190D01*
X163102380Y-93621428D01*
X163054761Y-93716666D01*
X163007142Y-93764285D01*
X162911904Y-93811904D01*
X162721428Y-93859523D01*
X162483333Y-93859523D01*
X162292857Y-93811904D01*
X162197619Y-93764285D01*
X162150000Y-93716666D01*
X162102380Y-93621428D01*
X130307142Y-83692857D02*
X130354761Y-83740476D01*
X130402380Y-83883333D01*
X130402380Y-83978571D01*
X130354761Y-84121428D01*
X130259523Y-84216666D01*
X130164285Y-84264285D01*
X129973809Y-84311904D01*
X129830952Y-84311904D01*
X129640476Y-84264285D01*
X129545238Y-84216666D01*
X129450000Y-84121428D01*
X129402380Y-83978571D01*
X129402380Y-83883333D01*
X129450000Y-83740476D01*
X129497619Y-83692857D01*
X130402380Y-82740476D02*
X130402380Y-83311904D01*
X130402380Y-83026190D02*
X129402380Y-83026190D01*
X129545238Y-83121428D01*
X129640476Y-83216666D01*
X129688095Y-83311904D01*
X129497619Y-82359523D02*
X129450000Y-82311904D01*
X129402380Y-82216666D01*
X129402380Y-81978571D01*
X129450000Y-81883333D01*
X129497619Y-81835714D01*
X129592857Y-81788095D01*
X129688095Y-81788095D01*
X129830952Y-81835714D01*
X130402380Y-82407142D01*
X130402380Y-81788095D01*
X157216666Y-89602380D02*
X157216666Y-90316666D01*
X157169047Y-90459523D01*
X157073809Y-90554761D01*
X156930952Y-90602380D01*
X156835714Y-90602380D01*
X157645238Y-89697619D02*
X157692857Y-89650000D01*
X157788095Y-89602380D01*
X158026190Y-89602380D01*
X158121428Y-89650000D01*
X158169047Y-89697619D01*
X158216666Y-89792857D01*
X158216666Y-89888095D01*
X158169047Y-90030952D01*
X157597619Y-90602380D01*
X158216666Y-90602380D01*
X128933333Y-87152380D02*
X128600000Y-86676190D01*
X128361904Y-87152380D02*
X128361904Y-86152380D01*
X128742857Y-86152380D01*
X128838095Y-86200000D01*
X128885714Y-86247619D01*
X128933333Y-86342857D01*
X128933333Y-86485714D01*
X128885714Y-86580952D01*
X128838095Y-86628571D01*
X128742857Y-86676190D01*
X128361904Y-86676190D01*
X129885714Y-87152380D02*
X129314285Y-87152380D01*
X129600000Y-87152380D02*
X129600000Y-86152380D01*
X129504761Y-86295238D01*
X129409523Y-86390476D01*
X129314285Y-86438095D01*
X136408333Y-103102380D02*
X136075000Y-102626190D01*
X135836904Y-103102380D02*
X135836904Y-102102380D01*
X136217857Y-102102380D01*
X136313095Y-102150000D01*
X136360714Y-102197619D01*
X136408333Y-102292857D01*
X136408333Y-102435714D01*
X136360714Y-102530952D01*
X136313095Y-102578571D01*
X136217857Y-102626190D01*
X135836904Y-102626190D01*
X137265476Y-102435714D02*
X137265476Y-103102380D01*
X137027380Y-102054761D02*
X136789285Y-102769047D01*
X137408333Y-102769047D01*
X156483333Y-96602380D02*
X156150000Y-96126190D01*
X155911904Y-96602380D02*
X155911904Y-95602380D01*
X156292857Y-95602380D01*
X156388095Y-95650000D01*
X156435714Y-95697619D01*
X156483333Y-95792857D01*
X156483333Y-95935714D01*
X156435714Y-96030952D01*
X156388095Y-96078571D01*
X156292857Y-96126190D01*
X155911904Y-96126190D01*
X157340476Y-95602380D02*
X157150000Y-95602380D01*
X157054761Y-95650000D01*
X157007142Y-95697619D01*
X156911904Y-95840476D01*
X156864285Y-96030952D01*
X156864285Y-96411904D01*
X156911904Y-96507142D01*
X156959523Y-96554761D01*
X157054761Y-96602380D01*
X157245238Y-96602380D01*
X157340476Y-96554761D01*
X157388095Y-96507142D01*
X157435714Y-96411904D01*
X157435714Y-96173809D01*
X157388095Y-96078571D01*
X157340476Y-96030952D01*
X157245238Y-95983333D01*
X157054761Y-95983333D01*
X156959523Y-96030952D01*
X156911904Y-96078571D01*
X156864285Y-96173809D01*
X156483333Y-102202380D02*
X156150000Y-101726190D01*
X155911904Y-102202380D02*
X155911904Y-101202380D01*
X156292857Y-101202380D01*
X156388095Y-101250000D01*
X156435714Y-101297619D01*
X156483333Y-101392857D01*
X156483333Y-101535714D01*
X156435714Y-101630952D01*
X156388095Y-101678571D01*
X156292857Y-101726190D01*
X155911904Y-101726190D01*
X156816666Y-101202380D02*
X157483333Y-101202380D01*
X157054761Y-102202380D01*
X153283333Y-96702380D02*
X152950000Y-96226190D01*
X152711904Y-96702380D02*
X152711904Y-95702380D01*
X153092857Y-95702380D01*
X153188095Y-95750000D01*
X153235714Y-95797619D01*
X153283333Y-95892857D01*
X153283333Y-96035714D01*
X153235714Y-96130952D01*
X153188095Y-96178571D01*
X153092857Y-96226190D01*
X152711904Y-96226190D01*
X153854761Y-96130952D02*
X153759523Y-96083333D01*
X153711904Y-96035714D01*
X153664285Y-95940476D01*
X153664285Y-95892857D01*
X153711904Y-95797619D01*
X153759523Y-95750000D01*
X153854761Y-95702380D01*
X154045238Y-95702380D01*
X154140476Y-95750000D01*
X154188095Y-95797619D01*
X154235714Y-95892857D01*
X154235714Y-95940476D01*
X154188095Y-96035714D01*
X154140476Y-96083333D01*
X154045238Y-96130952D01*
X153854761Y-96130952D01*
X153759523Y-96178571D01*
X153711904Y-96226190D01*
X153664285Y-96321428D01*
X153664285Y-96511904D01*
X153711904Y-96607142D01*
X153759523Y-96654761D01*
X153854761Y-96702380D01*
X154045238Y-96702380D01*
X154140476Y-96654761D01*
X154188095Y-96607142D01*
X154235714Y-96511904D01*
X154235714Y-96321428D01*
X154188095Y-96226190D01*
X154140476Y-96178571D01*
X154045238Y-96130952D01*
X153283333Y-102202380D02*
X152950000Y-101726190D01*
X152711904Y-102202380D02*
X152711904Y-101202380D01*
X153092857Y-101202380D01*
X153188095Y-101250000D01*
X153235714Y-101297619D01*
X153283333Y-101392857D01*
X153283333Y-101535714D01*
X153235714Y-101630952D01*
X153188095Y-101678571D01*
X153092857Y-101726190D01*
X152711904Y-101726190D01*
X153759523Y-102202380D02*
X153950000Y-102202380D01*
X154045238Y-102154761D01*
X154092857Y-102107142D01*
X154188095Y-101964285D01*
X154235714Y-101773809D01*
X154235714Y-101392857D01*
X154188095Y-101297619D01*
X154140476Y-101250000D01*
X154045238Y-101202380D01*
X153854761Y-101202380D01*
X153759523Y-101250000D01*
X153711904Y-101297619D01*
X153664285Y-101392857D01*
X153664285Y-101630952D01*
X153711904Y-101726190D01*
X153759523Y-101773809D01*
X153854761Y-101821428D01*
X154045238Y-101821428D01*
X154140476Y-101773809D01*
X154188095Y-101726190D01*
X154235714Y-101630952D01*
X164152380Y-80542857D02*
X163676190Y-80876190D01*
X164152380Y-81114285D02*
X163152380Y-81114285D01*
X163152380Y-80733333D01*
X163200000Y-80638095D01*
X163247619Y-80590476D01*
X163342857Y-80542857D01*
X163485714Y-80542857D01*
X163580952Y-80590476D01*
X163628571Y-80638095D01*
X163676190Y-80733333D01*
X163676190Y-81114285D01*
X164152380Y-79590476D02*
X164152380Y-80161904D01*
X164152380Y-79876190D02*
X163152380Y-79876190D01*
X163295238Y-79971428D01*
X163390476Y-80066666D01*
X163438095Y-80161904D01*
X163152380Y-78971428D02*
X163152380Y-78876190D01*
X163200000Y-78780952D01*
X163247619Y-78733333D01*
X163342857Y-78685714D01*
X163533333Y-78638095D01*
X163771428Y-78638095D01*
X163961904Y-78685714D01*
X164057142Y-78733333D01*
X164104761Y-78780952D01*
X164152380Y-78876190D01*
X164152380Y-78971428D01*
X164104761Y-79066666D01*
X164057142Y-79114285D01*
X163961904Y-79161904D01*
X163771428Y-79209523D01*
X163533333Y-79209523D01*
X163342857Y-79161904D01*
X163247619Y-79114285D01*
X163200000Y-79066666D01*
X163152380Y-78971428D01*
X164152380Y-77492857D02*
X163676190Y-77826190D01*
X164152380Y-78064285D02*
X163152380Y-78064285D01*
X163152380Y-77683333D01*
X163200000Y-77588095D01*
X163247619Y-77540476D01*
X163342857Y-77492857D01*
X163485714Y-77492857D01*
X163580952Y-77540476D01*
X163628571Y-77588095D01*
X163676190Y-77683333D01*
X163676190Y-78064285D01*
X164152380Y-76540476D02*
X164152380Y-77111904D01*
X164152380Y-76826190D02*
X163152380Y-76826190D01*
X163295238Y-76921428D01*
X163390476Y-77016666D01*
X163438095Y-77111904D01*
X164152380Y-75588095D02*
X164152380Y-76159523D01*
X164152380Y-75873809D02*
X163152380Y-75873809D01*
X163295238Y-75969047D01*
X163390476Y-76064285D01*
X163438095Y-76159523D01*
X166752380Y-80942857D02*
X166276190Y-81276190D01*
X166752380Y-81514285D02*
X165752380Y-81514285D01*
X165752380Y-81133333D01*
X165800000Y-81038095D01*
X165847619Y-80990476D01*
X165942857Y-80942857D01*
X166085714Y-80942857D01*
X166180952Y-80990476D01*
X166228571Y-81038095D01*
X166276190Y-81133333D01*
X166276190Y-81514285D01*
X166752380Y-79990476D02*
X166752380Y-80561904D01*
X166752380Y-80276190D02*
X165752380Y-80276190D01*
X165895238Y-80371428D01*
X165990476Y-80466666D01*
X166038095Y-80561904D01*
X165847619Y-79609523D02*
X165800000Y-79561904D01*
X165752380Y-79466666D01*
X165752380Y-79228571D01*
X165800000Y-79133333D01*
X165847619Y-79085714D01*
X165942857Y-79038095D01*
X166038095Y-79038095D01*
X166180952Y-79085714D01*
X166752380Y-79657142D01*
X166752380Y-79038095D01*
X166702380Y-77692857D02*
X166226190Y-78026190D01*
X166702380Y-78264285D02*
X165702380Y-78264285D01*
X165702380Y-77883333D01*
X165750000Y-77788095D01*
X165797619Y-77740476D01*
X165892857Y-77692857D01*
X166035714Y-77692857D01*
X166130952Y-77740476D01*
X166178571Y-77788095D01*
X166226190Y-77883333D01*
X166226190Y-78264285D01*
X166702380Y-76740476D02*
X166702380Y-77311904D01*
X166702380Y-77026190D02*
X165702380Y-77026190D01*
X165845238Y-77121428D01*
X165940476Y-77216666D01*
X165988095Y-77311904D01*
X165702380Y-76407142D02*
X165702380Y-75788095D01*
X166083333Y-76121428D01*
X166083333Y-75978571D01*
X166130952Y-75883333D01*
X166178571Y-75835714D01*
X166273809Y-75788095D01*
X166511904Y-75788095D01*
X166607142Y-75835714D01*
X166654761Y-75883333D01*
X166702380Y-75978571D01*
X166702380Y-76264285D01*
X166654761Y-76359523D01*
X166607142Y-76407142D01*
X125407142Y-84902380D02*
X125073809Y-84426190D01*
X124835714Y-84902380D02*
X124835714Y-83902380D01*
X125216666Y-83902380D01*
X125311904Y-83950000D01*
X125359523Y-83997619D01*
X125407142Y-84092857D01*
X125407142Y-84235714D01*
X125359523Y-84330952D01*
X125311904Y-84378571D01*
X125216666Y-84426190D01*
X124835714Y-84426190D01*
X126359523Y-84902380D02*
X125788095Y-84902380D01*
X126073809Y-84902380D02*
X126073809Y-83902380D01*
X125978571Y-84045238D01*
X125883333Y-84140476D01*
X125788095Y-84188095D01*
X127216666Y-84235714D02*
X127216666Y-84902380D01*
X126978571Y-83854761D02*
X126740476Y-84569047D01*
X127359523Y-84569047D01*
X122002380Y-108392857D02*
X121526190Y-108726190D01*
X122002380Y-108964285D02*
X121002380Y-108964285D01*
X121002380Y-108583333D01*
X121050000Y-108488095D01*
X121097619Y-108440476D01*
X121192857Y-108392857D01*
X121335714Y-108392857D01*
X121430952Y-108440476D01*
X121478571Y-108488095D01*
X121526190Y-108583333D01*
X121526190Y-108964285D01*
X122002380Y-107440476D02*
X122002380Y-108011904D01*
X122002380Y-107726190D02*
X121002380Y-107726190D01*
X121145238Y-107821428D01*
X121240476Y-107916666D01*
X121288095Y-108011904D01*
X121002380Y-106535714D02*
X121002380Y-107011904D01*
X121478571Y-107059523D01*
X121430952Y-107011904D01*
X121383333Y-106916666D01*
X121383333Y-106678571D01*
X121430952Y-106583333D01*
X121478571Y-106535714D01*
X121573809Y-106488095D01*
X121811904Y-106488095D01*
X121907142Y-106535714D01*
X121954761Y-106583333D01*
X122002380Y-106678571D01*
X122002380Y-106916666D01*
X121954761Y-107011904D01*
X121907142Y-107059523D01*
X135502380Y-116192857D02*
X135026190Y-116526190D01*
X135502380Y-116764285D02*
X134502380Y-116764285D01*
X134502380Y-116383333D01*
X134550000Y-116288095D01*
X134597619Y-116240476D01*
X134692857Y-116192857D01*
X134835714Y-116192857D01*
X134930952Y-116240476D01*
X134978571Y-116288095D01*
X135026190Y-116383333D01*
X135026190Y-116764285D01*
X135502380Y-115240476D02*
X135502380Y-115811904D01*
X135502380Y-115526190D02*
X134502380Y-115526190D01*
X134645238Y-115621428D01*
X134740476Y-115716666D01*
X134788095Y-115811904D01*
X134502380Y-114383333D02*
X134502380Y-114573809D01*
X134550000Y-114669047D01*
X134597619Y-114716666D01*
X134740476Y-114811904D01*
X134930952Y-114859523D01*
X135311904Y-114859523D01*
X135407142Y-114811904D01*
X135454761Y-114764285D01*
X135502380Y-114669047D01*
X135502380Y-114478571D01*
X135454761Y-114383333D01*
X135407142Y-114335714D01*
X135311904Y-114288095D01*
X135073809Y-114288095D01*
X134978571Y-114335714D01*
X134930952Y-114383333D01*
X134883333Y-114478571D01*
X134883333Y-114669047D01*
X134930952Y-114764285D01*
X134978571Y-114811904D01*
X135073809Y-114859523D01*
X153302380Y-116392857D02*
X152826190Y-116726190D01*
X153302380Y-116964285D02*
X152302380Y-116964285D01*
X152302380Y-116583333D01*
X152350000Y-116488095D01*
X152397619Y-116440476D01*
X152492857Y-116392857D01*
X152635714Y-116392857D01*
X152730952Y-116440476D01*
X152778571Y-116488095D01*
X152826190Y-116583333D01*
X152826190Y-116964285D01*
X153302380Y-115440476D02*
X153302380Y-116011904D01*
X153302380Y-115726190D02*
X152302380Y-115726190D01*
X152445238Y-115821428D01*
X152540476Y-115916666D01*
X152588095Y-116011904D01*
X152302380Y-115107142D02*
X152302380Y-114440476D01*
X153302380Y-114869047D01*
X168557142Y-82352380D02*
X168223809Y-81876190D01*
X167985714Y-82352380D02*
X167985714Y-81352380D01*
X168366666Y-81352380D01*
X168461904Y-81400000D01*
X168509523Y-81447619D01*
X168557142Y-81542857D01*
X168557142Y-81685714D01*
X168509523Y-81780952D01*
X168461904Y-81828571D01*
X168366666Y-81876190D01*
X167985714Y-81876190D01*
X169509523Y-82352380D02*
X168938095Y-82352380D01*
X169223809Y-82352380D02*
X169223809Y-81352380D01*
X169128571Y-81495238D01*
X169033333Y-81590476D01*
X168938095Y-81638095D01*
X170080952Y-81780952D02*
X169985714Y-81733333D01*
X169938095Y-81685714D01*
X169890476Y-81590476D01*
X169890476Y-81542857D01*
X169938095Y-81447619D01*
X169985714Y-81400000D01*
X170080952Y-81352380D01*
X170271428Y-81352380D01*
X170366666Y-81400000D01*
X170414285Y-81447619D01*
X170461904Y-81542857D01*
X170461904Y-81590476D01*
X170414285Y-81685714D01*
X170366666Y-81733333D01*
X170271428Y-81780952D01*
X170080952Y-81780952D01*
X169985714Y-81828571D01*
X169938095Y-81876190D01*
X169890476Y-81971428D01*
X169890476Y-82161904D01*
X169938095Y-82257142D01*
X169985714Y-82304761D01*
X170080952Y-82352380D01*
X170271428Y-82352380D01*
X170366666Y-82304761D01*
X170414285Y-82257142D01*
X170461904Y-82161904D01*
X170461904Y-81971428D01*
X170414285Y-81876190D01*
X170366666Y-81828571D01*
X170271428Y-81780952D01*
X171857142Y-82327380D02*
X171523809Y-81851190D01*
X171285714Y-82327380D02*
X171285714Y-81327380D01*
X171666666Y-81327380D01*
X171761904Y-81375000D01*
X171809523Y-81422619D01*
X171857142Y-81517857D01*
X171857142Y-81660714D01*
X171809523Y-81755952D01*
X171761904Y-81803571D01*
X171666666Y-81851190D01*
X171285714Y-81851190D01*
X172809523Y-82327380D02*
X172238095Y-82327380D01*
X172523809Y-82327380D02*
X172523809Y-81327380D01*
X172428571Y-81470238D01*
X172333333Y-81565476D01*
X172238095Y-81613095D01*
X173285714Y-82327380D02*
X173476190Y-82327380D01*
X173571428Y-82279761D01*
X173619047Y-82232142D01*
X173714285Y-82089285D01*
X173761904Y-81898809D01*
X173761904Y-81517857D01*
X173714285Y-81422619D01*
X173666666Y-81375000D01*
X173571428Y-81327380D01*
X173380952Y-81327380D01*
X173285714Y-81375000D01*
X173238095Y-81422619D01*
X173190476Y-81517857D01*
X173190476Y-81755952D01*
X173238095Y-81851190D01*
X173285714Y-81898809D01*
X173380952Y-81946428D01*
X173571428Y-81946428D01*
X173666666Y-81898809D01*
X173714285Y-81851190D01*
X173761904Y-81755952D01*
X167707142Y-98202380D02*
X167373809Y-97726190D01*
X167135714Y-98202380D02*
X167135714Y-97202380D01*
X167516666Y-97202380D01*
X167611904Y-97250000D01*
X167659523Y-97297619D01*
X167707142Y-97392857D01*
X167707142Y-97535714D01*
X167659523Y-97630952D01*
X167611904Y-97678571D01*
X167516666Y-97726190D01*
X167135714Y-97726190D01*
X168088095Y-97297619D02*
X168135714Y-97250000D01*
X168230952Y-97202380D01*
X168469047Y-97202380D01*
X168564285Y-97250000D01*
X168611904Y-97297619D01*
X168659523Y-97392857D01*
X168659523Y-97488095D01*
X168611904Y-97630952D01*
X168040476Y-98202380D01*
X168659523Y-98202380D01*
X169278571Y-97202380D02*
X169373809Y-97202380D01*
X169469047Y-97250000D01*
X169516666Y-97297619D01*
X169564285Y-97392857D01*
X169611904Y-97583333D01*
X169611904Y-97821428D01*
X169564285Y-98011904D01*
X169516666Y-98107142D01*
X169469047Y-98154761D01*
X169373809Y-98202380D01*
X169278571Y-98202380D01*
X169183333Y-98154761D01*
X169135714Y-98107142D01*
X169088095Y-98011904D01*
X169040476Y-97821428D01*
X169040476Y-97583333D01*
X169088095Y-97392857D01*
X169135714Y-97297619D01*
X169183333Y-97250000D01*
X169278571Y-97202380D01*
X161502380Y-80542857D02*
X161026190Y-80876190D01*
X161502380Y-81114285D02*
X160502380Y-81114285D01*
X160502380Y-80733333D01*
X160550000Y-80638095D01*
X160597619Y-80590476D01*
X160692857Y-80542857D01*
X160835714Y-80542857D01*
X160930952Y-80590476D01*
X160978571Y-80638095D01*
X161026190Y-80733333D01*
X161026190Y-81114285D01*
X160597619Y-80161904D02*
X160550000Y-80114285D01*
X160502380Y-80019047D01*
X160502380Y-79780952D01*
X160550000Y-79685714D01*
X160597619Y-79638095D01*
X160692857Y-79590476D01*
X160788095Y-79590476D01*
X160930952Y-79638095D01*
X161502380Y-80209523D01*
X161502380Y-79590476D01*
X161502380Y-78638095D02*
X161502380Y-79209523D01*
X161502380Y-78923809D02*
X160502380Y-78923809D01*
X160645238Y-79019047D01*
X160740476Y-79114285D01*
X160788095Y-79209523D01*
X161502380Y-77492857D02*
X161026190Y-77826190D01*
X161502380Y-78064285D02*
X160502380Y-78064285D01*
X160502380Y-77683333D01*
X160550000Y-77588095D01*
X160597619Y-77540476D01*
X160692857Y-77492857D01*
X160835714Y-77492857D01*
X160930952Y-77540476D01*
X160978571Y-77588095D01*
X161026190Y-77683333D01*
X161026190Y-78064285D01*
X160597619Y-77111904D02*
X160550000Y-77064285D01*
X160502380Y-76969047D01*
X160502380Y-76730952D01*
X160550000Y-76635714D01*
X160597619Y-76588095D01*
X160692857Y-76540476D01*
X160788095Y-76540476D01*
X160930952Y-76588095D01*
X161502380Y-77159523D01*
X161502380Y-76540476D01*
X160597619Y-76159523D02*
X160550000Y-76111904D01*
X160502380Y-76016666D01*
X160502380Y-75778571D01*
X160550000Y-75683333D01*
X160597619Y-75635714D01*
X160692857Y-75588095D01*
X160788095Y-75588095D01*
X160930952Y-75635714D01*
X161502380Y-76207142D01*
X161502380Y-75588095D01*
X158672380Y-80542857D02*
X158196190Y-80876190D01*
X158672380Y-81114285D02*
X157672380Y-81114285D01*
X157672380Y-80733333D01*
X157720000Y-80638095D01*
X157767619Y-80590476D01*
X157862857Y-80542857D01*
X158005714Y-80542857D01*
X158100952Y-80590476D01*
X158148571Y-80638095D01*
X158196190Y-80733333D01*
X158196190Y-81114285D01*
X157767619Y-80161904D02*
X157720000Y-80114285D01*
X157672380Y-80019047D01*
X157672380Y-79780952D01*
X157720000Y-79685714D01*
X157767619Y-79638095D01*
X157862857Y-79590476D01*
X157958095Y-79590476D01*
X158100952Y-79638095D01*
X158672380Y-80209523D01*
X158672380Y-79590476D01*
X157672380Y-79257142D02*
X157672380Y-78638095D01*
X158053333Y-78971428D01*
X158053333Y-78828571D01*
X158100952Y-78733333D01*
X158148571Y-78685714D01*
X158243809Y-78638095D01*
X158481904Y-78638095D01*
X158577142Y-78685714D01*
X158624761Y-78733333D01*
X158672380Y-78828571D01*
X158672380Y-79114285D01*
X158624761Y-79209523D01*
X158577142Y-79257142D01*
X158672380Y-77492857D02*
X158196190Y-77826190D01*
X158672380Y-78064285D02*
X157672380Y-78064285D01*
X157672380Y-77683333D01*
X157720000Y-77588095D01*
X157767619Y-77540476D01*
X157862857Y-77492857D01*
X158005714Y-77492857D01*
X158100952Y-77540476D01*
X158148571Y-77588095D01*
X158196190Y-77683333D01*
X158196190Y-78064285D01*
X157767619Y-77111904D02*
X157720000Y-77064285D01*
X157672380Y-76969047D01*
X157672380Y-76730952D01*
X157720000Y-76635714D01*
X157767619Y-76588095D01*
X157862857Y-76540476D01*
X157958095Y-76540476D01*
X158100952Y-76588095D01*
X158672380Y-77159523D01*
X158672380Y-76540476D01*
X158005714Y-75683333D02*
X158672380Y-75683333D01*
X157624761Y-75921428D02*
X158339047Y-76159523D01*
X158339047Y-75540476D01*
X141763095Y-94802380D02*
X141763095Y-95611904D01*
X141810714Y-95707142D01*
X141858333Y-95754761D01*
X141953571Y-95802380D01*
X142144047Y-95802380D01*
X142239285Y-95754761D01*
X142286904Y-95707142D01*
X142334523Y-95611904D01*
X142334523Y-94802380D01*
X143334523Y-95802380D02*
X142763095Y-95802380D01*
X143048809Y-95802380D02*
X143048809Y-94802380D01*
X142953571Y-94945238D01*
X142858333Y-95040476D01*
X142763095Y-95088095D01*
X163088095Y-83877380D02*
X163088095Y-84686904D01*
X163135714Y-84782142D01*
X163183333Y-84829761D01*
X163278571Y-84877380D01*
X163469047Y-84877380D01*
X163564285Y-84829761D01*
X163611904Y-84782142D01*
X163659523Y-84686904D01*
X163659523Y-83877380D01*
X164040476Y-83877380D02*
X164659523Y-83877380D01*
X164326190Y-84258333D01*
X164469047Y-84258333D01*
X164564285Y-84305952D01*
X164611904Y-84353571D01*
X164659523Y-84448809D01*
X164659523Y-84686904D01*
X164611904Y-84782142D01*
X164564285Y-84829761D01*
X164469047Y-84877380D01*
X164183333Y-84877380D01*
X164088095Y-84829761D01*
X164040476Y-84782142D01*
X127602380Y-94711904D02*
X128411904Y-94711904D01*
X128507142Y-94664285D01*
X128554761Y-94616666D01*
X128602380Y-94521428D01*
X128602380Y-94330952D01*
X128554761Y-94235714D01*
X128507142Y-94188095D01*
X128411904Y-94140476D01*
X127602380Y-94140476D01*
X127935714Y-93235714D02*
X128602380Y-93235714D01*
X127554761Y-93473809D02*
X128269047Y-93711904D01*
X128269047Y-93092857D01*
X165488095Y-91202380D02*
X165488095Y-92011904D01*
X165535714Y-92107142D01*
X165583333Y-92154761D01*
X165678571Y-92202380D01*
X165869047Y-92202380D01*
X165964285Y-92154761D01*
X166011904Y-92107142D01*
X166059523Y-92011904D01*
X166059523Y-91202380D01*
X167011904Y-91202380D02*
X166535714Y-91202380D01*
X166488095Y-91678571D01*
X166535714Y-91630952D01*
X166630952Y-91583333D01*
X166869047Y-91583333D01*
X166964285Y-91630952D01*
X167011904Y-91678571D01*
X167059523Y-91773809D01*
X167059523Y-92011904D01*
X167011904Y-92107142D01*
X166964285Y-92154761D01*
X166869047Y-92202380D01*
X166630952Y-92202380D01*
X166535714Y-92154761D01*
X166488095Y-92107142D01*
X123168095Y-101912380D02*
X123168095Y-102721904D01*
X123215714Y-102817142D01*
X123263333Y-102864761D01*
X123358571Y-102912380D01*
X123549047Y-102912380D01*
X123644285Y-102864761D01*
X123691904Y-102817142D01*
X123739523Y-102721904D01*
X123739523Y-101912380D01*
X124644285Y-101912380D02*
X124453809Y-101912380D01*
X124358571Y-101960000D01*
X124310952Y-102007619D01*
X124215714Y-102150476D01*
X124168095Y-102340952D01*
X124168095Y-102721904D01*
X124215714Y-102817142D01*
X124263333Y-102864761D01*
X124358571Y-102912380D01*
X124549047Y-102912380D01*
X124644285Y-102864761D01*
X124691904Y-102817142D01*
X124739523Y-102721904D01*
X124739523Y-102483809D01*
X124691904Y-102388571D01*
X124644285Y-102340952D01*
X124549047Y-102293333D01*
X124358571Y-102293333D01*
X124263333Y-102340952D01*
X124215714Y-102388571D01*
X124168095Y-102483809D01*
X111706666Y-90342380D02*
X111706666Y-91056666D01*
X111659047Y-91199523D01*
X111563809Y-91294761D01*
X111420952Y-91342380D01*
X111325714Y-91342380D01*
X112706666Y-91342380D02*
X112135238Y-91342380D01*
X112420952Y-91342380D02*
X112420952Y-90342380D01*
X112325714Y-90485238D01*
X112230476Y-90580476D01*
X112135238Y-90628095D01*
X111846666Y-107322380D02*
X111846666Y-108036666D01*
X111799047Y-108179523D01*
X111703809Y-108274761D01*
X111560952Y-108322380D01*
X111465714Y-108322380D01*
X112751428Y-107655714D02*
X112751428Y-108322380D01*
X112513333Y-107274761D02*
X112275238Y-107989047D01*
X112894285Y-107989047D01*
X141056666Y-128442380D02*
X141056666Y-129156666D01*
X141009047Y-129299523D01*
X140913809Y-129394761D01*
X140770952Y-129442380D01*
X140675714Y-129442380D01*
X142009047Y-128442380D02*
X141532857Y-128442380D01*
X141485238Y-128918571D01*
X141532857Y-128870952D01*
X141628095Y-128823333D01*
X141866190Y-128823333D01*
X141961428Y-128870952D01*
X142009047Y-128918571D01*
X142056666Y-129013809D01*
X142056666Y-129251904D01*
X142009047Y-129347142D01*
X141961428Y-129394761D01*
X141866190Y-129442380D01*
X141628095Y-129442380D01*
X141532857Y-129394761D01*
X141485238Y-129347142D01*
X125154761Y-87397619D02*
X125059523Y-87350000D01*
X124964285Y-87254761D01*
X124821428Y-87111904D01*
X124726190Y-87064285D01*
X124630952Y-87064285D01*
X124678571Y-87302380D02*
X124583333Y-87254761D01*
X124488095Y-87159523D01*
X124440476Y-86969047D01*
X124440476Y-86635714D01*
X124488095Y-86445238D01*
X124583333Y-86350000D01*
X124678571Y-86302380D01*
X124869047Y-86302380D01*
X124964285Y-86350000D01*
X125059523Y-86445238D01*
X125107142Y-86635714D01*
X125107142Y-86969047D01*
X125059523Y-87159523D01*
X124964285Y-87254761D01*
X124869047Y-87302380D01*
X124678571Y-87302380D01*
X126059523Y-87302380D02*
X125488095Y-87302380D01*
X125773809Y-87302380D02*
X125773809Y-86302380D01*
X125678571Y-86445238D01*
X125583333Y-86540476D01*
X125488095Y-86588095D01*
X137954761Y-116697619D02*
X137859523Y-116650000D01*
X137764285Y-116554761D01*
X137621428Y-116411904D01*
X137526190Y-116364285D01*
X137430952Y-116364285D01*
X137478571Y-116602380D02*
X137383333Y-116554761D01*
X137288095Y-116459523D01*
X137240476Y-116269047D01*
X137240476Y-115935714D01*
X137288095Y-115745238D01*
X137383333Y-115650000D01*
X137478571Y-115602380D01*
X137669047Y-115602380D01*
X137764285Y-115650000D01*
X137859523Y-115745238D01*
X137907142Y-115935714D01*
X137907142Y-116269047D01*
X137859523Y-116459523D01*
X137764285Y-116554761D01*
X137669047Y-116602380D01*
X137478571Y-116602380D01*
X138240476Y-115602380D02*
X138859523Y-115602380D01*
X138526190Y-115983333D01*
X138669047Y-115983333D01*
X138764285Y-116030952D01*
X138811904Y-116078571D01*
X138859523Y-116173809D01*
X138859523Y-116411904D01*
X138811904Y-116507142D01*
X138764285Y-116554761D01*
X138669047Y-116602380D01*
X138383333Y-116602380D01*
X138288095Y-116554761D01*
X138240476Y-116507142D01*
X133424761Y-108697619D02*
X133329523Y-108650000D01*
X133234285Y-108554761D01*
X133091428Y-108411904D01*
X132996190Y-108364285D01*
X132900952Y-108364285D01*
X132948571Y-108602380D02*
X132853333Y-108554761D01*
X132758095Y-108459523D01*
X132710476Y-108269047D01*
X132710476Y-107935714D01*
X132758095Y-107745238D01*
X132853333Y-107650000D01*
X132948571Y-107602380D01*
X133139047Y-107602380D01*
X133234285Y-107650000D01*
X133329523Y-107745238D01*
X133377142Y-107935714D01*
X133377142Y-108269047D01*
X133329523Y-108459523D01*
X133234285Y-108554761D01*
X133139047Y-108602380D01*
X132948571Y-108602380D01*
X134281904Y-107602380D02*
X133805714Y-107602380D01*
X133758095Y-108078571D01*
X133805714Y-108030952D01*
X133900952Y-107983333D01*
X134139047Y-107983333D01*
X134234285Y-108030952D01*
X134281904Y-108078571D01*
X134329523Y-108173809D01*
X134329523Y-108411904D01*
X134281904Y-108507142D01*
X134234285Y-108554761D01*
X134139047Y-108602380D01*
X133900952Y-108602380D01*
X133805714Y-108554761D01*
X133758095Y-108507142D01*
X155754761Y-116697619D02*
X155659523Y-116650000D01*
X155564285Y-116554761D01*
X155421428Y-116411904D01*
X155326190Y-116364285D01*
X155230952Y-116364285D01*
X155278571Y-116602380D02*
X155183333Y-116554761D01*
X155088095Y-116459523D01*
X155040476Y-116269047D01*
X155040476Y-115935714D01*
X155088095Y-115745238D01*
X155183333Y-115650000D01*
X155278571Y-115602380D01*
X155469047Y-115602380D01*
X155564285Y-115650000D01*
X155659523Y-115745238D01*
X155707142Y-115935714D01*
X155707142Y-116269047D01*
X155659523Y-116459523D01*
X155564285Y-116554761D01*
X155469047Y-116602380D01*
X155278571Y-116602380D01*
X156040476Y-115602380D02*
X156707142Y-115602380D01*
X156278571Y-116602380D01*
X171804761Y-97677619D02*
X171709523Y-97630000D01*
X171614285Y-97534761D01*
X171471428Y-97391904D01*
X171376190Y-97344285D01*
X171280952Y-97344285D01*
X171328571Y-97582380D02*
X171233333Y-97534761D01*
X171138095Y-97439523D01*
X171090476Y-97249047D01*
X171090476Y-96915714D01*
X171138095Y-96725238D01*
X171233333Y-96630000D01*
X171328571Y-96582380D01*
X171519047Y-96582380D01*
X171614285Y-96630000D01*
X171709523Y-96725238D01*
X171757142Y-96915714D01*
X171757142Y-97249047D01*
X171709523Y-97439523D01*
X171614285Y-97534761D01*
X171519047Y-97582380D01*
X171328571Y-97582380D01*
X172233333Y-97582380D02*
X172423809Y-97582380D01*
X172519047Y-97534761D01*
X172566666Y-97487142D01*
X172661904Y-97344285D01*
X172709523Y-97153809D01*
X172709523Y-96772857D01*
X172661904Y-96677619D01*
X172614285Y-96630000D01*
X172519047Y-96582380D01*
X172328571Y-96582380D01*
X172233333Y-96630000D01*
X172185714Y-96677619D01*
X172138095Y-96772857D01*
X172138095Y-97010952D01*
X172185714Y-97106190D01*
X172233333Y-97153809D01*
X172328571Y-97201428D01*
X172519047Y-97201428D01*
X172614285Y-97153809D01*
X172661904Y-97106190D01*
X172709523Y-97010952D01*
X173297619Y-129671428D02*
X173250000Y-129766666D01*
X173154761Y-129861904D01*
X173011904Y-130004761D01*
X172964285Y-130100000D01*
X172964285Y-130195238D01*
X173202380Y-130147619D02*
X173154761Y-130242857D01*
X173059523Y-130338095D01*
X172869047Y-130385714D01*
X172535714Y-130385714D01*
X172345238Y-130338095D01*
X172250000Y-130242857D01*
X172202380Y-130147619D01*
X172202380Y-129957142D01*
X172250000Y-129861904D01*
X172345238Y-129766666D01*
X172535714Y-129719047D01*
X172869047Y-129719047D01*
X173059523Y-129766666D01*
X173154761Y-129861904D01*
X173202380Y-129957142D01*
X173202380Y-130147619D01*
X173202380Y-128766666D02*
X173202380Y-129338095D01*
X173202380Y-129052380D02*
X172202380Y-129052380D01*
X172345238Y-129147619D01*
X172440476Y-129242857D01*
X172488095Y-129338095D01*
X172297619Y-128385714D02*
X172250000Y-128338095D01*
X172202380Y-128242857D01*
X172202380Y-128004761D01*
X172250000Y-127909523D01*
X172297619Y-127861904D01*
X172392857Y-127814285D01*
X172488095Y-127814285D01*
X172630952Y-127861904D01*
X173202380Y-128433333D01*
X173202380Y-127814285D01*
X129407142Y-91802380D02*
X129073809Y-91326190D01*
X128835714Y-91802380D02*
X128835714Y-90802380D01*
X129216666Y-90802380D01*
X129311904Y-90850000D01*
X129359523Y-90897619D01*
X129407142Y-90992857D01*
X129407142Y-91135714D01*
X129359523Y-91230952D01*
X129311904Y-91278571D01*
X129216666Y-91326190D01*
X128835714Y-91326190D01*
X129788095Y-90897619D02*
X129835714Y-90850000D01*
X129930952Y-90802380D01*
X130169047Y-90802380D01*
X130264285Y-90850000D01*
X130311904Y-90897619D01*
X130359523Y-90992857D01*
X130359523Y-91088095D01*
X130311904Y-91230952D01*
X129740476Y-91802380D01*
X130359523Y-91802380D01*
X130692857Y-90802380D02*
X131359523Y-90802380D01*
X130930952Y-91802380D01*
X133702380Y-116192857D02*
X133226190Y-116526190D01*
X133702380Y-116764285D02*
X132702380Y-116764285D01*
X132702380Y-116383333D01*
X132750000Y-116288095D01*
X132797619Y-116240476D01*
X132892857Y-116192857D01*
X133035714Y-116192857D01*
X133130952Y-116240476D01*
X133178571Y-116288095D01*
X133226190Y-116383333D01*
X133226190Y-116764285D01*
X132797619Y-115811904D02*
X132750000Y-115764285D01*
X132702380Y-115669047D01*
X132702380Y-115430952D01*
X132750000Y-115335714D01*
X132797619Y-115288095D01*
X132892857Y-115240476D01*
X132988095Y-115240476D01*
X133130952Y-115288095D01*
X133702380Y-115859523D01*
X133702380Y-115240476D01*
X133130952Y-114669047D02*
X133083333Y-114764285D01*
X133035714Y-114811904D01*
X132940476Y-114859523D01*
X132892857Y-114859523D01*
X132797619Y-114811904D01*
X132750000Y-114764285D01*
X132702380Y-114669047D01*
X132702380Y-114478571D01*
X132750000Y-114383333D01*
X132797619Y-114335714D01*
X132892857Y-114288095D01*
X132940476Y-114288095D01*
X133035714Y-114335714D01*
X133083333Y-114383333D01*
X133130952Y-114478571D01*
X133130952Y-114669047D01*
X133178571Y-114764285D01*
X133226190Y-114811904D01*
X133321428Y-114859523D01*
X133511904Y-114859523D01*
X133607142Y-114811904D01*
X133654761Y-114764285D01*
X133702380Y-114669047D01*
X133702380Y-114478571D01*
X133654761Y-114383333D01*
X133607142Y-114335714D01*
X133511904Y-114288095D01*
X133321428Y-114288095D01*
X133226190Y-114335714D01*
X133178571Y-114383333D01*
X133130952Y-114478571D01*
X136352380Y-108792857D02*
X135876190Y-109126190D01*
X136352380Y-109364285D02*
X135352380Y-109364285D01*
X135352380Y-108983333D01*
X135400000Y-108888095D01*
X135447619Y-108840476D01*
X135542857Y-108792857D01*
X135685714Y-108792857D01*
X135780952Y-108840476D01*
X135828571Y-108888095D01*
X135876190Y-108983333D01*
X135876190Y-109364285D01*
X135447619Y-108411904D02*
X135400000Y-108364285D01*
X135352380Y-108269047D01*
X135352380Y-108030952D01*
X135400000Y-107935714D01*
X135447619Y-107888095D01*
X135542857Y-107840476D01*
X135638095Y-107840476D01*
X135780952Y-107888095D01*
X136352380Y-108459523D01*
X136352380Y-107840476D01*
X136352380Y-107364285D02*
X136352380Y-107173809D01*
X136304761Y-107078571D01*
X136257142Y-107030952D01*
X136114285Y-106935714D01*
X135923809Y-106888095D01*
X135542857Y-106888095D01*
X135447619Y-106935714D01*
X135400000Y-106983333D01*
X135352380Y-107078571D01*
X135352380Y-107269047D01*
X135400000Y-107364285D01*
X135447619Y-107411904D01*
X135542857Y-107459523D01*
X135780952Y-107459523D01*
X135876190Y-107411904D01*
X135923809Y-107364285D01*
X135971428Y-107269047D01*
X135971428Y-107078571D01*
X135923809Y-106983333D01*
X135876190Y-106935714D01*
X135780952Y-106888095D01*
X151502380Y-116392857D02*
X151026190Y-116726190D01*
X151502380Y-116964285D02*
X150502380Y-116964285D01*
X150502380Y-116583333D01*
X150550000Y-116488095D01*
X150597619Y-116440476D01*
X150692857Y-116392857D01*
X150835714Y-116392857D01*
X150930952Y-116440476D01*
X150978571Y-116488095D01*
X151026190Y-116583333D01*
X151026190Y-116964285D01*
X150502380Y-116059523D02*
X150502380Y-115440476D01*
X150883333Y-115773809D01*
X150883333Y-115630952D01*
X150930952Y-115535714D01*
X150978571Y-115488095D01*
X151073809Y-115440476D01*
X151311904Y-115440476D01*
X151407142Y-115488095D01*
X151454761Y-115535714D01*
X151502380Y-115630952D01*
X151502380Y-115916666D01*
X151454761Y-116011904D01*
X151407142Y-116059523D01*
X150502380Y-114821428D02*
X150502380Y-114726190D01*
X150550000Y-114630952D01*
X150597619Y-114583333D01*
X150692857Y-114535714D01*
X150883333Y-114488095D01*
X151121428Y-114488095D01*
X151311904Y-114535714D01*
X151407142Y-114583333D01*
X151454761Y-114630952D01*
X151502380Y-114726190D01*
X151502380Y-114821428D01*
X151454761Y-114916666D01*
X151407142Y-114964285D01*
X151311904Y-115011904D01*
X151121428Y-115059523D01*
X150883333Y-115059523D01*
X150692857Y-115011904D01*
X150597619Y-114964285D01*
X150550000Y-114916666D01*
X150502380Y-114821428D01*
X166607142Y-98202380D02*
X166273809Y-97726190D01*
X166035714Y-98202380D02*
X166035714Y-97202380D01*
X166416666Y-97202380D01*
X166511904Y-97250000D01*
X166559523Y-97297619D01*
X166607142Y-97392857D01*
X166607142Y-97535714D01*
X166559523Y-97630952D01*
X166511904Y-97678571D01*
X166416666Y-97726190D01*
X166035714Y-97726190D01*
X166940476Y-97202380D02*
X167559523Y-97202380D01*
X167226190Y-97583333D01*
X167369047Y-97583333D01*
X167464285Y-97630952D01*
X167511904Y-97678571D01*
X167559523Y-97773809D01*
X167559523Y-98011904D01*
X167511904Y-98107142D01*
X167464285Y-98154761D01*
X167369047Y-98202380D01*
X167083333Y-98202380D01*
X166988095Y-98154761D01*
X166940476Y-98107142D01*
X168511904Y-98202380D02*
X167940476Y-98202380D01*
X168226190Y-98202380D02*
X168226190Y-97202380D01*
X168130952Y-97345238D01*
X168035714Y-97440476D01*
X167940476Y-97488095D01*
X115557142Y-78736666D02*
X115604761Y-78784285D01*
X115652380Y-78927142D01*
X115652380Y-79022380D01*
X115604761Y-79165238D01*
X115509523Y-79260476D01*
X115414285Y-79308095D01*
X115223809Y-79355714D01*
X115080952Y-79355714D01*
X114890476Y-79308095D01*
X114795238Y-79260476D01*
X114700000Y-79165238D01*
X114652380Y-79022380D01*
X114652380Y-78927142D01*
X114700000Y-78784285D01*
X114747619Y-78736666D01*
X115080952Y-78165238D02*
X115033333Y-78260476D01*
X114985714Y-78308095D01*
X114890476Y-78355714D01*
X114842857Y-78355714D01*
X114747619Y-78308095D01*
X114700000Y-78260476D01*
X114652380Y-78165238D01*
X114652380Y-77974761D01*
X114700000Y-77879523D01*
X114747619Y-77831904D01*
X114842857Y-77784285D01*
X114890476Y-77784285D01*
X114985714Y-77831904D01*
X115033333Y-77879523D01*
X115080952Y-77974761D01*
X115080952Y-78165238D01*
X115128571Y-78260476D01*
X115176190Y-78308095D01*
X115271428Y-78355714D01*
X115461904Y-78355714D01*
X115557142Y-78308095D01*
X115604761Y-78260476D01*
X115652380Y-78165238D01*
X115652380Y-77974761D01*
X115604761Y-77879523D01*
X115557142Y-77831904D01*
X115461904Y-77784285D01*
X115271428Y-77784285D01*
X115176190Y-77831904D01*
X115128571Y-77879523D01*
X115080952Y-77974761D01*
X123507142Y-76207142D02*
X123459523Y-76254761D01*
X123316666Y-76302380D01*
X123221428Y-76302380D01*
X123078571Y-76254761D01*
X122983333Y-76159523D01*
X122935714Y-76064285D01*
X122888095Y-75873809D01*
X122888095Y-75730952D01*
X122935714Y-75540476D01*
X122983333Y-75445238D01*
X123078571Y-75350000D01*
X123221428Y-75302380D01*
X123316666Y-75302380D01*
X123459523Y-75350000D01*
X123507142Y-75397619D01*
X124459523Y-76302380D02*
X123888095Y-76302380D01*
X124173809Y-76302380D02*
X124173809Y-75302380D01*
X124078571Y-75445238D01*
X123983333Y-75540476D01*
X123888095Y-75588095D01*
X125411904Y-76302380D02*
X124840476Y-76302380D01*
X125126190Y-76302380D02*
X125126190Y-75302380D01*
X125030952Y-75445238D01*
X124935714Y-75540476D01*
X124840476Y-75588095D01*
X117907142Y-80692857D02*
X117954761Y-80740476D01*
X118002380Y-80883333D01*
X118002380Y-80978571D01*
X117954761Y-81121428D01*
X117859523Y-81216666D01*
X117764285Y-81264285D01*
X117573809Y-81311904D01*
X117430952Y-81311904D01*
X117240476Y-81264285D01*
X117145238Y-81216666D01*
X117050000Y-81121428D01*
X117002380Y-80978571D01*
X117002380Y-80883333D01*
X117050000Y-80740476D01*
X117097619Y-80692857D01*
X118002380Y-79740476D02*
X118002380Y-80311904D01*
X118002380Y-80026190D02*
X117002380Y-80026190D01*
X117145238Y-80121428D01*
X117240476Y-80216666D01*
X117288095Y-80311904D01*
X117002380Y-79407142D02*
X117002380Y-78788095D01*
X117383333Y-79121428D01*
X117383333Y-78978571D01*
X117430952Y-78883333D01*
X117478571Y-78835714D01*
X117573809Y-78788095D01*
X117811904Y-78788095D01*
X117907142Y-78835714D01*
X117954761Y-78883333D01*
X118002380Y-78978571D01*
X118002380Y-79264285D01*
X117954761Y-79359523D01*
X117907142Y-79407142D01*
X126007142Y-83207142D02*
X125959523Y-83254761D01*
X125816666Y-83302380D01*
X125721428Y-83302380D01*
X125578571Y-83254761D01*
X125483333Y-83159523D01*
X125435714Y-83064285D01*
X125388095Y-82873809D01*
X125388095Y-82730952D01*
X125435714Y-82540476D01*
X125483333Y-82445238D01*
X125578571Y-82350000D01*
X125721428Y-82302380D01*
X125816666Y-82302380D01*
X125959523Y-82350000D01*
X126007142Y-82397619D01*
X126959523Y-83302380D02*
X126388095Y-83302380D01*
X126673809Y-83302380D02*
X126673809Y-82302380D01*
X126578571Y-82445238D01*
X126483333Y-82540476D01*
X126388095Y-82588095D01*
X127816666Y-82635714D02*
X127816666Y-83302380D01*
X127578571Y-82254761D02*
X127340476Y-82969047D01*
X127959523Y-82969047D01*
X128807142Y-78792857D02*
X128854761Y-78840476D01*
X128902380Y-78983333D01*
X128902380Y-79078571D01*
X128854761Y-79221428D01*
X128759523Y-79316666D01*
X128664285Y-79364285D01*
X128473809Y-79411904D01*
X128330952Y-79411904D01*
X128140476Y-79364285D01*
X128045238Y-79316666D01*
X127950000Y-79221428D01*
X127902380Y-79078571D01*
X127902380Y-78983333D01*
X127950000Y-78840476D01*
X127997619Y-78792857D01*
X128902380Y-77840476D02*
X128902380Y-78411904D01*
X128902380Y-78126190D02*
X127902380Y-78126190D01*
X128045238Y-78221428D01*
X128140476Y-78316666D01*
X128188095Y-78411904D01*
X127902380Y-76935714D02*
X127902380Y-77411904D01*
X128378571Y-77459523D01*
X128330952Y-77411904D01*
X128283333Y-77316666D01*
X128283333Y-77078571D01*
X128330952Y-76983333D01*
X128378571Y-76935714D01*
X128473809Y-76888095D01*
X128711904Y-76888095D01*
X128807142Y-76935714D01*
X128854761Y-76983333D01*
X128902380Y-77078571D01*
X128902380Y-77316666D01*
X128854761Y-77411904D01*
X128807142Y-77459523D01*
X123083333Y-84202380D02*
X122607142Y-84202380D01*
X122607142Y-83202380D01*
X123940476Y-84202380D02*
X123369047Y-84202380D01*
X123654761Y-84202380D02*
X123654761Y-83202380D01*
X123559523Y-83345238D01*
X123464285Y-83440476D01*
X123369047Y-83488095D01*
X126383333Y-78202380D02*
X126050000Y-77726190D01*
X125811904Y-78202380D02*
X125811904Y-77202380D01*
X126192857Y-77202380D01*
X126288095Y-77250000D01*
X126335714Y-77297619D01*
X126383333Y-77392857D01*
X126383333Y-77535714D01*
X126335714Y-77630952D01*
X126288095Y-77678571D01*
X126192857Y-77726190D01*
X125811904Y-77726190D01*
X126764285Y-77297619D02*
X126811904Y-77250000D01*
X126907142Y-77202380D01*
X127145238Y-77202380D01*
X127240476Y-77250000D01*
X127288095Y-77297619D01*
X127335714Y-77392857D01*
X127335714Y-77488095D01*
X127288095Y-77630952D01*
X126716666Y-78202380D01*
X127335714Y-78202380D01*
X121583333Y-76402380D02*
X121250000Y-75926190D01*
X121011904Y-76402380D02*
X121011904Y-75402380D01*
X121392857Y-75402380D01*
X121488095Y-75450000D01*
X121535714Y-75497619D01*
X121583333Y-75592857D01*
X121583333Y-75735714D01*
X121535714Y-75830952D01*
X121488095Y-75878571D01*
X121392857Y-75926190D01*
X121011904Y-75926190D01*
X121916666Y-75402380D02*
X122535714Y-75402380D01*
X122202380Y-75783333D01*
X122345238Y-75783333D01*
X122440476Y-75830952D01*
X122488095Y-75878571D01*
X122535714Y-75973809D01*
X122535714Y-76211904D01*
X122488095Y-76307142D01*
X122440476Y-76354761D01*
X122345238Y-76402380D01*
X122059523Y-76402380D01*
X121964285Y-76354761D01*
X121916666Y-76307142D01*
X118522380Y-77711904D02*
X119331904Y-77711904D01*
X119427142Y-77664285D01*
X119474761Y-77616666D01*
X119522380Y-77521428D01*
X119522380Y-77330952D01*
X119474761Y-77235714D01*
X119427142Y-77188095D01*
X119331904Y-77140476D01*
X118522380Y-77140476D01*
X118522380Y-76759523D02*
X118522380Y-76092857D01*
X119522380Y-76521428D01*
X118611904Y-84202380D02*
X118611904Y-83202380D01*
X118850000Y-83202380D01*
X118992857Y-83250000D01*
X119088095Y-83345238D01*
X119135714Y-83440476D01*
X119183333Y-83630952D01*
X119183333Y-83773809D01*
X119135714Y-83964285D01*
X119088095Y-84059523D01*
X118992857Y-84154761D01*
X118850000Y-84202380D01*
X118611904Y-84202380D01*
X120135714Y-84202380D02*
X119564285Y-84202380D01*
X119850000Y-84202380D02*
X119850000Y-83202380D01*
X119754761Y-83345238D01*
X119659523Y-83440476D01*
X119564285Y-83488095D01*
X170711904Y-84102380D02*
X170711904Y-83102380D01*
X170950000Y-83102380D01*
X171092857Y-83150000D01*
X171188095Y-83245238D01*
X171235714Y-83340476D01*
X171283333Y-83530952D01*
X171283333Y-83673809D01*
X171235714Y-83864285D01*
X171188095Y-83959523D01*
X171092857Y-84054761D01*
X170950000Y-84102380D01*
X170711904Y-84102380D01*
X171664285Y-83197619D02*
X171711904Y-83150000D01*
X171807142Y-83102380D01*
X172045238Y-83102380D01*
X172140476Y-83150000D01*
X172188095Y-83197619D01*
X172235714Y-83292857D01*
X172235714Y-83388095D01*
X172188095Y-83530952D01*
X171616666Y-84102380D01*
X172235714Y-84102380D01*
X142162380Y-115168095D02*
X141162380Y-115168095D01*
X141162380Y-114930000D01*
X141210000Y-114787142D01*
X141305238Y-114691904D01*
X141400476Y-114644285D01*
X141590952Y-114596666D01*
X141733809Y-114596666D01*
X141924285Y-114644285D01*
X142019523Y-114691904D01*
X142114761Y-114787142D01*
X142162380Y-114930000D01*
X142162380Y-115168095D01*
X141162380Y-114263333D02*
X141162380Y-113644285D01*
X141543333Y-113977619D01*
X141543333Y-113834761D01*
X141590952Y-113739523D01*
X141638571Y-113691904D01*
X141733809Y-113644285D01*
X141971904Y-113644285D01*
X142067142Y-113691904D01*
X142114761Y-113739523D01*
X142162380Y-113834761D01*
X142162380Y-114120476D01*
X142114761Y-114215714D01*
X142067142Y-114263333D01*
X160152380Y-115528095D02*
X159152380Y-115528095D01*
X159152380Y-115290000D01*
X159200000Y-115147142D01*
X159295238Y-115051904D01*
X159390476Y-115004285D01*
X159580952Y-114956666D01*
X159723809Y-114956666D01*
X159914285Y-115004285D01*
X160009523Y-115051904D01*
X160104761Y-115147142D01*
X160152380Y-115290000D01*
X160152380Y-115528095D01*
X159580952Y-114385238D02*
X159533333Y-114480476D01*
X159485714Y-114528095D01*
X159390476Y-114575714D01*
X159342857Y-114575714D01*
X159247619Y-114528095D01*
X159200000Y-114480476D01*
X159152380Y-114385238D01*
X159152380Y-114194761D01*
X159200000Y-114099523D01*
X159247619Y-114051904D01*
X159342857Y-114004285D01*
X159390476Y-114004285D01*
X159485714Y-114051904D01*
X159533333Y-114099523D01*
X159580952Y-114194761D01*
X159580952Y-114385238D01*
X159628571Y-114480476D01*
X159676190Y-114528095D01*
X159771428Y-114575714D01*
X159961904Y-114575714D01*
X160057142Y-114528095D01*
X160104761Y-114480476D01*
X160152380Y-114385238D01*
X160152380Y-114194761D01*
X160104761Y-114099523D01*
X160057142Y-114051904D01*
X159961904Y-114004285D01*
X159771428Y-114004285D01*
X159676190Y-114051904D01*
X159628571Y-114099523D01*
X159580952Y-114194761D01*
X159031904Y-106152380D02*
X159031904Y-105152380D01*
X159270000Y-105152380D01*
X159412857Y-105200000D01*
X159508095Y-105295238D01*
X159555714Y-105390476D01*
X159603333Y-105580952D01*
X159603333Y-105723809D01*
X159555714Y-105914285D01*
X159508095Y-106009523D01*
X159412857Y-106104761D01*
X159270000Y-106152380D01*
X159031904Y-106152380D01*
X160079523Y-106152380D02*
X160270000Y-106152380D01*
X160365238Y-106104761D01*
X160412857Y-106057142D01*
X160508095Y-105914285D01*
X160555714Y-105723809D01*
X160555714Y-105342857D01*
X160508095Y-105247619D01*
X160460476Y-105200000D01*
X160365238Y-105152380D01*
X160174761Y-105152380D01*
X160079523Y-105200000D01*
X160031904Y-105247619D01*
X159984285Y-105342857D01*
X159984285Y-105580952D01*
X160031904Y-105676190D01*
X160079523Y-105723809D01*
X160174761Y-105771428D01*
X160365238Y-105771428D01*
X160460476Y-105723809D01*
X160508095Y-105676190D01*
X160555714Y-105580952D01*
X174852380Y-124083333D02*
X175566666Y-124083333D01*
X175709523Y-124130952D01*
X175804761Y-124226190D01*
X175852380Y-124369047D01*
X175852380Y-124464285D01*
X175852380Y-123559523D02*
X175852380Y-123369047D01*
X175804761Y-123273809D01*
X175757142Y-123226190D01*
X175614285Y-123130952D01*
X175423809Y-123083333D01*
X175042857Y-123083333D01*
X174947619Y-123130952D01*
X174900000Y-123178571D01*
X174852380Y-123273809D01*
X174852380Y-123464285D01*
X174900000Y-123559523D01*
X174947619Y-123607142D01*
X175042857Y-123654761D01*
X175280952Y-123654761D01*
X175376190Y-123607142D01*
X175423809Y-123559523D01*
X175471428Y-123464285D01*
X175471428Y-123273809D01*
X175423809Y-123178571D01*
X175376190Y-123130952D01*
X175280952Y-123083333D01*
M02*
