M48
; DRILL file {KiCad (5.1.7-0-10_14)} date Wednesday, April 07, 2021 at 11:26:45 AM
; FORMAT={-:-/ absolute / metric / decimal}
; #@! TF.CreationDate,2021-04-07T11:26:45+10:00
; #@! TF.GenerationSoftware,Kicad,Pcbnew,(5.1.7-0-10_14)
; #@! TF.FileFunction,Plated,1,4,PTH
FMAT,2
METRIC
T1C0.400
T2C0.500
T3C0.600
T4C0.700
T5C1.000
T6C2.700
T7C3.200
%
G90
G05
T1
X108.57Y-82.0
X109.4Y-117.4
X109.4Y-118.4
X109.4Y-119.4
X109.4Y-120.4
X109.4Y-121.4
X109.4Y-122.4
X110.4Y-117.4
X110.4Y-119.4
X110.4Y-120.4
X110.4Y-122.4
X111.4Y-117.4
X111.4Y-118.4
X111.4Y-119.4
X111.4Y-120.4
X111.4Y-121.4
X111.4Y-122.4
X112.05Y-86.75
X112.05Y-94.75
X112.05Y-103.55
X112.05Y-110.55
X112.4Y-117.4
X112.4Y-119.4
X112.4Y-120.4
X112.4Y-122.4
X113.05Y-124.15
X113.4Y-117.4
X113.4Y-118.4
X113.4Y-119.4
X113.4Y-120.4
X113.4Y-121.4
X113.4Y-122.4
X114.05Y-128.15
X114.75Y-105.5
X114.85Y-102.45
X114.95Y-107.95
X114.95Y-110.7
X115.1Y-113.7
X115.53Y-82.58
X115.9Y-79.96
X115.91Y-81.1
X116.05Y-78.25
X116.22Y-89.04
X116.25Y-106.85
X116.32Y-117.03
X116.59Y-84.48
X116.65Y-115.6
X116.95Y-101.0
X117.12Y-83.3
X117.24Y-79.96
X117.24Y-81.1
X117.25Y-118.75
X117.8Y-107.9
X118.3Y-114.3
X118.8Y-84.3
X118.91Y-81.55
X118.98Y-79.65
X119.6Y-101.35
X119.65Y-106.55
X119.9Y-115.7
X120.08Y-82.52
X120.8Y-114.55
X120.81Y-79.29
X120.85Y-110.15
X120.86Y-88.94
X120.91Y-80.53
X121.08Y-86.68
X121.1Y-111.8
X121.13Y-84.18
X121.5Y-113.45
X121.6Y-81.91
X121.85Y-77.15
X122.15Y-101.15
X122.15Y-102.65
X122.15Y-104.15
X122.15Y-105.65
X122.35Y-85.25
X122.77Y-80.12
X122.8Y-113.5
X123.061Y-117.714
X123.15Y-93.15
X123.15Y-99.65
X123.216Y-112.29
X123.25Y-82.15
X123.25Y-83.2
X123.275Y-87.35
X123.275Y-88.35
X123.4Y-90.75
X123.65Y-101.15
X123.65Y-102.65
X123.65Y-104.15
X123.65Y-105.65
X124.0Y-82.7
X124.0Y-85.25
X124.025Y-87.85
X124.55Y-77.3
X124.65Y-93.65
X124.65Y-95.15
X124.65Y-96.77
X124.65Y-98.15
X124.65Y-99.65
X124.75Y-82.2
X124.75Y-83.2
X124.775Y-87.35
X124.775Y-88.35
X125.15Y-101.15
X125.15Y-102.65
X125.15Y-104.15
X125.15Y-105.65
X125.25Y-116.5
X125.25Y-117.55
X125.3Y-113.71
X125.55Y-92.25
X125.65Y-107.15
X125.7Y-85.25
X125.9Y-94.5
X126.037Y-108.875
X126.08Y-112.18
X126.15Y-120.45
X126.35Y-116.45
X126.65Y-101.15
X126.65Y-102.65
X126.65Y-104.15
X126.65Y-105.65
X126.65Y-113.89
X126.689Y-107.15
X127.05Y-119.05
X127.18Y-109.71
X127.35Y-84.8
X127.35Y-86.55
X127.35Y-90.4
X127.55Y-88.4
X128.07Y-99.08
X128.35Y-110.84
X128.36Y-109.62
X128.39Y-108.65
X128.65Y-115.7
X128.65Y-117.15
X128.65Y-118.65
X128.65Y-120.65
X128.8Y-104.82
X128.86Y-106.91
X128.95Y-93.25
X129.25Y-101.15
X129.25Y-102.35
X130.05Y-103.47
X130.15Y-114.15
X130.15Y-115.65
X130.15Y-117.15
X130.15Y-118.65
X130.38Y-101.4
X130.45Y-122.75
X130.55Y-112.95
X130.65Y-82.4
X130.8Y-120.8
X130.82Y-104.49
X131.05Y-90.15
X131.05Y-102.35
X131.25Y-96.35
X131.25Y-97.59
X131.332Y-83.509
X131.41Y-94.77
X131.51Y-101.42
X131.65Y-114.15
X131.65Y-115.65
X131.65Y-117.15
X131.65Y-118.65
X131.76Y-103.54
X132.65Y-102.35
X132.85Y-101.15
X132.99Y-104.82
X133.0Y-103.45
X133.15Y-114.15
X133.15Y-115.65
X133.15Y-117.15
X133.15Y-118.65
X133.19Y-105.99
X133.78Y-104.12
X133.94Y-102.32
X134.55Y-104.8
X134.58Y-103.45
X134.8Y-105.89
X134.85Y-93.55
X134.961Y-94.929
X135.15Y-114.65
X135.16Y-96.331
X135.45Y-104.18
X135.95Y-98.15
X136.25Y-84.35
X136.45Y-92.35
X136.45Y-96.296
X136.479Y-107.516
X136.775Y-111.175
X137.35Y-103.47
X137.36Y-104.76
X137.52Y-113.978
X138.05Y-104.14
X138.18Y-108.23
X138.78Y-103.46
X138.79Y-104.75
X138.85Y-87.95
X138.85Y-89.15
X138.85Y-90.35
X138.85Y-91.55
X139.45Y-112.529
X139.6Y-109.93
X140.05Y-87.95
X140.05Y-89.15
X140.05Y-90.35
X140.05Y-91.55
X140.94Y-109.38
X141.25Y-87.95
X141.25Y-89.15
X141.25Y-90.35
X141.25Y-91.55
X141.29Y-102.68
X141.45Y-107.15
X141.69Y-110.87
X142.45Y-87.95
X142.45Y-89.15
X142.45Y-90.35
X142.45Y-91.55
X143.07Y-109.49
X143.8Y-120.7
X143.88Y-111.07
X144.6Y-119.45
X144.85Y-107.15
X144.92Y-109.38
X145.84Y-111.01
X146.05Y-84.15
X146.05Y-89.15
X146.07Y-98.24
X146.41Y-109.09
X146.41Y-110.09
X146.65Y-114.15
X146.65Y-115.65
X146.65Y-117.15
X146.65Y-118.65
X147.25Y-120.7
X147.61Y-112.629
X148.12Y-109.01
X148.15Y-114.15
X148.15Y-115.65
X148.15Y-117.15
X148.15Y-118.65
X148.45Y-95.195
X148.5Y-122.25
X149.01Y-103.192
X149.25Y-100.75
X149.65Y-114.15
X149.65Y-115.65
X149.65Y-117.15
X149.65Y-118.65
X149.9Y-120.75
X150.45Y-107.15
X151.15Y-114.15
X151.15Y-115.65
X151.15Y-117.15
X151.15Y-118.65
X151.65Y-86.15
X152.0Y-90.825
X152.05Y-83.35
X152.45Y-82.35
X152.85Y-107.15
X153.1Y-114.25
X153.246Y-88.362
X153.6Y-90.825
X153.725Y-96.55
X154.45Y-85.75
X154.45Y-99.394
X154.65Y-95.75
X155.75Y-91.2
X155.8Y-111.75
X155.91Y-110.19
X156.12Y-95.81
X156.45Y-100.35
X156.59Y-114.199
X156.713Y-105.532
X157.475Y-89.1
X157.65Y-85.55
X157.7Y-110.06
X157.9Y-111.69
X158.05Y-100.35
X158.39Y-113.79
X158.6Y-109.2
X159.05Y-86.15
X159.05Y-107.15
X159.33Y-111.79
X159.96Y-110.36
X160.12Y-108.47
X160.39Y-105.81
X161.067Y-102.683
X161.125Y-87.85
X161.25Y-120.9
X161.525Y-89.3
X161.55Y-111.26
X161.59Y-109.37
X161.65Y-104.95
X161.85Y-114.15
X161.85Y-115.65
X161.85Y-117.15
X161.85Y-118.65
X162.15Y-108.14
X162.309Y-106.406
X162.65Y-110.12
X162.9Y-80.375
X163.35Y-114.15
X163.35Y-115.65
X163.35Y-117.15
X163.35Y-118.65
X163.65Y-83.975
X164.175Y-103.15
X164.5Y-86.1
X164.85Y-114.15
X164.85Y-115.65
X164.85Y-117.15
X164.85Y-118.65
X166.0Y-123.4
X166.05Y-121.05
X166.35Y-114.15
X166.35Y-115.65
X166.35Y-117.15
X166.35Y-118.65
X167.433Y-108.15
X168.25Y-86.15
X168.6Y-114.4
X169.85Y-84.75
X170.725Y-104.392
X171.65Y-112.15
X172.15Y-109.65
X172.25Y-106.95
X172.25Y-108.35
X172.4Y-114.65
X172.65Y-124.45
X174.25Y-83.404
T2
X108.75Y-130.85
X109.453Y-129.153
X109.453Y-132.547
X111.15Y-128.45
X111.15Y-133.25
X112.847Y-129.153
X112.847Y-132.547
X113.55Y-130.85
X169.55Y-78.55
X170.253Y-76.853
X170.253Y-80.247
X171.95Y-76.15
X171.95Y-80.95
X173.647Y-76.853
X173.647Y-80.247
X174.35Y-78.55
X108.75Y-78.65
X109.453Y-76.953
X109.453Y-80.347
X111.15Y-76.25
X111.15Y-81.05
X112.847Y-76.953
X112.847Y-80.347
X113.55Y-78.65
X169.55Y-130.85
X170.253Y-129.153
X170.253Y-132.547
X171.95Y-128.45
X171.95Y-133.25
X173.647Y-129.153
X173.647Y-132.547
X174.35Y-130.85
T4
X171.05Y-113.5
X171.05Y-118.3
T5
X161.775Y-77.625
X164.275Y-77.625
X161.05Y-92.45
X161.05Y-94.99
X161.05Y-97.53
X161.05Y-100.07
T6
X118.15Y-104.05
X118.15Y-111.25
X118.15Y-87.05
X118.15Y-94.25
X165.65Y-91.55
X165.65Y-98.75
X156.05Y-123.15
X163.25Y-123.15
X120.05Y-123.15
X127.25Y-123.15
X138.05Y-123.15
X145.25Y-123.15
T7
X111.15Y-130.85
X171.95Y-78.55
X111.15Y-78.65
X171.95Y-130.85
T2
G00X173.55Y-119.5
M15
G01X174.35Y-119.5
M16
G05
G00X173.65Y-112.3
M15
G01X174.45Y-112.3
M16
G05
T3
G00X134.9Y-128.6
M15
G01X134.9Y-129.7
M16
G05
G00X148.4Y-128.6
M15
G01X148.4Y-129.7
M16
G05
G00X111.6Y-100.9
M15
G01X112.7Y-100.9
M16
G05
G00X111.6Y-114.4
M15
G01X112.7Y-114.4
M16
G05
G00X111.6Y-83.9
M15
G01X112.7Y-83.9
M16
G05
G00X111.6Y-97.4
M15
G01X112.7Y-97.4
M16
G05
G00X172.2Y-88.4
M15
G01X171.1Y-88.4
M16
G05
G00X172.2Y-101.9
M15
G01X171.1Y-101.9
M16
G05
G00X152.9Y-128.6
M15
G01X152.9Y-129.7
M16
G05
G00X166.4Y-128.6
M15
G01X166.4Y-129.7
M16
G05
G00X116.9Y-128.6
M15
G01X116.9Y-129.7
M16
G05
G00X130.4Y-128.6
M15
G01X130.4Y-129.7
M16
G05
T0
M30
