G04 #@! TF.GenerationSoftware,KiCad,Pcbnew,(5.1.5-0-10_14)*
G04 #@! TF.CreationDate,2020-08-11T13:59:42+10:00*
G04 #@! TF.ProjectId,esp32_battery_isolator,65737033-325f-4626-9174-746572795f69,rev?*
G04 #@! TF.SameCoordinates,Original*
G04 #@! TF.FileFunction,Legend,Top*
G04 #@! TF.FilePolarity,Positive*
%FSLAX46Y46*%
G04 Gerber Fmt 4.6, Leading zero omitted, Abs format (unit mm)*
G04 Created by KiCad (PCBNEW (5.1.5-0-10_14)) date 2020-08-11 13:59:42*
%MOMM*%
%LPD*%
G04 APERTURE LIST*
%ADD10C,0.150000*%
%ADD11C,0.250000*%
%ADD12C,0.300000*%
%ADD13C,0.120000*%
G04 APERTURE END LIST*
D10*
X162342857Y-95728571D02*
X162485714Y-95776190D01*
X162533333Y-95823809D01*
X162580952Y-95919047D01*
X162580952Y-96061904D01*
X162533333Y-96157142D01*
X162485714Y-96204761D01*
X162390476Y-96252380D01*
X162009523Y-96252380D01*
X162009523Y-95252380D01*
X162342857Y-95252380D01*
X162438095Y-95300000D01*
X162485714Y-95347619D01*
X162533333Y-95442857D01*
X162533333Y-95538095D01*
X162485714Y-95633333D01*
X162438095Y-95680952D01*
X162342857Y-95728571D01*
X162009523Y-95728571D01*
X163200000Y-95252380D02*
X163390476Y-95252380D01*
X163485714Y-95300000D01*
X163580952Y-95395238D01*
X163628571Y-95585714D01*
X163628571Y-95919047D01*
X163580952Y-96109523D01*
X163485714Y-96204761D01*
X163390476Y-96252380D01*
X163200000Y-96252380D01*
X163104761Y-96204761D01*
X163009523Y-96109523D01*
X162961904Y-95919047D01*
X162961904Y-95585714D01*
X163009523Y-95395238D01*
X163104761Y-95300000D01*
X163200000Y-95252380D01*
X164247619Y-95252380D02*
X164438095Y-95252380D01*
X164533333Y-95300000D01*
X164628571Y-95395238D01*
X164676190Y-95585714D01*
X164676190Y-95919047D01*
X164628571Y-96109523D01*
X164533333Y-96204761D01*
X164438095Y-96252380D01*
X164247619Y-96252380D01*
X164152380Y-96204761D01*
X164057142Y-96109523D01*
X164009523Y-95919047D01*
X164009523Y-95585714D01*
X164057142Y-95395238D01*
X164152380Y-95300000D01*
X164247619Y-95252380D01*
X164961904Y-95252380D02*
X165533333Y-95252380D01*
X165247619Y-96252380D02*
X165247619Y-95252380D01*
X141004761Y-137226190D02*
X141052380Y-137083333D01*
X141052380Y-136845238D01*
X141004761Y-136750000D01*
X140957142Y-136702380D01*
X140861904Y-136654761D01*
X140766666Y-136654761D01*
X140671428Y-136702380D01*
X140623809Y-136750000D01*
X140576190Y-136845238D01*
X140528571Y-137035714D01*
X140480952Y-137130952D01*
X140433333Y-137178571D01*
X140338095Y-137226190D01*
X140242857Y-137226190D01*
X140147619Y-137178571D01*
X140100000Y-137130952D01*
X140052380Y-137035714D01*
X140052380Y-136797619D01*
X140100000Y-136654761D01*
X140052380Y-136369047D02*
X140052380Y-135797619D01*
X141052380Y-136083333D02*
X140052380Y-136083333D01*
X140766666Y-135511904D02*
X140766666Y-135035714D01*
X141052380Y-135607142D02*
X140052380Y-135273809D01*
X141052380Y-134940476D01*
X140052380Y-134750000D02*
X140052380Y-134178571D01*
X141052380Y-134464285D02*
X140052380Y-134464285D01*
X140052380Y-133845238D02*
X140861904Y-133845238D01*
X140957142Y-133797619D01*
X141004761Y-133750000D01*
X141052380Y-133654761D01*
X141052380Y-133464285D01*
X141004761Y-133369047D01*
X140957142Y-133321428D01*
X140861904Y-133273809D01*
X140052380Y-133273809D01*
X141004761Y-132845238D02*
X141052380Y-132702380D01*
X141052380Y-132464285D01*
X141004761Y-132369047D01*
X140957142Y-132321428D01*
X140861904Y-132273809D01*
X140766666Y-132273809D01*
X140671428Y-132321428D01*
X140623809Y-132369047D01*
X140576190Y-132464285D01*
X140528571Y-132654761D01*
X140480952Y-132750000D01*
X140433333Y-132797619D01*
X140338095Y-132845238D01*
X140242857Y-132845238D01*
X140147619Y-132797619D01*
X140100000Y-132750000D01*
X140052380Y-132654761D01*
X140052380Y-132416666D01*
X140100000Y-132273809D01*
X123704761Y-137226190D02*
X123752380Y-137083333D01*
X123752380Y-136845238D01*
X123704761Y-136750000D01*
X123657142Y-136702380D01*
X123561904Y-136654761D01*
X123466666Y-136654761D01*
X123371428Y-136702380D01*
X123323809Y-136750000D01*
X123276190Y-136845238D01*
X123228571Y-137035714D01*
X123180952Y-137130952D01*
X123133333Y-137178571D01*
X123038095Y-137226190D01*
X122942857Y-137226190D01*
X122847619Y-137178571D01*
X122800000Y-137130952D01*
X122752380Y-137035714D01*
X122752380Y-136797619D01*
X122800000Y-136654761D01*
X122752380Y-136369047D02*
X122752380Y-135797619D01*
X123752380Y-136083333D02*
X122752380Y-136083333D01*
X123466666Y-135511904D02*
X123466666Y-135035714D01*
X123752380Y-135607142D02*
X122752380Y-135273809D01*
X123752380Y-134940476D01*
X122752380Y-134750000D02*
X122752380Y-134178571D01*
X123752380Y-134464285D02*
X122752380Y-134464285D01*
X122752380Y-133845238D02*
X123561904Y-133845238D01*
X123657142Y-133797619D01*
X123704761Y-133750000D01*
X123752380Y-133654761D01*
X123752380Y-133464285D01*
X123704761Y-133369047D01*
X123657142Y-133321428D01*
X123561904Y-133273809D01*
X122752380Y-133273809D01*
X123704761Y-132845238D02*
X123752380Y-132702380D01*
X123752380Y-132464285D01*
X123704761Y-132369047D01*
X123657142Y-132321428D01*
X123561904Y-132273809D01*
X123466666Y-132273809D01*
X123371428Y-132321428D01*
X123323809Y-132369047D01*
X123276190Y-132464285D01*
X123228571Y-132654761D01*
X123180952Y-132750000D01*
X123133333Y-132797619D01*
X123038095Y-132845238D01*
X122942857Y-132845238D01*
X122847619Y-132797619D01*
X122800000Y-132750000D01*
X122752380Y-132654761D01*
X122752380Y-132416666D01*
X122800000Y-132273809D01*
X116604761Y-137226190D02*
X116652380Y-137083333D01*
X116652380Y-136845238D01*
X116604761Y-136750000D01*
X116557142Y-136702380D01*
X116461904Y-136654761D01*
X116366666Y-136654761D01*
X116271428Y-136702380D01*
X116223809Y-136750000D01*
X116176190Y-136845238D01*
X116128571Y-137035714D01*
X116080952Y-137130952D01*
X116033333Y-137178571D01*
X115938095Y-137226190D01*
X115842857Y-137226190D01*
X115747619Y-137178571D01*
X115700000Y-137130952D01*
X115652380Y-137035714D01*
X115652380Y-136797619D01*
X115700000Y-136654761D01*
X115652380Y-136369047D02*
X115652380Y-135797619D01*
X116652380Y-136083333D02*
X115652380Y-136083333D01*
X116366666Y-135511904D02*
X116366666Y-135035714D01*
X116652380Y-135607142D02*
X115652380Y-135273809D01*
X116652380Y-134940476D01*
X115652380Y-134750000D02*
X115652380Y-134178571D01*
X116652380Y-134464285D02*
X115652380Y-134464285D01*
X115652380Y-133845238D02*
X116461904Y-133845238D01*
X116557142Y-133797619D01*
X116604761Y-133750000D01*
X116652380Y-133654761D01*
X116652380Y-133464285D01*
X116604761Y-133369047D01*
X116557142Y-133321428D01*
X116461904Y-133273809D01*
X115652380Y-133273809D01*
X116604761Y-132845238D02*
X116652380Y-132702380D01*
X116652380Y-132464285D01*
X116604761Y-132369047D01*
X116557142Y-132321428D01*
X116461904Y-132273809D01*
X116366666Y-132273809D01*
X116271428Y-132321428D01*
X116223809Y-132369047D01*
X116176190Y-132464285D01*
X116128571Y-132654761D01*
X116080952Y-132750000D01*
X116033333Y-132797619D01*
X115938095Y-132845238D01*
X115842857Y-132845238D01*
X115747619Y-132797619D01*
X115700000Y-132750000D01*
X115652380Y-132654761D01*
X115652380Y-132416666D01*
X115700000Y-132273809D01*
X179238095Y-86100000D02*
X179142857Y-86052380D01*
X179000000Y-86052380D01*
X178857142Y-86100000D01*
X178761904Y-86195238D01*
X178714285Y-86290476D01*
X178666666Y-86480952D01*
X178666666Y-86623809D01*
X178714285Y-86814285D01*
X178761904Y-86909523D01*
X178857142Y-87004761D01*
X179000000Y-87052380D01*
X179095238Y-87052380D01*
X179238095Y-87004761D01*
X179285714Y-86957142D01*
X179285714Y-86623809D01*
X179095238Y-86623809D01*
X179714285Y-87052380D02*
X179714285Y-86052380D01*
X180285714Y-87052380D01*
X180285714Y-86052380D01*
X180761904Y-87052380D02*
X180761904Y-86052380D01*
X181000000Y-86052380D01*
X181142857Y-86100000D01*
X181238095Y-86195238D01*
X181285714Y-86290476D01*
X181333333Y-86480952D01*
X181333333Y-86623809D01*
X181285714Y-86814285D01*
X181238095Y-86909523D01*
X181142857Y-87004761D01*
X181000000Y-87052380D01*
X180761904Y-87052380D01*
X178685714Y-84604761D02*
X178828571Y-84652380D01*
X179066666Y-84652380D01*
X179161904Y-84604761D01*
X179209523Y-84557142D01*
X179257142Y-84461904D01*
X179257142Y-84366666D01*
X179209523Y-84271428D01*
X179161904Y-84223809D01*
X179066666Y-84176190D01*
X178876190Y-84128571D01*
X178780952Y-84080952D01*
X178733333Y-84033333D01*
X178685714Y-83938095D01*
X178685714Y-83842857D01*
X178733333Y-83747619D01*
X178780952Y-83700000D01*
X178876190Y-83652380D01*
X179114285Y-83652380D01*
X179257142Y-83700000D01*
X179685714Y-84652380D02*
X179685714Y-83652380D01*
X179923809Y-83652380D01*
X180066666Y-83700000D01*
X180161904Y-83795238D01*
X180209523Y-83890476D01*
X180257142Y-84080952D01*
X180257142Y-84223809D01*
X180209523Y-84414285D01*
X180161904Y-84509523D01*
X180066666Y-84604761D01*
X179923809Y-84652380D01*
X179685714Y-84652380D01*
X180638095Y-84366666D02*
X181114285Y-84366666D01*
X180542857Y-84652380D02*
X180876190Y-83652380D01*
X181209523Y-84652380D01*
X178709523Y-82004761D02*
X178852380Y-82052380D01*
X179090476Y-82052380D01*
X179185714Y-82004761D01*
X179233333Y-81957142D01*
X179280952Y-81861904D01*
X179280952Y-81766666D01*
X179233333Y-81671428D01*
X179185714Y-81623809D01*
X179090476Y-81576190D01*
X178900000Y-81528571D01*
X178804761Y-81480952D01*
X178757142Y-81433333D01*
X178709523Y-81338095D01*
X178709523Y-81242857D01*
X178757142Y-81147619D01*
X178804761Y-81100000D01*
X178900000Y-81052380D01*
X179138095Y-81052380D01*
X179280952Y-81100000D01*
X180280952Y-81957142D02*
X180233333Y-82004761D01*
X180090476Y-82052380D01*
X179995238Y-82052380D01*
X179852380Y-82004761D01*
X179757142Y-81909523D01*
X179709523Y-81814285D01*
X179661904Y-81623809D01*
X179661904Y-81480952D01*
X179709523Y-81290476D01*
X179757142Y-81195238D01*
X179852380Y-81100000D01*
X179995238Y-81052380D01*
X180090476Y-81052380D01*
X180233333Y-81100000D01*
X180280952Y-81147619D01*
X181185714Y-82052380D02*
X180709523Y-82052380D01*
X180709523Y-81052380D01*
X178809523Y-78552380D02*
X179428571Y-78552380D01*
X179095238Y-78933333D01*
X179238095Y-78933333D01*
X179333333Y-78980952D01*
X179380952Y-79028571D01*
X179428571Y-79123809D01*
X179428571Y-79361904D01*
X179380952Y-79457142D01*
X179333333Y-79504761D01*
X179238095Y-79552380D01*
X178952380Y-79552380D01*
X178857142Y-79504761D01*
X178809523Y-79457142D01*
X179761904Y-78885714D02*
X180000000Y-79552380D01*
X180238095Y-78885714D01*
X180523809Y-78552380D02*
X181142857Y-78552380D01*
X180809523Y-78933333D01*
X180952380Y-78933333D01*
X181047619Y-78980952D01*
X181095238Y-79028571D01*
X181142857Y-79123809D01*
X181142857Y-79361904D01*
X181095238Y-79457142D01*
X181047619Y-79504761D01*
X180952380Y-79552380D01*
X180666666Y-79552380D01*
X180571428Y-79504761D01*
X180523809Y-79457142D01*
X172209523Y-78652380D02*
X172828571Y-78652380D01*
X172495238Y-79033333D01*
X172638095Y-79033333D01*
X172733333Y-79080952D01*
X172780952Y-79128571D01*
X172828571Y-79223809D01*
X172828571Y-79461904D01*
X172780952Y-79557142D01*
X172733333Y-79604761D01*
X172638095Y-79652380D01*
X172352380Y-79652380D01*
X172257142Y-79604761D01*
X172209523Y-79557142D01*
X173161904Y-78985714D02*
X173400000Y-79652380D01*
X173638095Y-78985714D01*
X173923809Y-78652380D02*
X174542857Y-78652380D01*
X174209523Y-79033333D01*
X174352380Y-79033333D01*
X174447619Y-79080952D01*
X174495238Y-79128571D01*
X174542857Y-79223809D01*
X174542857Y-79461904D01*
X174495238Y-79557142D01*
X174447619Y-79604761D01*
X174352380Y-79652380D01*
X174066666Y-79652380D01*
X173971428Y-79604761D01*
X173923809Y-79557142D01*
X172238095Y-83852380D02*
X172809523Y-83852380D01*
X172523809Y-84852380D02*
X172523809Y-83852380D01*
X173047619Y-83852380D02*
X173714285Y-84852380D01*
X173714285Y-83852380D02*
X173047619Y-84852380D01*
X174095238Y-84852380D02*
X174095238Y-83852380D01*
X174333333Y-83852380D01*
X174476190Y-83900000D01*
X174571428Y-83995238D01*
X174619047Y-84090476D01*
X174666666Y-84280952D01*
X174666666Y-84423809D01*
X174619047Y-84614285D01*
X174571428Y-84709523D01*
X174476190Y-84804761D01*
X174333333Y-84852380D01*
X174095238Y-84852380D01*
X172833333Y-87052380D02*
X172500000Y-86576190D01*
X172261904Y-87052380D02*
X172261904Y-86052380D01*
X172642857Y-86052380D01*
X172738095Y-86100000D01*
X172785714Y-86147619D01*
X172833333Y-86242857D01*
X172833333Y-86385714D01*
X172785714Y-86480952D01*
X172738095Y-86528571D01*
X172642857Y-86576190D01*
X172261904Y-86576190D01*
X173166666Y-86052380D02*
X173833333Y-87052380D01*
X173833333Y-86052380D02*
X173166666Y-87052380D01*
X174214285Y-87052380D02*
X174214285Y-86052380D01*
X174452380Y-86052380D01*
X174595238Y-86100000D01*
X174690476Y-86195238D01*
X174738095Y-86290476D01*
X174785714Y-86480952D01*
X174785714Y-86623809D01*
X174738095Y-86814285D01*
X174690476Y-86909523D01*
X174595238Y-87004761D01*
X174452380Y-87052380D01*
X174214285Y-87052380D01*
X172738095Y-88700000D02*
X172642857Y-88652380D01*
X172500000Y-88652380D01*
X172357142Y-88700000D01*
X172261904Y-88795238D01*
X172214285Y-88890476D01*
X172166666Y-89080952D01*
X172166666Y-89223809D01*
X172214285Y-89414285D01*
X172261904Y-89509523D01*
X172357142Y-89604761D01*
X172500000Y-89652380D01*
X172595238Y-89652380D01*
X172738095Y-89604761D01*
X172785714Y-89557142D01*
X172785714Y-89223809D01*
X172595238Y-89223809D01*
X173214285Y-89652380D02*
X173214285Y-88652380D01*
X173785714Y-89652380D01*
X173785714Y-88652380D01*
X174261904Y-89652380D02*
X174261904Y-88652380D01*
X174500000Y-88652380D01*
X174642857Y-88700000D01*
X174738095Y-88795238D01*
X174785714Y-88890476D01*
X174833333Y-89080952D01*
X174833333Y-89223809D01*
X174785714Y-89414285D01*
X174738095Y-89509523D01*
X174642857Y-89604761D01*
X174500000Y-89652380D01*
X174261904Y-89652380D01*
X168504761Y-75752380D02*
X168504761Y-76561904D01*
X168552380Y-76657142D01*
X168600000Y-76704761D01*
X168695238Y-76752380D01*
X168885714Y-76752380D01*
X168980952Y-76704761D01*
X169028571Y-76657142D01*
X169076190Y-76561904D01*
X169076190Y-75752380D01*
X169504761Y-76466666D02*
X169980952Y-76466666D01*
X169409523Y-76752380D02*
X169742857Y-75752380D01*
X170076190Y-76752380D01*
X170980952Y-76752380D02*
X170647619Y-76276190D01*
X170409523Y-76752380D02*
X170409523Y-75752380D01*
X170790476Y-75752380D01*
X170885714Y-75800000D01*
X170933333Y-75847619D01*
X170980952Y-75942857D01*
X170980952Y-76085714D01*
X170933333Y-76180952D01*
X170885714Y-76228571D01*
X170790476Y-76276190D01*
X170409523Y-76276190D01*
X171266666Y-75752380D02*
X171838095Y-75752380D01*
X171552380Y-76752380D02*
X171552380Y-75752380D01*
X175723809Y-76652380D02*
X175723809Y-75652380D01*
X176152380Y-75747619D02*
X176200000Y-75700000D01*
X176295238Y-75652380D01*
X176533333Y-75652380D01*
X176628571Y-75700000D01*
X176676190Y-75747619D01*
X176723809Y-75842857D01*
X176723809Y-75938095D01*
X176676190Y-76080952D01*
X176104761Y-76652380D01*
X176723809Y-76652380D01*
X177723809Y-76557142D02*
X177676190Y-76604761D01*
X177533333Y-76652380D01*
X177438095Y-76652380D01*
X177295238Y-76604761D01*
X177200000Y-76509523D01*
X177152380Y-76414285D01*
X177104761Y-76223809D01*
X177104761Y-76080952D01*
X177152380Y-75890476D01*
X177200000Y-75795238D01*
X177295238Y-75700000D01*
X177438095Y-75652380D01*
X177533333Y-75652380D01*
X177676190Y-75700000D01*
X177723809Y-75747619D01*
D11*
X158342857Y-136189285D02*
X158514285Y-136246428D01*
X158571428Y-136303571D01*
X158628571Y-136417857D01*
X158628571Y-136589285D01*
X158571428Y-136703571D01*
X158514285Y-136760714D01*
X158400000Y-136817857D01*
X157942857Y-136817857D01*
X157942857Y-135617857D01*
X158342857Y-135617857D01*
X158457142Y-135675000D01*
X158514285Y-135732142D01*
X158571428Y-135846428D01*
X158571428Y-135960714D01*
X158514285Y-136075000D01*
X158457142Y-136132142D01*
X158342857Y-136189285D01*
X157942857Y-136189285D01*
X159085714Y-136475000D02*
X159657142Y-136475000D01*
X158971428Y-136817857D02*
X159371428Y-135617857D01*
X159771428Y-136817857D01*
X160000000Y-135617857D02*
X160685714Y-135617857D01*
X160342857Y-136817857D02*
X160342857Y-135617857D01*
X160914285Y-135617857D02*
X161600000Y-135617857D01*
X161257142Y-136817857D02*
X161257142Y-135617857D01*
X162000000Y-136189285D02*
X162400000Y-136189285D01*
X162571428Y-136817857D02*
X162000000Y-136817857D01*
X162000000Y-135617857D01*
X162571428Y-135617857D01*
X163771428Y-136817857D02*
X163371428Y-136246428D01*
X163085714Y-136817857D02*
X163085714Y-135617857D01*
X163542857Y-135617857D01*
X163657142Y-135675000D01*
X163714285Y-135732142D01*
X163771428Y-135846428D01*
X163771428Y-136017857D01*
X163714285Y-136132142D01*
X163657142Y-136189285D01*
X163542857Y-136246428D01*
X163085714Y-136246428D01*
X164514285Y-136246428D02*
X164514285Y-136817857D01*
X164114285Y-135617857D02*
X164514285Y-136246428D01*
X164914285Y-135617857D01*
X166228571Y-136817857D02*
X166228571Y-135617857D01*
X166742857Y-136760714D02*
X166914285Y-136817857D01*
X167200000Y-136817857D01*
X167314285Y-136760714D01*
X167371428Y-136703571D01*
X167428571Y-136589285D01*
X167428571Y-136475000D01*
X167371428Y-136360714D01*
X167314285Y-136303571D01*
X167200000Y-136246428D01*
X166971428Y-136189285D01*
X166857142Y-136132142D01*
X166800000Y-136075000D01*
X166742857Y-135960714D01*
X166742857Y-135846428D01*
X166800000Y-135732142D01*
X166857142Y-135675000D01*
X166971428Y-135617857D01*
X167257142Y-135617857D01*
X167428571Y-135675000D01*
X168171428Y-135617857D02*
X168400000Y-135617857D01*
X168514285Y-135675000D01*
X168628571Y-135789285D01*
X168685714Y-136017857D01*
X168685714Y-136417857D01*
X168628571Y-136646428D01*
X168514285Y-136760714D01*
X168400000Y-136817857D01*
X168171428Y-136817857D01*
X168057142Y-136760714D01*
X167942857Y-136646428D01*
X167885714Y-136417857D01*
X167885714Y-136017857D01*
X167942857Y-135789285D01*
X168057142Y-135675000D01*
X168171428Y-135617857D01*
X169771428Y-136817857D02*
X169200000Y-136817857D01*
X169200000Y-135617857D01*
X170114285Y-136475000D02*
X170685714Y-136475000D01*
X170000000Y-136817857D02*
X170400000Y-135617857D01*
X170800000Y-136817857D01*
X171028571Y-135617857D02*
X171714285Y-135617857D01*
X171371428Y-136817857D02*
X171371428Y-135617857D01*
X172342857Y-135617857D02*
X172571428Y-135617857D01*
X172685714Y-135675000D01*
X172800000Y-135789285D01*
X172857142Y-136017857D01*
X172857142Y-136417857D01*
X172800000Y-136646428D01*
X172685714Y-136760714D01*
X172571428Y-136817857D01*
X172342857Y-136817857D01*
X172228571Y-136760714D01*
X172114285Y-136646428D01*
X172057142Y-136417857D01*
X172057142Y-136017857D01*
X172114285Y-135789285D01*
X172228571Y-135675000D01*
X172342857Y-135617857D01*
X174057142Y-136817857D02*
X173657142Y-136246428D01*
X173371428Y-136817857D02*
X173371428Y-135617857D01*
X173828571Y-135617857D01*
X173942857Y-135675000D01*
X174000000Y-135732142D01*
X174057142Y-135846428D01*
X174057142Y-136017857D01*
X174000000Y-136132142D01*
X173942857Y-136189285D01*
X173828571Y-136246428D01*
X173371428Y-136246428D01*
X176171428Y-136817857D02*
X175771428Y-136246428D01*
X175485714Y-136817857D02*
X175485714Y-135617857D01*
X175942857Y-135617857D01*
X176057142Y-135675000D01*
X176114285Y-135732142D01*
X176171428Y-135846428D01*
X176171428Y-136017857D01*
X176114285Y-136132142D01*
X176057142Y-136189285D01*
X175942857Y-136246428D01*
X175485714Y-136246428D01*
X176685714Y-136189285D02*
X177085714Y-136189285D01*
X177257142Y-136817857D02*
X176685714Y-136817857D01*
X176685714Y-135617857D01*
X177257142Y-135617857D01*
X177600000Y-135617857D02*
X178000000Y-136817857D01*
X178400000Y-135617857D01*
X178800000Y-136703571D02*
X178857142Y-136760714D01*
X178800000Y-136817857D01*
X178742857Y-136760714D01*
X178800000Y-136703571D01*
X178800000Y-136817857D01*
X180914285Y-136817857D02*
X180228571Y-136817857D01*
X180571428Y-136817857D02*
X180571428Y-135617857D01*
X180457142Y-135789285D01*
X180342857Y-135903571D01*
X180228571Y-135960714D01*
X160885714Y-138525000D02*
X161457142Y-138525000D01*
X160771428Y-138867857D02*
X161171428Y-137667857D01*
X161571428Y-138867857D01*
X162657142Y-138753571D02*
X162600000Y-138810714D01*
X162428571Y-138867857D01*
X162314285Y-138867857D01*
X162142857Y-138810714D01*
X162028571Y-138696428D01*
X161971428Y-138582142D01*
X161914285Y-138353571D01*
X161914285Y-138182142D01*
X161971428Y-137953571D01*
X162028571Y-137839285D01*
X162142857Y-137725000D01*
X162314285Y-137667857D01*
X162428571Y-137667857D01*
X162600000Y-137725000D01*
X162657142Y-137782142D01*
X163171428Y-138239285D02*
X163571428Y-138239285D01*
X163742857Y-138867857D02*
X163171428Y-138867857D01*
X163171428Y-137667857D01*
X163742857Y-137667857D01*
X164200000Y-138525000D02*
X164771428Y-138525000D01*
X164085714Y-138867857D02*
X164485714Y-137667857D01*
X164885714Y-138867857D01*
X167000000Y-138982142D02*
X166885714Y-138925000D01*
X166771428Y-138810714D01*
X166600000Y-138639285D01*
X166485714Y-138582142D01*
X166371428Y-138582142D01*
X166428571Y-138867857D02*
X166314285Y-138810714D01*
X166200000Y-138696428D01*
X166142857Y-138467857D01*
X166142857Y-138067857D01*
X166200000Y-137839285D01*
X166314285Y-137725000D01*
X166428571Y-137667857D01*
X166657142Y-137667857D01*
X166771428Y-137725000D01*
X166885714Y-137839285D01*
X166942857Y-138067857D01*
X166942857Y-138467857D01*
X166885714Y-138696428D01*
X166771428Y-138810714D01*
X166657142Y-138867857D01*
X166428571Y-138867857D01*
X167457142Y-137667857D02*
X167457142Y-138639285D01*
X167514285Y-138753571D01*
X167571428Y-138810714D01*
X167685714Y-138867857D01*
X167914285Y-138867857D01*
X168028571Y-138810714D01*
X168085714Y-138753571D01*
X168142857Y-138639285D01*
X168142857Y-137667857D01*
X168714285Y-138867857D02*
X168714285Y-137667857D01*
X169914285Y-137725000D02*
X169800000Y-137667857D01*
X169628571Y-137667857D01*
X169457142Y-137725000D01*
X169342857Y-137839285D01*
X169285714Y-137953571D01*
X169228571Y-138182142D01*
X169228571Y-138353571D01*
X169285714Y-138582142D01*
X169342857Y-138696428D01*
X169457142Y-138810714D01*
X169628571Y-138867857D01*
X169742857Y-138867857D01*
X169914285Y-138810714D01*
X169971428Y-138753571D01*
X169971428Y-138353571D01*
X169742857Y-138353571D01*
X171114285Y-137725000D02*
X171000000Y-137667857D01*
X170828571Y-137667857D01*
X170657142Y-137725000D01*
X170542857Y-137839285D01*
X170485714Y-137953571D01*
X170428571Y-138182142D01*
X170428571Y-138353571D01*
X170485714Y-138582142D01*
X170542857Y-138696428D01*
X170657142Y-138810714D01*
X170828571Y-138867857D01*
X170942857Y-138867857D01*
X171114285Y-138810714D01*
X171171428Y-138753571D01*
X171171428Y-138353571D01*
X170942857Y-138353571D01*
X172828571Y-137667857D02*
X172942857Y-137667857D01*
X173057142Y-137725000D01*
X173114285Y-137782142D01*
X173171428Y-137896428D01*
X173228571Y-138125000D01*
X173228571Y-138410714D01*
X173171428Y-138639285D01*
X173114285Y-138753571D01*
X173057142Y-138810714D01*
X172942857Y-138867857D01*
X172828571Y-138867857D01*
X172714285Y-138810714D01*
X172657142Y-138753571D01*
X172600000Y-138639285D01*
X172542857Y-138410714D01*
X172542857Y-138125000D01*
X172600000Y-137896428D01*
X172657142Y-137782142D01*
X172714285Y-137725000D01*
X172828571Y-137667857D01*
X173628571Y-137667857D02*
X174428571Y-137667857D01*
X173914285Y-138867857D01*
X175742857Y-137610714D02*
X174714285Y-139153571D01*
X176085714Y-137782142D02*
X176142857Y-137725000D01*
X176257142Y-137667857D01*
X176542857Y-137667857D01*
X176657142Y-137725000D01*
X176714285Y-137782142D01*
X176771428Y-137896428D01*
X176771428Y-138010714D01*
X176714285Y-138182142D01*
X176028571Y-138867857D01*
X176771428Y-138867857D01*
X177514285Y-137667857D02*
X177628571Y-137667857D01*
X177742857Y-137725000D01*
X177800000Y-137782142D01*
X177857142Y-137896428D01*
X177914285Y-138125000D01*
X177914285Y-138410714D01*
X177857142Y-138639285D01*
X177800000Y-138753571D01*
X177742857Y-138810714D01*
X177628571Y-138867857D01*
X177514285Y-138867857D01*
X177400000Y-138810714D01*
X177342857Y-138753571D01*
X177285714Y-138639285D01*
X177228571Y-138410714D01*
X177228571Y-138125000D01*
X177285714Y-137896428D01*
X177342857Y-137782142D01*
X177400000Y-137725000D01*
X177514285Y-137667857D01*
D12*
X175971428Y-130376190D02*
X175971428Y-131209523D01*
X177280952Y-131209523D02*
X174780952Y-131209523D01*
X174780952Y-130019047D01*
X177280952Y-127638095D02*
X176090476Y-128471428D01*
X177280952Y-129066666D02*
X174780952Y-129066666D01*
X174780952Y-128114285D01*
X174900000Y-127876190D01*
X175019047Y-127757142D01*
X175257142Y-127638095D01*
X175614285Y-127638095D01*
X175852380Y-127757142D01*
X175971428Y-127876190D01*
X176090476Y-128114285D01*
X176090476Y-129066666D01*
X175971428Y-126566666D02*
X175971428Y-125733333D01*
X177280952Y-125376190D02*
X177280952Y-126566666D01*
X174780952Y-126566666D01*
X174780952Y-125376190D01*
X175971428Y-124304761D02*
X175971428Y-123471428D01*
X177280952Y-123114285D02*
X177280952Y-124304761D01*
X174780952Y-124304761D01*
X174780952Y-123114285D01*
X174780952Y-122280952D02*
X174780952Y-120614285D01*
X177280952Y-122280952D01*
X177280952Y-120614285D01*
X175971428Y-119661904D02*
X175971428Y-118828571D01*
X177280952Y-118471428D02*
X177280952Y-119661904D01*
X174780952Y-119661904D01*
X174780952Y-118471428D01*
X177280952Y-115971428D02*
X176090476Y-116804761D01*
X177280952Y-117400000D02*
X174780952Y-117400000D01*
X174780952Y-116447619D01*
X174900000Y-116209523D01*
X175019047Y-116090476D01*
X175257142Y-115971428D01*
X175614285Y-115971428D01*
X175852380Y-116090476D01*
X175971428Y-116209523D01*
X176090476Y-116447619D01*
X176090476Y-117400000D01*
X158571428Y-127119047D02*
X158571428Y-127952380D01*
X159880952Y-127952380D02*
X157380952Y-127952380D01*
X157380952Y-126761904D01*
X159880952Y-124380952D02*
X158690476Y-125214285D01*
X159880952Y-125809523D02*
X157380952Y-125809523D01*
X157380952Y-124857142D01*
X157500000Y-124619047D01*
X157619047Y-124500000D01*
X157857142Y-124380952D01*
X158214285Y-124380952D01*
X158452380Y-124500000D01*
X158571428Y-124619047D01*
X158690476Y-124857142D01*
X158690476Y-125809523D01*
X159880952Y-123309523D02*
X157380952Y-123309523D01*
X159880952Y-122119047D02*
X157380952Y-122119047D01*
X157380952Y-121523809D01*
X157500000Y-121166666D01*
X157738095Y-120928571D01*
X157976190Y-120809523D01*
X158452380Y-120690476D01*
X158809523Y-120690476D01*
X159285714Y-120809523D01*
X159523809Y-120928571D01*
X159761904Y-121166666D01*
X159880952Y-121523809D01*
X159880952Y-122119047D01*
X157500000Y-118309523D02*
X157380952Y-118547619D01*
X157380952Y-118904761D01*
X157500000Y-119261904D01*
X157738095Y-119500000D01*
X157976190Y-119619047D01*
X158452380Y-119738095D01*
X158809523Y-119738095D01*
X159285714Y-119619047D01*
X159523809Y-119500000D01*
X159761904Y-119261904D01*
X159880952Y-118904761D01*
X159880952Y-118666666D01*
X159761904Y-118309523D01*
X159642857Y-118190476D01*
X158809523Y-118190476D01*
X158809523Y-118666666D01*
X158571428Y-117119047D02*
X158571428Y-116285714D01*
X159880952Y-115928571D02*
X159880952Y-117119047D01*
X157380952Y-117119047D01*
X157380952Y-115928571D01*
X141071428Y-124988095D02*
X141190476Y-124630952D01*
X141309523Y-124511904D01*
X141547619Y-124392857D01*
X141904761Y-124392857D01*
X142142857Y-124511904D01*
X142261904Y-124630952D01*
X142380952Y-124869047D01*
X142380952Y-125821428D01*
X139880952Y-125821428D01*
X139880952Y-124988095D01*
X140000000Y-124750000D01*
X140119047Y-124630952D01*
X140357142Y-124511904D01*
X140595238Y-124511904D01*
X140833333Y-124630952D01*
X140952380Y-124750000D01*
X141071428Y-124988095D01*
X141071428Y-125821428D01*
X141666666Y-123440476D02*
X141666666Y-122250000D01*
X142380952Y-123678571D02*
X139880952Y-122845238D01*
X142380952Y-122011904D01*
X139880952Y-121535714D02*
X139880952Y-120107142D01*
X142380952Y-120821428D02*
X139880952Y-120821428D01*
X139880952Y-119630952D02*
X139880952Y-118202380D01*
X142380952Y-118916666D02*
X139880952Y-118916666D01*
X140119047Y-117488095D02*
X140000000Y-117369047D01*
X139880952Y-117130952D01*
X139880952Y-116535714D01*
X140000000Y-116297619D01*
X140119047Y-116178571D01*
X140357142Y-116059523D01*
X140595238Y-116059523D01*
X140952380Y-116178571D01*
X142380952Y-117607142D01*
X142380952Y-116059523D01*
X123821428Y-124988095D02*
X123940476Y-124630952D01*
X124059523Y-124511904D01*
X124297619Y-124392857D01*
X124654761Y-124392857D01*
X124892857Y-124511904D01*
X125011904Y-124630952D01*
X125130952Y-124869047D01*
X125130952Y-125821428D01*
X122630952Y-125821428D01*
X122630952Y-124988095D01*
X122750000Y-124750000D01*
X122869047Y-124630952D01*
X123107142Y-124511904D01*
X123345238Y-124511904D01*
X123583333Y-124630952D01*
X123702380Y-124750000D01*
X123821428Y-124988095D01*
X123821428Y-125821428D01*
X124416666Y-123440476D02*
X124416666Y-122250000D01*
X125130952Y-123678571D02*
X122630952Y-122845238D01*
X125130952Y-122011904D01*
X122630952Y-121535714D02*
X122630952Y-120107142D01*
X125130952Y-120821428D02*
X122630952Y-120821428D01*
X122630952Y-119630952D02*
X122630952Y-118202380D01*
X125130952Y-118916666D02*
X122630952Y-118916666D01*
X125130952Y-116059523D02*
X125130952Y-117488095D01*
X125130952Y-116773809D02*
X122630952Y-116773809D01*
X122988095Y-117011904D01*
X123226190Y-117250000D01*
X123345238Y-117488095D01*
X120130952Y-124409523D02*
X117630952Y-124409523D01*
X119416666Y-123576190D01*
X117630952Y-122742857D01*
X120130952Y-122742857D01*
X119416666Y-121671428D02*
X119416666Y-120480952D01*
X120130952Y-121909523D02*
X117630952Y-121076190D01*
X120130952Y-120242857D01*
X120130952Y-119409523D02*
X117630952Y-119409523D01*
X120130952Y-118219047D02*
X117630952Y-118219047D01*
X120130952Y-116790476D01*
X117630952Y-116790476D01*
D13*
X103500000Y-105000000D02*
X103500000Y-124500000D01*
X107500000Y-129000000D02*
X112500000Y-129000000D01*
X116500000Y-124500000D02*
X116500000Y-105000000D01*
X116500000Y-105000000D02*
X103500000Y-105000000D01*
X103500000Y-124500000D02*
X107500000Y-129000000D01*
X112500000Y-129000000D02*
X116500000Y-124500000D01*
X144450000Y-118050000D02*
X144450000Y-130900000D01*
X147000000Y-133750000D02*
X150150000Y-133750000D01*
X152750000Y-130900000D02*
X152750000Y-118050000D01*
X152750000Y-118050000D02*
X144450000Y-118050000D01*
X144450000Y-130900000D02*
X147000000Y-133750000D01*
X150150000Y-133750000D02*
X152750000Y-130900000D01*
X167650000Y-133750000D02*
X170250000Y-130900000D01*
X161950000Y-130900000D02*
X164500000Y-133750000D01*
X170250000Y-118050000D02*
X161950000Y-118050000D01*
X170250000Y-130900000D02*
X170250000Y-118050000D01*
X164500000Y-133750000D02*
X167650000Y-133750000D01*
X161950000Y-118050000D02*
X161950000Y-130900000D01*
X132090000Y-86696078D02*
X132090000Y-86178922D01*
X133510000Y-86696078D02*
X133510000Y-86178922D01*
X129241422Y-89790000D02*
X129758578Y-89790000D01*
X129241422Y-91210000D02*
X129758578Y-91210000D01*
X131041422Y-82210000D02*
X131558578Y-82210000D01*
X131041422Y-80790000D02*
X131558578Y-80790000D01*
X131041422Y-84210000D02*
X131558578Y-84210000D01*
X131041422Y-82790000D02*
X131558578Y-82790000D01*
X132090000Y-78758578D02*
X132090000Y-78241422D01*
X133510000Y-78758578D02*
X133510000Y-78241422D01*
X115365000Y-129500000D02*
X115365000Y-131785000D01*
X115365000Y-131785000D02*
X116835000Y-131785000D01*
X116835000Y-131785000D02*
X116835000Y-129500000D01*
X123935000Y-131785000D02*
X123935000Y-129500000D01*
X122465000Y-131785000D02*
X123935000Y-131785000D01*
X122465000Y-129500000D02*
X122465000Y-131785000D01*
X139865000Y-129500000D02*
X139865000Y-131785000D01*
X139865000Y-131785000D02*
X141335000Y-131785000D01*
X141335000Y-131785000D02*
X141335000Y-129500000D01*
X132150000Y-133750000D02*
X134750000Y-130900000D01*
X126450000Y-130900000D02*
X129000000Y-133750000D01*
X134750000Y-118050000D02*
X126450000Y-118050000D01*
X134750000Y-130900000D02*
X134750000Y-118050000D01*
X129000000Y-133750000D02*
X132150000Y-133750000D01*
X126450000Y-118050000D02*
X126450000Y-130900000D01*
X179350000Y-116450000D02*
X179350000Y-129300000D01*
X181900000Y-132150000D02*
X185050000Y-132150000D01*
X187650000Y-129300000D02*
X187650000Y-116450000D01*
X187650000Y-116450000D02*
X179350000Y-116450000D01*
X179350000Y-129300000D02*
X181900000Y-132150000D01*
X185050000Y-132150000D02*
X187650000Y-129300000D01*
X168670000Y-80270000D02*
X171330000Y-80270000D01*
X168670000Y-80270000D02*
X168670000Y-93030000D01*
X168670000Y-93030000D02*
X171330000Y-93030000D01*
X171330000Y-80270000D02*
X171330000Y-93030000D01*
X171330000Y-77670000D02*
X171330000Y-79000000D01*
X170000000Y-77670000D02*
X171330000Y-77670000D01*
X167185000Y-110440000D02*
X167185000Y-116560000D01*
X161815000Y-110440000D02*
X161815000Y-116560000D01*
X166835000Y-116560000D02*
X167185000Y-116560000D01*
X166885000Y-110440000D02*
X167185000Y-110440000D01*
X162115000Y-110440000D02*
X161815000Y-110440000D01*
X131685000Y-110440000D02*
X131685000Y-116560000D01*
X126315000Y-110440000D02*
X126315000Y-116560000D01*
X131335000Y-116560000D02*
X131685000Y-116560000D01*
X131385000Y-110440000D02*
X131685000Y-110440000D01*
X126615000Y-110440000D02*
X126315000Y-110440000D01*
X144615000Y-110440000D02*
X144315000Y-110440000D01*
X149385000Y-110440000D02*
X149685000Y-110440000D01*
X149335000Y-116560000D02*
X149685000Y-116560000D01*
X144315000Y-110440000D02*
X144315000Y-116560000D01*
X149685000Y-110440000D02*
X149685000Y-116560000D01*
X179515000Y-108840000D02*
X179215000Y-108840000D01*
X184285000Y-108840000D02*
X184585000Y-108840000D01*
X184235000Y-114960000D02*
X184585000Y-114960000D01*
X179215000Y-108840000D02*
X179215000Y-114960000D01*
X184585000Y-108840000D02*
X184585000Y-114960000D01*
X118735000Y-131785000D02*
X118735000Y-129500000D01*
X117265000Y-131785000D02*
X118735000Y-131785000D01*
X117265000Y-129500000D02*
X117265000Y-131785000D01*
X125735000Y-131785000D02*
X125735000Y-129500000D01*
X124265000Y-131785000D02*
X125735000Y-131785000D01*
X124265000Y-129500000D02*
X124265000Y-131785000D01*
X141665000Y-129450000D02*
X141665000Y-131735000D01*
X141665000Y-131735000D02*
X143135000Y-131735000D01*
X143135000Y-131735000D02*
X143135000Y-129450000D01*
X136110000Y-78337221D02*
X136110000Y-78662779D01*
X135090000Y-78337221D02*
X135090000Y-78662779D01*
X173010000Y-119049721D02*
X173010000Y-119375279D01*
X171990000Y-119049721D02*
X171990000Y-119375279D01*
X136490000Y-118837221D02*
X136490000Y-119162779D01*
X137510000Y-118837221D02*
X137510000Y-119162779D01*
X139062779Y-95690000D02*
X138737221Y-95690000D01*
X139062779Y-96710000D02*
X138737221Y-96710000D01*
X154490000Y-118837221D02*
X154490000Y-119162779D01*
X155510000Y-118837221D02*
X155510000Y-119162779D01*
X187090000Y-114362779D02*
X187090000Y-114037221D01*
X188110000Y-114362779D02*
X188110000Y-114037221D01*
X157520000Y-86770000D02*
X157550000Y-86770000D01*
X163980000Y-86770000D02*
X163950000Y-86770000D01*
X163980000Y-93230000D02*
X163950000Y-93230000D01*
X157550000Y-93230000D02*
X157520000Y-93230000D01*
X159450000Y-86770000D02*
X162050000Y-86770000D01*
X157520000Y-93230000D02*
X157520000Y-86770000D01*
X159450000Y-93230000D02*
X162050000Y-93230000D01*
X163980000Y-93230000D02*
X163980000Y-86770000D01*
X131410000Y-88400000D02*
X131410000Y-86600000D01*
X128190000Y-86600000D02*
X128190000Y-89050000D01*
X137480000Y-93600000D02*
X137480000Y-94380000D01*
X137480000Y-94380000D02*
X138480000Y-94380000D01*
X155720000Y-93600000D02*
X155720000Y-94380000D01*
X155720000Y-94380000D02*
X154720000Y-94380000D01*
X137480000Y-68635000D02*
X155720000Y-68635000D01*
X155720000Y-68635000D02*
X155720000Y-75055000D01*
X137480000Y-68635000D02*
X137480000Y-75055000D01*
X137480000Y-75055000D02*
X137100000Y-75055000D01*
X157100000Y-106780000D02*
X157500000Y-106780000D01*
X155900000Y-106780000D02*
X155500000Y-106780000D01*
X158700000Y-106780000D02*
X158700000Y-106050000D01*
X156250000Y-111820000D02*
X156750000Y-111820000D01*
X153180000Y-106780000D02*
X154300000Y-106780000D01*
X153180000Y-111820000D02*
X153750000Y-111820000D01*
X159820000Y-106780000D02*
X158700000Y-106780000D01*
X159820000Y-111820000D02*
X159250000Y-111820000D01*
X159820000Y-111820000D02*
X159820000Y-109950000D01*
X159820000Y-108650000D02*
X159820000Y-106780000D01*
X153180000Y-108650000D02*
X153180000Y-106780000D01*
X153180000Y-111820000D02*
X153180000Y-109950000D01*
X121600000Y-106530000D02*
X122000000Y-106530000D01*
X120400000Y-106530000D02*
X120000000Y-106530000D01*
X123200000Y-106530000D02*
X123200000Y-105800000D01*
X120750000Y-111570000D02*
X121250000Y-111570000D01*
X117680000Y-106530000D02*
X118800000Y-106530000D01*
X117680000Y-111570000D02*
X118250000Y-111570000D01*
X124320000Y-106530000D02*
X123200000Y-106530000D01*
X124320000Y-111570000D02*
X123750000Y-111570000D01*
X124320000Y-111570000D02*
X124320000Y-109700000D01*
X124320000Y-108400000D02*
X124320000Y-106530000D01*
X117680000Y-108400000D02*
X117680000Y-106530000D01*
X117680000Y-111570000D02*
X117680000Y-109700000D01*
X135680000Y-111570000D02*
X135680000Y-109700000D01*
X135680000Y-108400000D02*
X135680000Y-106530000D01*
X142320000Y-108400000D02*
X142320000Y-106530000D01*
X142320000Y-111570000D02*
X142320000Y-109700000D01*
X142320000Y-111570000D02*
X141750000Y-111570000D01*
X142320000Y-106530000D02*
X141200000Y-106530000D01*
X135680000Y-111570000D02*
X136250000Y-111570000D01*
X135680000Y-106530000D02*
X136800000Y-106530000D01*
X138750000Y-111570000D02*
X139250000Y-111570000D01*
X141200000Y-106530000D02*
X141200000Y-105800000D01*
X138400000Y-106530000D02*
X138000000Y-106530000D01*
X139600000Y-106530000D02*
X140000000Y-106530000D01*
X170580000Y-110220000D02*
X170580000Y-108350000D01*
X170580000Y-107050000D02*
X170580000Y-105180000D01*
X177220000Y-107050000D02*
X177220000Y-105180000D01*
X177220000Y-110220000D02*
X177220000Y-108350000D01*
X177220000Y-110220000D02*
X176650000Y-110220000D01*
X177220000Y-105180000D02*
X176100000Y-105180000D01*
X170580000Y-110220000D02*
X171150000Y-110220000D01*
X170580000Y-105180000D02*
X171700000Y-105180000D01*
X173650000Y-110220000D02*
X174150000Y-110220000D01*
X176100000Y-105180000D02*
X176100000Y-104450000D01*
X173300000Y-105180000D02*
X172900000Y-105180000D01*
X174500000Y-105180000D02*
X174900000Y-105180000D01*
X113242222Y-87365001D02*
X113567780Y-87365001D01*
X113242222Y-86345001D02*
X113567780Y-86345001D01*
X113567780Y-89875001D02*
X113242222Y-89875001D01*
X113567780Y-88855001D02*
X113242222Y-88855001D01*
X117252222Y-87365001D02*
X117577780Y-87365001D01*
X117252222Y-86345001D02*
X117577780Y-86345001D01*
X117577780Y-89875001D02*
X117252222Y-89875001D01*
X117577780Y-88855001D02*
X117252222Y-88855001D01*
X121262222Y-87365001D02*
X121587780Y-87365001D01*
X121262222Y-86345001D02*
X121587780Y-86345001D01*
X121587780Y-89875001D02*
X121262222Y-89875001D01*
X121587780Y-88855001D02*
X121262222Y-88855001D01*
X175470000Y-80370000D02*
X178130000Y-80370000D01*
X175470000Y-80370000D02*
X175470000Y-88050000D01*
X175470000Y-88050000D02*
X178130000Y-88050000D01*
X178130000Y-80370000D02*
X178130000Y-88050000D01*
X178130000Y-77770000D02*
X178130000Y-79100000D01*
X176800000Y-77770000D02*
X178130000Y-77770000D01*
X184362779Y-84490000D02*
X184037221Y-84490000D01*
X184362779Y-85510000D02*
X184037221Y-85510000D01*
X184362779Y-87410000D02*
X184037221Y-87410000D01*
X184362779Y-86390000D02*
X184037221Y-86390000D01*
X186210000Y-94141422D02*
X186210000Y-94658578D01*
X184790000Y-94141422D02*
X184790000Y-94658578D01*
X181500000Y-101860000D02*
X183450000Y-101860000D01*
X181500000Y-101860000D02*
X179550000Y-101860000D01*
X181500000Y-96740000D02*
X183450000Y-96740000D01*
X181500000Y-96740000D02*
X178050000Y-96740000D01*
D10*
X102766666Y-103252380D02*
X102766666Y-103966666D01*
X102719047Y-104109523D01*
X102623809Y-104204761D01*
X102480952Y-104252380D01*
X102385714Y-104252380D01*
X103766666Y-104252380D02*
X103195238Y-104252380D01*
X103480952Y-104252380D02*
X103480952Y-103252380D01*
X103385714Y-103395238D01*
X103290476Y-103490476D01*
X103195238Y-103538095D01*
X142666666Y-116452380D02*
X142666666Y-117166666D01*
X142619047Y-117309523D01*
X142523809Y-117404761D01*
X142380952Y-117452380D01*
X142285714Y-117452380D01*
X143571428Y-116785714D02*
X143571428Y-117452380D01*
X143333333Y-116404761D02*
X143095238Y-117119047D01*
X143714285Y-117119047D01*
X160166666Y-116452380D02*
X160166666Y-117166666D01*
X160119047Y-117309523D01*
X160023809Y-117404761D01*
X159880952Y-117452380D01*
X159785714Y-117452380D01*
X160595238Y-116547619D02*
X160642857Y-116500000D01*
X160738095Y-116452380D01*
X160976190Y-116452380D01*
X161071428Y-116500000D01*
X161119047Y-116547619D01*
X161166666Y-116642857D01*
X161166666Y-116738095D01*
X161119047Y-116880952D01*
X160547619Y-117452380D01*
X161166666Y-117452380D01*
X133157142Y-89604166D02*
X133204761Y-89651785D01*
X133252380Y-89794642D01*
X133252380Y-89889880D01*
X133204761Y-90032738D01*
X133109523Y-90127976D01*
X133014285Y-90175595D01*
X132823809Y-90223214D01*
X132680952Y-90223214D01*
X132490476Y-90175595D01*
X132395238Y-90127976D01*
X132300000Y-90032738D01*
X132252380Y-89889880D01*
X132252380Y-89794642D01*
X132300000Y-89651785D01*
X132347619Y-89604166D01*
X133252380Y-88651785D02*
X133252380Y-89223214D01*
X133252380Y-88937500D02*
X132252380Y-88937500D01*
X132395238Y-89032738D01*
X132490476Y-89127976D01*
X132538095Y-89223214D01*
X127833333Y-92857142D02*
X127785714Y-92904761D01*
X127642857Y-92952380D01*
X127547619Y-92952380D01*
X127404761Y-92904761D01*
X127309523Y-92809523D01*
X127261904Y-92714285D01*
X127214285Y-92523809D01*
X127214285Y-92380952D01*
X127261904Y-92190476D01*
X127309523Y-92095238D01*
X127404761Y-92000000D01*
X127547619Y-91952380D01*
X127642857Y-91952380D01*
X127785714Y-92000000D01*
X127833333Y-92047619D01*
X128214285Y-92047619D02*
X128261904Y-92000000D01*
X128357142Y-91952380D01*
X128595238Y-91952380D01*
X128690476Y-92000000D01*
X128738095Y-92047619D01*
X128785714Y-92142857D01*
X128785714Y-92238095D01*
X128738095Y-92380952D01*
X128166666Y-92952380D01*
X128785714Y-92952380D01*
X134133333Y-81857142D02*
X134085714Y-81904761D01*
X133942857Y-81952380D01*
X133847619Y-81952380D01*
X133704761Y-81904761D01*
X133609523Y-81809523D01*
X133561904Y-81714285D01*
X133514285Y-81523809D01*
X133514285Y-81380952D01*
X133561904Y-81190476D01*
X133609523Y-81095238D01*
X133704761Y-81000000D01*
X133847619Y-80952380D01*
X133942857Y-80952380D01*
X134085714Y-81000000D01*
X134133333Y-81047619D01*
X134990476Y-81285714D02*
X134990476Y-81952380D01*
X134752380Y-80904761D02*
X134514285Y-81619047D01*
X135133333Y-81619047D01*
X134133333Y-83357142D02*
X134085714Y-83404761D01*
X133942857Y-83452380D01*
X133847619Y-83452380D01*
X133704761Y-83404761D01*
X133609523Y-83309523D01*
X133561904Y-83214285D01*
X133514285Y-83023809D01*
X133514285Y-82880952D01*
X133561904Y-82690476D01*
X133609523Y-82595238D01*
X133704761Y-82500000D01*
X133847619Y-82452380D01*
X133942857Y-82452380D01*
X134085714Y-82500000D01*
X134133333Y-82547619D01*
X135038095Y-82452380D02*
X134561904Y-82452380D01*
X134514285Y-82928571D01*
X134561904Y-82880952D01*
X134657142Y-82833333D01*
X134895238Y-82833333D01*
X134990476Y-82880952D01*
X135038095Y-82928571D01*
X135085714Y-83023809D01*
X135085714Y-83261904D01*
X135038095Y-83357142D01*
X134990476Y-83404761D01*
X134895238Y-83452380D01*
X134657142Y-83452380D01*
X134561904Y-83404761D01*
X134514285Y-83357142D01*
X131157142Y-78666666D02*
X131204761Y-78714285D01*
X131252380Y-78857142D01*
X131252380Y-78952380D01*
X131204761Y-79095238D01*
X131109523Y-79190476D01*
X131014285Y-79238095D01*
X130823809Y-79285714D01*
X130680952Y-79285714D01*
X130490476Y-79238095D01*
X130395238Y-79190476D01*
X130300000Y-79095238D01*
X130252380Y-78952380D01*
X130252380Y-78857142D01*
X130300000Y-78714285D01*
X130347619Y-78666666D01*
X130252380Y-77809523D02*
X130252380Y-78000000D01*
X130300000Y-78095238D01*
X130347619Y-78142857D01*
X130490476Y-78238095D01*
X130680952Y-78285714D01*
X131061904Y-78285714D01*
X131157142Y-78238095D01*
X131204761Y-78190476D01*
X131252380Y-78095238D01*
X131252380Y-77904761D01*
X131204761Y-77809523D01*
X131157142Y-77761904D01*
X131061904Y-77714285D01*
X130823809Y-77714285D01*
X130728571Y-77761904D01*
X130680952Y-77809523D01*
X130633333Y-77904761D01*
X130633333Y-78095238D01*
X130680952Y-78190476D01*
X130728571Y-78238095D01*
X130823809Y-78285714D01*
X116552380Y-128538095D02*
X115552380Y-128538095D01*
X115552380Y-128300000D01*
X115600000Y-128157142D01*
X115695238Y-128061904D01*
X115790476Y-128014285D01*
X115980952Y-127966666D01*
X116123809Y-127966666D01*
X116314285Y-128014285D01*
X116409523Y-128061904D01*
X116504761Y-128157142D01*
X116552380Y-128300000D01*
X116552380Y-128538095D01*
X115647619Y-127585714D02*
X115600000Y-127538095D01*
X115552380Y-127442857D01*
X115552380Y-127204761D01*
X115600000Y-127109523D01*
X115647619Y-127061904D01*
X115742857Y-127014285D01*
X115838095Y-127014285D01*
X115980952Y-127061904D01*
X116552380Y-127633333D01*
X116552380Y-127014285D01*
X123652380Y-128538095D02*
X122652380Y-128538095D01*
X122652380Y-128300000D01*
X122700000Y-128157142D01*
X122795238Y-128061904D01*
X122890476Y-128014285D01*
X123080952Y-127966666D01*
X123223809Y-127966666D01*
X123414285Y-128014285D01*
X123509523Y-128061904D01*
X123604761Y-128157142D01*
X123652380Y-128300000D01*
X123652380Y-128538095D01*
X123652380Y-127014285D02*
X123652380Y-127585714D01*
X123652380Y-127300000D02*
X122652380Y-127300000D01*
X122795238Y-127395238D01*
X122890476Y-127490476D01*
X122938095Y-127585714D01*
X141052380Y-128538095D02*
X140052380Y-128538095D01*
X140052380Y-128300000D01*
X140100000Y-128157142D01*
X140195238Y-128061904D01*
X140290476Y-128014285D01*
X140480952Y-127966666D01*
X140623809Y-127966666D01*
X140814285Y-128014285D01*
X140909523Y-128061904D01*
X141004761Y-128157142D01*
X141052380Y-128300000D01*
X141052380Y-128538095D01*
X140052380Y-127633333D02*
X140052380Y-127014285D01*
X140433333Y-127347619D01*
X140433333Y-127204761D01*
X140480952Y-127109523D01*
X140528571Y-127061904D01*
X140623809Y-127014285D01*
X140861904Y-127014285D01*
X140957142Y-127061904D01*
X141004761Y-127109523D01*
X141052380Y-127204761D01*
X141052380Y-127490476D01*
X141004761Y-127585714D01*
X140957142Y-127633333D01*
X125666666Y-116452380D02*
X125666666Y-117166666D01*
X125619047Y-117309523D01*
X125523809Y-117404761D01*
X125380952Y-117452380D01*
X125285714Y-117452380D01*
X126047619Y-116452380D02*
X126666666Y-116452380D01*
X126333333Y-116833333D01*
X126476190Y-116833333D01*
X126571428Y-116880952D01*
X126619047Y-116928571D01*
X126666666Y-117023809D01*
X126666666Y-117261904D01*
X126619047Y-117357142D01*
X126571428Y-117404761D01*
X126476190Y-117452380D01*
X126190476Y-117452380D01*
X126095238Y-117404761D01*
X126047619Y-117357142D01*
X177816666Y-114852380D02*
X177816666Y-115566666D01*
X177769047Y-115709523D01*
X177673809Y-115804761D01*
X177530952Y-115852380D01*
X177435714Y-115852380D01*
X178769047Y-114852380D02*
X178292857Y-114852380D01*
X178245238Y-115328571D01*
X178292857Y-115280952D01*
X178388095Y-115233333D01*
X178626190Y-115233333D01*
X178721428Y-115280952D01*
X178769047Y-115328571D01*
X178816666Y-115423809D01*
X178816666Y-115661904D01*
X178769047Y-115757142D01*
X178721428Y-115804761D01*
X178626190Y-115852380D01*
X178388095Y-115852380D01*
X178292857Y-115804761D01*
X178245238Y-115757142D01*
X169566666Y-93852380D02*
X169566666Y-94566666D01*
X169519047Y-94709523D01*
X169423809Y-94804761D01*
X169280952Y-94852380D01*
X169185714Y-94852380D01*
X170471428Y-93852380D02*
X170280952Y-93852380D01*
X170185714Y-93900000D01*
X170138095Y-93947619D01*
X170042857Y-94090476D01*
X169995238Y-94280952D01*
X169995238Y-94661904D01*
X170042857Y-94757142D01*
X170090476Y-94804761D01*
X170185714Y-94852380D01*
X170376190Y-94852380D01*
X170471428Y-94804761D01*
X170519047Y-94757142D01*
X170566666Y-94661904D01*
X170566666Y-94423809D01*
X170519047Y-94328571D01*
X170471428Y-94280952D01*
X170376190Y-94233333D01*
X170185714Y-94233333D01*
X170090476Y-94280952D01*
X170042857Y-94328571D01*
X169995238Y-94423809D01*
X161547619Y-113595238D02*
X161500000Y-113690476D01*
X161404761Y-113785714D01*
X161261904Y-113928571D01*
X161214285Y-114023809D01*
X161214285Y-114119047D01*
X161452380Y-114071428D02*
X161404761Y-114166666D01*
X161309523Y-114261904D01*
X161119047Y-114309523D01*
X160785714Y-114309523D01*
X160595238Y-114261904D01*
X160500000Y-114166666D01*
X160452380Y-114071428D01*
X160452380Y-113880952D01*
X160500000Y-113785714D01*
X160595238Y-113690476D01*
X160785714Y-113642857D01*
X161119047Y-113642857D01*
X161309523Y-113690476D01*
X161404761Y-113785714D01*
X161452380Y-113880952D01*
X161452380Y-114071428D01*
X161452380Y-112690476D02*
X161452380Y-113261904D01*
X161452380Y-112976190D02*
X160452380Y-112976190D01*
X160595238Y-113071428D01*
X160690476Y-113166666D01*
X160738095Y-113261904D01*
X126047619Y-113595238D02*
X126000000Y-113690476D01*
X125904761Y-113785714D01*
X125761904Y-113928571D01*
X125714285Y-114023809D01*
X125714285Y-114119047D01*
X125952380Y-114071428D02*
X125904761Y-114166666D01*
X125809523Y-114261904D01*
X125619047Y-114309523D01*
X125285714Y-114309523D01*
X125095238Y-114261904D01*
X125000000Y-114166666D01*
X124952380Y-114071428D01*
X124952380Y-113880952D01*
X125000000Y-113785714D01*
X125095238Y-113690476D01*
X125285714Y-113642857D01*
X125619047Y-113642857D01*
X125809523Y-113690476D01*
X125904761Y-113785714D01*
X125952380Y-113880952D01*
X125952380Y-114071428D01*
X125047619Y-113261904D02*
X125000000Y-113214285D01*
X124952380Y-113119047D01*
X124952380Y-112880952D01*
X125000000Y-112785714D01*
X125047619Y-112738095D01*
X125142857Y-112690476D01*
X125238095Y-112690476D01*
X125380952Y-112738095D01*
X125952380Y-113309523D01*
X125952380Y-112690476D01*
X144047619Y-113595238D02*
X144000000Y-113690476D01*
X143904761Y-113785714D01*
X143761904Y-113928571D01*
X143714285Y-114023809D01*
X143714285Y-114119047D01*
X143952380Y-114071428D02*
X143904761Y-114166666D01*
X143809523Y-114261904D01*
X143619047Y-114309523D01*
X143285714Y-114309523D01*
X143095238Y-114261904D01*
X143000000Y-114166666D01*
X142952380Y-114071428D01*
X142952380Y-113880952D01*
X143000000Y-113785714D01*
X143095238Y-113690476D01*
X143285714Y-113642857D01*
X143619047Y-113642857D01*
X143809523Y-113690476D01*
X143904761Y-113785714D01*
X143952380Y-113880952D01*
X143952380Y-114071428D01*
X142952380Y-113309523D02*
X142952380Y-112690476D01*
X143333333Y-113023809D01*
X143333333Y-112880952D01*
X143380952Y-112785714D01*
X143428571Y-112738095D01*
X143523809Y-112690476D01*
X143761904Y-112690476D01*
X143857142Y-112738095D01*
X143904761Y-112785714D01*
X143952380Y-112880952D01*
X143952380Y-113166666D01*
X143904761Y-113261904D01*
X143857142Y-113309523D01*
X178947619Y-111995238D02*
X178900000Y-112090476D01*
X178804761Y-112185714D01*
X178661904Y-112328571D01*
X178614285Y-112423809D01*
X178614285Y-112519047D01*
X178852380Y-112471428D02*
X178804761Y-112566666D01*
X178709523Y-112661904D01*
X178519047Y-112709523D01*
X178185714Y-112709523D01*
X177995238Y-112661904D01*
X177900000Y-112566666D01*
X177852380Y-112471428D01*
X177852380Y-112280952D01*
X177900000Y-112185714D01*
X177995238Y-112090476D01*
X178185714Y-112042857D01*
X178519047Y-112042857D01*
X178709523Y-112090476D01*
X178804761Y-112185714D01*
X178852380Y-112280952D01*
X178852380Y-112471428D01*
X178185714Y-111185714D02*
X178852380Y-111185714D01*
X177804761Y-111423809D02*
X178519047Y-111661904D01*
X178519047Y-111042857D01*
X118452380Y-127966666D02*
X117976190Y-128300000D01*
X118452380Y-128538095D02*
X117452380Y-128538095D01*
X117452380Y-128157142D01*
X117500000Y-128061904D01*
X117547619Y-128014285D01*
X117642857Y-127966666D01*
X117785714Y-127966666D01*
X117880952Y-128014285D01*
X117928571Y-128061904D01*
X117976190Y-128157142D01*
X117976190Y-128538095D01*
X118452380Y-127014285D02*
X118452380Y-127585714D01*
X118452380Y-127300000D02*
X117452380Y-127300000D01*
X117595238Y-127395238D01*
X117690476Y-127490476D01*
X117738095Y-127585714D01*
X125452380Y-127966666D02*
X124976190Y-128300000D01*
X125452380Y-128538095D02*
X124452380Y-128538095D01*
X124452380Y-128157142D01*
X124500000Y-128061904D01*
X124547619Y-128014285D01*
X124642857Y-127966666D01*
X124785714Y-127966666D01*
X124880952Y-128014285D01*
X124928571Y-128061904D01*
X124976190Y-128157142D01*
X124976190Y-128538095D01*
X124547619Y-127585714D02*
X124500000Y-127538095D01*
X124452380Y-127442857D01*
X124452380Y-127204761D01*
X124500000Y-127109523D01*
X124547619Y-127061904D01*
X124642857Y-127014285D01*
X124738095Y-127014285D01*
X124880952Y-127061904D01*
X125452380Y-127633333D01*
X125452380Y-127014285D01*
X142852380Y-127916666D02*
X142376190Y-128250000D01*
X142852380Y-128488095D02*
X141852380Y-128488095D01*
X141852380Y-128107142D01*
X141900000Y-128011904D01*
X141947619Y-127964285D01*
X142042857Y-127916666D01*
X142185714Y-127916666D01*
X142280952Y-127964285D01*
X142328571Y-128011904D01*
X142376190Y-128107142D01*
X142376190Y-128488095D01*
X141852380Y-127583333D02*
X141852380Y-126964285D01*
X142233333Y-127297619D01*
X142233333Y-127154761D01*
X142280952Y-127059523D01*
X142328571Y-127011904D01*
X142423809Y-126964285D01*
X142661904Y-126964285D01*
X142757142Y-127011904D01*
X142804761Y-127059523D01*
X142852380Y-127154761D01*
X142852380Y-127440476D01*
X142804761Y-127535714D01*
X142757142Y-127583333D01*
X135433333Y-76202380D02*
X135100000Y-75726190D01*
X134861904Y-76202380D02*
X134861904Y-75202380D01*
X135242857Y-75202380D01*
X135338095Y-75250000D01*
X135385714Y-75297619D01*
X135433333Y-75392857D01*
X135433333Y-75535714D01*
X135385714Y-75630952D01*
X135338095Y-75678571D01*
X135242857Y-75726190D01*
X134861904Y-75726190D01*
X136290476Y-75535714D02*
X136290476Y-76202380D01*
X136052380Y-75154761D02*
X135814285Y-75869047D01*
X136433333Y-75869047D01*
X172952380Y-116379166D02*
X172476190Y-116712500D01*
X172952380Y-116950595D02*
X171952380Y-116950595D01*
X171952380Y-116569642D01*
X172000000Y-116474404D01*
X172047619Y-116426785D01*
X172142857Y-116379166D01*
X172285714Y-116379166D01*
X172380952Y-116426785D01*
X172428571Y-116474404D01*
X172476190Y-116569642D01*
X172476190Y-116950595D01*
X171952380Y-115474404D02*
X171952380Y-115950595D01*
X172428571Y-115998214D01*
X172380952Y-115950595D01*
X172333333Y-115855357D01*
X172333333Y-115617261D01*
X172380952Y-115522023D01*
X172428571Y-115474404D01*
X172523809Y-115426785D01*
X172761904Y-115426785D01*
X172857142Y-115474404D01*
X172904761Y-115522023D01*
X172952380Y-115617261D01*
X172952380Y-115855357D01*
X172904761Y-115950595D01*
X172857142Y-115998214D01*
X137452380Y-116454166D02*
X136976190Y-116787500D01*
X137452380Y-117025595D02*
X136452380Y-117025595D01*
X136452380Y-116644642D01*
X136500000Y-116549404D01*
X136547619Y-116501785D01*
X136642857Y-116454166D01*
X136785714Y-116454166D01*
X136880952Y-116501785D01*
X136928571Y-116549404D01*
X136976190Y-116644642D01*
X136976190Y-117025595D01*
X136452380Y-115597023D02*
X136452380Y-115787500D01*
X136500000Y-115882738D01*
X136547619Y-115930357D01*
X136690476Y-116025595D01*
X136880952Y-116073214D01*
X137261904Y-116073214D01*
X137357142Y-116025595D01*
X137404761Y-115977976D01*
X137452380Y-115882738D01*
X137452380Y-115692261D01*
X137404761Y-115597023D01*
X137357142Y-115549404D01*
X137261904Y-115501785D01*
X137023809Y-115501785D01*
X136928571Y-115549404D01*
X136880952Y-115597023D01*
X136833333Y-115692261D01*
X136833333Y-115882738D01*
X136880952Y-115977976D01*
X136928571Y-116025595D01*
X137023809Y-116073214D01*
X141233333Y-96652380D02*
X140900000Y-96176190D01*
X140661904Y-96652380D02*
X140661904Y-95652380D01*
X141042857Y-95652380D01*
X141138095Y-95700000D01*
X141185714Y-95747619D01*
X141233333Y-95842857D01*
X141233333Y-95985714D01*
X141185714Y-96080952D01*
X141138095Y-96128571D01*
X141042857Y-96176190D01*
X140661904Y-96176190D01*
X141566666Y-95652380D02*
X142233333Y-95652380D01*
X141804761Y-96652380D01*
X155452380Y-116166666D02*
X154976190Y-116500000D01*
X155452380Y-116738095D02*
X154452380Y-116738095D01*
X154452380Y-116357142D01*
X154500000Y-116261904D01*
X154547619Y-116214285D01*
X154642857Y-116166666D01*
X154785714Y-116166666D01*
X154880952Y-116214285D01*
X154928571Y-116261904D01*
X154976190Y-116357142D01*
X154976190Y-116738095D01*
X154880952Y-115595238D02*
X154833333Y-115690476D01*
X154785714Y-115738095D01*
X154690476Y-115785714D01*
X154642857Y-115785714D01*
X154547619Y-115738095D01*
X154500000Y-115690476D01*
X154452380Y-115595238D01*
X154452380Y-115404761D01*
X154500000Y-115309523D01*
X154547619Y-115261904D01*
X154642857Y-115214285D01*
X154690476Y-115214285D01*
X154785714Y-115261904D01*
X154833333Y-115309523D01*
X154880952Y-115404761D01*
X154880952Y-115595238D01*
X154928571Y-115690476D01*
X154976190Y-115738095D01*
X155071428Y-115785714D01*
X155261904Y-115785714D01*
X155357142Y-115738095D01*
X155404761Y-115690476D01*
X155452380Y-115595238D01*
X155452380Y-115404761D01*
X155404761Y-115309523D01*
X155357142Y-115261904D01*
X155261904Y-115214285D01*
X155071428Y-115214285D01*
X154976190Y-115261904D01*
X154928571Y-115309523D01*
X154880952Y-115404761D01*
X188052380Y-117366666D02*
X187576190Y-117700000D01*
X188052380Y-117938095D02*
X187052380Y-117938095D01*
X187052380Y-117557142D01*
X187100000Y-117461904D01*
X187147619Y-117414285D01*
X187242857Y-117366666D01*
X187385714Y-117366666D01*
X187480952Y-117414285D01*
X187528571Y-117461904D01*
X187576190Y-117557142D01*
X187576190Y-117938095D01*
X188052380Y-116890476D02*
X188052380Y-116700000D01*
X188004761Y-116604761D01*
X187957142Y-116557142D01*
X187814285Y-116461904D01*
X187623809Y-116414285D01*
X187242857Y-116414285D01*
X187147619Y-116461904D01*
X187100000Y-116509523D01*
X187052380Y-116604761D01*
X187052380Y-116795238D01*
X187100000Y-116890476D01*
X187147619Y-116938095D01*
X187242857Y-116985714D01*
X187480952Y-116985714D01*
X187576190Y-116938095D01*
X187623809Y-116890476D01*
X187671428Y-116795238D01*
X187671428Y-116604761D01*
X187623809Y-116509523D01*
X187576190Y-116461904D01*
X187480952Y-116414285D01*
X161154761Y-91333333D02*
X161202380Y-91190476D01*
X161202380Y-90952380D01*
X161154761Y-90857142D01*
X161107142Y-90809523D01*
X161011904Y-90761904D01*
X160916666Y-90761904D01*
X160821428Y-90809523D01*
X160773809Y-90857142D01*
X160726190Y-90952380D01*
X160678571Y-91142857D01*
X160630952Y-91238095D01*
X160583333Y-91285714D01*
X160488095Y-91333333D01*
X160392857Y-91333333D01*
X160297619Y-91285714D01*
X160250000Y-91238095D01*
X160202380Y-91142857D01*
X160202380Y-90904761D01*
X160250000Y-90761904D01*
X160202380Y-90428571D02*
X161202380Y-90190476D01*
X160488095Y-90000000D01*
X161202380Y-89809523D01*
X160202380Y-89571428D01*
X161202380Y-88666666D02*
X161202380Y-89238095D01*
X161202380Y-88952380D02*
X160202380Y-88952380D01*
X160345238Y-89047619D01*
X160440476Y-89142857D01*
X160488095Y-89238095D01*
X129252380Y-87261904D02*
X130061904Y-87261904D01*
X130157142Y-87214285D01*
X130204761Y-87166666D01*
X130252380Y-87071428D01*
X130252380Y-86880952D01*
X130204761Y-86785714D01*
X130157142Y-86738095D01*
X130061904Y-86690476D01*
X129252380Y-86690476D01*
X130252380Y-85690476D02*
X130252380Y-86261904D01*
X130252380Y-85976190D02*
X129252380Y-85976190D01*
X129395238Y-86071428D01*
X129490476Y-86166666D01*
X129538095Y-86261904D01*
X145838095Y-88452380D02*
X145838095Y-89261904D01*
X145885714Y-89357142D01*
X145933333Y-89404761D01*
X146028571Y-89452380D01*
X146219047Y-89452380D01*
X146314285Y-89404761D01*
X146361904Y-89357142D01*
X146409523Y-89261904D01*
X146409523Y-88452380D01*
X146838095Y-88547619D02*
X146885714Y-88500000D01*
X146980952Y-88452380D01*
X147219047Y-88452380D01*
X147314285Y-88500000D01*
X147361904Y-88547619D01*
X147409523Y-88642857D01*
X147409523Y-88738095D01*
X147361904Y-88880952D01*
X146790476Y-89452380D01*
X147409523Y-89452380D01*
X155952380Y-110011904D02*
X156761904Y-110011904D01*
X156857142Y-109964285D01*
X156904761Y-109916666D01*
X156952380Y-109821428D01*
X156952380Y-109630952D01*
X156904761Y-109535714D01*
X156857142Y-109488095D01*
X156761904Y-109440476D01*
X155952380Y-109440476D01*
X155952380Y-109059523D02*
X155952380Y-108440476D01*
X156333333Y-108773809D01*
X156333333Y-108630952D01*
X156380952Y-108535714D01*
X156428571Y-108488095D01*
X156523809Y-108440476D01*
X156761904Y-108440476D01*
X156857142Y-108488095D01*
X156904761Y-108535714D01*
X156952380Y-108630952D01*
X156952380Y-108916666D01*
X156904761Y-109011904D01*
X156857142Y-109059523D01*
X120452380Y-109761904D02*
X121261904Y-109761904D01*
X121357142Y-109714285D01*
X121404761Y-109666666D01*
X121452380Y-109571428D01*
X121452380Y-109380952D01*
X121404761Y-109285714D01*
X121357142Y-109238095D01*
X121261904Y-109190476D01*
X120452380Y-109190476D01*
X120785714Y-108285714D02*
X121452380Y-108285714D01*
X120404761Y-108523809D02*
X121119047Y-108761904D01*
X121119047Y-108142857D01*
X138452380Y-109761904D02*
X139261904Y-109761904D01*
X139357142Y-109714285D01*
X139404761Y-109666666D01*
X139452380Y-109571428D01*
X139452380Y-109380952D01*
X139404761Y-109285714D01*
X139357142Y-109238095D01*
X139261904Y-109190476D01*
X138452380Y-109190476D01*
X138452380Y-108238095D02*
X138452380Y-108714285D01*
X138928571Y-108761904D01*
X138880952Y-108714285D01*
X138833333Y-108619047D01*
X138833333Y-108380952D01*
X138880952Y-108285714D01*
X138928571Y-108238095D01*
X139023809Y-108190476D01*
X139261904Y-108190476D01*
X139357142Y-108238095D01*
X139404761Y-108285714D01*
X139452380Y-108380952D01*
X139452380Y-108619047D01*
X139404761Y-108714285D01*
X139357142Y-108761904D01*
X173352380Y-108411904D02*
X174161904Y-108411904D01*
X174257142Y-108364285D01*
X174304761Y-108316666D01*
X174352380Y-108221428D01*
X174352380Y-108030952D01*
X174304761Y-107935714D01*
X174257142Y-107888095D01*
X174161904Y-107840476D01*
X173352380Y-107840476D01*
X173352380Y-106935714D02*
X173352380Y-107126190D01*
X173400000Y-107221428D01*
X173447619Y-107269047D01*
X173590476Y-107364285D01*
X173780952Y-107411904D01*
X174161904Y-107411904D01*
X174257142Y-107364285D01*
X174304761Y-107316666D01*
X174352380Y-107221428D01*
X174352380Y-107030952D01*
X174304761Y-106935714D01*
X174257142Y-106888095D01*
X174161904Y-106840476D01*
X173923809Y-106840476D01*
X173828571Y-106888095D01*
X173780952Y-106935714D01*
X173733333Y-107030952D01*
X173733333Y-107221428D01*
X173780952Y-107316666D01*
X173828571Y-107364285D01*
X173923809Y-107411904D01*
X112762143Y-85877381D02*
X112428810Y-85401191D01*
X112190715Y-85877381D02*
X112190715Y-84877381D01*
X112571667Y-84877381D01*
X112666905Y-84925001D01*
X112714524Y-84972620D01*
X112762143Y-85067858D01*
X112762143Y-85210715D01*
X112714524Y-85305953D01*
X112666905Y-85353572D01*
X112571667Y-85401191D01*
X112190715Y-85401191D01*
X113714524Y-85877381D02*
X113143096Y-85877381D01*
X113428810Y-85877381D02*
X113428810Y-84877381D01*
X113333572Y-85020239D01*
X113238334Y-85115477D01*
X113143096Y-85163096D01*
X114333572Y-84877381D02*
X114428810Y-84877381D01*
X114524048Y-84925001D01*
X114571667Y-84972620D01*
X114619286Y-85067858D01*
X114666905Y-85258334D01*
X114666905Y-85496429D01*
X114619286Y-85686905D01*
X114571667Y-85782143D01*
X114524048Y-85829762D01*
X114428810Y-85877381D01*
X114333572Y-85877381D01*
X114238334Y-85829762D01*
X114190715Y-85782143D01*
X114143096Y-85686905D01*
X114095477Y-85496429D01*
X114095477Y-85258334D01*
X114143096Y-85067858D01*
X114190715Y-84972620D01*
X114238334Y-84925001D01*
X114333572Y-84877381D01*
X112762143Y-91247381D02*
X112428810Y-90771191D01*
X112190715Y-91247381D02*
X112190715Y-90247381D01*
X112571667Y-90247381D01*
X112666905Y-90295001D01*
X112714524Y-90342620D01*
X112762143Y-90437858D01*
X112762143Y-90580715D01*
X112714524Y-90675953D01*
X112666905Y-90723572D01*
X112571667Y-90771191D01*
X112190715Y-90771191D01*
X113714524Y-91247381D02*
X113143096Y-91247381D01*
X113428810Y-91247381D02*
X113428810Y-90247381D01*
X113333572Y-90390239D01*
X113238334Y-90485477D01*
X113143096Y-90533096D01*
X114666905Y-91247381D02*
X114095477Y-91247381D01*
X114381191Y-91247381D02*
X114381191Y-90247381D01*
X114285953Y-90390239D01*
X114190715Y-90485477D01*
X114095477Y-90533096D01*
X116772143Y-85877381D02*
X116438810Y-85401191D01*
X116200715Y-85877381D02*
X116200715Y-84877381D01*
X116581667Y-84877381D01*
X116676905Y-84925001D01*
X116724524Y-84972620D01*
X116772143Y-85067858D01*
X116772143Y-85210715D01*
X116724524Y-85305953D01*
X116676905Y-85353572D01*
X116581667Y-85401191D01*
X116200715Y-85401191D01*
X117724524Y-85877381D02*
X117153096Y-85877381D01*
X117438810Y-85877381D02*
X117438810Y-84877381D01*
X117343572Y-85020239D01*
X117248334Y-85115477D01*
X117153096Y-85163096D01*
X118105477Y-84972620D02*
X118153096Y-84925001D01*
X118248334Y-84877381D01*
X118486429Y-84877381D01*
X118581667Y-84925001D01*
X118629286Y-84972620D01*
X118676905Y-85067858D01*
X118676905Y-85163096D01*
X118629286Y-85305953D01*
X118057858Y-85877381D01*
X118676905Y-85877381D01*
X116772143Y-91247381D02*
X116438810Y-90771191D01*
X116200715Y-91247381D02*
X116200715Y-90247381D01*
X116581667Y-90247381D01*
X116676905Y-90295001D01*
X116724524Y-90342620D01*
X116772143Y-90437858D01*
X116772143Y-90580715D01*
X116724524Y-90675953D01*
X116676905Y-90723572D01*
X116581667Y-90771191D01*
X116200715Y-90771191D01*
X117724524Y-91247381D02*
X117153096Y-91247381D01*
X117438810Y-91247381D02*
X117438810Y-90247381D01*
X117343572Y-90390239D01*
X117248334Y-90485477D01*
X117153096Y-90533096D01*
X118057858Y-90247381D02*
X118676905Y-90247381D01*
X118343572Y-90628334D01*
X118486429Y-90628334D01*
X118581667Y-90675953D01*
X118629286Y-90723572D01*
X118676905Y-90818810D01*
X118676905Y-91056905D01*
X118629286Y-91152143D01*
X118581667Y-91199762D01*
X118486429Y-91247381D01*
X118200715Y-91247381D01*
X118105477Y-91199762D01*
X118057858Y-91152143D01*
X120782143Y-85877381D02*
X120448810Y-85401191D01*
X120210715Y-85877381D02*
X120210715Y-84877381D01*
X120591667Y-84877381D01*
X120686905Y-84925001D01*
X120734524Y-84972620D01*
X120782143Y-85067858D01*
X120782143Y-85210715D01*
X120734524Y-85305953D01*
X120686905Y-85353572D01*
X120591667Y-85401191D01*
X120210715Y-85401191D01*
X121734524Y-85877381D02*
X121163096Y-85877381D01*
X121448810Y-85877381D02*
X121448810Y-84877381D01*
X121353572Y-85020239D01*
X121258334Y-85115477D01*
X121163096Y-85163096D01*
X122591667Y-85210715D02*
X122591667Y-85877381D01*
X122353572Y-84829762D02*
X122115477Y-85544048D01*
X122734524Y-85544048D01*
X120782143Y-91247381D02*
X120448810Y-90771191D01*
X120210715Y-91247381D02*
X120210715Y-90247381D01*
X120591667Y-90247381D01*
X120686905Y-90295001D01*
X120734524Y-90342620D01*
X120782143Y-90437858D01*
X120782143Y-90580715D01*
X120734524Y-90675953D01*
X120686905Y-90723572D01*
X120591667Y-90771191D01*
X120210715Y-90771191D01*
X121734524Y-91247381D02*
X121163096Y-91247381D01*
X121448810Y-91247381D02*
X121448810Y-90247381D01*
X121353572Y-90390239D01*
X121258334Y-90485477D01*
X121163096Y-90533096D01*
X122639286Y-90247381D02*
X122163096Y-90247381D01*
X122115477Y-90723572D01*
X122163096Y-90675953D01*
X122258334Y-90628334D01*
X122496429Y-90628334D01*
X122591667Y-90675953D01*
X122639286Y-90723572D01*
X122686905Y-90818810D01*
X122686905Y-91056905D01*
X122639286Y-91152143D01*
X122591667Y-91199762D01*
X122496429Y-91247381D01*
X122258334Y-91247381D01*
X122163096Y-91199762D01*
X122115477Y-91152143D01*
X176566666Y-89152380D02*
X176566666Y-89866666D01*
X176519047Y-90009523D01*
X176423809Y-90104761D01*
X176280952Y-90152380D01*
X176185714Y-90152380D01*
X176947619Y-89152380D02*
X177614285Y-89152380D01*
X177185714Y-90152380D01*
X183557142Y-83952380D02*
X183223809Y-83476190D01*
X182985714Y-83952380D02*
X182985714Y-82952380D01*
X183366666Y-82952380D01*
X183461904Y-83000000D01*
X183509523Y-83047619D01*
X183557142Y-83142857D01*
X183557142Y-83285714D01*
X183509523Y-83380952D01*
X183461904Y-83428571D01*
X183366666Y-83476190D01*
X182985714Y-83476190D01*
X184509523Y-83952380D02*
X183938095Y-83952380D01*
X184223809Y-83952380D02*
X184223809Y-82952380D01*
X184128571Y-83095238D01*
X184033333Y-83190476D01*
X183938095Y-83238095D01*
X185366666Y-82952380D02*
X185176190Y-82952380D01*
X185080952Y-83000000D01*
X185033333Y-83047619D01*
X184938095Y-83190476D01*
X184890476Y-83380952D01*
X184890476Y-83761904D01*
X184938095Y-83857142D01*
X184985714Y-83904761D01*
X185080952Y-83952380D01*
X185271428Y-83952380D01*
X185366666Y-83904761D01*
X185414285Y-83857142D01*
X185461904Y-83761904D01*
X185461904Y-83523809D01*
X185414285Y-83428571D01*
X185366666Y-83380952D01*
X185271428Y-83333333D01*
X185080952Y-83333333D01*
X184985714Y-83380952D01*
X184938095Y-83428571D01*
X184890476Y-83523809D01*
X183557142Y-89052380D02*
X183223809Y-88576190D01*
X182985714Y-89052380D02*
X182985714Y-88052380D01*
X183366666Y-88052380D01*
X183461904Y-88100000D01*
X183509523Y-88147619D01*
X183557142Y-88242857D01*
X183557142Y-88385714D01*
X183509523Y-88480952D01*
X183461904Y-88528571D01*
X183366666Y-88576190D01*
X182985714Y-88576190D01*
X184509523Y-89052380D02*
X183938095Y-89052380D01*
X184223809Y-89052380D02*
X184223809Y-88052380D01*
X184128571Y-88195238D01*
X184033333Y-88290476D01*
X183938095Y-88338095D01*
X184842857Y-88052380D02*
X185509523Y-88052380D01*
X185080952Y-89052380D01*
X185333333Y-92257142D02*
X185285714Y-92304761D01*
X185142857Y-92352380D01*
X185047619Y-92352380D01*
X184904761Y-92304761D01*
X184809523Y-92209523D01*
X184761904Y-92114285D01*
X184714285Y-91923809D01*
X184714285Y-91780952D01*
X184761904Y-91590476D01*
X184809523Y-91495238D01*
X184904761Y-91400000D01*
X185047619Y-91352380D01*
X185142857Y-91352380D01*
X185285714Y-91400000D01*
X185333333Y-91447619D01*
X185666666Y-91352380D02*
X186285714Y-91352380D01*
X185952380Y-91733333D01*
X186095238Y-91733333D01*
X186190476Y-91780952D01*
X186238095Y-91828571D01*
X186285714Y-91923809D01*
X186285714Y-92161904D01*
X186238095Y-92257142D01*
X186190476Y-92304761D01*
X186095238Y-92352380D01*
X185809523Y-92352380D01*
X185714285Y-92304761D01*
X185666666Y-92257142D01*
X180738095Y-95352380D02*
X180738095Y-96161904D01*
X180785714Y-96257142D01*
X180833333Y-96304761D01*
X180928571Y-96352380D01*
X181119047Y-96352380D01*
X181214285Y-96304761D01*
X181261904Y-96257142D01*
X181309523Y-96161904D01*
X181309523Y-95352380D01*
X181690476Y-95352380D02*
X182357142Y-95352380D01*
X181928571Y-96352380D01*
M02*
