M48
; DRILL file {KiCad (5.1.10-1-10_14)} date Thursday, September 30, 2021 at 01:47:24 PM
; FORMAT={-:-/ absolute / metric / decimal}
; #@! TF.CreationDate,2021-09-30T13:47:24+10:00
; #@! TF.GenerationSoftware,Kicad,Pcbnew,(5.1.10-1-10_14)
; #@! TF.FileFunction,Plated,1,4,PTH
FMAT,2
METRIC
T1C0.400
T2C0.450
T3C0.500
T4C0.600
T5C0.700
T6C1.000
T7C2.700
T8C3.200
%
G90
G05
T1
X121.25Y-103.35
X139.4Y-88.15
X148.65Y-83.65
X151.95Y-92.35
X153.55Y-83.25
T2
X108.45Y-104.45
X108.45Y-105.75
X108.55Y-80.45
X108.75Y-76.15
X109.65Y-107.15
X109.65Y-109.15
X109.65Y-111.35
X110.5Y-81.3
X110.65Y-103.15
X110.95Y-78.05
X111.65Y-76.15
X111.65Y-107.15
X111.65Y-109.15
X112.45Y-79.3
X112.65Y-103.15
X114.1Y-76.15
X114.65Y-103.15
X114.8Y-81.3
X116.15Y-76.15
X116.25Y-102.45
X116.55Y-107.55
X117.9Y-79.8
X118.65Y-107.85
X119.2Y-79.8
X120.15Y-102.25
X120.5Y-79.8
X121.05Y-95.25
X121.4Y-91.4
X121.55Y-77.85
X121.55Y-88.05
X121.8Y-79.8
X122.45Y-96.55
X122.55Y-104.85
X122.9Y-92.15
X123.05Y-88.75
X123.35Y-80.65
X123.95Y-97.75
X125.15Y-100.15
X125.25Y-80.65
X125.75Y-103.35
X126.15Y-87.95
X127.45Y-81.85
X127.55Y-83.35
X127.75Y-69.55
X127.95Y-98.65
X128.05Y-95.75
X129.65Y-69.65
X130.05Y-72.15
X130.55Y-100.45
X130.65Y-117.95
X130.75Y-93.55
X131.65Y-86.15
X131.839Y-87.852
X131.887Y-115.753
X132.6Y-81.3
X133.15Y-99.85
X133.15Y-101.15
X135.05Y-82.2
X135.95Y-102.4
X136.2Y-98.2
X136.98Y-84.77
X137.05Y-116.45
X137.45Y-101.35
X138.93Y-84.77
X139.4Y-91.4
X140.9Y-89.65
X141.75Y-114.95
X142.4Y-88.15
X142.4Y-91.4
X148.35Y-97.45
X148.35Y-117.95
X148.75Y-87.15
X148.9Y-82.4
X149.95Y-116.75
X151.9Y-82.4
X152.15Y-86.55
X153.65Y-101.05
X154.5Y-91.15
X154.55Y-84.55
X154.65Y-103.75
X154.85Y-116.25
X155.65Y-91.15
X155.75Y-78.65
X155.8Y-87.55
X157.2Y-73.35
X157.45Y-84.5
X158.1Y-80.65
X158.54Y-76.088
X159.55Y-87.65
X159.65Y-114.95
X159.75Y-74.15
X159.8Y-70.3
X161.05Y-73.35
X161.05Y-77.55
X161.25Y-76.05
X161.6Y-92.6
X162.05Y-82.85
X162.05Y-84.15
X162.15Y-99.45
X162.85Y-87.45
X163.65Y-77.25
X163.95Y-75.85
X163.95Y-86.95
X164.75Y-92.35
X166.3Y-75.85
X166.35Y-73.3
X166.35Y-108.65
X166.45Y-81.35
X166.55Y-96.15
X167.55Y-101.896
X168.15Y-96.45
X168.55Y-108.65
X168.85Y-122.25
X169.15Y-81.45
X169.6Y-89.8
X169.859Y-90.997
X170.1Y-73.3
X170.95Y-85.65
X171.024Y-101.528
X171.05Y-96.95
X172.35Y-90.45
X173.267Y-98.504
X173.85Y-122.45
X174.25Y-83.15
T3
X108.75Y-72.05
X108.75Y-130.85
X109.453Y-70.353
X109.453Y-73.747
X109.453Y-129.153
X109.453Y-132.547
X110.15Y-86.65
X110.15Y-89.15
X110.15Y-99.15
X110.15Y-114.15
X111.15Y-69.65
X111.15Y-74.45
X111.15Y-128.45
X111.15Y-133.25
X112.65Y-86.65
X112.65Y-89.15
X112.65Y-99.15
X112.65Y-111.95
X112.847Y-70.353
X112.847Y-73.747
X112.847Y-129.153
X112.847Y-132.547
X113.55Y-72.05
X113.55Y-130.85
X115.15Y-84.05
X115.15Y-86.65
X115.15Y-89.15
X115.15Y-99.15
X115.15Y-111.65
X115.15Y-114.15
X115.25Y-131.65
X117.65Y-131.65
X118.05Y-84.05
X120.15Y-119.15
X120.15Y-126.65
X120.15Y-129.15
X120.15Y-131.65
X122.25Y-120.55
X122.65Y-126.65
X122.65Y-129.15
X122.65Y-131.65
X122.85Y-123.15
X125.15Y-126.65
X125.15Y-129.15
X125.15Y-131.65
X127.65Y-126.65
X127.65Y-129.15
X127.65Y-131.65
X130.15Y-126.65
X130.15Y-131.65
X135.15Y-126.65
X135.15Y-131.65
X137.65Y-126.65
X137.65Y-126.65
X137.65Y-129.15
X137.65Y-131.65
X140.15Y-126.65
X140.15Y-129.15
X140.15Y-131.65
X141.55Y-122.05
X141.55Y-124.45
X142.65Y-126.65
X142.65Y-129.15
X142.65Y-131.65
X145.15Y-126.65
X145.15Y-129.15
X145.15Y-131.65
X147.65Y-126.65
X147.65Y-131.65
X148.35Y-124.55
X148.45Y-121.75
X152.75Y-122.95
X153.25Y-125.45
X155.15Y-126.65
X155.15Y-129.15
X155.15Y-131.65
X157.65Y-126.65
X157.65Y-129.15
X157.65Y-131.65
X160.15Y-121.65
X160.15Y-124.15
X160.15Y-126.65
X160.15Y-129.15
X160.15Y-131.65
X160.65Y-103.15
X162.65Y-126.65
X162.65Y-129.15
X162.65Y-131.65
X163.15Y-103.15
X165.15Y-126.65
X165.15Y-131.65
X165.65Y-103.15
X167.65Y-110.15
X167.65Y-124.15
X167.65Y-126.65
X167.65Y-131.65
X169.55Y-78.55
X169.55Y-130.85
X170.253Y-76.853
X170.253Y-80.247
X170.253Y-129.153
X170.253Y-132.547
X170.85Y-117.35
X171.95Y-76.15
X171.95Y-80.95
X171.95Y-128.45
X171.95Y-133.25
X172.65Y-104.65
X172.65Y-106.65
X172.65Y-109.15
X172.65Y-111.65
X172.65Y-114.15
X173.647Y-76.853
X173.647Y-80.247
X173.647Y-129.153
X173.647Y-132.547
X174.35Y-78.55
X174.35Y-130.85
T5
X171.05Y-89.95
X171.05Y-94.75
T6
X109.65Y-117.65
X110.65Y-91.65
X113.15Y-117.65
X114.15Y-94.65
X115.9Y-121.4
X115.9Y-126.4
X116.9Y-117.65
X119.15Y-99.15
X120.35Y-84.35
X123.45Y-84.55
X123.65Y-111.15
X123.65Y-115.15
X127.65Y-103.15
X127.65Y-107.15
X127.65Y-111.15
X127.65Y-115.15
X127.95Y-93.65
X131.65Y-107.15
X131.65Y-111.15
X132.55Y-121.75
X132.55Y-125.05
X132.55Y-128.65
X132.55Y-132.25
X135.65Y-107.15
X135.65Y-111.15
X135.65Y-115.15
X139.65Y-107.15
X139.65Y-111.15
X139.65Y-115.15
X143.65Y-103.15
X143.65Y-107.15
X143.65Y-111.15
X143.65Y-115.15
X147.65Y-103.15
X147.65Y-107.15
X147.65Y-111.15
X147.65Y-115.15
X150.85Y-121.55
X150.85Y-124.85
X150.85Y-128.65
X150.95Y-132.25
X151.65Y-103.15
X151.65Y-107.15
X151.65Y-111.15
X151.65Y-115.15
X155.65Y-107.15
X155.65Y-111.15
X156.65Y-115.15
X158.01Y-90.621
X158.01Y-93.161
X158.01Y-95.701
X158.01Y-98.241
X159.65Y-111.15
X162.65Y-110.15
X162.65Y-114.15
X167.15Y-120.65
T7
X118.15Y-87.35
X118.15Y-94.55
X118.15Y-104.65
X118.15Y-111.85
X120.05Y-123.16
X127.25Y-123.16
X138.05Y-123.15
X145.25Y-123.15
X156.07Y-123.12
X163.27Y-123.12
X167.25Y-105.95
X167.25Y-113.15
T8
X111.15Y-72.05
X111.15Y-130.85
X171.95Y-78.55
X171.95Y-130.85
T3
G00X173.55Y-95.95
M15
G01X174.35Y-95.95
M16
G05
G00X173.65Y-88.75
M15
G01X174.45Y-88.75
M16
G05
T4
G00X111.6Y-84.2
M15
G01X112.7Y-84.2
M16
G05
G00X111.6Y-97.7
M15
G01X112.7Y-97.7
M16
G05
G00X111.6Y-101.5
M15
G01X112.7Y-101.5
M16
G05
G00X111.6Y-115.0
M15
G01X112.7Y-115.0
M16
G05
G00X116.9Y-129.71
M15
G01X116.9Y-128.61
M16
G05
G00X130.4Y-129.71
M15
G01X130.4Y-128.61
M16
G05
G00X134.9Y-128.6
M15
G01X134.9Y-129.7
M16
G05
G00X148.4Y-128.6
M15
G01X148.4Y-129.7
M16
G05
G00X152.92Y-128.57
M15
G01X152.92Y-129.67
M16
G05
G00X166.42Y-128.57
M15
G01X166.42Y-129.67
M16
G05
G00X172.7Y-102.8
M15
G01X173.8Y-102.8
M16
G05
G00X172.7Y-116.3
M15
G01X173.8Y-116.3
M16
G05
T0
M30
