G04 #@! TF.GenerationSoftware,KiCad,Pcbnew,(5.1.10-1-10_14)*
G04 #@! TF.CreationDate,2021-08-04T20:57:59+10:00*
G04 #@! TF.ProjectId,esp32_battery_isolator,65737033-325f-4626-9174-746572795f69,D*
G04 #@! TF.SameCoordinates,Original*
G04 #@! TF.FileFunction,Copper,L4,Bot*
G04 #@! TF.FilePolarity,Positive*
%FSLAX46Y46*%
G04 Gerber Fmt 4.6, Leading zero omitted, Abs format (unit mm)*
G04 Created by KiCad (PCBNEW (5.1.10-1-10_14)) date 2021-08-04 20:57:59*
%MOMM*%
%LPD*%
G01*
G04 APERTURE LIST*
G04 #@! TA.AperFunction,ComponentPad*
%ADD10C,3.716000*%
G04 #@! TD*
G04 #@! TA.AperFunction,ComponentPad*
%ADD11O,2.600000X1.300000*%
G04 #@! TD*
G04 #@! TA.AperFunction,ComponentPad*
%ADD12O,1.300000X2.600000*%
G04 #@! TD*
G04 #@! TA.AperFunction,ComponentPad*
%ADD13O,1.200000X2.400000*%
G04 #@! TD*
G04 #@! TA.AperFunction,ComponentPad*
%ADD14R,3.716000X3.716000*%
G04 #@! TD*
G04 #@! TA.AperFunction,ComponentPad*
%ADD15O,1.900000X1.070000*%
G04 #@! TD*
G04 #@! TA.AperFunction,ComponentPad*
%ADD16C,1.300000*%
G04 #@! TD*
G04 #@! TA.AperFunction,ComponentPad*
%ADD17C,0.800000*%
G04 #@! TD*
G04 #@! TA.AperFunction,ComponentPad*
%ADD18C,6.400000*%
G04 #@! TD*
G04 #@! TA.AperFunction,ComponentPad*
%ADD19R,1.700000X1.700000*%
G04 #@! TD*
G04 #@! TA.AperFunction,ComponentPad*
%ADD20O,1.700000X1.700000*%
G04 #@! TD*
G04 #@! TA.AperFunction,ComponentPad*
%ADD21O,2.400000X1.200000*%
G04 #@! TD*
G04 #@! TA.AperFunction,ViaPad*
%ADD22C,0.800000*%
G04 #@! TD*
G04 #@! TA.AperFunction,Conductor*
%ADD23C,1.000000*%
G04 #@! TD*
G04 #@! TA.AperFunction,Conductor*
%ADD24C,0.300000*%
G04 #@! TD*
G04 #@! TA.AperFunction,Conductor*
%ADD25C,0.254000*%
G04 #@! TD*
G04 #@! TA.AperFunction,Conductor*
%ADD26C,0.100000*%
G04 #@! TD*
G04 APERTURE END LIST*
D10*
X167250000Y-113150000D03*
X167250000Y-105950000D03*
D11*
X173250000Y-116300000D03*
X173250000Y-102800000D03*
D12*
X166420000Y-129120000D03*
X152920000Y-129120000D03*
D10*
X163270000Y-123120000D03*
X156070000Y-123120000D03*
D13*
X116900000Y-129160000D03*
X130400000Y-129160000D03*
D10*
X120050000Y-123160000D03*
D14*
X127250000Y-123160000D03*
D15*
X174050000Y-88750000D03*
X173950000Y-95950000D03*
D16*
X171050000Y-89950000D03*
X171050000Y-94750000D03*
D17*
X112847056Y-129152944D03*
X111150000Y-128450000D03*
X109452944Y-129152944D03*
X108750000Y-130850000D03*
X109452944Y-132547056D03*
X111150000Y-133250000D03*
X112847056Y-132547056D03*
X113550000Y-130850000D03*
D18*
X111150000Y-130850000D03*
D17*
X173647056Y-76852944D03*
X171950000Y-76150000D03*
X170252944Y-76852944D03*
X169550000Y-78550000D03*
X170252944Y-80247056D03*
X171950000Y-80950000D03*
X173647056Y-80247056D03*
X174350000Y-78550000D03*
D18*
X171950000Y-78550000D03*
X171950000Y-130850000D03*
D17*
X174350000Y-130850000D03*
X173647056Y-132547056D03*
X171950000Y-133250000D03*
X170252944Y-132547056D03*
X169550000Y-130850000D03*
X170252944Y-129152944D03*
X171950000Y-128450000D03*
X173647056Y-129152944D03*
X112847056Y-76952944D03*
X111150000Y-76250000D03*
X109452944Y-76952944D03*
X108750000Y-78650000D03*
X109452944Y-80347056D03*
X111150000Y-81050000D03*
X112847056Y-80347056D03*
X113550000Y-78650000D03*
D18*
X111150000Y-78650000D03*
D19*
X160150000Y-90350000D03*
D20*
X160150000Y-92890000D03*
X160150000Y-95430000D03*
X160150000Y-97970000D03*
D14*
X118150000Y-94550000D03*
D10*
X118150000Y-87350000D03*
D21*
X112150000Y-97700000D03*
X112150000Y-84200000D03*
X112150000Y-101500000D03*
X112150000Y-115000000D03*
D10*
X118150000Y-104650000D03*
D14*
X118150000Y-111850000D03*
D12*
X148400000Y-129150000D03*
X134900000Y-129150000D03*
D10*
X145250000Y-123150000D03*
X138050000Y-123150000D03*
D22*
X131650000Y-86150000D03*
X139400000Y-91400000D03*
X142400000Y-91400000D03*
X140900000Y-89650000D03*
X142400000Y-88150000D03*
X139400000Y-88150000D03*
X119000000Y-75650000D03*
X128000000Y-88000000D03*
X129400000Y-95850000D03*
X125800000Y-101250000D03*
X136200000Y-98200000D03*
X133050000Y-104050000D03*
X135950000Y-102400000D03*
X137900000Y-105550000D03*
X144200000Y-105550000D03*
X148400000Y-105550000D03*
X154800000Y-105550000D03*
X157050000Y-103700000D03*
X157050000Y-103700000D03*
X165600000Y-97750000D03*
X169850000Y-91100000D03*
X174250000Y-83150000D03*
X166300000Y-75850000D03*
X157450000Y-84500000D03*
X155800000Y-87550000D03*
X165400000Y-90800000D03*
X137050000Y-116450000D03*
X154850000Y-116250000D03*
X159650000Y-114950000D03*
X141750000Y-114950000D03*
X172350000Y-90450000D03*
X155750000Y-78650000D03*
X163950000Y-75850000D03*
X161250000Y-76050000D03*
X158540484Y-76087664D03*
X152150000Y-82450000D03*
X173266964Y-98503510D03*
X167550000Y-95749994D03*
X174700000Y-125400000D03*
X135450000Y-83650000D03*
X155850000Y-98850000D03*
X163050000Y-94250000D03*
X154550000Y-84550000D03*
X129050000Y-92050000D03*
X124550000Y-98150000D03*
X169050000Y-81750000D03*
X154350000Y-98850000D03*
X152150000Y-86050000D03*
X166150000Y-91750000D03*
X152150000Y-87250000D03*
X165350000Y-92650000D03*
X155550000Y-92650000D03*
X162050000Y-82850000D03*
X157475000Y-92675000D03*
X162050000Y-84150000D03*
X131850000Y-119050000D03*
X108450000Y-105750000D03*
X108450000Y-104450000D03*
X108450000Y-103150000D03*
X115850000Y-78950000D03*
X149750000Y-118950000D03*
X168350000Y-85750000D03*
X171050000Y-101750000D03*
X166450000Y-80850000D03*
X120250000Y-102050000D03*
X122950000Y-102050000D03*
X121850000Y-103150000D03*
X120850000Y-106650000D03*
X121550000Y-86850000D03*
X122950000Y-87550000D03*
X163650000Y-77250000D03*
X123850000Y-85250000D03*
X121250000Y-85250000D03*
X115550000Y-86150000D03*
X112950000Y-87750000D03*
X135150000Y-92450000D03*
X148350000Y-97450000D03*
X128250000Y-104950000D03*
X129550000Y-105550000D03*
X125150000Y-106850000D03*
X126850000Y-106850000D03*
X144450000Y-117450000D03*
X145750000Y-118250000D03*
X144150000Y-115150000D03*
X146750000Y-115150000D03*
X161650000Y-115450000D03*
X164150000Y-115450000D03*
X162450000Y-117350000D03*
X162350000Y-107750000D03*
X163650000Y-108550000D03*
X161550000Y-110450000D03*
X163950000Y-110450000D03*
X159550000Y-108450000D03*
X172950000Y-119850000D03*
X163650000Y-117950000D03*
X124350000Y-101550000D03*
X157950000Y-79250000D03*
X141950000Y-121250000D03*
X141950000Y-124950000D03*
X147850000Y-121450000D03*
X148150000Y-125150000D03*
X141950000Y-129250000D03*
X145250000Y-129250000D03*
X122450000Y-94850000D03*
X121050000Y-94850000D03*
X121650000Y-92350000D03*
X122750000Y-93050000D03*
X124050000Y-92950000D03*
X160350000Y-121250000D03*
X166000000Y-122150000D03*
X160350000Y-124950000D03*
X166050000Y-125150000D03*
X160350000Y-129250000D03*
X163550000Y-129250000D03*
X163050000Y-103250000D03*
X165650000Y-103350000D03*
X168150000Y-103350000D03*
X166350000Y-108650000D03*
X168550000Y-108650000D03*
X132650000Y-101049999D03*
X132250000Y-116150000D03*
X127250000Y-95350000D03*
X126050000Y-97250000D03*
X129550000Y-99850000D03*
X128250000Y-99250000D03*
X128350000Y-97250000D03*
X137450000Y-101350000D03*
X149950000Y-116750000D03*
X161050000Y-77550000D03*
X130250000Y-88750000D03*
X121150000Y-90050000D03*
X122450000Y-90050000D03*
X123850000Y-90050000D03*
X119450000Y-90850000D03*
X115850000Y-90850000D03*
X110950000Y-90850000D03*
X131450000Y-101450000D03*
X131450000Y-102950000D03*
X127850000Y-102450000D03*
X129750000Y-102450000D03*
X159050000Y-100400000D03*
X155200000Y-96100000D03*
D23*
X117950000Y-104450000D02*
X118150000Y-104650000D01*
D24*
X171050000Y-117950000D02*
X172950000Y-119850000D01*
X163650000Y-117950000D02*
X171050000Y-117950000D01*
D25*
X132350938Y-104262058D02*
X132405741Y-104394364D01*
X132485302Y-104513436D01*
X132586564Y-104614698D01*
X132705636Y-104694259D01*
X132837942Y-104749062D01*
X132978397Y-104777000D01*
X133121603Y-104777000D01*
X133262058Y-104749062D01*
X133394364Y-104694259D01*
X133513436Y-104614698D01*
X133614698Y-104513436D01*
X133694259Y-104394364D01*
X133749062Y-104262058D01*
X133765981Y-104177000D01*
X134123000Y-104177000D01*
X134123000Y-108150000D01*
X134125440Y-108174776D01*
X134132667Y-108198601D01*
X134144403Y-108220557D01*
X134160197Y-108239803D01*
X134179443Y-108255597D01*
X134201399Y-108267333D01*
X134225224Y-108274560D01*
X134250000Y-108277000D01*
X154650000Y-108277000D01*
X154674776Y-108274560D01*
X154698601Y-108267333D01*
X154720557Y-108255597D01*
X154739803Y-108239803D01*
X154755597Y-108220557D01*
X154767333Y-108198601D01*
X154774560Y-108174776D01*
X154777000Y-108150000D01*
X154777000Y-106277000D01*
X154871603Y-106277000D01*
X155012058Y-106249062D01*
X155144364Y-106194259D01*
X155263436Y-106114698D01*
X155364698Y-106013436D01*
X155444259Y-105894364D01*
X155499062Y-105762058D01*
X155527000Y-105621603D01*
X155527000Y-105478397D01*
X155499062Y-105337942D01*
X155444259Y-105205636D01*
X155364698Y-105086564D01*
X155263436Y-104985302D01*
X155144364Y-104905741D01*
X155012058Y-104850938D01*
X154871603Y-104823000D01*
X154777000Y-104823000D01*
X154777000Y-104177000D01*
X156498866Y-104177000D01*
X156586564Y-104264698D01*
X156705636Y-104344259D01*
X156837942Y-104399062D01*
X156978397Y-104427000D01*
X157121603Y-104427000D01*
X157262058Y-104399062D01*
X157394364Y-104344259D01*
X157513436Y-104264698D01*
X157601134Y-104177000D01*
X164723000Y-104177000D01*
X164723000Y-118623000D01*
X150401451Y-118623000D01*
X150394259Y-118605636D01*
X150314698Y-118486564D01*
X150213436Y-118385302D01*
X150094364Y-118305741D01*
X149962058Y-118250938D01*
X149821603Y-118223000D01*
X149678397Y-118223000D01*
X149537942Y-118250938D01*
X149405636Y-118305741D01*
X149286564Y-118385302D01*
X149185302Y-118486564D01*
X149105741Y-118605636D01*
X149098549Y-118623000D01*
X132439044Y-118623000D01*
X132414698Y-118586564D01*
X132313436Y-118485302D01*
X132194364Y-118405741D01*
X132062058Y-118350938D01*
X131921603Y-118323000D01*
X131778397Y-118323000D01*
X131637942Y-118350938D01*
X131505636Y-118405741D01*
X131386564Y-118485302D01*
X131285302Y-118586564D01*
X131260956Y-118623000D01*
X124177000Y-118623000D01*
X124177000Y-116078397D01*
X131523000Y-116078397D01*
X131523000Y-116221603D01*
X131550938Y-116362058D01*
X131605741Y-116494364D01*
X131685302Y-116613436D01*
X131786564Y-116714698D01*
X131905636Y-116794259D01*
X132037942Y-116849062D01*
X132178397Y-116877000D01*
X132321603Y-116877000D01*
X132462058Y-116849062D01*
X132594364Y-116794259D01*
X132713436Y-116714698D01*
X132814698Y-116613436D01*
X132894259Y-116494364D01*
X132942294Y-116378397D01*
X136323000Y-116378397D01*
X136323000Y-116521603D01*
X136350938Y-116662058D01*
X136405741Y-116794364D01*
X136485302Y-116913436D01*
X136586564Y-117014698D01*
X136705636Y-117094259D01*
X136837942Y-117149062D01*
X136978397Y-117177000D01*
X137121603Y-117177000D01*
X137262058Y-117149062D01*
X137394364Y-117094259D01*
X137513436Y-117014698D01*
X137614698Y-116913436D01*
X137694259Y-116794364D01*
X137742294Y-116678397D01*
X149223000Y-116678397D01*
X149223000Y-116821603D01*
X149250938Y-116962058D01*
X149305741Y-117094364D01*
X149385302Y-117213436D01*
X149486564Y-117314698D01*
X149605636Y-117394259D01*
X149737942Y-117449062D01*
X149878397Y-117477000D01*
X150021603Y-117477000D01*
X150162058Y-117449062D01*
X150294364Y-117394259D01*
X150413436Y-117314698D01*
X150514698Y-117213436D01*
X150594259Y-117094364D01*
X150649062Y-116962058D01*
X150677000Y-116821603D01*
X150677000Y-116678397D01*
X150649062Y-116537942D01*
X150594259Y-116405636D01*
X150514698Y-116286564D01*
X150413436Y-116185302D01*
X150403102Y-116178397D01*
X154123000Y-116178397D01*
X154123000Y-116321603D01*
X154150938Y-116462058D01*
X154205741Y-116594364D01*
X154285302Y-116713436D01*
X154386564Y-116814698D01*
X154505636Y-116894259D01*
X154637942Y-116949062D01*
X154778397Y-116977000D01*
X154921603Y-116977000D01*
X155062058Y-116949062D01*
X155194364Y-116894259D01*
X155313436Y-116814698D01*
X155414698Y-116713436D01*
X155494259Y-116594364D01*
X155549062Y-116462058D01*
X155577000Y-116321603D01*
X155577000Y-116178397D01*
X155549062Y-116037942D01*
X155494259Y-115905636D01*
X155414698Y-115786564D01*
X155313436Y-115685302D01*
X155194364Y-115605741D01*
X155062058Y-115550938D01*
X154921603Y-115523000D01*
X154778397Y-115523000D01*
X154637942Y-115550938D01*
X154505636Y-115605741D01*
X154386564Y-115685302D01*
X154285302Y-115786564D01*
X154205741Y-115905636D01*
X154150938Y-116037942D01*
X154123000Y-116178397D01*
X150403102Y-116178397D01*
X150294364Y-116105741D01*
X150162058Y-116050938D01*
X150021603Y-116023000D01*
X149878397Y-116023000D01*
X149737942Y-116050938D01*
X149605636Y-116105741D01*
X149486564Y-116185302D01*
X149385302Y-116286564D01*
X149305741Y-116405636D01*
X149250938Y-116537942D01*
X149223000Y-116678397D01*
X137742294Y-116678397D01*
X137749062Y-116662058D01*
X137777000Y-116521603D01*
X137777000Y-116378397D01*
X137749062Y-116237942D01*
X137694259Y-116105636D01*
X137614698Y-115986564D01*
X137513436Y-115885302D01*
X137394364Y-115805741D01*
X137262058Y-115750938D01*
X137121603Y-115723000D01*
X136978397Y-115723000D01*
X136837942Y-115750938D01*
X136705636Y-115805741D01*
X136586564Y-115885302D01*
X136485302Y-115986564D01*
X136405741Y-116105636D01*
X136350938Y-116237942D01*
X136323000Y-116378397D01*
X132942294Y-116378397D01*
X132949062Y-116362058D01*
X132977000Y-116221603D01*
X132977000Y-116078397D01*
X132949062Y-115937942D01*
X132894259Y-115805636D01*
X132814698Y-115686564D01*
X132713436Y-115585302D01*
X132594364Y-115505741D01*
X132462058Y-115450938D01*
X132321603Y-115423000D01*
X132178397Y-115423000D01*
X132037942Y-115450938D01*
X131905636Y-115505741D01*
X131786564Y-115585302D01*
X131685302Y-115686564D01*
X131605741Y-115805636D01*
X131550938Y-115937942D01*
X131523000Y-116078397D01*
X124177000Y-116078397D01*
X124177000Y-114878397D01*
X141023000Y-114878397D01*
X141023000Y-115021603D01*
X141050938Y-115162058D01*
X141105741Y-115294364D01*
X141185302Y-115413436D01*
X141286564Y-115514698D01*
X141405636Y-115594259D01*
X141537942Y-115649062D01*
X141678397Y-115677000D01*
X141821603Y-115677000D01*
X141962058Y-115649062D01*
X142094364Y-115594259D01*
X142213436Y-115514698D01*
X142314698Y-115413436D01*
X142394259Y-115294364D01*
X142449062Y-115162058D01*
X142477000Y-115021603D01*
X142477000Y-114878397D01*
X158923000Y-114878397D01*
X158923000Y-115021603D01*
X158950938Y-115162058D01*
X159005741Y-115294364D01*
X159085302Y-115413436D01*
X159186564Y-115514698D01*
X159305636Y-115594259D01*
X159437942Y-115649062D01*
X159578397Y-115677000D01*
X159721603Y-115677000D01*
X159862058Y-115649062D01*
X159994364Y-115594259D01*
X160113436Y-115514698D01*
X160214698Y-115413436D01*
X160294259Y-115294364D01*
X160349062Y-115162058D01*
X160377000Y-115021603D01*
X160377000Y-114878397D01*
X160349062Y-114737942D01*
X160294259Y-114605636D01*
X160214698Y-114486564D01*
X160113436Y-114385302D01*
X159994364Y-114305741D01*
X159862058Y-114250938D01*
X159721603Y-114223000D01*
X159578397Y-114223000D01*
X159437942Y-114250938D01*
X159305636Y-114305741D01*
X159186564Y-114385302D01*
X159085302Y-114486564D01*
X159005741Y-114605636D01*
X158950938Y-114737942D01*
X158923000Y-114878397D01*
X142477000Y-114878397D01*
X142449062Y-114737942D01*
X142394259Y-114605636D01*
X142314698Y-114486564D01*
X142213436Y-114385302D01*
X142094364Y-114305741D01*
X141962058Y-114250938D01*
X141821603Y-114223000D01*
X141678397Y-114223000D01*
X141537942Y-114250938D01*
X141405636Y-114305741D01*
X141286564Y-114385302D01*
X141185302Y-114486564D01*
X141105741Y-114605636D01*
X141050938Y-114737942D01*
X141023000Y-114878397D01*
X124177000Y-114878397D01*
X124177000Y-104177000D01*
X132334019Y-104177000D01*
X132350938Y-104262058D01*
G04 #@! TA.AperFunction,Conductor*
D26*
G36*
X132350938Y-104262058D02*
G01*
X132405741Y-104394364D01*
X132485302Y-104513436D01*
X132586564Y-104614698D01*
X132705636Y-104694259D01*
X132837942Y-104749062D01*
X132978397Y-104777000D01*
X133121603Y-104777000D01*
X133262058Y-104749062D01*
X133394364Y-104694259D01*
X133513436Y-104614698D01*
X133614698Y-104513436D01*
X133694259Y-104394364D01*
X133749062Y-104262058D01*
X133765981Y-104177000D01*
X134123000Y-104177000D01*
X134123000Y-108150000D01*
X134125440Y-108174776D01*
X134132667Y-108198601D01*
X134144403Y-108220557D01*
X134160197Y-108239803D01*
X134179443Y-108255597D01*
X134201399Y-108267333D01*
X134225224Y-108274560D01*
X134250000Y-108277000D01*
X154650000Y-108277000D01*
X154674776Y-108274560D01*
X154698601Y-108267333D01*
X154720557Y-108255597D01*
X154739803Y-108239803D01*
X154755597Y-108220557D01*
X154767333Y-108198601D01*
X154774560Y-108174776D01*
X154777000Y-108150000D01*
X154777000Y-106277000D01*
X154871603Y-106277000D01*
X155012058Y-106249062D01*
X155144364Y-106194259D01*
X155263436Y-106114698D01*
X155364698Y-106013436D01*
X155444259Y-105894364D01*
X155499062Y-105762058D01*
X155527000Y-105621603D01*
X155527000Y-105478397D01*
X155499062Y-105337942D01*
X155444259Y-105205636D01*
X155364698Y-105086564D01*
X155263436Y-104985302D01*
X155144364Y-104905741D01*
X155012058Y-104850938D01*
X154871603Y-104823000D01*
X154777000Y-104823000D01*
X154777000Y-104177000D01*
X156498866Y-104177000D01*
X156586564Y-104264698D01*
X156705636Y-104344259D01*
X156837942Y-104399062D01*
X156978397Y-104427000D01*
X157121603Y-104427000D01*
X157262058Y-104399062D01*
X157394364Y-104344259D01*
X157513436Y-104264698D01*
X157601134Y-104177000D01*
X164723000Y-104177000D01*
X164723000Y-118623000D01*
X150401451Y-118623000D01*
X150394259Y-118605636D01*
X150314698Y-118486564D01*
X150213436Y-118385302D01*
X150094364Y-118305741D01*
X149962058Y-118250938D01*
X149821603Y-118223000D01*
X149678397Y-118223000D01*
X149537942Y-118250938D01*
X149405636Y-118305741D01*
X149286564Y-118385302D01*
X149185302Y-118486564D01*
X149105741Y-118605636D01*
X149098549Y-118623000D01*
X132439044Y-118623000D01*
X132414698Y-118586564D01*
X132313436Y-118485302D01*
X132194364Y-118405741D01*
X132062058Y-118350938D01*
X131921603Y-118323000D01*
X131778397Y-118323000D01*
X131637942Y-118350938D01*
X131505636Y-118405741D01*
X131386564Y-118485302D01*
X131285302Y-118586564D01*
X131260956Y-118623000D01*
X124177000Y-118623000D01*
X124177000Y-116078397D01*
X131523000Y-116078397D01*
X131523000Y-116221603D01*
X131550938Y-116362058D01*
X131605741Y-116494364D01*
X131685302Y-116613436D01*
X131786564Y-116714698D01*
X131905636Y-116794259D01*
X132037942Y-116849062D01*
X132178397Y-116877000D01*
X132321603Y-116877000D01*
X132462058Y-116849062D01*
X132594364Y-116794259D01*
X132713436Y-116714698D01*
X132814698Y-116613436D01*
X132894259Y-116494364D01*
X132942294Y-116378397D01*
X136323000Y-116378397D01*
X136323000Y-116521603D01*
X136350938Y-116662058D01*
X136405741Y-116794364D01*
X136485302Y-116913436D01*
X136586564Y-117014698D01*
X136705636Y-117094259D01*
X136837942Y-117149062D01*
X136978397Y-117177000D01*
X137121603Y-117177000D01*
X137262058Y-117149062D01*
X137394364Y-117094259D01*
X137513436Y-117014698D01*
X137614698Y-116913436D01*
X137694259Y-116794364D01*
X137742294Y-116678397D01*
X149223000Y-116678397D01*
X149223000Y-116821603D01*
X149250938Y-116962058D01*
X149305741Y-117094364D01*
X149385302Y-117213436D01*
X149486564Y-117314698D01*
X149605636Y-117394259D01*
X149737942Y-117449062D01*
X149878397Y-117477000D01*
X150021603Y-117477000D01*
X150162058Y-117449062D01*
X150294364Y-117394259D01*
X150413436Y-117314698D01*
X150514698Y-117213436D01*
X150594259Y-117094364D01*
X150649062Y-116962058D01*
X150677000Y-116821603D01*
X150677000Y-116678397D01*
X150649062Y-116537942D01*
X150594259Y-116405636D01*
X150514698Y-116286564D01*
X150413436Y-116185302D01*
X150403102Y-116178397D01*
X154123000Y-116178397D01*
X154123000Y-116321603D01*
X154150938Y-116462058D01*
X154205741Y-116594364D01*
X154285302Y-116713436D01*
X154386564Y-116814698D01*
X154505636Y-116894259D01*
X154637942Y-116949062D01*
X154778397Y-116977000D01*
X154921603Y-116977000D01*
X155062058Y-116949062D01*
X155194364Y-116894259D01*
X155313436Y-116814698D01*
X155414698Y-116713436D01*
X155494259Y-116594364D01*
X155549062Y-116462058D01*
X155577000Y-116321603D01*
X155577000Y-116178397D01*
X155549062Y-116037942D01*
X155494259Y-115905636D01*
X155414698Y-115786564D01*
X155313436Y-115685302D01*
X155194364Y-115605741D01*
X155062058Y-115550938D01*
X154921603Y-115523000D01*
X154778397Y-115523000D01*
X154637942Y-115550938D01*
X154505636Y-115605741D01*
X154386564Y-115685302D01*
X154285302Y-115786564D01*
X154205741Y-115905636D01*
X154150938Y-116037942D01*
X154123000Y-116178397D01*
X150403102Y-116178397D01*
X150294364Y-116105741D01*
X150162058Y-116050938D01*
X150021603Y-116023000D01*
X149878397Y-116023000D01*
X149737942Y-116050938D01*
X149605636Y-116105741D01*
X149486564Y-116185302D01*
X149385302Y-116286564D01*
X149305741Y-116405636D01*
X149250938Y-116537942D01*
X149223000Y-116678397D01*
X137742294Y-116678397D01*
X137749062Y-116662058D01*
X137777000Y-116521603D01*
X137777000Y-116378397D01*
X137749062Y-116237942D01*
X137694259Y-116105636D01*
X137614698Y-115986564D01*
X137513436Y-115885302D01*
X137394364Y-115805741D01*
X137262058Y-115750938D01*
X137121603Y-115723000D01*
X136978397Y-115723000D01*
X136837942Y-115750938D01*
X136705636Y-115805741D01*
X136586564Y-115885302D01*
X136485302Y-115986564D01*
X136405741Y-116105636D01*
X136350938Y-116237942D01*
X136323000Y-116378397D01*
X132942294Y-116378397D01*
X132949062Y-116362058D01*
X132977000Y-116221603D01*
X132977000Y-116078397D01*
X132949062Y-115937942D01*
X132894259Y-115805636D01*
X132814698Y-115686564D01*
X132713436Y-115585302D01*
X132594364Y-115505741D01*
X132462058Y-115450938D01*
X132321603Y-115423000D01*
X132178397Y-115423000D01*
X132037942Y-115450938D01*
X131905636Y-115505741D01*
X131786564Y-115585302D01*
X131685302Y-115686564D01*
X131605741Y-115805636D01*
X131550938Y-115937942D01*
X131523000Y-116078397D01*
X124177000Y-116078397D01*
X124177000Y-114878397D01*
X141023000Y-114878397D01*
X141023000Y-115021603D01*
X141050938Y-115162058D01*
X141105741Y-115294364D01*
X141185302Y-115413436D01*
X141286564Y-115514698D01*
X141405636Y-115594259D01*
X141537942Y-115649062D01*
X141678397Y-115677000D01*
X141821603Y-115677000D01*
X141962058Y-115649062D01*
X142094364Y-115594259D01*
X142213436Y-115514698D01*
X142314698Y-115413436D01*
X142394259Y-115294364D01*
X142449062Y-115162058D01*
X142477000Y-115021603D01*
X142477000Y-114878397D01*
X158923000Y-114878397D01*
X158923000Y-115021603D01*
X158950938Y-115162058D01*
X159005741Y-115294364D01*
X159085302Y-115413436D01*
X159186564Y-115514698D01*
X159305636Y-115594259D01*
X159437942Y-115649062D01*
X159578397Y-115677000D01*
X159721603Y-115677000D01*
X159862058Y-115649062D01*
X159994364Y-115594259D01*
X160113436Y-115514698D01*
X160214698Y-115413436D01*
X160294259Y-115294364D01*
X160349062Y-115162058D01*
X160377000Y-115021603D01*
X160377000Y-114878397D01*
X160349062Y-114737942D01*
X160294259Y-114605636D01*
X160214698Y-114486564D01*
X160113436Y-114385302D01*
X159994364Y-114305741D01*
X159862058Y-114250938D01*
X159721603Y-114223000D01*
X159578397Y-114223000D01*
X159437942Y-114250938D01*
X159305636Y-114305741D01*
X159186564Y-114385302D01*
X159085302Y-114486564D01*
X159005741Y-114605636D01*
X158950938Y-114737942D01*
X158923000Y-114878397D01*
X142477000Y-114878397D01*
X142449062Y-114737942D01*
X142394259Y-114605636D01*
X142314698Y-114486564D01*
X142213436Y-114385302D01*
X142094364Y-114305741D01*
X141962058Y-114250938D01*
X141821603Y-114223000D01*
X141678397Y-114223000D01*
X141537942Y-114250938D01*
X141405636Y-114305741D01*
X141286564Y-114385302D01*
X141185302Y-114486564D01*
X141105741Y-114605636D01*
X141050938Y-114737942D01*
X141023000Y-114878397D01*
X124177000Y-114878397D01*
X124177000Y-104177000D01*
X132334019Y-104177000D01*
X132350938Y-104262058D01*
G37*
G04 #@! TD.AperFunction*
D25*
X125455636Y-100605741D02*
X125336564Y-100685302D01*
X125235302Y-100786564D01*
X125155741Y-100905636D01*
X125100938Y-101037942D01*
X125073000Y-101178397D01*
X125073000Y-101321603D01*
X125100938Y-101462058D01*
X125155741Y-101594364D01*
X125235302Y-101713436D01*
X125336564Y-101814698D01*
X125455636Y-101894259D01*
X125587942Y-101949062D01*
X125728397Y-101977000D01*
X125871603Y-101977000D01*
X126012058Y-101949062D01*
X126144364Y-101894259D01*
X126263436Y-101814698D01*
X126364698Y-101713436D01*
X126444259Y-101594364D01*
X126499062Y-101462058D01*
X126527000Y-101321603D01*
X126527000Y-101178397D01*
X126499062Y-101037942D01*
X126444259Y-100905636D01*
X126364698Y-100786564D01*
X126263436Y-100685302D01*
X126144364Y-100605741D01*
X126074977Y-100577000D01*
X132094865Y-100577000D01*
X132085302Y-100586563D01*
X132005741Y-100705635D01*
X131950938Y-100837941D01*
X131923000Y-100978396D01*
X131923000Y-101121602D01*
X131950938Y-101262057D01*
X132005741Y-101394363D01*
X132085302Y-101513435D01*
X132186564Y-101614697D01*
X132305636Y-101694258D01*
X132437942Y-101749061D01*
X132578397Y-101776999D01*
X132721603Y-101776999D01*
X132862058Y-101749061D01*
X132994364Y-101694258D01*
X133113436Y-101614697D01*
X133214698Y-101513435D01*
X133294259Y-101394363D01*
X133342293Y-101278397D01*
X136723000Y-101278397D01*
X136723000Y-101421603D01*
X136750938Y-101562058D01*
X136805741Y-101694364D01*
X136885302Y-101813436D01*
X136986564Y-101914698D01*
X137105636Y-101994259D01*
X137237942Y-102049062D01*
X137378397Y-102077000D01*
X137521603Y-102077000D01*
X137662058Y-102049062D01*
X137794364Y-101994259D01*
X137913436Y-101914698D01*
X138014698Y-101813436D01*
X138094259Y-101694364D01*
X138149062Y-101562058D01*
X138177000Y-101421603D01*
X138177000Y-101278397D01*
X138149062Y-101137942D01*
X138094259Y-101005636D01*
X138014698Y-100886564D01*
X137913436Y-100785302D01*
X137794364Y-100705741D01*
X137662058Y-100650938D01*
X137521603Y-100623000D01*
X137378397Y-100623000D01*
X137237942Y-100650938D01*
X137105636Y-100705741D01*
X136986564Y-100785302D01*
X136885302Y-100886564D01*
X136805741Y-101005636D01*
X136750938Y-101137942D01*
X136723000Y-101278397D01*
X133342293Y-101278397D01*
X133349062Y-101262057D01*
X133377000Y-101121602D01*
X133377000Y-100978396D01*
X133349062Y-100837941D01*
X133294259Y-100705635D01*
X133214698Y-100586563D01*
X133205135Y-100577000D01*
X158343965Y-100577000D01*
X158350938Y-100612058D01*
X158405741Y-100744364D01*
X158485302Y-100863436D01*
X158586564Y-100964698D01*
X158705636Y-101044259D01*
X158837942Y-101099062D01*
X158978397Y-101127000D01*
X159121603Y-101127000D01*
X159262058Y-101099062D01*
X159394364Y-101044259D01*
X159513436Y-100964698D01*
X159614698Y-100863436D01*
X159694259Y-100744364D01*
X159749062Y-100612058D01*
X159756035Y-100577000D01*
X161023000Y-100577000D01*
X161023000Y-103723000D01*
X157777000Y-103723000D01*
X157777000Y-103628397D01*
X157749062Y-103487942D01*
X157694259Y-103355636D01*
X157614698Y-103236564D01*
X157513436Y-103135302D01*
X157394364Y-103055741D01*
X157262058Y-103000938D01*
X157121603Y-102973000D01*
X156978397Y-102973000D01*
X156837942Y-103000938D01*
X156705636Y-103055741D01*
X156586564Y-103135302D01*
X156485302Y-103236564D01*
X156405741Y-103355636D01*
X156350938Y-103487942D01*
X156323000Y-103628397D01*
X156323000Y-103723000D01*
X154450000Y-103723000D01*
X154425224Y-103725440D01*
X154401399Y-103732667D01*
X154379443Y-103744403D01*
X154360197Y-103760197D01*
X154344403Y-103779443D01*
X154332667Y-103801399D01*
X154325440Y-103825224D01*
X154323000Y-103850000D01*
X154323000Y-104998866D01*
X154235302Y-105086564D01*
X154155741Y-105205636D01*
X154100938Y-105337942D01*
X154073000Y-105478397D01*
X154073000Y-105621603D01*
X154100938Y-105762058D01*
X154155741Y-105894364D01*
X154235302Y-106013436D01*
X154323000Y-106101134D01*
X154323000Y-107822682D01*
X134577000Y-107773317D01*
X134577000Y-105478397D01*
X137173000Y-105478397D01*
X137173000Y-105621603D01*
X137200938Y-105762058D01*
X137255741Y-105894364D01*
X137335302Y-106013436D01*
X137436564Y-106114698D01*
X137555636Y-106194259D01*
X137687942Y-106249062D01*
X137828397Y-106277000D01*
X137971603Y-106277000D01*
X138112058Y-106249062D01*
X138244364Y-106194259D01*
X138363436Y-106114698D01*
X138464698Y-106013436D01*
X138544259Y-105894364D01*
X138599062Y-105762058D01*
X138627000Y-105621603D01*
X138627000Y-105478397D01*
X143473000Y-105478397D01*
X143473000Y-105621603D01*
X143500938Y-105762058D01*
X143555741Y-105894364D01*
X143635302Y-106013436D01*
X143736564Y-106114698D01*
X143855636Y-106194259D01*
X143987942Y-106249062D01*
X144128397Y-106277000D01*
X144271603Y-106277000D01*
X144412058Y-106249062D01*
X144544364Y-106194259D01*
X144663436Y-106114698D01*
X144764698Y-106013436D01*
X144844259Y-105894364D01*
X144899062Y-105762058D01*
X144927000Y-105621603D01*
X144927000Y-105478397D01*
X147673000Y-105478397D01*
X147673000Y-105621603D01*
X147700938Y-105762058D01*
X147755741Y-105894364D01*
X147835302Y-106013436D01*
X147936564Y-106114698D01*
X148055636Y-106194259D01*
X148187942Y-106249062D01*
X148328397Y-106277000D01*
X148471603Y-106277000D01*
X148612058Y-106249062D01*
X148744364Y-106194259D01*
X148863436Y-106114698D01*
X148964698Y-106013436D01*
X149044259Y-105894364D01*
X149099062Y-105762058D01*
X149127000Y-105621603D01*
X149127000Y-105478397D01*
X149099062Y-105337942D01*
X149044259Y-105205636D01*
X148964698Y-105086564D01*
X148863436Y-104985302D01*
X148744364Y-104905741D01*
X148612058Y-104850938D01*
X148471603Y-104823000D01*
X148328397Y-104823000D01*
X148187942Y-104850938D01*
X148055636Y-104905741D01*
X147936564Y-104985302D01*
X147835302Y-105086564D01*
X147755741Y-105205636D01*
X147700938Y-105337942D01*
X147673000Y-105478397D01*
X144927000Y-105478397D01*
X144899062Y-105337942D01*
X144844259Y-105205636D01*
X144764698Y-105086564D01*
X144663436Y-104985302D01*
X144544364Y-104905741D01*
X144412058Y-104850938D01*
X144271603Y-104823000D01*
X144128397Y-104823000D01*
X143987942Y-104850938D01*
X143855636Y-104905741D01*
X143736564Y-104985302D01*
X143635302Y-105086564D01*
X143555741Y-105205636D01*
X143500938Y-105337942D01*
X143473000Y-105478397D01*
X138627000Y-105478397D01*
X138599062Y-105337942D01*
X138544259Y-105205636D01*
X138464698Y-105086564D01*
X138363436Y-104985302D01*
X138244364Y-104905741D01*
X138112058Y-104850938D01*
X137971603Y-104823000D01*
X137828397Y-104823000D01*
X137687942Y-104850938D01*
X137555636Y-104905741D01*
X137436564Y-104985302D01*
X137335302Y-105086564D01*
X137255741Y-105205636D01*
X137200938Y-105337942D01*
X137173000Y-105478397D01*
X134577000Y-105478397D01*
X134577000Y-103800000D01*
X134574560Y-103775224D01*
X134567333Y-103751399D01*
X134555597Y-103729443D01*
X134539803Y-103710197D01*
X134520557Y-103694403D01*
X134498601Y-103682667D01*
X134474776Y-103675440D01*
X134449389Y-103673001D01*
X133674941Y-103676724D01*
X133614698Y-103586564D01*
X133513436Y-103485302D01*
X133394364Y-103405741D01*
X133262058Y-103350938D01*
X133121603Y-103323000D01*
X132978397Y-103323000D01*
X132837942Y-103350938D01*
X132705636Y-103405741D01*
X132586564Y-103485302D01*
X132485302Y-103586564D01*
X132421031Y-103682753D01*
X124177000Y-103722387D01*
X124177000Y-102328397D01*
X135223000Y-102328397D01*
X135223000Y-102471603D01*
X135250938Y-102612058D01*
X135305741Y-102744364D01*
X135385302Y-102863436D01*
X135486564Y-102964698D01*
X135605636Y-103044259D01*
X135737942Y-103099062D01*
X135878397Y-103127000D01*
X136021603Y-103127000D01*
X136162058Y-103099062D01*
X136294364Y-103044259D01*
X136413436Y-102964698D01*
X136514698Y-102863436D01*
X136594259Y-102744364D01*
X136649062Y-102612058D01*
X136677000Y-102471603D01*
X136677000Y-102328397D01*
X136649062Y-102187942D01*
X136594259Y-102055636D01*
X136514698Y-101936564D01*
X136413436Y-101835302D01*
X136294364Y-101755741D01*
X136162058Y-101700938D01*
X136021603Y-101673000D01*
X135878397Y-101673000D01*
X135737942Y-101700938D01*
X135605636Y-101755741D01*
X135486564Y-101835302D01*
X135385302Y-101936564D01*
X135305741Y-102055636D01*
X135250938Y-102187942D01*
X135223000Y-102328397D01*
X124177000Y-102328397D01*
X124177000Y-102256831D01*
X124278397Y-102277000D01*
X124421603Y-102277000D01*
X124562058Y-102249062D01*
X124694364Y-102194259D01*
X124813436Y-102114698D01*
X124914698Y-102013436D01*
X124994259Y-101894364D01*
X125049062Y-101762058D01*
X125077000Y-101621603D01*
X125077000Y-101478397D01*
X125049062Y-101337942D01*
X124994259Y-101205636D01*
X124914698Y-101086564D01*
X124813436Y-100985302D01*
X124694364Y-100905741D01*
X124562058Y-100850938D01*
X124421603Y-100823000D01*
X124278397Y-100823000D01*
X124177000Y-100843169D01*
X124177000Y-100577000D01*
X125525023Y-100577000D01*
X125455636Y-100605741D01*
G04 #@! TA.AperFunction,Conductor*
D26*
G36*
X125455636Y-100605741D02*
G01*
X125336564Y-100685302D01*
X125235302Y-100786564D01*
X125155741Y-100905636D01*
X125100938Y-101037942D01*
X125073000Y-101178397D01*
X125073000Y-101321603D01*
X125100938Y-101462058D01*
X125155741Y-101594364D01*
X125235302Y-101713436D01*
X125336564Y-101814698D01*
X125455636Y-101894259D01*
X125587942Y-101949062D01*
X125728397Y-101977000D01*
X125871603Y-101977000D01*
X126012058Y-101949062D01*
X126144364Y-101894259D01*
X126263436Y-101814698D01*
X126364698Y-101713436D01*
X126444259Y-101594364D01*
X126499062Y-101462058D01*
X126527000Y-101321603D01*
X126527000Y-101178397D01*
X126499062Y-101037942D01*
X126444259Y-100905636D01*
X126364698Y-100786564D01*
X126263436Y-100685302D01*
X126144364Y-100605741D01*
X126074977Y-100577000D01*
X132094865Y-100577000D01*
X132085302Y-100586563D01*
X132005741Y-100705635D01*
X131950938Y-100837941D01*
X131923000Y-100978396D01*
X131923000Y-101121602D01*
X131950938Y-101262057D01*
X132005741Y-101394363D01*
X132085302Y-101513435D01*
X132186564Y-101614697D01*
X132305636Y-101694258D01*
X132437942Y-101749061D01*
X132578397Y-101776999D01*
X132721603Y-101776999D01*
X132862058Y-101749061D01*
X132994364Y-101694258D01*
X133113436Y-101614697D01*
X133214698Y-101513435D01*
X133294259Y-101394363D01*
X133342293Y-101278397D01*
X136723000Y-101278397D01*
X136723000Y-101421603D01*
X136750938Y-101562058D01*
X136805741Y-101694364D01*
X136885302Y-101813436D01*
X136986564Y-101914698D01*
X137105636Y-101994259D01*
X137237942Y-102049062D01*
X137378397Y-102077000D01*
X137521603Y-102077000D01*
X137662058Y-102049062D01*
X137794364Y-101994259D01*
X137913436Y-101914698D01*
X138014698Y-101813436D01*
X138094259Y-101694364D01*
X138149062Y-101562058D01*
X138177000Y-101421603D01*
X138177000Y-101278397D01*
X138149062Y-101137942D01*
X138094259Y-101005636D01*
X138014698Y-100886564D01*
X137913436Y-100785302D01*
X137794364Y-100705741D01*
X137662058Y-100650938D01*
X137521603Y-100623000D01*
X137378397Y-100623000D01*
X137237942Y-100650938D01*
X137105636Y-100705741D01*
X136986564Y-100785302D01*
X136885302Y-100886564D01*
X136805741Y-101005636D01*
X136750938Y-101137942D01*
X136723000Y-101278397D01*
X133342293Y-101278397D01*
X133349062Y-101262057D01*
X133377000Y-101121602D01*
X133377000Y-100978396D01*
X133349062Y-100837941D01*
X133294259Y-100705635D01*
X133214698Y-100586563D01*
X133205135Y-100577000D01*
X158343965Y-100577000D01*
X158350938Y-100612058D01*
X158405741Y-100744364D01*
X158485302Y-100863436D01*
X158586564Y-100964698D01*
X158705636Y-101044259D01*
X158837942Y-101099062D01*
X158978397Y-101127000D01*
X159121603Y-101127000D01*
X159262058Y-101099062D01*
X159394364Y-101044259D01*
X159513436Y-100964698D01*
X159614698Y-100863436D01*
X159694259Y-100744364D01*
X159749062Y-100612058D01*
X159756035Y-100577000D01*
X161023000Y-100577000D01*
X161023000Y-103723000D01*
X157777000Y-103723000D01*
X157777000Y-103628397D01*
X157749062Y-103487942D01*
X157694259Y-103355636D01*
X157614698Y-103236564D01*
X157513436Y-103135302D01*
X157394364Y-103055741D01*
X157262058Y-103000938D01*
X157121603Y-102973000D01*
X156978397Y-102973000D01*
X156837942Y-103000938D01*
X156705636Y-103055741D01*
X156586564Y-103135302D01*
X156485302Y-103236564D01*
X156405741Y-103355636D01*
X156350938Y-103487942D01*
X156323000Y-103628397D01*
X156323000Y-103723000D01*
X154450000Y-103723000D01*
X154425224Y-103725440D01*
X154401399Y-103732667D01*
X154379443Y-103744403D01*
X154360197Y-103760197D01*
X154344403Y-103779443D01*
X154332667Y-103801399D01*
X154325440Y-103825224D01*
X154323000Y-103850000D01*
X154323000Y-104998866D01*
X154235302Y-105086564D01*
X154155741Y-105205636D01*
X154100938Y-105337942D01*
X154073000Y-105478397D01*
X154073000Y-105621603D01*
X154100938Y-105762058D01*
X154155741Y-105894364D01*
X154235302Y-106013436D01*
X154323000Y-106101134D01*
X154323000Y-107822682D01*
X134577000Y-107773317D01*
X134577000Y-105478397D01*
X137173000Y-105478397D01*
X137173000Y-105621603D01*
X137200938Y-105762058D01*
X137255741Y-105894364D01*
X137335302Y-106013436D01*
X137436564Y-106114698D01*
X137555636Y-106194259D01*
X137687942Y-106249062D01*
X137828397Y-106277000D01*
X137971603Y-106277000D01*
X138112058Y-106249062D01*
X138244364Y-106194259D01*
X138363436Y-106114698D01*
X138464698Y-106013436D01*
X138544259Y-105894364D01*
X138599062Y-105762058D01*
X138627000Y-105621603D01*
X138627000Y-105478397D01*
X143473000Y-105478397D01*
X143473000Y-105621603D01*
X143500938Y-105762058D01*
X143555741Y-105894364D01*
X143635302Y-106013436D01*
X143736564Y-106114698D01*
X143855636Y-106194259D01*
X143987942Y-106249062D01*
X144128397Y-106277000D01*
X144271603Y-106277000D01*
X144412058Y-106249062D01*
X144544364Y-106194259D01*
X144663436Y-106114698D01*
X144764698Y-106013436D01*
X144844259Y-105894364D01*
X144899062Y-105762058D01*
X144927000Y-105621603D01*
X144927000Y-105478397D01*
X147673000Y-105478397D01*
X147673000Y-105621603D01*
X147700938Y-105762058D01*
X147755741Y-105894364D01*
X147835302Y-106013436D01*
X147936564Y-106114698D01*
X148055636Y-106194259D01*
X148187942Y-106249062D01*
X148328397Y-106277000D01*
X148471603Y-106277000D01*
X148612058Y-106249062D01*
X148744364Y-106194259D01*
X148863436Y-106114698D01*
X148964698Y-106013436D01*
X149044259Y-105894364D01*
X149099062Y-105762058D01*
X149127000Y-105621603D01*
X149127000Y-105478397D01*
X149099062Y-105337942D01*
X149044259Y-105205636D01*
X148964698Y-105086564D01*
X148863436Y-104985302D01*
X148744364Y-104905741D01*
X148612058Y-104850938D01*
X148471603Y-104823000D01*
X148328397Y-104823000D01*
X148187942Y-104850938D01*
X148055636Y-104905741D01*
X147936564Y-104985302D01*
X147835302Y-105086564D01*
X147755741Y-105205636D01*
X147700938Y-105337942D01*
X147673000Y-105478397D01*
X144927000Y-105478397D01*
X144899062Y-105337942D01*
X144844259Y-105205636D01*
X144764698Y-105086564D01*
X144663436Y-104985302D01*
X144544364Y-104905741D01*
X144412058Y-104850938D01*
X144271603Y-104823000D01*
X144128397Y-104823000D01*
X143987942Y-104850938D01*
X143855636Y-104905741D01*
X143736564Y-104985302D01*
X143635302Y-105086564D01*
X143555741Y-105205636D01*
X143500938Y-105337942D01*
X143473000Y-105478397D01*
X138627000Y-105478397D01*
X138599062Y-105337942D01*
X138544259Y-105205636D01*
X138464698Y-105086564D01*
X138363436Y-104985302D01*
X138244364Y-104905741D01*
X138112058Y-104850938D01*
X137971603Y-104823000D01*
X137828397Y-104823000D01*
X137687942Y-104850938D01*
X137555636Y-104905741D01*
X137436564Y-104985302D01*
X137335302Y-105086564D01*
X137255741Y-105205636D01*
X137200938Y-105337942D01*
X137173000Y-105478397D01*
X134577000Y-105478397D01*
X134577000Y-103800000D01*
X134574560Y-103775224D01*
X134567333Y-103751399D01*
X134555597Y-103729443D01*
X134539803Y-103710197D01*
X134520557Y-103694403D01*
X134498601Y-103682667D01*
X134474776Y-103675440D01*
X134449389Y-103673001D01*
X133674941Y-103676724D01*
X133614698Y-103586564D01*
X133513436Y-103485302D01*
X133394364Y-103405741D01*
X133262058Y-103350938D01*
X133121603Y-103323000D01*
X132978397Y-103323000D01*
X132837942Y-103350938D01*
X132705636Y-103405741D01*
X132586564Y-103485302D01*
X132485302Y-103586564D01*
X132421031Y-103682753D01*
X124177000Y-103722387D01*
X124177000Y-102328397D01*
X135223000Y-102328397D01*
X135223000Y-102471603D01*
X135250938Y-102612058D01*
X135305741Y-102744364D01*
X135385302Y-102863436D01*
X135486564Y-102964698D01*
X135605636Y-103044259D01*
X135737942Y-103099062D01*
X135878397Y-103127000D01*
X136021603Y-103127000D01*
X136162058Y-103099062D01*
X136294364Y-103044259D01*
X136413436Y-102964698D01*
X136514698Y-102863436D01*
X136594259Y-102744364D01*
X136649062Y-102612058D01*
X136677000Y-102471603D01*
X136677000Y-102328397D01*
X136649062Y-102187942D01*
X136594259Y-102055636D01*
X136514698Y-101936564D01*
X136413436Y-101835302D01*
X136294364Y-101755741D01*
X136162058Y-101700938D01*
X136021603Y-101673000D01*
X135878397Y-101673000D01*
X135737942Y-101700938D01*
X135605636Y-101755741D01*
X135486564Y-101835302D01*
X135385302Y-101936564D01*
X135305741Y-102055636D01*
X135250938Y-102187942D01*
X135223000Y-102328397D01*
X124177000Y-102328397D01*
X124177000Y-102256831D01*
X124278397Y-102277000D01*
X124421603Y-102277000D01*
X124562058Y-102249062D01*
X124694364Y-102194259D01*
X124813436Y-102114698D01*
X124914698Y-102013436D01*
X124994259Y-101894364D01*
X125049062Y-101762058D01*
X125077000Y-101621603D01*
X125077000Y-101478397D01*
X125049062Y-101337942D01*
X124994259Y-101205636D01*
X124914698Y-101086564D01*
X124813436Y-100985302D01*
X124694364Y-100905741D01*
X124562058Y-100850938D01*
X124421603Y-100823000D01*
X124278397Y-100823000D01*
X124177000Y-100843169D01*
X124177000Y-100577000D01*
X125525023Y-100577000D01*
X125455636Y-100605741D01*
G37*
G04 #@! TD.AperFunction*
D25*
X162323000Y-94178397D02*
X162323000Y-94321603D01*
X162350938Y-94462058D01*
X162405741Y-94594364D01*
X162485302Y-94713436D01*
X162586564Y-94814698D01*
X162705636Y-94894259D01*
X162837942Y-94949062D01*
X162978397Y-94977000D01*
X163121603Y-94977000D01*
X163262058Y-94949062D01*
X163394364Y-94894259D01*
X163513436Y-94814698D01*
X163614698Y-94713436D01*
X163694259Y-94594364D01*
X163749062Y-94462058D01*
X163777000Y-94321603D01*
X163777000Y-94178397D01*
X163756831Y-94077000D01*
X164723000Y-94077000D01*
X164723000Y-100123000D01*
X159722162Y-100123000D01*
X159694259Y-100055636D01*
X159614698Y-99936564D01*
X159513436Y-99835302D01*
X159394364Y-99755741D01*
X159262058Y-99700938D01*
X159121603Y-99673000D01*
X158978397Y-99673000D01*
X158837942Y-99700938D01*
X158705636Y-99755741D01*
X158586564Y-99835302D01*
X158485302Y-99936564D01*
X158405741Y-100055636D01*
X158377838Y-100123000D01*
X124177000Y-100123000D01*
X124177000Y-98775125D01*
X124205636Y-98794259D01*
X124337942Y-98849062D01*
X124478397Y-98877000D01*
X124621603Y-98877000D01*
X124762058Y-98849062D01*
X124894364Y-98794259D01*
X125013436Y-98714698D01*
X125114698Y-98613436D01*
X125194259Y-98494364D01*
X125249062Y-98362058D01*
X125277000Y-98221603D01*
X125277000Y-98128397D01*
X135473000Y-98128397D01*
X135473000Y-98271603D01*
X135500938Y-98412058D01*
X135555741Y-98544364D01*
X135635302Y-98663436D01*
X135736564Y-98764698D01*
X135855636Y-98844259D01*
X135987942Y-98899062D01*
X136128397Y-98927000D01*
X136271603Y-98927000D01*
X136412058Y-98899062D01*
X136544364Y-98844259D01*
X136642933Y-98778397D01*
X153623000Y-98778397D01*
X153623000Y-98921603D01*
X153650938Y-99062058D01*
X153705741Y-99194364D01*
X153785302Y-99313436D01*
X153886564Y-99414698D01*
X154005636Y-99494259D01*
X154137942Y-99549062D01*
X154278397Y-99577000D01*
X154421603Y-99577000D01*
X154562058Y-99549062D01*
X154694364Y-99494259D01*
X154813436Y-99414698D01*
X154914698Y-99313436D01*
X154994259Y-99194364D01*
X155049062Y-99062058D01*
X155077000Y-98921603D01*
X155077000Y-98778397D01*
X155123000Y-98778397D01*
X155123000Y-98921603D01*
X155150938Y-99062058D01*
X155205741Y-99194364D01*
X155285302Y-99313436D01*
X155386564Y-99414698D01*
X155505636Y-99494259D01*
X155637942Y-99549062D01*
X155778397Y-99577000D01*
X155921603Y-99577000D01*
X156062058Y-99549062D01*
X156194364Y-99494259D01*
X156313436Y-99414698D01*
X156414698Y-99313436D01*
X156494259Y-99194364D01*
X156549062Y-99062058D01*
X156577000Y-98921603D01*
X156577000Y-98778397D01*
X156549062Y-98637942D01*
X156494259Y-98505636D01*
X156414698Y-98386564D01*
X156313436Y-98285302D01*
X156194364Y-98205741D01*
X156062058Y-98150938D01*
X155921603Y-98123000D01*
X155778397Y-98123000D01*
X155637942Y-98150938D01*
X155505636Y-98205741D01*
X155386564Y-98285302D01*
X155285302Y-98386564D01*
X155205741Y-98505636D01*
X155150938Y-98637942D01*
X155123000Y-98778397D01*
X155077000Y-98778397D01*
X155049062Y-98637942D01*
X154994259Y-98505636D01*
X154914698Y-98386564D01*
X154813436Y-98285302D01*
X154694364Y-98205741D01*
X154562058Y-98150938D01*
X154421603Y-98123000D01*
X154278397Y-98123000D01*
X154137942Y-98150938D01*
X154005636Y-98205741D01*
X153886564Y-98285302D01*
X153785302Y-98386564D01*
X153705741Y-98505636D01*
X153650938Y-98637942D01*
X153623000Y-98778397D01*
X136642933Y-98778397D01*
X136663436Y-98764698D01*
X136764698Y-98663436D01*
X136844259Y-98544364D01*
X136899062Y-98412058D01*
X136927000Y-98271603D01*
X136927000Y-98128397D01*
X136899062Y-97987942D01*
X136844259Y-97855636D01*
X136764698Y-97736564D01*
X136663436Y-97635302D01*
X136544364Y-97555741D01*
X136412058Y-97500938D01*
X136271603Y-97473000D01*
X136128397Y-97473000D01*
X135987942Y-97500938D01*
X135855636Y-97555741D01*
X135736564Y-97635302D01*
X135635302Y-97736564D01*
X135555741Y-97855636D01*
X135500938Y-97987942D01*
X135473000Y-98128397D01*
X125277000Y-98128397D01*
X125277000Y-98078397D01*
X125249062Y-97937942D01*
X125194259Y-97805636D01*
X125114698Y-97686564D01*
X125013436Y-97585302D01*
X124894364Y-97505741D01*
X124762058Y-97450938D01*
X124621603Y-97423000D01*
X124478397Y-97423000D01*
X124337942Y-97450938D01*
X124205636Y-97505741D01*
X124177000Y-97524875D01*
X124177000Y-97378397D01*
X147623000Y-97378397D01*
X147623000Y-97521603D01*
X147650938Y-97662058D01*
X147705741Y-97794364D01*
X147785302Y-97913436D01*
X147886564Y-98014698D01*
X148005636Y-98094259D01*
X148137942Y-98149062D01*
X148278397Y-98177000D01*
X148421603Y-98177000D01*
X148562058Y-98149062D01*
X148694364Y-98094259D01*
X148813436Y-98014698D01*
X148914698Y-97913436D01*
X148954360Y-97854076D01*
X158973000Y-97854076D01*
X158973000Y-98085924D01*
X159018231Y-98313318D01*
X159106956Y-98527519D01*
X159235764Y-98720294D01*
X159399706Y-98884236D01*
X159592481Y-99013044D01*
X159806682Y-99101769D01*
X160034076Y-99147000D01*
X160265924Y-99147000D01*
X160493318Y-99101769D01*
X160707519Y-99013044D01*
X160900294Y-98884236D01*
X161064236Y-98720294D01*
X161193044Y-98527519D01*
X161281769Y-98313318D01*
X161327000Y-98085924D01*
X161327000Y-97854076D01*
X161281769Y-97626682D01*
X161193044Y-97412481D01*
X161064236Y-97219706D01*
X160900294Y-97055764D01*
X160707519Y-96926956D01*
X160493318Y-96838231D01*
X160265924Y-96793000D01*
X160034076Y-96793000D01*
X159806682Y-96838231D01*
X159592481Y-96926956D01*
X159399706Y-97055764D01*
X159235764Y-97219706D01*
X159106956Y-97412481D01*
X159018231Y-97626682D01*
X158973000Y-97854076D01*
X148954360Y-97854076D01*
X148994259Y-97794364D01*
X149049062Y-97662058D01*
X149077000Y-97521603D01*
X149077000Y-97378397D01*
X149049062Y-97237942D01*
X148994259Y-97105636D01*
X148914698Y-96986564D01*
X148813436Y-96885302D01*
X148694364Y-96805741D01*
X148562058Y-96750938D01*
X148421603Y-96723000D01*
X148278397Y-96723000D01*
X148137942Y-96750938D01*
X148005636Y-96805741D01*
X147886564Y-96885302D01*
X147785302Y-96986564D01*
X147705741Y-97105636D01*
X147650938Y-97237942D01*
X147623000Y-97378397D01*
X124177000Y-97378397D01*
X124177000Y-95778397D01*
X128673000Y-95778397D01*
X128673000Y-95921603D01*
X128700938Y-96062058D01*
X128755741Y-96194364D01*
X128835302Y-96313436D01*
X128936564Y-96414698D01*
X129055636Y-96494259D01*
X129187942Y-96549062D01*
X129328397Y-96577000D01*
X129471603Y-96577000D01*
X129612058Y-96549062D01*
X129744364Y-96494259D01*
X129863436Y-96414698D01*
X129964698Y-96313436D01*
X130044259Y-96194364D01*
X130099062Y-96062058D01*
X130105757Y-96028397D01*
X154473000Y-96028397D01*
X154473000Y-96171603D01*
X154500938Y-96312058D01*
X154555741Y-96444364D01*
X154635302Y-96563436D01*
X154736564Y-96664698D01*
X154855636Y-96744259D01*
X154987942Y-96799062D01*
X155128397Y-96827000D01*
X155271603Y-96827000D01*
X155412058Y-96799062D01*
X155544364Y-96744259D01*
X155663436Y-96664698D01*
X155764698Y-96563436D01*
X155844259Y-96444364D01*
X155899062Y-96312058D01*
X155927000Y-96171603D01*
X155927000Y-96028397D01*
X155899062Y-95887942D01*
X155844259Y-95755636D01*
X155764698Y-95636564D01*
X155663436Y-95535302D01*
X155544364Y-95455741D01*
X155412058Y-95400938D01*
X155271603Y-95373000D01*
X155128397Y-95373000D01*
X154987942Y-95400938D01*
X154855636Y-95455741D01*
X154736564Y-95535302D01*
X154635302Y-95636564D01*
X154555741Y-95755636D01*
X154500938Y-95887942D01*
X154473000Y-96028397D01*
X130105757Y-96028397D01*
X130127000Y-95921603D01*
X130127000Y-95778397D01*
X130099062Y-95637942D01*
X130044259Y-95505636D01*
X129964698Y-95386564D01*
X129892210Y-95314076D01*
X158973000Y-95314076D01*
X158973000Y-95545924D01*
X159018231Y-95773318D01*
X159106956Y-95987519D01*
X159235764Y-96180294D01*
X159399706Y-96344236D01*
X159592481Y-96473044D01*
X159806682Y-96561769D01*
X160034076Y-96607000D01*
X160265924Y-96607000D01*
X160493318Y-96561769D01*
X160707519Y-96473044D01*
X160900294Y-96344236D01*
X161064236Y-96180294D01*
X161193044Y-95987519D01*
X161281769Y-95773318D01*
X161327000Y-95545924D01*
X161327000Y-95314076D01*
X161281769Y-95086682D01*
X161193044Y-94872481D01*
X161064236Y-94679706D01*
X160900294Y-94515764D01*
X160707519Y-94386956D01*
X160493318Y-94298231D01*
X160265924Y-94253000D01*
X160034076Y-94253000D01*
X159806682Y-94298231D01*
X159592481Y-94386956D01*
X159399706Y-94515764D01*
X159235764Y-94679706D01*
X159106956Y-94872481D01*
X159018231Y-95086682D01*
X158973000Y-95314076D01*
X129892210Y-95314076D01*
X129863436Y-95285302D01*
X129744364Y-95205741D01*
X129612058Y-95150938D01*
X129471603Y-95123000D01*
X129328397Y-95123000D01*
X129187942Y-95150938D01*
X129055636Y-95205741D01*
X128936564Y-95285302D01*
X128835302Y-95386564D01*
X128755741Y-95505636D01*
X128700938Y-95637942D01*
X128673000Y-95778397D01*
X124177000Y-95778397D01*
X124177000Y-94077000D01*
X162343169Y-94077000D01*
X162323000Y-94178397D01*
G04 #@! TA.AperFunction,Conductor*
D26*
G36*
X162323000Y-94178397D02*
G01*
X162323000Y-94321603D01*
X162350938Y-94462058D01*
X162405741Y-94594364D01*
X162485302Y-94713436D01*
X162586564Y-94814698D01*
X162705636Y-94894259D01*
X162837942Y-94949062D01*
X162978397Y-94977000D01*
X163121603Y-94977000D01*
X163262058Y-94949062D01*
X163394364Y-94894259D01*
X163513436Y-94814698D01*
X163614698Y-94713436D01*
X163694259Y-94594364D01*
X163749062Y-94462058D01*
X163777000Y-94321603D01*
X163777000Y-94178397D01*
X163756831Y-94077000D01*
X164723000Y-94077000D01*
X164723000Y-100123000D01*
X159722162Y-100123000D01*
X159694259Y-100055636D01*
X159614698Y-99936564D01*
X159513436Y-99835302D01*
X159394364Y-99755741D01*
X159262058Y-99700938D01*
X159121603Y-99673000D01*
X158978397Y-99673000D01*
X158837942Y-99700938D01*
X158705636Y-99755741D01*
X158586564Y-99835302D01*
X158485302Y-99936564D01*
X158405741Y-100055636D01*
X158377838Y-100123000D01*
X124177000Y-100123000D01*
X124177000Y-98775125D01*
X124205636Y-98794259D01*
X124337942Y-98849062D01*
X124478397Y-98877000D01*
X124621603Y-98877000D01*
X124762058Y-98849062D01*
X124894364Y-98794259D01*
X125013436Y-98714698D01*
X125114698Y-98613436D01*
X125194259Y-98494364D01*
X125249062Y-98362058D01*
X125277000Y-98221603D01*
X125277000Y-98128397D01*
X135473000Y-98128397D01*
X135473000Y-98271603D01*
X135500938Y-98412058D01*
X135555741Y-98544364D01*
X135635302Y-98663436D01*
X135736564Y-98764698D01*
X135855636Y-98844259D01*
X135987942Y-98899062D01*
X136128397Y-98927000D01*
X136271603Y-98927000D01*
X136412058Y-98899062D01*
X136544364Y-98844259D01*
X136642933Y-98778397D01*
X153623000Y-98778397D01*
X153623000Y-98921603D01*
X153650938Y-99062058D01*
X153705741Y-99194364D01*
X153785302Y-99313436D01*
X153886564Y-99414698D01*
X154005636Y-99494259D01*
X154137942Y-99549062D01*
X154278397Y-99577000D01*
X154421603Y-99577000D01*
X154562058Y-99549062D01*
X154694364Y-99494259D01*
X154813436Y-99414698D01*
X154914698Y-99313436D01*
X154994259Y-99194364D01*
X155049062Y-99062058D01*
X155077000Y-98921603D01*
X155077000Y-98778397D01*
X155123000Y-98778397D01*
X155123000Y-98921603D01*
X155150938Y-99062058D01*
X155205741Y-99194364D01*
X155285302Y-99313436D01*
X155386564Y-99414698D01*
X155505636Y-99494259D01*
X155637942Y-99549062D01*
X155778397Y-99577000D01*
X155921603Y-99577000D01*
X156062058Y-99549062D01*
X156194364Y-99494259D01*
X156313436Y-99414698D01*
X156414698Y-99313436D01*
X156494259Y-99194364D01*
X156549062Y-99062058D01*
X156577000Y-98921603D01*
X156577000Y-98778397D01*
X156549062Y-98637942D01*
X156494259Y-98505636D01*
X156414698Y-98386564D01*
X156313436Y-98285302D01*
X156194364Y-98205741D01*
X156062058Y-98150938D01*
X155921603Y-98123000D01*
X155778397Y-98123000D01*
X155637942Y-98150938D01*
X155505636Y-98205741D01*
X155386564Y-98285302D01*
X155285302Y-98386564D01*
X155205741Y-98505636D01*
X155150938Y-98637942D01*
X155123000Y-98778397D01*
X155077000Y-98778397D01*
X155049062Y-98637942D01*
X154994259Y-98505636D01*
X154914698Y-98386564D01*
X154813436Y-98285302D01*
X154694364Y-98205741D01*
X154562058Y-98150938D01*
X154421603Y-98123000D01*
X154278397Y-98123000D01*
X154137942Y-98150938D01*
X154005636Y-98205741D01*
X153886564Y-98285302D01*
X153785302Y-98386564D01*
X153705741Y-98505636D01*
X153650938Y-98637942D01*
X153623000Y-98778397D01*
X136642933Y-98778397D01*
X136663436Y-98764698D01*
X136764698Y-98663436D01*
X136844259Y-98544364D01*
X136899062Y-98412058D01*
X136927000Y-98271603D01*
X136927000Y-98128397D01*
X136899062Y-97987942D01*
X136844259Y-97855636D01*
X136764698Y-97736564D01*
X136663436Y-97635302D01*
X136544364Y-97555741D01*
X136412058Y-97500938D01*
X136271603Y-97473000D01*
X136128397Y-97473000D01*
X135987942Y-97500938D01*
X135855636Y-97555741D01*
X135736564Y-97635302D01*
X135635302Y-97736564D01*
X135555741Y-97855636D01*
X135500938Y-97987942D01*
X135473000Y-98128397D01*
X125277000Y-98128397D01*
X125277000Y-98078397D01*
X125249062Y-97937942D01*
X125194259Y-97805636D01*
X125114698Y-97686564D01*
X125013436Y-97585302D01*
X124894364Y-97505741D01*
X124762058Y-97450938D01*
X124621603Y-97423000D01*
X124478397Y-97423000D01*
X124337942Y-97450938D01*
X124205636Y-97505741D01*
X124177000Y-97524875D01*
X124177000Y-97378397D01*
X147623000Y-97378397D01*
X147623000Y-97521603D01*
X147650938Y-97662058D01*
X147705741Y-97794364D01*
X147785302Y-97913436D01*
X147886564Y-98014698D01*
X148005636Y-98094259D01*
X148137942Y-98149062D01*
X148278397Y-98177000D01*
X148421603Y-98177000D01*
X148562058Y-98149062D01*
X148694364Y-98094259D01*
X148813436Y-98014698D01*
X148914698Y-97913436D01*
X148954360Y-97854076D01*
X158973000Y-97854076D01*
X158973000Y-98085924D01*
X159018231Y-98313318D01*
X159106956Y-98527519D01*
X159235764Y-98720294D01*
X159399706Y-98884236D01*
X159592481Y-99013044D01*
X159806682Y-99101769D01*
X160034076Y-99147000D01*
X160265924Y-99147000D01*
X160493318Y-99101769D01*
X160707519Y-99013044D01*
X160900294Y-98884236D01*
X161064236Y-98720294D01*
X161193044Y-98527519D01*
X161281769Y-98313318D01*
X161327000Y-98085924D01*
X161327000Y-97854076D01*
X161281769Y-97626682D01*
X161193044Y-97412481D01*
X161064236Y-97219706D01*
X160900294Y-97055764D01*
X160707519Y-96926956D01*
X160493318Y-96838231D01*
X160265924Y-96793000D01*
X160034076Y-96793000D01*
X159806682Y-96838231D01*
X159592481Y-96926956D01*
X159399706Y-97055764D01*
X159235764Y-97219706D01*
X159106956Y-97412481D01*
X159018231Y-97626682D01*
X158973000Y-97854076D01*
X148954360Y-97854076D01*
X148994259Y-97794364D01*
X149049062Y-97662058D01*
X149077000Y-97521603D01*
X149077000Y-97378397D01*
X149049062Y-97237942D01*
X148994259Y-97105636D01*
X148914698Y-96986564D01*
X148813436Y-96885302D01*
X148694364Y-96805741D01*
X148562058Y-96750938D01*
X148421603Y-96723000D01*
X148278397Y-96723000D01*
X148137942Y-96750938D01*
X148005636Y-96805741D01*
X147886564Y-96885302D01*
X147785302Y-96986564D01*
X147705741Y-97105636D01*
X147650938Y-97237942D01*
X147623000Y-97378397D01*
X124177000Y-97378397D01*
X124177000Y-95778397D01*
X128673000Y-95778397D01*
X128673000Y-95921603D01*
X128700938Y-96062058D01*
X128755741Y-96194364D01*
X128835302Y-96313436D01*
X128936564Y-96414698D01*
X129055636Y-96494259D01*
X129187942Y-96549062D01*
X129328397Y-96577000D01*
X129471603Y-96577000D01*
X129612058Y-96549062D01*
X129744364Y-96494259D01*
X129863436Y-96414698D01*
X129964698Y-96313436D01*
X130044259Y-96194364D01*
X130099062Y-96062058D01*
X130105757Y-96028397D01*
X154473000Y-96028397D01*
X154473000Y-96171603D01*
X154500938Y-96312058D01*
X154555741Y-96444364D01*
X154635302Y-96563436D01*
X154736564Y-96664698D01*
X154855636Y-96744259D01*
X154987942Y-96799062D01*
X155128397Y-96827000D01*
X155271603Y-96827000D01*
X155412058Y-96799062D01*
X155544364Y-96744259D01*
X155663436Y-96664698D01*
X155764698Y-96563436D01*
X155844259Y-96444364D01*
X155899062Y-96312058D01*
X155927000Y-96171603D01*
X155927000Y-96028397D01*
X155899062Y-95887942D01*
X155844259Y-95755636D01*
X155764698Y-95636564D01*
X155663436Y-95535302D01*
X155544364Y-95455741D01*
X155412058Y-95400938D01*
X155271603Y-95373000D01*
X155128397Y-95373000D01*
X154987942Y-95400938D01*
X154855636Y-95455741D01*
X154736564Y-95535302D01*
X154635302Y-95636564D01*
X154555741Y-95755636D01*
X154500938Y-95887942D01*
X154473000Y-96028397D01*
X130105757Y-96028397D01*
X130127000Y-95921603D01*
X130127000Y-95778397D01*
X130099062Y-95637942D01*
X130044259Y-95505636D01*
X129964698Y-95386564D01*
X129892210Y-95314076D01*
X158973000Y-95314076D01*
X158973000Y-95545924D01*
X159018231Y-95773318D01*
X159106956Y-95987519D01*
X159235764Y-96180294D01*
X159399706Y-96344236D01*
X159592481Y-96473044D01*
X159806682Y-96561769D01*
X160034076Y-96607000D01*
X160265924Y-96607000D01*
X160493318Y-96561769D01*
X160707519Y-96473044D01*
X160900294Y-96344236D01*
X161064236Y-96180294D01*
X161193044Y-95987519D01*
X161281769Y-95773318D01*
X161327000Y-95545924D01*
X161327000Y-95314076D01*
X161281769Y-95086682D01*
X161193044Y-94872481D01*
X161064236Y-94679706D01*
X160900294Y-94515764D01*
X160707519Y-94386956D01*
X160493318Y-94298231D01*
X160265924Y-94253000D01*
X160034076Y-94253000D01*
X159806682Y-94298231D01*
X159592481Y-94386956D01*
X159399706Y-94515764D01*
X159235764Y-94679706D01*
X159106956Y-94872481D01*
X159018231Y-95086682D01*
X158973000Y-95314076D01*
X129892210Y-95314076D01*
X129863436Y-95285302D01*
X129744364Y-95205741D01*
X129612058Y-95150938D01*
X129471603Y-95123000D01*
X129328397Y-95123000D01*
X129187942Y-95150938D01*
X129055636Y-95205741D01*
X128936564Y-95285302D01*
X128835302Y-95386564D01*
X128755741Y-95505636D01*
X128700938Y-95637942D01*
X128673000Y-95778397D01*
X124177000Y-95778397D01*
X124177000Y-94077000D01*
X162343169Y-94077000D01*
X162323000Y-94178397D01*
G37*
G04 #@! TD.AperFunction*
D25*
X123623000Y-133998000D02*
X112766551Y-133998000D01*
X112820661Y-133975587D01*
X113398332Y-133589600D01*
X113889600Y-133098332D01*
X114275587Y-132520661D01*
X114541460Y-131878788D01*
X114677000Y-131197379D01*
X114677000Y-130502621D01*
X114541460Y-129821212D01*
X114534968Y-129805537D01*
X115973000Y-129805537D01*
X115986413Y-129941723D01*
X116039420Y-130116463D01*
X116125499Y-130277504D01*
X116241341Y-130418659D01*
X116382495Y-130534501D01*
X116543536Y-130620580D01*
X116718276Y-130673587D01*
X116900000Y-130691485D01*
X117081723Y-130673587D01*
X117256463Y-130620580D01*
X117417504Y-130534501D01*
X117558659Y-130418659D01*
X117674501Y-130277505D01*
X117760580Y-130116464D01*
X117813587Y-129941724D01*
X117827000Y-129805538D01*
X117827000Y-128514462D01*
X117813587Y-128378276D01*
X117760580Y-128203536D01*
X117674501Y-128042495D01*
X117558659Y-127901341D01*
X117417505Y-127785499D01*
X117256464Y-127699420D01*
X117081724Y-127646413D01*
X116900000Y-127628515D01*
X116718277Y-127646413D01*
X116543537Y-127699420D01*
X116382496Y-127785499D01*
X116241342Y-127901341D01*
X116125500Y-128042495D01*
X116039421Y-128203536D01*
X115986414Y-128378276D01*
X115973001Y-128514462D01*
X115973000Y-129805537D01*
X114534968Y-129805537D01*
X114275587Y-129179339D01*
X113889600Y-128601668D01*
X113398332Y-128110400D01*
X112820661Y-127724413D01*
X112178788Y-127458540D01*
X111497379Y-127323000D01*
X110802621Y-127323000D01*
X110121212Y-127458540D01*
X109479339Y-127724413D01*
X108901668Y-128110400D01*
X108410400Y-128601668D01*
X108024413Y-129179339D01*
X108002000Y-129233449D01*
X108002000Y-122944796D01*
X117865000Y-122944796D01*
X117865000Y-123375204D01*
X117948969Y-123797341D01*
X118113678Y-124194985D01*
X118352800Y-124552856D01*
X118657144Y-124857200D01*
X119015015Y-125096322D01*
X119412659Y-125261031D01*
X119834796Y-125345000D01*
X120265204Y-125345000D01*
X120687341Y-125261031D01*
X121084985Y-125096322D01*
X121442856Y-124857200D01*
X121747200Y-124552856D01*
X121986322Y-124194985D01*
X122151031Y-123797341D01*
X122235000Y-123375204D01*
X122235000Y-122944796D01*
X122151031Y-122522659D01*
X121986322Y-122125015D01*
X121747200Y-121767144D01*
X121442856Y-121462800D01*
X121084985Y-121223678D01*
X120687341Y-121058969D01*
X120265204Y-120975000D01*
X119834796Y-120975000D01*
X119412659Y-121058969D01*
X119015015Y-121223678D01*
X118657144Y-121462800D01*
X118352800Y-121767144D01*
X118113678Y-122125015D01*
X117948969Y-122522659D01*
X117865000Y-122944796D01*
X108002000Y-122944796D01*
X108002000Y-115000000D01*
X110618515Y-115000000D01*
X110636413Y-115181724D01*
X110689420Y-115356464D01*
X110775499Y-115517505D01*
X110891341Y-115658659D01*
X111032495Y-115774501D01*
X111193536Y-115860580D01*
X111368276Y-115913587D01*
X111504462Y-115927000D01*
X112795538Y-115927000D01*
X112931724Y-115913587D01*
X113106464Y-115860580D01*
X113267505Y-115774501D01*
X113408659Y-115658659D01*
X113524501Y-115517505D01*
X113610580Y-115356464D01*
X113663587Y-115181724D01*
X113681485Y-115000000D01*
X113663587Y-114818276D01*
X113610580Y-114643536D01*
X113524501Y-114482495D01*
X113408659Y-114341341D01*
X113267505Y-114225499D01*
X113106464Y-114139420D01*
X112931724Y-114086413D01*
X112795538Y-114073000D01*
X111504462Y-114073000D01*
X111368276Y-114086413D01*
X111193536Y-114139420D01*
X111032495Y-114225499D01*
X110891341Y-114341341D01*
X110775499Y-114482495D01*
X110689420Y-114643536D01*
X110636413Y-114818276D01*
X110618515Y-115000000D01*
X108002000Y-115000000D01*
X108002000Y-109992000D01*
X115963418Y-109992000D01*
X115963418Y-113708000D01*
X115969732Y-113772103D01*
X115988430Y-113833743D01*
X116018794Y-113890550D01*
X116059657Y-113940343D01*
X116109450Y-113981206D01*
X116166257Y-114011570D01*
X116227897Y-114030268D01*
X116292000Y-114036582D01*
X120008000Y-114036582D01*
X120072103Y-114030268D01*
X120133743Y-114011570D01*
X120190550Y-113981206D01*
X120240343Y-113940343D01*
X120281206Y-113890550D01*
X120311570Y-113833743D01*
X120330268Y-113772103D01*
X120336582Y-113708000D01*
X120336582Y-109992000D01*
X120330268Y-109927897D01*
X120311570Y-109866257D01*
X120281206Y-109809450D01*
X120240343Y-109759657D01*
X120190550Y-109718794D01*
X120133743Y-109688430D01*
X120072103Y-109669732D01*
X120008000Y-109663418D01*
X116292000Y-109663418D01*
X116227897Y-109669732D01*
X116166257Y-109688430D01*
X116109450Y-109718794D01*
X116059657Y-109759657D01*
X116018794Y-109809450D01*
X115988430Y-109866257D01*
X115969732Y-109927897D01*
X115963418Y-109992000D01*
X108002000Y-109992000D01*
X108002000Y-101526522D01*
X110620316Y-101518289D01*
X110636413Y-101681724D01*
X110689420Y-101856464D01*
X110775499Y-102017505D01*
X110891341Y-102158659D01*
X111032495Y-102274501D01*
X111193536Y-102360580D01*
X111368276Y-102413587D01*
X111504462Y-102427000D01*
X112795538Y-102427000D01*
X112931724Y-102413587D01*
X113106464Y-102360580D01*
X113267505Y-102274501D01*
X113408659Y-102158659D01*
X113524501Y-102017505D01*
X113610580Y-101856464D01*
X113663587Y-101681724D01*
X113680632Y-101508665D01*
X123623000Y-101477400D01*
X123623000Y-133998000D01*
G04 #@! TA.AperFunction,Conductor*
D26*
G36*
X123623000Y-133998000D02*
G01*
X112766551Y-133998000D01*
X112820661Y-133975587D01*
X113398332Y-133589600D01*
X113889600Y-133098332D01*
X114275587Y-132520661D01*
X114541460Y-131878788D01*
X114677000Y-131197379D01*
X114677000Y-130502621D01*
X114541460Y-129821212D01*
X114534968Y-129805537D01*
X115973000Y-129805537D01*
X115986413Y-129941723D01*
X116039420Y-130116463D01*
X116125499Y-130277504D01*
X116241341Y-130418659D01*
X116382495Y-130534501D01*
X116543536Y-130620580D01*
X116718276Y-130673587D01*
X116900000Y-130691485D01*
X117081723Y-130673587D01*
X117256463Y-130620580D01*
X117417504Y-130534501D01*
X117558659Y-130418659D01*
X117674501Y-130277505D01*
X117760580Y-130116464D01*
X117813587Y-129941724D01*
X117827000Y-129805538D01*
X117827000Y-128514462D01*
X117813587Y-128378276D01*
X117760580Y-128203536D01*
X117674501Y-128042495D01*
X117558659Y-127901341D01*
X117417505Y-127785499D01*
X117256464Y-127699420D01*
X117081724Y-127646413D01*
X116900000Y-127628515D01*
X116718277Y-127646413D01*
X116543537Y-127699420D01*
X116382496Y-127785499D01*
X116241342Y-127901341D01*
X116125500Y-128042495D01*
X116039421Y-128203536D01*
X115986414Y-128378276D01*
X115973001Y-128514462D01*
X115973000Y-129805537D01*
X114534968Y-129805537D01*
X114275587Y-129179339D01*
X113889600Y-128601668D01*
X113398332Y-128110400D01*
X112820661Y-127724413D01*
X112178788Y-127458540D01*
X111497379Y-127323000D01*
X110802621Y-127323000D01*
X110121212Y-127458540D01*
X109479339Y-127724413D01*
X108901668Y-128110400D01*
X108410400Y-128601668D01*
X108024413Y-129179339D01*
X108002000Y-129233449D01*
X108002000Y-122944796D01*
X117865000Y-122944796D01*
X117865000Y-123375204D01*
X117948969Y-123797341D01*
X118113678Y-124194985D01*
X118352800Y-124552856D01*
X118657144Y-124857200D01*
X119015015Y-125096322D01*
X119412659Y-125261031D01*
X119834796Y-125345000D01*
X120265204Y-125345000D01*
X120687341Y-125261031D01*
X121084985Y-125096322D01*
X121442856Y-124857200D01*
X121747200Y-124552856D01*
X121986322Y-124194985D01*
X122151031Y-123797341D01*
X122235000Y-123375204D01*
X122235000Y-122944796D01*
X122151031Y-122522659D01*
X121986322Y-122125015D01*
X121747200Y-121767144D01*
X121442856Y-121462800D01*
X121084985Y-121223678D01*
X120687341Y-121058969D01*
X120265204Y-120975000D01*
X119834796Y-120975000D01*
X119412659Y-121058969D01*
X119015015Y-121223678D01*
X118657144Y-121462800D01*
X118352800Y-121767144D01*
X118113678Y-122125015D01*
X117948969Y-122522659D01*
X117865000Y-122944796D01*
X108002000Y-122944796D01*
X108002000Y-115000000D01*
X110618515Y-115000000D01*
X110636413Y-115181724D01*
X110689420Y-115356464D01*
X110775499Y-115517505D01*
X110891341Y-115658659D01*
X111032495Y-115774501D01*
X111193536Y-115860580D01*
X111368276Y-115913587D01*
X111504462Y-115927000D01*
X112795538Y-115927000D01*
X112931724Y-115913587D01*
X113106464Y-115860580D01*
X113267505Y-115774501D01*
X113408659Y-115658659D01*
X113524501Y-115517505D01*
X113610580Y-115356464D01*
X113663587Y-115181724D01*
X113681485Y-115000000D01*
X113663587Y-114818276D01*
X113610580Y-114643536D01*
X113524501Y-114482495D01*
X113408659Y-114341341D01*
X113267505Y-114225499D01*
X113106464Y-114139420D01*
X112931724Y-114086413D01*
X112795538Y-114073000D01*
X111504462Y-114073000D01*
X111368276Y-114086413D01*
X111193536Y-114139420D01*
X111032495Y-114225499D01*
X110891341Y-114341341D01*
X110775499Y-114482495D01*
X110689420Y-114643536D01*
X110636413Y-114818276D01*
X110618515Y-115000000D01*
X108002000Y-115000000D01*
X108002000Y-109992000D01*
X115963418Y-109992000D01*
X115963418Y-113708000D01*
X115969732Y-113772103D01*
X115988430Y-113833743D01*
X116018794Y-113890550D01*
X116059657Y-113940343D01*
X116109450Y-113981206D01*
X116166257Y-114011570D01*
X116227897Y-114030268D01*
X116292000Y-114036582D01*
X120008000Y-114036582D01*
X120072103Y-114030268D01*
X120133743Y-114011570D01*
X120190550Y-113981206D01*
X120240343Y-113940343D01*
X120281206Y-113890550D01*
X120311570Y-113833743D01*
X120330268Y-113772103D01*
X120336582Y-113708000D01*
X120336582Y-109992000D01*
X120330268Y-109927897D01*
X120311570Y-109866257D01*
X120281206Y-109809450D01*
X120240343Y-109759657D01*
X120190550Y-109718794D01*
X120133743Y-109688430D01*
X120072103Y-109669732D01*
X120008000Y-109663418D01*
X116292000Y-109663418D01*
X116227897Y-109669732D01*
X116166257Y-109688430D01*
X116109450Y-109718794D01*
X116059657Y-109759657D01*
X116018794Y-109809450D01*
X115988430Y-109866257D01*
X115969732Y-109927897D01*
X115963418Y-109992000D01*
X108002000Y-109992000D01*
X108002000Y-101526522D01*
X110620316Y-101518289D01*
X110636413Y-101681724D01*
X110689420Y-101856464D01*
X110775499Y-102017505D01*
X110891341Y-102158659D01*
X111032495Y-102274501D01*
X111193536Y-102360580D01*
X111368276Y-102413587D01*
X111504462Y-102427000D01*
X112795538Y-102427000D01*
X112931724Y-102413587D01*
X113106464Y-102360580D01*
X113267505Y-102274501D01*
X113408659Y-102158659D01*
X113524501Y-102017505D01*
X113610580Y-101856464D01*
X113663587Y-101681724D01*
X113680632Y-101508665D01*
X123623000Y-101477400D01*
X123623000Y-133998000D01*
G37*
G04 #@! TD.AperFunction*
D25*
X138700938Y-91187942D02*
X138673000Y-91328397D01*
X138673000Y-91471603D01*
X138700938Y-91612058D01*
X138755741Y-91744364D01*
X138835302Y-91863436D01*
X138936564Y-91964698D01*
X139055636Y-92044259D01*
X139187942Y-92099062D01*
X139328397Y-92127000D01*
X139471603Y-92127000D01*
X139612058Y-92099062D01*
X139744364Y-92044259D01*
X139863436Y-91964698D01*
X139964698Y-91863436D01*
X140044259Y-91744364D01*
X140099062Y-91612058D01*
X140127000Y-91471603D01*
X140127000Y-91328397D01*
X140099062Y-91187942D01*
X140094530Y-91177000D01*
X141705470Y-91177000D01*
X141700938Y-91187942D01*
X141673000Y-91328397D01*
X141673000Y-91471603D01*
X141700938Y-91612058D01*
X141755741Y-91744364D01*
X141835302Y-91863436D01*
X141936564Y-91964698D01*
X142055636Y-92044259D01*
X142187942Y-92099062D01*
X142328397Y-92127000D01*
X142471603Y-92127000D01*
X142612058Y-92099062D01*
X142744364Y-92044259D01*
X142863436Y-91964698D01*
X142964698Y-91863436D01*
X143044259Y-91744364D01*
X143099062Y-91612058D01*
X143127000Y-91471603D01*
X143127000Y-91328397D01*
X143099062Y-91187942D01*
X143094530Y-91177000D01*
X158971418Y-91177000D01*
X158971418Y-91200000D01*
X158977732Y-91264103D01*
X158996430Y-91325743D01*
X159026794Y-91382550D01*
X159067657Y-91432343D01*
X159117450Y-91473206D01*
X159174257Y-91503570D01*
X159235897Y-91522268D01*
X159300000Y-91528582D01*
X161000000Y-91528582D01*
X161064103Y-91522268D01*
X161125743Y-91503570D01*
X161182550Y-91473206D01*
X161232343Y-91432343D01*
X161273206Y-91382550D01*
X161303570Y-91325743D01*
X161322268Y-91264103D01*
X161328582Y-91200000D01*
X161328582Y-91177000D01*
X164723000Y-91177000D01*
X164723000Y-92279806D01*
X164705741Y-92305636D01*
X164650938Y-92437942D01*
X164623000Y-92578397D01*
X164623000Y-92721603D01*
X164650938Y-92862058D01*
X164705741Y-92994364D01*
X164723000Y-93020194D01*
X164723000Y-93623000D01*
X163420194Y-93623000D01*
X163394364Y-93605741D01*
X163262058Y-93550938D01*
X163121603Y-93523000D01*
X162978397Y-93523000D01*
X162837942Y-93550938D01*
X162705636Y-93605741D01*
X162679806Y-93623000D01*
X161075791Y-93623000D01*
X161193044Y-93447519D01*
X161281769Y-93233318D01*
X161327000Y-93005924D01*
X161327000Y-92774076D01*
X161281769Y-92546682D01*
X161193044Y-92332481D01*
X161064236Y-92139706D01*
X160900294Y-91975764D01*
X160707519Y-91846956D01*
X160493318Y-91758231D01*
X160265924Y-91713000D01*
X160034076Y-91713000D01*
X159806682Y-91758231D01*
X159592481Y-91846956D01*
X159399706Y-91975764D01*
X159235764Y-92139706D01*
X159106956Y-92332481D01*
X159018231Y-92546682D01*
X158973000Y-92774076D01*
X158973000Y-93005924D01*
X159018231Y-93233318D01*
X159106956Y-93447519D01*
X159224209Y-93623000D01*
X123750000Y-93623000D01*
X123725224Y-93625440D01*
X123701399Y-93632667D01*
X123679443Y-93644403D01*
X123660197Y-93660197D01*
X123644403Y-93679443D01*
X123632667Y-93701399D01*
X123625440Y-93725224D01*
X123623000Y-93750000D01*
X123623000Y-101023000D01*
X113546152Y-101023000D01*
X113524501Y-100982495D01*
X113408659Y-100841341D01*
X113267505Y-100725499D01*
X113106464Y-100639420D01*
X112931724Y-100586413D01*
X112795538Y-100573000D01*
X111504462Y-100573000D01*
X111368276Y-100586413D01*
X111193536Y-100639420D01*
X111032495Y-100725499D01*
X110891341Y-100841341D01*
X110775499Y-100982495D01*
X110753848Y-101023000D01*
X108002000Y-101023000D01*
X108002000Y-97700000D01*
X110618515Y-97700000D01*
X110636413Y-97881724D01*
X110689420Y-98056464D01*
X110775499Y-98217505D01*
X110891341Y-98358659D01*
X111032495Y-98474501D01*
X111193536Y-98560580D01*
X111368276Y-98613587D01*
X111504462Y-98627000D01*
X112795538Y-98627000D01*
X112931724Y-98613587D01*
X113106464Y-98560580D01*
X113267505Y-98474501D01*
X113408659Y-98358659D01*
X113524501Y-98217505D01*
X113610580Y-98056464D01*
X113663587Y-97881724D01*
X113681485Y-97700000D01*
X113663587Y-97518276D01*
X113610580Y-97343536D01*
X113524501Y-97182495D01*
X113408659Y-97041341D01*
X113267505Y-96925499D01*
X113106464Y-96839420D01*
X112931724Y-96786413D01*
X112795538Y-96773000D01*
X111504462Y-96773000D01*
X111368276Y-96786413D01*
X111193536Y-96839420D01*
X111032495Y-96925499D01*
X110891341Y-97041341D01*
X110775499Y-97182495D01*
X110689420Y-97343536D01*
X110636413Y-97518276D01*
X110618515Y-97700000D01*
X108002000Y-97700000D01*
X108002000Y-92692000D01*
X115963418Y-92692000D01*
X115963418Y-96408000D01*
X115969732Y-96472103D01*
X115988430Y-96533743D01*
X116018794Y-96590550D01*
X116059657Y-96640343D01*
X116109450Y-96681206D01*
X116166257Y-96711570D01*
X116227897Y-96730268D01*
X116292000Y-96736582D01*
X120008000Y-96736582D01*
X120072103Y-96730268D01*
X120133743Y-96711570D01*
X120190550Y-96681206D01*
X120240343Y-96640343D01*
X120281206Y-96590550D01*
X120311570Y-96533743D01*
X120330268Y-96472103D01*
X120336582Y-96408000D01*
X120336582Y-92692000D01*
X120330268Y-92627897D01*
X120311570Y-92566257D01*
X120281206Y-92509450D01*
X120240343Y-92459657D01*
X120190550Y-92418794D01*
X120133743Y-92388430D01*
X120072103Y-92369732D01*
X120008000Y-92363418D01*
X116292000Y-92363418D01*
X116227897Y-92369732D01*
X116166257Y-92388430D01*
X116109450Y-92418794D01*
X116059657Y-92459657D01*
X116018794Y-92509450D01*
X115988430Y-92566257D01*
X115969732Y-92627897D01*
X115963418Y-92692000D01*
X108002000Y-92692000D01*
X108002000Y-91978397D01*
X128323000Y-91978397D01*
X128323000Y-92121603D01*
X128350938Y-92262058D01*
X128405741Y-92394364D01*
X128485302Y-92513436D01*
X128586564Y-92614698D01*
X128705636Y-92694259D01*
X128837942Y-92749062D01*
X128978397Y-92777000D01*
X129121603Y-92777000D01*
X129262058Y-92749062D01*
X129394364Y-92694259D01*
X129513436Y-92614698D01*
X129614698Y-92513436D01*
X129694259Y-92394364D01*
X129700872Y-92378397D01*
X134423000Y-92378397D01*
X134423000Y-92521603D01*
X134450938Y-92662058D01*
X134505741Y-92794364D01*
X134585302Y-92913436D01*
X134686564Y-93014698D01*
X134805636Y-93094259D01*
X134937942Y-93149062D01*
X135078397Y-93177000D01*
X135221603Y-93177000D01*
X135362058Y-93149062D01*
X135494364Y-93094259D01*
X135613436Y-93014698D01*
X135714698Y-92913436D01*
X135794259Y-92794364D01*
X135849062Y-92662058D01*
X135865703Y-92578397D01*
X154823000Y-92578397D01*
X154823000Y-92721603D01*
X154850938Y-92862058D01*
X154905741Y-92994364D01*
X154985302Y-93113436D01*
X155086564Y-93214698D01*
X155205636Y-93294259D01*
X155337942Y-93349062D01*
X155478397Y-93377000D01*
X155621603Y-93377000D01*
X155762058Y-93349062D01*
X155894364Y-93294259D01*
X156013436Y-93214698D01*
X156114698Y-93113436D01*
X156194259Y-92994364D01*
X156249062Y-92862058D01*
X156277000Y-92721603D01*
X156277000Y-92603397D01*
X156748000Y-92603397D01*
X156748000Y-92746603D01*
X156775938Y-92887058D01*
X156830741Y-93019364D01*
X156910302Y-93138436D01*
X157011564Y-93239698D01*
X157130636Y-93319259D01*
X157262942Y-93374062D01*
X157403397Y-93402000D01*
X157546603Y-93402000D01*
X157687058Y-93374062D01*
X157819364Y-93319259D01*
X157938436Y-93239698D01*
X158039698Y-93138436D01*
X158119259Y-93019364D01*
X158174062Y-92887058D01*
X158202000Y-92746603D01*
X158202000Y-92603397D01*
X158174062Y-92462942D01*
X158119259Y-92330636D01*
X158039698Y-92211564D01*
X157938436Y-92110302D01*
X157819364Y-92030741D01*
X157687058Y-91975938D01*
X157546603Y-91948000D01*
X157403397Y-91948000D01*
X157262942Y-91975938D01*
X157130636Y-92030741D01*
X157011564Y-92110302D01*
X156910302Y-92211564D01*
X156830741Y-92330636D01*
X156775938Y-92462942D01*
X156748000Y-92603397D01*
X156277000Y-92603397D01*
X156277000Y-92578397D01*
X156249062Y-92437942D01*
X156194259Y-92305636D01*
X156114698Y-92186564D01*
X156013436Y-92085302D01*
X155894364Y-92005741D01*
X155762058Y-91950938D01*
X155621603Y-91923000D01*
X155478397Y-91923000D01*
X155337942Y-91950938D01*
X155205636Y-92005741D01*
X155086564Y-92085302D01*
X154985302Y-92186564D01*
X154905741Y-92305636D01*
X154850938Y-92437942D01*
X154823000Y-92578397D01*
X135865703Y-92578397D01*
X135877000Y-92521603D01*
X135877000Y-92378397D01*
X135849062Y-92237942D01*
X135794259Y-92105636D01*
X135714698Y-91986564D01*
X135613436Y-91885302D01*
X135494364Y-91805741D01*
X135362058Y-91750938D01*
X135221603Y-91723000D01*
X135078397Y-91723000D01*
X134937942Y-91750938D01*
X134805636Y-91805741D01*
X134686564Y-91885302D01*
X134585302Y-91986564D01*
X134505741Y-92105636D01*
X134450938Y-92237942D01*
X134423000Y-92378397D01*
X129700872Y-92378397D01*
X129749062Y-92262058D01*
X129777000Y-92121603D01*
X129777000Y-91978397D01*
X129749062Y-91837942D01*
X129694259Y-91705636D01*
X129614698Y-91586564D01*
X129513436Y-91485302D01*
X129394364Y-91405741D01*
X129262058Y-91350938D01*
X129121603Y-91323000D01*
X128978397Y-91323000D01*
X128837942Y-91350938D01*
X128705636Y-91405741D01*
X128586564Y-91485302D01*
X128485302Y-91586564D01*
X128405741Y-91705636D01*
X128350938Y-91837942D01*
X128323000Y-91978397D01*
X108002000Y-91978397D01*
X108002000Y-91777000D01*
X127450000Y-91777000D01*
X127474776Y-91774560D01*
X127498601Y-91767333D01*
X127520557Y-91755597D01*
X127539803Y-91739803D01*
X127555597Y-91720557D01*
X127567333Y-91698601D01*
X127574560Y-91674776D01*
X127577000Y-91650000D01*
X127577000Y-91177000D01*
X138705470Y-91177000D01*
X138700938Y-91187942D01*
G04 #@! TA.AperFunction,Conductor*
D26*
G36*
X138700938Y-91187942D02*
G01*
X138673000Y-91328397D01*
X138673000Y-91471603D01*
X138700938Y-91612058D01*
X138755741Y-91744364D01*
X138835302Y-91863436D01*
X138936564Y-91964698D01*
X139055636Y-92044259D01*
X139187942Y-92099062D01*
X139328397Y-92127000D01*
X139471603Y-92127000D01*
X139612058Y-92099062D01*
X139744364Y-92044259D01*
X139863436Y-91964698D01*
X139964698Y-91863436D01*
X140044259Y-91744364D01*
X140099062Y-91612058D01*
X140127000Y-91471603D01*
X140127000Y-91328397D01*
X140099062Y-91187942D01*
X140094530Y-91177000D01*
X141705470Y-91177000D01*
X141700938Y-91187942D01*
X141673000Y-91328397D01*
X141673000Y-91471603D01*
X141700938Y-91612058D01*
X141755741Y-91744364D01*
X141835302Y-91863436D01*
X141936564Y-91964698D01*
X142055636Y-92044259D01*
X142187942Y-92099062D01*
X142328397Y-92127000D01*
X142471603Y-92127000D01*
X142612058Y-92099062D01*
X142744364Y-92044259D01*
X142863436Y-91964698D01*
X142964698Y-91863436D01*
X143044259Y-91744364D01*
X143099062Y-91612058D01*
X143127000Y-91471603D01*
X143127000Y-91328397D01*
X143099062Y-91187942D01*
X143094530Y-91177000D01*
X158971418Y-91177000D01*
X158971418Y-91200000D01*
X158977732Y-91264103D01*
X158996430Y-91325743D01*
X159026794Y-91382550D01*
X159067657Y-91432343D01*
X159117450Y-91473206D01*
X159174257Y-91503570D01*
X159235897Y-91522268D01*
X159300000Y-91528582D01*
X161000000Y-91528582D01*
X161064103Y-91522268D01*
X161125743Y-91503570D01*
X161182550Y-91473206D01*
X161232343Y-91432343D01*
X161273206Y-91382550D01*
X161303570Y-91325743D01*
X161322268Y-91264103D01*
X161328582Y-91200000D01*
X161328582Y-91177000D01*
X164723000Y-91177000D01*
X164723000Y-92279806D01*
X164705741Y-92305636D01*
X164650938Y-92437942D01*
X164623000Y-92578397D01*
X164623000Y-92721603D01*
X164650938Y-92862058D01*
X164705741Y-92994364D01*
X164723000Y-93020194D01*
X164723000Y-93623000D01*
X163420194Y-93623000D01*
X163394364Y-93605741D01*
X163262058Y-93550938D01*
X163121603Y-93523000D01*
X162978397Y-93523000D01*
X162837942Y-93550938D01*
X162705636Y-93605741D01*
X162679806Y-93623000D01*
X161075791Y-93623000D01*
X161193044Y-93447519D01*
X161281769Y-93233318D01*
X161327000Y-93005924D01*
X161327000Y-92774076D01*
X161281769Y-92546682D01*
X161193044Y-92332481D01*
X161064236Y-92139706D01*
X160900294Y-91975764D01*
X160707519Y-91846956D01*
X160493318Y-91758231D01*
X160265924Y-91713000D01*
X160034076Y-91713000D01*
X159806682Y-91758231D01*
X159592481Y-91846956D01*
X159399706Y-91975764D01*
X159235764Y-92139706D01*
X159106956Y-92332481D01*
X159018231Y-92546682D01*
X158973000Y-92774076D01*
X158973000Y-93005924D01*
X159018231Y-93233318D01*
X159106956Y-93447519D01*
X159224209Y-93623000D01*
X123750000Y-93623000D01*
X123725224Y-93625440D01*
X123701399Y-93632667D01*
X123679443Y-93644403D01*
X123660197Y-93660197D01*
X123644403Y-93679443D01*
X123632667Y-93701399D01*
X123625440Y-93725224D01*
X123623000Y-93750000D01*
X123623000Y-101023000D01*
X113546152Y-101023000D01*
X113524501Y-100982495D01*
X113408659Y-100841341D01*
X113267505Y-100725499D01*
X113106464Y-100639420D01*
X112931724Y-100586413D01*
X112795538Y-100573000D01*
X111504462Y-100573000D01*
X111368276Y-100586413D01*
X111193536Y-100639420D01*
X111032495Y-100725499D01*
X110891341Y-100841341D01*
X110775499Y-100982495D01*
X110753848Y-101023000D01*
X108002000Y-101023000D01*
X108002000Y-97700000D01*
X110618515Y-97700000D01*
X110636413Y-97881724D01*
X110689420Y-98056464D01*
X110775499Y-98217505D01*
X110891341Y-98358659D01*
X111032495Y-98474501D01*
X111193536Y-98560580D01*
X111368276Y-98613587D01*
X111504462Y-98627000D01*
X112795538Y-98627000D01*
X112931724Y-98613587D01*
X113106464Y-98560580D01*
X113267505Y-98474501D01*
X113408659Y-98358659D01*
X113524501Y-98217505D01*
X113610580Y-98056464D01*
X113663587Y-97881724D01*
X113681485Y-97700000D01*
X113663587Y-97518276D01*
X113610580Y-97343536D01*
X113524501Y-97182495D01*
X113408659Y-97041341D01*
X113267505Y-96925499D01*
X113106464Y-96839420D01*
X112931724Y-96786413D01*
X112795538Y-96773000D01*
X111504462Y-96773000D01*
X111368276Y-96786413D01*
X111193536Y-96839420D01*
X111032495Y-96925499D01*
X110891341Y-97041341D01*
X110775499Y-97182495D01*
X110689420Y-97343536D01*
X110636413Y-97518276D01*
X110618515Y-97700000D01*
X108002000Y-97700000D01*
X108002000Y-92692000D01*
X115963418Y-92692000D01*
X115963418Y-96408000D01*
X115969732Y-96472103D01*
X115988430Y-96533743D01*
X116018794Y-96590550D01*
X116059657Y-96640343D01*
X116109450Y-96681206D01*
X116166257Y-96711570D01*
X116227897Y-96730268D01*
X116292000Y-96736582D01*
X120008000Y-96736582D01*
X120072103Y-96730268D01*
X120133743Y-96711570D01*
X120190550Y-96681206D01*
X120240343Y-96640343D01*
X120281206Y-96590550D01*
X120311570Y-96533743D01*
X120330268Y-96472103D01*
X120336582Y-96408000D01*
X120336582Y-92692000D01*
X120330268Y-92627897D01*
X120311570Y-92566257D01*
X120281206Y-92509450D01*
X120240343Y-92459657D01*
X120190550Y-92418794D01*
X120133743Y-92388430D01*
X120072103Y-92369732D01*
X120008000Y-92363418D01*
X116292000Y-92363418D01*
X116227897Y-92369732D01*
X116166257Y-92388430D01*
X116109450Y-92418794D01*
X116059657Y-92459657D01*
X116018794Y-92509450D01*
X115988430Y-92566257D01*
X115969732Y-92627897D01*
X115963418Y-92692000D01*
X108002000Y-92692000D01*
X108002000Y-91978397D01*
X128323000Y-91978397D01*
X128323000Y-92121603D01*
X128350938Y-92262058D01*
X128405741Y-92394364D01*
X128485302Y-92513436D01*
X128586564Y-92614698D01*
X128705636Y-92694259D01*
X128837942Y-92749062D01*
X128978397Y-92777000D01*
X129121603Y-92777000D01*
X129262058Y-92749062D01*
X129394364Y-92694259D01*
X129513436Y-92614698D01*
X129614698Y-92513436D01*
X129694259Y-92394364D01*
X129700872Y-92378397D01*
X134423000Y-92378397D01*
X134423000Y-92521603D01*
X134450938Y-92662058D01*
X134505741Y-92794364D01*
X134585302Y-92913436D01*
X134686564Y-93014698D01*
X134805636Y-93094259D01*
X134937942Y-93149062D01*
X135078397Y-93177000D01*
X135221603Y-93177000D01*
X135362058Y-93149062D01*
X135494364Y-93094259D01*
X135613436Y-93014698D01*
X135714698Y-92913436D01*
X135794259Y-92794364D01*
X135849062Y-92662058D01*
X135865703Y-92578397D01*
X154823000Y-92578397D01*
X154823000Y-92721603D01*
X154850938Y-92862058D01*
X154905741Y-92994364D01*
X154985302Y-93113436D01*
X155086564Y-93214698D01*
X155205636Y-93294259D01*
X155337942Y-93349062D01*
X155478397Y-93377000D01*
X155621603Y-93377000D01*
X155762058Y-93349062D01*
X155894364Y-93294259D01*
X156013436Y-93214698D01*
X156114698Y-93113436D01*
X156194259Y-92994364D01*
X156249062Y-92862058D01*
X156277000Y-92721603D01*
X156277000Y-92603397D01*
X156748000Y-92603397D01*
X156748000Y-92746603D01*
X156775938Y-92887058D01*
X156830741Y-93019364D01*
X156910302Y-93138436D01*
X157011564Y-93239698D01*
X157130636Y-93319259D01*
X157262942Y-93374062D01*
X157403397Y-93402000D01*
X157546603Y-93402000D01*
X157687058Y-93374062D01*
X157819364Y-93319259D01*
X157938436Y-93239698D01*
X158039698Y-93138436D01*
X158119259Y-93019364D01*
X158174062Y-92887058D01*
X158202000Y-92746603D01*
X158202000Y-92603397D01*
X158174062Y-92462942D01*
X158119259Y-92330636D01*
X158039698Y-92211564D01*
X157938436Y-92110302D01*
X157819364Y-92030741D01*
X157687058Y-91975938D01*
X157546603Y-91948000D01*
X157403397Y-91948000D01*
X157262942Y-91975938D01*
X157130636Y-92030741D01*
X157011564Y-92110302D01*
X156910302Y-92211564D01*
X156830741Y-92330636D01*
X156775938Y-92462942D01*
X156748000Y-92603397D01*
X156277000Y-92603397D01*
X156277000Y-92578397D01*
X156249062Y-92437942D01*
X156194259Y-92305636D01*
X156114698Y-92186564D01*
X156013436Y-92085302D01*
X155894364Y-92005741D01*
X155762058Y-91950938D01*
X155621603Y-91923000D01*
X155478397Y-91923000D01*
X155337942Y-91950938D01*
X155205636Y-92005741D01*
X155086564Y-92085302D01*
X154985302Y-92186564D01*
X154905741Y-92305636D01*
X154850938Y-92437942D01*
X154823000Y-92578397D01*
X135865703Y-92578397D01*
X135877000Y-92521603D01*
X135877000Y-92378397D01*
X135849062Y-92237942D01*
X135794259Y-92105636D01*
X135714698Y-91986564D01*
X135613436Y-91885302D01*
X135494364Y-91805741D01*
X135362058Y-91750938D01*
X135221603Y-91723000D01*
X135078397Y-91723000D01*
X134937942Y-91750938D01*
X134805636Y-91805741D01*
X134686564Y-91885302D01*
X134585302Y-91986564D01*
X134505741Y-92105636D01*
X134450938Y-92237942D01*
X134423000Y-92378397D01*
X129700872Y-92378397D01*
X129749062Y-92262058D01*
X129777000Y-92121603D01*
X129777000Y-91978397D01*
X129749062Y-91837942D01*
X129694259Y-91705636D01*
X129614698Y-91586564D01*
X129513436Y-91485302D01*
X129394364Y-91405741D01*
X129262058Y-91350938D01*
X129121603Y-91323000D01*
X128978397Y-91323000D01*
X128837942Y-91350938D01*
X128705636Y-91405741D01*
X128586564Y-91485302D01*
X128485302Y-91586564D01*
X128405741Y-91705636D01*
X128350938Y-91837942D01*
X128323000Y-91978397D01*
X108002000Y-91978397D01*
X108002000Y-91777000D01*
X127450000Y-91777000D01*
X127474776Y-91774560D01*
X127498601Y-91767333D01*
X127520557Y-91755597D01*
X127539803Y-91739803D01*
X127555597Y-91720557D01*
X127567333Y-91698601D01*
X127574560Y-91674776D01*
X127577000Y-91650000D01*
X127577000Y-91177000D01*
X138705470Y-91177000D01*
X138700938Y-91187942D01*
G37*
G04 #@! TD.AperFunction*
D25*
X131305636Y-86794259D02*
X131437942Y-86849062D01*
X131578397Y-86877000D01*
X131721603Y-86877000D01*
X131862058Y-86849062D01*
X131994364Y-86794259D01*
X132020194Y-86777000D01*
X151594866Y-86777000D01*
X151585302Y-86786564D01*
X151505741Y-86905636D01*
X151450938Y-87037942D01*
X151423000Y-87178397D01*
X151423000Y-87321603D01*
X151450938Y-87462058D01*
X151505741Y-87594364D01*
X151585302Y-87713436D01*
X151686564Y-87814698D01*
X151805636Y-87894259D01*
X151937942Y-87949062D01*
X152078397Y-87977000D01*
X152221603Y-87977000D01*
X152362058Y-87949062D01*
X152494364Y-87894259D01*
X152613436Y-87814698D01*
X152714698Y-87713436D01*
X152794259Y-87594364D01*
X152842294Y-87478397D01*
X155073000Y-87478397D01*
X155073000Y-87621603D01*
X155100938Y-87762058D01*
X155155741Y-87894364D01*
X155235302Y-88013436D01*
X155336564Y-88114698D01*
X155455636Y-88194259D01*
X155587942Y-88249062D01*
X155728397Y-88277000D01*
X155871603Y-88277000D01*
X156012058Y-88249062D01*
X156144364Y-88194259D01*
X156263436Y-88114698D01*
X156364698Y-88013436D01*
X156444259Y-87894364D01*
X156499062Y-87762058D01*
X156527000Y-87621603D01*
X156527000Y-87478397D01*
X156499062Y-87337942D01*
X156444259Y-87205636D01*
X156364698Y-87086564D01*
X156263436Y-86985302D01*
X156144364Y-86905741D01*
X156012058Y-86850938D01*
X155871603Y-86823000D01*
X155728397Y-86823000D01*
X155587942Y-86850938D01*
X155455636Y-86905741D01*
X155336564Y-86985302D01*
X155235302Y-87086564D01*
X155155741Y-87205636D01*
X155100938Y-87337942D01*
X155073000Y-87478397D01*
X152842294Y-87478397D01*
X152849062Y-87462058D01*
X152877000Y-87321603D01*
X152877000Y-87178397D01*
X152849062Y-87037942D01*
X152794259Y-86905636D01*
X152714698Y-86786564D01*
X152705134Y-86777000D01*
X164723000Y-86777000D01*
X164723000Y-90534680D01*
X164700938Y-90587942D01*
X164674074Y-90723000D01*
X161328582Y-90723000D01*
X161328582Y-89500000D01*
X161322268Y-89435897D01*
X161303570Y-89374257D01*
X161273206Y-89317450D01*
X161232343Y-89267657D01*
X161182550Y-89226794D01*
X161125743Y-89196430D01*
X161064103Y-89177732D01*
X161000000Y-89171418D01*
X159300000Y-89171418D01*
X159235897Y-89177732D01*
X159174257Y-89196430D01*
X159117450Y-89226794D01*
X159067657Y-89267657D01*
X159026794Y-89317450D01*
X158996430Y-89374257D01*
X158977732Y-89435897D01*
X158971418Y-89500000D01*
X158971418Y-90723000D01*
X142665320Y-90723000D01*
X142612058Y-90700938D01*
X142471603Y-90673000D01*
X142328397Y-90673000D01*
X142187942Y-90700938D01*
X142134680Y-90723000D01*
X139665320Y-90723000D01*
X139612058Y-90700938D01*
X139471603Y-90673000D01*
X139328397Y-90673000D01*
X139187942Y-90700938D01*
X139134680Y-90723000D01*
X127250000Y-90723000D01*
X127225224Y-90725440D01*
X127201399Y-90732667D01*
X127179443Y-90744403D01*
X127160197Y-90760197D01*
X127144403Y-90779443D01*
X127132667Y-90801399D01*
X127125440Y-90825224D01*
X127123000Y-90850000D01*
X127123000Y-91323000D01*
X108002000Y-91323000D01*
X108002000Y-90277000D01*
X118550000Y-90277000D01*
X118574776Y-90274560D01*
X118598601Y-90267333D01*
X118624698Y-90252709D01*
X119551877Y-89578397D01*
X140173000Y-89578397D01*
X140173000Y-89721603D01*
X140200938Y-89862058D01*
X140255741Y-89994364D01*
X140335302Y-90113436D01*
X140436564Y-90214698D01*
X140555636Y-90294259D01*
X140687942Y-90349062D01*
X140828397Y-90377000D01*
X140971603Y-90377000D01*
X141112058Y-90349062D01*
X141244364Y-90294259D01*
X141363436Y-90214698D01*
X141464698Y-90113436D01*
X141544259Y-89994364D01*
X141599062Y-89862058D01*
X141627000Y-89721603D01*
X141627000Y-89578397D01*
X141599062Y-89437942D01*
X141544259Y-89305636D01*
X141464698Y-89186564D01*
X141363436Y-89085302D01*
X141244364Y-89005741D01*
X141112058Y-88950938D01*
X140971603Y-88923000D01*
X140828397Y-88923000D01*
X140687942Y-88950938D01*
X140555636Y-89005741D01*
X140436564Y-89085302D01*
X140335302Y-89186564D01*
X140255741Y-89305636D01*
X140200938Y-89437942D01*
X140173000Y-89578397D01*
X119551877Y-89578397D01*
X120791298Y-88677000D01*
X127350000Y-88677000D01*
X127374776Y-88674560D01*
X127398601Y-88667333D01*
X127420557Y-88655597D01*
X127439803Y-88639803D01*
X127455597Y-88620557D01*
X127467333Y-88598601D01*
X127474560Y-88574776D01*
X127476824Y-88556675D01*
X127479410Y-88507544D01*
X127536564Y-88564698D01*
X127655636Y-88644259D01*
X127787942Y-88699062D01*
X127928397Y-88727000D01*
X128071603Y-88727000D01*
X128212058Y-88699062D01*
X128261947Y-88678397D01*
X129523000Y-88678397D01*
X129523000Y-88821603D01*
X129550938Y-88962058D01*
X129605741Y-89094364D01*
X129685302Y-89213436D01*
X129786564Y-89314698D01*
X129905636Y-89394259D01*
X130037942Y-89449062D01*
X130178397Y-89477000D01*
X130321603Y-89477000D01*
X130462058Y-89449062D01*
X130594364Y-89394259D01*
X130713436Y-89314698D01*
X130814698Y-89213436D01*
X130894259Y-89094364D01*
X130949062Y-88962058D01*
X130977000Y-88821603D01*
X130977000Y-88678397D01*
X130949062Y-88537942D01*
X130894259Y-88405636D01*
X130814698Y-88286564D01*
X130713436Y-88185302D01*
X130594364Y-88105741D01*
X130528350Y-88078397D01*
X138673000Y-88078397D01*
X138673000Y-88221603D01*
X138700938Y-88362058D01*
X138755741Y-88494364D01*
X138835302Y-88613436D01*
X138936564Y-88714698D01*
X139055636Y-88794259D01*
X139187942Y-88849062D01*
X139328397Y-88877000D01*
X139471603Y-88877000D01*
X139612058Y-88849062D01*
X139744364Y-88794259D01*
X139863436Y-88714698D01*
X139964698Y-88613436D01*
X140044259Y-88494364D01*
X140099062Y-88362058D01*
X140127000Y-88221603D01*
X140127000Y-88078397D01*
X141673000Y-88078397D01*
X141673000Y-88221603D01*
X141700938Y-88362058D01*
X141755741Y-88494364D01*
X141835302Y-88613436D01*
X141936564Y-88714698D01*
X142055636Y-88794259D01*
X142187942Y-88849062D01*
X142328397Y-88877000D01*
X142471603Y-88877000D01*
X142612058Y-88849062D01*
X142744364Y-88794259D01*
X142863436Y-88714698D01*
X142964698Y-88613436D01*
X143044259Y-88494364D01*
X143099062Y-88362058D01*
X143127000Y-88221603D01*
X143127000Y-88078397D01*
X143099062Y-87937942D01*
X143044259Y-87805636D01*
X142964698Y-87686564D01*
X142863436Y-87585302D01*
X142744364Y-87505741D01*
X142612058Y-87450938D01*
X142471603Y-87423000D01*
X142328397Y-87423000D01*
X142187942Y-87450938D01*
X142055636Y-87505741D01*
X141936564Y-87585302D01*
X141835302Y-87686564D01*
X141755741Y-87805636D01*
X141700938Y-87937942D01*
X141673000Y-88078397D01*
X140127000Y-88078397D01*
X140099062Y-87937942D01*
X140044259Y-87805636D01*
X139964698Y-87686564D01*
X139863436Y-87585302D01*
X139744364Y-87505741D01*
X139612058Y-87450938D01*
X139471603Y-87423000D01*
X139328397Y-87423000D01*
X139187942Y-87450938D01*
X139055636Y-87505741D01*
X138936564Y-87585302D01*
X138835302Y-87686564D01*
X138755741Y-87805636D01*
X138700938Y-87937942D01*
X138673000Y-88078397D01*
X130528350Y-88078397D01*
X130462058Y-88050938D01*
X130321603Y-88023000D01*
X130178397Y-88023000D01*
X130037942Y-88050938D01*
X129905636Y-88105741D01*
X129786564Y-88185302D01*
X129685302Y-88286564D01*
X129605741Y-88405636D01*
X129550938Y-88537942D01*
X129523000Y-88678397D01*
X128261947Y-88678397D01*
X128344364Y-88644259D01*
X128463436Y-88564698D01*
X128564698Y-88463436D01*
X128644259Y-88344364D01*
X128699062Y-88212058D01*
X128727000Y-88071603D01*
X128727000Y-87928397D01*
X128699062Y-87787942D01*
X128644259Y-87655636D01*
X128564698Y-87536564D01*
X128463436Y-87435302D01*
X128344364Y-87355741D01*
X128212058Y-87300938D01*
X128071603Y-87273000D01*
X127928397Y-87273000D01*
X127787942Y-87300938D01*
X127655636Y-87355741D01*
X127536564Y-87435302D01*
X127535804Y-87436062D01*
X127570491Y-86777000D01*
X131279806Y-86777000D01*
X131305636Y-86794259D01*
G04 #@! TA.AperFunction,Conductor*
D26*
G36*
X131305636Y-86794259D02*
G01*
X131437942Y-86849062D01*
X131578397Y-86877000D01*
X131721603Y-86877000D01*
X131862058Y-86849062D01*
X131994364Y-86794259D01*
X132020194Y-86777000D01*
X151594866Y-86777000D01*
X151585302Y-86786564D01*
X151505741Y-86905636D01*
X151450938Y-87037942D01*
X151423000Y-87178397D01*
X151423000Y-87321603D01*
X151450938Y-87462058D01*
X151505741Y-87594364D01*
X151585302Y-87713436D01*
X151686564Y-87814698D01*
X151805636Y-87894259D01*
X151937942Y-87949062D01*
X152078397Y-87977000D01*
X152221603Y-87977000D01*
X152362058Y-87949062D01*
X152494364Y-87894259D01*
X152613436Y-87814698D01*
X152714698Y-87713436D01*
X152794259Y-87594364D01*
X152842294Y-87478397D01*
X155073000Y-87478397D01*
X155073000Y-87621603D01*
X155100938Y-87762058D01*
X155155741Y-87894364D01*
X155235302Y-88013436D01*
X155336564Y-88114698D01*
X155455636Y-88194259D01*
X155587942Y-88249062D01*
X155728397Y-88277000D01*
X155871603Y-88277000D01*
X156012058Y-88249062D01*
X156144364Y-88194259D01*
X156263436Y-88114698D01*
X156364698Y-88013436D01*
X156444259Y-87894364D01*
X156499062Y-87762058D01*
X156527000Y-87621603D01*
X156527000Y-87478397D01*
X156499062Y-87337942D01*
X156444259Y-87205636D01*
X156364698Y-87086564D01*
X156263436Y-86985302D01*
X156144364Y-86905741D01*
X156012058Y-86850938D01*
X155871603Y-86823000D01*
X155728397Y-86823000D01*
X155587942Y-86850938D01*
X155455636Y-86905741D01*
X155336564Y-86985302D01*
X155235302Y-87086564D01*
X155155741Y-87205636D01*
X155100938Y-87337942D01*
X155073000Y-87478397D01*
X152842294Y-87478397D01*
X152849062Y-87462058D01*
X152877000Y-87321603D01*
X152877000Y-87178397D01*
X152849062Y-87037942D01*
X152794259Y-86905636D01*
X152714698Y-86786564D01*
X152705134Y-86777000D01*
X164723000Y-86777000D01*
X164723000Y-90534680D01*
X164700938Y-90587942D01*
X164674074Y-90723000D01*
X161328582Y-90723000D01*
X161328582Y-89500000D01*
X161322268Y-89435897D01*
X161303570Y-89374257D01*
X161273206Y-89317450D01*
X161232343Y-89267657D01*
X161182550Y-89226794D01*
X161125743Y-89196430D01*
X161064103Y-89177732D01*
X161000000Y-89171418D01*
X159300000Y-89171418D01*
X159235897Y-89177732D01*
X159174257Y-89196430D01*
X159117450Y-89226794D01*
X159067657Y-89267657D01*
X159026794Y-89317450D01*
X158996430Y-89374257D01*
X158977732Y-89435897D01*
X158971418Y-89500000D01*
X158971418Y-90723000D01*
X142665320Y-90723000D01*
X142612058Y-90700938D01*
X142471603Y-90673000D01*
X142328397Y-90673000D01*
X142187942Y-90700938D01*
X142134680Y-90723000D01*
X139665320Y-90723000D01*
X139612058Y-90700938D01*
X139471603Y-90673000D01*
X139328397Y-90673000D01*
X139187942Y-90700938D01*
X139134680Y-90723000D01*
X127250000Y-90723000D01*
X127225224Y-90725440D01*
X127201399Y-90732667D01*
X127179443Y-90744403D01*
X127160197Y-90760197D01*
X127144403Y-90779443D01*
X127132667Y-90801399D01*
X127125440Y-90825224D01*
X127123000Y-90850000D01*
X127123000Y-91323000D01*
X108002000Y-91323000D01*
X108002000Y-90277000D01*
X118550000Y-90277000D01*
X118574776Y-90274560D01*
X118598601Y-90267333D01*
X118624698Y-90252709D01*
X119551877Y-89578397D01*
X140173000Y-89578397D01*
X140173000Y-89721603D01*
X140200938Y-89862058D01*
X140255741Y-89994364D01*
X140335302Y-90113436D01*
X140436564Y-90214698D01*
X140555636Y-90294259D01*
X140687942Y-90349062D01*
X140828397Y-90377000D01*
X140971603Y-90377000D01*
X141112058Y-90349062D01*
X141244364Y-90294259D01*
X141363436Y-90214698D01*
X141464698Y-90113436D01*
X141544259Y-89994364D01*
X141599062Y-89862058D01*
X141627000Y-89721603D01*
X141627000Y-89578397D01*
X141599062Y-89437942D01*
X141544259Y-89305636D01*
X141464698Y-89186564D01*
X141363436Y-89085302D01*
X141244364Y-89005741D01*
X141112058Y-88950938D01*
X140971603Y-88923000D01*
X140828397Y-88923000D01*
X140687942Y-88950938D01*
X140555636Y-89005741D01*
X140436564Y-89085302D01*
X140335302Y-89186564D01*
X140255741Y-89305636D01*
X140200938Y-89437942D01*
X140173000Y-89578397D01*
X119551877Y-89578397D01*
X120791298Y-88677000D01*
X127350000Y-88677000D01*
X127374776Y-88674560D01*
X127398601Y-88667333D01*
X127420557Y-88655597D01*
X127439803Y-88639803D01*
X127455597Y-88620557D01*
X127467333Y-88598601D01*
X127474560Y-88574776D01*
X127476824Y-88556675D01*
X127479410Y-88507544D01*
X127536564Y-88564698D01*
X127655636Y-88644259D01*
X127787942Y-88699062D01*
X127928397Y-88727000D01*
X128071603Y-88727000D01*
X128212058Y-88699062D01*
X128261947Y-88678397D01*
X129523000Y-88678397D01*
X129523000Y-88821603D01*
X129550938Y-88962058D01*
X129605741Y-89094364D01*
X129685302Y-89213436D01*
X129786564Y-89314698D01*
X129905636Y-89394259D01*
X130037942Y-89449062D01*
X130178397Y-89477000D01*
X130321603Y-89477000D01*
X130462058Y-89449062D01*
X130594364Y-89394259D01*
X130713436Y-89314698D01*
X130814698Y-89213436D01*
X130894259Y-89094364D01*
X130949062Y-88962058D01*
X130977000Y-88821603D01*
X130977000Y-88678397D01*
X130949062Y-88537942D01*
X130894259Y-88405636D01*
X130814698Y-88286564D01*
X130713436Y-88185302D01*
X130594364Y-88105741D01*
X130528350Y-88078397D01*
X138673000Y-88078397D01*
X138673000Y-88221603D01*
X138700938Y-88362058D01*
X138755741Y-88494364D01*
X138835302Y-88613436D01*
X138936564Y-88714698D01*
X139055636Y-88794259D01*
X139187942Y-88849062D01*
X139328397Y-88877000D01*
X139471603Y-88877000D01*
X139612058Y-88849062D01*
X139744364Y-88794259D01*
X139863436Y-88714698D01*
X139964698Y-88613436D01*
X140044259Y-88494364D01*
X140099062Y-88362058D01*
X140127000Y-88221603D01*
X140127000Y-88078397D01*
X141673000Y-88078397D01*
X141673000Y-88221603D01*
X141700938Y-88362058D01*
X141755741Y-88494364D01*
X141835302Y-88613436D01*
X141936564Y-88714698D01*
X142055636Y-88794259D01*
X142187942Y-88849062D01*
X142328397Y-88877000D01*
X142471603Y-88877000D01*
X142612058Y-88849062D01*
X142744364Y-88794259D01*
X142863436Y-88714698D01*
X142964698Y-88613436D01*
X143044259Y-88494364D01*
X143099062Y-88362058D01*
X143127000Y-88221603D01*
X143127000Y-88078397D01*
X143099062Y-87937942D01*
X143044259Y-87805636D01*
X142964698Y-87686564D01*
X142863436Y-87585302D01*
X142744364Y-87505741D01*
X142612058Y-87450938D01*
X142471603Y-87423000D01*
X142328397Y-87423000D01*
X142187942Y-87450938D01*
X142055636Y-87505741D01*
X141936564Y-87585302D01*
X141835302Y-87686564D01*
X141755741Y-87805636D01*
X141700938Y-87937942D01*
X141673000Y-88078397D01*
X140127000Y-88078397D01*
X140099062Y-87937942D01*
X140044259Y-87805636D01*
X139964698Y-87686564D01*
X139863436Y-87585302D01*
X139744364Y-87505741D01*
X139612058Y-87450938D01*
X139471603Y-87423000D01*
X139328397Y-87423000D01*
X139187942Y-87450938D01*
X139055636Y-87505741D01*
X138936564Y-87585302D01*
X138835302Y-87686564D01*
X138755741Y-87805636D01*
X138700938Y-87937942D01*
X138673000Y-88078397D01*
X130528350Y-88078397D01*
X130462058Y-88050938D01*
X130321603Y-88023000D01*
X130178397Y-88023000D01*
X130037942Y-88050938D01*
X129905636Y-88105741D01*
X129786564Y-88185302D01*
X129685302Y-88286564D01*
X129605741Y-88405636D01*
X129550938Y-88537942D01*
X129523000Y-88678397D01*
X128261947Y-88678397D01*
X128344364Y-88644259D01*
X128463436Y-88564698D01*
X128564698Y-88463436D01*
X128644259Y-88344364D01*
X128699062Y-88212058D01*
X128727000Y-88071603D01*
X128727000Y-87928397D01*
X128699062Y-87787942D01*
X128644259Y-87655636D01*
X128564698Y-87536564D01*
X128463436Y-87435302D01*
X128344364Y-87355741D01*
X128212058Y-87300938D01*
X128071603Y-87273000D01*
X127928397Y-87273000D01*
X127787942Y-87300938D01*
X127655636Y-87355741D01*
X127536564Y-87435302D01*
X127535804Y-87436062D01*
X127570491Y-86777000D01*
X131279806Y-86777000D01*
X131305636Y-86794259D01*
G37*
G04 #@! TD.AperFunction*
D25*
X118300938Y-75437942D02*
X118273000Y-75578397D01*
X118273000Y-75721603D01*
X118300938Y-75862058D01*
X118355741Y-75994364D01*
X118435302Y-76113436D01*
X118536564Y-76214698D01*
X118655636Y-76294259D01*
X118787942Y-76349062D01*
X118928397Y-76377000D01*
X119071603Y-76377000D01*
X119212058Y-76349062D01*
X119344364Y-76294259D01*
X119463436Y-76214698D01*
X119564698Y-76113436D01*
X119644259Y-75994364D01*
X119699062Y-75862058D01*
X119727000Y-75721603D01*
X119727000Y-75578397D01*
X119699062Y-75437942D01*
X119663464Y-75352000D01*
X126232785Y-75352000D01*
X126764003Y-75404087D01*
X127258427Y-75553361D01*
X127714449Y-75795832D01*
X128114680Y-76122252D01*
X128443894Y-76520203D01*
X128689537Y-76974513D01*
X128842262Y-77467885D01*
X128897991Y-77998117D01*
X128898002Y-78001227D01*
X128898075Y-78022171D01*
X128899628Y-78037465D01*
X128899521Y-78052846D01*
X128900001Y-78057738D01*
X128961202Y-78640028D01*
X128967616Y-78671274D01*
X128973595Y-78702618D01*
X128975016Y-78707324D01*
X129148153Y-79266637D01*
X129160510Y-79296033D01*
X129172467Y-79325627D01*
X129174773Y-79329962D01*
X129174775Y-79329967D01*
X129174778Y-79329971D01*
X129453250Y-79844998D01*
X129471078Y-79871428D01*
X129488560Y-79898144D01*
X129491666Y-79901952D01*
X129864876Y-80353085D01*
X129887490Y-80375541D01*
X129909835Y-80398360D01*
X129913623Y-80401492D01*
X130367351Y-80771544D01*
X130393893Y-80789179D01*
X130420248Y-80807224D01*
X130424571Y-80809562D01*
X130941536Y-81084436D01*
X130971026Y-81096591D01*
X131000355Y-81109161D01*
X131005050Y-81110615D01*
X131565558Y-81279841D01*
X131596804Y-81286028D01*
X131628059Y-81292672D01*
X131632946Y-81293185D01*
X131632948Y-81293185D01*
X132215650Y-81350320D01*
X132232708Y-81352000D01*
X150967292Y-81352000D01*
X150967902Y-81351940D01*
X150972171Y-81351925D01*
X150987465Y-81350372D01*
X151002846Y-81350479D01*
X151007738Y-81349999D01*
X151590028Y-81288798D01*
X151621274Y-81282384D01*
X151652618Y-81276405D01*
X151657324Y-81274984D01*
X152216637Y-81101847D01*
X152246033Y-81089490D01*
X152275627Y-81077533D01*
X152279962Y-81075227D01*
X152279967Y-81075225D01*
X152279971Y-81075222D01*
X152794998Y-80796750D01*
X152821428Y-80778922D01*
X152848144Y-80761440D01*
X152851952Y-80758334D01*
X153303085Y-80385124D01*
X153325541Y-80362510D01*
X153348360Y-80340165D01*
X153351492Y-80336377D01*
X153721544Y-79882649D01*
X153739179Y-79856107D01*
X153757224Y-79829752D01*
X153759562Y-79825429D01*
X154034436Y-79308464D01*
X154046591Y-79278974D01*
X154059161Y-79249645D01*
X154060615Y-79244950D01*
X154229841Y-78684442D01*
X154236028Y-78653196D01*
X154242672Y-78621941D01*
X154243185Y-78617052D01*
X154246975Y-78578397D01*
X155023000Y-78578397D01*
X155023000Y-78721603D01*
X155050938Y-78862058D01*
X155105741Y-78994364D01*
X155185302Y-79113436D01*
X155286564Y-79214698D01*
X155405636Y-79294259D01*
X155537942Y-79349062D01*
X155678397Y-79377000D01*
X155821603Y-79377000D01*
X155962058Y-79349062D01*
X156094364Y-79294259D01*
X156213436Y-79214698D01*
X156249737Y-79178397D01*
X157223000Y-79178397D01*
X157223000Y-79321603D01*
X157250938Y-79462058D01*
X157305741Y-79594364D01*
X157385302Y-79713436D01*
X157486564Y-79814698D01*
X157605636Y-79894259D01*
X157737942Y-79949062D01*
X157878397Y-79977000D01*
X158021603Y-79977000D01*
X158162058Y-79949062D01*
X158294364Y-79894259D01*
X158413436Y-79814698D01*
X158514698Y-79713436D01*
X158594259Y-79594364D01*
X158649062Y-79462058D01*
X158677000Y-79321603D01*
X158677000Y-79178397D01*
X158649062Y-79037942D01*
X158594259Y-78905636D01*
X158514698Y-78786564D01*
X158413436Y-78685302D01*
X158294364Y-78605741D01*
X158162058Y-78550938D01*
X158021603Y-78523000D01*
X157878397Y-78523000D01*
X157737942Y-78550938D01*
X157605636Y-78605741D01*
X157486564Y-78685302D01*
X157385302Y-78786564D01*
X157305741Y-78905636D01*
X157250938Y-79037942D01*
X157223000Y-79178397D01*
X156249737Y-79178397D01*
X156314698Y-79113436D01*
X156394259Y-78994364D01*
X156449062Y-78862058D01*
X156477000Y-78721603D01*
X156477000Y-78578397D01*
X156449062Y-78437942D01*
X156394259Y-78305636D01*
X156314698Y-78186564D01*
X156213436Y-78085302D01*
X156094364Y-78005741D01*
X155962058Y-77950938D01*
X155821603Y-77923000D01*
X155678397Y-77923000D01*
X155537942Y-77950938D01*
X155405636Y-78005741D01*
X155286564Y-78085302D01*
X155185302Y-78186564D01*
X155105741Y-78305636D01*
X155050938Y-78437942D01*
X155023000Y-78578397D01*
X154246975Y-78578397D01*
X154300320Y-78034350D01*
X154300320Y-78034348D01*
X154354087Y-77485997D01*
X154356381Y-77478397D01*
X160323000Y-77478397D01*
X160323000Y-77621603D01*
X160350938Y-77762058D01*
X160405741Y-77894364D01*
X160485302Y-78013436D01*
X160586564Y-78114698D01*
X160705636Y-78194259D01*
X160837942Y-78249062D01*
X160978397Y-78277000D01*
X161121603Y-78277000D01*
X161262058Y-78249062D01*
X161394364Y-78194259D01*
X161513436Y-78114698D01*
X161614698Y-78013436D01*
X161694259Y-77894364D01*
X161749062Y-77762058D01*
X161777000Y-77621603D01*
X161777000Y-77478397D01*
X161749062Y-77337942D01*
X161694259Y-77205636D01*
X161614698Y-77086564D01*
X161513436Y-76985302D01*
X161394364Y-76905741D01*
X161262058Y-76850938D01*
X161121603Y-76823000D01*
X160978397Y-76823000D01*
X160837942Y-76850938D01*
X160705636Y-76905741D01*
X160586564Y-76985302D01*
X160485302Y-77086564D01*
X160405741Y-77205636D01*
X160350938Y-77337942D01*
X160323000Y-77478397D01*
X154356381Y-77478397D01*
X154503361Y-76991573D01*
X154745832Y-76535551D01*
X155072252Y-76135320D01*
X155216411Y-76016061D01*
X157813484Y-76016061D01*
X157813484Y-76159267D01*
X157841422Y-76299722D01*
X157896225Y-76432028D01*
X157975786Y-76551100D01*
X158077048Y-76652362D01*
X158196120Y-76731923D01*
X158328426Y-76786726D01*
X158468881Y-76814664D01*
X158612087Y-76814664D01*
X158752542Y-76786726D01*
X158884848Y-76731923D01*
X159003920Y-76652362D01*
X159105182Y-76551100D01*
X159184743Y-76432028D01*
X159239546Y-76299722D01*
X159267484Y-76159267D01*
X159267484Y-76016061D01*
X159239546Y-75875606D01*
X159184743Y-75743300D01*
X159105182Y-75624228D01*
X159003920Y-75522966D01*
X158884848Y-75443405D01*
X158752542Y-75388602D01*
X158612087Y-75360664D01*
X158468881Y-75360664D01*
X158328426Y-75388602D01*
X158196120Y-75443405D01*
X158077048Y-75522966D01*
X157975786Y-75624228D01*
X157896225Y-75743300D01*
X157841422Y-75875606D01*
X157813484Y-76016061D01*
X155216411Y-76016061D01*
X155470203Y-75806106D01*
X155924513Y-75560463D01*
X156417885Y-75407738D01*
X156948117Y-75352009D01*
X156950706Y-75352000D01*
X161027933Y-75355084D01*
X160905636Y-75405741D01*
X160786564Y-75485302D01*
X160685302Y-75586564D01*
X160605741Y-75705636D01*
X160550938Y-75837942D01*
X160523000Y-75978397D01*
X160523000Y-76121603D01*
X160550938Y-76262058D01*
X160605741Y-76394364D01*
X160685302Y-76513436D01*
X160786564Y-76614698D01*
X160905636Y-76694259D01*
X161037942Y-76749062D01*
X161178397Y-76777000D01*
X161321603Y-76777000D01*
X161462058Y-76749062D01*
X161594364Y-76694259D01*
X161713436Y-76614698D01*
X161814698Y-76513436D01*
X161894259Y-76394364D01*
X161949062Y-76262058D01*
X161977000Y-76121603D01*
X161977000Y-75978397D01*
X161949062Y-75837942D01*
X161894259Y-75705636D01*
X161814698Y-75586564D01*
X161713436Y-75485302D01*
X161594364Y-75405741D01*
X161472879Y-75355420D01*
X163414977Y-75356889D01*
X163385302Y-75386564D01*
X163305741Y-75505636D01*
X163250938Y-75637942D01*
X163223000Y-75778397D01*
X163223000Y-75921603D01*
X163250938Y-76062058D01*
X163305741Y-76194364D01*
X163385302Y-76313436D01*
X163486564Y-76414698D01*
X163605636Y-76494259D01*
X163737942Y-76549062D01*
X163878397Y-76577000D01*
X164021603Y-76577000D01*
X164162058Y-76549062D01*
X164294364Y-76494259D01*
X164413436Y-76414698D01*
X164514698Y-76313436D01*
X164594259Y-76194364D01*
X164649062Y-76062058D01*
X164677000Y-75921603D01*
X164677000Y-75778397D01*
X164649062Y-75637942D01*
X164594259Y-75505636D01*
X164514698Y-75386564D01*
X164485833Y-75357699D01*
X164723000Y-75357878D01*
X164723000Y-86323000D01*
X152823819Y-86323000D01*
X152849062Y-86262058D01*
X152877000Y-86121603D01*
X152877000Y-85978397D01*
X152849062Y-85837942D01*
X152794259Y-85705636D01*
X152714698Y-85586564D01*
X152613436Y-85485302D01*
X152494364Y-85405741D01*
X152362058Y-85350938D01*
X152221603Y-85323000D01*
X152078397Y-85323000D01*
X151937942Y-85350938D01*
X151805636Y-85405741D01*
X151686564Y-85485302D01*
X151585302Y-85586564D01*
X151505741Y-85705636D01*
X151450938Y-85837942D01*
X151423000Y-85978397D01*
X151423000Y-86121603D01*
X151450938Y-86262058D01*
X151476181Y-86323000D01*
X132356831Y-86323000D01*
X132377000Y-86221603D01*
X132377000Y-86078397D01*
X132349062Y-85937942D01*
X132294259Y-85805636D01*
X132214698Y-85686564D01*
X132113436Y-85585302D01*
X131994364Y-85505741D01*
X131862058Y-85450938D01*
X131721603Y-85423000D01*
X131578397Y-85423000D01*
X131437942Y-85450938D01*
X131305636Y-85505741D01*
X131186564Y-85585302D01*
X131085302Y-85686564D01*
X131005741Y-85805636D01*
X130950938Y-85937942D01*
X130923000Y-86078397D01*
X130923000Y-86221603D01*
X130943169Y-86323000D01*
X127250000Y-86323000D01*
X127225224Y-86325440D01*
X127201399Y-86332667D01*
X127179443Y-86344403D01*
X127160197Y-86360197D01*
X127144403Y-86379443D01*
X127132667Y-86401399D01*
X127123698Y-86436705D01*
X126935667Y-88223000D01*
X120650000Y-88223000D01*
X120625224Y-88225440D01*
X120601399Y-88232667D01*
X120577475Y-88245745D01*
X118310171Y-89823000D01*
X108002000Y-89823000D01*
X108002000Y-84200000D01*
X110618515Y-84200000D01*
X110636413Y-84381724D01*
X110689420Y-84556464D01*
X110775499Y-84717505D01*
X110891341Y-84858659D01*
X111032495Y-84974501D01*
X111193536Y-85060580D01*
X111368276Y-85113587D01*
X111504462Y-85127000D01*
X112795538Y-85127000D01*
X112931724Y-85113587D01*
X113106464Y-85060580D01*
X113267505Y-84974501D01*
X113408659Y-84858659D01*
X113524501Y-84717505D01*
X113610580Y-84556464D01*
X113634261Y-84478397D01*
X153823000Y-84478397D01*
X153823000Y-84621603D01*
X153850938Y-84762058D01*
X153905741Y-84894364D01*
X153985302Y-85013436D01*
X154086564Y-85114698D01*
X154205636Y-85194259D01*
X154337942Y-85249062D01*
X154478397Y-85277000D01*
X154621603Y-85277000D01*
X154762058Y-85249062D01*
X154894364Y-85194259D01*
X155013436Y-85114698D01*
X155114698Y-85013436D01*
X155194259Y-84894364D01*
X155249062Y-84762058D01*
X155277000Y-84621603D01*
X155277000Y-84478397D01*
X155267055Y-84428397D01*
X156723000Y-84428397D01*
X156723000Y-84571603D01*
X156750938Y-84712058D01*
X156805741Y-84844364D01*
X156885302Y-84963436D01*
X156986564Y-85064698D01*
X157105636Y-85144259D01*
X157237942Y-85199062D01*
X157378397Y-85227000D01*
X157521603Y-85227000D01*
X157662058Y-85199062D01*
X157794364Y-85144259D01*
X157913436Y-85064698D01*
X158014698Y-84963436D01*
X158094259Y-84844364D01*
X158149062Y-84712058D01*
X158177000Y-84571603D01*
X158177000Y-84428397D01*
X158149062Y-84287942D01*
X158094259Y-84155636D01*
X158014698Y-84036564D01*
X157913436Y-83935302D01*
X157794364Y-83855741D01*
X157662058Y-83800938D01*
X157521603Y-83773000D01*
X157378397Y-83773000D01*
X157237942Y-83800938D01*
X157105636Y-83855741D01*
X156986564Y-83935302D01*
X156885302Y-84036564D01*
X156805741Y-84155636D01*
X156750938Y-84287942D01*
X156723000Y-84428397D01*
X155267055Y-84428397D01*
X155249062Y-84337942D01*
X155194259Y-84205636D01*
X155114698Y-84086564D01*
X155013436Y-83985302D01*
X154894364Y-83905741D01*
X154762058Y-83850938D01*
X154621603Y-83823000D01*
X154478397Y-83823000D01*
X154337942Y-83850938D01*
X154205636Y-83905741D01*
X154086564Y-83985302D01*
X153985302Y-84086564D01*
X153905741Y-84205636D01*
X153850938Y-84337942D01*
X153823000Y-84478397D01*
X113634261Y-84478397D01*
X113663587Y-84381724D01*
X113681485Y-84200000D01*
X113663587Y-84018276D01*
X113610580Y-83843536D01*
X113524501Y-83682495D01*
X113439071Y-83578397D01*
X134723000Y-83578397D01*
X134723000Y-83721603D01*
X134750938Y-83862058D01*
X134805741Y-83994364D01*
X134885302Y-84113436D01*
X134986564Y-84214698D01*
X135105636Y-84294259D01*
X135237942Y-84349062D01*
X135378397Y-84377000D01*
X135521603Y-84377000D01*
X135662058Y-84349062D01*
X135794364Y-84294259D01*
X135913436Y-84214698D01*
X136014698Y-84113436D01*
X136094259Y-83994364D01*
X136149062Y-83862058D01*
X136177000Y-83721603D01*
X136177000Y-83578397D01*
X136149062Y-83437942D01*
X136094259Y-83305636D01*
X136014698Y-83186564D01*
X135913436Y-83085302D01*
X135794364Y-83005741D01*
X135662058Y-82950938D01*
X135521603Y-82923000D01*
X135378397Y-82923000D01*
X135237942Y-82950938D01*
X135105636Y-83005741D01*
X134986564Y-83085302D01*
X134885302Y-83186564D01*
X134805741Y-83305636D01*
X134750938Y-83437942D01*
X134723000Y-83578397D01*
X113439071Y-83578397D01*
X113408659Y-83541341D01*
X113267505Y-83425499D01*
X113106464Y-83339420D01*
X112931724Y-83286413D01*
X112795538Y-83273000D01*
X111504462Y-83273000D01*
X111368276Y-83286413D01*
X111193536Y-83339420D01*
X111032495Y-83425499D01*
X110891341Y-83541341D01*
X110775499Y-83682495D01*
X110689420Y-83843536D01*
X110636413Y-84018276D01*
X110618515Y-84200000D01*
X108002000Y-84200000D01*
X108002000Y-82378397D01*
X151423000Y-82378397D01*
X151423000Y-82521603D01*
X151450938Y-82662058D01*
X151505741Y-82794364D01*
X151585302Y-82913436D01*
X151686564Y-83014698D01*
X151805636Y-83094259D01*
X151937942Y-83149062D01*
X152078397Y-83177000D01*
X152221603Y-83177000D01*
X152362058Y-83149062D01*
X152494364Y-83094259D01*
X152613436Y-83014698D01*
X152714698Y-82913436D01*
X152794259Y-82794364D01*
X152800872Y-82778397D01*
X161323000Y-82778397D01*
X161323000Y-82921603D01*
X161350938Y-83062058D01*
X161405741Y-83194364D01*
X161485302Y-83313436D01*
X161586564Y-83414698D01*
X161705636Y-83494259D01*
X161719496Y-83500000D01*
X161705636Y-83505741D01*
X161586564Y-83585302D01*
X161485302Y-83686564D01*
X161405741Y-83805636D01*
X161350938Y-83937942D01*
X161323000Y-84078397D01*
X161323000Y-84221603D01*
X161350938Y-84362058D01*
X161405741Y-84494364D01*
X161485302Y-84613436D01*
X161586564Y-84714698D01*
X161705636Y-84794259D01*
X161837942Y-84849062D01*
X161978397Y-84877000D01*
X162121603Y-84877000D01*
X162262058Y-84849062D01*
X162394364Y-84794259D01*
X162513436Y-84714698D01*
X162614698Y-84613436D01*
X162694259Y-84494364D01*
X162749062Y-84362058D01*
X162777000Y-84221603D01*
X162777000Y-84078397D01*
X162749062Y-83937942D01*
X162694259Y-83805636D01*
X162614698Y-83686564D01*
X162513436Y-83585302D01*
X162394364Y-83505741D01*
X162380504Y-83500000D01*
X162394364Y-83494259D01*
X162513436Y-83414698D01*
X162614698Y-83313436D01*
X162694259Y-83194364D01*
X162749062Y-83062058D01*
X162777000Y-82921603D01*
X162777000Y-82778397D01*
X162749062Y-82637942D01*
X162694259Y-82505636D01*
X162614698Y-82386564D01*
X162513436Y-82285302D01*
X162394364Y-82205741D01*
X162262058Y-82150938D01*
X162121603Y-82123000D01*
X161978397Y-82123000D01*
X161837942Y-82150938D01*
X161705636Y-82205741D01*
X161586564Y-82285302D01*
X161485302Y-82386564D01*
X161405741Y-82505636D01*
X161350938Y-82637942D01*
X161323000Y-82778397D01*
X152800872Y-82778397D01*
X152849062Y-82662058D01*
X152877000Y-82521603D01*
X152877000Y-82378397D01*
X152849062Y-82237942D01*
X152794259Y-82105636D01*
X152714698Y-81986564D01*
X152613436Y-81885302D01*
X152494364Y-81805741D01*
X152362058Y-81750938D01*
X152221603Y-81723000D01*
X152078397Y-81723000D01*
X151937942Y-81750938D01*
X151805636Y-81805741D01*
X151686564Y-81885302D01*
X151585302Y-81986564D01*
X151505741Y-82105636D01*
X151450938Y-82237942D01*
X151423000Y-82378397D01*
X108002000Y-82378397D01*
X108002000Y-80266551D01*
X108024413Y-80320661D01*
X108410400Y-80898332D01*
X108901668Y-81389600D01*
X109479339Y-81775587D01*
X110121212Y-82041460D01*
X110802621Y-82177000D01*
X111497379Y-82177000D01*
X112178788Y-82041460D01*
X112820661Y-81775587D01*
X113398332Y-81389600D01*
X113889600Y-80898332D01*
X114275587Y-80320661D01*
X114541460Y-79678788D01*
X114677000Y-78997379D01*
X114677000Y-78878397D01*
X115123000Y-78878397D01*
X115123000Y-79021603D01*
X115150938Y-79162058D01*
X115205741Y-79294364D01*
X115285302Y-79413436D01*
X115386564Y-79514698D01*
X115505636Y-79594259D01*
X115637942Y-79649062D01*
X115778397Y-79677000D01*
X115921603Y-79677000D01*
X116062058Y-79649062D01*
X116194364Y-79594259D01*
X116313436Y-79514698D01*
X116414698Y-79413436D01*
X116494259Y-79294364D01*
X116549062Y-79162058D01*
X116577000Y-79021603D01*
X116577000Y-78878397D01*
X116549062Y-78737942D01*
X116494259Y-78605636D01*
X116414698Y-78486564D01*
X116313436Y-78385302D01*
X116194364Y-78305741D01*
X116062058Y-78250938D01*
X115921603Y-78223000D01*
X115778397Y-78223000D01*
X115637942Y-78250938D01*
X115505636Y-78305741D01*
X115386564Y-78385302D01*
X115285302Y-78486564D01*
X115205741Y-78605636D01*
X115150938Y-78737942D01*
X115123000Y-78878397D01*
X114677000Y-78878397D01*
X114677000Y-78302621D01*
X114541460Y-77621212D01*
X114275587Y-76979339D01*
X113889600Y-76401668D01*
X113398332Y-75910400D01*
X112820661Y-75524413D01*
X112404420Y-75352000D01*
X118336536Y-75352000D01*
X118300938Y-75437942D01*
G04 #@! TA.AperFunction,Conductor*
D26*
G36*
X118300938Y-75437942D02*
G01*
X118273000Y-75578397D01*
X118273000Y-75721603D01*
X118300938Y-75862058D01*
X118355741Y-75994364D01*
X118435302Y-76113436D01*
X118536564Y-76214698D01*
X118655636Y-76294259D01*
X118787942Y-76349062D01*
X118928397Y-76377000D01*
X119071603Y-76377000D01*
X119212058Y-76349062D01*
X119344364Y-76294259D01*
X119463436Y-76214698D01*
X119564698Y-76113436D01*
X119644259Y-75994364D01*
X119699062Y-75862058D01*
X119727000Y-75721603D01*
X119727000Y-75578397D01*
X119699062Y-75437942D01*
X119663464Y-75352000D01*
X126232785Y-75352000D01*
X126764003Y-75404087D01*
X127258427Y-75553361D01*
X127714449Y-75795832D01*
X128114680Y-76122252D01*
X128443894Y-76520203D01*
X128689537Y-76974513D01*
X128842262Y-77467885D01*
X128897991Y-77998117D01*
X128898002Y-78001227D01*
X128898075Y-78022171D01*
X128899628Y-78037465D01*
X128899521Y-78052846D01*
X128900001Y-78057738D01*
X128961202Y-78640028D01*
X128967616Y-78671274D01*
X128973595Y-78702618D01*
X128975016Y-78707324D01*
X129148153Y-79266637D01*
X129160510Y-79296033D01*
X129172467Y-79325627D01*
X129174773Y-79329962D01*
X129174775Y-79329967D01*
X129174778Y-79329971D01*
X129453250Y-79844998D01*
X129471078Y-79871428D01*
X129488560Y-79898144D01*
X129491666Y-79901952D01*
X129864876Y-80353085D01*
X129887490Y-80375541D01*
X129909835Y-80398360D01*
X129913623Y-80401492D01*
X130367351Y-80771544D01*
X130393893Y-80789179D01*
X130420248Y-80807224D01*
X130424571Y-80809562D01*
X130941536Y-81084436D01*
X130971026Y-81096591D01*
X131000355Y-81109161D01*
X131005050Y-81110615D01*
X131565558Y-81279841D01*
X131596804Y-81286028D01*
X131628059Y-81292672D01*
X131632946Y-81293185D01*
X131632948Y-81293185D01*
X132215650Y-81350320D01*
X132232708Y-81352000D01*
X150967292Y-81352000D01*
X150967902Y-81351940D01*
X150972171Y-81351925D01*
X150987465Y-81350372D01*
X151002846Y-81350479D01*
X151007738Y-81349999D01*
X151590028Y-81288798D01*
X151621274Y-81282384D01*
X151652618Y-81276405D01*
X151657324Y-81274984D01*
X152216637Y-81101847D01*
X152246033Y-81089490D01*
X152275627Y-81077533D01*
X152279962Y-81075227D01*
X152279967Y-81075225D01*
X152279971Y-81075222D01*
X152794998Y-80796750D01*
X152821428Y-80778922D01*
X152848144Y-80761440D01*
X152851952Y-80758334D01*
X153303085Y-80385124D01*
X153325541Y-80362510D01*
X153348360Y-80340165D01*
X153351492Y-80336377D01*
X153721544Y-79882649D01*
X153739179Y-79856107D01*
X153757224Y-79829752D01*
X153759562Y-79825429D01*
X154034436Y-79308464D01*
X154046591Y-79278974D01*
X154059161Y-79249645D01*
X154060615Y-79244950D01*
X154229841Y-78684442D01*
X154236028Y-78653196D01*
X154242672Y-78621941D01*
X154243185Y-78617052D01*
X154246975Y-78578397D01*
X155023000Y-78578397D01*
X155023000Y-78721603D01*
X155050938Y-78862058D01*
X155105741Y-78994364D01*
X155185302Y-79113436D01*
X155286564Y-79214698D01*
X155405636Y-79294259D01*
X155537942Y-79349062D01*
X155678397Y-79377000D01*
X155821603Y-79377000D01*
X155962058Y-79349062D01*
X156094364Y-79294259D01*
X156213436Y-79214698D01*
X156249737Y-79178397D01*
X157223000Y-79178397D01*
X157223000Y-79321603D01*
X157250938Y-79462058D01*
X157305741Y-79594364D01*
X157385302Y-79713436D01*
X157486564Y-79814698D01*
X157605636Y-79894259D01*
X157737942Y-79949062D01*
X157878397Y-79977000D01*
X158021603Y-79977000D01*
X158162058Y-79949062D01*
X158294364Y-79894259D01*
X158413436Y-79814698D01*
X158514698Y-79713436D01*
X158594259Y-79594364D01*
X158649062Y-79462058D01*
X158677000Y-79321603D01*
X158677000Y-79178397D01*
X158649062Y-79037942D01*
X158594259Y-78905636D01*
X158514698Y-78786564D01*
X158413436Y-78685302D01*
X158294364Y-78605741D01*
X158162058Y-78550938D01*
X158021603Y-78523000D01*
X157878397Y-78523000D01*
X157737942Y-78550938D01*
X157605636Y-78605741D01*
X157486564Y-78685302D01*
X157385302Y-78786564D01*
X157305741Y-78905636D01*
X157250938Y-79037942D01*
X157223000Y-79178397D01*
X156249737Y-79178397D01*
X156314698Y-79113436D01*
X156394259Y-78994364D01*
X156449062Y-78862058D01*
X156477000Y-78721603D01*
X156477000Y-78578397D01*
X156449062Y-78437942D01*
X156394259Y-78305636D01*
X156314698Y-78186564D01*
X156213436Y-78085302D01*
X156094364Y-78005741D01*
X155962058Y-77950938D01*
X155821603Y-77923000D01*
X155678397Y-77923000D01*
X155537942Y-77950938D01*
X155405636Y-78005741D01*
X155286564Y-78085302D01*
X155185302Y-78186564D01*
X155105741Y-78305636D01*
X155050938Y-78437942D01*
X155023000Y-78578397D01*
X154246975Y-78578397D01*
X154300320Y-78034350D01*
X154300320Y-78034348D01*
X154354087Y-77485997D01*
X154356381Y-77478397D01*
X160323000Y-77478397D01*
X160323000Y-77621603D01*
X160350938Y-77762058D01*
X160405741Y-77894364D01*
X160485302Y-78013436D01*
X160586564Y-78114698D01*
X160705636Y-78194259D01*
X160837942Y-78249062D01*
X160978397Y-78277000D01*
X161121603Y-78277000D01*
X161262058Y-78249062D01*
X161394364Y-78194259D01*
X161513436Y-78114698D01*
X161614698Y-78013436D01*
X161694259Y-77894364D01*
X161749062Y-77762058D01*
X161777000Y-77621603D01*
X161777000Y-77478397D01*
X161749062Y-77337942D01*
X161694259Y-77205636D01*
X161614698Y-77086564D01*
X161513436Y-76985302D01*
X161394364Y-76905741D01*
X161262058Y-76850938D01*
X161121603Y-76823000D01*
X160978397Y-76823000D01*
X160837942Y-76850938D01*
X160705636Y-76905741D01*
X160586564Y-76985302D01*
X160485302Y-77086564D01*
X160405741Y-77205636D01*
X160350938Y-77337942D01*
X160323000Y-77478397D01*
X154356381Y-77478397D01*
X154503361Y-76991573D01*
X154745832Y-76535551D01*
X155072252Y-76135320D01*
X155216411Y-76016061D01*
X157813484Y-76016061D01*
X157813484Y-76159267D01*
X157841422Y-76299722D01*
X157896225Y-76432028D01*
X157975786Y-76551100D01*
X158077048Y-76652362D01*
X158196120Y-76731923D01*
X158328426Y-76786726D01*
X158468881Y-76814664D01*
X158612087Y-76814664D01*
X158752542Y-76786726D01*
X158884848Y-76731923D01*
X159003920Y-76652362D01*
X159105182Y-76551100D01*
X159184743Y-76432028D01*
X159239546Y-76299722D01*
X159267484Y-76159267D01*
X159267484Y-76016061D01*
X159239546Y-75875606D01*
X159184743Y-75743300D01*
X159105182Y-75624228D01*
X159003920Y-75522966D01*
X158884848Y-75443405D01*
X158752542Y-75388602D01*
X158612087Y-75360664D01*
X158468881Y-75360664D01*
X158328426Y-75388602D01*
X158196120Y-75443405D01*
X158077048Y-75522966D01*
X157975786Y-75624228D01*
X157896225Y-75743300D01*
X157841422Y-75875606D01*
X157813484Y-76016061D01*
X155216411Y-76016061D01*
X155470203Y-75806106D01*
X155924513Y-75560463D01*
X156417885Y-75407738D01*
X156948117Y-75352009D01*
X156950706Y-75352000D01*
X161027933Y-75355084D01*
X160905636Y-75405741D01*
X160786564Y-75485302D01*
X160685302Y-75586564D01*
X160605741Y-75705636D01*
X160550938Y-75837942D01*
X160523000Y-75978397D01*
X160523000Y-76121603D01*
X160550938Y-76262058D01*
X160605741Y-76394364D01*
X160685302Y-76513436D01*
X160786564Y-76614698D01*
X160905636Y-76694259D01*
X161037942Y-76749062D01*
X161178397Y-76777000D01*
X161321603Y-76777000D01*
X161462058Y-76749062D01*
X161594364Y-76694259D01*
X161713436Y-76614698D01*
X161814698Y-76513436D01*
X161894259Y-76394364D01*
X161949062Y-76262058D01*
X161977000Y-76121603D01*
X161977000Y-75978397D01*
X161949062Y-75837942D01*
X161894259Y-75705636D01*
X161814698Y-75586564D01*
X161713436Y-75485302D01*
X161594364Y-75405741D01*
X161472879Y-75355420D01*
X163414977Y-75356889D01*
X163385302Y-75386564D01*
X163305741Y-75505636D01*
X163250938Y-75637942D01*
X163223000Y-75778397D01*
X163223000Y-75921603D01*
X163250938Y-76062058D01*
X163305741Y-76194364D01*
X163385302Y-76313436D01*
X163486564Y-76414698D01*
X163605636Y-76494259D01*
X163737942Y-76549062D01*
X163878397Y-76577000D01*
X164021603Y-76577000D01*
X164162058Y-76549062D01*
X164294364Y-76494259D01*
X164413436Y-76414698D01*
X164514698Y-76313436D01*
X164594259Y-76194364D01*
X164649062Y-76062058D01*
X164677000Y-75921603D01*
X164677000Y-75778397D01*
X164649062Y-75637942D01*
X164594259Y-75505636D01*
X164514698Y-75386564D01*
X164485833Y-75357699D01*
X164723000Y-75357878D01*
X164723000Y-86323000D01*
X152823819Y-86323000D01*
X152849062Y-86262058D01*
X152877000Y-86121603D01*
X152877000Y-85978397D01*
X152849062Y-85837942D01*
X152794259Y-85705636D01*
X152714698Y-85586564D01*
X152613436Y-85485302D01*
X152494364Y-85405741D01*
X152362058Y-85350938D01*
X152221603Y-85323000D01*
X152078397Y-85323000D01*
X151937942Y-85350938D01*
X151805636Y-85405741D01*
X151686564Y-85485302D01*
X151585302Y-85586564D01*
X151505741Y-85705636D01*
X151450938Y-85837942D01*
X151423000Y-85978397D01*
X151423000Y-86121603D01*
X151450938Y-86262058D01*
X151476181Y-86323000D01*
X132356831Y-86323000D01*
X132377000Y-86221603D01*
X132377000Y-86078397D01*
X132349062Y-85937942D01*
X132294259Y-85805636D01*
X132214698Y-85686564D01*
X132113436Y-85585302D01*
X131994364Y-85505741D01*
X131862058Y-85450938D01*
X131721603Y-85423000D01*
X131578397Y-85423000D01*
X131437942Y-85450938D01*
X131305636Y-85505741D01*
X131186564Y-85585302D01*
X131085302Y-85686564D01*
X131005741Y-85805636D01*
X130950938Y-85937942D01*
X130923000Y-86078397D01*
X130923000Y-86221603D01*
X130943169Y-86323000D01*
X127250000Y-86323000D01*
X127225224Y-86325440D01*
X127201399Y-86332667D01*
X127179443Y-86344403D01*
X127160197Y-86360197D01*
X127144403Y-86379443D01*
X127132667Y-86401399D01*
X127123698Y-86436705D01*
X126935667Y-88223000D01*
X120650000Y-88223000D01*
X120625224Y-88225440D01*
X120601399Y-88232667D01*
X120577475Y-88245745D01*
X118310171Y-89823000D01*
X108002000Y-89823000D01*
X108002000Y-84200000D01*
X110618515Y-84200000D01*
X110636413Y-84381724D01*
X110689420Y-84556464D01*
X110775499Y-84717505D01*
X110891341Y-84858659D01*
X111032495Y-84974501D01*
X111193536Y-85060580D01*
X111368276Y-85113587D01*
X111504462Y-85127000D01*
X112795538Y-85127000D01*
X112931724Y-85113587D01*
X113106464Y-85060580D01*
X113267505Y-84974501D01*
X113408659Y-84858659D01*
X113524501Y-84717505D01*
X113610580Y-84556464D01*
X113634261Y-84478397D01*
X153823000Y-84478397D01*
X153823000Y-84621603D01*
X153850938Y-84762058D01*
X153905741Y-84894364D01*
X153985302Y-85013436D01*
X154086564Y-85114698D01*
X154205636Y-85194259D01*
X154337942Y-85249062D01*
X154478397Y-85277000D01*
X154621603Y-85277000D01*
X154762058Y-85249062D01*
X154894364Y-85194259D01*
X155013436Y-85114698D01*
X155114698Y-85013436D01*
X155194259Y-84894364D01*
X155249062Y-84762058D01*
X155277000Y-84621603D01*
X155277000Y-84478397D01*
X155267055Y-84428397D01*
X156723000Y-84428397D01*
X156723000Y-84571603D01*
X156750938Y-84712058D01*
X156805741Y-84844364D01*
X156885302Y-84963436D01*
X156986564Y-85064698D01*
X157105636Y-85144259D01*
X157237942Y-85199062D01*
X157378397Y-85227000D01*
X157521603Y-85227000D01*
X157662058Y-85199062D01*
X157794364Y-85144259D01*
X157913436Y-85064698D01*
X158014698Y-84963436D01*
X158094259Y-84844364D01*
X158149062Y-84712058D01*
X158177000Y-84571603D01*
X158177000Y-84428397D01*
X158149062Y-84287942D01*
X158094259Y-84155636D01*
X158014698Y-84036564D01*
X157913436Y-83935302D01*
X157794364Y-83855741D01*
X157662058Y-83800938D01*
X157521603Y-83773000D01*
X157378397Y-83773000D01*
X157237942Y-83800938D01*
X157105636Y-83855741D01*
X156986564Y-83935302D01*
X156885302Y-84036564D01*
X156805741Y-84155636D01*
X156750938Y-84287942D01*
X156723000Y-84428397D01*
X155267055Y-84428397D01*
X155249062Y-84337942D01*
X155194259Y-84205636D01*
X155114698Y-84086564D01*
X155013436Y-83985302D01*
X154894364Y-83905741D01*
X154762058Y-83850938D01*
X154621603Y-83823000D01*
X154478397Y-83823000D01*
X154337942Y-83850938D01*
X154205636Y-83905741D01*
X154086564Y-83985302D01*
X153985302Y-84086564D01*
X153905741Y-84205636D01*
X153850938Y-84337942D01*
X153823000Y-84478397D01*
X113634261Y-84478397D01*
X113663587Y-84381724D01*
X113681485Y-84200000D01*
X113663587Y-84018276D01*
X113610580Y-83843536D01*
X113524501Y-83682495D01*
X113439071Y-83578397D01*
X134723000Y-83578397D01*
X134723000Y-83721603D01*
X134750938Y-83862058D01*
X134805741Y-83994364D01*
X134885302Y-84113436D01*
X134986564Y-84214698D01*
X135105636Y-84294259D01*
X135237942Y-84349062D01*
X135378397Y-84377000D01*
X135521603Y-84377000D01*
X135662058Y-84349062D01*
X135794364Y-84294259D01*
X135913436Y-84214698D01*
X136014698Y-84113436D01*
X136094259Y-83994364D01*
X136149062Y-83862058D01*
X136177000Y-83721603D01*
X136177000Y-83578397D01*
X136149062Y-83437942D01*
X136094259Y-83305636D01*
X136014698Y-83186564D01*
X135913436Y-83085302D01*
X135794364Y-83005741D01*
X135662058Y-82950938D01*
X135521603Y-82923000D01*
X135378397Y-82923000D01*
X135237942Y-82950938D01*
X135105636Y-83005741D01*
X134986564Y-83085302D01*
X134885302Y-83186564D01*
X134805741Y-83305636D01*
X134750938Y-83437942D01*
X134723000Y-83578397D01*
X113439071Y-83578397D01*
X113408659Y-83541341D01*
X113267505Y-83425499D01*
X113106464Y-83339420D01*
X112931724Y-83286413D01*
X112795538Y-83273000D01*
X111504462Y-83273000D01*
X111368276Y-83286413D01*
X111193536Y-83339420D01*
X111032495Y-83425499D01*
X110891341Y-83541341D01*
X110775499Y-83682495D01*
X110689420Y-83843536D01*
X110636413Y-84018276D01*
X110618515Y-84200000D01*
X108002000Y-84200000D01*
X108002000Y-82378397D01*
X151423000Y-82378397D01*
X151423000Y-82521603D01*
X151450938Y-82662058D01*
X151505741Y-82794364D01*
X151585302Y-82913436D01*
X151686564Y-83014698D01*
X151805636Y-83094259D01*
X151937942Y-83149062D01*
X152078397Y-83177000D01*
X152221603Y-83177000D01*
X152362058Y-83149062D01*
X152494364Y-83094259D01*
X152613436Y-83014698D01*
X152714698Y-82913436D01*
X152794259Y-82794364D01*
X152800872Y-82778397D01*
X161323000Y-82778397D01*
X161323000Y-82921603D01*
X161350938Y-83062058D01*
X161405741Y-83194364D01*
X161485302Y-83313436D01*
X161586564Y-83414698D01*
X161705636Y-83494259D01*
X161719496Y-83500000D01*
X161705636Y-83505741D01*
X161586564Y-83585302D01*
X161485302Y-83686564D01*
X161405741Y-83805636D01*
X161350938Y-83937942D01*
X161323000Y-84078397D01*
X161323000Y-84221603D01*
X161350938Y-84362058D01*
X161405741Y-84494364D01*
X161485302Y-84613436D01*
X161586564Y-84714698D01*
X161705636Y-84794259D01*
X161837942Y-84849062D01*
X161978397Y-84877000D01*
X162121603Y-84877000D01*
X162262058Y-84849062D01*
X162394364Y-84794259D01*
X162513436Y-84714698D01*
X162614698Y-84613436D01*
X162694259Y-84494364D01*
X162749062Y-84362058D01*
X162777000Y-84221603D01*
X162777000Y-84078397D01*
X162749062Y-83937942D01*
X162694259Y-83805636D01*
X162614698Y-83686564D01*
X162513436Y-83585302D01*
X162394364Y-83505741D01*
X162380504Y-83500000D01*
X162394364Y-83494259D01*
X162513436Y-83414698D01*
X162614698Y-83313436D01*
X162694259Y-83194364D01*
X162749062Y-83062058D01*
X162777000Y-82921603D01*
X162777000Y-82778397D01*
X162749062Y-82637942D01*
X162694259Y-82505636D01*
X162614698Y-82386564D01*
X162513436Y-82285302D01*
X162394364Y-82205741D01*
X162262058Y-82150938D01*
X162121603Y-82123000D01*
X161978397Y-82123000D01*
X161837942Y-82150938D01*
X161705636Y-82205741D01*
X161586564Y-82285302D01*
X161485302Y-82386564D01*
X161405741Y-82505636D01*
X161350938Y-82637942D01*
X161323000Y-82778397D01*
X152800872Y-82778397D01*
X152849062Y-82662058D01*
X152877000Y-82521603D01*
X152877000Y-82378397D01*
X152849062Y-82237942D01*
X152794259Y-82105636D01*
X152714698Y-81986564D01*
X152613436Y-81885302D01*
X152494364Y-81805741D01*
X152362058Y-81750938D01*
X152221603Y-81723000D01*
X152078397Y-81723000D01*
X151937942Y-81750938D01*
X151805636Y-81805741D01*
X151686564Y-81885302D01*
X151585302Y-81986564D01*
X151505741Y-82105636D01*
X151450938Y-82237942D01*
X151423000Y-82378397D01*
X108002000Y-82378397D01*
X108002000Y-80266551D01*
X108024413Y-80320661D01*
X108410400Y-80898332D01*
X108901668Y-81389600D01*
X109479339Y-81775587D01*
X110121212Y-82041460D01*
X110802621Y-82177000D01*
X111497379Y-82177000D01*
X112178788Y-82041460D01*
X112820661Y-81775587D01*
X113398332Y-81389600D01*
X113889600Y-80898332D01*
X114275587Y-80320661D01*
X114541460Y-79678788D01*
X114677000Y-78997379D01*
X114677000Y-78878397D01*
X115123000Y-78878397D01*
X115123000Y-79021603D01*
X115150938Y-79162058D01*
X115205741Y-79294364D01*
X115285302Y-79413436D01*
X115386564Y-79514698D01*
X115505636Y-79594259D01*
X115637942Y-79649062D01*
X115778397Y-79677000D01*
X115921603Y-79677000D01*
X116062058Y-79649062D01*
X116194364Y-79594259D01*
X116313436Y-79514698D01*
X116414698Y-79413436D01*
X116494259Y-79294364D01*
X116549062Y-79162058D01*
X116577000Y-79021603D01*
X116577000Y-78878397D01*
X116549062Y-78737942D01*
X116494259Y-78605636D01*
X116414698Y-78486564D01*
X116313436Y-78385302D01*
X116194364Y-78305741D01*
X116062058Y-78250938D01*
X115921603Y-78223000D01*
X115778397Y-78223000D01*
X115637942Y-78250938D01*
X115505636Y-78305741D01*
X115386564Y-78385302D01*
X115285302Y-78486564D01*
X115205741Y-78605636D01*
X115150938Y-78737942D01*
X115123000Y-78878397D01*
X114677000Y-78878397D01*
X114677000Y-78302621D01*
X114541460Y-77621212D01*
X114275587Y-76979339D01*
X113889600Y-76401668D01*
X113398332Y-75910400D01*
X112820661Y-75524413D01*
X112404420Y-75352000D01*
X118336536Y-75352000D01*
X118300938Y-75437942D01*
G37*
G04 #@! TD.AperFunction*
D25*
X131136740Y-119190682D02*
X131150938Y-119262058D01*
X131205741Y-119394364D01*
X131285302Y-119513436D01*
X131386564Y-119614698D01*
X131505636Y-119694259D01*
X131637942Y-119749062D01*
X131778397Y-119777000D01*
X131921603Y-119777000D01*
X132062058Y-119749062D01*
X132194364Y-119694259D01*
X132313436Y-119614698D01*
X132414698Y-119513436D01*
X132494259Y-119394364D01*
X132549062Y-119262058D01*
X132562712Y-119193434D01*
X149077140Y-119225315D01*
X149105741Y-119294364D01*
X149185302Y-119413436D01*
X149286564Y-119514698D01*
X149405636Y-119594259D01*
X149537942Y-119649062D01*
X149678397Y-119677000D01*
X149821603Y-119677000D01*
X149823000Y-119676722D01*
X149823000Y-133998000D01*
X124177000Y-133998000D01*
X124177000Y-129805537D01*
X129473000Y-129805537D01*
X129486413Y-129941723D01*
X129539420Y-130116463D01*
X129625499Y-130277504D01*
X129741341Y-130418659D01*
X129882495Y-130534501D01*
X130043536Y-130620580D01*
X130218276Y-130673587D01*
X130400000Y-130691485D01*
X130581723Y-130673587D01*
X130756463Y-130620580D01*
X130917504Y-130534501D01*
X131058659Y-130418659D01*
X131174501Y-130277505D01*
X131260580Y-130116464D01*
X131313587Y-129941724D01*
X131327000Y-129805538D01*
X131327000Y-128514462D01*
X131320849Y-128452008D01*
X133923000Y-128452008D01*
X133923001Y-129847993D01*
X133937138Y-129991525D01*
X133993004Y-130175691D01*
X134083725Y-130345418D01*
X134205815Y-130494186D01*
X134354583Y-130616276D01*
X134524310Y-130706997D01*
X134708476Y-130762863D01*
X134900000Y-130781727D01*
X135091525Y-130762863D01*
X135275691Y-130706997D01*
X135445418Y-130616276D01*
X135594186Y-130494186D01*
X135716276Y-130345418D01*
X135806997Y-130175691D01*
X135862863Y-129991525D01*
X135877000Y-129847993D01*
X135877000Y-128452008D01*
X147423000Y-128452008D01*
X147423001Y-129847993D01*
X147437138Y-129991525D01*
X147493004Y-130175691D01*
X147583725Y-130345418D01*
X147705815Y-130494186D01*
X147854583Y-130616276D01*
X148024310Y-130706997D01*
X148208476Y-130762863D01*
X148400000Y-130781727D01*
X148591525Y-130762863D01*
X148775691Y-130706997D01*
X148945418Y-130616276D01*
X149094186Y-130494186D01*
X149216276Y-130345418D01*
X149306997Y-130175691D01*
X149362863Y-129991525D01*
X149377000Y-129847993D01*
X149377000Y-128452007D01*
X149362863Y-128308475D01*
X149306997Y-128124309D01*
X149216276Y-127954582D01*
X149094186Y-127805814D01*
X148945418Y-127683724D01*
X148775690Y-127593003D01*
X148591524Y-127537137D01*
X148400000Y-127518273D01*
X148208475Y-127537137D01*
X148024309Y-127593003D01*
X147854582Y-127683724D01*
X147705814Y-127805814D01*
X147583724Y-127954582D01*
X147493003Y-128124310D01*
X147437137Y-128308476D01*
X147423000Y-128452008D01*
X135877000Y-128452008D01*
X135877000Y-128452007D01*
X135862863Y-128308475D01*
X135806997Y-128124309D01*
X135716276Y-127954582D01*
X135594186Y-127805814D01*
X135445418Y-127683724D01*
X135275690Y-127593003D01*
X135091524Y-127537137D01*
X134900000Y-127518273D01*
X134708475Y-127537137D01*
X134524309Y-127593003D01*
X134354582Y-127683724D01*
X134205814Y-127805814D01*
X134083724Y-127954582D01*
X133993003Y-128124310D01*
X133937137Y-128308476D01*
X133923000Y-128452008D01*
X131320849Y-128452008D01*
X131313587Y-128378276D01*
X131260580Y-128203536D01*
X131174501Y-128042495D01*
X131058659Y-127901341D01*
X130917505Y-127785499D01*
X130756464Y-127699420D01*
X130581724Y-127646413D01*
X130400000Y-127628515D01*
X130218277Y-127646413D01*
X130043537Y-127699420D01*
X129882496Y-127785499D01*
X129741342Y-127901341D01*
X129625500Y-128042495D01*
X129539421Y-128203536D01*
X129486414Y-128378276D01*
X129473001Y-128514462D01*
X129473000Y-129805537D01*
X124177000Y-129805537D01*
X124177000Y-121302000D01*
X125063418Y-121302000D01*
X125063418Y-125018000D01*
X125069732Y-125082103D01*
X125088430Y-125143743D01*
X125118794Y-125200550D01*
X125159657Y-125250343D01*
X125209450Y-125291206D01*
X125266257Y-125321570D01*
X125327897Y-125340268D01*
X125392000Y-125346582D01*
X129108000Y-125346582D01*
X129172103Y-125340268D01*
X129233743Y-125321570D01*
X129290550Y-125291206D01*
X129340343Y-125250343D01*
X129381206Y-125200550D01*
X129411570Y-125143743D01*
X129430268Y-125082103D01*
X129436582Y-125018000D01*
X129436582Y-122934796D01*
X135865000Y-122934796D01*
X135865000Y-123365204D01*
X135948969Y-123787341D01*
X136113678Y-124184985D01*
X136352800Y-124542856D01*
X136657144Y-124847200D01*
X137015015Y-125086322D01*
X137412659Y-125251031D01*
X137834796Y-125335000D01*
X138265204Y-125335000D01*
X138687341Y-125251031D01*
X139084985Y-125086322D01*
X139442856Y-124847200D01*
X139747200Y-124542856D01*
X139986322Y-124184985D01*
X140151031Y-123787341D01*
X140235000Y-123365204D01*
X140235000Y-122934796D01*
X140151031Y-122512659D01*
X139986322Y-122115015D01*
X139747200Y-121757144D01*
X139442856Y-121452800D01*
X139084985Y-121213678D01*
X138687341Y-121048969D01*
X138265204Y-120965000D01*
X137834796Y-120965000D01*
X137412659Y-121048969D01*
X137015015Y-121213678D01*
X136657144Y-121452800D01*
X136352800Y-121757144D01*
X136113678Y-122115015D01*
X135948969Y-122512659D01*
X135865000Y-122934796D01*
X129436582Y-122934796D01*
X129436582Y-121302000D01*
X129430268Y-121237897D01*
X129411570Y-121176257D01*
X129381206Y-121119450D01*
X129340343Y-121069657D01*
X129290550Y-121028794D01*
X129233743Y-120998430D01*
X129172103Y-120979732D01*
X129108000Y-120973418D01*
X125392000Y-120973418D01*
X125327897Y-120979732D01*
X125266257Y-120998430D01*
X125209450Y-121028794D01*
X125159657Y-121069657D01*
X125118794Y-121119450D01*
X125088430Y-121176257D01*
X125069732Y-121237897D01*
X125063418Y-121302000D01*
X124177000Y-121302000D01*
X124177000Y-119177246D01*
X131136740Y-119190682D01*
G04 #@! TA.AperFunction,Conductor*
D26*
G36*
X131136740Y-119190682D02*
G01*
X131150938Y-119262058D01*
X131205741Y-119394364D01*
X131285302Y-119513436D01*
X131386564Y-119614698D01*
X131505636Y-119694259D01*
X131637942Y-119749062D01*
X131778397Y-119777000D01*
X131921603Y-119777000D01*
X132062058Y-119749062D01*
X132194364Y-119694259D01*
X132313436Y-119614698D01*
X132414698Y-119513436D01*
X132494259Y-119394364D01*
X132549062Y-119262058D01*
X132562712Y-119193434D01*
X149077140Y-119225315D01*
X149105741Y-119294364D01*
X149185302Y-119413436D01*
X149286564Y-119514698D01*
X149405636Y-119594259D01*
X149537942Y-119649062D01*
X149678397Y-119677000D01*
X149821603Y-119677000D01*
X149823000Y-119676722D01*
X149823000Y-133998000D01*
X124177000Y-133998000D01*
X124177000Y-129805537D01*
X129473000Y-129805537D01*
X129486413Y-129941723D01*
X129539420Y-130116463D01*
X129625499Y-130277504D01*
X129741341Y-130418659D01*
X129882495Y-130534501D01*
X130043536Y-130620580D01*
X130218276Y-130673587D01*
X130400000Y-130691485D01*
X130581723Y-130673587D01*
X130756463Y-130620580D01*
X130917504Y-130534501D01*
X131058659Y-130418659D01*
X131174501Y-130277505D01*
X131260580Y-130116464D01*
X131313587Y-129941724D01*
X131327000Y-129805538D01*
X131327000Y-128514462D01*
X131320849Y-128452008D01*
X133923000Y-128452008D01*
X133923001Y-129847993D01*
X133937138Y-129991525D01*
X133993004Y-130175691D01*
X134083725Y-130345418D01*
X134205815Y-130494186D01*
X134354583Y-130616276D01*
X134524310Y-130706997D01*
X134708476Y-130762863D01*
X134900000Y-130781727D01*
X135091525Y-130762863D01*
X135275691Y-130706997D01*
X135445418Y-130616276D01*
X135594186Y-130494186D01*
X135716276Y-130345418D01*
X135806997Y-130175691D01*
X135862863Y-129991525D01*
X135877000Y-129847993D01*
X135877000Y-128452008D01*
X147423000Y-128452008D01*
X147423001Y-129847993D01*
X147437138Y-129991525D01*
X147493004Y-130175691D01*
X147583725Y-130345418D01*
X147705815Y-130494186D01*
X147854583Y-130616276D01*
X148024310Y-130706997D01*
X148208476Y-130762863D01*
X148400000Y-130781727D01*
X148591525Y-130762863D01*
X148775691Y-130706997D01*
X148945418Y-130616276D01*
X149094186Y-130494186D01*
X149216276Y-130345418D01*
X149306997Y-130175691D01*
X149362863Y-129991525D01*
X149377000Y-129847993D01*
X149377000Y-128452007D01*
X149362863Y-128308475D01*
X149306997Y-128124309D01*
X149216276Y-127954582D01*
X149094186Y-127805814D01*
X148945418Y-127683724D01*
X148775690Y-127593003D01*
X148591524Y-127537137D01*
X148400000Y-127518273D01*
X148208475Y-127537137D01*
X148024309Y-127593003D01*
X147854582Y-127683724D01*
X147705814Y-127805814D01*
X147583724Y-127954582D01*
X147493003Y-128124310D01*
X147437137Y-128308476D01*
X147423000Y-128452008D01*
X135877000Y-128452008D01*
X135877000Y-128452007D01*
X135862863Y-128308475D01*
X135806997Y-128124309D01*
X135716276Y-127954582D01*
X135594186Y-127805814D01*
X135445418Y-127683724D01*
X135275690Y-127593003D01*
X135091524Y-127537137D01*
X134900000Y-127518273D01*
X134708475Y-127537137D01*
X134524309Y-127593003D01*
X134354582Y-127683724D01*
X134205814Y-127805814D01*
X134083724Y-127954582D01*
X133993003Y-128124310D01*
X133937137Y-128308476D01*
X133923000Y-128452008D01*
X131320849Y-128452008D01*
X131313587Y-128378276D01*
X131260580Y-128203536D01*
X131174501Y-128042495D01*
X131058659Y-127901341D01*
X130917505Y-127785499D01*
X130756464Y-127699420D01*
X130581724Y-127646413D01*
X130400000Y-127628515D01*
X130218277Y-127646413D01*
X130043537Y-127699420D01*
X129882496Y-127785499D01*
X129741342Y-127901341D01*
X129625500Y-128042495D01*
X129539421Y-128203536D01*
X129486414Y-128378276D01*
X129473001Y-128514462D01*
X129473000Y-129805537D01*
X124177000Y-129805537D01*
X124177000Y-121302000D01*
X125063418Y-121302000D01*
X125063418Y-125018000D01*
X125069732Y-125082103D01*
X125088430Y-125143743D01*
X125118794Y-125200550D01*
X125159657Y-125250343D01*
X125209450Y-125291206D01*
X125266257Y-125321570D01*
X125327897Y-125340268D01*
X125392000Y-125346582D01*
X129108000Y-125346582D01*
X129172103Y-125340268D01*
X129233743Y-125321570D01*
X129290550Y-125291206D01*
X129340343Y-125250343D01*
X129381206Y-125200550D01*
X129411570Y-125143743D01*
X129430268Y-125082103D01*
X129436582Y-125018000D01*
X129436582Y-122934796D01*
X135865000Y-122934796D01*
X135865000Y-123365204D01*
X135948969Y-123787341D01*
X136113678Y-124184985D01*
X136352800Y-124542856D01*
X136657144Y-124847200D01*
X137015015Y-125086322D01*
X137412659Y-125251031D01*
X137834796Y-125335000D01*
X138265204Y-125335000D01*
X138687341Y-125251031D01*
X139084985Y-125086322D01*
X139442856Y-124847200D01*
X139747200Y-124542856D01*
X139986322Y-124184985D01*
X140151031Y-123787341D01*
X140235000Y-123365204D01*
X140235000Y-122934796D01*
X140151031Y-122512659D01*
X139986322Y-122115015D01*
X139747200Y-121757144D01*
X139442856Y-121452800D01*
X139084985Y-121213678D01*
X138687341Y-121048969D01*
X138265204Y-120965000D01*
X137834796Y-120965000D01*
X137412659Y-121048969D01*
X137015015Y-121213678D01*
X136657144Y-121452800D01*
X136352800Y-121757144D01*
X136113678Y-122115015D01*
X135948969Y-122512659D01*
X135865000Y-122934796D01*
X129436582Y-122934796D01*
X129436582Y-121302000D01*
X129430268Y-121237897D01*
X129411570Y-121176257D01*
X129381206Y-121119450D01*
X129340343Y-121069657D01*
X129290550Y-121028794D01*
X129233743Y-120998430D01*
X129172103Y-120979732D01*
X129108000Y-120973418D01*
X125392000Y-120973418D01*
X125327897Y-120979732D01*
X125266257Y-120998430D01*
X125209450Y-121028794D01*
X125159657Y-121069657D01*
X125118794Y-121119450D01*
X125088430Y-121176257D01*
X125069732Y-121237897D01*
X125063418Y-121302000D01*
X124177000Y-121302000D01*
X124177000Y-119177246D01*
X131136740Y-119190682D01*
G37*
G04 #@! TD.AperFunction*
D25*
X172223000Y-119797580D02*
X172223000Y-119921603D01*
X172250938Y-120062058D01*
X172305741Y-120194364D01*
X172385302Y-120313436D01*
X172486564Y-120414698D01*
X172605636Y-120494259D01*
X172737942Y-120549062D01*
X172878397Y-120577000D01*
X173021603Y-120577000D01*
X173162058Y-120549062D01*
X173294364Y-120494259D01*
X173413436Y-120414698D01*
X173514698Y-120313436D01*
X173594259Y-120194364D01*
X173649062Y-120062058D01*
X173677000Y-119921603D01*
X173677000Y-119778397D01*
X173649062Y-119637942D01*
X173594259Y-119505636D01*
X173514698Y-119386564D01*
X173413436Y-119285302D01*
X173294364Y-119205741D01*
X173224977Y-119177000D01*
X175098001Y-119177000D01*
X175098001Y-124791580D01*
X175044364Y-124755741D01*
X174912058Y-124700938D01*
X174771603Y-124673000D01*
X174628397Y-124673000D01*
X174487942Y-124700938D01*
X174355636Y-124755741D01*
X174236564Y-124835302D01*
X174135302Y-124936564D01*
X174055741Y-125055636D01*
X174000938Y-125187942D01*
X173973000Y-125328397D01*
X173973000Y-125471603D01*
X174000938Y-125612058D01*
X174055741Y-125744364D01*
X174135302Y-125863436D01*
X174236564Y-125964698D01*
X174355636Y-126044259D01*
X174487942Y-126099062D01*
X174628397Y-126127000D01*
X174771603Y-126127000D01*
X174912058Y-126099062D01*
X175044364Y-126044259D01*
X175098001Y-126008420D01*
X175098001Y-129233451D01*
X175075587Y-129179339D01*
X174689600Y-128601668D01*
X174198332Y-128110400D01*
X173620661Y-127724413D01*
X172978788Y-127458540D01*
X172297379Y-127323000D01*
X171602621Y-127323000D01*
X170921212Y-127458540D01*
X170279339Y-127724413D01*
X169701668Y-128110400D01*
X169210400Y-128601668D01*
X168824413Y-129179339D01*
X168558540Y-129821212D01*
X168423000Y-130502621D01*
X168423000Y-131197379D01*
X168558540Y-131878788D01*
X168824413Y-132520661D01*
X169210400Y-133098332D01*
X169701668Y-133589600D01*
X170279339Y-133975587D01*
X170333449Y-133998000D01*
X150377000Y-133998000D01*
X150377000Y-128422008D01*
X151943000Y-128422008D01*
X151943001Y-129817993D01*
X151957138Y-129961525D01*
X152013004Y-130145691D01*
X152103725Y-130315418D01*
X152225815Y-130464186D01*
X152374583Y-130586276D01*
X152544310Y-130676997D01*
X152728476Y-130732863D01*
X152920000Y-130751727D01*
X153111525Y-130732863D01*
X153295691Y-130676997D01*
X153465418Y-130586276D01*
X153614186Y-130464186D01*
X153736276Y-130315418D01*
X153826997Y-130145691D01*
X153882863Y-129961525D01*
X153897000Y-129817993D01*
X153897000Y-128422008D01*
X165443000Y-128422008D01*
X165443001Y-129817993D01*
X165457138Y-129961525D01*
X165513004Y-130145691D01*
X165603725Y-130315418D01*
X165725815Y-130464186D01*
X165874583Y-130586276D01*
X166044310Y-130676997D01*
X166228476Y-130732863D01*
X166420000Y-130751727D01*
X166611525Y-130732863D01*
X166795691Y-130676997D01*
X166965418Y-130586276D01*
X167114186Y-130464186D01*
X167236276Y-130315418D01*
X167326997Y-130145691D01*
X167382863Y-129961525D01*
X167397000Y-129817993D01*
X167397000Y-128422007D01*
X167382863Y-128278475D01*
X167326997Y-128094309D01*
X167236276Y-127924582D01*
X167114186Y-127775814D01*
X166965418Y-127653724D01*
X166795690Y-127563003D01*
X166611524Y-127507137D01*
X166420000Y-127488273D01*
X166228475Y-127507137D01*
X166044309Y-127563003D01*
X165874582Y-127653724D01*
X165725814Y-127775814D01*
X165603724Y-127924582D01*
X165513003Y-128094310D01*
X165457137Y-128278476D01*
X165443000Y-128422008D01*
X153897000Y-128422008D01*
X153897000Y-128422007D01*
X153882863Y-128278475D01*
X153826997Y-128094309D01*
X153736276Y-127924582D01*
X153614186Y-127775814D01*
X153465418Y-127653724D01*
X153295690Y-127563003D01*
X153111524Y-127507137D01*
X152920000Y-127488273D01*
X152728475Y-127507137D01*
X152544309Y-127563003D01*
X152374582Y-127653724D01*
X152225814Y-127775814D01*
X152103724Y-127924582D01*
X152013003Y-128094310D01*
X151957137Y-128278476D01*
X151943000Y-128422008D01*
X150377000Y-128422008D01*
X150377000Y-122904796D01*
X153885000Y-122904796D01*
X153885000Y-123335204D01*
X153968969Y-123757341D01*
X154133678Y-124154985D01*
X154372800Y-124512856D01*
X154677144Y-124817200D01*
X155035015Y-125056322D01*
X155432659Y-125221031D01*
X155854796Y-125305000D01*
X156285204Y-125305000D01*
X156707341Y-125221031D01*
X157104985Y-125056322D01*
X157462856Y-124817200D01*
X157767200Y-124512856D01*
X158006322Y-124154985D01*
X158171031Y-123757341D01*
X158255000Y-123335204D01*
X158255000Y-122904796D01*
X158171031Y-122482659D01*
X158006322Y-122085015D01*
X157767200Y-121727144D01*
X157462856Y-121422800D01*
X157104985Y-121183678D01*
X156707341Y-121018969D01*
X156285204Y-120935000D01*
X155854796Y-120935000D01*
X155432659Y-121018969D01*
X155035015Y-121183678D01*
X154677144Y-121422800D01*
X154372800Y-121727144D01*
X154133678Y-122085015D01*
X153968969Y-122482659D01*
X153885000Y-122904796D01*
X150377000Y-122904796D01*
X150377000Y-119320194D01*
X150394259Y-119294364D01*
X150442873Y-119177000D01*
X171602420Y-119177000D01*
X172223000Y-119797580D01*
G04 #@! TA.AperFunction,Conductor*
D26*
G36*
X172223000Y-119797580D02*
G01*
X172223000Y-119921603D01*
X172250938Y-120062058D01*
X172305741Y-120194364D01*
X172385302Y-120313436D01*
X172486564Y-120414698D01*
X172605636Y-120494259D01*
X172737942Y-120549062D01*
X172878397Y-120577000D01*
X173021603Y-120577000D01*
X173162058Y-120549062D01*
X173294364Y-120494259D01*
X173413436Y-120414698D01*
X173514698Y-120313436D01*
X173594259Y-120194364D01*
X173649062Y-120062058D01*
X173677000Y-119921603D01*
X173677000Y-119778397D01*
X173649062Y-119637942D01*
X173594259Y-119505636D01*
X173514698Y-119386564D01*
X173413436Y-119285302D01*
X173294364Y-119205741D01*
X173224977Y-119177000D01*
X175098001Y-119177000D01*
X175098001Y-124791580D01*
X175044364Y-124755741D01*
X174912058Y-124700938D01*
X174771603Y-124673000D01*
X174628397Y-124673000D01*
X174487942Y-124700938D01*
X174355636Y-124755741D01*
X174236564Y-124835302D01*
X174135302Y-124936564D01*
X174055741Y-125055636D01*
X174000938Y-125187942D01*
X173973000Y-125328397D01*
X173973000Y-125471603D01*
X174000938Y-125612058D01*
X174055741Y-125744364D01*
X174135302Y-125863436D01*
X174236564Y-125964698D01*
X174355636Y-126044259D01*
X174487942Y-126099062D01*
X174628397Y-126127000D01*
X174771603Y-126127000D01*
X174912058Y-126099062D01*
X175044364Y-126044259D01*
X175098001Y-126008420D01*
X175098001Y-129233451D01*
X175075587Y-129179339D01*
X174689600Y-128601668D01*
X174198332Y-128110400D01*
X173620661Y-127724413D01*
X172978788Y-127458540D01*
X172297379Y-127323000D01*
X171602621Y-127323000D01*
X170921212Y-127458540D01*
X170279339Y-127724413D01*
X169701668Y-128110400D01*
X169210400Y-128601668D01*
X168824413Y-129179339D01*
X168558540Y-129821212D01*
X168423000Y-130502621D01*
X168423000Y-131197379D01*
X168558540Y-131878788D01*
X168824413Y-132520661D01*
X169210400Y-133098332D01*
X169701668Y-133589600D01*
X170279339Y-133975587D01*
X170333449Y-133998000D01*
X150377000Y-133998000D01*
X150377000Y-128422008D01*
X151943000Y-128422008D01*
X151943001Y-129817993D01*
X151957138Y-129961525D01*
X152013004Y-130145691D01*
X152103725Y-130315418D01*
X152225815Y-130464186D01*
X152374583Y-130586276D01*
X152544310Y-130676997D01*
X152728476Y-130732863D01*
X152920000Y-130751727D01*
X153111525Y-130732863D01*
X153295691Y-130676997D01*
X153465418Y-130586276D01*
X153614186Y-130464186D01*
X153736276Y-130315418D01*
X153826997Y-130145691D01*
X153882863Y-129961525D01*
X153897000Y-129817993D01*
X153897000Y-128422008D01*
X165443000Y-128422008D01*
X165443001Y-129817993D01*
X165457138Y-129961525D01*
X165513004Y-130145691D01*
X165603725Y-130315418D01*
X165725815Y-130464186D01*
X165874583Y-130586276D01*
X166044310Y-130676997D01*
X166228476Y-130732863D01*
X166420000Y-130751727D01*
X166611525Y-130732863D01*
X166795691Y-130676997D01*
X166965418Y-130586276D01*
X167114186Y-130464186D01*
X167236276Y-130315418D01*
X167326997Y-130145691D01*
X167382863Y-129961525D01*
X167397000Y-129817993D01*
X167397000Y-128422007D01*
X167382863Y-128278475D01*
X167326997Y-128094309D01*
X167236276Y-127924582D01*
X167114186Y-127775814D01*
X166965418Y-127653724D01*
X166795690Y-127563003D01*
X166611524Y-127507137D01*
X166420000Y-127488273D01*
X166228475Y-127507137D01*
X166044309Y-127563003D01*
X165874582Y-127653724D01*
X165725814Y-127775814D01*
X165603724Y-127924582D01*
X165513003Y-128094310D01*
X165457137Y-128278476D01*
X165443000Y-128422008D01*
X153897000Y-128422008D01*
X153897000Y-128422007D01*
X153882863Y-128278475D01*
X153826997Y-128094309D01*
X153736276Y-127924582D01*
X153614186Y-127775814D01*
X153465418Y-127653724D01*
X153295690Y-127563003D01*
X153111524Y-127507137D01*
X152920000Y-127488273D01*
X152728475Y-127507137D01*
X152544309Y-127563003D01*
X152374582Y-127653724D01*
X152225814Y-127775814D01*
X152103724Y-127924582D01*
X152013003Y-128094310D01*
X151957137Y-128278476D01*
X151943000Y-128422008D01*
X150377000Y-128422008D01*
X150377000Y-122904796D01*
X153885000Y-122904796D01*
X153885000Y-123335204D01*
X153968969Y-123757341D01*
X154133678Y-124154985D01*
X154372800Y-124512856D01*
X154677144Y-124817200D01*
X155035015Y-125056322D01*
X155432659Y-125221031D01*
X155854796Y-125305000D01*
X156285204Y-125305000D01*
X156707341Y-125221031D01*
X157104985Y-125056322D01*
X157462856Y-124817200D01*
X157767200Y-124512856D01*
X158006322Y-124154985D01*
X158171031Y-123757341D01*
X158255000Y-123335204D01*
X158255000Y-122904796D01*
X158171031Y-122482659D01*
X158006322Y-122085015D01*
X157767200Y-121727144D01*
X157462856Y-121422800D01*
X157104985Y-121183678D01*
X156707341Y-121018969D01*
X156285204Y-120935000D01*
X155854796Y-120935000D01*
X155432659Y-121018969D01*
X155035015Y-121183678D01*
X154677144Y-121422800D01*
X154372800Y-121727144D01*
X154133678Y-122085015D01*
X153968969Y-122482659D01*
X153885000Y-122904796D01*
X150377000Y-122904796D01*
X150377000Y-119320194D01*
X150394259Y-119294364D01*
X150442873Y-119177000D01*
X171602420Y-119177000D01*
X172223000Y-119797580D01*
G37*
G04 #@! TD.AperFunction*
D25*
X165763200Y-75358666D02*
X165735302Y-75386564D01*
X165655741Y-75505636D01*
X165600938Y-75637942D01*
X165573000Y-75778397D01*
X165573000Y-75921603D01*
X165600938Y-76062058D01*
X165655741Y-76194364D01*
X165735302Y-76313436D01*
X165836564Y-76414698D01*
X165955636Y-76494259D01*
X166087942Y-76549062D01*
X166228397Y-76577000D01*
X166371603Y-76577000D01*
X166512058Y-76549062D01*
X166644364Y-76494259D01*
X166763436Y-76414698D01*
X166864698Y-76313436D01*
X166944259Y-76194364D01*
X166999062Y-76062058D01*
X167027000Y-75921603D01*
X167027000Y-75778397D01*
X166999062Y-75637942D01*
X166944259Y-75505636D01*
X166864698Y-75386564D01*
X166837612Y-75359478D01*
X170429546Y-75362195D01*
X170279339Y-75424413D01*
X169701668Y-75810400D01*
X169210400Y-76301668D01*
X168824413Y-76879339D01*
X168558540Y-77521212D01*
X168423000Y-78202621D01*
X168423000Y-78897379D01*
X168558540Y-79578788D01*
X168824413Y-80220661D01*
X169210400Y-80798332D01*
X169701668Y-81289600D01*
X170279339Y-81675587D01*
X170921212Y-81941460D01*
X171602621Y-82077000D01*
X172297379Y-82077000D01*
X172978788Y-81941460D01*
X173620661Y-81675587D01*
X174198332Y-81289600D01*
X174689600Y-80798332D01*
X175075587Y-80220661D01*
X175098000Y-80166551D01*
X175098000Y-88162535D01*
X175077475Y-88137525D01*
X174946218Y-88029806D01*
X174796469Y-87949763D01*
X174633981Y-87900473D01*
X174507339Y-87888000D01*
X173592661Y-87888000D01*
X173466019Y-87900473D01*
X173303531Y-87949763D01*
X173153782Y-88029806D01*
X173022525Y-88137525D01*
X172914806Y-88268782D01*
X172834763Y-88418531D01*
X172785473Y-88581019D01*
X172768830Y-88750000D01*
X172785473Y-88918981D01*
X172834763Y-89081469D01*
X172914806Y-89231218D01*
X173022525Y-89362475D01*
X173153782Y-89470194D01*
X173303531Y-89550237D01*
X173466019Y-89599527D01*
X173592661Y-89612000D01*
X174507339Y-89612000D01*
X174633981Y-89599527D01*
X174796469Y-89550237D01*
X174946218Y-89470194D01*
X175077475Y-89362475D01*
X175098000Y-89337465D01*
X175098000Y-95492741D01*
X175085194Y-95468782D01*
X174977475Y-95337525D01*
X174846218Y-95229806D01*
X174696469Y-95149763D01*
X174533981Y-95100473D01*
X174407339Y-95088000D01*
X173492661Y-95088000D01*
X173366019Y-95100473D01*
X173203531Y-95149763D01*
X173053782Y-95229806D01*
X172922525Y-95337525D01*
X172814806Y-95468782D01*
X172734763Y-95618531D01*
X172685473Y-95781019D01*
X172668830Y-95950000D01*
X172685473Y-96118981D01*
X172734763Y-96281469D01*
X172814806Y-96431218D01*
X172922525Y-96562475D01*
X173053782Y-96670194D01*
X173203531Y-96750237D01*
X173366019Y-96799527D01*
X173492661Y-96812000D01*
X174407339Y-96812000D01*
X174533981Y-96799527D01*
X174696469Y-96750237D01*
X174846218Y-96670194D01*
X174977475Y-96562475D01*
X175085194Y-96431218D01*
X175098000Y-96407259D01*
X175098001Y-118623000D01*
X172397580Y-118623000D01*
X171403855Y-117629276D01*
X171388921Y-117611079D01*
X171316289Y-117551471D01*
X171233423Y-117507178D01*
X171143508Y-117479903D01*
X171073423Y-117473000D01*
X171073415Y-117473000D01*
X171050000Y-117470694D01*
X171026585Y-117473000D01*
X165177000Y-117473000D01*
X165177000Y-116300000D01*
X171618273Y-116300000D01*
X171637137Y-116491525D01*
X171693003Y-116675691D01*
X171783724Y-116845418D01*
X171905814Y-116994186D01*
X172054582Y-117116276D01*
X172224309Y-117206997D01*
X172408475Y-117262863D01*
X172552007Y-117277000D01*
X173947993Y-117277000D01*
X174091525Y-117262863D01*
X174275691Y-117206997D01*
X174445418Y-117116276D01*
X174594186Y-116994186D01*
X174716276Y-116845418D01*
X174806997Y-116675691D01*
X174862863Y-116491525D01*
X174881727Y-116300000D01*
X174862863Y-116108475D01*
X174806997Y-115924309D01*
X174716276Y-115754582D01*
X174594186Y-115605814D01*
X174445418Y-115483724D01*
X174275691Y-115393003D01*
X174091525Y-115337137D01*
X173947993Y-115323000D01*
X172552007Y-115323000D01*
X172408475Y-115337137D01*
X172224309Y-115393003D01*
X172054582Y-115483724D01*
X171905814Y-115605814D01*
X171783724Y-115754582D01*
X171693003Y-115924309D01*
X171637137Y-116108475D01*
X171618273Y-116300000D01*
X165177000Y-116300000D01*
X165177000Y-113855014D01*
X165313678Y-114184985D01*
X165552800Y-114542856D01*
X165857144Y-114847200D01*
X166215015Y-115086322D01*
X166612659Y-115251031D01*
X167034796Y-115335000D01*
X167465204Y-115335000D01*
X167887341Y-115251031D01*
X168284985Y-115086322D01*
X168642856Y-114847200D01*
X168947200Y-114542856D01*
X169186322Y-114184985D01*
X169351031Y-113787341D01*
X169435000Y-113365204D01*
X169435000Y-112934796D01*
X169351031Y-112512659D01*
X169186322Y-112115015D01*
X168947200Y-111757144D01*
X168642856Y-111452800D01*
X168284985Y-111213678D01*
X167887341Y-111048969D01*
X167465204Y-110965000D01*
X167034796Y-110965000D01*
X166612659Y-111048969D01*
X166215015Y-111213678D01*
X165857144Y-111452800D01*
X165552800Y-111757144D01*
X165313678Y-112115015D01*
X165177000Y-112444986D01*
X165177000Y-103850000D01*
X165174560Y-103825224D01*
X165167333Y-103801399D01*
X165155597Y-103779443D01*
X165139803Y-103760197D01*
X165120557Y-103744403D01*
X165098601Y-103732667D01*
X165074776Y-103725440D01*
X165050000Y-103723000D01*
X161477000Y-103723000D01*
X161477000Y-102800000D01*
X171618273Y-102800000D01*
X171637137Y-102991525D01*
X171693003Y-103175691D01*
X171783724Y-103345418D01*
X171905814Y-103494186D01*
X172054582Y-103616276D01*
X172224309Y-103706997D01*
X172408475Y-103762863D01*
X172552007Y-103777000D01*
X173947993Y-103777000D01*
X174091525Y-103762863D01*
X174275691Y-103706997D01*
X174445418Y-103616276D01*
X174594186Y-103494186D01*
X174716276Y-103345418D01*
X174806997Y-103175691D01*
X174862863Y-102991525D01*
X174881727Y-102800000D01*
X174862863Y-102608475D01*
X174806997Y-102424309D01*
X174716276Y-102254582D01*
X174594186Y-102105814D01*
X174445418Y-101983724D01*
X174275691Y-101893003D01*
X174091525Y-101837137D01*
X173947993Y-101823000D01*
X172552007Y-101823000D01*
X172408475Y-101837137D01*
X172224309Y-101893003D01*
X172054582Y-101983724D01*
X171905814Y-102105814D01*
X171783724Y-102254582D01*
X171693003Y-102424309D01*
X171637137Y-102608475D01*
X171618273Y-102800000D01*
X161477000Y-102800000D01*
X161477000Y-101678397D01*
X170323000Y-101678397D01*
X170323000Y-101821603D01*
X170350938Y-101962058D01*
X170405741Y-102094364D01*
X170485302Y-102213436D01*
X170586564Y-102314698D01*
X170705636Y-102394259D01*
X170837942Y-102449062D01*
X170978397Y-102477000D01*
X171121603Y-102477000D01*
X171262058Y-102449062D01*
X171394364Y-102394259D01*
X171513436Y-102314698D01*
X171614698Y-102213436D01*
X171694259Y-102094364D01*
X171749062Y-101962058D01*
X171777000Y-101821603D01*
X171777000Y-101678397D01*
X171749062Y-101537942D01*
X171694259Y-101405636D01*
X171614698Y-101286564D01*
X171513436Y-101185302D01*
X171394364Y-101105741D01*
X171262058Y-101050938D01*
X171121603Y-101023000D01*
X170978397Y-101023000D01*
X170837942Y-101050938D01*
X170705636Y-101105741D01*
X170586564Y-101185302D01*
X170485302Y-101286564D01*
X170405741Y-101405636D01*
X170350938Y-101537942D01*
X170323000Y-101678397D01*
X161477000Y-101678397D01*
X161477000Y-100577000D01*
X165050000Y-100577000D01*
X165074776Y-100574560D01*
X165098601Y-100567333D01*
X165120557Y-100555597D01*
X165139803Y-100539803D01*
X165155597Y-100520557D01*
X165167333Y-100498601D01*
X165174560Y-100474776D01*
X165177000Y-100450000D01*
X165177000Y-98341716D01*
X165255636Y-98394259D01*
X165387942Y-98449062D01*
X165528397Y-98477000D01*
X165671603Y-98477000D01*
X165812058Y-98449062D01*
X165853473Y-98431907D01*
X172539964Y-98431907D01*
X172539964Y-98575113D01*
X172567902Y-98715568D01*
X172622705Y-98847874D01*
X172702266Y-98966946D01*
X172803528Y-99068208D01*
X172922600Y-99147769D01*
X173054906Y-99202572D01*
X173195361Y-99230510D01*
X173338567Y-99230510D01*
X173479022Y-99202572D01*
X173611328Y-99147769D01*
X173730400Y-99068208D01*
X173831662Y-98966946D01*
X173911223Y-98847874D01*
X173966026Y-98715568D01*
X173993964Y-98575113D01*
X173993964Y-98431907D01*
X173966026Y-98291452D01*
X173911223Y-98159146D01*
X173831662Y-98040074D01*
X173730400Y-97938812D01*
X173611328Y-97859251D01*
X173479022Y-97804448D01*
X173338567Y-97776510D01*
X173195361Y-97776510D01*
X173054906Y-97804448D01*
X172922600Y-97859251D01*
X172803528Y-97938812D01*
X172702266Y-98040074D01*
X172622705Y-98159146D01*
X172567902Y-98291452D01*
X172539964Y-98431907D01*
X165853473Y-98431907D01*
X165944364Y-98394259D01*
X166063436Y-98314698D01*
X166164698Y-98213436D01*
X166244259Y-98094364D01*
X166299062Y-97962058D01*
X166327000Y-97821603D01*
X166327000Y-97678397D01*
X166299062Y-97537942D01*
X166244259Y-97405636D01*
X166164698Y-97286564D01*
X166063436Y-97185302D01*
X165944364Y-97105741D01*
X165812058Y-97050938D01*
X165671603Y-97023000D01*
X165528397Y-97023000D01*
X165387942Y-97050938D01*
X165255636Y-97105741D01*
X165177000Y-97158284D01*
X165177000Y-95678391D01*
X166823000Y-95678391D01*
X166823000Y-95821597D01*
X166850938Y-95962052D01*
X166905741Y-96094358D01*
X166985302Y-96213430D01*
X167086564Y-96314692D01*
X167205636Y-96394253D01*
X167337942Y-96449056D01*
X167478397Y-96476994D01*
X167621603Y-96476994D01*
X167762058Y-96449056D01*
X167894364Y-96394253D01*
X168013436Y-96314692D01*
X168114698Y-96213430D01*
X168194259Y-96094358D01*
X168249062Y-95962052D01*
X168277000Y-95821597D01*
X168277000Y-95678391D01*
X168249062Y-95537936D01*
X168194259Y-95405630D01*
X168114698Y-95286558D01*
X168013436Y-95185296D01*
X167894364Y-95105735D01*
X167762058Y-95050932D01*
X167621603Y-95022994D01*
X167478397Y-95022994D01*
X167337942Y-95050932D01*
X167205636Y-95105735D01*
X167086564Y-95185296D01*
X166985302Y-95286558D01*
X166905741Y-95405630D01*
X166850938Y-95537936D01*
X166823000Y-95678391D01*
X165177000Y-95678391D01*
X165177000Y-94653774D01*
X170073000Y-94653774D01*
X170073000Y-94846226D01*
X170110546Y-95034980D01*
X170184194Y-95212783D01*
X170291115Y-95372801D01*
X170427199Y-95508885D01*
X170587217Y-95615806D01*
X170765020Y-95689454D01*
X170953774Y-95727000D01*
X171146226Y-95727000D01*
X171334980Y-95689454D01*
X171512783Y-95615806D01*
X171672801Y-95508885D01*
X171808885Y-95372801D01*
X171915806Y-95212783D01*
X171989454Y-95034980D01*
X172027000Y-94846226D01*
X172027000Y-94653774D01*
X171989454Y-94465020D01*
X171915806Y-94287217D01*
X171808885Y-94127199D01*
X171672801Y-93991115D01*
X171512783Y-93884194D01*
X171334980Y-93810546D01*
X171146226Y-93773000D01*
X170953774Y-93773000D01*
X170765020Y-93810546D01*
X170587217Y-93884194D01*
X170427199Y-93991115D01*
X170291115Y-94127199D01*
X170184194Y-94287217D01*
X170110546Y-94465020D01*
X170073000Y-94653774D01*
X165177000Y-94653774D01*
X165177000Y-93356831D01*
X165278397Y-93377000D01*
X165421603Y-93377000D01*
X165562058Y-93349062D01*
X165694364Y-93294259D01*
X165813436Y-93214698D01*
X165914698Y-93113436D01*
X165994259Y-92994364D01*
X166049062Y-92862058D01*
X166077000Y-92721603D01*
X166077000Y-92578397D01*
X166055943Y-92472534D01*
X166078397Y-92477000D01*
X166221603Y-92477000D01*
X166362058Y-92449062D01*
X166494364Y-92394259D01*
X166613436Y-92314698D01*
X166714698Y-92213436D01*
X166794259Y-92094364D01*
X166849062Y-91962058D01*
X166877000Y-91821603D01*
X166877000Y-91678397D01*
X166849062Y-91537942D01*
X166794259Y-91405636D01*
X166714698Y-91286564D01*
X166613436Y-91185302D01*
X166494364Y-91105741D01*
X166362058Y-91050938D01*
X166248736Y-91028397D01*
X169123000Y-91028397D01*
X169123000Y-91171603D01*
X169150938Y-91312058D01*
X169205741Y-91444364D01*
X169285302Y-91563436D01*
X169386564Y-91664698D01*
X169505636Y-91744259D01*
X169637942Y-91799062D01*
X169778397Y-91827000D01*
X169921603Y-91827000D01*
X170062058Y-91799062D01*
X170194364Y-91744259D01*
X170313436Y-91664698D01*
X170414698Y-91563436D01*
X170494259Y-91444364D01*
X170549062Y-91312058D01*
X170577000Y-91171603D01*
X170577000Y-91028397D01*
X170549062Y-90887942D01*
X170494259Y-90755636D01*
X170491914Y-90752126D01*
X170587217Y-90815806D01*
X170765020Y-90889454D01*
X170953774Y-90927000D01*
X171146226Y-90927000D01*
X171334980Y-90889454D01*
X171512783Y-90815806D01*
X171670869Y-90710176D01*
X171705741Y-90794364D01*
X171785302Y-90913436D01*
X171886564Y-91014698D01*
X172005636Y-91094259D01*
X172137942Y-91149062D01*
X172278397Y-91177000D01*
X172421603Y-91177000D01*
X172562058Y-91149062D01*
X172694364Y-91094259D01*
X172813436Y-91014698D01*
X172914698Y-90913436D01*
X172994259Y-90794364D01*
X173049062Y-90662058D01*
X173077000Y-90521603D01*
X173077000Y-90378397D01*
X173049062Y-90237942D01*
X172994259Y-90105636D01*
X172914698Y-89986564D01*
X172813436Y-89885302D01*
X172694364Y-89805741D01*
X172562058Y-89750938D01*
X172421603Y-89723000D01*
X172278397Y-89723000D01*
X172137942Y-89750938D01*
X172016547Y-89801222D01*
X171989454Y-89665020D01*
X171915806Y-89487217D01*
X171808885Y-89327199D01*
X171672801Y-89191115D01*
X171512783Y-89084194D01*
X171334980Y-89010546D01*
X171146226Y-88973000D01*
X170953774Y-88973000D01*
X170765020Y-89010546D01*
X170587217Y-89084194D01*
X170427199Y-89191115D01*
X170291115Y-89327199D01*
X170184194Y-89487217D01*
X170110546Y-89665020D01*
X170073000Y-89853774D01*
X170073000Y-90046226D01*
X170110546Y-90234980D01*
X170184194Y-90412783D01*
X170227846Y-90478113D01*
X170194364Y-90455741D01*
X170062058Y-90400938D01*
X169921603Y-90373000D01*
X169778397Y-90373000D01*
X169637942Y-90400938D01*
X169505636Y-90455741D01*
X169386564Y-90535302D01*
X169285302Y-90636564D01*
X169205741Y-90755636D01*
X169150938Y-90887942D01*
X169123000Y-91028397D01*
X166248736Y-91028397D01*
X166221603Y-91023000D01*
X166094530Y-91023000D01*
X166099062Y-91012058D01*
X166127000Y-90871603D01*
X166127000Y-90728397D01*
X166099062Y-90587942D01*
X166044259Y-90455636D01*
X165964698Y-90336564D01*
X165863436Y-90235302D01*
X165744364Y-90155741D01*
X165612058Y-90100938D01*
X165471603Y-90073000D01*
X165328397Y-90073000D01*
X165187942Y-90100938D01*
X165177000Y-90105470D01*
X165177000Y-85678397D01*
X167623000Y-85678397D01*
X167623000Y-85821603D01*
X167650938Y-85962058D01*
X167705741Y-86094364D01*
X167785302Y-86213436D01*
X167886564Y-86314698D01*
X168005636Y-86394259D01*
X168137942Y-86449062D01*
X168278397Y-86477000D01*
X168421603Y-86477000D01*
X168562058Y-86449062D01*
X168694364Y-86394259D01*
X168813436Y-86314698D01*
X168914698Y-86213436D01*
X168994259Y-86094364D01*
X169049062Y-85962058D01*
X169077000Y-85821603D01*
X169077000Y-85678397D01*
X169049062Y-85537942D01*
X168994259Y-85405636D01*
X168914698Y-85286564D01*
X168813436Y-85185302D01*
X168694364Y-85105741D01*
X168562058Y-85050938D01*
X168421603Y-85023000D01*
X168278397Y-85023000D01*
X168137942Y-85050938D01*
X168005636Y-85105741D01*
X167886564Y-85185302D01*
X167785302Y-85286564D01*
X167705741Y-85405636D01*
X167650938Y-85537942D01*
X167623000Y-85678397D01*
X165177000Y-85678397D01*
X165177000Y-83078397D01*
X173523000Y-83078397D01*
X173523000Y-83221603D01*
X173550938Y-83362058D01*
X173605741Y-83494364D01*
X173685302Y-83613436D01*
X173786564Y-83714698D01*
X173905636Y-83794259D01*
X174037942Y-83849062D01*
X174178397Y-83877000D01*
X174321603Y-83877000D01*
X174462058Y-83849062D01*
X174594364Y-83794259D01*
X174713436Y-83714698D01*
X174814698Y-83613436D01*
X174894259Y-83494364D01*
X174949062Y-83362058D01*
X174977000Y-83221603D01*
X174977000Y-83078397D01*
X174949062Y-82937942D01*
X174894259Y-82805636D01*
X174814698Y-82686564D01*
X174713436Y-82585302D01*
X174594364Y-82505741D01*
X174462058Y-82450938D01*
X174321603Y-82423000D01*
X174178397Y-82423000D01*
X174037942Y-82450938D01*
X173905636Y-82505741D01*
X173786564Y-82585302D01*
X173685302Y-82686564D01*
X173605741Y-82805636D01*
X173550938Y-82937942D01*
X173523000Y-83078397D01*
X165177000Y-83078397D01*
X165177000Y-81678397D01*
X168323000Y-81678397D01*
X168323000Y-81821603D01*
X168350938Y-81962058D01*
X168405741Y-82094364D01*
X168485302Y-82213436D01*
X168586564Y-82314698D01*
X168705636Y-82394259D01*
X168837942Y-82449062D01*
X168978397Y-82477000D01*
X169121603Y-82477000D01*
X169262058Y-82449062D01*
X169394364Y-82394259D01*
X169513436Y-82314698D01*
X169614698Y-82213436D01*
X169694259Y-82094364D01*
X169749062Y-81962058D01*
X169777000Y-81821603D01*
X169777000Y-81678397D01*
X169749062Y-81537942D01*
X169694259Y-81405636D01*
X169614698Y-81286564D01*
X169513436Y-81185302D01*
X169394364Y-81105741D01*
X169262058Y-81050938D01*
X169121603Y-81023000D01*
X168978397Y-81023000D01*
X168837942Y-81050938D01*
X168705636Y-81105741D01*
X168586564Y-81185302D01*
X168485302Y-81286564D01*
X168405741Y-81405636D01*
X168350938Y-81537942D01*
X168323000Y-81678397D01*
X165177000Y-81678397D01*
X165177000Y-80778397D01*
X165723000Y-80778397D01*
X165723000Y-80921603D01*
X165750938Y-81062058D01*
X165805741Y-81194364D01*
X165885302Y-81313436D01*
X165986564Y-81414698D01*
X166105636Y-81494259D01*
X166237942Y-81549062D01*
X166378397Y-81577000D01*
X166521603Y-81577000D01*
X166662058Y-81549062D01*
X166794364Y-81494259D01*
X166913436Y-81414698D01*
X167014698Y-81313436D01*
X167094259Y-81194364D01*
X167149062Y-81062058D01*
X167177000Y-80921603D01*
X167177000Y-80778397D01*
X167149062Y-80637942D01*
X167094259Y-80505636D01*
X167014698Y-80386564D01*
X166913436Y-80285302D01*
X166794364Y-80205741D01*
X166662058Y-80150938D01*
X166521603Y-80123000D01*
X166378397Y-80123000D01*
X166237942Y-80150938D01*
X166105636Y-80205741D01*
X165986564Y-80285302D01*
X165885302Y-80386564D01*
X165805741Y-80505636D01*
X165750938Y-80637942D01*
X165723000Y-80778397D01*
X165177000Y-80778397D01*
X165177000Y-75358222D01*
X165763200Y-75358666D01*
G04 #@! TA.AperFunction,Conductor*
D26*
G36*
X165763200Y-75358666D02*
G01*
X165735302Y-75386564D01*
X165655741Y-75505636D01*
X165600938Y-75637942D01*
X165573000Y-75778397D01*
X165573000Y-75921603D01*
X165600938Y-76062058D01*
X165655741Y-76194364D01*
X165735302Y-76313436D01*
X165836564Y-76414698D01*
X165955636Y-76494259D01*
X166087942Y-76549062D01*
X166228397Y-76577000D01*
X166371603Y-76577000D01*
X166512058Y-76549062D01*
X166644364Y-76494259D01*
X166763436Y-76414698D01*
X166864698Y-76313436D01*
X166944259Y-76194364D01*
X166999062Y-76062058D01*
X167027000Y-75921603D01*
X167027000Y-75778397D01*
X166999062Y-75637942D01*
X166944259Y-75505636D01*
X166864698Y-75386564D01*
X166837612Y-75359478D01*
X170429546Y-75362195D01*
X170279339Y-75424413D01*
X169701668Y-75810400D01*
X169210400Y-76301668D01*
X168824413Y-76879339D01*
X168558540Y-77521212D01*
X168423000Y-78202621D01*
X168423000Y-78897379D01*
X168558540Y-79578788D01*
X168824413Y-80220661D01*
X169210400Y-80798332D01*
X169701668Y-81289600D01*
X170279339Y-81675587D01*
X170921212Y-81941460D01*
X171602621Y-82077000D01*
X172297379Y-82077000D01*
X172978788Y-81941460D01*
X173620661Y-81675587D01*
X174198332Y-81289600D01*
X174689600Y-80798332D01*
X175075587Y-80220661D01*
X175098000Y-80166551D01*
X175098000Y-88162535D01*
X175077475Y-88137525D01*
X174946218Y-88029806D01*
X174796469Y-87949763D01*
X174633981Y-87900473D01*
X174507339Y-87888000D01*
X173592661Y-87888000D01*
X173466019Y-87900473D01*
X173303531Y-87949763D01*
X173153782Y-88029806D01*
X173022525Y-88137525D01*
X172914806Y-88268782D01*
X172834763Y-88418531D01*
X172785473Y-88581019D01*
X172768830Y-88750000D01*
X172785473Y-88918981D01*
X172834763Y-89081469D01*
X172914806Y-89231218D01*
X173022525Y-89362475D01*
X173153782Y-89470194D01*
X173303531Y-89550237D01*
X173466019Y-89599527D01*
X173592661Y-89612000D01*
X174507339Y-89612000D01*
X174633981Y-89599527D01*
X174796469Y-89550237D01*
X174946218Y-89470194D01*
X175077475Y-89362475D01*
X175098000Y-89337465D01*
X175098000Y-95492741D01*
X175085194Y-95468782D01*
X174977475Y-95337525D01*
X174846218Y-95229806D01*
X174696469Y-95149763D01*
X174533981Y-95100473D01*
X174407339Y-95088000D01*
X173492661Y-95088000D01*
X173366019Y-95100473D01*
X173203531Y-95149763D01*
X173053782Y-95229806D01*
X172922525Y-95337525D01*
X172814806Y-95468782D01*
X172734763Y-95618531D01*
X172685473Y-95781019D01*
X172668830Y-95950000D01*
X172685473Y-96118981D01*
X172734763Y-96281469D01*
X172814806Y-96431218D01*
X172922525Y-96562475D01*
X173053782Y-96670194D01*
X173203531Y-96750237D01*
X173366019Y-96799527D01*
X173492661Y-96812000D01*
X174407339Y-96812000D01*
X174533981Y-96799527D01*
X174696469Y-96750237D01*
X174846218Y-96670194D01*
X174977475Y-96562475D01*
X175085194Y-96431218D01*
X175098000Y-96407259D01*
X175098001Y-118623000D01*
X172397580Y-118623000D01*
X171403855Y-117629276D01*
X171388921Y-117611079D01*
X171316289Y-117551471D01*
X171233423Y-117507178D01*
X171143508Y-117479903D01*
X171073423Y-117473000D01*
X171073415Y-117473000D01*
X171050000Y-117470694D01*
X171026585Y-117473000D01*
X165177000Y-117473000D01*
X165177000Y-116300000D01*
X171618273Y-116300000D01*
X171637137Y-116491525D01*
X171693003Y-116675691D01*
X171783724Y-116845418D01*
X171905814Y-116994186D01*
X172054582Y-117116276D01*
X172224309Y-117206997D01*
X172408475Y-117262863D01*
X172552007Y-117277000D01*
X173947993Y-117277000D01*
X174091525Y-117262863D01*
X174275691Y-117206997D01*
X174445418Y-117116276D01*
X174594186Y-116994186D01*
X174716276Y-116845418D01*
X174806997Y-116675691D01*
X174862863Y-116491525D01*
X174881727Y-116300000D01*
X174862863Y-116108475D01*
X174806997Y-115924309D01*
X174716276Y-115754582D01*
X174594186Y-115605814D01*
X174445418Y-115483724D01*
X174275691Y-115393003D01*
X174091525Y-115337137D01*
X173947993Y-115323000D01*
X172552007Y-115323000D01*
X172408475Y-115337137D01*
X172224309Y-115393003D01*
X172054582Y-115483724D01*
X171905814Y-115605814D01*
X171783724Y-115754582D01*
X171693003Y-115924309D01*
X171637137Y-116108475D01*
X171618273Y-116300000D01*
X165177000Y-116300000D01*
X165177000Y-113855014D01*
X165313678Y-114184985D01*
X165552800Y-114542856D01*
X165857144Y-114847200D01*
X166215015Y-115086322D01*
X166612659Y-115251031D01*
X167034796Y-115335000D01*
X167465204Y-115335000D01*
X167887341Y-115251031D01*
X168284985Y-115086322D01*
X168642856Y-114847200D01*
X168947200Y-114542856D01*
X169186322Y-114184985D01*
X169351031Y-113787341D01*
X169435000Y-113365204D01*
X169435000Y-112934796D01*
X169351031Y-112512659D01*
X169186322Y-112115015D01*
X168947200Y-111757144D01*
X168642856Y-111452800D01*
X168284985Y-111213678D01*
X167887341Y-111048969D01*
X167465204Y-110965000D01*
X167034796Y-110965000D01*
X166612659Y-111048969D01*
X166215015Y-111213678D01*
X165857144Y-111452800D01*
X165552800Y-111757144D01*
X165313678Y-112115015D01*
X165177000Y-112444986D01*
X165177000Y-103850000D01*
X165174560Y-103825224D01*
X165167333Y-103801399D01*
X165155597Y-103779443D01*
X165139803Y-103760197D01*
X165120557Y-103744403D01*
X165098601Y-103732667D01*
X165074776Y-103725440D01*
X165050000Y-103723000D01*
X161477000Y-103723000D01*
X161477000Y-102800000D01*
X171618273Y-102800000D01*
X171637137Y-102991525D01*
X171693003Y-103175691D01*
X171783724Y-103345418D01*
X171905814Y-103494186D01*
X172054582Y-103616276D01*
X172224309Y-103706997D01*
X172408475Y-103762863D01*
X172552007Y-103777000D01*
X173947993Y-103777000D01*
X174091525Y-103762863D01*
X174275691Y-103706997D01*
X174445418Y-103616276D01*
X174594186Y-103494186D01*
X174716276Y-103345418D01*
X174806997Y-103175691D01*
X174862863Y-102991525D01*
X174881727Y-102800000D01*
X174862863Y-102608475D01*
X174806997Y-102424309D01*
X174716276Y-102254582D01*
X174594186Y-102105814D01*
X174445418Y-101983724D01*
X174275691Y-101893003D01*
X174091525Y-101837137D01*
X173947993Y-101823000D01*
X172552007Y-101823000D01*
X172408475Y-101837137D01*
X172224309Y-101893003D01*
X172054582Y-101983724D01*
X171905814Y-102105814D01*
X171783724Y-102254582D01*
X171693003Y-102424309D01*
X171637137Y-102608475D01*
X171618273Y-102800000D01*
X161477000Y-102800000D01*
X161477000Y-101678397D01*
X170323000Y-101678397D01*
X170323000Y-101821603D01*
X170350938Y-101962058D01*
X170405741Y-102094364D01*
X170485302Y-102213436D01*
X170586564Y-102314698D01*
X170705636Y-102394259D01*
X170837942Y-102449062D01*
X170978397Y-102477000D01*
X171121603Y-102477000D01*
X171262058Y-102449062D01*
X171394364Y-102394259D01*
X171513436Y-102314698D01*
X171614698Y-102213436D01*
X171694259Y-102094364D01*
X171749062Y-101962058D01*
X171777000Y-101821603D01*
X171777000Y-101678397D01*
X171749062Y-101537942D01*
X171694259Y-101405636D01*
X171614698Y-101286564D01*
X171513436Y-101185302D01*
X171394364Y-101105741D01*
X171262058Y-101050938D01*
X171121603Y-101023000D01*
X170978397Y-101023000D01*
X170837942Y-101050938D01*
X170705636Y-101105741D01*
X170586564Y-101185302D01*
X170485302Y-101286564D01*
X170405741Y-101405636D01*
X170350938Y-101537942D01*
X170323000Y-101678397D01*
X161477000Y-101678397D01*
X161477000Y-100577000D01*
X165050000Y-100577000D01*
X165074776Y-100574560D01*
X165098601Y-100567333D01*
X165120557Y-100555597D01*
X165139803Y-100539803D01*
X165155597Y-100520557D01*
X165167333Y-100498601D01*
X165174560Y-100474776D01*
X165177000Y-100450000D01*
X165177000Y-98341716D01*
X165255636Y-98394259D01*
X165387942Y-98449062D01*
X165528397Y-98477000D01*
X165671603Y-98477000D01*
X165812058Y-98449062D01*
X165853473Y-98431907D01*
X172539964Y-98431907D01*
X172539964Y-98575113D01*
X172567902Y-98715568D01*
X172622705Y-98847874D01*
X172702266Y-98966946D01*
X172803528Y-99068208D01*
X172922600Y-99147769D01*
X173054906Y-99202572D01*
X173195361Y-99230510D01*
X173338567Y-99230510D01*
X173479022Y-99202572D01*
X173611328Y-99147769D01*
X173730400Y-99068208D01*
X173831662Y-98966946D01*
X173911223Y-98847874D01*
X173966026Y-98715568D01*
X173993964Y-98575113D01*
X173993964Y-98431907D01*
X173966026Y-98291452D01*
X173911223Y-98159146D01*
X173831662Y-98040074D01*
X173730400Y-97938812D01*
X173611328Y-97859251D01*
X173479022Y-97804448D01*
X173338567Y-97776510D01*
X173195361Y-97776510D01*
X173054906Y-97804448D01*
X172922600Y-97859251D01*
X172803528Y-97938812D01*
X172702266Y-98040074D01*
X172622705Y-98159146D01*
X172567902Y-98291452D01*
X172539964Y-98431907D01*
X165853473Y-98431907D01*
X165944364Y-98394259D01*
X166063436Y-98314698D01*
X166164698Y-98213436D01*
X166244259Y-98094364D01*
X166299062Y-97962058D01*
X166327000Y-97821603D01*
X166327000Y-97678397D01*
X166299062Y-97537942D01*
X166244259Y-97405636D01*
X166164698Y-97286564D01*
X166063436Y-97185302D01*
X165944364Y-97105741D01*
X165812058Y-97050938D01*
X165671603Y-97023000D01*
X165528397Y-97023000D01*
X165387942Y-97050938D01*
X165255636Y-97105741D01*
X165177000Y-97158284D01*
X165177000Y-95678391D01*
X166823000Y-95678391D01*
X166823000Y-95821597D01*
X166850938Y-95962052D01*
X166905741Y-96094358D01*
X166985302Y-96213430D01*
X167086564Y-96314692D01*
X167205636Y-96394253D01*
X167337942Y-96449056D01*
X167478397Y-96476994D01*
X167621603Y-96476994D01*
X167762058Y-96449056D01*
X167894364Y-96394253D01*
X168013436Y-96314692D01*
X168114698Y-96213430D01*
X168194259Y-96094358D01*
X168249062Y-95962052D01*
X168277000Y-95821597D01*
X168277000Y-95678391D01*
X168249062Y-95537936D01*
X168194259Y-95405630D01*
X168114698Y-95286558D01*
X168013436Y-95185296D01*
X167894364Y-95105735D01*
X167762058Y-95050932D01*
X167621603Y-95022994D01*
X167478397Y-95022994D01*
X167337942Y-95050932D01*
X167205636Y-95105735D01*
X167086564Y-95185296D01*
X166985302Y-95286558D01*
X166905741Y-95405630D01*
X166850938Y-95537936D01*
X166823000Y-95678391D01*
X165177000Y-95678391D01*
X165177000Y-94653774D01*
X170073000Y-94653774D01*
X170073000Y-94846226D01*
X170110546Y-95034980D01*
X170184194Y-95212783D01*
X170291115Y-95372801D01*
X170427199Y-95508885D01*
X170587217Y-95615806D01*
X170765020Y-95689454D01*
X170953774Y-95727000D01*
X171146226Y-95727000D01*
X171334980Y-95689454D01*
X171512783Y-95615806D01*
X171672801Y-95508885D01*
X171808885Y-95372801D01*
X171915806Y-95212783D01*
X171989454Y-95034980D01*
X172027000Y-94846226D01*
X172027000Y-94653774D01*
X171989454Y-94465020D01*
X171915806Y-94287217D01*
X171808885Y-94127199D01*
X171672801Y-93991115D01*
X171512783Y-93884194D01*
X171334980Y-93810546D01*
X171146226Y-93773000D01*
X170953774Y-93773000D01*
X170765020Y-93810546D01*
X170587217Y-93884194D01*
X170427199Y-93991115D01*
X170291115Y-94127199D01*
X170184194Y-94287217D01*
X170110546Y-94465020D01*
X170073000Y-94653774D01*
X165177000Y-94653774D01*
X165177000Y-93356831D01*
X165278397Y-93377000D01*
X165421603Y-93377000D01*
X165562058Y-93349062D01*
X165694364Y-93294259D01*
X165813436Y-93214698D01*
X165914698Y-93113436D01*
X165994259Y-92994364D01*
X166049062Y-92862058D01*
X166077000Y-92721603D01*
X166077000Y-92578397D01*
X166055943Y-92472534D01*
X166078397Y-92477000D01*
X166221603Y-92477000D01*
X166362058Y-92449062D01*
X166494364Y-92394259D01*
X166613436Y-92314698D01*
X166714698Y-92213436D01*
X166794259Y-92094364D01*
X166849062Y-91962058D01*
X166877000Y-91821603D01*
X166877000Y-91678397D01*
X166849062Y-91537942D01*
X166794259Y-91405636D01*
X166714698Y-91286564D01*
X166613436Y-91185302D01*
X166494364Y-91105741D01*
X166362058Y-91050938D01*
X166248736Y-91028397D01*
X169123000Y-91028397D01*
X169123000Y-91171603D01*
X169150938Y-91312058D01*
X169205741Y-91444364D01*
X169285302Y-91563436D01*
X169386564Y-91664698D01*
X169505636Y-91744259D01*
X169637942Y-91799062D01*
X169778397Y-91827000D01*
X169921603Y-91827000D01*
X170062058Y-91799062D01*
X170194364Y-91744259D01*
X170313436Y-91664698D01*
X170414698Y-91563436D01*
X170494259Y-91444364D01*
X170549062Y-91312058D01*
X170577000Y-91171603D01*
X170577000Y-91028397D01*
X170549062Y-90887942D01*
X170494259Y-90755636D01*
X170491914Y-90752126D01*
X170587217Y-90815806D01*
X170765020Y-90889454D01*
X170953774Y-90927000D01*
X171146226Y-90927000D01*
X171334980Y-90889454D01*
X171512783Y-90815806D01*
X171670869Y-90710176D01*
X171705741Y-90794364D01*
X171785302Y-90913436D01*
X171886564Y-91014698D01*
X172005636Y-91094259D01*
X172137942Y-91149062D01*
X172278397Y-91177000D01*
X172421603Y-91177000D01*
X172562058Y-91149062D01*
X172694364Y-91094259D01*
X172813436Y-91014698D01*
X172914698Y-90913436D01*
X172994259Y-90794364D01*
X173049062Y-90662058D01*
X173077000Y-90521603D01*
X173077000Y-90378397D01*
X173049062Y-90237942D01*
X172994259Y-90105636D01*
X172914698Y-89986564D01*
X172813436Y-89885302D01*
X172694364Y-89805741D01*
X172562058Y-89750938D01*
X172421603Y-89723000D01*
X172278397Y-89723000D01*
X172137942Y-89750938D01*
X172016547Y-89801222D01*
X171989454Y-89665020D01*
X171915806Y-89487217D01*
X171808885Y-89327199D01*
X171672801Y-89191115D01*
X171512783Y-89084194D01*
X171334980Y-89010546D01*
X171146226Y-88973000D01*
X170953774Y-88973000D01*
X170765020Y-89010546D01*
X170587217Y-89084194D01*
X170427199Y-89191115D01*
X170291115Y-89327199D01*
X170184194Y-89487217D01*
X170110546Y-89665020D01*
X170073000Y-89853774D01*
X170073000Y-90046226D01*
X170110546Y-90234980D01*
X170184194Y-90412783D01*
X170227846Y-90478113D01*
X170194364Y-90455741D01*
X170062058Y-90400938D01*
X169921603Y-90373000D01*
X169778397Y-90373000D01*
X169637942Y-90400938D01*
X169505636Y-90455741D01*
X169386564Y-90535302D01*
X169285302Y-90636564D01*
X169205741Y-90755636D01*
X169150938Y-90887942D01*
X169123000Y-91028397D01*
X166248736Y-91028397D01*
X166221603Y-91023000D01*
X166094530Y-91023000D01*
X166099062Y-91012058D01*
X166127000Y-90871603D01*
X166127000Y-90728397D01*
X166099062Y-90587942D01*
X166044259Y-90455636D01*
X165964698Y-90336564D01*
X165863436Y-90235302D01*
X165744364Y-90155741D01*
X165612058Y-90100938D01*
X165471603Y-90073000D01*
X165328397Y-90073000D01*
X165187942Y-90100938D01*
X165177000Y-90105470D01*
X165177000Y-85678397D01*
X167623000Y-85678397D01*
X167623000Y-85821603D01*
X167650938Y-85962058D01*
X167705741Y-86094364D01*
X167785302Y-86213436D01*
X167886564Y-86314698D01*
X168005636Y-86394259D01*
X168137942Y-86449062D01*
X168278397Y-86477000D01*
X168421603Y-86477000D01*
X168562058Y-86449062D01*
X168694364Y-86394259D01*
X168813436Y-86314698D01*
X168914698Y-86213436D01*
X168994259Y-86094364D01*
X169049062Y-85962058D01*
X169077000Y-85821603D01*
X169077000Y-85678397D01*
X169049062Y-85537942D01*
X168994259Y-85405636D01*
X168914698Y-85286564D01*
X168813436Y-85185302D01*
X168694364Y-85105741D01*
X168562058Y-85050938D01*
X168421603Y-85023000D01*
X168278397Y-85023000D01*
X168137942Y-85050938D01*
X168005636Y-85105741D01*
X167886564Y-85185302D01*
X167785302Y-85286564D01*
X167705741Y-85405636D01*
X167650938Y-85537942D01*
X167623000Y-85678397D01*
X165177000Y-85678397D01*
X165177000Y-83078397D01*
X173523000Y-83078397D01*
X173523000Y-83221603D01*
X173550938Y-83362058D01*
X173605741Y-83494364D01*
X173685302Y-83613436D01*
X173786564Y-83714698D01*
X173905636Y-83794259D01*
X174037942Y-83849062D01*
X174178397Y-83877000D01*
X174321603Y-83877000D01*
X174462058Y-83849062D01*
X174594364Y-83794259D01*
X174713436Y-83714698D01*
X174814698Y-83613436D01*
X174894259Y-83494364D01*
X174949062Y-83362058D01*
X174977000Y-83221603D01*
X174977000Y-83078397D01*
X174949062Y-82937942D01*
X174894259Y-82805636D01*
X174814698Y-82686564D01*
X174713436Y-82585302D01*
X174594364Y-82505741D01*
X174462058Y-82450938D01*
X174321603Y-82423000D01*
X174178397Y-82423000D01*
X174037942Y-82450938D01*
X173905636Y-82505741D01*
X173786564Y-82585302D01*
X173685302Y-82686564D01*
X173605741Y-82805636D01*
X173550938Y-82937942D01*
X173523000Y-83078397D01*
X165177000Y-83078397D01*
X165177000Y-81678397D01*
X168323000Y-81678397D01*
X168323000Y-81821603D01*
X168350938Y-81962058D01*
X168405741Y-82094364D01*
X168485302Y-82213436D01*
X168586564Y-82314698D01*
X168705636Y-82394259D01*
X168837942Y-82449062D01*
X168978397Y-82477000D01*
X169121603Y-82477000D01*
X169262058Y-82449062D01*
X169394364Y-82394259D01*
X169513436Y-82314698D01*
X169614698Y-82213436D01*
X169694259Y-82094364D01*
X169749062Y-81962058D01*
X169777000Y-81821603D01*
X169777000Y-81678397D01*
X169749062Y-81537942D01*
X169694259Y-81405636D01*
X169614698Y-81286564D01*
X169513436Y-81185302D01*
X169394364Y-81105741D01*
X169262058Y-81050938D01*
X169121603Y-81023000D01*
X168978397Y-81023000D01*
X168837942Y-81050938D01*
X168705636Y-81105741D01*
X168586564Y-81185302D01*
X168485302Y-81286564D01*
X168405741Y-81405636D01*
X168350938Y-81537942D01*
X168323000Y-81678397D01*
X165177000Y-81678397D01*
X165177000Y-80778397D01*
X165723000Y-80778397D01*
X165723000Y-80921603D01*
X165750938Y-81062058D01*
X165805741Y-81194364D01*
X165885302Y-81313436D01*
X165986564Y-81414698D01*
X166105636Y-81494259D01*
X166237942Y-81549062D01*
X166378397Y-81577000D01*
X166521603Y-81577000D01*
X166662058Y-81549062D01*
X166794364Y-81494259D01*
X166913436Y-81414698D01*
X167014698Y-81313436D01*
X167094259Y-81194364D01*
X167149062Y-81062058D01*
X167177000Y-80921603D01*
X167177000Y-80778397D01*
X167149062Y-80637942D01*
X167094259Y-80505636D01*
X167014698Y-80386564D01*
X166913436Y-80285302D01*
X166794364Y-80205741D01*
X166662058Y-80150938D01*
X166521603Y-80123000D01*
X166378397Y-80123000D01*
X166237942Y-80150938D01*
X166105636Y-80205741D01*
X165986564Y-80285302D01*
X165885302Y-80386564D01*
X165805741Y-80505636D01*
X165750938Y-80637942D01*
X165723000Y-80778397D01*
X165177000Y-80778397D01*
X165177000Y-75358222D01*
X165763200Y-75358666D01*
G37*
G04 #@! TD.AperFunction*
M02*
