G04 #@! TF.GenerationSoftware,KiCad,Pcbnew,(5.1.5-0-10_14)*
G04 #@! TF.CreationDate,2020-07-17T10:51:53+10:00*
G04 #@! TF.ProjectId,esp32_battery_isolator,65737033-325f-4626-9174-746572795f69,rev?*
G04 #@! TF.SameCoordinates,Original*
G04 #@! TF.FileFunction,Copper,L2,Bot*
G04 #@! TF.FilePolarity,Positive*
%FSLAX46Y46*%
G04 Gerber Fmt 4.6, Leading zero omitted, Abs format (unit mm)*
G04 Created by KiCad (PCBNEW (5.1.5-0-10_14)) date 2020-07-17 10:51:53*
%MOMM*%
%LPD*%
G04 APERTURE LIST*
%ADD10C,10.000000*%
%ADD11C,0.100000*%
%ADD12C,6.500000*%
%ADD13C,0.800000*%
%ADD14C,6.400000*%
%ADD15R,1.700000X1.700000*%
%ADD16O,1.700000X1.700000*%
%ADD17C,1.000000*%
%ADD18C,0.250000*%
%ADD19C,0.300000*%
%ADD20C,0.254000*%
G04 APERTURE END LIST*
D10*
X110000000Y-111000000D03*
G04 #@! TA.AperFunction,ComponentPad*
D11*
G36*
X112470539Y-117510834D02*
G01*
X112688953Y-117543233D01*
X112903141Y-117596884D01*
X113111038Y-117671271D01*
X113310643Y-117765677D01*
X113500033Y-117879193D01*
X113677385Y-118010726D01*
X113840990Y-118159010D01*
X113989274Y-118322615D01*
X114120807Y-118499967D01*
X114234323Y-118689357D01*
X114328729Y-118888962D01*
X114403116Y-119096859D01*
X114456767Y-119311047D01*
X114489166Y-119529461D01*
X114500000Y-119750000D01*
X114500000Y-124250000D01*
X114489166Y-124470539D01*
X114456767Y-124688953D01*
X114403116Y-124903141D01*
X114328729Y-125111038D01*
X114234323Y-125310643D01*
X114120807Y-125500033D01*
X113989274Y-125677385D01*
X113840990Y-125840990D01*
X113677385Y-125989274D01*
X113500033Y-126120807D01*
X113310643Y-126234323D01*
X113111038Y-126328729D01*
X112903141Y-126403116D01*
X112688953Y-126456767D01*
X112470539Y-126489166D01*
X112250000Y-126500000D01*
X107750000Y-126500000D01*
X107529461Y-126489166D01*
X107311047Y-126456767D01*
X107096859Y-126403116D01*
X106888962Y-126328729D01*
X106689357Y-126234323D01*
X106499967Y-126120807D01*
X106322615Y-125989274D01*
X106159010Y-125840990D01*
X106010726Y-125677385D01*
X105879193Y-125500033D01*
X105765677Y-125310643D01*
X105671271Y-125111038D01*
X105596884Y-124903141D01*
X105543233Y-124688953D01*
X105510834Y-124470539D01*
X105500000Y-124250000D01*
X105500000Y-119750000D01*
X105510834Y-119529461D01*
X105543233Y-119311047D01*
X105596884Y-119096859D01*
X105671271Y-118888962D01*
X105765677Y-118689357D01*
X105879193Y-118499967D01*
X106010726Y-118322615D01*
X106159010Y-118159010D01*
X106322615Y-118010726D01*
X106499967Y-117879193D01*
X106689357Y-117765677D01*
X106888962Y-117671271D01*
X107096859Y-117596884D01*
X107311047Y-117543233D01*
X107529461Y-117510834D01*
X107750000Y-117500000D01*
X112250000Y-117500000D01*
X112470539Y-117510834D01*
G37*
G04 #@! TD.AperFunction*
D12*
X148600000Y-122300000D03*
G04 #@! TA.AperFunction,ComponentPad*
D11*
G36*
X150384278Y-126257825D02*
G01*
X150542022Y-126281224D01*
X150696713Y-126319972D01*
X150846861Y-126373696D01*
X150991020Y-126441878D01*
X151127802Y-126523862D01*
X151255889Y-126618858D01*
X151374049Y-126725951D01*
X151481142Y-126844111D01*
X151576138Y-126972198D01*
X151658122Y-127108980D01*
X151726304Y-127253139D01*
X151780028Y-127403287D01*
X151818776Y-127557978D01*
X151842175Y-127715722D01*
X151850000Y-127875000D01*
X151850000Y-131125000D01*
X151842175Y-131284278D01*
X151818776Y-131442022D01*
X151780028Y-131596713D01*
X151726304Y-131746861D01*
X151658122Y-131891020D01*
X151576138Y-132027802D01*
X151481142Y-132155889D01*
X151374049Y-132274049D01*
X151255889Y-132381142D01*
X151127802Y-132476138D01*
X150991020Y-132558122D01*
X150846861Y-132626304D01*
X150696713Y-132680028D01*
X150542022Y-132718776D01*
X150384278Y-132742175D01*
X150225000Y-132750000D01*
X146975000Y-132750000D01*
X146815722Y-132742175D01*
X146657978Y-132718776D01*
X146503287Y-132680028D01*
X146353139Y-132626304D01*
X146208980Y-132558122D01*
X146072198Y-132476138D01*
X145944111Y-132381142D01*
X145825951Y-132274049D01*
X145718858Y-132155889D01*
X145623862Y-132027802D01*
X145541878Y-131891020D01*
X145473696Y-131746861D01*
X145419972Y-131596713D01*
X145381224Y-131442022D01*
X145357825Y-131284278D01*
X145350000Y-131125000D01*
X145350000Y-127875000D01*
X145357825Y-127715722D01*
X145381224Y-127557978D01*
X145419972Y-127403287D01*
X145473696Y-127253139D01*
X145541878Y-127108980D01*
X145623862Y-126972198D01*
X145718858Y-126844111D01*
X145825951Y-126725951D01*
X145944111Y-126618858D01*
X146072198Y-126523862D01*
X146208980Y-126441878D01*
X146353139Y-126373696D01*
X146503287Y-126319972D01*
X146657978Y-126281224D01*
X146815722Y-126257825D01*
X146975000Y-126250000D01*
X150225000Y-126250000D01*
X150384278Y-126257825D01*
G37*
G04 #@! TD.AperFunction*
G04 #@! TA.AperFunction,ComponentPad*
G36*
X167884278Y-126257825D02*
G01*
X168042022Y-126281224D01*
X168196713Y-126319972D01*
X168346861Y-126373696D01*
X168491020Y-126441878D01*
X168627802Y-126523862D01*
X168755889Y-126618858D01*
X168874049Y-126725951D01*
X168981142Y-126844111D01*
X169076138Y-126972198D01*
X169158122Y-127108980D01*
X169226304Y-127253139D01*
X169280028Y-127403287D01*
X169318776Y-127557978D01*
X169342175Y-127715722D01*
X169350000Y-127875000D01*
X169350000Y-131125000D01*
X169342175Y-131284278D01*
X169318776Y-131442022D01*
X169280028Y-131596713D01*
X169226304Y-131746861D01*
X169158122Y-131891020D01*
X169076138Y-132027802D01*
X168981142Y-132155889D01*
X168874049Y-132274049D01*
X168755889Y-132381142D01*
X168627802Y-132476138D01*
X168491020Y-132558122D01*
X168346861Y-132626304D01*
X168196713Y-132680028D01*
X168042022Y-132718776D01*
X167884278Y-132742175D01*
X167725000Y-132750000D01*
X164475000Y-132750000D01*
X164315722Y-132742175D01*
X164157978Y-132718776D01*
X164003287Y-132680028D01*
X163853139Y-132626304D01*
X163708980Y-132558122D01*
X163572198Y-132476138D01*
X163444111Y-132381142D01*
X163325951Y-132274049D01*
X163218858Y-132155889D01*
X163123862Y-132027802D01*
X163041878Y-131891020D01*
X162973696Y-131746861D01*
X162919972Y-131596713D01*
X162881224Y-131442022D01*
X162857825Y-131284278D01*
X162850000Y-131125000D01*
X162850000Y-127875000D01*
X162857825Y-127715722D01*
X162881224Y-127557978D01*
X162919972Y-127403287D01*
X162973696Y-127253139D01*
X163041878Y-127108980D01*
X163123862Y-126972198D01*
X163218858Y-126844111D01*
X163325951Y-126725951D01*
X163444111Y-126618858D01*
X163572198Y-126523862D01*
X163708980Y-126441878D01*
X163853139Y-126373696D01*
X164003287Y-126319972D01*
X164157978Y-126281224D01*
X164315722Y-126257825D01*
X164475000Y-126250000D01*
X167725000Y-126250000D01*
X167884278Y-126257825D01*
G37*
G04 #@! TD.AperFunction*
D12*
X166100000Y-122300000D03*
D13*
X107497056Y-135302944D03*
X105800000Y-134600000D03*
X104102944Y-135302944D03*
X103400000Y-137000000D03*
X104102944Y-138697056D03*
X105800000Y-139400000D03*
X107497056Y-138697056D03*
X108200000Y-137000000D03*
D14*
X105800000Y-137000000D03*
D13*
X186897056Y-77302944D03*
X185200000Y-76600000D03*
X183502944Y-77302944D03*
X182800000Y-79000000D03*
X183502944Y-80697056D03*
X185200000Y-81400000D03*
X186897056Y-80697056D03*
X187600000Y-79000000D03*
D14*
X185200000Y-79000000D03*
X185200000Y-137000000D03*
D13*
X187600000Y-137000000D03*
X186897056Y-138697056D03*
X185200000Y-139400000D03*
X183502944Y-138697056D03*
X182800000Y-137000000D03*
X183502944Y-135302944D03*
X185200000Y-134600000D03*
X186897056Y-135302944D03*
X107497056Y-77302944D03*
X105800000Y-76600000D03*
X104102944Y-77302944D03*
X103400000Y-79000000D03*
X104102944Y-80697056D03*
X105800000Y-81400000D03*
X107497056Y-80697056D03*
X108200000Y-79000000D03*
D14*
X105800000Y-79000000D03*
G04 #@! TA.AperFunction,ComponentPad*
D11*
G36*
X132384278Y-126257825D02*
G01*
X132542022Y-126281224D01*
X132696713Y-126319972D01*
X132846861Y-126373696D01*
X132991020Y-126441878D01*
X133127802Y-126523862D01*
X133255889Y-126618858D01*
X133374049Y-126725951D01*
X133481142Y-126844111D01*
X133576138Y-126972198D01*
X133658122Y-127108980D01*
X133726304Y-127253139D01*
X133780028Y-127403287D01*
X133818776Y-127557978D01*
X133842175Y-127715722D01*
X133850000Y-127875000D01*
X133850000Y-131125000D01*
X133842175Y-131284278D01*
X133818776Y-131442022D01*
X133780028Y-131596713D01*
X133726304Y-131746861D01*
X133658122Y-131891020D01*
X133576138Y-132027802D01*
X133481142Y-132155889D01*
X133374049Y-132274049D01*
X133255889Y-132381142D01*
X133127802Y-132476138D01*
X132991020Y-132558122D01*
X132846861Y-132626304D01*
X132696713Y-132680028D01*
X132542022Y-132718776D01*
X132384278Y-132742175D01*
X132225000Y-132750000D01*
X128975000Y-132750000D01*
X128815722Y-132742175D01*
X128657978Y-132718776D01*
X128503287Y-132680028D01*
X128353139Y-132626304D01*
X128208980Y-132558122D01*
X128072198Y-132476138D01*
X127944111Y-132381142D01*
X127825951Y-132274049D01*
X127718858Y-132155889D01*
X127623862Y-132027802D01*
X127541878Y-131891020D01*
X127473696Y-131746861D01*
X127419972Y-131596713D01*
X127381224Y-131442022D01*
X127357825Y-131284278D01*
X127350000Y-131125000D01*
X127350000Y-127875000D01*
X127357825Y-127715722D01*
X127381224Y-127557978D01*
X127419972Y-127403287D01*
X127473696Y-127253139D01*
X127541878Y-127108980D01*
X127623862Y-126972198D01*
X127718858Y-126844111D01*
X127825951Y-126725951D01*
X127944111Y-126618858D01*
X128072198Y-126523862D01*
X128208980Y-126441878D01*
X128353139Y-126373696D01*
X128503287Y-126319972D01*
X128657978Y-126281224D01*
X128815722Y-126257825D01*
X128975000Y-126250000D01*
X132225000Y-126250000D01*
X132384278Y-126257825D01*
G37*
G04 #@! TD.AperFunction*
D12*
X130600000Y-122300000D03*
X183500000Y-120700000D03*
G04 #@! TA.AperFunction,ComponentPad*
D11*
G36*
X185147026Y-124657223D02*
G01*
X185292635Y-124678822D01*
X185435427Y-124714589D01*
X185574025Y-124764181D01*
X185707095Y-124827118D01*
X185833355Y-124902796D01*
X185951590Y-124990484D01*
X186060660Y-125089340D01*
X186159516Y-125198410D01*
X186247204Y-125316645D01*
X186322882Y-125442905D01*
X186385819Y-125575975D01*
X186435411Y-125714573D01*
X186471178Y-125857365D01*
X186492777Y-126002974D01*
X186500000Y-126150000D01*
X186500000Y-129650000D01*
X186492777Y-129797026D01*
X186471178Y-129942635D01*
X186435411Y-130085427D01*
X186385819Y-130224025D01*
X186322882Y-130357095D01*
X186247204Y-130483355D01*
X186159516Y-130601590D01*
X186060660Y-130710660D01*
X185951590Y-130809516D01*
X185833355Y-130897204D01*
X185707095Y-130972882D01*
X185574025Y-131035819D01*
X185435427Y-131085411D01*
X185292635Y-131121178D01*
X185147026Y-131142777D01*
X185000000Y-131150000D01*
X182000000Y-131150000D01*
X181852974Y-131142777D01*
X181707365Y-131121178D01*
X181564573Y-131085411D01*
X181425975Y-131035819D01*
X181292905Y-130972882D01*
X181166645Y-130897204D01*
X181048410Y-130809516D01*
X180939340Y-130710660D01*
X180840484Y-130601590D01*
X180752796Y-130483355D01*
X180677118Y-130357095D01*
X180614181Y-130224025D01*
X180564589Y-130085427D01*
X180528822Y-129942635D01*
X180507223Y-129797026D01*
X180500000Y-129650000D01*
X180500000Y-126150000D01*
X180507223Y-126002974D01*
X180528822Y-125857365D01*
X180564589Y-125714573D01*
X180614181Y-125575975D01*
X180677118Y-125442905D01*
X180752796Y-125316645D01*
X180840484Y-125198410D01*
X180939340Y-125089340D01*
X181048410Y-124990484D01*
X181166645Y-124902796D01*
X181292905Y-124827118D01*
X181425975Y-124764181D01*
X181564573Y-124714589D01*
X181707365Y-124678822D01*
X181852974Y-124657223D01*
X182000000Y-124650000D01*
X185000000Y-124650000D01*
X185147026Y-124657223D01*
G37*
G04 #@! TD.AperFunction*
D15*
X170000000Y-79000000D03*
D16*
X170000000Y-81540000D03*
X170000000Y-84080000D03*
X170000000Y-86620000D03*
X170000000Y-89160000D03*
X170000000Y-91700000D03*
D15*
X176800000Y-79100000D03*
D16*
X176800000Y-81640000D03*
X176800000Y-84180000D03*
X176800000Y-86720000D03*
D13*
X138300000Y-119800000D03*
X122700000Y-83700000D03*
D17*
X147100000Y-85000000D03*
X147100000Y-82500000D03*
X144100000Y-82500000D03*
X144100000Y-85000000D03*
D13*
X134250000Y-78500000D03*
X110000000Y-136000000D03*
X180000000Y-136000000D03*
X175000000Y-136000000D03*
X170000000Y-136000000D03*
X165000000Y-136000000D03*
X160000000Y-136000000D03*
X155000000Y-136000000D03*
X150000000Y-136000000D03*
X145000000Y-136000000D03*
X140000000Y-136000000D03*
X135000000Y-136000000D03*
X130000000Y-136000000D03*
X125000000Y-136000000D03*
X120000000Y-136000000D03*
X115000000Y-136000000D03*
X110000000Y-131000000D03*
X120000000Y-131000000D03*
X135000000Y-131000000D03*
X155000000Y-126000000D03*
X155000000Y-121000000D03*
X160000000Y-121000000D03*
X160000000Y-126000000D03*
X160000000Y-131000000D03*
X120000000Y-126000000D03*
X120000000Y-121000000D03*
X108000000Y-95000000D03*
X122000000Y-95000000D03*
X127000000Y-95000000D03*
X132000000Y-95000000D03*
X175000000Y-94000000D03*
X180900000Y-99100000D03*
X175000000Y-90000000D03*
X110000000Y-85000000D03*
X110000000Y-80000000D03*
X115700000Y-80100000D03*
X122000000Y-80000000D03*
X127000000Y-80000000D03*
X127300000Y-84500000D03*
X139000000Y-108250000D03*
X156500000Y-108500000D03*
X173900000Y-106900000D03*
X112500000Y-95000000D03*
X120200000Y-108000000D03*
X117500000Y-85600000D03*
X121250000Y-85600000D03*
X187500000Y-112100000D03*
X154100000Y-95700000D03*
X156400000Y-94100000D03*
X176400000Y-97900000D03*
X173100000Y-83800000D03*
X172900000Y-77700000D03*
X173100000Y-86400000D03*
X179100000Y-80800000D03*
X181300000Y-83200000D03*
X185700000Y-98400000D03*
X176000000Y-121000000D03*
X176000000Y-126000000D03*
X176000000Y-131000000D03*
X155000000Y-131000000D03*
X142300000Y-103900000D03*
X164300000Y-82600000D03*
X121500000Y-105000000D03*
X130500000Y-85000000D03*
X140500000Y-105000000D03*
X175400000Y-103650000D03*
X159300000Y-106800000D03*
X136475010Y-85427317D03*
X116400000Y-128200000D03*
X136250000Y-89000000D03*
X123512660Y-128212660D03*
X136250000Y-90250000D03*
X140750000Y-128000000D03*
X168750000Y-117000000D03*
X159750000Y-85000000D03*
X132250000Y-117250000D03*
X133708779Y-88458779D03*
X143500000Y-95750000D03*
X150750000Y-117000000D03*
X185600000Y-114800000D03*
X178900000Y-95600000D03*
X159500000Y-92500000D03*
X158500000Y-87500000D03*
X172400000Y-103150010D03*
X160600000Y-91400002D03*
X137500000Y-104750010D03*
X138987338Y-98025010D03*
X134000000Y-86500000D03*
X119054020Y-104313200D03*
X152250000Y-95750000D03*
X155000000Y-104750010D03*
X115500000Y-88000000D03*
X125700000Y-121500000D03*
X142974968Y-122949659D03*
X119469662Y-87969662D03*
X135900000Y-80600000D03*
X115200000Y-85500000D03*
X135900000Y-81800000D03*
X119400000Y-85100000D03*
X135900000Y-83000000D03*
X123300000Y-85500000D03*
D18*
X175400000Y-111423002D02*
X168848001Y-117975001D01*
X168848001Y-117975001D02*
X168401999Y-117975001D01*
X159300000Y-108873002D02*
X159300000Y-107365685D01*
X175400000Y-103650000D02*
X175400000Y-111423002D01*
X168401999Y-117975001D02*
X159300000Y-108873002D01*
X159300000Y-107365685D02*
X159300000Y-106800000D01*
X140100001Y-105399999D02*
X140500000Y-105000000D01*
X140024989Y-105475011D02*
X140100001Y-105399999D01*
X137151999Y-105475011D02*
X140024989Y-105475011D01*
X136774999Y-105098011D02*
X137151999Y-105475011D01*
X137151999Y-104025009D02*
X136774999Y-104402009D01*
X141000000Y-102763590D02*
X139463590Y-104300000D01*
X138025009Y-104025009D02*
X137151999Y-104025009D01*
X133849990Y-89250001D02*
X133849990Y-93922992D01*
X141000000Y-101073002D02*
X141000000Y-102763590D01*
X138300000Y-104300000D02*
X138025009Y-104025009D01*
X139463590Y-104300000D02*
X138300000Y-104300000D01*
X136774999Y-104402009D02*
X136774999Y-105098011D01*
X133849990Y-93922992D02*
X141000000Y-101073002D01*
D19*
X121500000Y-104434315D02*
X121500000Y-105000000D01*
X121500000Y-104388999D02*
X121500000Y-104434315D01*
X133249992Y-89250001D02*
X131799991Y-87800000D01*
X134750000Y-88478234D02*
X133978233Y-89250001D01*
X134750000Y-86139998D02*
X134750000Y-88478234D01*
X133610002Y-85000000D02*
X134750000Y-86139998D01*
X130500000Y-85000000D02*
X133610002Y-85000000D01*
X117400000Y-91100000D02*
X117400000Y-100288999D01*
X131799991Y-87800000D02*
X120700000Y-87800000D01*
X133978233Y-89250001D02*
X133249992Y-89250001D01*
X120700000Y-87800000D02*
X117400000Y-91100000D01*
X117400000Y-100288999D02*
X121500000Y-104388999D01*
D18*
X139300000Y-97300000D02*
X137900000Y-97300000D01*
X143322991Y-123750011D02*
X143699978Y-123373024D01*
X133463589Y-117999999D02*
X139213600Y-123750011D01*
X116400000Y-128200000D02*
X122500000Y-128200000D01*
X122500000Y-128200000D02*
X126425001Y-124274999D01*
X128036411Y-117999999D02*
X133463589Y-117999999D01*
X126425001Y-119611409D02*
X128036411Y-117999999D01*
X143699978Y-123373024D02*
X143699978Y-101699978D01*
X126425001Y-124274999D02*
X126425001Y-119611409D01*
X137900000Y-97300000D02*
X134300000Y-93700000D01*
X143699978Y-101699978D02*
X139300000Y-97300000D01*
X134300000Y-93700000D02*
X134300000Y-89600000D01*
X134300000Y-89600000D02*
X136475010Y-87424990D01*
X136475010Y-87424990D02*
X136475010Y-85993002D01*
X139213600Y-123750011D02*
X143322991Y-123750011D01*
X136475010Y-85993002D02*
X136475010Y-85427317D01*
X144149989Y-123559424D02*
X143509391Y-124200022D01*
X126875012Y-119797808D02*
X126875012Y-124850308D01*
X134799999Y-90450001D02*
X134799999Y-93300000D01*
X133277190Y-118450010D02*
X128222810Y-118450010D01*
X123912659Y-127812661D02*
X123512660Y-128212660D01*
X128222810Y-118450010D02*
X126875012Y-119797808D01*
X136250000Y-89000000D02*
X134799999Y-90450001D01*
X134799999Y-93300000D02*
X138299999Y-96800000D01*
X144149989Y-101499990D02*
X144149989Y-123559424D01*
X138299999Y-96800000D02*
X139449999Y-96800000D01*
X139449999Y-96800000D02*
X144149989Y-101499990D01*
X126875012Y-124850308D02*
X123912659Y-127812661D01*
X143509391Y-124200022D02*
X139027200Y-124200022D01*
X139027200Y-124200022D02*
X133277190Y-118450010D01*
X140750000Y-127434315D02*
X140750000Y-128000000D01*
X135250010Y-91249990D02*
X136250000Y-90250000D01*
X135250010Y-93113600D02*
X135250010Y-91249990D01*
X144600000Y-101300000D02*
X139800000Y-96500000D01*
X144600000Y-124150000D02*
X144600000Y-101300000D01*
X140750000Y-128000000D02*
X144600000Y-124150000D01*
X135250010Y-93113600D02*
X138486399Y-96349990D01*
X139786409Y-96500000D02*
X139800000Y-96500000D01*
X139636399Y-96349990D02*
X139786409Y-96500000D01*
X138486399Y-96349990D02*
X139636399Y-96349990D01*
X168184315Y-117000000D02*
X168750000Y-117000000D01*
X168100000Y-117000000D02*
X168184315Y-117000000D01*
X163250011Y-112150011D02*
X168100000Y-117000000D01*
X163250011Y-109863600D02*
X163250011Y-112150011D01*
X163225001Y-95198003D02*
X163225001Y-109838590D01*
X159750000Y-91723002D02*
X163225001Y-95198003D01*
X163225001Y-109838590D02*
X163250011Y-109863600D01*
X159750000Y-85000000D02*
X159750000Y-91723002D01*
X119848003Y-87274999D02*
X132524999Y-87274999D01*
X116474978Y-100672154D02*
X116474978Y-89891342D01*
X119779022Y-105427112D02*
X119779022Y-103976197D01*
X131601910Y-117250000D02*
X119779022Y-105427112D01*
X119817664Y-87244660D02*
X119848003Y-87274999D01*
X132250000Y-117250000D02*
X131601910Y-117250000D01*
X119779022Y-103976197D02*
X116474978Y-100672154D01*
X119121660Y-87244660D02*
X119817664Y-87244660D01*
X116474978Y-89891342D02*
X119121660Y-87244660D01*
X133308780Y-88058780D02*
X133708779Y-88458779D01*
X132524999Y-87274999D02*
X133308780Y-88058780D01*
X146600000Y-117000000D02*
X150750000Y-117000000D01*
X145050009Y-115450009D02*
X146600000Y-117000000D01*
X145050009Y-97300009D02*
X145050009Y-115450009D01*
X143500000Y-95750000D02*
X145050009Y-97300009D01*
X178900000Y-95600000D02*
X181400000Y-95600000D01*
X185600000Y-99800000D02*
X185600000Y-114800000D01*
X181400000Y-95600000D02*
X185600000Y-99800000D01*
X159200000Y-88200000D02*
X159200000Y-92200000D01*
X159200000Y-92200000D02*
X159500000Y-92500000D01*
X158500000Y-87500000D02*
X159200000Y-88200000D01*
X160800000Y-91600002D02*
X160600000Y-91400002D01*
X160600000Y-91800000D02*
X160600000Y-91400002D01*
X163800000Y-95000000D02*
X160600000Y-91800000D01*
X163800000Y-101900000D02*
X163800000Y-95000000D01*
X165050010Y-103150010D02*
X163800000Y-101900000D01*
X172400000Y-103150010D02*
X165050010Y-103150010D01*
X141500000Y-100537672D02*
X139387337Y-98425009D01*
X139387337Y-98425009D02*
X138987338Y-98025010D01*
X137500000Y-104750010D02*
X139649990Y-104750010D01*
X139649990Y-104750010D02*
X141500000Y-102900000D01*
X141500000Y-102900000D02*
X141500000Y-100537672D01*
X116000000Y-89700000D02*
X116000000Y-101259180D01*
X134000000Y-86500000D02*
X119200000Y-86500000D01*
X116000000Y-101259180D02*
X118654021Y-103913201D01*
X119200000Y-86500000D02*
X116000000Y-89700000D01*
X118654021Y-103913201D02*
X119054020Y-104313200D01*
X155399999Y-104350011D02*
X155000000Y-104750010D01*
X161949989Y-104350011D02*
X155399999Y-104350011D01*
X162774991Y-103525009D02*
X161949989Y-104350011D01*
X162774991Y-97324993D02*
X162774991Y-103525009D01*
X161874999Y-96425001D02*
X162774991Y-97324993D01*
X152925001Y-96425001D02*
X161874999Y-96425001D01*
X152250000Y-95750000D02*
X152925001Y-96425001D01*
X128000000Y-114284500D02*
X115500000Y-101784500D01*
X125900000Y-119500000D02*
X128000000Y-117400000D01*
X115500000Y-101784500D02*
X115500000Y-88000000D01*
X125900000Y-121300000D02*
X125900000Y-119500000D01*
X125700000Y-121500000D02*
X125900000Y-121300000D01*
X128000000Y-117400000D02*
X128000000Y-114284500D01*
X120229033Y-105129033D02*
X120229033Y-103789798D01*
X131600000Y-116500000D02*
X120229033Y-105129033D01*
X142974968Y-122949659D02*
X136525309Y-116500000D01*
X116924989Y-100485754D02*
X116924989Y-90514335D01*
X120229033Y-103789798D02*
X116924989Y-100485754D01*
X116924989Y-90514335D02*
X119069663Y-88369661D01*
X136525309Y-116500000D02*
X131600000Y-116500000D01*
X119069663Y-88369661D02*
X119469662Y-87969662D01*
D19*
X115599999Y-85100001D02*
X115200000Y-85500000D01*
X118449999Y-82250001D02*
X115599999Y-85100001D01*
X134249999Y-82250001D02*
X118449999Y-82250001D01*
X135900000Y-80600000D02*
X134249999Y-82250001D01*
X134800000Y-82900000D02*
X121600000Y-82900000D01*
X121600000Y-82900000D02*
X119799999Y-84700001D01*
X119799999Y-84700001D02*
X119400000Y-85100000D01*
X135900000Y-81800000D02*
X134800000Y-82900000D01*
X123699999Y-85100001D02*
X123300000Y-85500000D01*
X125399990Y-83400010D02*
X123699999Y-85100001D01*
X135499990Y-83400010D02*
X125399990Y-83400010D01*
X135900000Y-83000000D02*
X135499990Y-83400010D01*
D20*
G36*
X186703463Y-75457312D02*
G01*
X187187756Y-75603529D01*
X187634422Y-75841025D01*
X188026450Y-76160755D01*
X188348907Y-76550539D01*
X188589518Y-76995540D01*
X188739111Y-77478796D01*
X188794000Y-78001029D01*
X188794001Y-137980136D01*
X188742688Y-138503464D01*
X188596472Y-138987756D01*
X188358975Y-139434422D01*
X188039245Y-139826450D01*
X187649458Y-140148910D01*
X187204460Y-140389518D01*
X186721205Y-140539111D01*
X186198971Y-140594000D01*
X104819854Y-140594000D01*
X104296536Y-140542688D01*
X103812244Y-140396472D01*
X103365578Y-140158975D01*
X102973550Y-139839245D01*
X102651090Y-139449458D01*
X102410482Y-139004460D01*
X102260889Y-138521205D01*
X102206000Y-137998971D01*
X102206000Y-136647302D01*
X102219000Y-136647302D01*
X102219000Y-137352698D01*
X102356616Y-138044539D01*
X102626559Y-138696240D01*
X103018456Y-139282754D01*
X103517246Y-139781544D01*
X104103760Y-140173441D01*
X104755461Y-140443384D01*
X105447302Y-140581000D01*
X106152698Y-140581000D01*
X106844539Y-140443384D01*
X107496240Y-140173441D01*
X108082754Y-139781544D01*
X108581544Y-139282754D01*
X108973441Y-138696240D01*
X109243384Y-138044539D01*
X109381000Y-137352698D01*
X109381000Y-136647302D01*
X181619000Y-136647302D01*
X181619000Y-137352698D01*
X181756616Y-138044539D01*
X182026559Y-138696240D01*
X182418456Y-139282754D01*
X182917246Y-139781544D01*
X183503760Y-140173441D01*
X184155461Y-140443384D01*
X184847302Y-140581000D01*
X185552698Y-140581000D01*
X186244539Y-140443384D01*
X186896240Y-140173441D01*
X187482754Y-139781544D01*
X187981544Y-139282754D01*
X188373441Y-138696240D01*
X188643384Y-138044539D01*
X188781000Y-137352698D01*
X188781000Y-136647302D01*
X188643384Y-135955461D01*
X188373441Y-135303760D01*
X187981544Y-134717246D01*
X187482754Y-134218456D01*
X186896240Y-133826559D01*
X186244539Y-133556616D01*
X185552698Y-133419000D01*
X184847302Y-133419000D01*
X184155461Y-133556616D01*
X183503760Y-133826559D01*
X182917246Y-134218456D01*
X182418456Y-134717246D01*
X182026559Y-135303760D01*
X181756616Y-135955461D01*
X181619000Y-136647302D01*
X109381000Y-136647302D01*
X109243384Y-135955461D01*
X108973441Y-135303760D01*
X108581544Y-134717246D01*
X108082754Y-134218456D01*
X107496240Y-133826559D01*
X106844539Y-133556616D01*
X106152698Y-133419000D01*
X105447302Y-133419000D01*
X104755461Y-133556616D01*
X104103760Y-133826559D01*
X103517246Y-134218456D01*
X103018456Y-134717246D01*
X102626559Y-135303760D01*
X102356616Y-135955461D01*
X102219000Y-136647302D01*
X102206000Y-136647302D01*
X102206000Y-110470018D01*
X104619000Y-110470018D01*
X104619000Y-111529982D01*
X104825789Y-112569580D01*
X105231420Y-113548859D01*
X105820305Y-114430187D01*
X106569813Y-115179695D01*
X107451141Y-115768580D01*
X108430420Y-116174211D01*
X109470018Y-116381000D01*
X110529982Y-116381000D01*
X111569580Y-116174211D01*
X112548859Y-115768580D01*
X113430187Y-115179695D01*
X114179695Y-114430187D01*
X114768580Y-113548859D01*
X115174211Y-112569580D01*
X115381000Y-111529982D01*
X115381000Y-110470018D01*
X115174211Y-109430420D01*
X114768580Y-108451141D01*
X114179695Y-107569813D01*
X113430187Y-106820305D01*
X112548859Y-106231420D01*
X111569580Y-105825789D01*
X110529982Y-105619000D01*
X109470018Y-105619000D01*
X108430420Y-105825789D01*
X107451141Y-106231420D01*
X106569813Y-106820305D01*
X105820305Y-107569813D01*
X105231420Y-108451141D01*
X104825789Y-109430420D01*
X104619000Y-110470018D01*
X102206000Y-110470018D01*
X102206000Y-85423078D01*
X114419000Y-85423078D01*
X114419000Y-85576922D01*
X114449013Y-85727809D01*
X114507887Y-85869942D01*
X114593358Y-85997859D01*
X114702141Y-86106642D01*
X114830058Y-86192113D01*
X114972191Y-86250987D01*
X115123078Y-86281000D01*
X115276922Y-86281000D01*
X115427809Y-86250987D01*
X115569942Y-86192113D01*
X115697859Y-86106642D01*
X115806642Y-85997859D01*
X115892113Y-85869942D01*
X115950987Y-85727809D01*
X115981000Y-85576922D01*
X115981000Y-85469947D01*
X115993916Y-85457031D01*
X115993920Y-85457026D01*
X118669947Y-82781001D01*
X120968052Y-82781001D01*
X119442974Y-84306080D01*
X119442969Y-84306084D01*
X119430053Y-84319000D01*
X119323078Y-84319000D01*
X119172191Y-84349013D01*
X119030058Y-84407887D01*
X118902141Y-84493358D01*
X118793358Y-84602141D01*
X118707887Y-84730058D01*
X118649013Y-84872191D01*
X118619000Y-85023078D01*
X118619000Y-85176922D01*
X118649013Y-85327809D01*
X118707887Y-85469942D01*
X118793358Y-85597859D01*
X118902141Y-85706642D01*
X119030058Y-85792113D01*
X119172191Y-85850987D01*
X119323078Y-85881000D01*
X119476922Y-85881000D01*
X119627809Y-85850987D01*
X119769942Y-85792113D01*
X119897859Y-85706642D01*
X120006642Y-85597859D01*
X120092113Y-85469942D01*
X120150987Y-85327809D01*
X120181000Y-85176922D01*
X120181000Y-85069947D01*
X120193916Y-85057031D01*
X120193920Y-85057026D01*
X121819947Y-83431000D01*
X124618053Y-83431000D01*
X123342974Y-84706080D01*
X123342969Y-84706084D01*
X123330053Y-84719000D01*
X123223078Y-84719000D01*
X123072191Y-84749013D01*
X122930058Y-84807887D01*
X122802141Y-84893358D01*
X122693358Y-85002141D01*
X122607887Y-85130058D01*
X122549013Y-85272191D01*
X122519000Y-85423078D01*
X122519000Y-85576922D01*
X122549013Y-85727809D01*
X122607887Y-85869942D01*
X122690780Y-85994000D01*
X119224845Y-85994000D01*
X119199999Y-85991553D01*
X119175153Y-85994000D01*
X119175146Y-85994000D01*
X119110694Y-86000348D01*
X119100806Y-86001322D01*
X119078607Y-86008056D01*
X119005425Y-86030255D01*
X118917521Y-86077241D01*
X118840473Y-86140473D01*
X118824628Y-86159780D01*
X116006000Y-88978409D01*
X116006000Y-88598501D01*
X116106642Y-88497859D01*
X116192113Y-88369942D01*
X116250987Y-88227809D01*
X116281000Y-88076922D01*
X116281000Y-87923078D01*
X116250987Y-87772191D01*
X116192113Y-87630058D01*
X116106642Y-87502141D01*
X115997859Y-87393358D01*
X115869942Y-87307887D01*
X115727809Y-87249013D01*
X115576922Y-87219000D01*
X115423078Y-87219000D01*
X115272191Y-87249013D01*
X115130058Y-87307887D01*
X115002141Y-87393358D01*
X114893358Y-87502141D01*
X114807887Y-87630058D01*
X114749013Y-87772191D01*
X114719000Y-87923078D01*
X114719000Y-88076922D01*
X114749013Y-88227809D01*
X114807887Y-88369942D01*
X114893358Y-88497859D01*
X114994001Y-88598502D01*
X114994000Y-101759654D01*
X114991553Y-101784500D01*
X114994000Y-101809346D01*
X114994000Y-101809353D01*
X115001322Y-101883692D01*
X115030255Y-101979074D01*
X115077241Y-102066979D01*
X115140473Y-102144027D01*
X115159785Y-102159876D01*
X127494001Y-114494093D01*
X127494000Y-117190408D01*
X125559781Y-119124628D01*
X125540474Y-119140473D01*
X125477242Y-119217521D01*
X125458876Y-119251882D01*
X125430255Y-119305426D01*
X125401322Y-119400808D01*
X125391553Y-119500000D01*
X125394001Y-119524856D01*
X125394000Y-120781401D01*
X125330058Y-120807887D01*
X125202141Y-120893358D01*
X125093358Y-121002141D01*
X125007887Y-121130058D01*
X124949013Y-121272191D01*
X124919000Y-121423078D01*
X124919000Y-121576922D01*
X124949013Y-121727809D01*
X125007887Y-121869942D01*
X125093358Y-121997859D01*
X125202141Y-122106642D01*
X125330058Y-122192113D01*
X125472191Y-122250987D01*
X125623078Y-122281000D01*
X125776922Y-122281000D01*
X125919001Y-122252739D01*
X125919001Y-124065407D01*
X122290409Y-127694000D01*
X116998501Y-127694000D01*
X116897859Y-127593358D01*
X116769942Y-127507887D01*
X116627809Y-127449013D01*
X116476922Y-127419000D01*
X116323078Y-127419000D01*
X116172191Y-127449013D01*
X116030058Y-127507887D01*
X115902141Y-127593358D01*
X115793358Y-127702141D01*
X115707887Y-127830058D01*
X115649013Y-127972191D01*
X115619000Y-128123078D01*
X115619000Y-128276922D01*
X115649013Y-128427809D01*
X115707887Y-128569942D01*
X115793358Y-128697859D01*
X115902141Y-128806642D01*
X116030058Y-128892113D01*
X116172191Y-128950987D01*
X116323078Y-128981000D01*
X116476922Y-128981000D01*
X116627809Y-128950987D01*
X116769942Y-128892113D01*
X116897859Y-128806642D01*
X116998501Y-128706000D01*
X122475154Y-128706000D01*
X122500000Y-128708447D01*
X122524846Y-128706000D01*
X122524854Y-128706000D01*
X122599193Y-128698678D01*
X122694575Y-128669745D01*
X122782479Y-128622759D01*
X122824394Y-128588360D01*
X122906018Y-128710519D01*
X123014801Y-128819302D01*
X123142718Y-128904773D01*
X123284851Y-128963647D01*
X123435738Y-128993660D01*
X123589582Y-128993660D01*
X123740469Y-128963647D01*
X123882602Y-128904773D01*
X124010519Y-128819302D01*
X124119302Y-128710519D01*
X124204773Y-128582602D01*
X124263647Y-128440469D01*
X124293660Y-128289582D01*
X124293660Y-128147251D01*
X127215232Y-125225680D01*
X127234539Y-125209835D01*
X127297771Y-125132787D01*
X127344757Y-125044883D01*
X127373690Y-124949501D01*
X127381012Y-124875162D01*
X127383460Y-124850308D01*
X127381012Y-124825454D01*
X127381012Y-124016938D01*
X127382249Y-124019924D01*
X127779618Y-124614628D01*
X128285372Y-125120382D01*
X128880076Y-125517751D01*
X129540876Y-125791463D01*
X130242378Y-125931000D01*
X130957622Y-125931000D01*
X131659124Y-125791463D01*
X132319924Y-125517751D01*
X132914628Y-125120382D01*
X133420382Y-124614628D01*
X133817751Y-124019924D01*
X134091463Y-123359124D01*
X134231000Y-122657622D01*
X134231000Y-121942378D01*
X134091463Y-121240876D01*
X133817751Y-120580076D01*
X133420382Y-119985372D01*
X132914628Y-119479618D01*
X132319924Y-119082249D01*
X132015156Y-118956010D01*
X133067599Y-118956010D01*
X138651828Y-124540242D01*
X138667673Y-124559549D01*
X138744721Y-124622781D01*
X138811449Y-124658448D01*
X138832625Y-124669767D01*
X138928007Y-124698700D01*
X139027200Y-124708470D01*
X139052054Y-124706022D01*
X143328386Y-124706022D01*
X141026206Y-127008203D01*
X140944574Y-126964570D01*
X140849192Y-126935637D01*
X140750000Y-126925867D01*
X140650807Y-126935637D01*
X140555425Y-126964570D01*
X140467521Y-127011556D01*
X140390473Y-127074788D01*
X140327241Y-127151836D01*
X140280255Y-127239741D01*
X140251322Y-127335123D01*
X140244870Y-127400629D01*
X140143358Y-127502141D01*
X140057887Y-127630058D01*
X139999013Y-127772191D01*
X139969000Y-127923078D01*
X139969000Y-128076922D01*
X139999013Y-128227809D01*
X140057887Y-128369942D01*
X140143358Y-128497859D01*
X140252141Y-128606642D01*
X140380058Y-128692113D01*
X140522191Y-128750987D01*
X140673078Y-128781000D01*
X140826922Y-128781000D01*
X140977809Y-128750987D01*
X141119942Y-128692113D01*
X141247859Y-128606642D01*
X141356642Y-128497859D01*
X141442113Y-128369942D01*
X141500987Y-128227809D01*
X141531000Y-128076922D01*
X141531000Y-127934591D01*
X144940220Y-124525372D01*
X144959527Y-124509527D01*
X145022759Y-124432479D01*
X145069745Y-124344575D01*
X145083311Y-124299852D01*
X145098678Y-124249194D01*
X145105906Y-124175806D01*
X145106000Y-124174854D01*
X145106000Y-124174847D01*
X145108447Y-124150001D01*
X145106000Y-124125155D01*
X145106000Y-123346370D01*
X145108537Y-123359124D01*
X145382249Y-124019924D01*
X145779618Y-124614628D01*
X146285372Y-125120382D01*
X146880076Y-125517751D01*
X147540876Y-125791463D01*
X148242378Y-125931000D01*
X148957622Y-125931000D01*
X149659124Y-125791463D01*
X150319924Y-125517751D01*
X150914628Y-125120382D01*
X151420382Y-124614628D01*
X151817751Y-124019924D01*
X152091463Y-123359124D01*
X152231000Y-122657622D01*
X152231000Y-121942378D01*
X162469000Y-121942378D01*
X162469000Y-122657622D01*
X162608537Y-123359124D01*
X162882249Y-124019924D01*
X163279618Y-124614628D01*
X163785372Y-125120382D01*
X164380076Y-125517751D01*
X165040876Y-125791463D01*
X165742378Y-125931000D01*
X166457622Y-125931000D01*
X167159124Y-125791463D01*
X167819924Y-125517751D01*
X168414628Y-125120382D01*
X168920382Y-124614628D01*
X169317751Y-124019924D01*
X169591463Y-123359124D01*
X169731000Y-122657622D01*
X169731000Y-121942378D01*
X169591463Y-121240876D01*
X169317751Y-120580076D01*
X169158927Y-120342378D01*
X179869000Y-120342378D01*
X179869000Y-121057622D01*
X180008537Y-121759124D01*
X180282249Y-122419924D01*
X180679618Y-123014628D01*
X181185372Y-123520382D01*
X181780076Y-123917751D01*
X182440876Y-124191463D01*
X183142378Y-124331000D01*
X183857622Y-124331000D01*
X184559124Y-124191463D01*
X185219924Y-123917751D01*
X185814628Y-123520382D01*
X186320382Y-123014628D01*
X186717751Y-122419924D01*
X186991463Y-121759124D01*
X187131000Y-121057622D01*
X187131000Y-120342378D01*
X186991463Y-119640876D01*
X186717751Y-118980076D01*
X186320382Y-118385372D01*
X185814628Y-117879618D01*
X185219924Y-117482249D01*
X184559124Y-117208537D01*
X183857622Y-117069000D01*
X183142378Y-117069000D01*
X182440876Y-117208537D01*
X181780076Y-117482249D01*
X181185372Y-117879618D01*
X180679618Y-118385372D01*
X180282249Y-118980076D01*
X180008537Y-119640876D01*
X179869000Y-120342378D01*
X169158927Y-120342378D01*
X168920382Y-119985372D01*
X168414628Y-119479618D01*
X167819924Y-119082249D01*
X167159124Y-118808537D01*
X166457622Y-118669000D01*
X165742378Y-118669000D01*
X165040876Y-118808537D01*
X164380076Y-119082249D01*
X163785372Y-119479618D01*
X163279618Y-119985372D01*
X162882249Y-120580076D01*
X162608537Y-121240876D01*
X162469000Y-121942378D01*
X152231000Y-121942378D01*
X152091463Y-121240876D01*
X151817751Y-120580076D01*
X151420382Y-119985372D01*
X150914628Y-119479618D01*
X150319924Y-119082249D01*
X149659124Y-118808537D01*
X148957622Y-118669000D01*
X148242378Y-118669000D01*
X147540876Y-118808537D01*
X146880076Y-119082249D01*
X146285372Y-119479618D01*
X145779618Y-119985372D01*
X145382249Y-120580076D01*
X145108537Y-121240876D01*
X145106000Y-121253630D01*
X145106000Y-116221591D01*
X146224628Y-117340220D01*
X146240473Y-117359527D01*
X146317521Y-117422759D01*
X146405425Y-117469745D01*
X146477312Y-117491551D01*
X146500806Y-117498678D01*
X146510694Y-117499652D01*
X146575146Y-117506000D01*
X146575153Y-117506000D01*
X146599999Y-117508447D01*
X146624845Y-117506000D01*
X150151499Y-117506000D01*
X150252141Y-117606642D01*
X150380058Y-117692113D01*
X150522191Y-117750987D01*
X150673078Y-117781000D01*
X150826922Y-117781000D01*
X150977809Y-117750987D01*
X151119942Y-117692113D01*
X151247859Y-117606642D01*
X151356642Y-117497859D01*
X151442113Y-117369942D01*
X151500987Y-117227809D01*
X151531000Y-117076922D01*
X151531000Y-116923078D01*
X151500987Y-116772191D01*
X151442113Y-116630058D01*
X151356642Y-116502141D01*
X151247859Y-116393358D01*
X151119942Y-116307887D01*
X150977809Y-116249013D01*
X150826922Y-116219000D01*
X150673078Y-116219000D01*
X150522191Y-116249013D01*
X150380058Y-116307887D01*
X150252141Y-116393358D01*
X150151499Y-116494000D01*
X146809592Y-116494000D01*
X145556009Y-115240418D01*
X145556009Y-97324863D01*
X145558457Y-97300009D01*
X145548687Y-97200816D01*
X145519754Y-97105434D01*
X145507484Y-97082479D01*
X145472768Y-97017530D01*
X145409536Y-96940482D01*
X145390229Y-96924637D01*
X144281000Y-95815409D01*
X144281000Y-95673078D01*
X151469000Y-95673078D01*
X151469000Y-95826922D01*
X151499013Y-95977809D01*
X151557887Y-96119942D01*
X151643358Y-96247859D01*
X151752141Y-96356642D01*
X151880058Y-96442113D01*
X152022191Y-96500987D01*
X152173078Y-96531000D01*
X152315408Y-96531000D01*
X152549629Y-96765221D01*
X152565474Y-96784528D01*
X152642522Y-96847760D01*
X152697677Y-96877241D01*
X152730426Y-96894746D01*
X152825808Y-96923679D01*
X152925001Y-96933449D01*
X152949855Y-96931001D01*
X161665408Y-96931001D01*
X162268991Y-97534585D01*
X162268992Y-103315416D01*
X161740398Y-103844011D01*
X155424844Y-103844011D01*
X155399998Y-103841564D01*
X155375152Y-103844011D01*
X155375145Y-103844011D01*
X155300806Y-103851333D01*
X155205424Y-103880266D01*
X155117520Y-103927252D01*
X155066638Y-103969010D01*
X154923078Y-103969010D01*
X154772191Y-103999023D01*
X154630058Y-104057897D01*
X154502141Y-104143368D01*
X154393358Y-104252151D01*
X154307887Y-104380068D01*
X154249013Y-104522201D01*
X154219000Y-104673088D01*
X154219000Y-104826932D01*
X154249013Y-104977819D01*
X154307887Y-105119952D01*
X154393358Y-105247869D01*
X154502141Y-105356652D01*
X154630058Y-105442123D01*
X154772191Y-105500997D01*
X154923078Y-105531010D01*
X155076922Y-105531010D01*
X155227809Y-105500997D01*
X155369942Y-105442123D01*
X155497859Y-105356652D01*
X155606642Y-105247869D01*
X155692113Y-105119952D01*
X155750987Y-104977819D01*
X155775216Y-104856011D01*
X161925143Y-104856011D01*
X161949989Y-104858458D01*
X161974835Y-104856011D01*
X161974843Y-104856011D01*
X162049182Y-104848689D01*
X162144564Y-104819756D01*
X162232468Y-104772770D01*
X162309516Y-104709538D01*
X162325365Y-104690226D01*
X162719002Y-104296590D01*
X162719002Y-109813734D01*
X162716554Y-109838590D01*
X162726323Y-109937782D01*
X162744011Y-109996093D01*
X162744012Y-111601422D01*
X159806000Y-108663411D01*
X159806000Y-107398501D01*
X159906642Y-107297859D01*
X159992113Y-107169942D01*
X160050987Y-107027809D01*
X160081000Y-106876922D01*
X160081000Y-106723078D01*
X160050987Y-106572191D01*
X159992113Y-106430058D01*
X159906642Y-106302141D01*
X159797859Y-106193358D01*
X159669942Y-106107887D01*
X159527809Y-106049013D01*
X159376922Y-106019000D01*
X159223078Y-106019000D01*
X159072191Y-106049013D01*
X158930058Y-106107887D01*
X158802141Y-106193358D01*
X158693358Y-106302141D01*
X158607887Y-106430058D01*
X158549013Y-106572191D01*
X158519000Y-106723078D01*
X158519000Y-106876922D01*
X158549013Y-107027809D01*
X158607887Y-107169942D01*
X158693358Y-107297859D01*
X158794001Y-107398502D01*
X158794000Y-108848155D01*
X158791553Y-108873002D01*
X158794000Y-108897848D01*
X158794000Y-108897855D01*
X158801322Y-108972194D01*
X158830255Y-109067576D01*
X158877241Y-109155481D01*
X158940473Y-109232529D01*
X158959785Y-109248378D01*
X168026627Y-118315221D01*
X168042472Y-118334528D01*
X168119520Y-118397760D01*
X168207424Y-118444746D01*
X168280606Y-118466945D01*
X168302805Y-118473679D01*
X168312693Y-118474653D01*
X168377145Y-118481001D01*
X168377152Y-118481001D01*
X168401998Y-118483448D01*
X168426844Y-118481001D01*
X168823155Y-118481001D01*
X168848001Y-118483448D01*
X168872847Y-118481001D01*
X168872855Y-118481001D01*
X168947194Y-118473679D01*
X169042576Y-118444746D01*
X169130480Y-118397760D01*
X169207528Y-118334528D01*
X169223377Y-118315216D01*
X175740220Y-111798374D01*
X175759527Y-111782529D01*
X175822759Y-111705481D01*
X175869745Y-111617577D01*
X175898678Y-111522195D01*
X175906000Y-111447856D01*
X175908448Y-111423002D01*
X175906000Y-111398148D01*
X175906000Y-104248501D01*
X176006642Y-104147859D01*
X176092113Y-104019942D01*
X176150987Y-103877809D01*
X176181000Y-103726922D01*
X176181000Y-103573078D01*
X176150987Y-103422191D01*
X176092113Y-103280058D01*
X176006642Y-103152141D01*
X175897859Y-103043358D01*
X175769942Y-102957887D01*
X175627809Y-102899013D01*
X175476922Y-102869000D01*
X175323078Y-102869000D01*
X175172191Y-102899013D01*
X175030058Y-102957887D01*
X174902141Y-103043358D01*
X174793358Y-103152141D01*
X174707887Y-103280058D01*
X174649013Y-103422191D01*
X174619000Y-103573078D01*
X174619000Y-103726922D01*
X174649013Y-103877809D01*
X174707887Y-104019942D01*
X174793358Y-104147859D01*
X174894000Y-104248501D01*
X174894001Y-111213409D01*
X169452435Y-116654976D01*
X169442113Y-116630058D01*
X169356642Y-116502141D01*
X169247859Y-116393358D01*
X169119942Y-116307887D01*
X168977809Y-116249013D01*
X168826922Y-116219000D01*
X168673078Y-116219000D01*
X168522191Y-116249013D01*
X168380058Y-116307887D01*
X168252141Y-116393358D01*
X168230545Y-116414954D01*
X163756011Y-111940420D01*
X163756011Y-109888445D01*
X163758458Y-109863599D01*
X163756011Y-109838753D01*
X163756011Y-109838746D01*
X163748689Y-109764407D01*
X163731001Y-109706096D01*
X163731001Y-102546592D01*
X164674638Y-103490230D01*
X164690483Y-103509537D01*
X164767531Y-103572769D01*
X164855435Y-103619755D01*
X164950816Y-103648688D01*
X164960472Y-103649639D01*
X165025156Y-103656010D01*
X165025163Y-103656010D01*
X165050009Y-103658457D01*
X165074855Y-103656010D01*
X171801499Y-103656010D01*
X171902141Y-103756652D01*
X172030058Y-103842123D01*
X172172191Y-103900997D01*
X172323078Y-103931010D01*
X172476922Y-103931010D01*
X172627809Y-103900997D01*
X172769942Y-103842123D01*
X172897859Y-103756652D01*
X173006642Y-103647869D01*
X173092113Y-103519952D01*
X173150987Y-103377819D01*
X173181000Y-103226932D01*
X173181000Y-103073088D01*
X173150987Y-102922201D01*
X173092113Y-102780068D01*
X173006642Y-102652151D01*
X172897859Y-102543368D01*
X172769942Y-102457897D01*
X172627809Y-102399023D01*
X172476922Y-102369010D01*
X172323078Y-102369010D01*
X172172191Y-102399023D01*
X172030058Y-102457897D01*
X171902141Y-102543368D01*
X171801499Y-102644010D01*
X165259602Y-102644010D01*
X164306000Y-101690409D01*
X164306000Y-95523078D01*
X178119000Y-95523078D01*
X178119000Y-95676922D01*
X178149013Y-95827809D01*
X178207887Y-95969942D01*
X178293358Y-96097859D01*
X178402141Y-96206642D01*
X178530058Y-96292113D01*
X178672191Y-96350987D01*
X178823078Y-96381000D01*
X178976922Y-96381000D01*
X179127809Y-96350987D01*
X179269942Y-96292113D01*
X179397859Y-96206642D01*
X179498501Y-96106000D01*
X181190409Y-96106000D01*
X185094000Y-100009592D01*
X185094001Y-114201498D01*
X184993358Y-114302141D01*
X184907887Y-114430058D01*
X184849013Y-114572191D01*
X184819000Y-114723078D01*
X184819000Y-114876922D01*
X184849013Y-115027809D01*
X184907887Y-115169942D01*
X184993358Y-115297859D01*
X185102141Y-115406642D01*
X185230058Y-115492113D01*
X185372191Y-115550987D01*
X185523078Y-115581000D01*
X185676922Y-115581000D01*
X185827809Y-115550987D01*
X185969942Y-115492113D01*
X186097859Y-115406642D01*
X186206642Y-115297859D01*
X186292113Y-115169942D01*
X186350987Y-115027809D01*
X186381000Y-114876922D01*
X186381000Y-114723078D01*
X186350987Y-114572191D01*
X186292113Y-114430058D01*
X186206642Y-114302141D01*
X186106000Y-114201499D01*
X186106000Y-99824846D01*
X186108447Y-99800000D01*
X186106000Y-99775154D01*
X186106000Y-99775146D01*
X186098678Y-99700807D01*
X186069745Y-99605425D01*
X186022759Y-99517521D01*
X185959527Y-99440473D01*
X185940220Y-99424628D01*
X181775376Y-95259785D01*
X181759527Y-95240473D01*
X181682479Y-95177241D01*
X181594575Y-95130255D01*
X181499193Y-95101322D01*
X181424854Y-95094000D01*
X181424846Y-95094000D01*
X181400000Y-95091553D01*
X181375154Y-95094000D01*
X179498501Y-95094000D01*
X179397859Y-94993358D01*
X179269942Y-94907887D01*
X179127809Y-94849013D01*
X178976922Y-94819000D01*
X178823078Y-94819000D01*
X178672191Y-94849013D01*
X178530058Y-94907887D01*
X178402141Y-94993358D01*
X178293358Y-95102141D01*
X178207887Y-95230058D01*
X178149013Y-95372191D01*
X178119000Y-95523078D01*
X164306000Y-95523078D01*
X164306000Y-95024845D01*
X164308447Y-94999999D01*
X164306000Y-94975153D01*
X164306000Y-94975146D01*
X164298678Y-94900807D01*
X164269745Y-94805425D01*
X164222759Y-94717521D01*
X164159527Y-94640473D01*
X164140220Y-94624628D01*
X161289478Y-91773887D01*
X161292113Y-91769944D01*
X161350987Y-91627811D01*
X161360744Y-91578757D01*
X168769000Y-91578757D01*
X168769000Y-91821243D01*
X168816307Y-92059069D01*
X168909102Y-92283097D01*
X169043820Y-92484717D01*
X169215283Y-92656180D01*
X169416903Y-92790898D01*
X169640931Y-92883693D01*
X169878757Y-92931000D01*
X170121243Y-92931000D01*
X170359069Y-92883693D01*
X170583097Y-92790898D01*
X170784717Y-92656180D01*
X170956180Y-92484717D01*
X171090898Y-92283097D01*
X171183693Y-92059069D01*
X171231000Y-91821243D01*
X171231000Y-91578757D01*
X171183693Y-91340931D01*
X171090898Y-91116903D01*
X170956180Y-90915283D01*
X170784717Y-90743820D01*
X170583097Y-90609102D01*
X170359069Y-90516307D01*
X170121243Y-90469000D01*
X169878757Y-90469000D01*
X169640931Y-90516307D01*
X169416903Y-90609102D01*
X169215283Y-90743820D01*
X169043820Y-90915283D01*
X168909102Y-91116903D01*
X168816307Y-91340931D01*
X168769000Y-91578757D01*
X161360744Y-91578757D01*
X161381000Y-91476924D01*
X161381000Y-91323080D01*
X161350987Y-91172193D01*
X161292113Y-91030060D01*
X161206642Y-90902143D01*
X161097859Y-90793360D01*
X160969942Y-90707889D01*
X160827809Y-90649015D01*
X160676922Y-90619002D01*
X160523078Y-90619002D01*
X160372191Y-90649015D01*
X160256000Y-90697143D01*
X160256000Y-86498757D01*
X168769000Y-86498757D01*
X168769000Y-86741243D01*
X168816307Y-86979069D01*
X168909102Y-87203097D01*
X169043820Y-87404717D01*
X169215283Y-87576180D01*
X169416903Y-87710898D01*
X169640931Y-87803693D01*
X169878757Y-87851000D01*
X170121243Y-87851000D01*
X170359069Y-87803693D01*
X170583097Y-87710898D01*
X170784717Y-87576180D01*
X170956180Y-87404717D01*
X171090898Y-87203097D01*
X171183693Y-86979069D01*
X171231000Y-86741243D01*
X171231000Y-86598757D01*
X175569000Y-86598757D01*
X175569000Y-86841243D01*
X175616307Y-87079069D01*
X175709102Y-87303097D01*
X175843820Y-87504717D01*
X176015283Y-87676180D01*
X176216903Y-87810898D01*
X176440931Y-87903693D01*
X176678757Y-87951000D01*
X176921243Y-87951000D01*
X177159069Y-87903693D01*
X177383097Y-87810898D01*
X177584717Y-87676180D01*
X177756180Y-87504717D01*
X177890898Y-87303097D01*
X177983693Y-87079069D01*
X178031000Y-86841243D01*
X178031000Y-86598757D01*
X177983693Y-86360931D01*
X177890898Y-86136903D01*
X177756180Y-85935283D01*
X177584717Y-85763820D01*
X177383097Y-85629102D01*
X177159069Y-85536307D01*
X176921243Y-85489000D01*
X176678757Y-85489000D01*
X176440931Y-85536307D01*
X176216903Y-85629102D01*
X176015283Y-85763820D01*
X175843820Y-85935283D01*
X175709102Y-86136903D01*
X175616307Y-86360931D01*
X175569000Y-86598757D01*
X171231000Y-86598757D01*
X171231000Y-86498757D01*
X171183693Y-86260931D01*
X171090898Y-86036903D01*
X170956180Y-85835283D01*
X170784717Y-85663820D01*
X170583097Y-85529102D01*
X170359069Y-85436307D01*
X170121243Y-85389000D01*
X169878757Y-85389000D01*
X169640931Y-85436307D01*
X169416903Y-85529102D01*
X169215283Y-85663820D01*
X169043820Y-85835283D01*
X168909102Y-86036903D01*
X168816307Y-86260931D01*
X168769000Y-86498757D01*
X160256000Y-86498757D01*
X160256000Y-85598501D01*
X160356642Y-85497859D01*
X160442113Y-85369942D01*
X160500987Y-85227809D01*
X160531000Y-85076922D01*
X160531000Y-84923078D01*
X160500987Y-84772191D01*
X160442113Y-84630058D01*
X160356642Y-84502141D01*
X160247859Y-84393358D01*
X160119942Y-84307887D01*
X159977809Y-84249013D01*
X159826922Y-84219000D01*
X159673078Y-84219000D01*
X159522191Y-84249013D01*
X159380058Y-84307887D01*
X159252141Y-84393358D01*
X159143358Y-84502141D01*
X159057887Y-84630058D01*
X158999013Y-84772191D01*
X158969000Y-84923078D01*
X158969000Y-85076922D01*
X158999013Y-85227809D01*
X159057887Y-85369942D01*
X159143358Y-85497859D01*
X159244000Y-85598501D01*
X159244000Y-87255324D01*
X159192113Y-87130058D01*
X159106642Y-87002141D01*
X158997859Y-86893358D01*
X158869942Y-86807887D01*
X158727809Y-86749013D01*
X158576922Y-86719000D01*
X158423078Y-86719000D01*
X158272191Y-86749013D01*
X158130058Y-86807887D01*
X158002141Y-86893358D01*
X157893358Y-87002141D01*
X157807887Y-87130058D01*
X157749013Y-87272191D01*
X157719000Y-87423078D01*
X157719000Y-87576922D01*
X157749013Y-87727809D01*
X157807887Y-87869942D01*
X157893358Y-87997859D01*
X158002141Y-88106642D01*
X158130058Y-88192113D01*
X158272191Y-88250987D01*
X158423078Y-88281000D01*
X158565408Y-88281000D01*
X158694000Y-88409592D01*
X158694001Y-92175144D01*
X158691553Y-92200000D01*
X158701322Y-92299192D01*
X158726882Y-92383453D01*
X158719000Y-92423078D01*
X158719000Y-92576922D01*
X158749013Y-92727809D01*
X158807887Y-92869942D01*
X158893358Y-92997859D01*
X159002141Y-93106642D01*
X159130058Y-93192113D01*
X159272191Y-93250987D01*
X159423078Y-93281000D01*
X159576922Y-93281000D01*
X159727809Y-93250987D01*
X159869942Y-93192113D01*
X159997859Y-93106642D01*
X160106642Y-92997859D01*
X160187801Y-92876395D01*
X162719001Y-95407595D01*
X162719001Y-96553412D01*
X162250375Y-96084786D01*
X162234526Y-96065474D01*
X162157478Y-96002242D01*
X162069574Y-95955256D01*
X161974192Y-95926323D01*
X161899853Y-95919001D01*
X161899845Y-95919001D01*
X161874999Y-95916554D01*
X161850153Y-95919001D01*
X153134593Y-95919001D01*
X153031000Y-95815408D01*
X153031000Y-95673078D01*
X153000987Y-95522191D01*
X152942113Y-95380058D01*
X152856642Y-95252141D01*
X152747859Y-95143358D01*
X152619942Y-95057887D01*
X152477809Y-94999013D01*
X152326922Y-94969000D01*
X152173078Y-94969000D01*
X152022191Y-94999013D01*
X151880058Y-95057887D01*
X151752141Y-95143358D01*
X151643358Y-95252141D01*
X151557887Y-95380058D01*
X151499013Y-95522191D01*
X151469000Y-95673078D01*
X144281000Y-95673078D01*
X144250987Y-95522191D01*
X144192113Y-95380058D01*
X144106642Y-95252141D01*
X143997859Y-95143358D01*
X143869942Y-95057887D01*
X143727809Y-94999013D01*
X143576922Y-94969000D01*
X143423078Y-94969000D01*
X143272191Y-94999013D01*
X143130058Y-95057887D01*
X143002141Y-95143358D01*
X142893358Y-95252141D01*
X142807887Y-95380058D01*
X142749013Y-95522191D01*
X142719000Y-95673078D01*
X142719000Y-95826922D01*
X142749013Y-95977809D01*
X142807887Y-96119942D01*
X142893358Y-96247859D01*
X143002141Y-96356642D01*
X143130058Y-96442113D01*
X143272191Y-96500987D01*
X143423078Y-96531000D01*
X143565409Y-96531000D01*
X144544009Y-97509601D01*
X144544009Y-100528417D01*
X140175376Y-96159785D01*
X140159527Y-96140473D01*
X140082479Y-96077241D01*
X140075523Y-96073523D01*
X140011775Y-96009775D01*
X139995926Y-95990463D01*
X139918878Y-95927231D01*
X139830974Y-95880245D01*
X139735592Y-95851312D01*
X139661253Y-95843990D01*
X139661245Y-95843990D01*
X139636399Y-95841543D01*
X139611553Y-95843990D01*
X138695991Y-95843990D01*
X135756010Y-92904009D01*
X135756010Y-91459581D01*
X136184592Y-91031000D01*
X136326922Y-91031000D01*
X136477809Y-91000987D01*
X136619942Y-90942113D01*
X136747859Y-90856642D01*
X136856642Y-90747859D01*
X136942113Y-90619942D01*
X137000987Y-90477809D01*
X137031000Y-90326922D01*
X137031000Y-90173078D01*
X137000987Y-90022191D01*
X136942113Y-89880058D01*
X136856642Y-89752141D01*
X136747859Y-89643358D01*
X136720384Y-89625000D01*
X136747859Y-89606642D01*
X136856642Y-89497859D01*
X136942113Y-89369942D01*
X137000987Y-89227809D01*
X137031000Y-89076922D01*
X137031000Y-88923078D01*
X137000987Y-88772191D01*
X136942113Y-88630058D01*
X136856642Y-88502141D01*
X136747859Y-88393358D01*
X136619942Y-88307887D01*
X136477809Y-88249013D01*
X136385033Y-88230559D01*
X136815230Y-87800362D01*
X136834537Y-87784517D01*
X136897769Y-87707469D01*
X136944755Y-87619565D01*
X136973688Y-87524183D01*
X136981010Y-87449844D01*
X136981010Y-87449843D01*
X136983458Y-87424990D01*
X136981010Y-87400136D01*
X136981010Y-86025818D01*
X137081652Y-85925176D01*
X137167123Y-85797259D01*
X137225997Y-85655126D01*
X137256010Y-85504239D01*
X137256010Y-85350395D01*
X137225997Y-85199508D01*
X137167123Y-85057375D01*
X137081652Y-84929458D01*
X136972869Y-84820675D01*
X136844952Y-84735204D01*
X136702819Y-84676330D01*
X136551932Y-84646317D01*
X136398088Y-84646317D01*
X136247201Y-84676330D01*
X136105068Y-84735204D01*
X135977151Y-84820675D01*
X135868368Y-84929458D01*
X135782897Y-85057375D01*
X135724023Y-85199508D01*
X135694010Y-85350395D01*
X135694010Y-85504239D01*
X135724023Y-85655126D01*
X135782897Y-85797259D01*
X135868368Y-85925176D01*
X135969011Y-86025819D01*
X135969010Y-87215398D01*
X135281000Y-87903408D01*
X135281000Y-86166072D01*
X135283568Y-86139998D01*
X135281000Y-86113924D01*
X135281000Y-86113914D01*
X135273317Y-86035904D01*
X135242953Y-85935810D01*
X135220262Y-85893358D01*
X135193646Y-85843562D01*
X135143918Y-85782968D01*
X135143912Y-85782962D01*
X135127290Y-85762708D01*
X135107035Y-85746086D01*
X134003923Y-84642975D01*
X133987292Y-84622710D01*
X133906437Y-84556354D01*
X133814190Y-84507047D01*
X133714096Y-84476683D01*
X133636086Y-84469000D01*
X133636076Y-84469000D01*
X133610002Y-84466432D01*
X133583928Y-84469000D01*
X131073501Y-84469000D01*
X130997859Y-84393358D01*
X130869942Y-84307887D01*
X130727809Y-84249013D01*
X130576922Y-84219000D01*
X130423078Y-84219000D01*
X130272191Y-84249013D01*
X130130058Y-84307887D01*
X130002141Y-84393358D01*
X129893358Y-84502141D01*
X129807887Y-84630058D01*
X129749013Y-84772191D01*
X129719000Y-84923078D01*
X129719000Y-85076922D01*
X129749013Y-85227809D01*
X129807887Y-85369942D01*
X129893358Y-85497859D01*
X130002141Y-85606642D01*
X130130058Y-85692113D01*
X130272191Y-85750987D01*
X130423078Y-85781000D01*
X130576922Y-85781000D01*
X130727809Y-85750987D01*
X130869942Y-85692113D01*
X130997859Y-85606642D01*
X131073501Y-85531000D01*
X133390056Y-85531000D01*
X133656139Y-85797084D01*
X133630058Y-85807887D01*
X133502141Y-85893358D01*
X133401499Y-85994000D01*
X123909220Y-85994000D01*
X123992113Y-85869942D01*
X124050987Y-85727809D01*
X124081000Y-85576922D01*
X124081000Y-85469947D01*
X124093916Y-85457031D01*
X124093920Y-85457026D01*
X125592189Y-83958757D01*
X168769000Y-83958757D01*
X168769000Y-84201243D01*
X168816307Y-84439069D01*
X168909102Y-84663097D01*
X169043820Y-84864717D01*
X169215283Y-85036180D01*
X169416903Y-85170898D01*
X169640931Y-85263693D01*
X169878757Y-85311000D01*
X170121243Y-85311000D01*
X170359069Y-85263693D01*
X170583097Y-85170898D01*
X170784717Y-85036180D01*
X170956180Y-84864717D01*
X171090898Y-84663097D01*
X171183693Y-84439069D01*
X171231000Y-84201243D01*
X171231000Y-84058757D01*
X175569000Y-84058757D01*
X175569000Y-84301243D01*
X175616307Y-84539069D01*
X175709102Y-84763097D01*
X175843820Y-84964717D01*
X176015283Y-85136180D01*
X176216903Y-85270898D01*
X176440931Y-85363693D01*
X176678757Y-85411000D01*
X176921243Y-85411000D01*
X177159069Y-85363693D01*
X177383097Y-85270898D01*
X177584717Y-85136180D01*
X177756180Y-84964717D01*
X177890898Y-84763097D01*
X177983693Y-84539069D01*
X178031000Y-84301243D01*
X178031000Y-84058757D01*
X177983693Y-83820931D01*
X177890898Y-83596903D01*
X177756180Y-83395283D01*
X177584717Y-83223820D01*
X177383097Y-83089102D01*
X177159069Y-82996307D01*
X176921243Y-82949000D01*
X176678757Y-82949000D01*
X176440931Y-82996307D01*
X176216903Y-83089102D01*
X176015283Y-83223820D01*
X175843820Y-83395283D01*
X175709102Y-83596903D01*
X175616307Y-83820931D01*
X175569000Y-84058757D01*
X171231000Y-84058757D01*
X171231000Y-83958757D01*
X171183693Y-83720931D01*
X171090898Y-83496903D01*
X170956180Y-83295283D01*
X170784717Y-83123820D01*
X170583097Y-82989102D01*
X170359069Y-82896307D01*
X170121243Y-82849000D01*
X169878757Y-82849000D01*
X169640931Y-82896307D01*
X169416903Y-82989102D01*
X169215283Y-83123820D01*
X169043820Y-83295283D01*
X168909102Y-83496903D01*
X168816307Y-83720931D01*
X168769000Y-83958757D01*
X125592189Y-83958757D01*
X125619937Y-83931010D01*
X135473916Y-83931010D01*
X135499990Y-83933578D01*
X135526064Y-83931010D01*
X135526074Y-83931010D01*
X135604084Y-83923327D01*
X135704178Y-83892963D01*
X135796425Y-83843656D01*
X135872772Y-83781000D01*
X135976922Y-83781000D01*
X136127809Y-83750987D01*
X136269942Y-83692113D01*
X136397859Y-83606642D01*
X136506642Y-83497859D01*
X136592113Y-83369942D01*
X136650987Y-83227809D01*
X136681000Y-83076922D01*
X136681000Y-82923078D01*
X136650987Y-82772191D01*
X136592113Y-82630058D01*
X136506642Y-82502141D01*
X136404501Y-82400000D01*
X136506642Y-82297859D01*
X136592113Y-82169942D01*
X136650987Y-82027809D01*
X136681000Y-81876922D01*
X136681000Y-81723078D01*
X136650987Y-81572191D01*
X136592113Y-81430058D01*
X136584562Y-81418757D01*
X168769000Y-81418757D01*
X168769000Y-81661243D01*
X168816307Y-81899069D01*
X168909102Y-82123097D01*
X169043820Y-82324717D01*
X169215283Y-82496180D01*
X169416903Y-82630898D01*
X169640931Y-82723693D01*
X169878757Y-82771000D01*
X170121243Y-82771000D01*
X170359069Y-82723693D01*
X170583097Y-82630898D01*
X170784717Y-82496180D01*
X170956180Y-82324717D01*
X171090898Y-82123097D01*
X171183693Y-81899069D01*
X171231000Y-81661243D01*
X171231000Y-81518757D01*
X175569000Y-81518757D01*
X175569000Y-81761243D01*
X175616307Y-81999069D01*
X175709102Y-82223097D01*
X175843820Y-82424717D01*
X176015283Y-82596180D01*
X176216903Y-82730898D01*
X176440931Y-82823693D01*
X176678757Y-82871000D01*
X176921243Y-82871000D01*
X177159069Y-82823693D01*
X177383097Y-82730898D01*
X177584717Y-82596180D01*
X177756180Y-82424717D01*
X177890898Y-82223097D01*
X177983693Y-81999069D01*
X178031000Y-81761243D01*
X178031000Y-81518757D01*
X177983693Y-81280931D01*
X177890898Y-81056903D01*
X177756180Y-80855283D01*
X177584717Y-80683820D01*
X177383097Y-80549102D01*
X177159069Y-80456307D01*
X176921243Y-80409000D01*
X176678757Y-80409000D01*
X176440931Y-80456307D01*
X176216903Y-80549102D01*
X176015283Y-80683820D01*
X175843820Y-80855283D01*
X175709102Y-81056903D01*
X175616307Y-81280931D01*
X175569000Y-81518757D01*
X171231000Y-81518757D01*
X171231000Y-81418757D01*
X171183693Y-81180931D01*
X171090898Y-80956903D01*
X170956180Y-80755283D01*
X170784717Y-80583820D01*
X170583097Y-80449102D01*
X170359069Y-80356307D01*
X170121243Y-80309000D01*
X169878757Y-80309000D01*
X169640931Y-80356307D01*
X169416903Y-80449102D01*
X169215283Y-80583820D01*
X169043820Y-80755283D01*
X168909102Y-80956903D01*
X168816307Y-81180931D01*
X168769000Y-81418757D01*
X136584562Y-81418757D01*
X136506642Y-81302141D01*
X136404501Y-81200000D01*
X136506642Y-81097859D01*
X136592113Y-80969942D01*
X136650987Y-80827809D01*
X136681000Y-80676922D01*
X136681000Y-80523078D01*
X136650987Y-80372191D01*
X136592113Y-80230058D01*
X136506642Y-80102141D01*
X136397859Y-79993358D01*
X136269942Y-79907887D01*
X136127809Y-79849013D01*
X135976922Y-79819000D01*
X135823078Y-79819000D01*
X135672191Y-79849013D01*
X135530058Y-79907887D01*
X135402141Y-79993358D01*
X135293358Y-80102141D01*
X135207887Y-80230058D01*
X135149013Y-80372191D01*
X135119000Y-80523078D01*
X135119000Y-80630053D01*
X134030053Y-81719001D01*
X118476073Y-81719001D01*
X118449999Y-81716433D01*
X118423925Y-81719001D01*
X118423915Y-81719001D01*
X118345905Y-81726684D01*
X118245811Y-81757048D01*
X118153563Y-81806355D01*
X118092969Y-81856083D01*
X118092963Y-81856089D01*
X118072709Y-81872711D01*
X118056087Y-81892965D01*
X115242974Y-84706080D01*
X115242969Y-84706084D01*
X115230053Y-84719000D01*
X115123078Y-84719000D01*
X114972191Y-84749013D01*
X114830058Y-84807887D01*
X114702141Y-84893358D01*
X114593358Y-85002141D01*
X114507887Y-85130058D01*
X114449013Y-85272191D01*
X114419000Y-85423078D01*
X102206000Y-85423078D01*
X102206000Y-78647302D01*
X102219000Y-78647302D01*
X102219000Y-79352698D01*
X102356616Y-80044539D01*
X102626559Y-80696240D01*
X103018456Y-81282754D01*
X103517246Y-81781544D01*
X104103760Y-82173441D01*
X104755461Y-82443384D01*
X105447302Y-82581000D01*
X106152698Y-82581000D01*
X106844539Y-82443384D01*
X107496240Y-82173441D01*
X108082754Y-81781544D01*
X108581544Y-81282754D01*
X108973441Y-80696240D01*
X109243384Y-80044539D01*
X109381000Y-79352698D01*
X109381000Y-78647302D01*
X109282081Y-78150000D01*
X168767157Y-78150000D01*
X168767157Y-79850000D01*
X168774513Y-79924689D01*
X168796299Y-79996508D01*
X168831678Y-80062696D01*
X168879289Y-80120711D01*
X168937304Y-80168322D01*
X169003492Y-80203701D01*
X169075311Y-80225487D01*
X169150000Y-80232843D01*
X170850000Y-80232843D01*
X170924689Y-80225487D01*
X170996508Y-80203701D01*
X171062696Y-80168322D01*
X171120711Y-80120711D01*
X171168322Y-80062696D01*
X171203701Y-79996508D01*
X171225487Y-79924689D01*
X171232843Y-79850000D01*
X171232843Y-78647302D01*
X181619000Y-78647302D01*
X181619000Y-79352698D01*
X181756616Y-80044539D01*
X182026559Y-80696240D01*
X182418456Y-81282754D01*
X182917246Y-81781544D01*
X183503760Y-82173441D01*
X184155461Y-82443384D01*
X184847302Y-82581000D01*
X185552698Y-82581000D01*
X186244539Y-82443384D01*
X186896240Y-82173441D01*
X187482754Y-81781544D01*
X187981544Y-81282754D01*
X188373441Y-80696240D01*
X188643384Y-80044539D01*
X188781000Y-79352698D01*
X188781000Y-78647302D01*
X188643384Y-77955461D01*
X188373441Y-77303760D01*
X187981544Y-76717246D01*
X187482754Y-76218456D01*
X186896240Y-75826559D01*
X186244539Y-75556616D01*
X185552698Y-75419000D01*
X184847302Y-75419000D01*
X184155461Y-75556616D01*
X183503760Y-75826559D01*
X182917246Y-76218456D01*
X182418456Y-76717246D01*
X182026559Y-77303760D01*
X181756616Y-77955461D01*
X181619000Y-78647302D01*
X171232843Y-78647302D01*
X171232843Y-78150000D01*
X171225487Y-78075311D01*
X171203701Y-78003492D01*
X171168322Y-77937304D01*
X171120711Y-77879289D01*
X171062696Y-77831678D01*
X170996508Y-77796299D01*
X170924689Y-77774513D01*
X170850000Y-77767157D01*
X169150000Y-77767157D01*
X169075311Y-77774513D01*
X169003492Y-77796299D01*
X168937304Y-77831678D01*
X168879289Y-77879289D01*
X168831678Y-77937304D01*
X168796299Y-78003492D01*
X168774513Y-78075311D01*
X168767157Y-78150000D01*
X109282081Y-78150000D01*
X109243384Y-77955461D01*
X108973441Y-77303760D01*
X108581544Y-76717246D01*
X108082754Y-76218456D01*
X107496240Y-75826559D01*
X106844539Y-75556616D01*
X106152698Y-75419000D01*
X105447302Y-75419000D01*
X104755461Y-75556616D01*
X104103760Y-75826559D01*
X103517246Y-76218456D01*
X103018456Y-76717246D01*
X102626559Y-77303760D01*
X102356616Y-77955461D01*
X102219000Y-78647302D01*
X102206000Y-78647302D01*
X102206000Y-78019854D01*
X102257312Y-77496537D01*
X102403529Y-77012244D01*
X102641025Y-76565578D01*
X102960755Y-76173550D01*
X103350539Y-75851093D01*
X103795540Y-75610482D01*
X104278796Y-75460889D01*
X104801029Y-75406000D01*
X186180146Y-75406000D01*
X186703463Y-75457312D01*
G37*
X186703463Y-75457312D02*
X187187756Y-75603529D01*
X187634422Y-75841025D01*
X188026450Y-76160755D01*
X188348907Y-76550539D01*
X188589518Y-76995540D01*
X188739111Y-77478796D01*
X188794000Y-78001029D01*
X188794001Y-137980136D01*
X188742688Y-138503464D01*
X188596472Y-138987756D01*
X188358975Y-139434422D01*
X188039245Y-139826450D01*
X187649458Y-140148910D01*
X187204460Y-140389518D01*
X186721205Y-140539111D01*
X186198971Y-140594000D01*
X104819854Y-140594000D01*
X104296536Y-140542688D01*
X103812244Y-140396472D01*
X103365578Y-140158975D01*
X102973550Y-139839245D01*
X102651090Y-139449458D01*
X102410482Y-139004460D01*
X102260889Y-138521205D01*
X102206000Y-137998971D01*
X102206000Y-136647302D01*
X102219000Y-136647302D01*
X102219000Y-137352698D01*
X102356616Y-138044539D01*
X102626559Y-138696240D01*
X103018456Y-139282754D01*
X103517246Y-139781544D01*
X104103760Y-140173441D01*
X104755461Y-140443384D01*
X105447302Y-140581000D01*
X106152698Y-140581000D01*
X106844539Y-140443384D01*
X107496240Y-140173441D01*
X108082754Y-139781544D01*
X108581544Y-139282754D01*
X108973441Y-138696240D01*
X109243384Y-138044539D01*
X109381000Y-137352698D01*
X109381000Y-136647302D01*
X181619000Y-136647302D01*
X181619000Y-137352698D01*
X181756616Y-138044539D01*
X182026559Y-138696240D01*
X182418456Y-139282754D01*
X182917246Y-139781544D01*
X183503760Y-140173441D01*
X184155461Y-140443384D01*
X184847302Y-140581000D01*
X185552698Y-140581000D01*
X186244539Y-140443384D01*
X186896240Y-140173441D01*
X187482754Y-139781544D01*
X187981544Y-139282754D01*
X188373441Y-138696240D01*
X188643384Y-138044539D01*
X188781000Y-137352698D01*
X188781000Y-136647302D01*
X188643384Y-135955461D01*
X188373441Y-135303760D01*
X187981544Y-134717246D01*
X187482754Y-134218456D01*
X186896240Y-133826559D01*
X186244539Y-133556616D01*
X185552698Y-133419000D01*
X184847302Y-133419000D01*
X184155461Y-133556616D01*
X183503760Y-133826559D01*
X182917246Y-134218456D01*
X182418456Y-134717246D01*
X182026559Y-135303760D01*
X181756616Y-135955461D01*
X181619000Y-136647302D01*
X109381000Y-136647302D01*
X109243384Y-135955461D01*
X108973441Y-135303760D01*
X108581544Y-134717246D01*
X108082754Y-134218456D01*
X107496240Y-133826559D01*
X106844539Y-133556616D01*
X106152698Y-133419000D01*
X105447302Y-133419000D01*
X104755461Y-133556616D01*
X104103760Y-133826559D01*
X103517246Y-134218456D01*
X103018456Y-134717246D01*
X102626559Y-135303760D01*
X102356616Y-135955461D01*
X102219000Y-136647302D01*
X102206000Y-136647302D01*
X102206000Y-110470018D01*
X104619000Y-110470018D01*
X104619000Y-111529982D01*
X104825789Y-112569580D01*
X105231420Y-113548859D01*
X105820305Y-114430187D01*
X106569813Y-115179695D01*
X107451141Y-115768580D01*
X108430420Y-116174211D01*
X109470018Y-116381000D01*
X110529982Y-116381000D01*
X111569580Y-116174211D01*
X112548859Y-115768580D01*
X113430187Y-115179695D01*
X114179695Y-114430187D01*
X114768580Y-113548859D01*
X115174211Y-112569580D01*
X115381000Y-111529982D01*
X115381000Y-110470018D01*
X115174211Y-109430420D01*
X114768580Y-108451141D01*
X114179695Y-107569813D01*
X113430187Y-106820305D01*
X112548859Y-106231420D01*
X111569580Y-105825789D01*
X110529982Y-105619000D01*
X109470018Y-105619000D01*
X108430420Y-105825789D01*
X107451141Y-106231420D01*
X106569813Y-106820305D01*
X105820305Y-107569813D01*
X105231420Y-108451141D01*
X104825789Y-109430420D01*
X104619000Y-110470018D01*
X102206000Y-110470018D01*
X102206000Y-85423078D01*
X114419000Y-85423078D01*
X114419000Y-85576922D01*
X114449013Y-85727809D01*
X114507887Y-85869942D01*
X114593358Y-85997859D01*
X114702141Y-86106642D01*
X114830058Y-86192113D01*
X114972191Y-86250987D01*
X115123078Y-86281000D01*
X115276922Y-86281000D01*
X115427809Y-86250987D01*
X115569942Y-86192113D01*
X115697859Y-86106642D01*
X115806642Y-85997859D01*
X115892113Y-85869942D01*
X115950987Y-85727809D01*
X115981000Y-85576922D01*
X115981000Y-85469947D01*
X115993916Y-85457031D01*
X115993920Y-85457026D01*
X118669947Y-82781001D01*
X120968052Y-82781001D01*
X119442974Y-84306080D01*
X119442969Y-84306084D01*
X119430053Y-84319000D01*
X119323078Y-84319000D01*
X119172191Y-84349013D01*
X119030058Y-84407887D01*
X118902141Y-84493358D01*
X118793358Y-84602141D01*
X118707887Y-84730058D01*
X118649013Y-84872191D01*
X118619000Y-85023078D01*
X118619000Y-85176922D01*
X118649013Y-85327809D01*
X118707887Y-85469942D01*
X118793358Y-85597859D01*
X118902141Y-85706642D01*
X119030058Y-85792113D01*
X119172191Y-85850987D01*
X119323078Y-85881000D01*
X119476922Y-85881000D01*
X119627809Y-85850987D01*
X119769942Y-85792113D01*
X119897859Y-85706642D01*
X120006642Y-85597859D01*
X120092113Y-85469942D01*
X120150987Y-85327809D01*
X120181000Y-85176922D01*
X120181000Y-85069947D01*
X120193916Y-85057031D01*
X120193920Y-85057026D01*
X121819947Y-83431000D01*
X124618053Y-83431000D01*
X123342974Y-84706080D01*
X123342969Y-84706084D01*
X123330053Y-84719000D01*
X123223078Y-84719000D01*
X123072191Y-84749013D01*
X122930058Y-84807887D01*
X122802141Y-84893358D01*
X122693358Y-85002141D01*
X122607887Y-85130058D01*
X122549013Y-85272191D01*
X122519000Y-85423078D01*
X122519000Y-85576922D01*
X122549013Y-85727809D01*
X122607887Y-85869942D01*
X122690780Y-85994000D01*
X119224845Y-85994000D01*
X119199999Y-85991553D01*
X119175153Y-85994000D01*
X119175146Y-85994000D01*
X119110694Y-86000348D01*
X119100806Y-86001322D01*
X119078607Y-86008056D01*
X119005425Y-86030255D01*
X118917521Y-86077241D01*
X118840473Y-86140473D01*
X118824628Y-86159780D01*
X116006000Y-88978409D01*
X116006000Y-88598501D01*
X116106642Y-88497859D01*
X116192113Y-88369942D01*
X116250987Y-88227809D01*
X116281000Y-88076922D01*
X116281000Y-87923078D01*
X116250987Y-87772191D01*
X116192113Y-87630058D01*
X116106642Y-87502141D01*
X115997859Y-87393358D01*
X115869942Y-87307887D01*
X115727809Y-87249013D01*
X115576922Y-87219000D01*
X115423078Y-87219000D01*
X115272191Y-87249013D01*
X115130058Y-87307887D01*
X115002141Y-87393358D01*
X114893358Y-87502141D01*
X114807887Y-87630058D01*
X114749013Y-87772191D01*
X114719000Y-87923078D01*
X114719000Y-88076922D01*
X114749013Y-88227809D01*
X114807887Y-88369942D01*
X114893358Y-88497859D01*
X114994001Y-88598502D01*
X114994000Y-101759654D01*
X114991553Y-101784500D01*
X114994000Y-101809346D01*
X114994000Y-101809353D01*
X115001322Y-101883692D01*
X115030255Y-101979074D01*
X115077241Y-102066979D01*
X115140473Y-102144027D01*
X115159785Y-102159876D01*
X127494001Y-114494093D01*
X127494000Y-117190408D01*
X125559781Y-119124628D01*
X125540474Y-119140473D01*
X125477242Y-119217521D01*
X125458876Y-119251882D01*
X125430255Y-119305426D01*
X125401322Y-119400808D01*
X125391553Y-119500000D01*
X125394001Y-119524856D01*
X125394000Y-120781401D01*
X125330058Y-120807887D01*
X125202141Y-120893358D01*
X125093358Y-121002141D01*
X125007887Y-121130058D01*
X124949013Y-121272191D01*
X124919000Y-121423078D01*
X124919000Y-121576922D01*
X124949013Y-121727809D01*
X125007887Y-121869942D01*
X125093358Y-121997859D01*
X125202141Y-122106642D01*
X125330058Y-122192113D01*
X125472191Y-122250987D01*
X125623078Y-122281000D01*
X125776922Y-122281000D01*
X125919001Y-122252739D01*
X125919001Y-124065407D01*
X122290409Y-127694000D01*
X116998501Y-127694000D01*
X116897859Y-127593358D01*
X116769942Y-127507887D01*
X116627809Y-127449013D01*
X116476922Y-127419000D01*
X116323078Y-127419000D01*
X116172191Y-127449013D01*
X116030058Y-127507887D01*
X115902141Y-127593358D01*
X115793358Y-127702141D01*
X115707887Y-127830058D01*
X115649013Y-127972191D01*
X115619000Y-128123078D01*
X115619000Y-128276922D01*
X115649013Y-128427809D01*
X115707887Y-128569942D01*
X115793358Y-128697859D01*
X115902141Y-128806642D01*
X116030058Y-128892113D01*
X116172191Y-128950987D01*
X116323078Y-128981000D01*
X116476922Y-128981000D01*
X116627809Y-128950987D01*
X116769942Y-128892113D01*
X116897859Y-128806642D01*
X116998501Y-128706000D01*
X122475154Y-128706000D01*
X122500000Y-128708447D01*
X122524846Y-128706000D01*
X122524854Y-128706000D01*
X122599193Y-128698678D01*
X122694575Y-128669745D01*
X122782479Y-128622759D01*
X122824394Y-128588360D01*
X122906018Y-128710519D01*
X123014801Y-128819302D01*
X123142718Y-128904773D01*
X123284851Y-128963647D01*
X123435738Y-128993660D01*
X123589582Y-128993660D01*
X123740469Y-128963647D01*
X123882602Y-128904773D01*
X124010519Y-128819302D01*
X124119302Y-128710519D01*
X124204773Y-128582602D01*
X124263647Y-128440469D01*
X124293660Y-128289582D01*
X124293660Y-128147251D01*
X127215232Y-125225680D01*
X127234539Y-125209835D01*
X127297771Y-125132787D01*
X127344757Y-125044883D01*
X127373690Y-124949501D01*
X127381012Y-124875162D01*
X127383460Y-124850308D01*
X127381012Y-124825454D01*
X127381012Y-124016938D01*
X127382249Y-124019924D01*
X127779618Y-124614628D01*
X128285372Y-125120382D01*
X128880076Y-125517751D01*
X129540876Y-125791463D01*
X130242378Y-125931000D01*
X130957622Y-125931000D01*
X131659124Y-125791463D01*
X132319924Y-125517751D01*
X132914628Y-125120382D01*
X133420382Y-124614628D01*
X133817751Y-124019924D01*
X134091463Y-123359124D01*
X134231000Y-122657622D01*
X134231000Y-121942378D01*
X134091463Y-121240876D01*
X133817751Y-120580076D01*
X133420382Y-119985372D01*
X132914628Y-119479618D01*
X132319924Y-119082249D01*
X132015156Y-118956010D01*
X133067599Y-118956010D01*
X138651828Y-124540242D01*
X138667673Y-124559549D01*
X138744721Y-124622781D01*
X138811449Y-124658448D01*
X138832625Y-124669767D01*
X138928007Y-124698700D01*
X139027200Y-124708470D01*
X139052054Y-124706022D01*
X143328386Y-124706022D01*
X141026206Y-127008203D01*
X140944574Y-126964570D01*
X140849192Y-126935637D01*
X140750000Y-126925867D01*
X140650807Y-126935637D01*
X140555425Y-126964570D01*
X140467521Y-127011556D01*
X140390473Y-127074788D01*
X140327241Y-127151836D01*
X140280255Y-127239741D01*
X140251322Y-127335123D01*
X140244870Y-127400629D01*
X140143358Y-127502141D01*
X140057887Y-127630058D01*
X139999013Y-127772191D01*
X139969000Y-127923078D01*
X139969000Y-128076922D01*
X139999013Y-128227809D01*
X140057887Y-128369942D01*
X140143358Y-128497859D01*
X140252141Y-128606642D01*
X140380058Y-128692113D01*
X140522191Y-128750987D01*
X140673078Y-128781000D01*
X140826922Y-128781000D01*
X140977809Y-128750987D01*
X141119942Y-128692113D01*
X141247859Y-128606642D01*
X141356642Y-128497859D01*
X141442113Y-128369942D01*
X141500987Y-128227809D01*
X141531000Y-128076922D01*
X141531000Y-127934591D01*
X144940220Y-124525372D01*
X144959527Y-124509527D01*
X145022759Y-124432479D01*
X145069745Y-124344575D01*
X145083311Y-124299852D01*
X145098678Y-124249194D01*
X145105906Y-124175806D01*
X145106000Y-124174854D01*
X145106000Y-124174847D01*
X145108447Y-124150001D01*
X145106000Y-124125155D01*
X145106000Y-123346370D01*
X145108537Y-123359124D01*
X145382249Y-124019924D01*
X145779618Y-124614628D01*
X146285372Y-125120382D01*
X146880076Y-125517751D01*
X147540876Y-125791463D01*
X148242378Y-125931000D01*
X148957622Y-125931000D01*
X149659124Y-125791463D01*
X150319924Y-125517751D01*
X150914628Y-125120382D01*
X151420382Y-124614628D01*
X151817751Y-124019924D01*
X152091463Y-123359124D01*
X152231000Y-122657622D01*
X152231000Y-121942378D01*
X162469000Y-121942378D01*
X162469000Y-122657622D01*
X162608537Y-123359124D01*
X162882249Y-124019924D01*
X163279618Y-124614628D01*
X163785372Y-125120382D01*
X164380076Y-125517751D01*
X165040876Y-125791463D01*
X165742378Y-125931000D01*
X166457622Y-125931000D01*
X167159124Y-125791463D01*
X167819924Y-125517751D01*
X168414628Y-125120382D01*
X168920382Y-124614628D01*
X169317751Y-124019924D01*
X169591463Y-123359124D01*
X169731000Y-122657622D01*
X169731000Y-121942378D01*
X169591463Y-121240876D01*
X169317751Y-120580076D01*
X169158927Y-120342378D01*
X179869000Y-120342378D01*
X179869000Y-121057622D01*
X180008537Y-121759124D01*
X180282249Y-122419924D01*
X180679618Y-123014628D01*
X181185372Y-123520382D01*
X181780076Y-123917751D01*
X182440876Y-124191463D01*
X183142378Y-124331000D01*
X183857622Y-124331000D01*
X184559124Y-124191463D01*
X185219924Y-123917751D01*
X185814628Y-123520382D01*
X186320382Y-123014628D01*
X186717751Y-122419924D01*
X186991463Y-121759124D01*
X187131000Y-121057622D01*
X187131000Y-120342378D01*
X186991463Y-119640876D01*
X186717751Y-118980076D01*
X186320382Y-118385372D01*
X185814628Y-117879618D01*
X185219924Y-117482249D01*
X184559124Y-117208537D01*
X183857622Y-117069000D01*
X183142378Y-117069000D01*
X182440876Y-117208537D01*
X181780076Y-117482249D01*
X181185372Y-117879618D01*
X180679618Y-118385372D01*
X180282249Y-118980076D01*
X180008537Y-119640876D01*
X179869000Y-120342378D01*
X169158927Y-120342378D01*
X168920382Y-119985372D01*
X168414628Y-119479618D01*
X167819924Y-119082249D01*
X167159124Y-118808537D01*
X166457622Y-118669000D01*
X165742378Y-118669000D01*
X165040876Y-118808537D01*
X164380076Y-119082249D01*
X163785372Y-119479618D01*
X163279618Y-119985372D01*
X162882249Y-120580076D01*
X162608537Y-121240876D01*
X162469000Y-121942378D01*
X152231000Y-121942378D01*
X152091463Y-121240876D01*
X151817751Y-120580076D01*
X151420382Y-119985372D01*
X150914628Y-119479618D01*
X150319924Y-119082249D01*
X149659124Y-118808537D01*
X148957622Y-118669000D01*
X148242378Y-118669000D01*
X147540876Y-118808537D01*
X146880076Y-119082249D01*
X146285372Y-119479618D01*
X145779618Y-119985372D01*
X145382249Y-120580076D01*
X145108537Y-121240876D01*
X145106000Y-121253630D01*
X145106000Y-116221591D01*
X146224628Y-117340220D01*
X146240473Y-117359527D01*
X146317521Y-117422759D01*
X146405425Y-117469745D01*
X146477312Y-117491551D01*
X146500806Y-117498678D01*
X146510694Y-117499652D01*
X146575146Y-117506000D01*
X146575153Y-117506000D01*
X146599999Y-117508447D01*
X146624845Y-117506000D01*
X150151499Y-117506000D01*
X150252141Y-117606642D01*
X150380058Y-117692113D01*
X150522191Y-117750987D01*
X150673078Y-117781000D01*
X150826922Y-117781000D01*
X150977809Y-117750987D01*
X151119942Y-117692113D01*
X151247859Y-117606642D01*
X151356642Y-117497859D01*
X151442113Y-117369942D01*
X151500987Y-117227809D01*
X151531000Y-117076922D01*
X151531000Y-116923078D01*
X151500987Y-116772191D01*
X151442113Y-116630058D01*
X151356642Y-116502141D01*
X151247859Y-116393358D01*
X151119942Y-116307887D01*
X150977809Y-116249013D01*
X150826922Y-116219000D01*
X150673078Y-116219000D01*
X150522191Y-116249013D01*
X150380058Y-116307887D01*
X150252141Y-116393358D01*
X150151499Y-116494000D01*
X146809592Y-116494000D01*
X145556009Y-115240418D01*
X145556009Y-97324863D01*
X145558457Y-97300009D01*
X145548687Y-97200816D01*
X145519754Y-97105434D01*
X145507484Y-97082479D01*
X145472768Y-97017530D01*
X145409536Y-96940482D01*
X145390229Y-96924637D01*
X144281000Y-95815409D01*
X144281000Y-95673078D01*
X151469000Y-95673078D01*
X151469000Y-95826922D01*
X151499013Y-95977809D01*
X151557887Y-96119942D01*
X151643358Y-96247859D01*
X151752141Y-96356642D01*
X151880058Y-96442113D01*
X152022191Y-96500987D01*
X152173078Y-96531000D01*
X152315408Y-96531000D01*
X152549629Y-96765221D01*
X152565474Y-96784528D01*
X152642522Y-96847760D01*
X152697677Y-96877241D01*
X152730426Y-96894746D01*
X152825808Y-96923679D01*
X152925001Y-96933449D01*
X152949855Y-96931001D01*
X161665408Y-96931001D01*
X162268991Y-97534585D01*
X162268992Y-103315416D01*
X161740398Y-103844011D01*
X155424844Y-103844011D01*
X155399998Y-103841564D01*
X155375152Y-103844011D01*
X155375145Y-103844011D01*
X155300806Y-103851333D01*
X155205424Y-103880266D01*
X155117520Y-103927252D01*
X155066638Y-103969010D01*
X154923078Y-103969010D01*
X154772191Y-103999023D01*
X154630058Y-104057897D01*
X154502141Y-104143368D01*
X154393358Y-104252151D01*
X154307887Y-104380068D01*
X154249013Y-104522201D01*
X154219000Y-104673088D01*
X154219000Y-104826932D01*
X154249013Y-104977819D01*
X154307887Y-105119952D01*
X154393358Y-105247869D01*
X154502141Y-105356652D01*
X154630058Y-105442123D01*
X154772191Y-105500997D01*
X154923078Y-105531010D01*
X155076922Y-105531010D01*
X155227809Y-105500997D01*
X155369942Y-105442123D01*
X155497859Y-105356652D01*
X155606642Y-105247869D01*
X155692113Y-105119952D01*
X155750987Y-104977819D01*
X155775216Y-104856011D01*
X161925143Y-104856011D01*
X161949989Y-104858458D01*
X161974835Y-104856011D01*
X161974843Y-104856011D01*
X162049182Y-104848689D01*
X162144564Y-104819756D01*
X162232468Y-104772770D01*
X162309516Y-104709538D01*
X162325365Y-104690226D01*
X162719002Y-104296590D01*
X162719002Y-109813734D01*
X162716554Y-109838590D01*
X162726323Y-109937782D01*
X162744011Y-109996093D01*
X162744012Y-111601422D01*
X159806000Y-108663411D01*
X159806000Y-107398501D01*
X159906642Y-107297859D01*
X159992113Y-107169942D01*
X160050987Y-107027809D01*
X160081000Y-106876922D01*
X160081000Y-106723078D01*
X160050987Y-106572191D01*
X159992113Y-106430058D01*
X159906642Y-106302141D01*
X159797859Y-106193358D01*
X159669942Y-106107887D01*
X159527809Y-106049013D01*
X159376922Y-106019000D01*
X159223078Y-106019000D01*
X159072191Y-106049013D01*
X158930058Y-106107887D01*
X158802141Y-106193358D01*
X158693358Y-106302141D01*
X158607887Y-106430058D01*
X158549013Y-106572191D01*
X158519000Y-106723078D01*
X158519000Y-106876922D01*
X158549013Y-107027809D01*
X158607887Y-107169942D01*
X158693358Y-107297859D01*
X158794001Y-107398502D01*
X158794000Y-108848155D01*
X158791553Y-108873002D01*
X158794000Y-108897848D01*
X158794000Y-108897855D01*
X158801322Y-108972194D01*
X158830255Y-109067576D01*
X158877241Y-109155481D01*
X158940473Y-109232529D01*
X158959785Y-109248378D01*
X168026627Y-118315221D01*
X168042472Y-118334528D01*
X168119520Y-118397760D01*
X168207424Y-118444746D01*
X168280606Y-118466945D01*
X168302805Y-118473679D01*
X168312693Y-118474653D01*
X168377145Y-118481001D01*
X168377152Y-118481001D01*
X168401998Y-118483448D01*
X168426844Y-118481001D01*
X168823155Y-118481001D01*
X168848001Y-118483448D01*
X168872847Y-118481001D01*
X168872855Y-118481001D01*
X168947194Y-118473679D01*
X169042576Y-118444746D01*
X169130480Y-118397760D01*
X169207528Y-118334528D01*
X169223377Y-118315216D01*
X175740220Y-111798374D01*
X175759527Y-111782529D01*
X175822759Y-111705481D01*
X175869745Y-111617577D01*
X175898678Y-111522195D01*
X175906000Y-111447856D01*
X175908448Y-111423002D01*
X175906000Y-111398148D01*
X175906000Y-104248501D01*
X176006642Y-104147859D01*
X176092113Y-104019942D01*
X176150987Y-103877809D01*
X176181000Y-103726922D01*
X176181000Y-103573078D01*
X176150987Y-103422191D01*
X176092113Y-103280058D01*
X176006642Y-103152141D01*
X175897859Y-103043358D01*
X175769942Y-102957887D01*
X175627809Y-102899013D01*
X175476922Y-102869000D01*
X175323078Y-102869000D01*
X175172191Y-102899013D01*
X175030058Y-102957887D01*
X174902141Y-103043358D01*
X174793358Y-103152141D01*
X174707887Y-103280058D01*
X174649013Y-103422191D01*
X174619000Y-103573078D01*
X174619000Y-103726922D01*
X174649013Y-103877809D01*
X174707887Y-104019942D01*
X174793358Y-104147859D01*
X174894000Y-104248501D01*
X174894001Y-111213409D01*
X169452435Y-116654976D01*
X169442113Y-116630058D01*
X169356642Y-116502141D01*
X169247859Y-116393358D01*
X169119942Y-116307887D01*
X168977809Y-116249013D01*
X168826922Y-116219000D01*
X168673078Y-116219000D01*
X168522191Y-116249013D01*
X168380058Y-116307887D01*
X168252141Y-116393358D01*
X168230545Y-116414954D01*
X163756011Y-111940420D01*
X163756011Y-109888445D01*
X163758458Y-109863599D01*
X163756011Y-109838753D01*
X163756011Y-109838746D01*
X163748689Y-109764407D01*
X163731001Y-109706096D01*
X163731001Y-102546592D01*
X164674638Y-103490230D01*
X164690483Y-103509537D01*
X164767531Y-103572769D01*
X164855435Y-103619755D01*
X164950816Y-103648688D01*
X164960472Y-103649639D01*
X165025156Y-103656010D01*
X165025163Y-103656010D01*
X165050009Y-103658457D01*
X165074855Y-103656010D01*
X171801499Y-103656010D01*
X171902141Y-103756652D01*
X172030058Y-103842123D01*
X172172191Y-103900997D01*
X172323078Y-103931010D01*
X172476922Y-103931010D01*
X172627809Y-103900997D01*
X172769942Y-103842123D01*
X172897859Y-103756652D01*
X173006642Y-103647869D01*
X173092113Y-103519952D01*
X173150987Y-103377819D01*
X173181000Y-103226932D01*
X173181000Y-103073088D01*
X173150987Y-102922201D01*
X173092113Y-102780068D01*
X173006642Y-102652151D01*
X172897859Y-102543368D01*
X172769942Y-102457897D01*
X172627809Y-102399023D01*
X172476922Y-102369010D01*
X172323078Y-102369010D01*
X172172191Y-102399023D01*
X172030058Y-102457897D01*
X171902141Y-102543368D01*
X171801499Y-102644010D01*
X165259602Y-102644010D01*
X164306000Y-101690409D01*
X164306000Y-95523078D01*
X178119000Y-95523078D01*
X178119000Y-95676922D01*
X178149013Y-95827809D01*
X178207887Y-95969942D01*
X178293358Y-96097859D01*
X178402141Y-96206642D01*
X178530058Y-96292113D01*
X178672191Y-96350987D01*
X178823078Y-96381000D01*
X178976922Y-96381000D01*
X179127809Y-96350987D01*
X179269942Y-96292113D01*
X179397859Y-96206642D01*
X179498501Y-96106000D01*
X181190409Y-96106000D01*
X185094000Y-100009592D01*
X185094001Y-114201498D01*
X184993358Y-114302141D01*
X184907887Y-114430058D01*
X184849013Y-114572191D01*
X184819000Y-114723078D01*
X184819000Y-114876922D01*
X184849013Y-115027809D01*
X184907887Y-115169942D01*
X184993358Y-115297859D01*
X185102141Y-115406642D01*
X185230058Y-115492113D01*
X185372191Y-115550987D01*
X185523078Y-115581000D01*
X185676922Y-115581000D01*
X185827809Y-115550987D01*
X185969942Y-115492113D01*
X186097859Y-115406642D01*
X186206642Y-115297859D01*
X186292113Y-115169942D01*
X186350987Y-115027809D01*
X186381000Y-114876922D01*
X186381000Y-114723078D01*
X186350987Y-114572191D01*
X186292113Y-114430058D01*
X186206642Y-114302141D01*
X186106000Y-114201499D01*
X186106000Y-99824846D01*
X186108447Y-99800000D01*
X186106000Y-99775154D01*
X186106000Y-99775146D01*
X186098678Y-99700807D01*
X186069745Y-99605425D01*
X186022759Y-99517521D01*
X185959527Y-99440473D01*
X185940220Y-99424628D01*
X181775376Y-95259785D01*
X181759527Y-95240473D01*
X181682479Y-95177241D01*
X181594575Y-95130255D01*
X181499193Y-95101322D01*
X181424854Y-95094000D01*
X181424846Y-95094000D01*
X181400000Y-95091553D01*
X181375154Y-95094000D01*
X179498501Y-95094000D01*
X179397859Y-94993358D01*
X179269942Y-94907887D01*
X179127809Y-94849013D01*
X178976922Y-94819000D01*
X178823078Y-94819000D01*
X178672191Y-94849013D01*
X178530058Y-94907887D01*
X178402141Y-94993358D01*
X178293358Y-95102141D01*
X178207887Y-95230058D01*
X178149013Y-95372191D01*
X178119000Y-95523078D01*
X164306000Y-95523078D01*
X164306000Y-95024845D01*
X164308447Y-94999999D01*
X164306000Y-94975153D01*
X164306000Y-94975146D01*
X164298678Y-94900807D01*
X164269745Y-94805425D01*
X164222759Y-94717521D01*
X164159527Y-94640473D01*
X164140220Y-94624628D01*
X161289478Y-91773887D01*
X161292113Y-91769944D01*
X161350987Y-91627811D01*
X161360744Y-91578757D01*
X168769000Y-91578757D01*
X168769000Y-91821243D01*
X168816307Y-92059069D01*
X168909102Y-92283097D01*
X169043820Y-92484717D01*
X169215283Y-92656180D01*
X169416903Y-92790898D01*
X169640931Y-92883693D01*
X169878757Y-92931000D01*
X170121243Y-92931000D01*
X170359069Y-92883693D01*
X170583097Y-92790898D01*
X170784717Y-92656180D01*
X170956180Y-92484717D01*
X171090898Y-92283097D01*
X171183693Y-92059069D01*
X171231000Y-91821243D01*
X171231000Y-91578757D01*
X171183693Y-91340931D01*
X171090898Y-91116903D01*
X170956180Y-90915283D01*
X170784717Y-90743820D01*
X170583097Y-90609102D01*
X170359069Y-90516307D01*
X170121243Y-90469000D01*
X169878757Y-90469000D01*
X169640931Y-90516307D01*
X169416903Y-90609102D01*
X169215283Y-90743820D01*
X169043820Y-90915283D01*
X168909102Y-91116903D01*
X168816307Y-91340931D01*
X168769000Y-91578757D01*
X161360744Y-91578757D01*
X161381000Y-91476924D01*
X161381000Y-91323080D01*
X161350987Y-91172193D01*
X161292113Y-91030060D01*
X161206642Y-90902143D01*
X161097859Y-90793360D01*
X160969942Y-90707889D01*
X160827809Y-90649015D01*
X160676922Y-90619002D01*
X160523078Y-90619002D01*
X160372191Y-90649015D01*
X160256000Y-90697143D01*
X160256000Y-86498757D01*
X168769000Y-86498757D01*
X168769000Y-86741243D01*
X168816307Y-86979069D01*
X168909102Y-87203097D01*
X169043820Y-87404717D01*
X169215283Y-87576180D01*
X169416903Y-87710898D01*
X169640931Y-87803693D01*
X169878757Y-87851000D01*
X170121243Y-87851000D01*
X170359069Y-87803693D01*
X170583097Y-87710898D01*
X170784717Y-87576180D01*
X170956180Y-87404717D01*
X171090898Y-87203097D01*
X171183693Y-86979069D01*
X171231000Y-86741243D01*
X171231000Y-86598757D01*
X175569000Y-86598757D01*
X175569000Y-86841243D01*
X175616307Y-87079069D01*
X175709102Y-87303097D01*
X175843820Y-87504717D01*
X176015283Y-87676180D01*
X176216903Y-87810898D01*
X176440931Y-87903693D01*
X176678757Y-87951000D01*
X176921243Y-87951000D01*
X177159069Y-87903693D01*
X177383097Y-87810898D01*
X177584717Y-87676180D01*
X177756180Y-87504717D01*
X177890898Y-87303097D01*
X177983693Y-87079069D01*
X178031000Y-86841243D01*
X178031000Y-86598757D01*
X177983693Y-86360931D01*
X177890898Y-86136903D01*
X177756180Y-85935283D01*
X177584717Y-85763820D01*
X177383097Y-85629102D01*
X177159069Y-85536307D01*
X176921243Y-85489000D01*
X176678757Y-85489000D01*
X176440931Y-85536307D01*
X176216903Y-85629102D01*
X176015283Y-85763820D01*
X175843820Y-85935283D01*
X175709102Y-86136903D01*
X175616307Y-86360931D01*
X175569000Y-86598757D01*
X171231000Y-86598757D01*
X171231000Y-86498757D01*
X171183693Y-86260931D01*
X171090898Y-86036903D01*
X170956180Y-85835283D01*
X170784717Y-85663820D01*
X170583097Y-85529102D01*
X170359069Y-85436307D01*
X170121243Y-85389000D01*
X169878757Y-85389000D01*
X169640931Y-85436307D01*
X169416903Y-85529102D01*
X169215283Y-85663820D01*
X169043820Y-85835283D01*
X168909102Y-86036903D01*
X168816307Y-86260931D01*
X168769000Y-86498757D01*
X160256000Y-86498757D01*
X160256000Y-85598501D01*
X160356642Y-85497859D01*
X160442113Y-85369942D01*
X160500987Y-85227809D01*
X160531000Y-85076922D01*
X160531000Y-84923078D01*
X160500987Y-84772191D01*
X160442113Y-84630058D01*
X160356642Y-84502141D01*
X160247859Y-84393358D01*
X160119942Y-84307887D01*
X159977809Y-84249013D01*
X159826922Y-84219000D01*
X159673078Y-84219000D01*
X159522191Y-84249013D01*
X159380058Y-84307887D01*
X159252141Y-84393358D01*
X159143358Y-84502141D01*
X159057887Y-84630058D01*
X158999013Y-84772191D01*
X158969000Y-84923078D01*
X158969000Y-85076922D01*
X158999013Y-85227809D01*
X159057887Y-85369942D01*
X159143358Y-85497859D01*
X159244000Y-85598501D01*
X159244000Y-87255324D01*
X159192113Y-87130058D01*
X159106642Y-87002141D01*
X158997859Y-86893358D01*
X158869942Y-86807887D01*
X158727809Y-86749013D01*
X158576922Y-86719000D01*
X158423078Y-86719000D01*
X158272191Y-86749013D01*
X158130058Y-86807887D01*
X158002141Y-86893358D01*
X157893358Y-87002141D01*
X157807887Y-87130058D01*
X157749013Y-87272191D01*
X157719000Y-87423078D01*
X157719000Y-87576922D01*
X157749013Y-87727809D01*
X157807887Y-87869942D01*
X157893358Y-87997859D01*
X158002141Y-88106642D01*
X158130058Y-88192113D01*
X158272191Y-88250987D01*
X158423078Y-88281000D01*
X158565408Y-88281000D01*
X158694000Y-88409592D01*
X158694001Y-92175144D01*
X158691553Y-92200000D01*
X158701322Y-92299192D01*
X158726882Y-92383453D01*
X158719000Y-92423078D01*
X158719000Y-92576922D01*
X158749013Y-92727809D01*
X158807887Y-92869942D01*
X158893358Y-92997859D01*
X159002141Y-93106642D01*
X159130058Y-93192113D01*
X159272191Y-93250987D01*
X159423078Y-93281000D01*
X159576922Y-93281000D01*
X159727809Y-93250987D01*
X159869942Y-93192113D01*
X159997859Y-93106642D01*
X160106642Y-92997859D01*
X160187801Y-92876395D01*
X162719001Y-95407595D01*
X162719001Y-96553412D01*
X162250375Y-96084786D01*
X162234526Y-96065474D01*
X162157478Y-96002242D01*
X162069574Y-95955256D01*
X161974192Y-95926323D01*
X161899853Y-95919001D01*
X161899845Y-95919001D01*
X161874999Y-95916554D01*
X161850153Y-95919001D01*
X153134593Y-95919001D01*
X153031000Y-95815408D01*
X153031000Y-95673078D01*
X153000987Y-95522191D01*
X152942113Y-95380058D01*
X152856642Y-95252141D01*
X152747859Y-95143358D01*
X152619942Y-95057887D01*
X152477809Y-94999013D01*
X152326922Y-94969000D01*
X152173078Y-94969000D01*
X152022191Y-94999013D01*
X151880058Y-95057887D01*
X151752141Y-95143358D01*
X151643358Y-95252141D01*
X151557887Y-95380058D01*
X151499013Y-95522191D01*
X151469000Y-95673078D01*
X144281000Y-95673078D01*
X144250987Y-95522191D01*
X144192113Y-95380058D01*
X144106642Y-95252141D01*
X143997859Y-95143358D01*
X143869942Y-95057887D01*
X143727809Y-94999013D01*
X143576922Y-94969000D01*
X143423078Y-94969000D01*
X143272191Y-94999013D01*
X143130058Y-95057887D01*
X143002141Y-95143358D01*
X142893358Y-95252141D01*
X142807887Y-95380058D01*
X142749013Y-95522191D01*
X142719000Y-95673078D01*
X142719000Y-95826922D01*
X142749013Y-95977809D01*
X142807887Y-96119942D01*
X142893358Y-96247859D01*
X143002141Y-96356642D01*
X143130058Y-96442113D01*
X143272191Y-96500987D01*
X143423078Y-96531000D01*
X143565409Y-96531000D01*
X144544009Y-97509601D01*
X144544009Y-100528417D01*
X140175376Y-96159785D01*
X140159527Y-96140473D01*
X140082479Y-96077241D01*
X140075523Y-96073523D01*
X140011775Y-96009775D01*
X139995926Y-95990463D01*
X139918878Y-95927231D01*
X139830974Y-95880245D01*
X139735592Y-95851312D01*
X139661253Y-95843990D01*
X139661245Y-95843990D01*
X139636399Y-95841543D01*
X139611553Y-95843990D01*
X138695991Y-95843990D01*
X135756010Y-92904009D01*
X135756010Y-91459581D01*
X136184592Y-91031000D01*
X136326922Y-91031000D01*
X136477809Y-91000987D01*
X136619942Y-90942113D01*
X136747859Y-90856642D01*
X136856642Y-90747859D01*
X136942113Y-90619942D01*
X137000987Y-90477809D01*
X137031000Y-90326922D01*
X137031000Y-90173078D01*
X137000987Y-90022191D01*
X136942113Y-89880058D01*
X136856642Y-89752141D01*
X136747859Y-89643358D01*
X136720384Y-89625000D01*
X136747859Y-89606642D01*
X136856642Y-89497859D01*
X136942113Y-89369942D01*
X137000987Y-89227809D01*
X137031000Y-89076922D01*
X137031000Y-88923078D01*
X137000987Y-88772191D01*
X136942113Y-88630058D01*
X136856642Y-88502141D01*
X136747859Y-88393358D01*
X136619942Y-88307887D01*
X136477809Y-88249013D01*
X136385033Y-88230559D01*
X136815230Y-87800362D01*
X136834537Y-87784517D01*
X136897769Y-87707469D01*
X136944755Y-87619565D01*
X136973688Y-87524183D01*
X136981010Y-87449844D01*
X136981010Y-87449843D01*
X136983458Y-87424990D01*
X136981010Y-87400136D01*
X136981010Y-86025818D01*
X137081652Y-85925176D01*
X137167123Y-85797259D01*
X137225997Y-85655126D01*
X137256010Y-85504239D01*
X137256010Y-85350395D01*
X137225997Y-85199508D01*
X137167123Y-85057375D01*
X137081652Y-84929458D01*
X136972869Y-84820675D01*
X136844952Y-84735204D01*
X136702819Y-84676330D01*
X136551932Y-84646317D01*
X136398088Y-84646317D01*
X136247201Y-84676330D01*
X136105068Y-84735204D01*
X135977151Y-84820675D01*
X135868368Y-84929458D01*
X135782897Y-85057375D01*
X135724023Y-85199508D01*
X135694010Y-85350395D01*
X135694010Y-85504239D01*
X135724023Y-85655126D01*
X135782897Y-85797259D01*
X135868368Y-85925176D01*
X135969011Y-86025819D01*
X135969010Y-87215398D01*
X135281000Y-87903408D01*
X135281000Y-86166072D01*
X135283568Y-86139998D01*
X135281000Y-86113924D01*
X135281000Y-86113914D01*
X135273317Y-86035904D01*
X135242953Y-85935810D01*
X135220262Y-85893358D01*
X135193646Y-85843562D01*
X135143918Y-85782968D01*
X135143912Y-85782962D01*
X135127290Y-85762708D01*
X135107035Y-85746086D01*
X134003923Y-84642975D01*
X133987292Y-84622710D01*
X133906437Y-84556354D01*
X133814190Y-84507047D01*
X133714096Y-84476683D01*
X133636086Y-84469000D01*
X133636076Y-84469000D01*
X133610002Y-84466432D01*
X133583928Y-84469000D01*
X131073501Y-84469000D01*
X130997859Y-84393358D01*
X130869942Y-84307887D01*
X130727809Y-84249013D01*
X130576922Y-84219000D01*
X130423078Y-84219000D01*
X130272191Y-84249013D01*
X130130058Y-84307887D01*
X130002141Y-84393358D01*
X129893358Y-84502141D01*
X129807887Y-84630058D01*
X129749013Y-84772191D01*
X129719000Y-84923078D01*
X129719000Y-85076922D01*
X129749013Y-85227809D01*
X129807887Y-85369942D01*
X129893358Y-85497859D01*
X130002141Y-85606642D01*
X130130058Y-85692113D01*
X130272191Y-85750987D01*
X130423078Y-85781000D01*
X130576922Y-85781000D01*
X130727809Y-85750987D01*
X130869942Y-85692113D01*
X130997859Y-85606642D01*
X131073501Y-85531000D01*
X133390056Y-85531000D01*
X133656139Y-85797084D01*
X133630058Y-85807887D01*
X133502141Y-85893358D01*
X133401499Y-85994000D01*
X123909220Y-85994000D01*
X123992113Y-85869942D01*
X124050987Y-85727809D01*
X124081000Y-85576922D01*
X124081000Y-85469947D01*
X124093916Y-85457031D01*
X124093920Y-85457026D01*
X125592189Y-83958757D01*
X168769000Y-83958757D01*
X168769000Y-84201243D01*
X168816307Y-84439069D01*
X168909102Y-84663097D01*
X169043820Y-84864717D01*
X169215283Y-85036180D01*
X169416903Y-85170898D01*
X169640931Y-85263693D01*
X169878757Y-85311000D01*
X170121243Y-85311000D01*
X170359069Y-85263693D01*
X170583097Y-85170898D01*
X170784717Y-85036180D01*
X170956180Y-84864717D01*
X171090898Y-84663097D01*
X171183693Y-84439069D01*
X171231000Y-84201243D01*
X171231000Y-84058757D01*
X175569000Y-84058757D01*
X175569000Y-84301243D01*
X175616307Y-84539069D01*
X175709102Y-84763097D01*
X175843820Y-84964717D01*
X176015283Y-85136180D01*
X176216903Y-85270898D01*
X176440931Y-85363693D01*
X176678757Y-85411000D01*
X176921243Y-85411000D01*
X177159069Y-85363693D01*
X177383097Y-85270898D01*
X177584717Y-85136180D01*
X177756180Y-84964717D01*
X177890898Y-84763097D01*
X177983693Y-84539069D01*
X178031000Y-84301243D01*
X178031000Y-84058757D01*
X177983693Y-83820931D01*
X177890898Y-83596903D01*
X177756180Y-83395283D01*
X177584717Y-83223820D01*
X177383097Y-83089102D01*
X177159069Y-82996307D01*
X176921243Y-82949000D01*
X176678757Y-82949000D01*
X176440931Y-82996307D01*
X176216903Y-83089102D01*
X176015283Y-83223820D01*
X175843820Y-83395283D01*
X175709102Y-83596903D01*
X175616307Y-83820931D01*
X175569000Y-84058757D01*
X171231000Y-84058757D01*
X171231000Y-83958757D01*
X171183693Y-83720931D01*
X171090898Y-83496903D01*
X170956180Y-83295283D01*
X170784717Y-83123820D01*
X170583097Y-82989102D01*
X170359069Y-82896307D01*
X170121243Y-82849000D01*
X169878757Y-82849000D01*
X169640931Y-82896307D01*
X169416903Y-82989102D01*
X169215283Y-83123820D01*
X169043820Y-83295283D01*
X168909102Y-83496903D01*
X168816307Y-83720931D01*
X168769000Y-83958757D01*
X125592189Y-83958757D01*
X125619937Y-83931010D01*
X135473916Y-83931010D01*
X135499990Y-83933578D01*
X135526064Y-83931010D01*
X135526074Y-83931010D01*
X135604084Y-83923327D01*
X135704178Y-83892963D01*
X135796425Y-83843656D01*
X135872772Y-83781000D01*
X135976922Y-83781000D01*
X136127809Y-83750987D01*
X136269942Y-83692113D01*
X136397859Y-83606642D01*
X136506642Y-83497859D01*
X136592113Y-83369942D01*
X136650987Y-83227809D01*
X136681000Y-83076922D01*
X136681000Y-82923078D01*
X136650987Y-82772191D01*
X136592113Y-82630058D01*
X136506642Y-82502141D01*
X136404501Y-82400000D01*
X136506642Y-82297859D01*
X136592113Y-82169942D01*
X136650987Y-82027809D01*
X136681000Y-81876922D01*
X136681000Y-81723078D01*
X136650987Y-81572191D01*
X136592113Y-81430058D01*
X136584562Y-81418757D01*
X168769000Y-81418757D01*
X168769000Y-81661243D01*
X168816307Y-81899069D01*
X168909102Y-82123097D01*
X169043820Y-82324717D01*
X169215283Y-82496180D01*
X169416903Y-82630898D01*
X169640931Y-82723693D01*
X169878757Y-82771000D01*
X170121243Y-82771000D01*
X170359069Y-82723693D01*
X170583097Y-82630898D01*
X170784717Y-82496180D01*
X170956180Y-82324717D01*
X171090898Y-82123097D01*
X171183693Y-81899069D01*
X171231000Y-81661243D01*
X171231000Y-81518757D01*
X175569000Y-81518757D01*
X175569000Y-81761243D01*
X175616307Y-81999069D01*
X175709102Y-82223097D01*
X175843820Y-82424717D01*
X176015283Y-82596180D01*
X176216903Y-82730898D01*
X176440931Y-82823693D01*
X176678757Y-82871000D01*
X176921243Y-82871000D01*
X177159069Y-82823693D01*
X177383097Y-82730898D01*
X177584717Y-82596180D01*
X177756180Y-82424717D01*
X177890898Y-82223097D01*
X177983693Y-81999069D01*
X178031000Y-81761243D01*
X178031000Y-81518757D01*
X177983693Y-81280931D01*
X177890898Y-81056903D01*
X177756180Y-80855283D01*
X177584717Y-80683820D01*
X177383097Y-80549102D01*
X177159069Y-80456307D01*
X176921243Y-80409000D01*
X176678757Y-80409000D01*
X176440931Y-80456307D01*
X176216903Y-80549102D01*
X176015283Y-80683820D01*
X175843820Y-80855283D01*
X175709102Y-81056903D01*
X175616307Y-81280931D01*
X175569000Y-81518757D01*
X171231000Y-81518757D01*
X171231000Y-81418757D01*
X171183693Y-81180931D01*
X171090898Y-80956903D01*
X170956180Y-80755283D01*
X170784717Y-80583820D01*
X170583097Y-80449102D01*
X170359069Y-80356307D01*
X170121243Y-80309000D01*
X169878757Y-80309000D01*
X169640931Y-80356307D01*
X169416903Y-80449102D01*
X169215283Y-80583820D01*
X169043820Y-80755283D01*
X168909102Y-80956903D01*
X168816307Y-81180931D01*
X168769000Y-81418757D01*
X136584562Y-81418757D01*
X136506642Y-81302141D01*
X136404501Y-81200000D01*
X136506642Y-81097859D01*
X136592113Y-80969942D01*
X136650987Y-80827809D01*
X136681000Y-80676922D01*
X136681000Y-80523078D01*
X136650987Y-80372191D01*
X136592113Y-80230058D01*
X136506642Y-80102141D01*
X136397859Y-79993358D01*
X136269942Y-79907887D01*
X136127809Y-79849013D01*
X135976922Y-79819000D01*
X135823078Y-79819000D01*
X135672191Y-79849013D01*
X135530058Y-79907887D01*
X135402141Y-79993358D01*
X135293358Y-80102141D01*
X135207887Y-80230058D01*
X135149013Y-80372191D01*
X135119000Y-80523078D01*
X135119000Y-80630053D01*
X134030053Y-81719001D01*
X118476073Y-81719001D01*
X118449999Y-81716433D01*
X118423925Y-81719001D01*
X118423915Y-81719001D01*
X118345905Y-81726684D01*
X118245811Y-81757048D01*
X118153563Y-81806355D01*
X118092969Y-81856083D01*
X118092963Y-81856089D01*
X118072709Y-81872711D01*
X118056087Y-81892965D01*
X115242974Y-84706080D01*
X115242969Y-84706084D01*
X115230053Y-84719000D01*
X115123078Y-84719000D01*
X114972191Y-84749013D01*
X114830058Y-84807887D01*
X114702141Y-84893358D01*
X114593358Y-85002141D01*
X114507887Y-85130058D01*
X114449013Y-85272191D01*
X114419000Y-85423078D01*
X102206000Y-85423078D01*
X102206000Y-78647302D01*
X102219000Y-78647302D01*
X102219000Y-79352698D01*
X102356616Y-80044539D01*
X102626559Y-80696240D01*
X103018456Y-81282754D01*
X103517246Y-81781544D01*
X104103760Y-82173441D01*
X104755461Y-82443384D01*
X105447302Y-82581000D01*
X106152698Y-82581000D01*
X106844539Y-82443384D01*
X107496240Y-82173441D01*
X108082754Y-81781544D01*
X108581544Y-81282754D01*
X108973441Y-80696240D01*
X109243384Y-80044539D01*
X109381000Y-79352698D01*
X109381000Y-78647302D01*
X109282081Y-78150000D01*
X168767157Y-78150000D01*
X168767157Y-79850000D01*
X168774513Y-79924689D01*
X168796299Y-79996508D01*
X168831678Y-80062696D01*
X168879289Y-80120711D01*
X168937304Y-80168322D01*
X169003492Y-80203701D01*
X169075311Y-80225487D01*
X169150000Y-80232843D01*
X170850000Y-80232843D01*
X170924689Y-80225487D01*
X170996508Y-80203701D01*
X171062696Y-80168322D01*
X171120711Y-80120711D01*
X171168322Y-80062696D01*
X171203701Y-79996508D01*
X171225487Y-79924689D01*
X171232843Y-79850000D01*
X171232843Y-78647302D01*
X181619000Y-78647302D01*
X181619000Y-79352698D01*
X181756616Y-80044539D01*
X182026559Y-80696240D01*
X182418456Y-81282754D01*
X182917246Y-81781544D01*
X183503760Y-82173441D01*
X184155461Y-82443384D01*
X184847302Y-82581000D01*
X185552698Y-82581000D01*
X186244539Y-82443384D01*
X186896240Y-82173441D01*
X187482754Y-81781544D01*
X187981544Y-81282754D01*
X188373441Y-80696240D01*
X188643384Y-80044539D01*
X188781000Y-79352698D01*
X188781000Y-78647302D01*
X188643384Y-77955461D01*
X188373441Y-77303760D01*
X187981544Y-76717246D01*
X187482754Y-76218456D01*
X186896240Y-75826559D01*
X186244539Y-75556616D01*
X185552698Y-75419000D01*
X184847302Y-75419000D01*
X184155461Y-75556616D01*
X183503760Y-75826559D01*
X182917246Y-76218456D01*
X182418456Y-76717246D01*
X182026559Y-77303760D01*
X181756616Y-77955461D01*
X181619000Y-78647302D01*
X171232843Y-78647302D01*
X171232843Y-78150000D01*
X171225487Y-78075311D01*
X171203701Y-78003492D01*
X171168322Y-77937304D01*
X171120711Y-77879289D01*
X171062696Y-77831678D01*
X170996508Y-77796299D01*
X170924689Y-77774513D01*
X170850000Y-77767157D01*
X169150000Y-77767157D01*
X169075311Y-77774513D01*
X169003492Y-77796299D01*
X168937304Y-77831678D01*
X168879289Y-77879289D01*
X168831678Y-77937304D01*
X168796299Y-78003492D01*
X168774513Y-78075311D01*
X168767157Y-78150000D01*
X109282081Y-78150000D01*
X109243384Y-77955461D01*
X108973441Y-77303760D01*
X108581544Y-76717246D01*
X108082754Y-76218456D01*
X107496240Y-75826559D01*
X106844539Y-75556616D01*
X106152698Y-75419000D01*
X105447302Y-75419000D01*
X104755461Y-75556616D01*
X104103760Y-75826559D01*
X103517246Y-76218456D01*
X103018456Y-76717246D01*
X102626559Y-77303760D01*
X102356616Y-77955461D01*
X102219000Y-78647302D01*
X102206000Y-78647302D01*
X102206000Y-78019854D01*
X102257312Y-77496537D01*
X102403529Y-77012244D01*
X102641025Y-76565578D01*
X102960755Y-76173550D01*
X103350539Y-75851093D01*
X103795540Y-75610482D01*
X104278796Y-75460889D01*
X104801029Y-75406000D01*
X186180146Y-75406000D01*
X186703463Y-75457312D01*
G36*
X142193968Y-122884251D02*
G01*
X142193968Y-123026581D01*
X142223981Y-123177468D01*
X142251544Y-123244011D01*
X139423192Y-123244011D01*
X133838965Y-117659784D01*
X133823116Y-117640472D01*
X133746068Y-117577240D01*
X133658164Y-117530254D01*
X133562782Y-117501321D01*
X133488443Y-117493999D01*
X133488435Y-117493999D01*
X133463589Y-117491552D01*
X133438743Y-117493999D01*
X132994281Y-117493999D01*
X133000987Y-117477809D01*
X133031000Y-117326922D01*
X133031000Y-117173078D01*
X133000987Y-117022191D01*
X132994280Y-117006000D01*
X136315718Y-117006000D01*
X142193968Y-122884251D01*
G37*
X142193968Y-122884251D02*
X142193968Y-123026581D01*
X142223981Y-123177468D01*
X142251544Y-123244011D01*
X139423192Y-123244011D01*
X133838965Y-117659784D01*
X133823116Y-117640472D01*
X133746068Y-117577240D01*
X133658164Y-117530254D01*
X133562782Y-117501321D01*
X133488443Y-117493999D01*
X133488435Y-117493999D01*
X133463589Y-117491552D01*
X133438743Y-117493999D01*
X132994281Y-117493999D01*
X133000987Y-117477809D01*
X133031000Y-117326922D01*
X133031000Y-117173078D01*
X133000987Y-117022191D01*
X132994280Y-117006000D01*
X136315718Y-117006000D01*
X142193968Y-122884251D01*
G36*
X132856075Y-89607031D02*
G01*
X132872702Y-89627291D01*
X132892962Y-89643918D01*
X132953556Y-89693647D01*
X133043183Y-89741553D01*
X133045804Y-89742954D01*
X133145898Y-89773318D01*
X133223908Y-89781001D01*
X133223917Y-89781001D01*
X133249991Y-89783569D01*
X133276065Y-89781001D01*
X133343990Y-89781001D01*
X133343991Y-93898136D01*
X133341543Y-93922992D01*
X133351312Y-94022184D01*
X133380245Y-94117566D01*
X133380246Y-94117567D01*
X133427232Y-94205471D01*
X133490464Y-94282519D01*
X133509771Y-94298364D01*
X140494000Y-101282594D01*
X140494001Y-102553997D01*
X139253999Y-103794000D01*
X138509591Y-103794000D01*
X138400385Y-103684794D01*
X138384536Y-103665482D01*
X138307488Y-103602250D01*
X138219584Y-103555264D01*
X138124202Y-103526331D01*
X138049863Y-103519009D01*
X138049855Y-103519009D01*
X138025009Y-103516562D01*
X138000163Y-103519009D01*
X137176853Y-103519009D01*
X137151999Y-103516561D01*
X137127145Y-103519009D01*
X137052806Y-103526331D01*
X136957424Y-103555264D01*
X136869520Y-103602250D01*
X136792472Y-103665482D01*
X136776627Y-103684789D01*
X136434784Y-104026633D01*
X136415472Y-104042482D01*
X136352240Y-104119530D01*
X136305254Y-104207435D01*
X136276321Y-104302817D01*
X136268999Y-104377156D01*
X136268999Y-104377163D01*
X136266552Y-104402009D01*
X136268999Y-104426856D01*
X136269000Y-105073155D01*
X136266552Y-105098011D01*
X136276321Y-105197203D01*
X136305254Y-105292585D01*
X136327126Y-105333503D01*
X136352241Y-105380490D01*
X136415473Y-105457538D01*
X136434779Y-105473382D01*
X136776627Y-105815231D01*
X136792472Y-105834538D01*
X136869520Y-105897770D01*
X136940220Y-105935560D01*
X136957424Y-105944756D01*
X137052806Y-105973689D01*
X137151999Y-105983459D01*
X137176853Y-105981011D01*
X140000143Y-105981011D01*
X140024989Y-105983458D01*
X140049835Y-105981011D01*
X140049843Y-105981011D01*
X140124182Y-105973689D01*
X140219564Y-105944756D01*
X140307468Y-105897770D01*
X140384516Y-105834538D01*
X140400365Y-105815226D01*
X140434591Y-105781000D01*
X140576922Y-105781000D01*
X140727809Y-105750987D01*
X140869942Y-105692113D01*
X140997859Y-105606642D01*
X141106642Y-105497859D01*
X141192113Y-105369942D01*
X141250987Y-105227809D01*
X141281000Y-105076922D01*
X141281000Y-104923078D01*
X141250987Y-104772191D01*
X141192113Y-104630058D01*
X141106642Y-104502141D01*
X140997859Y-104393358D01*
X140869942Y-104307887D01*
X140825934Y-104289658D01*
X141840220Y-103275372D01*
X141859527Y-103259527D01*
X141922759Y-103182479D01*
X141969745Y-103094575D01*
X141981670Y-103055264D01*
X141998678Y-102999194D01*
X142002988Y-102955435D01*
X142006000Y-102924854D01*
X142006000Y-102924847D01*
X142008447Y-102900001D01*
X142006000Y-102875155D01*
X142006000Y-100721592D01*
X143193979Y-101909571D01*
X143193978Y-122196922D01*
X143051890Y-122168659D01*
X142909560Y-122168659D01*
X136900685Y-116159785D01*
X136884836Y-116140473D01*
X136807788Y-116077241D01*
X136719884Y-116030255D01*
X136624502Y-116001322D01*
X136550163Y-115994000D01*
X136550155Y-115994000D01*
X136525309Y-115991553D01*
X136500463Y-115994000D01*
X131809592Y-115994000D01*
X121593328Y-105777737D01*
X121727809Y-105750987D01*
X121869942Y-105692113D01*
X121997859Y-105606642D01*
X122106642Y-105497859D01*
X122192113Y-105369942D01*
X122250987Y-105227809D01*
X122281000Y-105076922D01*
X122281000Y-104923078D01*
X122250987Y-104772191D01*
X122192113Y-104630058D01*
X122106642Y-104502141D01*
X122031000Y-104426499D01*
X122031000Y-104415073D01*
X122033568Y-104388999D01*
X122031000Y-104362925D01*
X122031000Y-104362915D01*
X122023317Y-104284905D01*
X121992953Y-104184811D01*
X121943646Y-104092563D01*
X121893918Y-104031969D01*
X121893912Y-104031963D01*
X121877290Y-104011709D01*
X121857036Y-103995087D01*
X117931000Y-100069053D01*
X117931000Y-91319946D01*
X120919948Y-88331000D01*
X131580045Y-88331000D01*
X132856075Y-89607031D01*
G37*
X132856075Y-89607031D02*
X132872702Y-89627291D01*
X132892962Y-89643918D01*
X132953556Y-89693647D01*
X133043183Y-89741553D01*
X133045804Y-89742954D01*
X133145898Y-89773318D01*
X133223908Y-89781001D01*
X133223917Y-89781001D01*
X133249991Y-89783569D01*
X133276065Y-89781001D01*
X133343990Y-89781001D01*
X133343991Y-93898136D01*
X133341543Y-93922992D01*
X133351312Y-94022184D01*
X133380245Y-94117566D01*
X133380246Y-94117567D01*
X133427232Y-94205471D01*
X133490464Y-94282519D01*
X133509771Y-94298364D01*
X140494000Y-101282594D01*
X140494001Y-102553997D01*
X139253999Y-103794000D01*
X138509591Y-103794000D01*
X138400385Y-103684794D01*
X138384536Y-103665482D01*
X138307488Y-103602250D01*
X138219584Y-103555264D01*
X138124202Y-103526331D01*
X138049863Y-103519009D01*
X138049855Y-103519009D01*
X138025009Y-103516562D01*
X138000163Y-103519009D01*
X137176853Y-103519009D01*
X137151999Y-103516561D01*
X137127145Y-103519009D01*
X137052806Y-103526331D01*
X136957424Y-103555264D01*
X136869520Y-103602250D01*
X136792472Y-103665482D01*
X136776627Y-103684789D01*
X136434784Y-104026633D01*
X136415472Y-104042482D01*
X136352240Y-104119530D01*
X136305254Y-104207435D01*
X136276321Y-104302817D01*
X136268999Y-104377156D01*
X136268999Y-104377163D01*
X136266552Y-104402009D01*
X136268999Y-104426856D01*
X136269000Y-105073155D01*
X136266552Y-105098011D01*
X136276321Y-105197203D01*
X136305254Y-105292585D01*
X136327126Y-105333503D01*
X136352241Y-105380490D01*
X136415473Y-105457538D01*
X136434779Y-105473382D01*
X136776627Y-105815231D01*
X136792472Y-105834538D01*
X136869520Y-105897770D01*
X136940220Y-105935560D01*
X136957424Y-105944756D01*
X137052806Y-105973689D01*
X137151999Y-105983459D01*
X137176853Y-105981011D01*
X140000143Y-105981011D01*
X140024989Y-105983458D01*
X140049835Y-105981011D01*
X140049843Y-105981011D01*
X140124182Y-105973689D01*
X140219564Y-105944756D01*
X140307468Y-105897770D01*
X140384516Y-105834538D01*
X140400365Y-105815226D01*
X140434591Y-105781000D01*
X140576922Y-105781000D01*
X140727809Y-105750987D01*
X140869942Y-105692113D01*
X140997859Y-105606642D01*
X141106642Y-105497859D01*
X141192113Y-105369942D01*
X141250987Y-105227809D01*
X141281000Y-105076922D01*
X141281000Y-104923078D01*
X141250987Y-104772191D01*
X141192113Y-104630058D01*
X141106642Y-104502141D01*
X140997859Y-104393358D01*
X140869942Y-104307887D01*
X140825934Y-104289658D01*
X141840220Y-103275372D01*
X141859527Y-103259527D01*
X141922759Y-103182479D01*
X141969745Y-103094575D01*
X141981670Y-103055264D01*
X141998678Y-102999194D01*
X142002988Y-102955435D01*
X142006000Y-102924854D01*
X142006000Y-102924847D01*
X142008447Y-102900001D01*
X142006000Y-102875155D01*
X142006000Y-100721592D01*
X143193979Y-101909571D01*
X143193978Y-122196922D01*
X143051890Y-122168659D01*
X142909560Y-122168659D01*
X136900685Y-116159785D01*
X136884836Y-116140473D01*
X136807788Y-116077241D01*
X136719884Y-116030255D01*
X136624502Y-116001322D01*
X136550163Y-115994000D01*
X136550155Y-115994000D01*
X136525309Y-115991553D01*
X136500463Y-115994000D01*
X131809592Y-115994000D01*
X121593328Y-105777737D01*
X121727809Y-105750987D01*
X121869942Y-105692113D01*
X121997859Y-105606642D01*
X122106642Y-105497859D01*
X122192113Y-105369942D01*
X122250987Y-105227809D01*
X122281000Y-105076922D01*
X122281000Y-104923078D01*
X122250987Y-104772191D01*
X122192113Y-104630058D01*
X122106642Y-104502141D01*
X122031000Y-104426499D01*
X122031000Y-104415073D01*
X122033568Y-104388999D01*
X122031000Y-104362925D01*
X122031000Y-104362915D01*
X122023317Y-104284905D01*
X121992953Y-104184811D01*
X121943646Y-104092563D01*
X121893918Y-104031969D01*
X121893912Y-104031963D01*
X121877290Y-104011709D01*
X121857036Y-103995087D01*
X117931000Y-100069053D01*
X117931000Y-91319946D01*
X120919948Y-88331000D01*
X131580045Y-88331000D01*
X132856075Y-89607031D01*
M02*
