G04 #@! TF.GenerationSoftware,KiCad,Pcbnew,(5.1.5-0-10_14)*
G04 #@! TF.CreationDate,2020-08-11T13:59:42+10:00*
G04 #@! TF.ProjectId,esp32_battery_isolator,65737033-325f-4626-9174-746572795f69,rev?*
G04 #@! TF.SameCoordinates,Original*
G04 #@! TF.FileFunction,Paste,Top*
G04 #@! TF.FilePolarity,Positive*
%FSLAX46Y46*%
G04 Gerber Fmt 4.6, Leading zero omitted, Abs format (unit mm)*
G04 Created by KiCad (PCBNEW (5.1.5-0-10_14)) date 2020-08-11 13:59:42*
%MOMM*%
%LPD*%
G04 APERTURE LIST*
%ADD10C,0.100000*%
%ADD11R,0.400000X0.750000*%
%ADD12R,1.500000X1.500000*%
%ADD13R,0.500000X0.750000*%
%ADD14R,1.300000X1.550000*%
%ADD15R,0.650000X1.060000*%
%ADD16R,5.000000X5.000000*%
%ADD17R,2.000000X0.900000*%
%ADD18R,0.900000X2.000000*%
%ADD19R,1.800000X1.700000*%
%ADD20R,0.900000X0.600000*%
%ADD21R,0.500000X1.600000*%
G04 APERTURE END LIST*
D10*
G36*
X133280142Y-86888674D02*
G01*
X133303803Y-86892184D01*
X133327007Y-86897996D01*
X133349529Y-86906054D01*
X133371153Y-86916282D01*
X133391670Y-86928579D01*
X133410883Y-86942829D01*
X133428607Y-86958893D01*
X133444671Y-86976617D01*
X133458921Y-86995830D01*
X133471218Y-87016347D01*
X133481446Y-87037971D01*
X133489504Y-87060493D01*
X133495316Y-87083697D01*
X133498826Y-87107358D01*
X133500000Y-87131250D01*
X133500000Y-87618750D01*
X133498826Y-87642642D01*
X133495316Y-87666303D01*
X133489504Y-87689507D01*
X133481446Y-87712029D01*
X133471218Y-87733653D01*
X133458921Y-87754170D01*
X133444671Y-87773383D01*
X133428607Y-87791107D01*
X133410883Y-87807171D01*
X133391670Y-87821421D01*
X133371153Y-87833718D01*
X133349529Y-87843946D01*
X133327007Y-87852004D01*
X133303803Y-87857816D01*
X133280142Y-87861326D01*
X133256250Y-87862500D01*
X132343750Y-87862500D01*
X132319858Y-87861326D01*
X132296197Y-87857816D01*
X132272993Y-87852004D01*
X132250471Y-87843946D01*
X132228847Y-87833718D01*
X132208330Y-87821421D01*
X132189117Y-87807171D01*
X132171393Y-87791107D01*
X132155329Y-87773383D01*
X132141079Y-87754170D01*
X132128782Y-87733653D01*
X132118554Y-87712029D01*
X132110496Y-87689507D01*
X132104684Y-87666303D01*
X132101174Y-87642642D01*
X132100000Y-87618750D01*
X132100000Y-87131250D01*
X132101174Y-87107358D01*
X132104684Y-87083697D01*
X132110496Y-87060493D01*
X132118554Y-87037971D01*
X132128782Y-87016347D01*
X132141079Y-86995830D01*
X132155329Y-86976617D01*
X132171393Y-86958893D01*
X132189117Y-86942829D01*
X132208330Y-86928579D01*
X132228847Y-86916282D01*
X132250471Y-86906054D01*
X132272993Y-86897996D01*
X132296197Y-86892184D01*
X132319858Y-86888674D01*
X132343750Y-86887500D01*
X133256250Y-86887500D01*
X133280142Y-86888674D01*
G37*
G36*
X133280142Y-85013674D02*
G01*
X133303803Y-85017184D01*
X133327007Y-85022996D01*
X133349529Y-85031054D01*
X133371153Y-85041282D01*
X133391670Y-85053579D01*
X133410883Y-85067829D01*
X133428607Y-85083893D01*
X133444671Y-85101617D01*
X133458921Y-85120830D01*
X133471218Y-85141347D01*
X133481446Y-85162971D01*
X133489504Y-85185493D01*
X133495316Y-85208697D01*
X133498826Y-85232358D01*
X133500000Y-85256250D01*
X133500000Y-85743750D01*
X133498826Y-85767642D01*
X133495316Y-85791303D01*
X133489504Y-85814507D01*
X133481446Y-85837029D01*
X133471218Y-85858653D01*
X133458921Y-85879170D01*
X133444671Y-85898383D01*
X133428607Y-85916107D01*
X133410883Y-85932171D01*
X133391670Y-85946421D01*
X133371153Y-85958718D01*
X133349529Y-85968946D01*
X133327007Y-85977004D01*
X133303803Y-85982816D01*
X133280142Y-85986326D01*
X133256250Y-85987500D01*
X132343750Y-85987500D01*
X132319858Y-85986326D01*
X132296197Y-85982816D01*
X132272993Y-85977004D01*
X132250471Y-85968946D01*
X132228847Y-85958718D01*
X132208330Y-85946421D01*
X132189117Y-85932171D01*
X132171393Y-85916107D01*
X132155329Y-85898383D01*
X132141079Y-85879170D01*
X132128782Y-85858653D01*
X132118554Y-85837029D01*
X132110496Y-85814507D01*
X132104684Y-85791303D01*
X132101174Y-85767642D01*
X132100000Y-85743750D01*
X132100000Y-85256250D01*
X132101174Y-85232358D01*
X132104684Y-85208697D01*
X132110496Y-85185493D01*
X132118554Y-85162971D01*
X132128782Y-85141347D01*
X132141079Y-85120830D01*
X132155329Y-85101617D01*
X132171393Y-85083893D01*
X132189117Y-85067829D01*
X132208330Y-85053579D01*
X132228847Y-85041282D01*
X132250471Y-85031054D01*
X132272993Y-85022996D01*
X132296197Y-85017184D01*
X132319858Y-85013674D01*
X132343750Y-85012500D01*
X133256250Y-85012500D01*
X133280142Y-85013674D01*
G37*
G36*
X128830142Y-89801174D02*
G01*
X128853803Y-89804684D01*
X128877007Y-89810496D01*
X128899529Y-89818554D01*
X128921153Y-89828782D01*
X128941670Y-89841079D01*
X128960883Y-89855329D01*
X128978607Y-89871393D01*
X128994671Y-89889117D01*
X129008921Y-89908330D01*
X129021218Y-89928847D01*
X129031446Y-89950471D01*
X129039504Y-89972993D01*
X129045316Y-89996197D01*
X129048826Y-90019858D01*
X129050000Y-90043750D01*
X129050000Y-90956250D01*
X129048826Y-90980142D01*
X129045316Y-91003803D01*
X129039504Y-91027007D01*
X129031446Y-91049529D01*
X129021218Y-91071153D01*
X129008921Y-91091670D01*
X128994671Y-91110883D01*
X128978607Y-91128607D01*
X128960883Y-91144671D01*
X128941670Y-91158921D01*
X128921153Y-91171218D01*
X128899529Y-91181446D01*
X128877007Y-91189504D01*
X128853803Y-91195316D01*
X128830142Y-91198826D01*
X128806250Y-91200000D01*
X128318750Y-91200000D01*
X128294858Y-91198826D01*
X128271197Y-91195316D01*
X128247993Y-91189504D01*
X128225471Y-91181446D01*
X128203847Y-91171218D01*
X128183330Y-91158921D01*
X128164117Y-91144671D01*
X128146393Y-91128607D01*
X128130329Y-91110883D01*
X128116079Y-91091670D01*
X128103782Y-91071153D01*
X128093554Y-91049529D01*
X128085496Y-91027007D01*
X128079684Y-91003803D01*
X128076174Y-90980142D01*
X128075000Y-90956250D01*
X128075000Y-90043750D01*
X128076174Y-90019858D01*
X128079684Y-89996197D01*
X128085496Y-89972993D01*
X128093554Y-89950471D01*
X128103782Y-89928847D01*
X128116079Y-89908330D01*
X128130329Y-89889117D01*
X128146393Y-89871393D01*
X128164117Y-89855329D01*
X128183330Y-89841079D01*
X128203847Y-89828782D01*
X128225471Y-89818554D01*
X128247993Y-89810496D01*
X128271197Y-89804684D01*
X128294858Y-89801174D01*
X128318750Y-89800000D01*
X128806250Y-89800000D01*
X128830142Y-89801174D01*
G37*
G36*
X130705142Y-89801174D02*
G01*
X130728803Y-89804684D01*
X130752007Y-89810496D01*
X130774529Y-89818554D01*
X130796153Y-89828782D01*
X130816670Y-89841079D01*
X130835883Y-89855329D01*
X130853607Y-89871393D01*
X130869671Y-89889117D01*
X130883921Y-89908330D01*
X130896218Y-89928847D01*
X130906446Y-89950471D01*
X130914504Y-89972993D01*
X130920316Y-89996197D01*
X130923826Y-90019858D01*
X130925000Y-90043750D01*
X130925000Y-90956250D01*
X130923826Y-90980142D01*
X130920316Y-91003803D01*
X130914504Y-91027007D01*
X130906446Y-91049529D01*
X130896218Y-91071153D01*
X130883921Y-91091670D01*
X130869671Y-91110883D01*
X130853607Y-91128607D01*
X130835883Y-91144671D01*
X130816670Y-91158921D01*
X130796153Y-91171218D01*
X130774529Y-91181446D01*
X130752007Y-91189504D01*
X130728803Y-91195316D01*
X130705142Y-91198826D01*
X130681250Y-91200000D01*
X130193750Y-91200000D01*
X130169858Y-91198826D01*
X130146197Y-91195316D01*
X130122993Y-91189504D01*
X130100471Y-91181446D01*
X130078847Y-91171218D01*
X130058330Y-91158921D01*
X130039117Y-91144671D01*
X130021393Y-91128607D01*
X130005329Y-91110883D01*
X129991079Y-91091670D01*
X129978782Y-91071153D01*
X129968554Y-91049529D01*
X129960496Y-91027007D01*
X129954684Y-91003803D01*
X129951174Y-90980142D01*
X129950000Y-90956250D01*
X129950000Y-90043750D01*
X129951174Y-90019858D01*
X129954684Y-89996197D01*
X129960496Y-89972993D01*
X129968554Y-89950471D01*
X129978782Y-89928847D01*
X129991079Y-89908330D01*
X130005329Y-89889117D01*
X130021393Y-89871393D01*
X130039117Y-89855329D01*
X130058330Y-89841079D01*
X130078847Y-89828782D01*
X130100471Y-89818554D01*
X130122993Y-89810496D01*
X130146197Y-89804684D01*
X130169858Y-89801174D01*
X130193750Y-89800000D01*
X130681250Y-89800000D01*
X130705142Y-89801174D01*
G37*
G36*
X132505142Y-80801174D02*
G01*
X132528803Y-80804684D01*
X132552007Y-80810496D01*
X132574529Y-80818554D01*
X132596153Y-80828782D01*
X132616670Y-80841079D01*
X132635883Y-80855329D01*
X132653607Y-80871393D01*
X132669671Y-80889117D01*
X132683921Y-80908330D01*
X132696218Y-80928847D01*
X132706446Y-80950471D01*
X132714504Y-80972993D01*
X132720316Y-80996197D01*
X132723826Y-81019858D01*
X132725000Y-81043750D01*
X132725000Y-81956250D01*
X132723826Y-81980142D01*
X132720316Y-82003803D01*
X132714504Y-82027007D01*
X132706446Y-82049529D01*
X132696218Y-82071153D01*
X132683921Y-82091670D01*
X132669671Y-82110883D01*
X132653607Y-82128607D01*
X132635883Y-82144671D01*
X132616670Y-82158921D01*
X132596153Y-82171218D01*
X132574529Y-82181446D01*
X132552007Y-82189504D01*
X132528803Y-82195316D01*
X132505142Y-82198826D01*
X132481250Y-82200000D01*
X131993750Y-82200000D01*
X131969858Y-82198826D01*
X131946197Y-82195316D01*
X131922993Y-82189504D01*
X131900471Y-82181446D01*
X131878847Y-82171218D01*
X131858330Y-82158921D01*
X131839117Y-82144671D01*
X131821393Y-82128607D01*
X131805329Y-82110883D01*
X131791079Y-82091670D01*
X131778782Y-82071153D01*
X131768554Y-82049529D01*
X131760496Y-82027007D01*
X131754684Y-82003803D01*
X131751174Y-81980142D01*
X131750000Y-81956250D01*
X131750000Y-81043750D01*
X131751174Y-81019858D01*
X131754684Y-80996197D01*
X131760496Y-80972993D01*
X131768554Y-80950471D01*
X131778782Y-80928847D01*
X131791079Y-80908330D01*
X131805329Y-80889117D01*
X131821393Y-80871393D01*
X131839117Y-80855329D01*
X131858330Y-80841079D01*
X131878847Y-80828782D01*
X131900471Y-80818554D01*
X131922993Y-80810496D01*
X131946197Y-80804684D01*
X131969858Y-80801174D01*
X131993750Y-80800000D01*
X132481250Y-80800000D01*
X132505142Y-80801174D01*
G37*
G36*
X130630142Y-80801174D02*
G01*
X130653803Y-80804684D01*
X130677007Y-80810496D01*
X130699529Y-80818554D01*
X130721153Y-80828782D01*
X130741670Y-80841079D01*
X130760883Y-80855329D01*
X130778607Y-80871393D01*
X130794671Y-80889117D01*
X130808921Y-80908330D01*
X130821218Y-80928847D01*
X130831446Y-80950471D01*
X130839504Y-80972993D01*
X130845316Y-80996197D01*
X130848826Y-81019858D01*
X130850000Y-81043750D01*
X130850000Y-81956250D01*
X130848826Y-81980142D01*
X130845316Y-82003803D01*
X130839504Y-82027007D01*
X130831446Y-82049529D01*
X130821218Y-82071153D01*
X130808921Y-82091670D01*
X130794671Y-82110883D01*
X130778607Y-82128607D01*
X130760883Y-82144671D01*
X130741670Y-82158921D01*
X130721153Y-82171218D01*
X130699529Y-82181446D01*
X130677007Y-82189504D01*
X130653803Y-82195316D01*
X130630142Y-82198826D01*
X130606250Y-82200000D01*
X130118750Y-82200000D01*
X130094858Y-82198826D01*
X130071197Y-82195316D01*
X130047993Y-82189504D01*
X130025471Y-82181446D01*
X130003847Y-82171218D01*
X129983330Y-82158921D01*
X129964117Y-82144671D01*
X129946393Y-82128607D01*
X129930329Y-82110883D01*
X129916079Y-82091670D01*
X129903782Y-82071153D01*
X129893554Y-82049529D01*
X129885496Y-82027007D01*
X129879684Y-82003803D01*
X129876174Y-81980142D01*
X129875000Y-81956250D01*
X129875000Y-81043750D01*
X129876174Y-81019858D01*
X129879684Y-80996197D01*
X129885496Y-80972993D01*
X129893554Y-80950471D01*
X129903782Y-80928847D01*
X129916079Y-80908330D01*
X129930329Y-80889117D01*
X129946393Y-80871393D01*
X129964117Y-80855329D01*
X129983330Y-80841079D01*
X130003847Y-80828782D01*
X130025471Y-80818554D01*
X130047993Y-80810496D01*
X130071197Y-80804684D01*
X130094858Y-80801174D01*
X130118750Y-80800000D01*
X130606250Y-80800000D01*
X130630142Y-80801174D01*
G37*
G36*
X132505142Y-82801174D02*
G01*
X132528803Y-82804684D01*
X132552007Y-82810496D01*
X132574529Y-82818554D01*
X132596153Y-82828782D01*
X132616670Y-82841079D01*
X132635883Y-82855329D01*
X132653607Y-82871393D01*
X132669671Y-82889117D01*
X132683921Y-82908330D01*
X132696218Y-82928847D01*
X132706446Y-82950471D01*
X132714504Y-82972993D01*
X132720316Y-82996197D01*
X132723826Y-83019858D01*
X132725000Y-83043750D01*
X132725000Y-83956250D01*
X132723826Y-83980142D01*
X132720316Y-84003803D01*
X132714504Y-84027007D01*
X132706446Y-84049529D01*
X132696218Y-84071153D01*
X132683921Y-84091670D01*
X132669671Y-84110883D01*
X132653607Y-84128607D01*
X132635883Y-84144671D01*
X132616670Y-84158921D01*
X132596153Y-84171218D01*
X132574529Y-84181446D01*
X132552007Y-84189504D01*
X132528803Y-84195316D01*
X132505142Y-84198826D01*
X132481250Y-84200000D01*
X131993750Y-84200000D01*
X131969858Y-84198826D01*
X131946197Y-84195316D01*
X131922993Y-84189504D01*
X131900471Y-84181446D01*
X131878847Y-84171218D01*
X131858330Y-84158921D01*
X131839117Y-84144671D01*
X131821393Y-84128607D01*
X131805329Y-84110883D01*
X131791079Y-84091670D01*
X131778782Y-84071153D01*
X131768554Y-84049529D01*
X131760496Y-84027007D01*
X131754684Y-84003803D01*
X131751174Y-83980142D01*
X131750000Y-83956250D01*
X131750000Y-83043750D01*
X131751174Y-83019858D01*
X131754684Y-82996197D01*
X131760496Y-82972993D01*
X131768554Y-82950471D01*
X131778782Y-82928847D01*
X131791079Y-82908330D01*
X131805329Y-82889117D01*
X131821393Y-82871393D01*
X131839117Y-82855329D01*
X131858330Y-82841079D01*
X131878847Y-82828782D01*
X131900471Y-82818554D01*
X131922993Y-82810496D01*
X131946197Y-82804684D01*
X131969858Y-82801174D01*
X131993750Y-82800000D01*
X132481250Y-82800000D01*
X132505142Y-82801174D01*
G37*
G36*
X130630142Y-82801174D02*
G01*
X130653803Y-82804684D01*
X130677007Y-82810496D01*
X130699529Y-82818554D01*
X130721153Y-82828782D01*
X130741670Y-82841079D01*
X130760883Y-82855329D01*
X130778607Y-82871393D01*
X130794671Y-82889117D01*
X130808921Y-82908330D01*
X130821218Y-82928847D01*
X130831446Y-82950471D01*
X130839504Y-82972993D01*
X130845316Y-82996197D01*
X130848826Y-83019858D01*
X130850000Y-83043750D01*
X130850000Y-83956250D01*
X130848826Y-83980142D01*
X130845316Y-84003803D01*
X130839504Y-84027007D01*
X130831446Y-84049529D01*
X130821218Y-84071153D01*
X130808921Y-84091670D01*
X130794671Y-84110883D01*
X130778607Y-84128607D01*
X130760883Y-84144671D01*
X130741670Y-84158921D01*
X130721153Y-84171218D01*
X130699529Y-84181446D01*
X130677007Y-84189504D01*
X130653803Y-84195316D01*
X130630142Y-84198826D01*
X130606250Y-84200000D01*
X130118750Y-84200000D01*
X130094858Y-84198826D01*
X130071197Y-84195316D01*
X130047993Y-84189504D01*
X130025471Y-84181446D01*
X130003847Y-84171218D01*
X129983330Y-84158921D01*
X129964117Y-84144671D01*
X129946393Y-84128607D01*
X129930329Y-84110883D01*
X129916079Y-84091670D01*
X129903782Y-84071153D01*
X129893554Y-84049529D01*
X129885496Y-84027007D01*
X129879684Y-84003803D01*
X129876174Y-83980142D01*
X129875000Y-83956250D01*
X129875000Y-83043750D01*
X129876174Y-83019858D01*
X129879684Y-82996197D01*
X129885496Y-82972993D01*
X129893554Y-82950471D01*
X129903782Y-82928847D01*
X129916079Y-82908330D01*
X129930329Y-82889117D01*
X129946393Y-82871393D01*
X129964117Y-82855329D01*
X129983330Y-82841079D01*
X130003847Y-82828782D01*
X130025471Y-82818554D01*
X130047993Y-82810496D01*
X130071197Y-82804684D01*
X130094858Y-82801174D01*
X130118750Y-82800000D01*
X130606250Y-82800000D01*
X130630142Y-82801174D01*
G37*
G36*
X133280142Y-78951174D02*
G01*
X133303803Y-78954684D01*
X133327007Y-78960496D01*
X133349529Y-78968554D01*
X133371153Y-78978782D01*
X133391670Y-78991079D01*
X133410883Y-79005329D01*
X133428607Y-79021393D01*
X133444671Y-79039117D01*
X133458921Y-79058330D01*
X133471218Y-79078847D01*
X133481446Y-79100471D01*
X133489504Y-79122993D01*
X133495316Y-79146197D01*
X133498826Y-79169858D01*
X133500000Y-79193750D01*
X133500000Y-79681250D01*
X133498826Y-79705142D01*
X133495316Y-79728803D01*
X133489504Y-79752007D01*
X133481446Y-79774529D01*
X133471218Y-79796153D01*
X133458921Y-79816670D01*
X133444671Y-79835883D01*
X133428607Y-79853607D01*
X133410883Y-79869671D01*
X133391670Y-79883921D01*
X133371153Y-79896218D01*
X133349529Y-79906446D01*
X133327007Y-79914504D01*
X133303803Y-79920316D01*
X133280142Y-79923826D01*
X133256250Y-79925000D01*
X132343750Y-79925000D01*
X132319858Y-79923826D01*
X132296197Y-79920316D01*
X132272993Y-79914504D01*
X132250471Y-79906446D01*
X132228847Y-79896218D01*
X132208330Y-79883921D01*
X132189117Y-79869671D01*
X132171393Y-79853607D01*
X132155329Y-79835883D01*
X132141079Y-79816670D01*
X132128782Y-79796153D01*
X132118554Y-79774529D01*
X132110496Y-79752007D01*
X132104684Y-79728803D01*
X132101174Y-79705142D01*
X132100000Y-79681250D01*
X132100000Y-79193750D01*
X132101174Y-79169858D01*
X132104684Y-79146197D01*
X132110496Y-79122993D01*
X132118554Y-79100471D01*
X132128782Y-79078847D01*
X132141079Y-79058330D01*
X132155329Y-79039117D01*
X132171393Y-79021393D01*
X132189117Y-79005329D01*
X132208330Y-78991079D01*
X132228847Y-78978782D01*
X132250471Y-78968554D01*
X132272993Y-78960496D01*
X132296197Y-78954684D01*
X132319858Y-78951174D01*
X132343750Y-78950000D01*
X133256250Y-78950000D01*
X133280142Y-78951174D01*
G37*
G36*
X133280142Y-77076174D02*
G01*
X133303803Y-77079684D01*
X133327007Y-77085496D01*
X133349529Y-77093554D01*
X133371153Y-77103782D01*
X133391670Y-77116079D01*
X133410883Y-77130329D01*
X133428607Y-77146393D01*
X133444671Y-77164117D01*
X133458921Y-77183330D01*
X133471218Y-77203847D01*
X133481446Y-77225471D01*
X133489504Y-77247993D01*
X133495316Y-77271197D01*
X133498826Y-77294858D01*
X133500000Y-77318750D01*
X133500000Y-77806250D01*
X133498826Y-77830142D01*
X133495316Y-77853803D01*
X133489504Y-77877007D01*
X133481446Y-77899529D01*
X133471218Y-77921153D01*
X133458921Y-77941670D01*
X133444671Y-77960883D01*
X133428607Y-77978607D01*
X133410883Y-77994671D01*
X133391670Y-78008921D01*
X133371153Y-78021218D01*
X133349529Y-78031446D01*
X133327007Y-78039504D01*
X133303803Y-78045316D01*
X133280142Y-78048826D01*
X133256250Y-78050000D01*
X132343750Y-78050000D01*
X132319858Y-78048826D01*
X132296197Y-78045316D01*
X132272993Y-78039504D01*
X132250471Y-78031446D01*
X132228847Y-78021218D01*
X132208330Y-78008921D01*
X132189117Y-77994671D01*
X132171393Y-77978607D01*
X132155329Y-77960883D01*
X132141079Y-77941670D01*
X132128782Y-77921153D01*
X132118554Y-77899529D01*
X132110496Y-77877007D01*
X132104684Y-77853803D01*
X132101174Y-77830142D01*
X132100000Y-77806250D01*
X132100000Y-77318750D01*
X132101174Y-77294858D01*
X132104684Y-77271197D01*
X132110496Y-77247993D01*
X132118554Y-77225471D01*
X132128782Y-77203847D01*
X132141079Y-77183330D01*
X132155329Y-77164117D01*
X132171393Y-77146393D01*
X132189117Y-77130329D01*
X132208330Y-77116079D01*
X132228847Y-77103782D01*
X132250471Y-77093554D01*
X132272993Y-77085496D01*
X132296197Y-77079684D01*
X132319858Y-77076174D01*
X132343750Y-77075000D01*
X133256250Y-77075000D01*
X133280142Y-77076174D01*
G37*
G36*
X116377691Y-130651053D02*
G01*
X116398926Y-130654203D01*
X116419750Y-130659419D01*
X116439962Y-130666651D01*
X116459368Y-130675830D01*
X116477781Y-130686866D01*
X116495024Y-130699654D01*
X116510930Y-130714070D01*
X116525346Y-130729976D01*
X116538134Y-130747219D01*
X116549170Y-130765632D01*
X116558349Y-130785038D01*
X116565581Y-130805250D01*
X116570797Y-130826074D01*
X116573947Y-130847309D01*
X116575000Y-130868750D01*
X116575000Y-131306250D01*
X116573947Y-131327691D01*
X116570797Y-131348926D01*
X116565581Y-131369750D01*
X116558349Y-131389962D01*
X116549170Y-131409368D01*
X116538134Y-131427781D01*
X116525346Y-131445024D01*
X116510930Y-131460930D01*
X116495024Y-131475346D01*
X116477781Y-131488134D01*
X116459368Y-131499170D01*
X116439962Y-131508349D01*
X116419750Y-131515581D01*
X116398926Y-131520797D01*
X116377691Y-131523947D01*
X116356250Y-131525000D01*
X115843750Y-131525000D01*
X115822309Y-131523947D01*
X115801074Y-131520797D01*
X115780250Y-131515581D01*
X115760038Y-131508349D01*
X115740632Y-131499170D01*
X115722219Y-131488134D01*
X115704976Y-131475346D01*
X115689070Y-131460930D01*
X115674654Y-131445024D01*
X115661866Y-131427781D01*
X115650830Y-131409368D01*
X115641651Y-131389962D01*
X115634419Y-131369750D01*
X115629203Y-131348926D01*
X115626053Y-131327691D01*
X115625000Y-131306250D01*
X115625000Y-130868750D01*
X115626053Y-130847309D01*
X115629203Y-130826074D01*
X115634419Y-130805250D01*
X115641651Y-130785038D01*
X115650830Y-130765632D01*
X115661866Y-130747219D01*
X115674654Y-130729976D01*
X115689070Y-130714070D01*
X115704976Y-130699654D01*
X115722219Y-130686866D01*
X115740632Y-130675830D01*
X115760038Y-130666651D01*
X115780250Y-130659419D01*
X115801074Y-130654203D01*
X115822309Y-130651053D01*
X115843750Y-130650000D01*
X116356250Y-130650000D01*
X116377691Y-130651053D01*
G37*
G36*
X116377691Y-129076053D02*
G01*
X116398926Y-129079203D01*
X116419750Y-129084419D01*
X116439962Y-129091651D01*
X116459368Y-129100830D01*
X116477781Y-129111866D01*
X116495024Y-129124654D01*
X116510930Y-129139070D01*
X116525346Y-129154976D01*
X116538134Y-129172219D01*
X116549170Y-129190632D01*
X116558349Y-129210038D01*
X116565581Y-129230250D01*
X116570797Y-129251074D01*
X116573947Y-129272309D01*
X116575000Y-129293750D01*
X116575000Y-129731250D01*
X116573947Y-129752691D01*
X116570797Y-129773926D01*
X116565581Y-129794750D01*
X116558349Y-129814962D01*
X116549170Y-129834368D01*
X116538134Y-129852781D01*
X116525346Y-129870024D01*
X116510930Y-129885930D01*
X116495024Y-129900346D01*
X116477781Y-129913134D01*
X116459368Y-129924170D01*
X116439962Y-129933349D01*
X116419750Y-129940581D01*
X116398926Y-129945797D01*
X116377691Y-129948947D01*
X116356250Y-129950000D01*
X115843750Y-129950000D01*
X115822309Y-129948947D01*
X115801074Y-129945797D01*
X115780250Y-129940581D01*
X115760038Y-129933349D01*
X115740632Y-129924170D01*
X115722219Y-129913134D01*
X115704976Y-129900346D01*
X115689070Y-129885930D01*
X115674654Y-129870024D01*
X115661866Y-129852781D01*
X115650830Y-129834368D01*
X115641651Y-129814962D01*
X115634419Y-129794750D01*
X115629203Y-129773926D01*
X115626053Y-129752691D01*
X115625000Y-129731250D01*
X115625000Y-129293750D01*
X115626053Y-129272309D01*
X115629203Y-129251074D01*
X115634419Y-129230250D01*
X115641651Y-129210038D01*
X115650830Y-129190632D01*
X115661866Y-129172219D01*
X115674654Y-129154976D01*
X115689070Y-129139070D01*
X115704976Y-129124654D01*
X115722219Y-129111866D01*
X115740632Y-129100830D01*
X115760038Y-129091651D01*
X115780250Y-129084419D01*
X115801074Y-129079203D01*
X115822309Y-129076053D01*
X115843750Y-129075000D01*
X116356250Y-129075000D01*
X116377691Y-129076053D01*
G37*
G36*
X123477691Y-129076053D02*
G01*
X123498926Y-129079203D01*
X123519750Y-129084419D01*
X123539962Y-129091651D01*
X123559368Y-129100830D01*
X123577781Y-129111866D01*
X123595024Y-129124654D01*
X123610930Y-129139070D01*
X123625346Y-129154976D01*
X123638134Y-129172219D01*
X123649170Y-129190632D01*
X123658349Y-129210038D01*
X123665581Y-129230250D01*
X123670797Y-129251074D01*
X123673947Y-129272309D01*
X123675000Y-129293750D01*
X123675000Y-129731250D01*
X123673947Y-129752691D01*
X123670797Y-129773926D01*
X123665581Y-129794750D01*
X123658349Y-129814962D01*
X123649170Y-129834368D01*
X123638134Y-129852781D01*
X123625346Y-129870024D01*
X123610930Y-129885930D01*
X123595024Y-129900346D01*
X123577781Y-129913134D01*
X123559368Y-129924170D01*
X123539962Y-129933349D01*
X123519750Y-129940581D01*
X123498926Y-129945797D01*
X123477691Y-129948947D01*
X123456250Y-129950000D01*
X122943750Y-129950000D01*
X122922309Y-129948947D01*
X122901074Y-129945797D01*
X122880250Y-129940581D01*
X122860038Y-129933349D01*
X122840632Y-129924170D01*
X122822219Y-129913134D01*
X122804976Y-129900346D01*
X122789070Y-129885930D01*
X122774654Y-129870024D01*
X122761866Y-129852781D01*
X122750830Y-129834368D01*
X122741651Y-129814962D01*
X122734419Y-129794750D01*
X122729203Y-129773926D01*
X122726053Y-129752691D01*
X122725000Y-129731250D01*
X122725000Y-129293750D01*
X122726053Y-129272309D01*
X122729203Y-129251074D01*
X122734419Y-129230250D01*
X122741651Y-129210038D01*
X122750830Y-129190632D01*
X122761866Y-129172219D01*
X122774654Y-129154976D01*
X122789070Y-129139070D01*
X122804976Y-129124654D01*
X122822219Y-129111866D01*
X122840632Y-129100830D01*
X122860038Y-129091651D01*
X122880250Y-129084419D01*
X122901074Y-129079203D01*
X122922309Y-129076053D01*
X122943750Y-129075000D01*
X123456250Y-129075000D01*
X123477691Y-129076053D01*
G37*
G36*
X123477691Y-130651053D02*
G01*
X123498926Y-130654203D01*
X123519750Y-130659419D01*
X123539962Y-130666651D01*
X123559368Y-130675830D01*
X123577781Y-130686866D01*
X123595024Y-130699654D01*
X123610930Y-130714070D01*
X123625346Y-130729976D01*
X123638134Y-130747219D01*
X123649170Y-130765632D01*
X123658349Y-130785038D01*
X123665581Y-130805250D01*
X123670797Y-130826074D01*
X123673947Y-130847309D01*
X123675000Y-130868750D01*
X123675000Y-131306250D01*
X123673947Y-131327691D01*
X123670797Y-131348926D01*
X123665581Y-131369750D01*
X123658349Y-131389962D01*
X123649170Y-131409368D01*
X123638134Y-131427781D01*
X123625346Y-131445024D01*
X123610930Y-131460930D01*
X123595024Y-131475346D01*
X123577781Y-131488134D01*
X123559368Y-131499170D01*
X123539962Y-131508349D01*
X123519750Y-131515581D01*
X123498926Y-131520797D01*
X123477691Y-131523947D01*
X123456250Y-131525000D01*
X122943750Y-131525000D01*
X122922309Y-131523947D01*
X122901074Y-131520797D01*
X122880250Y-131515581D01*
X122860038Y-131508349D01*
X122840632Y-131499170D01*
X122822219Y-131488134D01*
X122804976Y-131475346D01*
X122789070Y-131460930D01*
X122774654Y-131445024D01*
X122761866Y-131427781D01*
X122750830Y-131409368D01*
X122741651Y-131389962D01*
X122734419Y-131369750D01*
X122729203Y-131348926D01*
X122726053Y-131327691D01*
X122725000Y-131306250D01*
X122725000Y-130868750D01*
X122726053Y-130847309D01*
X122729203Y-130826074D01*
X122734419Y-130805250D01*
X122741651Y-130785038D01*
X122750830Y-130765632D01*
X122761866Y-130747219D01*
X122774654Y-130729976D01*
X122789070Y-130714070D01*
X122804976Y-130699654D01*
X122822219Y-130686866D01*
X122840632Y-130675830D01*
X122860038Y-130666651D01*
X122880250Y-130659419D01*
X122901074Y-130654203D01*
X122922309Y-130651053D01*
X122943750Y-130650000D01*
X123456250Y-130650000D01*
X123477691Y-130651053D01*
G37*
G36*
X140877691Y-130651053D02*
G01*
X140898926Y-130654203D01*
X140919750Y-130659419D01*
X140939962Y-130666651D01*
X140959368Y-130675830D01*
X140977781Y-130686866D01*
X140995024Y-130699654D01*
X141010930Y-130714070D01*
X141025346Y-130729976D01*
X141038134Y-130747219D01*
X141049170Y-130765632D01*
X141058349Y-130785038D01*
X141065581Y-130805250D01*
X141070797Y-130826074D01*
X141073947Y-130847309D01*
X141075000Y-130868750D01*
X141075000Y-131306250D01*
X141073947Y-131327691D01*
X141070797Y-131348926D01*
X141065581Y-131369750D01*
X141058349Y-131389962D01*
X141049170Y-131409368D01*
X141038134Y-131427781D01*
X141025346Y-131445024D01*
X141010930Y-131460930D01*
X140995024Y-131475346D01*
X140977781Y-131488134D01*
X140959368Y-131499170D01*
X140939962Y-131508349D01*
X140919750Y-131515581D01*
X140898926Y-131520797D01*
X140877691Y-131523947D01*
X140856250Y-131525000D01*
X140343750Y-131525000D01*
X140322309Y-131523947D01*
X140301074Y-131520797D01*
X140280250Y-131515581D01*
X140260038Y-131508349D01*
X140240632Y-131499170D01*
X140222219Y-131488134D01*
X140204976Y-131475346D01*
X140189070Y-131460930D01*
X140174654Y-131445024D01*
X140161866Y-131427781D01*
X140150830Y-131409368D01*
X140141651Y-131389962D01*
X140134419Y-131369750D01*
X140129203Y-131348926D01*
X140126053Y-131327691D01*
X140125000Y-131306250D01*
X140125000Y-130868750D01*
X140126053Y-130847309D01*
X140129203Y-130826074D01*
X140134419Y-130805250D01*
X140141651Y-130785038D01*
X140150830Y-130765632D01*
X140161866Y-130747219D01*
X140174654Y-130729976D01*
X140189070Y-130714070D01*
X140204976Y-130699654D01*
X140222219Y-130686866D01*
X140240632Y-130675830D01*
X140260038Y-130666651D01*
X140280250Y-130659419D01*
X140301074Y-130654203D01*
X140322309Y-130651053D01*
X140343750Y-130650000D01*
X140856250Y-130650000D01*
X140877691Y-130651053D01*
G37*
G36*
X140877691Y-129076053D02*
G01*
X140898926Y-129079203D01*
X140919750Y-129084419D01*
X140939962Y-129091651D01*
X140959368Y-129100830D01*
X140977781Y-129111866D01*
X140995024Y-129124654D01*
X141010930Y-129139070D01*
X141025346Y-129154976D01*
X141038134Y-129172219D01*
X141049170Y-129190632D01*
X141058349Y-129210038D01*
X141065581Y-129230250D01*
X141070797Y-129251074D01*
X141073947Y-129272309D01*
X141075000Y-129293750D01*
X141075000Y-129731250D01*
X141073947Y-129752691D01*
X141070797Y-129773926D01*
X141065581Y-129794750D01*
X141058349Y-129814962D01*
X141049170Y-129834368D01*
X141038134Y-129852781D01*
X141025346Y-129870024D01*
X141010930Y-129885930D01*
X140995024Y-129900346D01*
X140977781Y-129913134D01*
X140959368Y-129924170D01*
X140939962Y-129933349D01*
X140919750Y-129940581D01*
X140898926Y-129945797D01*
X140877691Y-129948947D01*
X140856250Y-129950000D01*
X140343750Y-129950000D01*
X140322309Y-129948947D01*
X140301074Y-129945797D01*
X140280250Y-129940581D01*
X140260038Y-129933349D01*
X140240632Y-129924170D01*
X140222219Y-129913134D01*
X140204976Y-129900346D01*
X140189070Y-129885930D01*
X140174654Y-129870024D01*
X140161866Y-129852781D01*
X140150830Y-129834368D01*
X140141651Y-129814962D01*
X140134419Y-129794750D01*
X140129203Y-129773926D01*
X140126053Y-129752691D01*
X140125000Y-129731250D01*
X140125000Y-129293750D01*
X140126053Y-129272309D01*
X140129203Y-129251074D01*
X140134419Y-129230250D01*
X140141651Y-129210038D01*
X140150830Y-129190632D01*
X140161866Y-129172219D01*
X140174654Y-129154976D01*
X140189070Y-129139070D01*
X140204976Y-129124654D01*
X140222219Y-129111866D01*
X140240632Y-129100830D01*
X140260038Y-129091651D01*
X140280250Y-129084419D01*
X140301074Y-129079203D01*
X140322309Y-129076053D01*
X140343750Y-129075000D01*
X140856250Y-129075000D01*
X140877691Y-129076053D01*
G37*
D11*
X162595000Y-116400000D03*
X163865000Y-116400000D03*
X165135000Y-116400000D03*
X166405000Y-116400000D03*
D12*
X163650000Y-112000000D03*
X165350000Y-112000000D03*
X163650000Y-113700000D03*
X165350000Y-113700000D03*
D13*
X162595000Y-110595000D03*
X163865000Y-110595000D03*
X165135000Y-110595000D03*
X166405000Y-110595000D03*
D11*
X127095000Y-116400000D03*
X128365000Y-116400000D03*
X129635000Y-116400000D03*
X130905000Y-116400000D03*
D12*
X128150000Y-112000000D03*
X129850000Y-112000000D03*
X128150000Y-113700000D03*
X129850000Y-113700000D03*
D13*
X127095000Y-110595000D03*
X128365000Y-110595000D03*
X129635000Y-110595000D03*
X130905000Y-110595000D03*
X148905000Y-110595000D03*
X147635000Y-110595000D03*
X146365000Y-110595000D03*
X145095000Y-110595000D03*
D12*
X147850000Y-113700000D03*
X146150000Y-113700000D03*
X147850000Y-112000000D03*
X146150000Y-112000000D03*
D11*
X148905000Y-116400000D03*
X147635000Y-116400000D03*
X146365000Y-116400000D03*
X145095000Y-116400000D03*
D13*
X183805000Y-108995000D03*
X182535000Y-108995000D03*
X181265000Y-108995000D03*
X179995000Y-108995000D03*
D12*
X182750000Y-112100000D03*
X181050000Y-112100000D03*
X182750000Y-110400000D03*
X181050000Y-110400000D03*
D11*
X183805000Y-114800000D03*
X182535000Y-114800000D03*
X181265000Y-114800000D03*
X179995000Y-114800000D03*
D10*
G36*
X118277691Y-129076053D02*
G01*
X118298926Y-129079203D01*
X118319750Y-129084419D01*
X118339962Y-129091651D01*
X118359368Y-129100830D01*
X118377781Y-129111866D01*
X118395024Y-129124654D01*
X118410930Y-129139070D01*
X118425346Y-129154976D01*
X118438134Y-129172219D01*
X118449170Y-129190632D01*
X118458349Y-129210038D01*
X118465581Y-129230250D01*
X118470797Y-129251074D01*
X118473947Y-129272309D01*
X118475000Y-129293750D01*
X118475000Y-129731250D01*
X118473947Y-129752691D01*
X118470797Y-129773926D01*
X118465581Y-129794750D01*
X118458349Y-129814962D01*
X118449170Y-129834368D01*
X118438134Y-129852781D01*
X118425346Y-129870024D01*
X118410930Y-129885930D01*
X118395024Y-129900346D01*
X118377781Y-129913134D01*
X118359368Y-129924170D01*
X118339962Y-129933349D01*
X118319750Y-129940581D01*
X118298926Y-129945797D01*
X118277691Y-129948947D01*
X118256250Y-129950000D01*
X117743750Y-129950000D01*
X117722309Y-129948947D01*
X117701074Y-129945797D01*
X117680250Y-129940581D01*
X117660038Y-129933349D01*
X117640632Y-129924170D01*
X117622219Y-129913134D01*
X117604976Y-129900346D01*
X117589070Y-129885930D01*
X117574654Y-129870024D01*
X117561866Y-129852781D01*
X117550830Y-129834368D01*
X117541651Y-129814962D01*
X117534419Y-129794750D01*
X117529203Y-129773926D01*
X117526053Y-129752691D01*
X117525000Y-129731250D01*
X117525000Y-129293750D01*
X117526053Y-129272309D01*
X117529203Y-129251074D01*
X117534419Y-129230250D01*
X117541651Y-129210038D01*
X117550830Y-129190632D01*
X117561866Y-129172219D01*
X117574654Y-129154976D01*
X117589070Y-129139070D01*
X117604976Y-129124654D01*
X117622219Y-129111866D01*
X117640632Y-129100830D01*
X117660038Y-129091651D01*
X117680250Y-129084419D01*
X117701074Y-129079203D01*
X117722309Y-129076053D01*
X117743750Y-129075000D01*
X118256250Y-129075000D01*
X118277691Y-129076053D01*
G37*
G36*
X118277691Y-130651053D02*
G01*
X118298926Y-130654203D01*
X118319750Y-130659419D01*
X118339962Y-130666651D01*
X118359368Y-130675830D01*
X118377781Y-130686866D01*
X118395024Y-130699654D01*
X118410930Y-130714070D01*
X118425346Y-130729976D01*
X118438134Y-130747219D01*
X118449170Y-130765632D01*
X118458349Y-130785038D01*
X118465581Y-130805250D01*
X118470797Y-130826074D01*
X118473947Y-130847309D01*
X118475000Y-130868750D01*
X118475000Y-131306250D01*
X118473947Y-131327691D01*
X118470797Y-131348926D01*
X118465581Y-131369750D01*
X118458349Y-131389962D01*
X118449170Y-131409368D01*
X118438134Y-131427781D01*
X118425346Y-131445024D01*
X118410930Y-131460930D01*
X118395024Y-131475346D01*
X118377781Y-131488134D01*
X118359368Y-131499170D01*
X118339962Y-131508349D01*
X118319750Y-131515581D01*
X118298926Y-131520797D01*
X118277691Y-131523947D01*
X118256250Y-131525000D01*
X117743750Y-131525000D01*
X117722309Y-131523947D01*
X117701074Y-131520797D01*
X117680250Y-131515581D01*
X117660038Y-131508349D01*
X117640632Y-131499170D01*
X117622219Y-131488134D01*
X117604976Y-131475346D01*
X117589070Y-131460930D01*
X117574654Y-131445024D01*
X117561866Y-131427781D01*
X117550830Y-131409368D01*
X117541651Y-131389962D01*
X117534419Y-131369750D01*
X117529203Y-131348926D01*
X117526053Y-131327691D01*
X117525000Y-131306250D01*
X117525000Y-130868750D01*
X117526053Y-130847309D01*
X117529203Y-130826074D01*
X117534419Y-130805250D01*
X117541651Y-130785038D01*
X117550830Y-130765632D01*
X117561866Y-130747219D01*
X117574654Y-130729976D01*
X117589070Y-130714070D01*
X117604976Y-130699654D01*
X117622219Y-130686866D01*
X117640632Y-130675830D01*
X117660038Y-130666651D01*
X117680250Y-130659419D01*
X117701074Y-130654203D01*
X117722309Y-130651053D01*
X117743750Y-130650000D01*
X118256250Y-130650000D01*
X118277691Y-130651053D01*
G37*
G36*
X125277691Y-129076053D02*
G01*
X125298926Y-129079203D01*
X125319750Y-129084419D01*
X125339962Y-129091651D01*
X125359368Y-129100830D01*
X125377781Y-129111866D01*
X125395024Y-129124654D01*
X125410930Y-129139070D01*
X125425346Y-129154976D01*
X125438134Y-129172219D01*
X125449170Y-129190632D01*
X125458349Y-129210038D01*
X125465581Y-129230250D01*
X125470797Y-129251074D01*
X125473947Y-129272309D01*
X125475000Y-129293750D01*
X125475000Y-129731250D01*
X125473947Y-129752691D01*
X125470797Y-129773926D01*
X125465581Y-129794750D01*
X125458349Y-129814962D01*
X125449170Y-129834368D01*
X125438134Y-129852781D01*
X125425346Y-129870024D01*
X125410930Y-129885930D01*
X125395024Y-129900346D01*
X125377781Y-129913134D01*
X125359368Y-129924170D01*
X125339962Y-129933349D01*
X125319750Y-129940581D01*
X125298926Y-129945797D01*
X125277691Y-129948947D01*
X125256250Y-129950000D01*
X124743750Y-129950000D01*
X124722309Y-129948947D01*
X124701074Y-129945797D01*
X124680250Y-129940581D01*
X124660038Y-129933349D01*
X124640632Y-129924170D01*
X124622219Y-129913134D01*
X124604976Y-129900346D01*
X124589070Y-129885930D01*
X124574654Y-129870024D01*
X124561866Y-129852781D01*
X124550830Y-129834368D01*
X124541651Y-129814962D01*
X124534419Y-129794750D01*
X124529203Y-129773926D01*
X124526053Y-129752691D01*
X124525000Y-129731250D01*
X124525000Y-129293750D01*
X124526053Y-129272309D01*
X124529203Y-129251074D01*
X124534419Y-129230250D01*
X124541651Y-129210038D01*
X124550830Y-129190632D01*
X124561866Y-129172219D01*
X124574654Y-129154976D01*
X124589070Y-129139070D01*
X124604976Y-129124654D01*
X124622219Y-129111866D01*
X124640632Y-129100830D01*
X124660038Y-129091651D01*
X124680250Y-129084419D01*
X124701074Y-129079203D01*
X124722309Y-129076053D01*
X124743750Y-129075000D01*
X125256250Y-129075000D01*
X125277691Y-129076053D01*
G37*
G36*
X125277691Y-130651053D02*
G01*
X125298926Y-130654203D01*
X125319750Y-130659419D01*
X125339962Y-130666651D01*
X125359368Y-130675830D01*
X125377781Y-130686866D01*
X125395024Y-130699654D01*
X125410930Y-130714070D01*
X125425346Y-130729976D01*
X125438134Y-130747219D01*
X125449170Y-130765632D01*
X125458349Y-130785038D01*
X125465581Y-130805250D01*
X125470797Y-130826074D01*
X125473947Y-130847309D01*
X125475000Y-130868750D01*
X125475000Y-131306250D01*
X125473947Y-131327691D01*
X125470797Y-131348926D01*
X125465581Y-131369750D01*
X125458349Y-131389962D01*
X125449170Y-131409368D01*
X125438134Y-131427781D01*
X125425346Y-131445024D01*
X125410930Y-131460930D01*
X125395024Y-131475346D01*
X125377781Y-131488134D01*
X125359368Y-131499170D01*
X125339962Y-131508349D01*
X125319750Y-131515581D01*
X125298926Y-131520797D01*
X125277691Y-131523947D01*
X125256250Y-131525000D01*
X124743750Y-131525000D01*
X124722309Y-131523947D01*
X124701074Y-131520797D01*
X124680250Y-131515581D01*
X124660038Y-131508349D01*
X124640632Y-131499170D01*
X124622219Y-131488134D01*
X124604976Y-131475346D01*
X124589070Y-131460930D01*
X124574654Y-131445024D01*
X124561866Y-131427781D01*
X124550830Y-131409368D01*
X124541651Y-131389962D01*
X124534419Y-131369750D01*
X124529203Y-131348926D01*
X124526053Y-131327691D01*
X124525000Y-131306250D01*
X124525000Y-130868750D01*
X124526053Y-130847309D01*
X124529203Y-130826074D01*
X124534419Y-130805250D01*
X124541651Y-130785038D01*
X124550830Y-130765632D01*
X124561866Y-130747219D01*
X124574654Y-130729976D01*
X124589070Y-130714070D01*
X124604976Y-130699654D01*
X124622219Y-130686866D01*
X124640632Y-130675830D01*
X124660038Y-130666651D01*
X124680250Y-130659419D01*
X124701074Y-130654203D01*
X124722309Y-130651053D01*
X124743750Y-130650000D01*
X125256250Y-130650000D01*
X125277691Y-130651053D01*
G37*
G36*
X142677691Y-130601053D02*
G01*
X142698926Y-130604203D01*
X142719750Y-130609419D01*
X142739962Y-130616651D01*
X142759368Y-130625830D01*
X142777781Y-130636866D01*
X142795024Y-130649654D01*
X142810930Y-130664070D01*
X142825346Y-130679976D01*
X142838134Y-130697219D01*
X142849170Y-130715632D01*
X142858349Y-130735038D01*
X142865581Y-130755250D01*
X142870797Y-130776074D01*
X142873947Y-130797309D01*
X142875000Y-130818750D01*
X142875000Y-131256250D01*
X142873947Y-131277691D01*
X142870797Y-131298926D01*
X142865581Y-131319750D01*
X142858349Y-131339962D01*
X142849170Y-131359368D01*
X142838134Y-131377781D01*
X142825346Y-131395024D01*
X142810930Y-131410930D01*
X142795024Y-131425346D01*
X142777781Y-131438134D01*
X142759368Y-131449170D01*
X142739962Y-131458349D01*
X142719750Y-131465581D01*
X142698926Y-131470797D01*
X142677691Y-131473947D01*
X142656250Y-131475000D01*
X142143750Y-131475000D01*
X142122309Y-131473947D01*
X142101074Y-131470797D01*
X142080250Y-131465581D01*
X142060038Y-131458349D01*
X142040632Y-131449170D01*
X142022219Y-131438134D01*
X142004976Y-131425346D01*
X141989070Y-131410930D01*
X141974654Y-131395024D01*
X141961866Y-131377781D01*
X141950830Y-131359368D01*
X141941651Y-131339962D01*
X141934419Y-131319750D01*
X141929203Y-131298926D01*
X141926053Y-131277691D01*
X141925000Y-131256250D01*
X141925000Y-130818750D01*
X141926053Y-130797309D01*
X141929203Y-130776074D01*
X141934419Y-130755250D01*
X141941651Y-130735038D01*
X141950830Y-130715632D01*
X141961866Y-130697219D01*
X141974654Y-130679976D01*
X141989070Y-130664070D01*
X142004976Y-130649654D01*
X142022219Y-130636866D01*
X142040632Y-130625830D01*
X142060038Y-130616651D01*
X142080250Y-130609419D01*
X142101074Y-130604203D01*
X142122309Y-130601053D01*
X142143750Y-130600000D01*
X142656250Y-130600000D01*
X142677691Y-130601053D01*
G37*
G36*
X142677691Y-129026053D02*
G01*
X142698926Y-129029203D01*
X142719750Y-129034419D01*
X142739962Y-129041651D01*
X142759368Y-129050830D01*
X142777781Y-129061866D01*
X142795024Y-129074654D01*
X142810930Y-129089070D01*
X142825346Y-129104976D01*
X142838134Y-129122219D01*
X142849170Y-129140632D01*
X142858349Y-129160038D01*
X142865581Y-129180250D01*
X142870797Y-129201074D01*
X142873947Y-129222309D01*
X142875000Y-129243750D01*
X142875000Y-129681250D01*
X142873947Y-129702691D01*
X142870797Y-129723926D01*
X142865581Y-129744750D01*
X142858349Y-129764962D01*
X142849170Y-129784368D01*
X142838134Y-129802781D01*
X142825346Y-129820024D01*
X142810930Y-129835930D01*
X142795024Y-129850346D01*
X142777781Y-129863134D01*
X142759368Y-129874170D01*
X142739962Y-129883349D01*
X142719750Y-129890581D01*
X142698926Y-129895797D01*
X142677691Y-129898947D01*
X142656250Y-129900000D01*
X142143750Y-129900000D01*
X142122309Y-129898947D01*
X142101074Y-129895797D01*
X142080250Y-129890581D01*
X142060038Y-129883349D01*
X142040632Y-129874170D01*
X142022219Y-129863134D01*
X142004976Y-129850346D01*
X141989070Y-129835930D01*
X141974654Y-129820024D01*
X141961866Y-129802781D01*
X141950830Y-129784368D01*
X141941651Y-129764962D01*
X141934419Y-129744750D01*
X141929203Y-129723926D01*
X141926053Y-129702691D01*
X141925000Y-129681250D01*
X141925000Y-129243750D01*
X141926053Y-129222309D01*
X141929203Y-129201074D01*
X141934419Y-129180250D01*
X141941651Y-129160038D01*
X141950830Y-129140632D01*
X141961866Y-129122219D01*
X141974654Y-129104976D01*
X141989070Y-129089070D01*
X142004976Y-129074654D01*
X142022219Y-129061866D01*
X142040632Y-129050830D01*
X142060038Y-129041651D01*
X142080250Y-129034419D01*
X142101074Y-129029203D01*
X142122309Y-129026053D01*
X142143750Y-129025000D01*
X142656250Y-129025000D01*
X142677691Y-129026053D01*
G37*
G36*
X135877691Y-77276053D02*
G01*
X135898926Y-77279203D01*
X135919750Y-77284419D01*
X135939962Y-77291651D01*
X135959368Y-77300830D01*
X135977781Y-77311866D01*
X135995024Y-77324654D01*
X136010930Y-77339070D01*
X136025346Y-77354976D01*
X136038134Y-77372219D01*
X136049170Y-77390632D01*
X136058349Y-77410038D01*
X136065581Y-77430250D01*
X136070797Y-77451074D01*
X136073947Y-77472309D01*
X136075000Y-77493750D01*
X136075000Y-77931250D01*
X136073947Y-77952691D01*
X136070797Y-77973926D01*
X136065581Y-77994750D01*
X136058349Y-78014962D01*
X136049170Y-78034368D01*
X136038134Y-78052781D01*
X136025346Y-78070024D01*
X136010930Y-78085930D01*
X135995024Y-78100346D01*
X135977781Y-78113134D01*
X135959368Y-78124170D01*
X135939962Y-78133349D01*
X135919750Y-78140581D01*
X135898926Y-78145797D01*
X135877691Y-78148947D01*
X135856250Y-78150000D01*
X135343750Y-78150000D01*
X135322309Y-78148947D01*
X135301074Y-78145797D01*
X135280250Y-78140581D01*
X135260038Y-78133349D01*
X135240632Y-78124170D01*
X135222219Y-78113134D01*
X135204976Y-78100346D01*
X135189070Y-78085930D01*
X135174654Y-78070024D01*
X135161866Y-78052781D01*
X135150830Y-78034368D01*
X135141651Y-78014962D01*
X135134419Y-77994750D01*
X135129203Y-77973926D01*
X135126053Y-77952691D01*
X135125000Y-77931250D01*
X135125000Y-77493750D01*
X135126053Y-77472309D01*
X135129203Y-77451074D01*
X135134419Y-77430250D01*
X135141651Y-77410038D01*
X135150830Y-77390632D01*
X135161866Y-77372219D01*
X135174654Y-77354976D01*
X135189070Y-77339070D01*
X135204976Y-77324654D01*
X135222219Y-77311866D01*
X135240632Y-77300830D01*
X135260038Y-77291651D01*
X135280250Y-77284419D01*
X135301074Y-77279203D01*
X135322309Y-77276053D01*
X135343750Y-77275000D01*
X135856250Y-77275000D01*
X135877691Y-77276053D01*
G37*
G36*
X135877691Y-78851053D02*
G01*
X135898926Y-78854203D01*
X135919750Y-78859419D01*
X135939962Y-78866651D01*
X135959368Y-78875830D01*
X135977781Y-78886866D01*
X135995024Y-78899654D01*
X136010930Y-78914070D01*
X136025346Y-78929976D01*
X136038134Y-78947219D01*
X136049170Y-78965632D01*
X136058349Y-78985038D01*
X136065581Y-79005250D01*
X136070797Y-79026074D01*
X136073947Y-79047309D01*
X136075000Y-79068750D01*
X136075000Y-79506250D01*
X136073947Y-79527691D01*
X136070797Y-79548926D01*
X136065581Y-79569750D01*
X136058349Y-79589962D01*
X136049170Y-79609368D01*
X136038134Y-79627781D01*
X136025346Y-79645024D01*
X136010930Y-79660930D01*
X135995024Y-79675346D01*
X135977781Y-79688134D01*
X135959368Y-79699170D01*
X135939962Y-79708349D01*
X135919750Y-79715581D01*
X135898926Y-79720797D01*
X135877691Y-79723947D01*
X135856250Y-79725000D01*
X135343750Y-79725000D01*
X135322309Y-79723947D01*
X135301074Y-79720797D01*
X135280250Y-79715581D01*
X135260038Y-79708349D01*
X135240632Y-79699170D01*
X135222219Y-79688134D01*
X135204976Y-79675346D01*
X135189070Y-79660930D01*
X135174654Y-79645024D01*
X135161866Y-79627781D01*
X135150830Y-79609368D01*
X135141651Y-79589962D01*
X135134419Y-79569750D01*
X135129203Y-79548926D01*
X135126053Y-79527691D01*
X135125000Y-79506250D01*
X135125000Y-79068750D01*
X135126053Y-79047309D01*
X135129203Y-79026074D01*
X135134419Y-79005250D01*
X135141651Y-78985038D01*
X135150830Y-78965632D01*
X135161866Y-78947219D01*
X135174654Y-78929976D01*
X135189070Y-78914070D01*
X135204976Y-78899654D01*
X135222219Y-78886866D01*
X135240632Y-78875830D01*
X135260038Y-78866651D01*
X135280250Y-78859419D01*
X135301074Y-78854203D01*
X135322309Y-78851053D01*
X135343750Y-78850000D01*
X135856250Y-78850000D01*
X135877691Y-78851053D01*
G37*
G36*
X172777691Y-117988553D02*
G01*
X172798926Y-117991703D01*
X172819750Y-117996919D01*
X172839962Y-118004151D01*
X172859368Y-118013330D01*
X172877781Y-118024366D01*
X172895024Y-118037154D01*
X172910930Y-118051570D01*
X172925346Y-118067476D01*
X172938134Y-118084719D01*
X172949170Y-118103132D01*
X172958349Y-118122538D01*
X172965581Y-118142750D01*
X172970797Y-118163574D01*
X172973947Y-118184809D01*
X172975000Y-118206250D01*
X172975000Y-118643750D01*
X172973947Y-118665191D01*
X172970797Y-118686426D01*
X172965581Y-118707250D01*
X172958349Y-118727462D01*
X172949170Y-118746868D01*
X172938134Y-118765281D01*
X172925346Y-118782524D01*
X172910930Y-118798430D01*
X172895024Y-118812846D01*
X172877781Y-118825634D01*
X172859368Y-118836670D01*
X172839962Y-118845849D01*
X172819750Y-118853081D01*
X172798926Y-118858297D01*
X172777691Y-118861447D01*
X172756250Y-118862500D01*
X172243750Y-118862500D01*
X172222309Y-118861447D01*
X172201074Y-118858297D01*
X172180250Y-118853081D01*
X172160038Y-118845849D01*
X172140632Y-118836670D01*
X172122219Y-118825634D01*
X172104976Y-118812846D01*
X172089070Y-118798430D01*
X172074654Y-118782524D01*
X172061866Y-118765281D01*
X172050830Y-118746868D01*
X172041651Y-118727462D01*
X172034419Y-118707250D01*
X172029203Y-118686426D01*
X172026053Y-118665191D01*
X172025000Y-118643750D01*
X172025000Y-118206250D01*
X172026053Y-118184809D01*
X172029203Y-118163574D01*
X172034419Y-118142750D01*
X172041651Y-118122538D01*
X172050830Y-118103132D01*
X172061866Y-118084719D01*
X172074654Y-118067476D01*
X172089070Y-118051570D01*
X172104976Y-118037154D01*
X172122219Y-118024366D01*
X172140632Y-118013330D01*
X172160038Y-118004151D01*
X172180250Y-117996919D01*
X172201074Y-117991703D01*
X172222309Y-117988553D01*
X172243750Y-117987500D01*
X172756250Y-117987500D01*
X172777691Y-117988553D01*
G37*
G36*
X172777691Y-119563553D02*
G01*
X172798926Y-119566703D01*
X172819750Y-119571919D01*
X172839962Y-119579151D01*
X172859368Y-119588330D01*
X172877781Y-119599366D01*
X172895024Y-119612154D01*
X172910930Y-119626570D01*
X172925346Y-119642476D01*
X172938134Y-119659719D01*
X172949170Y-119678132D01*
X172958349Y-119697538D01*
X172965581Y-119717750D01*
X172970797Y-119738574D01*
X172973947Y-119759809D01*
X172975000Y-119781250D01*
X172975000Y-120218750D01*
X172973947Y-120240191D01*
X172970797Y-120261426D01*
X172965581Y-120282250D01*
X172958349Y-120302462D01*
X172949170Y-120321868D01*
X172938134Y-120340281D01*
X172925346Y-120357524D01*
X172910930Y-120373430D01*
X172895024Y-120387846D01*
X172877781Y-120400634D01*
X172859368Y-120411670D01*
X172839962Y-120420849D01*
X172819750Y-120428081D01*
X172798926Y-120433297D01*
X172777691Y-120436447D01*
X172756250Y-120437500D01*
X172243750Y-120437500D01*
X172222309Y-120436447D01*
X172201074Y-120433297D01*
X172180250Y-120428081D01*
X172160038Y-120420849D01*
X172140632Y-120411670D01*
X172122219Y-120400634D01*
X172104976Y-120387846D01*
X172089070Y-120373430D01*
X172074654Y-120357524D01*
X172061866Y-120340281D01*
X172050830Y-120321868D01*
X172041651Y-120302462D01*
X172034419Y-120282250D01*
X172029203Y-120261426D01*
X172026053Y-120240191D01*
X172025000Y-120218750D01*
X172025000Y-119781250D01*
X172026053Y-119759809D01*
X172029203Y-119738574D01*
X172034419Y-119717750D01*
X172041651Y-119697538D01*
X172050830Y-119678132D01*
X172061866Y-119659719D01*
X172074654Y-119642476D01*
X172089070Y-119626570D01*
X172104976Y-119612154D01*
X172122219Y-119599366D01*
X172140632Y-119588330D01*
X172160038Y-119579151D01*
X172180250Y-119571919D01*
X172201074Y-119566703D01*
X172222309Y-119563553D01*
X172243750Y-119562500D01*
X172756250Y-119562500D01*
X172777691Y-119563553D01*
G37*
G36*
X137277691Y-119351053D02*
G01*
X137298926Y-119354203D01*
X137319750Y-119359419D01*
X137339962Y-119366651D01*
X137359368Y-119375830D01*
X137377781Y-119386866D01*
X137395024Y-119399654D01*
X137410930Y-119414070D01*
X137425346Y-119429976D01*
X137438134Y-119447219D01*
X137449170Y-119465632D01*
X137458349Y-119485038D01*
X137465581Y-119505250D01*
X137470797Y-119526074D01*
X137473947Y-119547309D01*
X137475000Y-119568750D01*
X137475000Y-120006250D01*
X137473947Y-120027691D01*
X137470797Y-120048926D01*
X137465581Y-120069750D01*
X137458349Y-120089962D01*
X137449170Y-120109368D01*
X137438134Y-120127781D01*
X137425346Y-120145024D01*
X137410930Y-120160930D01*
X137395024Y-120175346D01*
X137377781Y-120188134D01*
X137359368Y-120199170D01*
X137339962Y-120208349D01*
X137319750Y-120215581D01*
X137298926Y-120220797D01*
X137277691Y-120223947D01*
X137256250Y-120225000D01*
X136743750Y-120225000D01*
X136722309Y-120223947D01*
X136701074Y-120220797D01*
X136680250Y-120215581D01*
X136660038Y-120208349D01*
X136640632Y-120199170D01*
X136622219Y-120188134D01*
X136604976Y-120175346D01*
X136589070Y-120160930D01*
X136574654Y-120145024D01*
X136561866Y-120127781D01*
X136550830Y-120109368D01*
X136541651Y-120089962D01*
X136534419Y-120069750D01*
X136529203Y-120048926D01*
X136526053Y-120027691D01*
X136525000Y-120006250D01*
X136525000Y-119568750D01*
X136526053Y-119547309D01*
X136529203Y-119526074D01*
X136534419Y-119505250D01*
X136541651Y-119485038D01*
X136550830Y-119465632D01*
X136561866Y-119447219D01*
X136574654Y-119429976D01*
X136589070Y-119414070D01*
X136604976Y-119399654D01*
X136622219Y-119386866D01*
X136640632Y-119375830D01*
X136660038Y-119366651D01*
X136680250Y-119359419D01*
X136701074Y-119354203D01*
X136722309Y-119351053D01*
X136743750Y-119350000D01*
X137256250Y-119350000D01*
X137277691Y-119351053D01*
G37*
G36*
X137277691Y-117776053D02*
G01*
X137298926Y-117779203D01*
X137319750Y-117784419D01*
X137339962Y-117791651D01*
X137359368Y-117800830D01*
X137377781Y-117811866D01*
X137395024Y-117824654D01*
X137410930Y-117839070D01*
X137425346Y-117854976D01*
X137438134Y-117872219D01*
X137449170Y-117890632D01*
X137458349Y-117910038D01*
X137465581Y-117930250D01*
X137470797Y-117951074D01*
X137473947Y-117972309D01*
X137475000Y-117993750D01*
X137475000Y-118431250D01*
X137473947Y-118452691D01*
X137470797Y-118473926D01*
X137465581Y-118494750D01*
X137458349Y-118514962D01*
X137449170Y-118534368D01*
X137438134Y-118552781D01*
X137425346Y-118570024D01*
X137410930Y-118585930D01*
X137395024Y-118600346D01*
X137377781Y-118613134D01*
X137359368Y-118624170D01*
X137339962Y-118633349D01*
X137319750Y-118640581D01*
X137298926Y-118645797D01*
X137277691Y-118648947D01*
X137256250Y-118650000D01*
X136743750Y-118650000D01*
X136722309Y-118648947D01*
X136701074Y-118645797D01*
X136680250Y-118640581D01*
X136660038Y-118633349D01*
X136640632Y-118624170D01*
X136622219Y-118613134D01*
X136604976Y-118600346D01*
X136589070Y-118585930D01*
X136574654Y-118570024D01*
X136561866Y-118552781D01*
X136550830Y-118534368D01*
X136541651Y-118514962D01*
X136534419Y-118494750D01*
X136529203Y-118473926D01*
X136526053Y-118452691D01*
X136525000Y-118431250D01*
X136525000Y-117993750D01*
X136526053Y-117972309D01*
X136529203Y-117951074D01*
X136534419Y-117930250D01*
X136541651Y-117910038D01*
X136550830Y-117890632D01*
X136561866Y-117872219D01*
X136574654Y-117854976D01*
X136589070Y-117839070D01*
X136604976Y-117824654D01*
X136622219Y-117811866D01*
X136640632Y-117800830D01*
X136660038Y-117791651D01*
X136680250Y-117784419D01*
X136701074Y-117779203D01*
X136722309Y-117776053D01*
X136743750Y-117775000D01*
X137256250Y-117775000D01*
X137277691Y-117776053D01*
G37*
G36*
X138352691Y-95726053D02*
G01*
X138373926Y-95729203D01*
X138394750Y-95734419D01*
X138414962Y-95741651D01*
X138434368Y-95750830D01*
X138452781Y-95761866D01*
X138470024Y-95774654D01*
X138485930Y-95789070D01*
X138500346Y-95804976D01*
X138513134Y-95822219D01*
X138524170Y-95840632D01*
X138533349Y-95860038D01*
X138540581Y-95880250D01*
X138545797Y-95901074D01*
X138548947Y-95922309D01*
X138550000Y-95943750D01*
X138550000Y-96456250D01*
X138548947Y-96477691D01*
X138545797Y-96498926D01*
X138540581Y-96519750D01*
X138533349Y-96539962D01*
X138524170Y-96559368D01*
X138513134Y-96577781D01*
X138500346Y-96595024D01*
X138485930Y-96610930D01*
X138470024Y-96625346D01*
X138452781Y-96638134D01*
X138434368Y-96649170D01*
X138414962Y-96658349D01*
X138394750Y-96665581D01*
X138373926Y-96670797D01*
X138352691Y-96673947D01*
X138331250Y-96675000D01*
X137893750Y-96675000D01*
X137872309Y-96673947D01*
X137851074Y-96670797D01*
X137830250Y-96665581D01*
X137810038Y-96658349D01*
X137790632Y-96649170D01*
X137772219Y-96638134D01*
X137754976Y-96625346D01*
X137739070Y-96610930D01*
X137724654Y-96595024D01*
X137711866Y-96577781D01*
X137700830Y-96559368D01*
X137691651Y-96539962D01*
X137684419Y-96519750D01*
X137679203Y-96498926D01*
X137676053Y-96477691D01*
X137675000Y-96456250D01*
X137675000Y-95943750D01*
X137676053Y-95922309D01*
X137679203Y-95901074D01*
X137684419Y-95880250D01*
X137691651Y-95860038D01*
X137700830Y-95840632D01*
X137711866Y-95822219D01*
X137724654Y-95804976D01*
X137739070Y-95789070D01*
X137754976Y-95774654D01*
X137772219Y-95761866D01*
X137790632Y-95750830D01*
X137810038Y-95741651D01*
X137830250Y-95734419D01*
X137851074Y-95729203D01*
X137872309Y-95726053D01*
X137893750Y-95725000D01*
X138331250Y-95725000D01*
X138352691Y-95726053D01*
G37*
G36*
X139927691Y-95726053D02*
G01*
X139948926Y-95729203D01*
X139969750Y-95734419D01*
X139989962Y-95741651D01*
X140009368Y-95750830D01*
X140027781Y-95761866D01*
X140045024Y-95774654D01*
X140060930Y-95789070D01*
X140075346Y-95804976D01*
X140088134Y-95822219D01*
X140099170Y-95840632D01*
X140108349Y-95860038D01*
X140115581Y-95880250D01*
X140120797Y-95901074D01*
X140123947Y-95922309D01*
X140125000Y-95943750D01*
X140125000Y-96456250D01*
X140123947Y-96477691D01*
X140120797Y-96498926D01*
X140115581Y-96519750D01*
X140108349Y-96539962D01*
X140099170Y-96559368D01*
X140088134Y-96577781D01*
X140075346Y-96595024D01*
X140060930Y-96610930D01*
X140045024Y-96625346D01*
X140027781Y-96638134D01*
X140009368Y-96649170D01*
X139989962Y-96658349D01*
X139969750Y-96665581D01*
X139948926Y-96670797D01*
X139927691Y-96673947D01*
X139906250Y-96675000D01*
X139468750Y-96675000D01*
X139447309Y-96673947D01*
X139426074Y-96670797D01*
X139405250Y-96665581D01*
X139385038Y-96658349D01*
X139365632Y-96649170D01*
X139347219Y-96638134D01*
X139329976Y-96625346D01*
X139314070Y-96610930D01*
X139299654Y-96595024D01*
X139286866Y-96577781D01*
X139275830Y-96559368D01*
X139266651Y-96539962D01*
X139259419Y-96519750D01*
X139254203Y-96498926D01*
X139251053Y-96477691D01*
X139250000Y-96456250D01*
X139250000Y-95943750D01*
X139251053Y-95922309D01*
X139254203Y-95901074D01*
X139259419Y-95880250D01*
X139266651Y-95860038D01*
X139275830Y-95840632D01*
X139286866Y-95822219D01*
X139299654Y-95804976D01*
X139314070Y-95789070D01*
X139329976Y-95774654D01*
X139347219Y-95761866D01*
X139365632Y-95750830D01*
X139385038Y-95741651D01*
X139405250Y-95734419D01*
X139426074Y-95729203D01*
X139447309Y-95726053D01*
X139468750Y-95725000D01*
X139906250Y-95725000D01*
X139927691Y-95726053D01*
G37*
G36*
X155277691Y-119351053D02*
G01*
X155298926Y-119354203D01*
X155319750Y-119359419D01*
X155339962Y-119366651D01*
X155359368Y-119375830D01*
X155377781Y-119386866D01*
X155395024Y-119399654D01*
X155410930Y-119414070D01*
X155425346Y-119429976D01*
X155438134Y-119447219D01*
X155449170Y-119465632D01*
X155458349Y-119485038D01*
X155465581Y-119505250D01*
X155470797Y-119526074D01*
X155473947Y-119547309D01*
X155475000Y-119568750D01*
X155475000Y-120006250D01*
X155473947Y-120027691D01*
X155470797Y-120048926D01*
X155465581Y-120069750D01*
X155458349Y-120089962D01*
X155449170Y-120109368D01*
X155438134Y-120127781D01*
X155425346Y-120145024D01*
X155410930Y-120160930D01*
X155395024Y-120175346D01*
X155377781Y-120188134D01*
X155359368Y-120199170D01*
X155339962Y-120208349D01*
X155319750Y-120215581D01*
X155298926Y-120220797D01*
X155277691Y-120223947D01*
X155256250Y-120225000D01*
X154743750Y-120225000D01*
X154722309Y-120223947D01*
X154701074Y-120220797D01*
X154680250Y-120215581D01*
X154660038Y-120208349D01*
X154640632Y-120199170D01*
X154622219Y-120188134D01*
X154604976Y-120175346D01*
X154589070Y-120160930D01*
X154574654Y-120145024D01*
X154561866Y-120127781D01*
X154550830Y-120109368D01*
X154541651Y-120089962D01*
X154534419Y-120069750D01*
X154529203Y-120048926D01*
X154526053Y-120027691D01*
X154525000Y-120006250D01*
X154525000Y-119568750D01*
X154526053Y-119547309D01*
X154529203Y-119526074D01*
X154534419Y-119505250D01*
X154541651Y-119485038D01*
X154550830Y-119465632D01*
X154561866Y-119447219D01*
X154574654Y-119429976D01*
X154589070Y-119414070D01*
X154604976Y-119399654D01*
X154622219Y-119386866D01*
X154640632Y-119375830D01*
X154660038Y-119366651D01*
X154680250Y-119359419D01*
X154701074Y-119354203D01*
X154722309Y-119351053D01*
X154743750Y-119350000D01*
X155256250Y-119350000D01*
X155277691Y-119351053D01*
G37*
G36*
X155277691Y-117776053D02*
G01*
X155298926Y-117779203D01*
X155319750Y-117784419D01*
X155339962Y-117791651D01*
X155359368Y-117800830D01*
X155377781Y-117811866D01*
X155395024Y-117824654D01*
X155410930Y-117839070D01*
X155425346Y-117854976D01*
X155438134Y-117872219D01*
X155449170Y-117890632D01*
X155458349Y-117910038D01*
X155465581Y-117930250D01*
X155470797Y-117951074D01*
X155473947Y-117972309D01*
X155475000Y-117993750D01*
X155475000Y-118431250D01*
X155473947Y-118452691D01*
X155470797Y-118473926D01*
X155465581Y-118494750D01*
X155458349Y-118514962D01*
X155449170Y-118534368D01*
X155438134Y-118552781D01*
X155425346Y-118570024D01*
X155410930Y-118585930D01*
X155395024Y-118600346D01*
X155377781Y-118613134D01*
X155359368Y-118624170D01*
X155339962Y-118633349D01*
X155319750Y-118640581D01*
X155298926Y-118645797D01*
X155277691Y-118648947D01*
X155256250Y-118650000D01*
X154743750Y-118650000D01*
X154722309Y-118648947D01*
X154701074Y-118645797D01*
X154680250Y-118640581D01*
X154660038Y-118633349D01*
X154640632Y-118624170D01*
X154622219Y-118613134D01*
X154604976Y-118600346D01*
X154589070Y-118585930D01*
X154574654Y-118570024D01*
X154561866Y-118552781D01*
X154550830Y-118534368D01*
X154541651Y-118514962D01*
X154534419Y-118494750D01*
X154529203Y-118473926D01*
X154526053Y-118452691D01*
X154525000Y-118431250D01*
X154525000Y-117993750D01*
X154526053Y-117972309D01*
X154529203Y-117951074D01*
X154534419Y-117930250D01*
X154541651Y-117910038D01*
X154550830Y-117890632D01*
X154561866Y-117872219D01*
X154574654Y-117854976D01*
X154589070Y-117839070D01*
X154604976Y-117824654D01*
X154622219Y-117811866D01*
X154640632Y-117800830D01*
X154660038Y-117791651D01*
X154680250Y-117784419D01*
X154701074Y-117779203D01*
X154722309Y-117776053D01*
X154743750Y-117775000D01*
X155256250Y-117775000D01*
X155277691Y-117776053D01*
G37*
G36*
X187877691Y-114551053D02*
G01*
X187898926Y-114554203D01*
X187919750Y-114559419D01*
X187939962Y-114566651D01*
X187959368Y-114575830D01*
X187977781Y-114586866D01*
X187995024Y-114599654D01*
X188010930Y-114614070D01*
X188025346Y-114629976D01*
X188038134Y-114647219D01*
X188049170Y-114665632D01*
X188058349Y-114685038D01*
X188065581Y-114705250D01*
X188070797Y-114726074D01*
X188073947Y-114747309D01*
X188075000Y-114768750D01*
X188075000Y-115206250D01*
X188073947Y-115227691D01*
X188070797Y-115248926D01*
X188065581Y-115269750D01*
X188058349Y-115289962D01*
X188049170Y-115309368D01*
X188038134Y-115327781D01*
X188025346Y-115345024D01*
X188010930Y-115360930D01*
X187995024Y-115375346D01*
X187977781Y-115388134D01*
X187959368Y-115399170D01*
X187939962Y-115408349D01*
X187919750Y-115415581D01*
X187898926Y-115420797D01*
X187877691Y-115423947D01*
X187856250Y-115425000D01*
X187343750Y-115425000D01*
X187322309Y-115423947D01*
X187301074Y-115420797D01*
X187280250Y-115415581D01*
X187260038Y-115408349D01*
X187240632Y-115399170D01*
X187222219Y-115388134D01*
X187204976Y-115375346D01*
X187189070Y-115360930D01*
X187174654Y-115345024D01*
X187161866Y-115327781D01*
X187150830Y-115309368D01*
X187141651Y-115289962D01*
X187134419Y-115269750D01*
X187129203Y-115248926D01*
X187126053Y-115227691D01*
X187125000Y-115206250D01*
X187125000Y-114768750D01*
X187126053Y-114747309D01*
X187129203Y-114726074D01*
X187134419Y-114705250D01*
X187141651Y-114685038D01*
X187150830Y-114665632D01*
X187161866Y-114647219D01*
X187174654Y-114629976D01*
X187189070Y-114614070D01*
X187204976Y-114599654D01*
X187222219Y-114586866D01*
X187240632Y-114575830D01*
X187260038Y-114566651D01*
X187280250Y-114559419D01*
X187301074Y-114554203D01*
X187322309Y-114551053D01*
X187343750Y-114550000D01*
X187856250Y-114550000D01*
X187877691Y-114551053D01*
G37*
G36*
X187877691Y-112976053D02*
G01*
X187898926Y-112979203D01*
X187919750Y-112984419D01*
X187939962Y-112991651D01*
X187959368Y-113000830D01*
X187977781Y-113011866D01*
X187995024Y-113024654D01*
X188010930Y-113039070D01*
X188025346Y-113054976D01*
X188038134Y-113072219D01*
X188049170Y-113090632D01*
X188058349Y-113110038D01*
X188065581Y-113130250D01*
X188070797Y-113151074D01*
X188073947Y-113172309D01*
X188075000Y-113193750D01*
X188075000Y-113631250D01*
X188073947Y-113652691D01*
X188070797Y-113673926D01*
X188065581Y-113694750D01*
X188058349Y-113714962D01*
X188049170Y-113734368D01*
X188038134Y-113752781D01*
X188025346Y-113770024D01*
X188010930Y-113785930D01*
X187995024Y-113800346D01*
X187977781Y-113813134D01*
X187959368Y-113824170D01*
X187939962Y-113833349D01*
X187919750Y-113840581D01*
X187898926Y-113845797D01*
X187877691Y-113848947D01*
X187856250Y-113850000D01*
X187343750Y-113850000D01*
X187322309Y-113848947D01*
X187301074Y-113845797D01*
X187280250Y-113840581D01*
X187260038Y-113833349D01*
X187240632Y-113824170D01*
X187222219Y-113813134D01*
X187204976Y-113800346D01*
X187189070Y-113785930D01*
X187174654Y-113770024D01*
X187161866Y-113752781D01*
X187150830Y-113734368D01*
X187141651Y-113714962D01*
X187134419Y-113694750D01*
X187129203Y-113673926D01*
X187126053Y-113652691D01*
X187125000Y-113631250D01*
X187125000Y-113193750D01*
X187126053Y-113172309D01*
X187129203Y-113151074D01*
X187134419Y-113130250D01*
X187141651Y-113110038D01*
X187150830Y-113090632D01*
X187161866Y-113072219D01*
X187174654Y-113054976D01*
X187189070Y-113039070D01*
X187204976Y-113024654D01*
X187222219Y-113011866D01*
X187240632Y-113000830D01*
X187260038Y-112991651D01*
X187280250Y-112984419D01*
X187301074Y-112979203D01*
X187322309Y-112976053D01*
X187343750Y-112975000D01*
X187856250Y-112975000D01*
X187877691Y-112976053D01*
G37*
D14*
X163000000Y-93975000D03*
X158500000Y-93975000D03*
X158500000Y-86025000D03*
X163000000Y-86025000D03*
D15*
X128850000Y-88600000D03*
X129800000Y-88600000D03*
X130750000Y-88600000D03*
X130750000Y-86400000D03*
X128850000Y-86400000D03*
D16*
X145600000Y-83745000D03*
D17*
X138100000Y-76245000D03*
X138100000Y-77515000D03*
X138100000Y-78785000D03*
X138100000Y-80055000D03*
X138100000Y-81325000D03*
X138100000Y-82595000D03*
X138100000Y-83865000D03*
X138100000Y-85135000D03*
X138100000Y-86405000D03*
X138100000Y-87675000D03*
X138100000Y-88945000D03*
X138100000Y-90215000D03*
X138100000Y-91485000D03*
X138100000Y-92755000D03*
D18*
X140885000Y-93755000D03*
X142155000Y-93755000D03*
X143425000Y-93755000D03*
X144695000Y-93755000D03*
X145965000Y-93755000D03*
X147235000Y-93755000D03*
X148505000Y-93755000D03*
X149775000Y-93755000D03*
X151045000Y-93755000D03*
X152315000Y-93755000D03*
D17*
X155100000Y-92755000D03*
X155100000Y-91485000D03*
X155100000Y-90215000D03*
X155100000Y-88945000D03*
X155100000Y-87675000D03*
X155100000Y-86405000D03*
X155100000Y-85135000D03*
X155100000Y-83865000D03*
X155100000Y-82595000D03*
X155100000Y-81325000D03*
X155100000Y-80055000D03*
X155100000Y-78785000D03*
X155100000Y-77515000D03*
X155100000Y-76245000D03*
D19*
X158000000Y-111650000D03*
X155000000Y-111650000D03*
D20*
X159300000Y-109300000D03*
X153700000Y-109300000D03*
D21*
X154900000Y-106800000D03*
X156500000Y-106800000D03*
X158100000Y-106800000D03*
D19*
X122500000Y-111400000D03*
X119500000Y-111400000D03*
D20*
X123800000Y-109050000D03*
X118200000Y-109050000D03*
D21*
X119400000Y-106550000D03*
X121000000Y-106550000D03*
X122600000Y-106550000D03*
X140600000Y-106550000D03*
X139000000Y-106550000D03*
X137400000Y-106550000D03*
D20*
X136200000Y-109050000D03*
X141800000Y-109050000D03*
D19*
X137500000Y-111400000D03*
X140500000Y-111400000D03*
D21*
X175500000Y-105200000D03*
X173900000Y-105200000D03*
X172300000Y-105200000D03*
D20*
X171100000Y-107700000D03*
X176700000Y-107700000D03*
D19*
X172400000Y-110050000D03*
X175400000Y-110050000D03*
D10*
G36*
X114432692Y-86381054D02*
G01*
X114453927Y-86384204D01*
X114474751Y-86389420D01*
X114494963Y-86396652D01*
X114514369Y-86405831D01*
X114532782Y-86416867D01*
X114550025Y-86429655D01*
X114565931Y-86444071D01*
X114580347Y-86459977D01*
X114593135Y-86477220D01*
X114604171Y-86495633D01*
X114613350Y-86515039D01*
X114620582Y-86535251D01*
X114625798Y-86556075D01*
X114628948Y-86577310D01*
X114630001Y-86598751D01*
X114630001Y-87111251D01*
X114628948Y-87132692D01*
X114625798Y-87153927D01*
X114620582Y-87174751D01*
X114613350Y-87194963D01*
X114604171Y-87214369D01*
X114593135Y-87232782D01*
X114580347Y-87250025D01*
X114565931Y-87265931D01*
X114550025Y-87280347D01*
X114532782Y-87293135D01*
X114514369Y-87304171D01*
X114494963Y-87313350D01*
X114474751Y-87320582D01*
X114453927Y-87325798D01*
X114432692Y-87328948D01*
X114411251Y-87330001D01*
X113973751Y-87330001D01*
X113952310Y-87328948D01*
X113931075Y-87325798D01*
X113910251Y-87320582D01*
X113890039Y-87313350D01*
X113870633Y-87304171D01*
X113852220Y-87293135D01*
X113834977Y-87280347D01*
X113819071Y-87265931D01*
X113804655Y-87250025D01*
X113791867Y-87232782D01*
X113780831Y-87214369D01*
X113771652Y-87194963D01*
X113764420Y-87174751D01*
X113759204Y-87153927D01*
X113756054Y-87132692D01*
X113755001Y-87111251D01*
X113755001Y-86598751D01*
X113756054Y-86577310D01*
X113759204Y-86556075D01*
X113764420Y-86535251D01*
X113771652Y-86515039D01*
X113780831Y-86495633D01*
X113791867Y-86477220D01*
X113804655Y-86459977D01*
X113819071Y-86444071D01*
X113834977Y-86429655D01*
X113852220Y-86416867D01*
X113870633Y-86405831D01*
X113890039Y-86396652D01*
X113910251Y-86389420D01*
X113931075Y-86384204D01*
X113952310Y-86381054D01*
X113973751Y-86380001D01*
X114411251Y-86380001D01*
X114432692Y-86381054D01*
G37*
G36*
X112857692Y-86381054D02*
G01*
X112878927Y-86384204D01*
X112899751Y-86389420D01*
X112919963Y-86396652D01*
X112939369Y-86405831D01*
X112957782Y-86416867D01*
X112975025Y-86429655D01*
X112990931Y-86444071D01*
X113005347Y-86459977D01*
X113018135Y-86477220D01*
X113029171Y-86495633D01*
X113038350Y-86515039D01*
X113045582Y-86535251D01*
X113050798Y-86556075D01*
X113053948Y-86577310D01*
X113055001Y-86598751D01*
X113055001Y-87111251D01*
X113053948Y-87132692D01*
X113050798Y-87153927D01*
X113045582Y-87174751D01*
X113038350Y-87194963D01*
X113029171Y-87214369D01*
X113018135Y-87232782D01*
X113005347Y-87250025D01*
X112990931Y-87265931D01*
X112975025Y-87280347D01*
X112957782Y-87293135D01*
X112939369Y-87304171D01*
X112919963Y-87313350D01*
X112899751Y-87320582D01*
X112878927Y-87325798D01*
X112857692Y-87328948D01*
X112836251Y-87330001D01*
X112398751Y-87330001D01*
X112377310Y-87328948D01*
X112356075Y-87325798D01*
X112335251Y-87320582D01*
X112315039Y-87313350D01*
X112295633Y-87304171D01*
X112277220Y-87293135D01*
X112259977Y-87280347D01*
X112244071Y-87265931D01*
X112229655Y-87250025D01*
X112216867Y-87232782D01*
X112205831Y-87214369D01*
X112196652Y-87194963D01*
X112189420Y-87174751D01*
X112184204Y-87153927D01*
X112181054Y-87132692D01*
X112180001Y-87111251D01*
X112180001Y-86598751D01*
X112181054Y-86577310D01*
X112184204Y-86556075D01*
X112189420Y-86535251D01*
X112196652Y-86515039D01*
X112205831Y-86495633D01*
X112216867Y-86477220D01*
X112229655Y-86459977D01*
X112244071Y-86444071D01*
X112259977Y-86429655D01*
X112277220Y-86416867D01*
X112295633Y-86405831D01*
X112315039Y-86396652D01*
X112335251Y-86389420D01*
X112356075Y-86384204D01*
X112377310Y-86381054D01*
X112398751Y-86380001D01*
X112836251Y-86380001D01*
X112857692Y-86381054D01*
G37*
G36*
X114432692Y-88891054D02*
G01*
X114453927Y-88894204D01*
X114474751Y-88899420D01*
X114494963Y-88906652D01*
X114514369Y-88915831D01*
X114532782Y-88926867D01*
X114550025Y-88939655D01*
X114565931Y-88954071D01*
X114580347Y-88969977D01*
X114593135Y-88987220D01*
X114604171Y-89005633D01*
X114613350Y-89025039D01*
X114620582Y-89045251D01*
X114625798Y-89066075D01*
X114628948Y-89087310D01*
X114630001Y-89108751D01*
X114630001Y-89621251D01*
X114628948Y-89642692D01*
X114625798Y-89663927D01*
X114620582Y-89684751D01*
X114613350Y-89704963D01*
X114604171Y-89724369D01*
X114593135Y-89742782D01*
X114580347Y-89760025D01*
X114565931Y-89775931D01*
X114550025Y-89790347D01*
X114532782Y-89803135D01*
X114514369Y-89814171D01*
X114494963Y-89823350D01*
X114474751Y-89830582D01*
X114453927Y-89835798D01*
X114432692Y-89838948D01*
X114411251Y-89840001D01*
X113973751Y-89840001D01*
X113952310Y-89838948D01*
X113931075Y-89835798D01*
X113910251Y-89830582D01*
X113890039Y-89823350D01*
X113870633Y-89814171D01*
X113852220Y-89803135D01*
X113834977Y-89790347D01*
X113819071Y-89775931D01*
X113804655Y-89760025D01*
X113791867Y-89742782D01*
X113780831Y-89724369D01*
X113771652Y-89704963D01*
X113764420Y-89684751D01*
X113759204Y-89663927D01*
X113756054Y-89642692D01*
X113755001Y-89621251D01*
X113755001Y-89108751D01*
X113756054Y-89087310D01*
X113759204Y-89066075D01*
X113764420Y-89045251D01*
X113771652Y-89025039D01*
X113780831Y-89005633D01*
X113791867Y-88987220D01*
X113804655Y-88969977D01*
X113819071Y-88954071D01*
X113834977Y-88939655D01*
X113852220Y-88926867D01*
X113870633Y-88915831D01*
X113890039Y-88906652D01*
X113910251Y-88899420D01*
X113931075Y-88894204D01*
X113952310Y-88891054D01*
X113973751Y-88890001D01*
X114411251Y-88890001D01*
X114432692Y-88891054D01*
G37*
G36*
X112857692Y-88891054D02*
G01*
X112878927Y-88894204D01*
X112899751Y-88899420D01*
X112919963Y-88906652D01*
X112939369Y-88915831D01*
X112957782Y-88926867D01*
X112975025Y-88939655D01*
X112990931Y-88954071D01*
X113005347Y-88969977D01*
X113018135Y-88987220D01*
X113029171Y-89005633D01*
X113038350Y-89025039D01*
X113045582Y-89045251D01*
X113050798Y-89066075D01*
X113053948Y-89087310D01*
X113055001Y-89108751D01*
X113055001Y-89621251D01*
X113053948Y-89642692D01*
X113050798Y-89663927D01*
X113045582Y-89684751D01*
X113038350Y-89704963D01*
X113029171Y-89724369D01*
X113018135Y-89742782D01*
X113005347Y-89760025D01*
X112990931Y-89775931D01*
X112975025Y-89790347D01*
X112957782Y-89803135D01*
X112939369Y-89814171D01*
X112919963Y-89823350D01*
X112899751Y-89830582D01*
X112878927Y-89835798D01*
X112857692Y-89838948D01*
X112836251Y-89840001D01*
X112398751Y-89840001D01*
X112377310Y-89838948D01*
X112356075Y-89835798D01*
X112335251Y-89830582D01*
X112315039Y-89823350D01*
X112295633Y-89814171D01*
X112277220Y-89803135D01*
X112259977Y-89790347D01*
X112244071Y-89775931D01*
X112229655Y-89760025D01*
X112216867Y-89742782D01*
X112205831Y-89724369D01*
X112196652Y-89704963D01*
X112189420Y-89684751D01*
X112184204Y-89663927D01*
X112181054Y-89642692D01*
X112180001Y-89621251D01*
X112180001Y-89108751D01*
X112181054Y-89087310D01*
X112184204Y-89066075D01*
X112189420Y-89045251D01*
X112196652Y-89025039D01*
X112205831Y-89005633D01*
X112216867Y-88987220D01*
X112229655Y-88969977D01*
X112244071Y-88954071D01*
X112259977Y-88939655D01*
X112277220Y-88926867D01*
X112295633Y-88915831D01*
X112315039Y-88906652D01*
X112335251Y-88899420D01*
X112356075Y-88894204D01*
X112377310Y-88891054D01*
X112398751Y-88890001D01*
X112836251Y-88890001D01*
X112857692Y-88891054D01*
G37*
G36*
X118442692Y-86381054D02*
G01*
X118463927Y-86384204D01*
X118484751Y-86389420D01*
X118504963Y-86396652D01*
X118524369Y-86405831D01*
X118542782Y-86416867D01*
X118560025Y-86429655D01*
X118575931Y-86444071D01*
X118590347Y-86459977D01*
X118603135Y-86477220D01*
X118614171Y-86495633D01*
X118623350Y-86515039D01*
X118630582Y-86535251D01*
X118635798Y-86556075D01*
X118638948Y-86577310D01*
X118640001Y-86598751D01*
X118640001Y-87111251D01*
X118638948Y-87132692D01*
X118635798Y-87153927D01*
X118630582Y-87174751D01*
X118623350Y-87194963D01*
X118614171Y-87214369D01*
X118603135Y-87232782D01*
X118590347Y-87250025D01*
X118575931Y-87265931D01*
X118560025Y-87280347D01*
X118542782Y-87293135D01*
X118524369Y-87304171D01*
X118504963Y-87313350D01*
X118484751Y-87320582D01*
X118463927Y-87325798D01*
X118442692Y-87328948D01*
X118421251Y-87330001D01*
X117983751Y-87330001D01*
X117962310Y-87328948D01*
X117941075Y-87325798D01*
X117920251Y-87320582D01*
X117900039Y-87313350D01*
X117880633Y-87304171D01*
X117862220Y-87293135D01*
X117844977Y-87280347D01*
X117829071Y-87265931D01*
X117814655Y-87250025D01*
X117801867Y-87232782D01*
X117790831Y-87214369D01*
X117781652Y-87194963D01*
X117774420Y-87174751D01*
X117769204Y-87153927D01*
X117766054Y-87132692D01*
X117765001Y-87111251D01*
X117765001Y-86598751D01*
X117766054Y-86577310D01*
X117769204Y-86556075D01*
X117774420Y-86535251D01*
X117781652Y-86515039D01*
X117790831Y-86495633D01*
X117801867Y-86477220D01*
X117814655Y-86459977D01*
X117829071Y-86444071D01*
X117844977Y-86429655D01*
X117862220Y-86416867D01*
X117880633Y-86405831D01*
X117900039Y-86396652D01*
X117920251Y-86389420D01*
X117941075Y-86384204D01*
X117962310Y-86381054D01*
X117983751Y-86380001D01*
X118421251Y-86380001D01*
X118442692Y-86381054D01*
G37*
G36*
X116867692Y-86381054D02*
G01*
X116888927Y-86384204D01*
X116909751Y-86389420D01*
X116929963Y-86396652D01*
X116949369Y-86405831D01*
X116967782Y-86416867D01*
X116985025Y-86429655D01*
X117000931Y-86444071D01*
X117015347Y-86459977D01*
X117028135Y-86477220D01*
X117039171Y-86495633D01*
X117048350Y-86515039D01*
X117055582Y-86535251D01*
X117060798Y-86556075D01*
X117063948Y-86577310D01*
X117065001Y-86598751D01*
X117065001Y-87111251D01*
X117063948Y-87132692D01*
X117060798Y-87153927D01*
X117055582Y-87174751D01*
X117048350Y-87194963D01*
X117039171Y-87214369D01*
X117028135Y-87232782D01*
X117015347Y-87250025D01*
X117000931Y-87265931D01*
X116985025Y-87280347D01*
X116967782Y-87293135D01*
X116949369Y-87304171D01*
X116929963Y-87313350D01*
X116909751Y-87320582D01*
X116888927Y-87325798D01*
X116867692Y-87328948D01*
X116846251Y-87330001D01*
X116408751Y-87330001D01*
X116387310Y-87328948D01*
X116366075Y-87325798D01*
X116345251Y-87320582D01*
X116325039Y-87313350D01*
X116305633Y-87304171D01*
X116287220Y-87293135D01*
X116269977Y-87280347D01*
X116254071Y-87265931D01*
X116239655Y-87250025D01*
X116226867Y-87232782D01*
X116215831Y-87214369D01*
X116206652Y-87194963D01*
X116199420Y-87174751D01*
X116194204Y-87153927D01*
X116191054Y-87132692D01*
X116190001Y-87111251D01*
X116190001Y-86598751D01*
X116191054Y-86577310D01*
X116194204Y-86556075D01*
X116199420Y-86535251D01*
X116206652Y-86515039D01*
X116215831Y-86495633D01*
X116226867Y-86477220D01*
X116239655Y-86459977D01*
X116254071Y-86444071D01*
X116269977Y-86429655D01*
X116287220Y-86416867D01*
X116305633Y-86405831D01*
X116325039Y-86396652D01*
X116345251Y-86389420D01*
X116366075Y-86384204D01*
X116387310Y-86381054D01*
X116408751Y-86380001D01*
X116846251Y-86380001D01*
X116867692Y-86381054D01*
G37*
G36*
X118442692Y-88891054D02*
G01*
X118463927Y-88894204D01*
X118484751Y-88899420D01*
X118504963Y-88906652D01*
X118524369Y-88915831D01*
X118542782Y-88926867D01*
X118560025Y-88939655D01*
X118575931Y-88954071D01*
X118590347Y-88969977D01*
X118603135Y-88987220D01*
X118614171Y-89005633D01*
X118623350Y-89025039D01*
X118630582Y-89045251D01*
X118635798Y-89066075D01*
X118638948Y-89087310D01*
X118640001Y-89108751D01*
X118640001Y-89621251D01*
X118638948Y-89642692D01*
X118635798Y-89663927D01*
X118630582Y-89684751D01*
X118623350Y-89704963D01*
X118614171Y-89724369D01*
X118603135Y-89742782D01*
X118590347Y-89760025D01*
X118575931Y-89775931D01*
X118560025Y-89790347D01*
X118542782Y-89803135D01*
X118524369Y-89814171D01*
X118504963Y-89823350D01*
X118484751Y-89830582D01*
X118463927Y-89835798D01*
X118442692Y-89838948D01*
X118421251Y-89840001D01*
X117983751Y-89840001D01*
X117962310Y-89838948D01*
X117941075Y-89835798D01*
X117920251Y-89830582D01*
X117900039Y-89823350D01*
X117880633Y-89814171D01*
X117862220Y-89803135D01*
X117844977Y-89790347D01*
X117829071Y-89775931D01*
X117814655Y-89760025D01*
X117801867Y-89742782D01*
X117790831Y-89724369D01*
X117781652Y-89704963D01*
X117774420Y-89684751D01*
X117769204Y-89663927D01*
X117766054Y-89642692D01*
X117765001Y-89621251D01*
X117765001Y-89108751D01*
X117766054Y-89087310D01*
X117769204Y-89066075D01*
X117774420Y-89045251D01*
X117781652Y-89025039D01*
X117790831Y-89005633D01*
X117801867Y-88987220D01*
X117814655Y-88969977D01*
X117829071Y-88954071D01*
X117844977Y-88939655D01*
X117862220Y-88926867D01*
X117880633Y-88915831D01*
X117900039Y-88906652D01*
X117920251Y-88899420D01*
X117941075Y-88894204D01*
X117962310Y-88891054D01*
X117983751Y-88890001D01*
X118421251Y-88890001D01*
X118442692Y-88891054D01*
G37*
G36*
X116867692Y-88891054D02*
G01*
X116888927Y-88894204D01*
X116909751Y-88899420D01*
X116929963Y-88906652D01*
X116949369Y-88915831D01*
X116967782Y-88926867D01*
X116985025Y-88939655D01*
X117000931Y-88954071D01*
X117015347Y-88969977D01*
X117028135Y-88987220D01*
X117039171Y-89005633D01*
X117048350Y-89025039D01*
X117055582Y-89045251D01*
X117060798Y-89066075D01*
X117063948Y-89087310D01*
X117065001Y-89108751D01*
X117065001Y-89621251D01*
X117063948Y-89642692D01*
X117060798Y-89663927D01*
X117055582Y-89684751D01*
X117048350Y-89704963D01*
X117039171Y-89724369D01*
X117028135Y-89742782D01*
X117015347Y-89760025D01*
X117000931Y-89775931D01*
X116985025Y-89790347D01*
X116967782Y-89803135D01*
X116949369Y-89814171D01*
X116929963Y-89823350D01*
X116909751Y-89830582D01*
X116888927Y-89835798D01*
X116867692Y-89838948D01*
X116846251Y-89840001D01*
X116408751Y-89840001D01*
X116387310Y-89838948D01*
X116366075Y-89835798D01*
X116345251Y-89830582D01*
X116325039Y-89823350D01*
X116305633Y-89814171D01*
X116287220Y-89803135D01*
X116269977Y-89790347D01*
X116254071Y-89775931D01*
X116239655Y-89760025D01*
X116226867Y-89742782D01*
X116215831Y-89724369D01*
X116206652Y-89704963D01*
X116199420Y-89684751D01*
X116194204Y-89663927D01*
X116191054Y-89642692D01*
X116190001Y-89621251D01*
X116190001Y-89108751D01*
X116191054Y-89087310D01*
X116194204Y-89066075D01*
X116199420Y-89045251D01*
X116206652Y-89025039D01*
X116215831Y-89005633D01*
X116226867Y-88987220D01*
X116239655Y-88969977D01*
X116254071Y-88954071D01*
X116269977Y-88939655D01*
X116287220Y-88926867D01*
X116305633Y-88915831D01*
X116325039Y-88906652D01*
X116345251Y-88899420D01*
X116366075Y-88894204D01*
X116387310Y-88891054D01*
X116408751Y-88890001D01*
X116846251Y-88890001D01*
X116867692Y-88891054D01*
G37*
G36*
X122452692Y-86381054D02*
G01*
X122473927Y-86384204D01*
X122494751Y-86389420D01*
X122514963Y-86396652D01*
X122534369Y-86405831D01*
X122552782Y-86416867D01*
X122570025Y-86429655D01*
X122585931Y-86444071D01*
X122600347Y-86459977D01*
X122613135Y-86477220D01*
X122624171Y-86495633D01*
X122633350Y-86515039D01*
X122640582Y-86535251D01*
X122645798Y-86556075D01*
X122648948Y-86577310D01*
X122650001Y-86598751D01*
X122650001Y-87111251D01*
X122648948Y-87132692D01*
X122645798Y-87153927D01*
X122640582Y-87174751D01*
X122633350Y-87194963D01*
X122624171Y-87214369D01*
X122613135Y-87232782D01*
X122600347Y-87250025D01*
X122585931Y-87265931D01*
X122570025Y-87280347D01*
X122552782Y-87293135D01*
X122534369Y-87304171D01*
X122514963Y-87313350D01*
X122494751Y-87320582D01*
X122473927Y-87325798D01*
X122452692Y-87328948D01*
X122431251Y-87330001D01*
X121993751Y-87330001D01*
X121972310Y-87328948D01*
X121951075Y-87325798D01*
X121930251Y-87320582D01*
X121910039Y-87313350D01*
X121890633Y-87304171D01*
X121872220Y-87293135D01*
X121854977Y-87280347D01*
X121839071Y-87265931D01*
X121824655Y-87250025D01*
X121811867Y-87232782D01*
X121800831Y-87214369D01*
X121791652Y-87194963D01*
X121784420Y-87174751D01*
X121779204Y-87153927D01*
X121776054Y-87132692D01*
X121775001Y-87111251D01*
X121775001Y-86598751D01*
X121776054Y-86577310D01*
X121779204Y-86556075D01*
X121784420Y-86535251D01*
X121791652Y-86515039D01*
X121800831Y-86495633D01*
X121811867Y-86477220D01*
X121824655Y-86459977D01*
X121839071Y-86444071D01*
X121854977Y-86429655D01*
X121872220Y-86416867D01*
X121890633Y-86405831D01*
X121910039Y-86396652D01*
X121930251Y-86389420D01*
X121951075Y-86384204D01*
X121972310Y-86381054D01*
X121993751Y-86380001D01*
X122431251Y-86380001D01*
X122452692Y-86381054D01*
G37*
G36*
X120877692Y-86381054D02*
G01*
X120898927Y-86384204D01*
X120919751Y-86389420D01*
X120939963Y-86396652D01*
X120959369Y-86405831D01*
X120977782Y-86416867D01*
X120995025Y-86429655D01*
X121010931Y-86444071D01*
X121025347Y-86459977D01*
X121038135Y-86477220D01*
X121049171Y-86495633D01*
X121058350Y-86515039D01*
X121065582Y-86535251D01*
X121070798Y-86556075D01*
X121073948Y-86577310D01*
X121075001Y-86598751D01*
X121075001Y-87111251D01*
X121073948Y-87132692D01*
X121070798Y-87153927D01*
X121065582Y-87174751D01*
X121058350Y-87194963D01*
X121049171Y-87214369D01*
X121038135Y-87232782D01*
X121025347Y-87250025D01*
X121010931Y-87265931D01*
X120995025Y-87280347D01*
X120977782Y-87293135D01*
X120959369Y-87304171D01*
X120939963Y-87313350D01*
X120919751Y-87320582D01*
X120898927Y-87325798D01*
X120877692Y-87328948D01*
X120856251Y-87330001D01*
X120418751Y-87330001D01*
X120397310Y-87328948D01*
X120376075Y-87325798D01*
X120355251Y-87320582D01*
X120335039Y-87313350D01*
X120315633Y-87304171D01*
X120297220Y-87293135D01*
X120279977Y-87280347D01*
X120264071Y-87265931D01*
X120249655Y-87250025D01*
X120236867Y-87232782D01*
X120225831Y-87214369D01*
X120216652Y-87194963D01*
X120209420Y-87174751D01*
X120204204Y-87153927D01*
X120201054Y-87132692D01*
X120200001Y-87111251D01*
X120200001Y-86598751D01*
X120201054Y-86577310D01*
X120204204Y-86556075D01*
X120209420Y-86535251D01*
X120216652Y-86515039D01*
X120225831Y-86495633D01*
X120236867Y-86477220D01*
X120249655Y-86459977D01*
X120264071Y-86444071D01*
X120279977Y-86429655D01*
X120297220Y-86416867D01*
X120315633Y-86405831D01*
X120335039Y-86396652D01*
X120355251Y-86389420D01*
X120376075Y-86384204D01*
X120397310Y-86381054D01*
X120418751Y-86380001D01*
X120856251Y-86380001D01*
X120877692Y-86381054D01*
G37*
G36*
X122452692Y-88891054D02*
G01*
X122473927Y-88894204D01*
X122494751Y-88899420D01*
X122514963Y-88906652D01*
X122534369Y-88915831D01*
X122552782Y-88926867D01*
X122570025Y-88939655D01*
X122585931Y-88954071D01*
X122600347Y-88969977D01*
X122613135Y-88987220D01*
X122624171Y-89005633D01*
X122633350Y-89025039D01*
X122640582Y-89045251D01*
X122645798Y-89066075D01*
X122648948Y-89087310D01*
X122650001Y-89108751D01*
X122650001Y-89621251D01*
X122648948Y-89642692D01*
X122645798Y-89663927D01*
X122640582Y-89684751D01*
X122633350Y-89704963D01*
X122624171Y-89724369D01*
X122613135Y-89742782D01*
X122600347Y-89760025D01*
X122585931Y-89775931D01*
X122570025Y-89790347D01*
X122552782Y-89803135D01*
X122534369Y-89814171D01*
X122514963Y-89823350D01*
X122494751Y-89830582D01*
X122473927Y-89835798D01*
X122452692Y-89838948D01*
X122431251Y-89840001D01*
X121993751Y-89840001D01*
X121972310Y-89838948D01*
X121951075Y-89835798D01*
X121930251Y-89830582D01*
X121910039Y-89823350D01*
X121890633Y-89814171D01*
X121872220Y-89803135D01*
X121854977Y-89790347D01*
X121839071Y-89775931D01*
X121824655Y-89760025D01*
X121811867Y-89742782D01*
X121800831Y-89724369D01*
X121791652Y-89704963D01*
X121784420Y-89684751D01*
X121779204Y-89663927D01*
X121776054Y-89642692D01*
X121775001Y-89621251D01*
X121775001Y-89108751D01*
X121776054Y-89087310D01*
X121779204Y-89066075D01*
X121784420Y-89045251D01*
X121791652Y-89025039D01*
X121800831Y-89005633D01*
X121811867Y-88987220D01*
X121824655Y-88969977D01*
X121839071Y-88954071D01*
X121854977Y-88939655D01*
X121872220Y-88926867D01*
X121890633Y-88915831D01*
X121910039Y-88906652D01*
X121930251Y-88899420D01*
X121951075Y-88894204D01*
X121972310Y-88891054D01*
X121993751Y-88890001D01*
X122431251Y-88890001D01*
X122452692Y-88891054D01*
G37*
G36*
X120877692Y-88891054D02*
G01*
X120898927Y-88894204D01*
X120919751Y-88899420D01*
X120939963Y-88906652D01*
X120959369Y-88915831D01*
X120977782Y-88926867D01*
X120995025Y-88939655D01*
X121010931Y-88954071D01*
X121025347Y-88969977D01*
X121038135Y-88987220D01*
X121049171Y-89005633D01*
X121058350Y-89025039D01*
X121065582Y-89045251D01*
X121070798Y-89066075D01*
X121073948Y-89087310D01*
X121075001Y-89108751D01*
X121075001Y-89621251D01*
X121073948Y-89642692D01*
X121070798Y-89663927D01*
X121065582Y-89684751D01*
X121058350Y-89704963D01*
X121049171Y-89724369D01*
X121038135Y-89742782D01*
X121025347Y-89760025D01*
X121010931Y-89775931D01*
X120995025Y-89790347D01*
X120977782Y-89803135D01*
X120959369Y-89814171D01*
X120939963Y-89823350D01*
X120919751Y-89830582D01*
X120898927Y-89835798D01*
X120877692Y-89838948D01*
X120856251Y-89840001D01*
X120418751Y-89840001D01*
X120397310Y-89838948D01*
X120376075Y-89835798D01*
X120355251Y-89830582D01*
X120335039Y-89823350D01*
X120315633Y-89814171D01*
X120297220Y-89803135D01*
X120279977Y-89790347D01*
X120264071Y-89775931D01*
X120249655Y-89760025D01*
X120236867Y-89742782D01*
X120225831Y-89724369D01*
X120216652Y-89704963D01*
X120209420Y-89684751D01*
X120204204Y-89663927D01*
X120201054Y-89642692D01*
X120200001Y-89621251D01*
X120200001Y-89108751D01*
X120201054Y-89087310D01*
X120204204Y-89066075D01*
X120209420Y-89045251D01*
X120216652Y-89025039D01*
X120225831Y-89005633D01*
X120236867Y-88987220D01*
X120249655Y-88969977D01*
X120264071Y-88954071D01*
X120279977Y-88939655D01*
X120297220Y-88926867D01*
X120315633Y-88915831D01*
X120335039Y-88906652D01*
X120355251Y-88899420D01*
X120376075Y-88894204D01*
X120397310Y-88891054D01*
X120418751Y-88890001D01*
X120856251Y-88890001D01*
X120877692Y-88891054D01*
G37*
G36*
X183652691Y-84526053D02*
G01*
X183673926Y-84529203D01*
X183694750Y-84534419D01*
X183714962Y-84541651D01*
X183734368Y-84550830D01*
X183752781Y-84561866D01*
X183770024Y-84574654D01*
X183785930Y-84589070D01*
X183800346Y-84604976D01*
X183813134Y-84622219D01*
X183824170Y-84640632D01*
X183833349Y-84660038D01*
X183840581Y-84680250D01*
X183845797Y-84701074D01*
X183848947Y-84722309D01*
X183850000Y-84743750D01*
X183850000Y-85256250D01*
X183848947Y-85277691D01*
X183845797Y-85298926D01*
X183840581Y-85319750D01*
X183833349Y-85339962D01*
X183824170Y-85359368D01*
X183813134Y-85377781D01*
X183800346Y-85395024D01*
X183785930Y-85410930D01*
X183770024Y-85425346D01*
X183752781Y-85438134D01*
X183734368Y-85449170D01*
X183714962Y-85458349D01*
X183694750Y-85465581D01*
X183673926Y-85470797D01*
X183652691Y-85473947D01*
X183631250Y-85475000D01*
X183193750Y-85475000D01*
X183172309Y-85473947D01*
X183151074Y-85470797D01*
X183130250Y-85465581D01*
X183110038Y-85458349D01*
X183090632Y-85449170D01*
X183072219Y-85438134D01*
X183054976Y-85425346D01*
X183039070Y-85410930D01*
X183024654Y-85395024D01*
X183011866Y-85377781D01*
X183000830Y-85359368D01*
X182991651Y-85339962D01*
X182984419Y-85319750D01*
X182979203Y-85298926D01*
X182976053Y-85277691D01*
X182975000Y-85256250D01*
X182975000Y-84743750D01*
X182976053Y-84722309D01*
X182979203Y-84701074D01*
X182984419Y-84680250D01*
X182991651Y-84660038D01*
X183000830Y-84640632D01*
X183011866Y-84622219D01*
X183024654Y-84604976D01*
X183039070Y-84589070D01*
X183054976Y-84574654D01*
X183072219Y-84561866D01*
X183090632Y-84550830D01*
X183110038Y-84541651D01*
X183130250Y-84534419D01*
X183151074Y-84529203D01*
X183172309Y-84526053D01*
X183193750Y-84525000D01*
X183631250Y-84525000D01*
X183652691Y-84526053D01*
G37*
G36*
X185227691Y-84526053D02*
G01*
X185248926Y-84529203D01*
X185269750Y-84534419D01*
X185289962Y-84541651D01*
X185309368Y-84550830D01*
X185327781Y-84561866D01*
X185345024Y-84574654D01*
X185360930Y-84589070D01*
X185375346Y-84604976D01*
X185388134Y-84622219D01*
X185399170Y-84640632D01*
X185408349Y-84660038D01*
X185415581Y-84680250D01*
X185420797Y-84701074D01*
X185423947Y-84722309D01*
X185425000Y-84743750D01*
X185425000Y-85256250D01*
X185423947Y-85277691D01*
X185420797Y-85298926D01*
X185415581Y-85319750D01*
X185408349Y-85339962D01*
X185399170Y-85359368D01*
X185388134Y-85377781D01*
X185375346Y-85395024D01*
X185360930Y-85410930D01*
X185345024Y-85425346D01*
X185327781Y-85438134D01*
X185309368Y-85449170D01*
X185289962Y-85458349D01*
X185269750Y-85465581D01*
X185248926Y-85470797D01*
X185227691Y-85473947D01*
X185206250Y-85475000D01*
X184768750Y-85475000D01*
X184747309Y-85473947D01*
X184726074Y-85470797D01*
X184705250Y-85465581D01*
X184685038Y-85458349D01*
X184665632Y-85449170D01*
X184647219Y-85438134D01*
X184629976Y-85425346D01*
X184614070Y-85410930D01*
X184599654Y-85395024D01*
X184586866Y-85377781D01*
X184575830Y-85359368D01*
X184566651Y-85339962D01*
X184559419Y-85319750D01*
X184554203Y-85298926D01*
X184551053Y-85277691D01*
X184550000Y-85256250D01*
X184550000Y-84743750D01*
X184551053Y-84722309D01*
X184554203Y-84701074D01*
X184559419Y-84680250D01*
X184566651Y-84660038D01*
X184575830Y-84640632D01*
X184586866Y-84622219D01*
X184599654Y-84604976D01*
X184614070Y-84589070D01*
X184629976Y-84574654D01*
X184647219Y-84561866D01*
X184665632Y-84550830D01*
X184685038Y-84541651D01*
X184705250Y-84534419D01*
X184726074Y-84529203D01*
X184747309Y-84526053D01*
X184768750Y-84525000D01*
X185206250Y-84525000D01*
X185227691Y-84526053D01*
G37*
G36*
X185227691Y-86426053D02*
G01*
X185248926Y-86429203D01*
X185269750Y-86434419D01*
X185289962Y-86441651D01*
X185309368Y-86450830D01*
X185327781Y-86461866D01*
X185345024Y-86474654D01*
X185360930Y-86489070D01*
X185375346Y-86504976D01*
X185388134Y-86522219D01*
X185399170Y-86540632D01*
X185408349Y-86560038D01*
X185415581Y-86580250D01*
X185420797Y-86601074D01*
X185423947Y-86622309D01*
X185425000Y-86643750D01*
X185425000Y-87156250D01*
X185423947Y-87177691D01*
X185420797Y-87198926D01*
X185415581Y-87219750D01*
X185408349Y-87239962D01*
X185399170Y-87259368D01*
X185388134Y-87277781D01*
X185375346Y-87295024D01*
X185360930Y-87310930D01*
X185345024Y-87325346D01*
X185327781Y-87338134D01*
X185309368Y-87349170D01*
X185289962Y-87358349D01*
X185269750Y-87365581D01*
X185248926Y-87370797D01*
X185227691Y-87373947D01*
X185206250Y-87375000D01*
X184768750Y-87375000D01*
X184747309Y-87373947D01*
X184726074Y-87370797D01*
X184705250Y-87365581D01*
X184685038Y-87358349D01*
X184665632Y-87349170D01*
X184647219Y-87338134D01*
X184629976Y-87325346D01*
X184614070Y-87310930D01*
X184599654Y-87295024D01*
X184586866Y-87277781D01*
X184575830Y-87259368D01*
X184566651Y-87239962D01*
X184559419Y-87219750D01*
X184554203Y-87198926D01*
X184551053Y-87177691D01*
X184550000Y-87156250D01*
X184550000Y-86643750D01*
X184551053Y-86622309D01*
X184554203Y-86601074D01*
X184559419Y-86580250D01*
X184566651Y-86560038D01*
X184575830Y-86540632D01*
X184586866Y-86522219D01*
X184599654Y-86504976D01*
X184614070Y-86489070D01*
X184629976Y-86474654D01*
X184647219Y-86461866D01*
X184665632Y-86450830D01*
X184685038Y-86441651D01*
X184705250Y-86434419D01*
X184726074Y-86429203D01*
X184747309Y-86426053D01*
X184768750Y-86425000D01*
X185206250Y-86425000D01*
X185227691Y-86426053D01*
G37*
G36*
X183652691Y-86426053D02*
G01*
X183673926Y-86429203D01*
X183694750Y-86434419D01*
X183714962Y-86441651D01*
X183734368Y-86450830D01*
X183752781Y-86461866D01*
X183770024Y-86474654D01*
X183785930Y-86489070D01*
X183800346Y-86504976D01*
X183813134Y-86522219D01*
X183824170Y-86540632D01*
X183833349Y-86560038D01*
X183840581Y-86580250D01*
X183845797Y-86601074D01*
X183848947Y-86622309D01*
X183850000Y-86643750D01*
X183850000Y-87156250D01*
X183848947Y-87177691D01*
X183845797Y-87198926D01*
X183840581Y-87219750D01*
X183833349Y-87239962D01*
X183824170Y-87259368D01*
X183813134Y-87277781D01*
X183800346Y-87295024D01*
X183785930Y-87310930D01*
X183770024Y-87325346D01*
X183752781Y-87338134D01*
X183734368Y-87349170D01*
X183714962Y-87358349D01*
X183694750Y-87365581D01*
X183673926Y-87370797D01*
X183652691Y-87373947D01*
X183631250Y-87375000D01*
X183193750Y-87375000D01*
X183172309Y-87373947D01*
X183151074Y-87370797D01*
X183130250Y-87365581D01*
X183110038Y-87358349D01*
X183090632Y-87349170D01*
X183072219Y-87338134D01*
X183054976Y-87325346D01*
X183039070Y-87310930D01*
X183024654Y-87295024D01*
X183011866Y-87277781D01*
X183000830Y-87259368D01*
X182991651Y-87239962D01*
X182984419Y-87219750D01*
X182979203Y-87198926D01*
X182976053Y-87177691D01*
X182975000Y-87156250D01*
X182975000Y-86643750D01*
X182976053Y-86622309D01*
X182979203Y-86601074D01*
X182984419Y-86580250D01*
X182991651Y-86560038D01*
X183000830Y-86540632D01*
X183011866Y-86522219D01*
X183024654Y-86504976D01*
X183039070Y-86489070D01*
X183054976Y-86474654D01*
X183072219Y-86461866D01*
X183090632Y-86450830D01*
X183110038Y-86441651D01*
X183130250Y-86434419D01*
X183151074Y-86429203D01*
X183172309Y-86426053D01*
X183193750Y-86425000D01*
X183631250Y-86425000D01*
X183652691Y-86426053D01*
G37*
G36*
X185980142Y-92976174D02*
G01*
X186003803Y-92979684D01*
X186027007Y-92985496D01*
X186049529Y-92993554D01*
X186071153Y-93003782D01*
X186091670Y-93016079D01*
X186110883Y-93030329D01*
X186128607Y-93046393D01*
X186144671Y-93064117D01*
X186158921Y-93083330D01*
X186171218Y-93103847D01*
X186181446Y-93125471D01*
X186189504Y-93147993D01*
X186195316Y-93171197D01*
X186198826Y-93194858D01*
X186200000Y-93218750D01*
X186200000Y-93706250D01*
X186198826Y-93730142D01*
X186195316Y-93753803D01*
X186189504Y-93777007D01*
X186181446Y-93799529D01*
X186171218Y-93821153D01*
X186158921Y-93841670D01*
X186144671Y-93860883D01*
X186128607Y-93878607D01*
X186110883Y-93894671D01*
X186091670Y-93908921D01*
X186071153Y-93921218D01*
X186049529Y-93931446D01*
X186027007Y-93939504D01*
X186003803Y-93945316D01*
X185980142Y-93948826D01*
X185956250Y-93950000D01*
X185043750Y-93950000D01*
X185019858Y-93948826D01*
X184996197Y-93945316D01*
X184972993Y-93939504D01*
X184950471Y-93931446D01*
X184928847Y-93921218D01*
X184908330Y-93908921D01*
X184889117Y-93894671D01*
X184871393Y-93878607D01*
X184855329Y-93860883D01*
X184841079Y-93841670D01*
X184828782Y-93821153D01*
X184818554Y-93799529D01*
X184810496Y-93777007D01*
X184804684Y-93753803D01*
X184801174Y-93730142D01*
X184800000Y-93706250D01*
X184800000Y-93218750D01*
X184801174Y-93194858D01*
X184804684Y-93171197D01*
X184810496Y-93147993D01*
X184818554Y-93125471D01*
X184828782Y-93103847D01*
X184841079Y-93083330D01*
X184855329Y-93064117D01*
X184871393Y-93046393D01*
X184889117Y-93030329D01*
X184908330Y-93016079D01*
X184928847Y-93003782D01*
X184950471Y-92993554D01*
X184972993Y-92985496D01*
X184996197Y-92979684D01*
X185019858Y-92976174D01*
X185043750Y-92975000D01*
X185956250Y-92975000D01*
X185980142Y-92976174D01*
G37*
G36*
X185980142Y-94851174D02*
G01*
X186003803Y-94854684D01*
X186027007Y-94860496D01*
X186049529Y-94868554D01*
X186071153Y-94878782D01*
X186091670Y-94891079D01*
X186110883Y-94905329D01*
X186128607Y-94921393D01*
X186144671Y-94939117D01*
X186158921Y-94958330D01*
X186171218Y-94978847D01*
X186181446Y-95000471D01*
X186189504Y-95022993D01*
X186195316Y-95046197D01*
X186198826Y-95069858D01*
X186200000Y-95093750D01*
X186200000Y-95581250D01*
X186198826Y-95605142D01*
X186195316Y-95628803D01*
X186189504Y-95652007D01*
X186181446Y-95674529D01*
X186171218Y-95696153D01*
X186158921Y-95716670D01*
X186144671Y-95735883D01*
X186128607Y-95753607D01*
X186110883Y-95769671D01*
X186091670Y-95783921D01*
X186071153Y-95796218D01*
X186049529Y-95806446D01*
X186027007Y-95814504D01*
X186003803Y-95820316D01*
X185980142Y-95823826D01*
X185956250Y-95825000D01*
X185043750Y-95825000D01*
X185019858Y-95823826D01*
X184996197Y-95820316D01*
X184972993Y-95814504D01*
X184950471Y-95806446D01*
X184928847Y-95796218D01*
X184908330Y-95783921D01*
X184889117Y-95769671D01*
X184871393Y-95753607D01*
X184855329Y-95735883D01*
X184841079Y-95716670D01*
X184828782Y-95696153D01*
X184818554Y-95674529D01*
X184810496Y-95652007D01*
X184804684Y-95628803D01*
X184801174Y-95605142D01*
X184800000Y-95581250D01*
X184800000Y-95093750D01*
X184801174Y-95069858D01*
X184804684Y-95046197D01*
X184810496Y-95022993D01*
X184818554Y-95000471D01*
X184828782Y-94978847D01*
X184841079Y-94958330D01*
X184855329Y-94939117D01*
X184871393Y-94921393D01*
X184889117Y-94905329D01*
X184908330Y-94891079D01*
X184928847Y-94878782D01*
X184950471Y-94868554D01*
X184972993Y-94860496D01*
X184996197Y-94854684D01*
X185019858Y-94851174D01*
X185043750Y-94850000D01*
X185956250Y-94850000D01*
X185980142Y-94851174D01*
G37*
G36*
X179664703Y-97095722D02*
G01*
X179679264Y-97097882D01*
X179693543Y-97101459D01*
X179707403Y-97106418D01*
X179720710Y-97112712D01*
X179733336Y-97120280D01*
X179745159Y-97129048D01*
X179756066Y-97138934D01*
X179765952Y-97149841D01*
X179774720Y-97161664D01*
X179782288Y-97174290D01*
X179788582Y-97187597D01*
X179793541Y-97201457D01*
X179797118Y-97215736D01*
X179799278Y-97230297D01*
X179800000Y-97245000D01*
X179800000Y-97545000D01*
X179799278Y-97559703D01*
X179797118Y-97574264D01*
X179793541Y-97588543D01*
X179788582Y-97602403D01*
X179782288Y-97615710D01*
X179774720Y-97628336D01*
X179765952Y-97640159D01*
X179756066Y-97651066D01*
X179745159Y-97660952D01*
X179733336Y-97669720D01*
X179720710Y-97677288D01*
X179707403Y-97683582D01*
X179693543Y-97688541D01*
X179679264Y-97692118D01*
X179664703Y-97694278D01*
X179650000Y-97695000D01*
X178200000Y-97695000D01*
X178185297Y-97694278D01*
X178170736Y-97692118D01*
X178156457Y-97688541D01*
X178142597Y-97683582D01*
X178129290Y-97677288D01*
X178116664Y-97669720D01*
X178104841Y-97660952D01*
X178093934Y-97651066D01*
X178084048Y-97640159D01*
X178075280Y-97628336D01*
X178067712Y-97615710D01*
X178061418Y-97602403D01*
X178056459Y-97588543D01*
X178052882Y-97574264D01*
X178050722Y-97559703D01*
X178050000Y-97545000D01*
X178050000Y-97245000D01*
X178050722Y-97230297D01*
X178052882Y-97215736D01*
X178056459Y-97201457D01*
X178061418Y-97187597D01*
X178067712Y-97174290D01*
X178075280Y-97161664D01*
X178084048Y-97149841D01*
X178093934Y-97138934D01*
X178104841Y-97129048D01*
X178116664Y-97120280D01*
X178129290Y-97112712D01*
X178142597Y-97106418D01*
X178156457Y-97101459D01*
X178170736Y-97097882D01*
X178185297Y-97095722D01*
X178200000Y-97095000D01*
X179650000Y-97095000D01*
X179664703Y-97095722D01*
G37*
G36*
X179664703Y-98365722D02*
G01*
X179679264Y-98367882D01*
X179693543Y-98371459D01*
X179707403Y-98376418D01*
X179720710Y-98382712D01*
X179733336Y-98390280D01*
X179745159Y-98399048D01*
X179756066Y-98408934D01*
X179765952Y-98419841D01*
X179774720Y-98431664D01*
X179782288Y-98444290D01*
X179788582Y-98457597D01*
X179793541Y-98471457D01*
X179797118Y-98485736D01*
X179799278Y-98500297D01*
X179800000Y-98515000D01*
X179800000Y-98815000D01*
X179799278Y-98829703D01*
X179797118Y-98844264D01*
X179793541Y-98858543D01*
X179788582Y-98872403D01*
X179782288Y-98885710D01*
X179774720Y-98898336D01*
X179765952Y-98910159D01*
X179756066Y-98921066D01*
X179745159Y-98930952D01*
X179733336Y-98939720D01*
X179720710Y-98947288D01*
X179707403Y-98953582D01*
X179693543Y-98958541D01*
X179679264Y-98962118D01*
X179664703Y-98964278D01*
X179650000Y-98965000D01*
X178200000Y-98965000D01*
X178185297Y-98964278D01*
X178170736Y-98962118D01*
X178156457Y-98958541D01*
X178142597Y-98953582D01*
X178129290Y-98947288D01*
X178116664Y-98939720D01*
X178104841Y-98930952D01*
X178093934Y-98921066D01*
X178084048Y-98910159D01*
X178075280Y-98898336D01*
X178067712Y-98885710D01*
X178061418Y-98872403D01*
X178056459Y-98858543D01*
X178052882Y-98844264D01*
X178050722Y-98829703D01*
X178050000Y-98815000D01*
X178050000Y-98515000D01*
X178050722Y-98500297D01*
X178052882Y-98485736D01*
X178056459Y-98471457D01*
X178061418Y-98457597D01*
X178067712Y-98444290D01*
X178075280Y-98431664D01*
X178084048Y-98419841D01*
X178093934Y-98408934D01*
X178104841Y-98399048D01*
X178116664Y-98390280D01*
X178129290Y-98382712D01*
X178142597Y-98376418D01*
X178156457Y-98371459D01*
X178170736Y-98367882D01*
X178185297Y-98365722D01*
X178200000Y-98365000D01*
X179650000Y-98365000D01*
X179664703Y-98365722D01*
G37*
G36*
X179664703Y-99635722D02*
G01*
X179679264Y-99637882D01*
X179693543Y-99641459D01*
X179707403Y-99646418D01*
X179720710Y-99652712D01*
X179733336Y-99660280D01*
X179745159Y-99669048D01*
X179756066Y-99678934D01*
X179765952Y-99689841D01*
X179774720Y-99701664D01*
X179782288Y-99714290D01*
X179788582Y-99727597D01*
X179793541Y-99741457D01*
X179797118Y-99755736D01*
X179799278Y-99770297D01*
X179800000Y-99785000D01*
X179800000Y-100085000D01*
X179799278Y-100099703D01*
X179797118Y-100114264D01*
X179793541Y-100128543D01*
X179788582Y-100142403D01*
X179782288Y-100155710D01*
X179774720Y-100168336D01*
X179765952Y-100180159D01*
X179756066Y-100191066D01*
X179745159Y-100200952D01*
X179733336Y-100209720D01*
X179720710Y-100217288D01*
X179707403Y-100223582D01*
X179693543Y-100228541D01*
X179679264Y-100232118D01*
X179664703Y-100234278D01*
X179650000Y-100235000D01*
X178200000Y-100235000D01*
X178185297Y-100234278D01*
X178170736Y-100232118D01*
X178156457Y-100228541D01*
X178142597Y-100223582D01*
X178129290Y-100217288D01*
X178116664Y-100209720D01*
X178104841Y-100200952D01*
X178093934Y-100191066D01*
X178084048Y-100180159D01*
X178075280Y-100168336D01*
X178067712Y-100155710D01*
X178061418Y-100142403D01*
X178056459Y-100128543D01*
X178052882Y-100114264D01*
X178050722Y-100099703D01*
X178050000Y-100085000D01*
X178050000Y-99785000D01*
X178050722Y-99770297D01*
X178052882Y-99755736D01*
X178056459Y-99741457D01*
X178061418Y-99727597D01*
X178067712Y-99714290D01*
X178075280Y-99701664D01*
X178084048Y-99689841D01*
X178093934Y-99678934D01*
X178104841Y-99669048D01*
X178116664Y-99660280D01*
X178129290Y-99652712D01*
X178142597Y-99646418D01*
X178156457Y-99641459D01*
X178170736Y-99637882D01*
X178185297Y-99635722D01*
X178200000Y-99635000D01*
X179650000Y-99635000D01*
X179664703Y-99635722D01*
G37*
G36*
X179664703Y-100905722D02*
G01*
X179679264Y-100907882D01*
X179693543Y-100911459D01*
X179707403Y-100916418D01*
X179720710Y-100922712D01*
X179733336Y-100930280D01*
X179745159Y-100939048D01*
X179756066Y-100948934D01*
X179765952Y-100959841D01*
X179774720Y-100971664D01*
X179782288Y-100984290D01*
X179788582Y-100997597D01*
X179793541Y-101011457D01*
X179797118Y-101025736D01*
X179799278Y-101040297D01*
X179800000Y-101055000D01*
X179800000Y-101355000D01*
X179799278Y-101369703D01*
X179797118Y-101384264D01*
X179793541Y-101398543D01*
X179788582Y-101412403D01*
X179782288Y-101425710D01*
X179774720Y-101438336D01*
X179765952Y-101450159D01*
X179756066Y-101461066D01*
X179745159Y-101470952D01*
X179733336Y-101479720D01*
X179720710Y-101487288D01*
X179707403Y-101493582D01*
X179693543Y-101498541D01*
X179679264Y-101502118D01*
X179664703Y-101504278D01*
X179650000Y-101505000D01*
X178200000Y-101505000D01*
X178185297Y-101504278D01*
X178170736Y-101502118D01*
X178156457Y-101498541D01*
X178142597Y-101493582D01*
X178129290Y-101487288D01*
X178116664Y-101479720D01*
X178104841Y-101470952D01*
X178093934Y-101461066D01*
X178084048Y-101450159D01*
X178075280Y-101438336D01*
X178067712Y-101425710D01*
X178061418Y-101412403D01*
X178056459Y-101398543D01*
X178052882Y-101384264D01*
X178050722Y-101369703D01*
X178050000Y-101355000D01*
X178050000Y-101055000D01*
X178050722Y-101040297D01*
X178052882Y-101025736D01*
X178056459Y-101011457D01*
X178061418Y-100997597D01*
X178067712Y-100984290D01*
X178075280Y-100971664D01*
X178084048Y-100959841D01*
X178093934Y-100948934D01*
X178104841Y-100939048D01*
X178116664Y-100930280D01*
X178129290Y-100922712D01*
X178142597Y-100916418D01*
X178156457Y-100911459D01*
X178170736Y-100907882D01*
X178185297Y-100905722D01*
X178200000Y-100905000D01*
X179650000Y-100905000D01*
X179664703Y-100905722D01*
G37*
G36*
X184814703Y-100905722D02*
G01*
X184829264Y-100907882D01*
X184843543Y-100911459D01*
X184857403Y-100916418D01*
X184870710Y-100922712D01*
X184883336Y-100930280D01*
X184895159Y-100939048D01*
X184906066Y-100948934D01*
X184915952Y-100959841D01*
X184924720Y-100971664D01*
X184932288Y-100984290D01*
X184938582Y-100997597D01*
X184943541Y-101011457D01*
X184947118Y-101025736D01*
X184949278Y-101040297D01*
X184950000Y-101055000D01*
X184950000Y-101355000D01*
X184949278Y-101369703D01*
X184947118Y-101384264D01*
X184943541Y-101398543D01*
X184938582Y-101412403D01*
X184932288Y-101425710D01*
X184924720Y-101438336D01*
X184915952Y-101450159D01*
X184906066Y-101461066D01*
X184895159Y-101470952D01*
X184883336Y-101479720D01*
X184870710Y-101487288D01*
X184857403Y-101493582D01*
X184843543Y-101498541D01*
X184829264Y-101502118D01*
X184814703Y-101504278D01*
X184800000Y-101505000D01*
X183350000Y-101505000D01*
X183335297Y-101504278D01*
X183320736Y-101502118D01*
X183306457Y-101498541D01*
X183292597Y-101493582D01*
X183279290Y-101487288D01*
X183266664Y-101479720D01*
X183254841Y-101470952D01*
X183243934Y-101461066D01*
X183234048Y-101450159D01*
X183225280Y-101438336D01*
X183217712Y-101425710D01*
X183211418Y-101412403D01*
X183206459Y-101398543D01*
X183202882Y-101384264D01*
X183200722Y-101369703D01*
X183200000Y-101355000D01*
X183200000Y-101055000D01*
X183200722Y-101040297D01*
X183202882Y-101025736D01*
X183206459Y-101011457D01*
X183211418Y-100997597D01*
X183217712Y-100984290D01*
X183225280Y-100971664D01*
X183234048Y-100959841D01*
X183243934Y-100948934D01*
X183254841Y-100939048D01*
X183266664Y-100930280D01*
X183279290Y-100922712D01*
X183292597Y-100916418D01*
X183306457Y-100911459D01*
X183320736Y-100907882D01*
X183335297Y-100905722D01*
X183350000Y-100905000D01*
X184800000Y-100905000D01*
X184814703Y-100905722D01*
G37*
G36*
X184814703Y-99635722D02*
G01*
X184829264Y-99637882D01*
X184843543Y-99641459D01*
X184857403Y-99646418D01*
X184870710Y-99652712D01*
X184883336Y-99660280D01*
X184895159Y-99669048D01*
X184906066Y-99678934D01*
X184915952Y-99689841D01*
X184924720Y-99701664D01*
X184932288Y-99714290D01*
X184938582Y-99727597D01*
X184943541Y-99741457D01*
X184947118Y-99755736D01*
X184949278Y-99770297D01*
X184950000Y-99785000D01*
X184950000Y-100085000D01*
X184949278Y-100099703D01*
X184947118Y-100114264D01*
X184943541Y-100128543D01*
X184938582Y-100142403D01*
X184932288Y-100155710D01*
X184924720Y-100168336D01*
X184915952Y-100180159D01*
X184906066Y-100191066D01*
X184895159Y-100200952D01*
X184883336Y-100209720D01*
X184870710Y-100217288D01*
X184857403Y-100223582D01*
X184843543Y-100228541D01*
X184829264Y-100232118D01*
X184814703Y-100234278D01*
X184800000Y-100235000D01*
X183350000Y-100235000D01*
X183335297Y-100234278D01*
X183320736Y-100232118D01*
X183306457Y-100228541D01*
X183292597Y-100223582D01*
X183279290Y-100217288D01*
X183266664Y-100209720D01*
X183254841Y-100200952D01*
X183243934Y-100191066D01*
X183234048Y-100180159D01*
X183225280Y-100168336D01*
X183217712Y-100155710D01*
X183211418Y-100142403D01*
X183206459Y-100128543D01*
X183202882Y-100114264D01*
X183200722Y-100099703D01*
X183200000Y-100085000D01*
X183200000Y-99785000D01*
X183200722Y-99770297D01*
X183202882Y-99755736D01*
X183206459Y-99741457D01*
X183211418Y-99727597D01*
X183217712Y-99714290D01*
X183225280Y-99701664D01*
X183234048Y-99689841D01*
X183243934Y-99678934D01*
X183254841Y-99669048D01*
X183266664Y-99660280D01*
X183279290Y-99652712D01*
X183292597Y-99646418D01*
X183306457Y-99641459D01*
X183320736Y-99637882D01*
X183335297Y-99635722D01*
X183350000Y-99635000D01*
X184800000Y-99635000D01*
X184814703Y-99635722D01*
G37*
G36*
X184814703Y-98365722D02*
G01*
X184829264Y-98367882D01*
X184843543Y-98371459D01*
X184857403Y-98376418D01*
X184870710Y-98382712D01*
X184883336Y-98390280D01*
X184895159Y-98399048D01*
X184906066Y-98408934D01*
X184915952Y-98419841D01*
X184924720Y-98431664D01*
X184932288Y-98444290D01*
X184938582Y-98457597D01*
X184943541Y-98471457D01*
X184947118Y-98485736D01*
X184949278Y-98500297D01*
X184950000Y-98515000D01*
X184950000Y-98815000D01*
X184949278Y-98829703D01*
X184947118Y-98844264D01*
X184943541Y-98858543D01*
X184938582Y-98872403D01*
X184932288Y-98885710D01*
X184924720Y-98898336D01*
X184915952Y-98910159D01*
X184906066Y-98921066D01*
X184895159Y-98930952D01*
X184883336Y-98939720D01*
X184870710Y-98947288D01*
X184857403Y-98953582D01*
X184843543Y-98958541D01*
X184829264Y-98962118D01*
X184814703Y-98964278D01*
X184800000Y-98965000D01*
X183350000Y-98965000D01*
X183335297Y-98964278D01*
X183320736Y-98962118D01*
X183306457Y-98958541D01*
X183292597Y-98953582D01*
X183279290Y-98947288D01*
X183266664Y-98939720D01*
X183254841Y-98930952D01*
X183243934Y-98921066D01*
X183234048Y-98910159D01*
X183225280Y-98898336D01*
X183217712Y-98885710D01*
X183211418Y-98872403D01*
X183206459Y-98858543D01*
X183202882Y-98844264D01*
X183200722Y-98829703D01*
X183200000Y-98815000D01*
X183200000Y-98515000D01*
X183200722Y-98500297D01*
X183202882Y-98485736D01*
X183206459Y-98471457D01*
X183211418Y-98457597D01*
X183217712Y-98444290D01*
X183225280Y-98431664D01*
X183234048Y-98419841D01*
X183243934Y-98408934D01*
X183254841Y-98399048D01*
X183266664Y-98390280D01*
X183279290Y-98382712D01*
X183292597Y-98376418D01*
X183306457Y-98371459D01*
X183320736Y-98367882D01*
X183335297Y-98365722D01*
X183350000Y-98365000D01*
X184800000Y-98365000D01*
X184814703Y-98365722D01*
G37*
G36*
X184814703Y-97095722D02*
G01*
X184829264Y-97097882D01*
X184843543Y-97101459D01*
X184857403Y-97106418D01*
X184870710Y-97112712D01*
X184883336Y-97120280D01*
X184895159Y-97129048D01*
X184906066Y-97138934D01*
X184915952Y-97149841D01*
X184924720Y-97161664D01*
X184932288Y-97174290D01*
X184938582Y-97187597D01*
X184943541Y-97201457D01*
X184947118Y-97215736D01*
X184949278Y-97230297D01*
X184950000Y-97245000D01*
X184950000Y-97545000D01*
X184949278Y-97559703D01*
X184947118Y-97574264D01*
X184943541Y-97588543D01*
X184938582Y-97602403D01*
X184932288Y-97615710D01*
X184924720Y-97628336D01*
X184915952Y-97640159D01*
X184906066Y-97651066D01*
X184895159Y-97660952D01*
X184883336Y-97669720D01*
X184870710Y-97677288D01*
X184857403Y-97683582D01*
X184843543Y-97688541D01*
X184829264Y-97692118D01*
X184814703Y-97694278D01*
X184800000Y-97695000D01*
X183350000Y-97695000D01*
X183335297Y-97694278D01*
X183320736Y-97692118D01*
X183306457Y-97688541D01*
X183292597Y-97683582D01*
X183279290Y-97677288D01*
X183266664Y-97669720D01*
X183254841Y-97660952D01*
X183243934Y-97651066D01*
X183234048Y-97640159D01*
X183225280Y-97628336D01*
X183217712Y-97615710D01*
X183211418Y-97602403D01*
X183206459Y-97588543D01*
X183202882Y-97574264D01*
X183200722Y-97559703D01*
X183200000Y-97545000D01*
X183200000Y-97245000D01*
X183200722Y-97230297D01*
X183202882Y-97215736D01*
X183206459Y-97201457D01*
X183211418Y-97187597D01*
X183217712Y-97174290D01*
X183225280Y-97161664D01*
X183234048Y-97149841D01*
X183243934Y-97138934D01*
X183254841Y-97129048D01*
X183266664Y-97120280D01*
X183279290Y-97112712D01*
X183292597Y-97106418D01*
X183306457Y-97101459D01*
X183320736Y-97097882D01*
X183335297Y-97095722D01*
X183350000Y-97095000D01*
X184800000Y-97095000D01*
X184814703Y-97095722D01*
G37*
M02*
