G04 #@! TF.GenerationSoftware,KiCad,Pcbnew,(5.1.7-0-10_14)*
G04 #@! TF.CreationDate,2020-11-13T20:56:13+11:00*
G04 #@! TF.ProjectId,esp32_battery_isolator,65737033-325f-4626-9174-746572795f69,rev?*
G04 #@! TF.SameCoordinates,Original*
G04 #@! TF.FileFunction,Legend,Top*
G04 #@! TF.FilePolarity,Positive*
%FSLAX46Y46*%
G04 Gerber Fmt 4.6, Leading zero omitted, Abs format (unit mm)*
G04 Created by KiCad (PCBNEW (5.1.7-0-10_14)) date 2020-11-13 20:56:13*
%MOMM*%
%LPD*%
G01*
G04 APERTURE LIST*
%ADD10C,0.150000*%
%ADD11C,0.300000*%
%ADD12C,0.250000*%
%ADD13C,0.120000*%
G04 APERTURE END LIST*
D10*
X139252380Y-115309523D02*
X138252380Y-115309523D01*
X138966666Y-114976190D01*
X138252380Y-114642857D01*
X139252380Y-114642857D01*
X138252380Y-113976190D02*
X138252380Y-113785714D01*
X138300000Y-113690476D01*
X138395238Y-113595238D01*
X138585714Y-113547619D01*
X138919047Y-113547619D01*
X139109523Y-113595238D01*
X139204761Y-113690476D01*
X139252380Y-113785714D01*
X139252380Y-113976190D01*
X139204761Y-114071428D01*
X139109523Y-114166666D01*
X138919047Y-114214285D01*
X138585714Y-114214285D01*
X138395238Y-114166666D01*
X138300000Y-114071428D01*
X138252380Y-113976190D01*
X139252380Y-113119047D02*
X138252380Y-113119047D01*
X138252380Y-112880952D01*
X138300000Y-112738095D01*
X138395238Y-112642857D01*
X138490476Y-112595238D01*
X138680952Y-112547619D01*
X138823809Y-112547619D01*
X139014285Y-112595238D01*
X139109523Y-112642857D01*
X139204761Y-112738095D01*
X139252380Y-112880952D01*
X139252380Y-113119047D01*
X138728571Y-112119047D02*
X138728571Y-111785714D01*
X139252380Y-111642857D02*
X139252380Y-112119047D01*
X138252380Y-112119047D01*
X138252380Y-111642857D01*
X139252380Y-104047619D02*
X138776190Y-104380952D01*
X139252380Y-104619047D02*
X138252380Y-104619047D01*
X138252380Y-104238095D01*
X138300000Y-104142857D01*
X138347619Y-104095238D01*
X138442857Y-104047619D01*
X138585714Y-104047619D01*
X138680952Y-104095238D01*
X138728571Y-104142857D01*
X138776190Y-104238095D01*
X138776190Y-104619047D01*
X139204761Y-103666666D02*
X139252380Y-103523809D01*
X139252380Y-103285714D01*
X139204761Y-103190476D01*
X139157142Y-103142857D01*
X139061904Y-103095238D01*
X138966666Y-103095238D01*
X138871428Y-103142857D01*
X138823809Y-103190476D01*
X138776190Y-103285714D01*
X138728571Y-103476190D01*
X138680952Y-103571428D01*
X138633333Y-103619047D01*
X138538095Y-103666666D01*
X138442857Y-103666666D01*
X138347619Y-103619047D01*
X138300000Y-103571428D01*
X138252380Y-103476190D01*
X138252380Y-103238095D01*
X138300000Y-103095238D01*
X138252380Y-102809523D02*
X138252380Y-102238095D01*
X139252380Y-102523809D02*
X138252380Y-102523809D01*
D11*
X154083333Y-132630952D02*
X153964285Y-132750000D01*
X153607142Y-132988095D01*
X153369047Y-133107142D01*
X153011904Y-133226190D01*
X152416666Y-133345238D01*
X151940476Y-133345238D01*
X151345238Y-133226190D01*
X150988095Y-133107142D01*
X150750000Y-132988095D01*
X150392857Y-132750000D01*
X150273809Y-132630952D01*
X153130952Y-130607142D02*
X151821428Y-130607142D01*
X151583333Y-130726190D01*
X151464285Y-130964285D01*
X151464285Y-131440476D01*
X151583333Y-131678571D01*
X153011904Y-130607142D02*
X153130952Y-130845238D01*
X153130952Y-131440476D01*
X153011904Y-131678571D01*
X152773809Y-131797619D01*
X152535714Y-131797619D01*
X152297619Y-131678571D01*
X152178571Y-131440476D01*
X152178571Y-130845238D01*
X152059523Y-130607142D01*
X151464285Y-128345238D02*
X153130952Y-128345238D01*
X151464285Y-129416666D02*
X152773809Y-129416666D01*
X153011904Y-129297619D01*
X153130952Y-129059523D01*
X153130952Y-128702380D01*
X153011904Y-128464285D01*
X152892857Y-128345238D01*
X153130952Y-127392857D02*
X151464285Y-126083333D01*
X151464285Y-127392857D02*
X153130952Y-126083333D01*
X154083333Y-125369047D02*
X153964285Y-125250000D01*
X153607142Y-125011904D01*
X153369047Y-124892857D01*
X153011904Y-124773809D01*
X152416666Y-124654761D01*
X151940476Y-124654761D01*
X151345238Y-124773809D01*
X150988095Y-124892857D01*
X150750000Y-125011904D01*
X150392857Y-125250000D01*
X150273809Y-125369047D01*
D10*
X138728571Y-109857142D02*
X138776190Y-109714285D01*
X138823809Y-109666666D01*
X138919047Y-109619047D01*
X139061904Y-109619047D01*
X139157142Y-109666666D01*
X139204761Y-109714285D01*
X139252380Y-109809523D01*
X139252380Y-110190476D01*
X138252380Y-110190476D01*
X138252380Y-109857142D01*
X138300000Y-109761904D01*
X138347619Y-109714285D01*
X138442857Y-109666666D01*
X138538095Y-109666666D01*
X138633333Y-109714285D01*
X138680952Y-109761904D01*
X138728571Y-109857142D01*
X138728571Y-110190476D01*
X138252380Y-109000000D02*
X138252380Y-108809523D01*
X138300000Y-108714285D01*
X138395238Y-108619047D01*
X138585714Y-108571428D01*
X138919047Y-108571428D01*
X139109523Y-108619047D01*
X139204761Y-108714285D01*
X139252380Y-108809523D01*
X139252380Y-109000000D01*
X139204761Y-109095238D01*
X139109523Y-109190476D01*
X138919047Y-109238095D01*
X138585714Y-109238095D01*
X138395238Y-109190476D01*
X138300000Y-109095238D01*
X138252380Y-109000000D01*
X138252380Y-107952380D02*
X138252380Y-107761904D01*
X138300000Y-107666666D01*
X138395238Y-107571428D01*
X138585714Y-107523809D01*
X138919047Y-107523809D01*
X139109523Y-107571428D01*
X139204761Y-107666666D01*
X139252380Y-107761904D01*
X139252380Y-107952380D01*
X139204761Y-108047619D01*
X139109523Y-108142857D01*
X138919047Y-108190476D01*
X138585714Y-108190476D01*
X138395238Y-108142857D01*
X138300000Y-108047619D01*
X138252380Y-107952380D01*
X138252380Y-107238095D02*
X138252380Y-106666666D01*
X139252380Y-106952380D02*
X138252380Y-106952380D01*
X122404761Y-90928571D02*
X122547619Y-90976190D01*
X122595238Y-91023809D01*
X122642857Y-91119047D01*
X122642857Y-91261904D01*
X122595238Y-91357142D01*
X122547619Y-91404761D01*
X122452380Y-91452380D01*
X122071428Y-91452380D01*
X122071428Y-90452380D01*
X122404761Y-90452380D01*
X122500000Y-90500000D01*
X122547619Y-90547619D01*
X122595238Y-90642857D01*
X122595238Y-90738095D01*
X122547619Y-90833333D01*
X122500000Y-90880952D01*
X122404761Y-90928571D01*
X122071428Y-90928571D01*
X123023809Y-91166666D02*
X123500000Y-91166666D01*
X122928571Y-91452380D02*
X123261904Y-90452380D01*
X123595238Y-91452380D01*
X123785714Y-90452380D02*
X124357142Y-90452380D01*
X124071428Y-91452380D02*
X124071428Y-90452380D01*
X124547619Y-90452380D02*
X125119047Y-90452380D01*
X124833333Y-91452380D02*
X124833333Y-90452380D01*
X125976190Y-91452380D02*
X125404761Y-91452380D01*
X125690476Y-91452380D02*
X125690476Y-90452380D01*
X125595238Y-90595238D01*
X125500000Y-90690476D01*
X125404761Y-90738095D01*
X113404761Y-79404761D02*
X113547619Y-79452380D01*
X113785714Y-79452380D01*
X113880952Y-79404761D01*
X113928571Y-79357142D01*
X113976190Y-79261904D01*
X113976190Y-79166666D01*
X113928571Y-79071428D01*
X113880952Y-79023809D01*
X113785714Y-78976190D01*
X113595238Y-78928571D01*
X113500000Y-78880952D01*
X113452380Y-78833333D01*
X113404761Y-78738095D01*
X113404761Y-78642857D01*
X113452380Y-78547619D01*
X113500000Y-78500000D01*
X113595238Y-78452380D01*
X113833333Y-78452380D01*
X113976190Y-78500000D01*
X114595238Y-78976190D02*
X114595238Y-79452380D01*
X114261904Y-78452380D02*
X114595238Y-78976190D01*
X114928571Y-78452380D01*
X115214285Y-79404761D02*
X115357142Y-79452380D01*
X115595238Y-79452380D01*
X115690476Y-79404761D01*
X115738095Y-79357142D01*
X115785714Y-79261904D01*
X115785714Y-79166666D01*
X115738095Y-79071428D01*
X115690476Y-79023809D01*
X115595238Y-78976190D01*
X115404761Y-78928571D01*
X115309523Y-78880952D01*
X115261904Y-78833333D01*
X115214285Y-78738095D01*
X115214285Y-78642857D01*
X115261904Y-78547619D01*
X115309523Y-78500000D01*
X115404761Y-78452380D01*
X115642857Y-78452380D01*
X115785714Y-78500000D01*
X116071428Y-78452380D02*
X116642857Y-78452380D01*
X116357142Y-79452380D02*
X116357142Y-78452380D01*
X116976190Y-78928571D02*
X117309523Y-78928571D01*
X117452380Y-79452380D02*
X116976190Y-79452380D01*
X116976190Y-78452380D01*
X117452380Y-78452380D01*
X117880952Y-79452380D02*
X117880952Y-78452380D01*
X118214285Y-79166666D01*
X118547619Y-78452380D01*
X118547619Y-79452380D01*
X165404761Y-90928571D02*
X165547619Y-90976190D01*
X165595238Y-91023809D01*
X165642857Y-91119047D01*
X165642857Y-91261904D01*
X165595238Y-91357142D01*
X165547619Y-91404761D01*
X165452380Y-91452380D01*
X165071428Y-91452380D01*
X165071428Y-90452380D01*
X165404761Y-90452380D01*
X165500000Y-90500000D01*
X165547619Y-90547619D01*
X165595238Y-90642857D01*
X165595238Y-90738095D01*
X165547619Y-90833333D01*
X165500000Y-90880952D01*
X165404761Y-90928571D01*
X165071428Y-90928571D01*
X166023809Y-91166666D02*
X166500000Y-91166666D01*
X165928571Y-91452380D02*
X166261904Y-90452380D01*
X166595238Y-91452380D01*
X166785714Y-90452380D02*
X167357142Y-90452380D01*
X167071428Y-91452380D02*
X167071428Y-90452380D01*
X167547619Y-90452380D02*
X168119047Y-90452380D01*
X167833333Y-91452380D02*
X167833333Y-90452380D01*
X168404761Y-90547619D02*
X168452380Y-90500000D01*
X168547619Y-90452380D01*
X168785714Y-90452380D01*
X168880952Y-90500000D01*
X168928571Y-90547619D01*
X168976190Y-90642857D01*
X168976190Y-90738095D01*
X168928571Y-90880952D01*
X168357142Y-91452380D01*
X168976190Y-91452380D01*
X178308095Y-78670000D02*
X178212857Y-78622380D01*
X178070000Y-78622380D01*
X177927142Y-78670000D01*
X177831904Y-78765238D01*
X177784285Y-78860476D01*
X177736666Y-79050952D01*
X177736666Y-79193809D01*
X177784285Y-79384285D01*
X177831904Y-79479523D01*
X177927142Y-79574761D01*
X178070000Y-79622380D01*
X178165238Y-79622380D01*
X178308095Y-79574761D01*
X178355714Y-79527142D01*
X178355714Y-79193809D01*
X178165238Y-79193809D01*
X178784285Y-79622380D02*
X178784285Y-78622380D01*
X179355714Y-79622380D01*
X179355714Y-78622380D01*
X179831904Y-79622380D02*
X179831904Y-78622380D01*
X180070000Y-78622380D01*
X180212857Y-78670000D01*
X180308095Y-78765238D01*
X180355714Y-78860476D01*
X180403333Y-79050952D01*
X180403333Y-79193809D01*
X180355714Y-79384285D01*
X180308095Y-79479523D01*
X180212857Y-79574761D01*
X180070000Y-79622380D01*
X179831904Y-79622380D01*
X177745714Y-87184761D02*
X177888571Y-87232380D01*
X178126666Y-87232380D01*
X178221904Y-87184761D01*
X178269523Y-87137142D01*
X178317142Y-87041904D01*
X178317142Y-86946666D01*
X178269523Y-86851428D01*
X178221904Y-86803809D01*
X178126666Y-86756190D01*
X177936190Y-86708571D01*
X177840952Y-86660952D01*
X177793333Y-86613333D01*
X177745714Y-86518095D01*
X177745714Y-86422857D01*
X177793333Y-86327619D01*
X177840952Y-86280000D01*
X177936190Y-86232380D01*
X178174285Y-86232380D01*
X178317142Y-86280000D01*
X178745714Y-87232380D02*
X178745714Y-86232380D01*
X178983809Y-86232380D01*
X179126666Y-86280000D01*
X179221904Y-86375238D01*
X179269523Y-86470476D01*
X179317142Y-86660952D01*
X179317142Y-86803809D01*
X179269523Y-86994285D01*
X179221904Y-87089523D01*
X179126666Y-87184761D01*
X178983809Y-87232380D01*
X178745714Y-87232380D01*
X179698095Y-86946666D02*
X180174285Y-86946666D01*
X179602857Y-87232380D02*
X179936190Y-86232380D01*
X180269523Y-87232380D01*
X177769523Y-84644761D02*
X177912380Y-84692380D01*
X178150476Y-84692380D01*
X178245714Y-84644761D01*
X178293333Y-84597142D01*
X178340952Y-84501904D01*
X178340952Y-84406666D01*
X178293333Y-84311428D01*
X178245714Y-84263809D01*
X178150476Y-84216190D01*
X177960000Y-84168571D01*
X177864761Y-84120952D01*
X177817142Y-84073333D01*
X177769523Y-83978095D01*
X177769523Y-83882857D01*
X177817142Y-83787619D01*
X177864761Y-83740000D01*
X177960000Y-83692380D01*
X178198095Y-83692380D01*
X178340952Y-83740000D01*
X179340952Y-84597142D02*
X179293333Y-84644761D01*
X179150476Y-84692380D01*
X179055238Y-84692380D01*
X178912380Y-84644761D01*
X178817142Y-84549523D01*
X178769523Y-84454285D01*
X178721904Y-84263809D01*
X178721904Y-84120952D01*
X178769523Y-83930476D01*
X178817142Y-83835238D01*
X178912380Y-83740000D01*
X179055238Y-83692380D01*
X179150476Y-83692380D01*
X179293333Y-83740000D01*
X179340952Y-83787619D01*
X180245714Y-84692380D02*
X179769523Y-84692380D01*
X179769523Y-83692380D01*
X177739523Y-81212380D02*
X178358571Y-81212380D01*
X178025238Y-81593333D01*
X178168095Y-81593333D01*
X178263333Y-81640952D01*
X178310952Y-81688571D01*
X178358571Y-81783809D01*
X178358571Y-82021904D01*
X178310952Y-82117142D01*
X178263333Y-82164761D01*
X178168095Y-82212380D01*
X177882380Y-82212380D01*
X177787142Y-82164761D01*
X177739523Y-82117142D01*
X178691904Y-81545714D02*
X178930000Y-82212380D01*
X179168095Y-81545714D01*
X179453809Y-81212380D02*
X180072857Y-81212380D01*
X179739523Y-81593333D01*
X179882380Y-81593333D01*
X179977619Y-81640952D01*
X180025238Y-81688571D01*
X180072857Y-81783809D01*
X180072857Y-82021904D01*
X180025238Y-82117142D01*
X179977619Y-82164761D01*
X179882380Y-82212380D01*
X179596666Y-82212380D01*
X179501428Y-82164761D01*
X179453809Y-82117142D01*
X175898809Y-76827380D02*
X175898809Y-75827380D01*
X176327380Y-75922619D02*
X176375000Y-75875000D01*
X176470238Y-75827380D01*
X176708333Y-75827380D01*
X176803571Y-75875000D01*
X176851190Y-75922619D01*
X176898809Y-76017857D01*
X176898809Y-76113095D01*
X176851190Y-76255952D01*
X176279761Y-76827380D01*
X176898809Y-76827380D01*
X177898809Y-76732142D02*
X177851190Y-76779761D01*
X177708333Y-76827380D01*
X177613095Y-76827380D01*
X177470238Y-76779761D01*
X177375000Y-76684523D01*
X177327380Y-76589285D01*
X177279761Y-76398809D01*
X177279761Y-76255952D01*
X177327380Y-76065476D01*
X177375000Y-75970238D01*
X177470238Y-75875000D01*
X177613095Y-75827380D01*
X177708333Y-75827380D01*
X177851190Y-75875000D01*
X177898809Y-75922619D01*
D12*
X103464285Y-84221428D02*
X103621428Y-84273809D01*
X103673809Y-84326190D01*
X103726190Y-84430952D01*
X103726190Y-84588095D01*
X103673809Y-84692857D01*
X103621428Y-84745238D01*
X103516666Y-84797619D01*
X103097619Y-84797619D01*
X103097619Y-83697619D01*
X103464285Y-83697619D01*
X103569047Y-83750000D01*
X103621428Y-83802380D01*
X103673809Y-83907142D01*
X103673809Y-84011904D01*
X103621428Y-84116666D01*
X103569047Y-84169047D01*
X103464285Y-84221428D01*
X103097619Y-84221428D01*
X104145238Y-84483333D02*
X104669047Y-84483333D01*
X104040476Y-84797619D02*
X104407142Y-83697619D01*
X104773809Y-84797619D01*
X104983333Y-83697619D02*
X105611904Y-83697619D01*
X105297619Y-84797619D02*
X105297619Y-83697619D01*
X105821428Y-83697619D02*
X106450000Y-83697619D01*
X106135714Y-84797619D02*
X106135714Y-83697619D01*
X106816666Y-84221428D02*
X107183333Y-84221428D01*
X107340476Y-84797619D02*
X106816666Y-84797619D01*
X106816666Y-83697619D01*
X107340476Y-83697619D01*
X108440476Y-84797619D02*
X108073809Y-84273809D01*
X107811904Y-84797619D02*
X107811904Y-83697619D01*
X108230952Y-83697619D01*
X108335714Y-83750000D01*
X108388095Y-83802380D01*
X108440476Y-83907142D01*
X108440476Y-84064285D01*
X108388095Y-84169047D01*
X108335714Y-84221428D01*
X108230952Y-84273809D01*
X107811904Y-84273809D01*
X109121428Y-84273809D02*
X109121428Y-84797619D01*
X108754761Y-83697619D02*
X109121428Y-84273809D01*
X109488095Y-83697619D01*
X110692857Y-84797619D02*
X110692857Y-83697619D01*
X111164285Y-84745238D02*
X111321428Y-84797619D01*
X111583333Y-84797619D01*
X111688095Y-84745238D01*
X111740476Y-84692857D01*
X111792857Y-84588095D01*
X111792857Y-84483333D01*
X111740476Y-84378571D01*
X111688095Y-84326190D01*
X111583333Y-84273809D01*
X111373809Y-84221428D01*
X111269047Y-84169047D01*
X111216666Y-84116666D01*
X111164285Y-84011904D01*
X111164285Y-83907142D01*
X111216666Y-83802380D01*
X111269047Y-83750000D01*
X111373809Y-83697619D01*
X111635714Y-83697619D01*
X111792857Y-83750000D01*
X112473809Y-83697619D02*
X112683333Y-83697619D01*
X112788095Y-83750000D01*
X112892857Y-83854761D01*
X112945238Y-84064285D01*
X112945238Y-84430952D01*
X112892857Y-84640476D01*
X112788095Y-84745238D01*
X112683333Y-84797619D01*
X112473809Y-84797619D01*
X112369047Y-84745238D01*
X112264285Y-84640476D01*
X112211904Y-84430952D01*
X112211904Y-84064285D01*
X112264285Y-83854761D01*
X112369047Y-83750000D01*
X112473809Y-83697619D01*
X113940476Y-84797619D02*
X113416666Y-84797619D01*
X113416666Y-83697619D01*
X114254761Y-84483333D02*
X114778571Y-84483333D01*
X114150000Y-84797619D02*
X114516666Y-83697619D01*
X114883333Y-84797619D01*
X115092857Y-83697619D02*
X115721428Y-83697619D01*
X115407142Y-84797619D02*
X115407142Y-83697619D01*
X116297619Y-83697619D02*
X116507142Y-83697619D01*
X116611904Y-83750000D01*
X116716666Y-83854761D01*
X116769047Y-84064285D01*
X116769047Y-84430952D01*
X116716666Y-84640476D01*
X116611904Y-84745238D01*
X116507142Y-84797619D01*
X116297619Y-84797619D01*
X116192857Y-84745238D01*
X116088095Y-84640476D01*
X116035714Y-84430952D01*
X116035714Y-84064285D01*
X116088095Y-83854761D01*
X116192857Y-83750000D01*
X116297619Y-83697619D01*
X117869047Y-84797619D02*
X117502380Y-84273809D01*
X117240476Y-84797619D02*
X117240476Y-83697619D01*
X117659523Y-83697619D01*
X117764285Y-83750000D01*
X117816666Y-83802380D01*
X117869047Y-83907142D01*
X117869047Y-84064285D01*
X117816666Y-84169047D01*
X117764285Y-84221428D01*
X117659523Y-84273809D01*
X117240476Y-84273809D01*
X119702380Y-84797619D02*
X119178571Y-84797619D01*
X119178571Y-83697619D01*
X120069047Y-84797619D02*
X120069047Y-83697619D01*
X120435714Y-83697619D02*
X121064285Y-83697619D01*
X120750000Y-84797619D02*
X120750000Y-83697619D01*
X121430952Y-84221428D02*
X121797619Y-84221428D01*
X121954761Y-84797619D02*
X121430952Y-84797619D01*
X121430952Y-83697619D01*
X121954761Y-83697619D01*
X123892857Y-84797619D02*
X123526190Y-84273809D01*
X123264285Y-84797619D02*
X123264285Y-83697619D01*
X123683333Y-83697619D01*
X123788095Y-83750000D01*
X123840476Y-83802380D01*
X123892857Y-83907142D01*
X123892857Y-84064285D01*
X123840476Y-84169047D01*
X123788095Y-84221428D01*
X123683333Y-84273809D01*
X123264285Y-84273809D01*
X124364285Y-84221428D02*
X124730952Y-84221428D01*
X124888095Y-84797619D02*
X124364285Y-84797619D01*
X124364285Y-83697619D01*
X124888095Y-83697619D01*
X125202380Y-83697619D02*
X125569047Y-84797619D01*
X125935714Y-83697619D01*
X126302380Y-84692857D02*
X126354761Y-84745238D01*
X126302380Y-84797619D01*
X126250000Y-84745238D01*
X126302380Y-84692857D01*
X126302380Y-84797619D01*
X127192857Y-84221428D02*
X127350000Y-84273809D01*
X127402380Y-84326190D01*
X127454761Y-84430952D01*
X127454761Y-84588095D01*
X127402380Y-84692857D01*
X127350000Y-84745238D01*
X127245238Y-84797619D01*
X126826190Y-84797619D01*
X126826190Y-83697619D01*
X127192857Y-83697619D01*
X127297619Y-83750000D01*
X127350000Y-83802380D01*
X127402380Y-83907142D01*
X127402380Y-84011904D01*
X127350000Y-84116666D01*
X127297619Y-84169047D01*
X127192857Y-84221428D01*
X126826190Y-84221428D01*
X107445238Y-86383333D02*
X107969047Y-86383333D01*
X107340476Y-86697619D02*
X107707142Y-85597619D01*
X108073809Y-86697619D01*
X109069047Y-86592857D02*
X109016666Y-86645238D01*
X108859523Y-86697619D01*
X108754761Y-86697619D01*
X108597619Y-86645238D01*
X108492857Y-86540476D01*
X108440476Y-86435714D01*
X108388095Y-86226190D01*
X108388095Y-86069047D01*
X108440476Y-85859523D01*
X108492857Y-85754761D01*
X108597619Y-85650000D01*
X108754761Y-85597619D01*
X108859523Y-85597619D01*
X109016666Y-85650000D01*
X109069047Y-85702380D01*
X109540476Y-86121428D02*
X109907142Y-86121428D01*
X110064285Y-86697619D02*
X109540476Y-86697619D01*
X109540476Y-85597619D01*
X110064285Y-85597619D01*
X110483333Y-86383333D02*
X111007142Y-86383333D01*
X110378571Y-86697619D02*
X110745238Y-85597619D01*
X111111904Y-86697619D01*
X113050000Y-86802380D02*
X112945238Y-86750000D01*
X112840476Y-86645238D01*
X112683333Y-86488095D01*
X112578571Y-86435714D01*
X112473809Y-86435714D01*
X112526190Y-86697619D02*
X112421428Y-86645238D01*
X112316666Y-86540476D01*
X112264285Y-86330952D01*
X112264285Y-85964285D01*
X112316666Y-85754761D01*
X112421428Y-85650000D01*
X112526190Y-85597619D01*
X112735714Y-85597619D01*
X112840476Y-85650000D01*
X112945238Y-85754761D01*
X112997619Y-85964285D01*
X112997619Y-86330952D01*
X112945238Y-86540476D01*
X112840476Y-86645238D01*
X112735714Y-86697619D01*
X112526190Y-86697619D01*
X113469047Y-85597619D02*
X113469047Y-86488095D01*
X113521428Y-86592857D01*
X113573809Y-86645238D01*
X113678571Y-86697619D01*
X113888095Y-86697619D01*
X113992857Y-86645238D01*
X114045238Y-86592857D01*
X114097619Y-86488095D01*
X114097619Y-85597619D01*
X114621428Y-86697619D02*
X114621428Y-85597619D01*
X115721428Y-85650000D02*
X115616666Y-85597619D01*
X115459523Y-85597619D01*
X115302380Y-85650000D01*
X115197619Y-85754761D01*
X115145238Y-85859523D01*
X115092857Y-86069047D01*
X115092857Y-86226190D01*
X115145238Y-86435714D01*
X115197619Y-86540476D01*
X115302380Y-86645238D01*
X115459523Y-86697619D01*
X115564285Y-86697619D01*
X115721428Y-86645238D01*
X115773809Y-86592857D01*
X115773809Y-86226190D01*
X115564285Y-86226190D01*
X116821428Y-85650000D02*
X116716666Y-85597619D01*
X116559523Y-85597619D01*
X116402380Y-85650000D01*
X116297619Y-85754761D01*
X116245238Y-85859523D01*
X116192857Y-86069047D01*
X116192857Y-86226190D01*
X116245238Y-86435714D01*
X116297619Y-86540476D01*
X116402380Y-86645238D01*
X116559523Y-86697619D01*
X116664285Y-86697619D01*
X116821428Y-86645238D01*
X116873809Y-86592857D01*
X116873809Y-86226190D01*
X116664285Y-86226190D01*
X118759523Y-86697619D02*
X118130952Y-86697619D01*
X118445238Y-86697619D02*
X118445238Y-85597619D01*
X118340476Y-85754761D01*
X118235714Y-85859523D01*
X118130952Y-85911904D01*
X119440476Y-85597619D02*
X119545238Y-85597619D01*
X119650000Y-85650000D01*
X119702380Y-85702380D01*
X119754761Y-85807142D01*
X119807142Y-86016666D01*
X119807142Y-86278571D01*
X119754761Y-86488095D01*
X119702380Y-86592857D01*
X119650000Y-86645238D01*
X119545238Y-86697619D01*
X119440476Y-86697619D01*
X119335714Y-86645238D01*
X119283333Y-86592857D01*
X119230952Y-86488095D01*
X119178571Y-86278571D01*
X119178571Y-86016666D01*
X119230952Y-85807142D01*
X119283333Y-85702380D01*
X119335714Y-85650000D01*
X119440476Y-85597619D01*
X121064285Y-85545238D02*
X120121428Y-86959523D01*
X121378571Y-85702380D02*
X121430952Y-85650000D01*
X121535714Y-85597619D01*
X121797619Y-85597619D01*
X121902380Y-85650000D01*
X121954761Y-85702380D01*
X122007142Y-85807142D01*
X122007142Y-85911904D01*
X121954761Y-86069047D01*
X121326190Y-86697619D01*
X122007142Y-86697619D01*
X122688095Y-85597619D02*
X122792857Y-85597619D01*
X122897619Y-85650000D01*
X122950000Y-85702380D01*
X123002380Y-85807142D01*
X123054761Y-86016666D01*
X123054761Y-86278571D01*
X123002380Y-86488095D01*
X122950000Y-86592857D01*
X122897619Y-86645238D01*
X122792857Y-86697619D01*
X122688095Y-86697619D01*
X122583333Y-86645238D01*
X122530952Y-86592857D01*
X122478571Y-86488095D01*
X122426190Y-86278571D01*
X122426190Y-86016666D01*
X122478571Y-85807142D01*
X122530952Y-85702380D01*
X122583333Y-85650000D01*
X122688095Y-85597619D01*
D11*
X164130952Y-131857142D02*
X164130952Y-133047619D01*
X161630952Y-133047619D01*
X161630952Y-130547619D02*
X161630952Y-130071428D01*
X161750000Y-129833333D01*
X161988095Y-129595238D01*
X162464285Y-129476190D01*
X163297619Y-129476190D01*
X163773809Y-129595238D01*
X164011904Y-129833333D01*
X164130952Y-130071428D01*
X164130952Y-130547619D01*
X164011904Y-130785714D01*
X163773809Y-131023809D01*
X163297619Y-131142857D01*
X162464285Y-131142857D01*
X161988095Y-131023809D01*
X161750000Y-130785714D01*
X161630952Y-130547619D01*
X163416666Y-128523809D02*
X163416666Y-127333333D01*
X164130952Y-128761904D02*
X161630952Y-127928571D01*
X164130952Y-127095238D01*
X164130952Y-126261904D02*
X161630952Y-126261904D01*
X161630952Y-125666666D01*
X161750000Y-125309523D01*
X161988095Y-125071428D01*
X162226190Y-124952380D01*
X162702380Y-124833333D01*
X163059523Y-124833333D01*
X163535714Y-124952380D01*
X163773809Y-125071428D01*
X164011904Y-125309523D01*
X164130952Y-125666666D01*
X164130952Y-126261904D01*
X136821428Y-132988095D02*
X136940476Y-132630952D01*
X137059523Y-132511904D01*
X137297619Y-132392857D01*
X137654761Y-132392857D01*
X137892857Y-132511904D01*
X138011904Y-132630952D01*
X138130952Y-132869047D01*
X138130952Y-133821428D01*
X135630952Y-133821428D01*
X135630952Y-132988095D01*
X135750000Y-132750000D01*
X135869047Y-132630952D01*
X136107142Y-132511904D01*
X136345238Y-132511904D01*
X136583333Y-132630952D01*
X136702380Y-132750000D01*
X136821428Y-132988095D01*
X136821428Y-133821428D01*
X137416666Y-131440476D02*
X137416666Y-130250000D01*
X138130952Y-131678571D02*
X135630952Y-130845238D01*
X138130952Y-130011904D01*
X135630952Y-129535714D02*
X135630952Y-128107142D01*
X138130952Y-128821428D02*
X135630952Y-128821428D01*
X135630952Y-127630952D02*
X135630952Y-126202380D01*
X138130952Y-126916666D02*
X135630952Y-126916666D01*
X135869047Y-125488095D02*
X135750000Y-125369047D01*
X135630952Y-125130952D01*
X135630952Y-124535714D01*
X135750000Y-124297619D01*
X135869047Y-124178571D01*
X136107142Y-124059523D01*
X136345238Y-124059523D01*
X136702380Y-124178571D01*
X138130952Y-125607142D01*
X138130952Y-124059523D01*
X127821428Y-132988095D02*
X127940476Y-132630952D01*
X128059523Y-132511904D01*
X128297619Y-132392857D01*
X128654761Y-132392857D01*
X128892857Y-132511904D01*
X129011904Y-132630952D01*
X129130952Y-132869047D01*
X129130952Y-133821428D01*
X126630952Y-133821428D01*
X126630952Y-132988095D01*
X126750000Y-132750000D01*
X126869047Y-132630952D01*
X127107142Y-132511904D01*
X127345238Y-132511904D01*
X127583333Y-132630952D01*
X127702380Y-132750000D01*
X127821428Y-132988095D01*
X127821428Y-133821428D01*
X128416666Y-131440476D02*
X128416666Y-130250000D01*
X129130952Y-131678571D02*
X126630952Y-130845238D01*
X129130952Y-130011904D01*
X126630952Y-129535714D02*
X126630952Y-128107142D01*
X129130952Y-128821428D02*
X126630952Y-128821428D01*
X126630952Y-127630952D02*
X126630952Y-126202380D01*
X129130952Y-126916666D02*
X126630952Y-126916666D01*
X129130952Y-124059523D02*
X129130952Y-125488095D01*
X129130952Y-124773809D02*
X126630952Y-124773809D01*
X126988095Y-125011904D01*
X127226190Y-125250000D01*
X127345238Y-125488095D01*
D13*
X146550000Y-138525000D02*
X149150000Y-135675000D01*
X140850000Y-135675000D02*
X143400000Y-138525000D01*
X149150000Y-122825000D02*
X140850000Y-122825000D01*
X149150000Y-135675000D02*
X149150000Y-122825000D01*
X143400000Y-138525000D02*
X146550000Y-138525000D01*
X140850000Y-122825000D02*
X140850000Y-135675000D01*
X134710000Y-84258578D02*
X134710000Y-83741422D01*
X133290000Y-84258578D02*
X133290000Y-83741422D01*
X107740000Y-123858578D02*
X107740000Y-123341422D01*
X109160000Y-123858578D02*
X109160000Y-123341422D01*
X103960000Y-122758578D02*
X103960000Y-122241422D01*
X102540000Y-122758578D02*
X102540000Y-122241422D01*
X119940000Y-77850000D02*
X119940000Y-80135000D01*
X119940000Y-80135000D02*
X121410000Y-80135000D01*
X121410000Y-80135000D02*
X121410000Y-77850000D01*
X128735000Y-92485000D02*
X128735000Y-90200000D01*
X127265000Y-92485000D02*
X128735000Y-92485000D01*
X127265000Y-90200000D02*
X127265000Y-92485000D01*
X171550000Y-138725000D02*
X174150000Y-135875000D01*
X165850000Y-135875000D02*
X168400000Y-138725000D01*
X174150000Y-123025000D02*
X165850000Y-123025000D01*
X174150000Y-135875000D02*
X174150000Y-123025000D01*
X168400000Y-138725000D02*
X171550000Y-138725000D01*
X165850000Y-123025000D02*
X165850000Y-135875000D01*
X121740000Y-77850000D02*
X121740000Y-80135000D01*
X121740000Y-80135000D02*
X123210000Y-80135000D01*
X123210000Y-80135000D02*
X123210000Y-77850000D01*
X130610000Y-92485000D02*
X130610000Y-90200000D01*
X129140000Y-92485000D02*
X130610000Y-92485000D01*
X129140000Y-90200000D02*
X129140000Y-92485000D01*
X132837221Y-99260000D02*
X133162779Y-99260000D01*
X132837221Y-98240000D02*
X133162779Y-98240000D01*
X180510000Y-129837221D02*
X180510000Y-130162779D01*
X179490000Y-129837221D02*
X179490000Y-130162779D01*
X183010000Y-129837221D02*
X183010000Y-130162779D01*
X181990000Y-129837221D02*
X181990000Y-130162779D01*
X130990000Y-125662779D02*
X130990000Y-125337221D01*
X132010000Y-125662779D02*
X132010000Y-125337221D01*
X132010000Y-122662779D02*
X132010000Y-122337221D01*
X130990000Y-122662779D02*
X130990000Y-122337221D01*
X133990000Y-125662779D02*
X133990000Y-125337221D01*
X135010000Y-125662779D02*
X135010000Y-125337221D01*
X135010000Y-122662779D02*
X135010000Y-122337221D01*
X133990000Y-122662779D02*
X133990000Y-122337221D01*
X152240000Y-113695563D02*
X153304437Y-114760000D01*
X152240000Y-110304437D02*
X153304437Y-109240000D01*
X152240000Y-110304437D02*
X152240000Y-110940000D01*
X152240000Y-113695563D02*
X152240000Y-113060000D01*
X153304437Y-114760000D02*
X157760000Y-114760000D01*
X153304437Y-109240000D02*
X157760000Y-109240000D01*
X157760000Y-109240000D02*
X157760000Y-110940000D01*
X157760000Y-114760000D02*
X157760000Y-113060000D01*
X157760000Y-108760000D02*
X157760000Y-107060000D01*
X157760000Y-103240000D02*
X157760000Y-104940000D01*
X153304437Y-103240000D02*
X157760000Y-103240000D01*
X153304437Y-108760000D02*
X157760000Y-108760000D01*
X152240000Y-107695563D02*
X152240000Y-107060000D01*
X152240000Y-104304437D02*
X152240000Y-104940000D01*
X152240000Y-104304437D02*
X153304437Y-103240000D01*
X152240000Y-107695563D02*
X153304437Y-108760000D01*
X105515000Y-121250000D02*
X105515000Y-125160000D01*
X105515000Y-125160000D02*
X107385000Y-125160000D01*
X107385000Y-125160000D02*
X107385000Y-121250000D01*
X102565000Y-124940000D02*
X102565000Y-128850000D01*
X104435000Y-124940000D02*
X102565000Y-124940000D01*
X104435000Y-128850000D02*
X104435000Y-124940000D01*
X185765000Y-124738748D02*
X185765000Y-125261252D01*
X187235000Y-124738748D02*
X187235000Y-125261252D01*
X169760000Y-78640580D02*
X169760000Y-78359420D01*
X168740000Y-78640580D02*
X168740000Y-78359420D01*
X170740000Y-83140580D02*
X170740000Y-82859420D01*
X171760000Y-83140580D02*
X171760000Y-82859420D01*
X179600000Y-92900000D02*
X179600000Y-87500000D01*
X182900000Y-92900000D02*
X182900000Y-87500000D01*
X179600000Y-92900000D02*
X182900000Y-92900000D01*
X161735000Y-92485000D02*
X161735000Y-90200000D01*
X160265000Y-92485000D02*
X161735000Y-92485000D01*
X160265000Y-90200000D02*
X160265000Y-92485000D01*
X121900000Y-138675000D02*
X124500000Y-135825000D01*
X116200000Y-135825000D02*
X118750000Y-138675000D01*
X124500000Y-122975000D02*
X116200000Y-122975000D01*
X124500000Y-135825000D02*
X124500000Y-122975000D01*
X118750000Y-138675000D02*
X121900000Y-138675000D01*
X116200000Y-122975000D02*
X116200000Y-135825000D01*
X176000000Y-77670000D02*
X177330000Y-77670000D01*
X177330000Y-77670000D02*
X177330000Y-79000000D01*
X177330000Y-80270000D02*
X177330000Y-87950000D01*
X174670000Y-87950000D02*
X177330000Y-87950000D01*
X174670000Y-80270000D02*
X174670000Y-87950000D01*
X174670000Y-80270000D02*
X177330000Y-80270000D01*
X188650000Y-91510000D02*
X189000000Y-91510000D01*
X188650000Y-83990000D02*
X189000000Y-83990000D01*
X184640000Y-83990000D02*
X184640000Y-85550000D01*
X186450000Y-83990000D02*
X184640000Y-83990000D01*
X184640000Y-91510000D02*
X184640000Y-89950000D01*
X186450000Y-91510000D02*
X184640000Y-91510000D01*
X123800000Y-107000000D02*
X125600000Y-107000000D01*
X121100000Y-107000000D02*
X115500000Y-107000000D01*
X121230000Y-107000000D02*
G75*
G03*
X121230000Y-107000000I-130000J0D01*
G01*
X130000000Y-93900000D02*
X130000000Y-120100000D01*
X103800000Y-93900000D02*
X130000000Y-93900000D01*
X103800000Y-120100000D02*
X130000000Y-120100000D01*
X103800000Y-93900000D02*
X103800000Y-120100000D01*
X121100000Y-107000000D02*
X123300000Y-109200000D01*
X178100000Y-107000000D02*
X180300000Y-109200000D01*
X160800000Y-93900000D02*
X160800000Y-120100000D01*
X160800000Y-120100000D02*
X187000000Y-120100000D01*
X160800000Y-93900000D02*
X187000000Y-93900000D01*
X187000000Y-93900000D02*
X187000000Y-120100000D01*
X178230000Y-107000000D02*
G75*
G03*
X178230000Y-107000000I-130000J0D01*
G01*
X178100000Y-107000000D02*
X172500000Y-107000000D01*
X180800000Y-107000000D02*
X182600000Y-107000000D01*
X128977500Y-83562742D02*
X128977500Y-84037258D01*
X130022500Y-83562742D02*
X130022500Y-84037258D01*
X162265000Y-90200000D02*
X162265000Y-92485000D01*
X162265000Y-92485000D02*
X163735000Y-92485000D01*
X163735000Y-92485000D02*
X163735000Y-90200000D01*
X135880000Y-81705000D02*
X135500000Y-81705000D01*
X135880000Y-75285000D02*
X135880000Y-81705000D01*
X154120000Y-75285000D02*
X154120000Y-81705000D01*
X135880000Y-75285000D02*
X154120000Y-75285000D01*
X154120000Y-101030000D02*
X153120000Y-101030000D01*
X154120000Y-100250000D02*
X154120000Y-101030000D01*
X135880000Y-101030000D02*
X136880000Y-101030000D01*
X135880000Y-100250000D02*
X135880000Y-101030000D01*
X109700000Y-125715000D02*
X106100000Y-125715000D01*
X109700000Y-125715000D02*
X111900000Y-125715000D01*
X109700000Y-131185000D02*
X107500000Y-131185000D01*
X109700000Y-131185000D02*
X111900000Y-131185000D01*
X181000000Y-122440000D02*
X177550000Y-122440000D01*
X181000000Y-122440000D02*
X182950000Y-122440000D01*
X181000000Y-127560000D02*
X179050000Y-127560000D01*
X181000000Y-127560000D02*
X182950000Y-127560000D01*
X166500000Y-80440000D02*
X163050000Y-80440000D01*
X166500000Y-80440000D02*
X168450000Y-80440000D01*
X166500000Y-85560000D02*
X164550000Y-85560000D01*
X166500000Y-85560000D02*
X168450000Y-85560000D01*
X114500000Y-89400000D02*
X119900000Y-89400000D01*
X114500000Y-92700000D02*
X119900000Y-92700000D01*
X114500000Y-89400000D02*
X114500000Y-92700000D01*
X177400000Y-93150000D02*
X177400000Y-89850000D01*
X177400000Y-89850000D02*
X172000000Y-89850000D01*
X177400000Y-93150000D02*
X172000000Y-93150000D01*
X137250000Y-103450000D02*
X137250000Y-103550000D01*
X132850000Y-105050000D02*
X137250000Y-105050000D01*
X137250000Y-101950000D02*
X132850000Y-101950000D01*
X132850000Y-103450000D02*
X132850000Y-103550000D01*
X132850000Y-108450000D02*
X132850000Y-108550000D01*
X137250000Y-106950000D02*
X132850000Y-106950000D01*
X132850000Y-110050000D02*
X137250000Y-110050000D01*
X137250000Y-108450000D02*
X137250000Y-108550000D01*
X132850000Y-113450000D02*
X132850000Y-113550000D01*
X137250000Y-111950000D02*
X132850000Y-111950000D01*
X132850000Y-115050000D02*
X137250000Y-115050000D01*
X137250000Y-113450000D02*
X137250000Y-113550000D01*
X128110000Y-80865000D02*
X124200000Y-80865000D01*
X128110000Y-82735000D02*
X128110000Y-80865000D01*
X124200000Y-82735000D02*
X128110000Y-82735000D01*
X131065000Y-83738748D02*
X131065000Y-84261252D01*
X132535000Y-83738748D02*
X132535000Y-84261252D01*
X157237258Y-98677500D02*
X156762742Y-98677500D01*
X157237258Y-99722500D02*
X156762742Y-99722500D01*
X128722500Y-86812742D02*
X128722500Y-87287258D01*
X127677500Y-86812742D02*
X127677500Y-87287258D01*
X148180000Y-114470000D02*
X148180000Y-115570000D01*
X148450000Y-114470000D02*
X148180000Y-114470000D01*
X148450000Y-112970000D02*
X148450000Y-114470000D01*
X141820000Y-114470000D02*
X141820000Y-117300000D01*
X141550000Y-114470000D02*
X141820000Y-114470000D01*
X141550000Y-112970000D02*
X141550000Y-114470000D01*
X133400000Y-92650000D02*
X133400000Y-93600000D01*
X130800000Y-92650000D02*
X133400000Y-92650000D01*
X133400000Y-94900000D02*
X133400000Y-95700000D01*
X158800000Y-94950000D02*
X158800000Y-95750000D01*
X156200000Y-92700000D02*
X158800000Y-92700000D01*
X158800000Y-92700000D02*
X158800000Y-93650000D01*
X121720000Y-100010000D02*
X122650000Y-100010000D01*
X124880000Y-100010000D02*
X123950000Y-100010000D01*
X124880000Y-100010000D02*
X124880000Y-97850000D01*
X121720000Y-100010000D02*
X121720000Y-98550000D01*
X117450000Y-104630000D02*
X123795000Y-104630000D01*
X117905000Y-109770000D02*
X123795000Y-109770000D01*
X171660000Y-101730000D02*
X170200000Y-101730000D01*
X171660000Y-98570000D02*
X169500000Y-98570000D01*
X171660000Y-98570000D02*
X171660000Y-99500000D01*
X171660000Y-101730000D02*
X171660000Y-100800000D01*
X175505000Y-109620000D02*
X181395000Y-109620000D01*
X175050000Y-104480000D02*
X181395000Y-104480000D01*
X115827500Y-103887258D02*
X115827500Y-103412742D01*
X116872500Y-103887258D02*
X116872500Y-103412742D01*
X174172500Y-103337258D02*
X174172500Y-102862742D01*
X173127500Y-103337258D02*
X173127500Y-102862742D01*
X153450000Y-116740000D02*
X151500000Y-116740000D01*
X153450000Y-116740000D02*
X155400000Y-116740000D01*
X153450000Y-121860000D02*
X151500000Y-121860000D01*
X153450000Y-121860000D02*
X156900000Y-121860000D01*
D10*
X139666666Y-122277380D02*
X139666666Y-122991666D01*
X139619047Y-123134523D01*
X139523809Y-123229761D01*
X139380952Y-123277380D01*
X139285714Y-123277380D01*
X140571428Y-122610714D02*
X140571428Y-123277380D01*
X140333333Y-122229761D02*
X140095238Y-122944047D01*
X140714285Y-122944047D01*
X134287142Y-86916666D02*
X134334761Y-86964285D01*
X134382380Y-87107142D01*
X134382380Y-87202380D01*
X134334761Y-87345238D01*
X134239523Y-87440476D01*
X134144285Y-87488095D01*
X133953809Y-87535714D01*
X133810952Y-87535714D01*
X133620476Y-87488095D01*
X133525238Y-87440476D01*
X133430000Y-87345238D01*
X133382380Y-87202380D01*
X133382380Y-87107142D01*
X133430000Y-86964285D01*
X133477619Y-86916666D01*
X134382380Y-85964285D02*
X134382380Y-86535714D01*
X134382380Y-86250000D02*
X133382380Y-86250000D01*
X133525238Y-86345238D01*
X133620476Y-86440476D01*
X133668095Y-86535714D01*
X110407142Y-123766666D02*
X110454761Y-123814285D01*
X110502380Y-123957142D01*
X110502380Y-124052380D01*
X110454761Y-124195238D01*
X110359523Y-124290476D01*
X110264285Y-124338095D01*
X110073809Y-124385714D01*
X109930952Y-124385714D01*
X109740476Y-124338095D01*
X109645238Y-124290476D01*
X109550000Y-124195238D01*
X109502380Y-124052380D01*
X109502380Y-123957142D01*
X109550000Y-123814285D01*
X109597619Y-123766666D01*
X109502380Y-122861904D02*
X109502380Y-123338095D01*
X109978571Y-123385714D01*
X109930952Y-123338095D01*
X109883333Y-123242857D01*
X109883333Y-123004761D01*
X109930952Y-122909523D01*
X109978571Y-122861904D01*
X110073809Y-122814285D01*
X110311904Y-122814285D01*
X110407142Y-122861904D01*
X110454761Y-122909523D01*
X110502380Y-123004761D01*
X110502380Y-123242857D01*
X110454761Y-123338095D01*
X110407142Y-123385714D01*
X103257142Y-119666666D02*
X103304761Y-119714285D01*
X103352380Y-119857142D01*
X103352380Y-119952380D01*
X103304761Y-120095238D01*
X103209523Y-120190476D01*
X103114285Y-120238095D01*
X102923809Y-120285714D01*
X102780952Y-120285714D01*
X102590476Y-120238095D01*
X102495238Y-120190476D01*
X102400000Y-120095238D01*
X102352380Y-119952380D01*
X102352380Y-119857142D01*
X102400000Y-119714285D01*
X102447619Y-119666666D01*
X102352380Y-118809523D02*
X102352380Y-119000000D01*
X102400000Y-119095238D01*
X102447619Y-119142857D01*
X102590476Y-119238095D01*
X102780952Y-119285714D01*
X103161904Y-119285714D01*
X103257142Y-119238095D01*
X103304761Y-119190476D01*
X103352380Y-119095238D01*
X103352380Y-118904761D01*
X103304761Y-118809523D01*
X103257142Y-118761904D01*
X103161904Y-118714285D01*
X102923809Y-118714285D01*
X102828571Y-118761904D01*
X102780952Y-118809523D01*
X102733333Y-118904761D01*
X102733333Y-119095238D01*
X102780952Y-119190476D01*
X102828571Y-119238095D01*
X102923809Y-119285714D01*
X119936904Y-76602380D02*
X119936904Y-75602380D01*
X120175000Y-75602380D01*
X120317857Y-75650000D01*
X120413095Y-75745238D01*
X120460714Y-75840476D01*
X120508333Y-76030952D01*
X120508333Y-76173809D01*
X120460714Y-76364285D01*
X120413095Y-76459523D01*
X120317857Y-76554761D01*
X120175000Y-76602380D01*
X119936904Y-76602380D01*
X121460714Y-76602380D02*
X120889285Y-76602380D01*
X121175000Y-76602380D02*
X121175000Y-75602380D01*
X121079761Y-75745238D01*
X120984523Y-75840476D01*
X120889285Y-75888095D01*
X127061904Y-89552380D02*
X127061904Y-88552380D01*
X127300000Y-88552380D01*
X127442857Y-88600000D01*
X127538095Y-88695238D01*
X127585714Y-88790476D01*
X127633333Y-88980952D01*
X127633333Y-89123809D01*
X127585714Y-89314285D01*
X127538095Y-89409523D01*
X127442857Y-89504761D01*
X127300000Y-89552380D01*
X127061904Y-89552380D01*
X127966666Y-88552380D02*
X128585714Y-88552380D01*
X128252380Y-88933333D01*
X128395238Y-88933333D01*
X128490476Y-88980952D01*
X128538095Y-89028571D01*
X128585714Y-89123809D01*
X128585714Y-89361904D01*
X128538095Y-89457142D01*
X128490476Y-89504761D01*
X128395238Y-89552380D01*
X128109523Y-89552380D01*
X128014285Y-89504761D01*
X127966666Y-89457142D01*
X164666666Y-122477380D02*
X164666666Y-123191666D01*
X164619047Y-123334523D01*
X164523809Y-123429761D01*
X164380952Y-123477380D01*
X164285714Y-123477380D01*
X165619047Y-122477380D02*
X165142857Y-122477380D01*
X165095238Y-122953571D01*
X165142857Y-122905952D01*
X165238095Y-122858333D01*
X165476190Y-122858333D01*
X165571428Y-122905952D01*
X165619047Y-122953571D01*
X165666666Y-123048809D01*
X165666666Y-123286904D01*
X165619047Y-123382142D01*
X165571428Y-123429761D01*
X165476190Y-123477380D01*
X165238095Y-123477380D01*
X165142857Y-123429761D01*
X165095238Y-123382142D01*
X122308333Y-76602380D02*
X121975000Y-76126190D01*
X121736904Y-76602380D02*
X121736904Y-75602380D01*
X122117857Y-75602380D01*
X122213095Y-75650000D01*
X122260714Y-75697619D01*
X122308333Y-75792857D01*
X122308333Y-75935714D01*
X122260714Y-76030952D01*
X122213095Y-76078571D01*
X122117857Y-76126190D01*
X121736904Y-76126190D01*
X122689285Y-75697619D02*
X122736904Y-75650000D01*
X122832142Y-75602380D01*
X123070238Y-75602380D01*
X123165476Y-75650000D01*
X123213095Y-75697619D01*
X123260714Y-75792857D01*
X123260714Y-75888095D01*
X123213095Y-76030952D01*
X122641666Y-76602380D01*
X123260714Y-76602380D01*
X129733333Y-89502380D02*
X129400000Y-89026190D01*
X129161904Y-89502380D02*
X129161904Y-88502380D01*
X129542857Y-88502380D01*
X129638095Y-88550000D01*
X129685714Y-88597619D01*
X129733333Y-88692857D01*
X129733333Y-88835714D01*
X129685714Y-88930952D01*
X129638095Y-88978571D01*
X129542857Y-89026190D01*
X129161904Y-89026190D01*
X130066666Y-88502380D02*
X130685714Y-88502380D01*
X130352380Y-88883333D01*
X130495238Y-88883333D01*
X130590476Y-88930952D01*
X130638095Y-88978571D01*
X130685714Y-89073809D01*
X130685714Y-89311904D01*
X130638095Y-89407142D01*
X130590476Y-89454761D01*
X130495238Y-89502380D01*
X130209523Y-89502380D01*
X130114285Y-89454761D01*
X130066666Y-89407142D01*
X130297619Y-98583333D02*
X130773809Y-98250000D01*
X130297619Y-98011904D02*
X131297619Y-98011904D01*
X131297619Y-98392857D01*
X131250000Y-98488095D01*
X131202380Y-98535714D01*
X131107142Y-98583333D01*
X130964285Y-98583333D01*
X130869047Y-98535714D01*
X130821428Y-98488095D01*
X130773809Y-98392857D01*
X130773809Y-98011904D01*
X130964285Y-99440476D02*
X130297619Y-99440476D01*
X131345238Y-99202380D02*
X130630952Y-98964285D01*
X130630952Y-99583333D01*
X180452380Y-132879166D02*
X179976190Y-133212500D01*
X180452380Y-133450595D02*
X179452380Y-133450595D01*
X179452380Y-133069642D01*
X179500000Y-132974404D01*
X179547619Y-132926785D01*
X179642857Y-132879166D01*
X179785714Y-132879166D01*
X179880952Y-132926785D01*
X179928571Y-132974404D01*
X179976190Y-133069642D01*
X179976190Y-133450595D01*
X179452380Y-132022023D02*
X179452380Y-132212500D01*
X179500000Y-132307738D01*
X179547619Y-132355357D01*
X179690476Y-132450595D01*
X179880952Y-132498214D01*
X180261904Y-132498214D01*
X180357142Y-132450595D01*
X180404761Y-132402976D01*
X180452380Y-132307738D01*
X180452380Y-132117261D01*
X180404761Y-132022023D01*
X180357142Y-131974404D01*
X180261904Y-131926785D01*
X180023809Y-131926785D01*
X179928571Y-131974404D01*
X179880952Y-132022023D01*
X179833333Y-132117261D01*
X179833333Y-132307738D01*
X179880952Y-132402976D01*
X179928571Y-132450595D01*
X180023809Y-132498214D01*
X182952380Y-132916666D02*
X182476190Y-133250000D01*
X182952380Y-133488095D02*
X181952380Y-133488095D01*
X181952380Y-133107142D01*
X182000000Y-133011904D01*
X182047619Y-132964285D01*
X182142857Y-132916666D01*
X182285714Y-132916666D01*
X182380952Y-132964285D01*
X182428571Y-133011904D01*
X182476190Y-133107142D01*
X182476190Y-133488095D01*
X181952380Y-132583333D02*
X181952380Y-131916666D01*
X182952380Y-132345238D01*
X130522380Y-126142857D02*
X130046190Y-126476190D01*
X130522380Y-126714285D02*
X129522380Y-126714285D01*
X129522380Y-126333333D01*
X129570000Y-126238095D01*
X129617619Y-126190476D01*
X129712857Y-126142857D01*
X129855714Y-126142857D01*
X129950952Y-126190476D01*
X129998571Y-126238095D01*
X130046190Y-126333333D01*
X130046190Y-126714285D01*
X130522380Y-125190476D02*
X130522380Y-125761904D01*
X130522380Y-125476190D02*
X129522380Y-125476190D01*
X129665238Y-125571428D01*
X129760476Y-125666666D01*
X129808095Y-125761904D01*
X129522380Y-124571428D02*
X129522380Y-124476190D01*
X129570000Y-124380952D01*
X129617619Y-124333333D01*
X129712857Y-124285714D01*
X129903333Y-124238095D01*
X130141428Y-124238095D01*
X130331904Y-124285714D01*
X130427142Y-124333333D01*
X130474761Y-124380952D01*
X130522380Y-124476190D01*
X130522380Y-124571428D01*
X130474761Y-124666666D01*
X130427142Y-124714285D01*
X130331904Y-124761904D01*
X130141428Y-124809523D01*
X129903333Y-124809523D01*
X129712857Y-124761904D01*
X129617619Y-124714285D01*
X129570000Y-124666666D01*
X129522380Y-124571428D01*
X130522380Y-123142857D02*
X130046190Y-123476190D01*
X130522380Y-123714285D02*
X129522380Y-123714285D01*
X129522380Y-123333333D01*
X129570000Y-123238095D01*
X129617619Y-123190476D01*
X129712857Y-123142857D01*
X129855714Y-123142857D01*
X129950952Y-123190476D01*
X129998571Y-123238095D01*
X130046190Y-123333333D01*
X130046190Y-123714285D01*
X130522380Y-122190476D02*
X130522380Y-122761904D01*
X130522380Y-122476190D02*
X129522380Y-122476190D01*
X129665238Y-122571428D01*
X129760476Y-122666666D01*
X129808095Y-122761904D01*
X130522380Y-121238095D02*
X130522380Y-121809523D01*
X130522380Y-121523809D02*
X129522380Y-121523809D01*
X129665238Y-121619047D01*
X129760476Y-121714285D01*
X129808095Y-121809523D01*
X133522380Y-126142857D02*
X133046190Y-126476190D01*
X133522380Y-126714285D02*
X132522380Y-126714285D01*
X132522380Y-126333333D01*
X132570000Y-126238095D01*
X132617619Y-126190476D01*
X132712857Y-126142857D01*
X132855714Y-126142857D01*
X132950952Y-126190476D01*
X132998571Y-126238095D01*
X133046190Y-126333333D01*
X133046190Y-126714285D01*
X133522380Y-125190476D02*
X133522380Y-125761904D01*
X133522380Y-125476190D02*
X132522380Y-125476190D01*
X132665238Y-125571428D01*
X132760476Y-125666666D01*
X132808095Y-125761904D01*
X132617619Y-124809523D02*
X132570000Y-124761904D01*
X132522380Y-124666666D01*
X132522380Y-124428571D01*
X132570000Y-124333333D01*
X132617619Y-124285714D01*
X132712857Y-124238095D01*
X132808095Y-124238095D01*
X132950952Y-124285714D01*
X133522380Y-124857142D01*
X133522380Y-124238095D01*
X133522380Y-123142857D02*
X133046190Y-123476190D01*
X133522380Y-123714285D02*
X132522380Y-123714285D01*
X132522380Y-123333333D01*
X132570000Y-123238095D01*
X132617619Y-123190476D01*
X132712857Y-123142857D01*
X132855714Y-123142857D01*
X132950952Y-123190476D01*
X132998571Y-123238095D01*
X133046190Y-123333333D01*
X133046190Y-123714285D01*
X133522380Y-122190476D02*
X133522380Y-122761904D01*
X133522380Y-122476190D02*
X132522380Y-122476190D01*
X132665238Y-122571428D01*
X132760476Y-122666666D01*
X132808095Y-122761904D01*
X132522380Y-121857142D02*
X132522380Y-121238095D01*
X132903333Y-121571428D01*
X132903333Y-121428571D01*
X132950952Y-121333333D01*
X132998571Y-121285714D01*
X133093809Y-121238095D01*
X133331904Y-121238095D01*
X133427142Y-121285714D01*
X133474761Y-121333333D01*
X133522380Y-121428571D01*
X133522380Y-121714285D01*
X133474761Y-121809523D01*
X133427142Y-121857142D01*
X155833333Y-116357142D02*
X155785714Y-116404761D01*
X155642857Y-116452380D01*
X155547619Y-116452380D01*
X155404761Y-116404761D01*
X155309523Y-116309523D01*
X155261904Y-116214285D01*
X155214285Y-116023809D01*
X155214285Y-115880952D01*
X155261904Y-115690476D01*
X155309523Y-115595238D01*
X155404761Y-115500000D01*
X155547619Y-115452380D01*
X155642857Y-115452380D01*
X155785714Y-115500000D01*
X155833333Y-115547619D01*
X156214285Y-115547619D02*
X156261904Y-115500000D01*
X156357142Y-115452380D01*
X156595238Y-115452380D01*
X156690476Y-115500000D01*
X156738095Y-115547619D01*
X156785714Y-115642857D01*
X156785714Y-115738095D01*
X156738095Y-115880952D01*
X156166666Y-116452380D01*
X156785714Y-116452380D01*
X155833333Y-102657142D02*
X155785714Y-102704761D01*
X155642857Y-102752380D01*
X155547619Y-102752380D01*
X155404761Y-102704761D01*
X155309523Y-102609523D01*
X155261904Y-102514285D01*
X155214285Y-102323809D01*
X155214285Y-102180952D01*
X155261904Y-101990476D01*
X155309523Y-101895238D01*
X155404761Y-101800000D01*
X155547619Y-101752380D01*
X155642857Y-101752380D01*
X155785714Y-101800000D01*
X155833333Y-101847619D01*
X156166666Y-101752380D02*
X156785714Y-101752380D01*
X156452380Y-102133333D01*
X156595238Y-102133333D01*
X156690476Y-102180952D01*
X156738095Y-102228571D01*
X156785714Y-102323809D01*
X156785714Y-102561904D01*
X156738095Y-102657142D01*
X156690476Y-102704761D01*
X156595238Y-102752380D01*
X156309523Y-102752380D01*
X156214285Y-102704761D01*
X156166666Y-102657142D01*
X108657142Y-121266666D02*
X108704761Y-121314285D01*
X108752380Y-121457142D01*
X108752380Y-121552380D01*
X108704761Y-121695238D01*
X108609523Y-121790476D01*
X108514285Y-121838095D01*
X108323809Y-121885714D01*
X108180952Y-121885714D01*
X107990476Y-121838095D01*
X107895238Y-121790476D01*
X107800000Y-121695238D01*
X107752380Y-121552380D01*
X107752380Y-121457142D01*
X107800000Y-121314285D01*
X107847619Y-121266666D01*
X108085714Y-120409523D02*
X108752380Y-120409523D01*
X107704761Y-120647619D02*
X108419047Y-120885714D01*
X108419047Y-120266666D01*
X103333333Y-130857142D02*
X103285714Y-130904761D01*
X103142857Y-130952380D01*
X103047619Y-130952380D01*
X102904761Y-130904761D01*
X102809523Y-130809523D01*
X102761904Y-130714285D01*
X102714285Y-130523809D01*
X102714285Y-130380952D01*
X102761904Y-130190476D01*
X102809523Y-130095238D01*
X102904761Y-130000000D01*
X103047619Y-129952380D01*
X103142857Y-129952380D01*
X103285714Y-130000000D01*
X103333333Y-130047619D01*
X103666666Y-129952380D02*
X104333333Y-129952380D01*
X103904761Y-130952380D01*
X186857142Y-128166666D02*
X186904761Y-128214285D01*
X186952380Y-128357142D01*
X186952380Y-128452380D01*
X186904761Y-128595238D01*
X186809523Y-128690476D01*
X186714285Y-128738095D01*
X186523809Y-128785714D01*
X186380952Y-128785714D01*
X186190476Y-128738095D01*
X186095238Y-128690476D01*
X186000000Y-128595238D01*
X185952380Y-128452380D01*
X185952380Y-128357142D01*
X186000000Y-128214285D01*
X186047619Y-128166666D01*
X186380952Y-127595238D02*
X186333333Y-127690476D01*
X186285714Y-127738095D01*
X186190476Y-127785714D01*
X186142857Y-127785714D01*
X186047619Y-127738095D01*
X186000000Y-127690476D01*
X185952380Y-127595238D01*
X185952380Y-127404761D01*
X186000000Y-127309523D01*
X186047619Y-127261904D01*
X186142857Y-127214285D01*
X186190476Y-127214285D01*
X186285714Y-127261904D01*
X186333333Y-127309523D01*
X186380952Y-127404761D01*
X186380952Y-127595238D01*
X186428571Y-127690476D01*
X186476190Y-127738095D01*
X186571428Y-127785714D01*
X186761904Y-127785714D01*
X186857142Y-127738095D01*
X186904761Y-127690476D01*
X186952380Y-127595238D01*
X186952380Y-127404761D01*
X186904761Y-127309523D01*
X186857142Y-127261904D01*
X186761904Y-127214285D01*
X186571428Y-127214285D01*
X186476190Y-127261904D01*
X186428571Y-127309523D01*
X186380952Y-127404761D01*
X169607142Y-76416666D02*
X169654761Y-76464285D01*
X169702380Y-76607142D01*
X169702380Y-76702380D01*
X169654761Y-76845238D01*
X169559523Y-76940476D01*
X169464285Y-76988095D01*
X169273809Y-77035714D01*
X169130952Y-77035714D01*
X168940476Y-76988095D01*
X168845238Y-76940476D01*
X168750000Y-76845238D01*
X168702380Y-76702380D01*
X168702380Y-76607142D01*
X168750000Y-76464285D01*
X168797619Y-76416666D01*
X169702380Y-75940476D02*
X169702380Y-75750000D01*
X169654761Y-75654761D01*
X169607142Y-75607142D01*
X169464285Y-75511904D01*
X169273809Y-75464285D01*
X168892857Y-75464285D01*
X168797619Y-75511904D01*
X168750000Y-75559523D01*
X168702380Y-75654761D01*
X168702380Y-75845238D01*
X168750000Y-75940476D01*
X168797619Y-75988095D01*
X168892857Y-76035714D01*
X169130952Y-76035714D01*
X169226190Y-75988095D01*
X169273809Y-75940476D01*
X169321428Y-75845238D01*
X169321428Y-75654761D01*
X169273809Y-75559523D01*
X169226190Y-75511904D01*
X169130952Y-75464285D01*
X171607142Y-80642857D02*
X171654761Y-80690476D01*
X171702380Y-80833333D01*
X171702380Y-80928571D01*
X171654761Y-81071428D01*
X171559523Y-81166666D01*
X171464285Y-81214285D01*
X171273809Y-81261904D01*
X171130952Y-81261904D01*
X170940476Y-81214285D01*
X170845238Y-81166666D01*
X170750000Y-81071428D01*
X170702380Y-80928571D01*
X170702380Y-80833333D01*
X170750000Y-80690476D01*
X170797619Y-80642857D01*
X171702380Y-79690476D02*
X171702380Y-80261904D01*
X171702380Y-79976190D02*
X170702380Y-79976190D01*
X170845238Y-80071428D01*
X170940476Y-80166666D01*
X170988095Y-80261904D01*
X170702380Y-79071428D02*
X170702380Y-78976190D01*
X170750000Y-78880952D01*
X170797619Y-78833333D01*
X170892857Y-78785714D01*
X171083333Y-78738095D01*
X171321428Y-78738095D01*
X171511904Y-78785714D01*
X171607142Y-78833333D01*
X171654761Y-78880952D01*
X171702380Y-78976190D01*
X171702380Y-79071428D01*
X171654761Y-79166666D01*
X171607142Y-79214285D01*
X171511904Y-79261904D01*
X171321428Y-79309523D01*
X171083333Y-79309523D01*
X170892857Y-79261904D01*
X170797619Y-79214285D01*
X170750000Y-79166666D01*
X170702380Y-79071428D01*
X178702380Y-92738095D02*
X177702380Y-92738095D01*
X177702380Y-92500000D01*
X177750000Y-92357142D01*
X177845238Y-92261904D01*
X177940476Y-92214285D01*
X178130952Y-92166666D01*
X178273809Y-92166666D01*
X178464285Y-92214285D01*
X178559523Y-92261904D01*
X178654761Y-92357142D01*
X178702380Y-92500000D01*
X178702380Y-92738095D01*
X177797619Y-91785714D02*
X177750000Y-91738095D01*
X177702380Y-91642857D01*
X177702380Y-91404761D01*
X177750000Y-91309523D01*
X177797619Y-91261904D01*
X177892857Y-91214285D01*
X177988095Y-91214285D01*
X178130952Y-91261904D01*
X178702380Y-91833333D01*
X178702380Y-91214285D01*
X160211904Y-89502380D02*
X160211904Y-88502380D01*
X160450000Y-88502380D01*
X160592857Y-88550000D01*
X160688095Y-88645238D01*
X160735714Y-88740476D01*
X160783333Y-88930952D01*
X160783333Y-89073809D01*
X160735714Y-89264285D01*
X160688095Y-89359523D01*
X160592857Y-89454761D01*
X160450000Y-89502380D01*
X160211904Y-89502380D01*
X161640476Y-88835714D02*
X161640476Y-89502380D01*
X161402380Y-88454761D02*
X161164285Y-89169047D01*
X161783333Y-89169047D01*
X114666666Y-122427380D02*
X114666666Y-123141666D01*
X114619047Y-123284523D01*
X114523809Y-123379761D01*
X114380952Y-123427380D01*
X114285714Y-123427380D01*
X115666666Y-123427380D02*
X115095238Y-123427380D01*
X115380952Y-123427380D02*
X115380952Y-122427380D01*
X115285714Y-122570238D01*
X115190476Y-122665476D01*
X115095238Y-122713095D01*
X172666666Y-86452380D02*
X172666666Y-87166666D01*
X172619047Y-87309523D01*
X172523809Y-87404761D01*
X172380952Y-87452380D01*
X172285714Y-87452380D01*
X173095238Y-86547619D02*
X173142857Y-86500000D01*
X173238095Y-86452380D01*
X173476190Y-86452380D01*
X173571428Y-86500000D01*
X173619047Y-86547619D01*
X173666666Y-86642857D01*
X173666666Y-86738095D01*
X173619047Y-86880952D01*
X173047619Y-87452380D01*
X173666666Y-87452380D01*
X182916666Y-83202380D02*
X182916666Y-83916666D01*
X182869047Y-84059523D01*
X182773809Y-84154761D01*
X182630952Y-84202380D01*
X182535714Y-84202380D01*
X183297619Y-83202380D02*
X183916666Y-83202380D01*
X183583333Y-83583333D01*
X183726190Y-83583333D01*
X183821428Y-83630952D01*
X183869047Y-83678571D01*
X183916666Y-83773809D01*
X183916666Y-84011904D01*
X183869047Y-84107142D01*
X183821428Y-84154761D01*
X183726190Y-84202380D01*
X183440476Y-84202380D01*
X183345238Y-84154761D01*
X183297619Y-84107142D01*
X109261904Y-98952380D02*
X109261904Y-97952380D01*
X109833333Y-98952380D02*
X109404761Y-98380952D01*
X109833333Y-97952380D02*
X109261904Y-98523809D01*
X110785714Y-98952380D02*
X110214285Y-98952380D01*
X110500000Y-98952380D02*
X110500000Y-97952380D01*
X110404761Y-98095238D01*
X110309523Y-98190476D01*
X110214285Y-98238095D01*
X119371428Y-113180952D02*
X119371428Y-112419047D01*
X119371428Y-101580952D02*
X119371428Y-100819047D01*
X119752380Y-101200000D02*
X118990476Y-101200000D01*
X166261904Y-98952380D02*
X166261904Y-97952380D01*
X166833333Y-98952380D02*
X166404761Y-98380952D01*
X166833333Y-97952380D02*
X166261904Y-98523809D01*
X167214285Y-98047619D02*
X167261904Y-98000000D01*
X167357142Y-97952380D01*
X167595238Y-97952380D01*
X167690476Y-98000000D01*
X167738095Y-98047619D01*
X167785714Y-98142857D01*
X167785714Y-98238095D01*
X167738095Y-98380952D01*
X167166666Y-98952380D01*
X167785714Y-98952380D01*
X176371428Y-101580952D02*
X176371428Y-100819047D01*
X176752380Y-101200000D02*
X175990476Y-101200000D01*
X176371428Y-113180952D02*
X176371428Y-112419047D01*
X129952380Y-86716666D02*
X129476190Y-87050000D01*
X129952380Y-87288095D02*
X128952380Y-87288095D01*
X128952380Y-86907142D01*
X129000000Y-86811904D01*
X129047619Y-86764285D01*
X129142857Y-86716666D01*
X129285714Y-86716666D01*
X129380952Y-86764285D01*
X129428571Y-86811904D01*
X129476190Y-86907142D01*
X129476190Y-87288095D01*
X129952380Y-85764285D02*
X129952380Y-86335714D01*
X129952380Y-86050000D02*
X128952380Y-86050000D01*
X129095238Y-86145238D01*
X129190476Y-86240476D01*
X129238095Y-86335714D01*
X162833333Y-89452380D02*
X162500000Y-88976190D01*
X162261904Y-89452380D02*
X162261904Y-88452380D01*
X162642857Y-88452380D01*
X162738095Y-88500000D01*
X162785714Y-88547619D01*
X162833333Y-88642857D01*
X162833333Y-88785714D01*
X162785714Y-88880952D01*
X162738095Y-88928571D01*
X162642857Y-88976190D01*
X162261904Y-88976190D01*
X163738095Y-88452380D02*
X163261904Y-88452380D01*
X163214285Y-88928571D01*
X163261904Y-88880952D01*
X163357142Y-88833333D01*
X163595238Y-88833333D01*
X163690476Y-88880952D01*
X163738095Y-88928571D01*
X163785714Y-89023809D01*
X163785714Y-89261904D01*
X163738095Y-89357142D01*
X163690476Y-89404761D01*
X163595238Y-89452380D01*
X163357142Y-89452380D01*
X163261904Y-89404761D01*
X163214285Y-89357142D01*
X144238095Y-95602380D02*
X144238095Y-96411904D01*
X144285714Y-96507142D01*
X144333333Y-96554761D01*
X144428571Y-96602380D01*
X144619047Y-96602380D01*
X144714285Y-96554761D01*
X144761904Y-96507142D01*
X144809523Y-96411904D01*
X144809523Y-95602380D01*
X145809523Y-96602380D02*
X145238095Y-96602380D01*
X145523809Y-96602380D02*
X145523809Y-95602380D01*
X145428571Y-95745238D01*
X145333333Y-95840476D01*
X145238095Y-95888095D01*
X108938095Y-127902380D02*
X108938095Y-128711904D01*
X108985714Y-128807142D01*
X109033333Y-128854761D01*
X109128571Y-128902380D01*
X109319047Y-128902380D01*
X109414285Y-128854761D01*
X109461904Y-128807142D01*
X109509523Y-128711904D01*
X109509523Y-127902380D01*
X109890476Y-127902380D02*
X110509523Y-127902380D01*
X110176190Y-128283333D01*
X110319047Y-128283333D01*
X110414285Y-128330952D01*
X110461904Y-128378571D01*
X110509523Y-128473809D01*
X110509523Y-128711904D01*
X110461904Y-128807142D01*
X110414285Y-128854761D01*
X110319047Y-128902380D01*
X110033333Y-128902380D01*
X109938095Y-128854761D01*
X109890476Y-128807142D01*
X180238095Y-121052380D02*
X180238095Y-121861904D01*
X180285714Y-121957142D01*
X180333333Y-122004761D01*
X180428571Y-122052380D01*
X180619047Y-122052380D01*
X180714285Y-122004761D01*
X180761904Y-121957142D01*
X180809523Y-121861904D01*
X180809523Y-121052380D01*
X181714285Y-121385714D02*
X181714285Y-122052380D01*
X181476190Y-121004761D02*
X181238095Y-121719047D01*
X181857142Y-121719047D01*
X165738095Y-79052380D02*
X165738095Y-79861904D01*
X165785714Y-79957142D01*
X165833333Y-80004761D01*
X165928571Y-80052380D01*
X166119047Y-80052380D01*
X166214285Y-80004761D01*
X166261904Y-79957142D01*
X166309523Y-79861904D01*
X166309523Y-79052380D01*
X167261904Y-79052380D02*
X166785714Y-79052380D01*
X166738095Y-79528571D01*
X166785714Y-79480952D01*
X166880952Y-79433333D01*
X167119047Y-79433333D01*
X167214285Y-79480952D01*
X167261904Y-79528571D01*
X167309523Y-79623809D01*
X167309523Y-79861904D01*
X167261904Y-79957142D01*
X167214285Y-80004761D01*
X167119047Y-80052380D01*
X166880952Y-80052380D01*
X166785714Y-80004761D01*
X166738095Y-79957142D01*
X111661904Y-92002380D02*
X111661904Y-91002380D01*
X111900000Y-91002380D01*
X112042857Y-91050000D01*
X112138095Y-91145238D01*
X112185714Y-91240476D01*
X112233333Y-91430952D01*
X112233333Y-91573809D01*
X112185714Y-91764285D01*
X112138095Y-91859523D01*
X112042857Y-91954761D01*
X111900000Y-92002380D01*
X111661904Y-92002380D01*
X113138095Y-91002380D02*
X112661904Y-91002380D01*
X112614285Y-91478571D01*
X112661904Y-91430952D01*
X112757142Y-91383333D01*
X112995238Y-91383333D01*
X113090476Y-91430952D01*
X113138095Y-91478571D01*
X113185714Y-91573809D01*
X113185714Y-91811904D01*
X113138095Y-91907142D01*
X113090476Y-91954761D01*
X112995238Y-92002380D01*
X112757142Y-92002380D01*
X112661904Y-91954761D01*
X112614285Y-91907142D01*
X169761904Y-89752380D02*
X169761904Y-88752380D01*
X170000000Y-88752380D01*
X170142857Y-88800000D01*
X170238095Y-88895238D01*
X170285714Y-88990476D01*
X170333333Y-89180952D01*
X170333333Y-89323809D01*
X170285714Y-89514285D01*
X170238095Y-89609523D01*
X170142857Y-89704761D01*
X170000000Y-89752380D01*
X169761904Y-89752380D01*
X171190476Y-88752380D02*
X171000000Y-88752380D01*
X170904761Y-88800000D01*
X170857142Y-88847619D01*
X170761904Y-88990476D01*
X170714285Y-89180952D01*
X170714285Y-89561904D01*
X170761904Y-89657142D01*
X170809523Y-89704761D01*
X170904761Y-89752380D01*
X171095238Y-89752380D01*
X171190476Y-89704761D01*
X171238095Y-89657142D01*
X171285714Y-89561904D01*
X171285714Y-89323809D01*
X171238095Y-89228571D01*
X171190476Y-89180952D01*
X171095238Y-89133333D01*
X170904761Y-89133333D01*
X170809523Y-89180952D01*
X170761904Y-89228571D01*
X170714285Y-89323809D01*
X133716666Y-106354761D02*
X133859523Y-106402380D01*
X134097619Y-106402380D01*
X134192857Y-106354761D01*
X134240476Y-106307142D01*
X134288095Y-106211904D01*
X134288095Y-106116666D01*
X134240476Y-106021428D01*
X134192857Y-105973809D01*
X134097619Y-105926190D01*
X133907142Y-105878571D01*
X133811904Y-105830952D01*
X133764285Y-105783333D01*
X133716666Y-105688095D01*
X133716666Y-105592857D01*
X133764285Y-105497619D01*
X133811904Y-105450000D01*
X133907142Y-105402380D01*
X134145238Y-105402380D01*
X134288095Y-105450000D01*
X134621428Y-105402380D02*
X134859523Y-106402380D01*
X135050000Y-105688095D01*
X135240476Y-106402380D01*
X135478571Y-105402380D01*
X136383333Y-106402380D02*
X135811904Y-106402380D01*
X136097619Y-106402380D02*
X136097619Y-105402380D01*
X136002380Y-105545238D01*
X135907142Y-105640476D01*
X135811904Y-105688095D01*
X133716666Y-111354761D02*
X133859523Y-111402380D01*
X134097619Y-111402380D01*
X134192857Y-111354761D01*
X134240476Y-111307142D01*
X134288095Y-111211904D01*
X134288095Y-111116666D01*
X134240476Y-111021428D01*
X134192857Y-110973809D01*
X134097619Y-110926190D01*
X133907142Y-110878571D01*
X133811904Y-110830952D01*
X133764285Y-110783333D01*
X133716666Y-110688095D01*
X133716666Y-110592857D01*
X133764285Y-110497619D01*
X133811904Y-110450000D01*
X133907142Y-110402380D01*
X134145238Y-110402380D01*
X134288095Y-110450000D01*
X134621428Y-110402380D02*
X134859523Y-111402380D01*
X135050000Y-110688095D01*
X135240476Y-111402380D01*
X135478571Y-110402380D01*
X135811904Y-110497619D02*
X135859523Y-110450000D01*
X135954761Y-110402380D01*
X136192857Y-110402380D01*
X136288095Y-110450000D01*
X136335714Y-110497619D01*
X136383333Y-110592857D01*
X136383333Y-110688095D01*
X136335714Y-110830952D01*
X135764285Y-111402380D01*
X136383333Y-111402380D01*
X133716666Y-116404761D02*
X133859523Y-116452380D01*
X134097619Y-116452380D01*
X134192857Y-116404761D01*
X134240476Y-116357142D01*
X134288095Y-116261904D01*
X134288095Y-116166666D01*
X134240476Y-116071428D01*
X134192857Y-116023809D01*
X134097619Y-115976190D01*
X133907142Y-115928571D01*
X133811904Y-115880952D01*
X133764285Y-115833333D01*
X133716666Y-115738095D01*
X133716666Y-115642857D01*
X133764285Y-115547619D01*
X133811904Y-115500000D01*
X133907142Y-115452380D01*
X134145238Y-115452380D01*
X134288095Y-115500000D01*
X134621428Y-115452380D02*
X134859523Y-116452380D01*
X135050000Y-115738095D01*
X135240476Y-116452380D01*
X135478571Y-115452380D01*
X135764285Y-115452380D02*
X136383333Y-115452380D01*
X136050000Y-115833333D01*
X136192857Y-115833333D01*
X136288095Y-115880952D01*
X136335714Y-115928571D01*
X136383333Y-116023809D01*
X136383333Y-116261904D01*
X136335714Y-116357142D01*
X136288095Y-116404761D01*
X136192857Y-116452380D01*
X135907142Y-116452380D01*
X135811904Y-116404761D01*
X135764285Y-116357142D01*
X121357142Y-82157142D02*
X121309523Y-82204761D01*
X121166666Y-82252380D01*
X121071428Y-82252380D01*
X120928571Y-82204761D01*
X120833333Y-82109523D01*
X120785714Y-82014285D01*
X120738095Y-81823809D01*
X120738095Y-81680952D01*
X120785714Y-81490476D01*
X120833333Y-81395238D01*
X120928571Y-81300000D01*
X121071428Y-81252380D01*
X121166666Y-81252380D01*
X121309523Y-81300000D01*
X121357142Y-81347619D01*
X122309523Y-82252380D02*
X121738095Y-82252380D01*
X122023809Y-82252380D02*
X122023809Y-81252380D01*
X121928571Y-81395238D01*
X121833333Y-81490476D01*
X121738095Y-81538095D01*
X123261904Y-82252380D02*
X122690476Y-82252380D01*
X122976190Y-82252380D02*
X122976190Y-81252380D01*
X122880952Y-81395238D01*
X122785714Y-81490476D01*
X122690476Y-81538095D01*
X132157142Y-87842857D02*
X132204761Y-87890476D01*
X132252380Y-88033333D01*
X132252380Y-88128571D01*
X132204761Y-88271428D01*
X132109523Y-88366666D01*
X132014285Y-88414285D01*
X131823809Y-88461904D01*
X131680952Y-88461904D01*
X131490476Y-88414285D01*
X131395238Y-88366666D01*
X131300000Y-88271428D01*
X131252380Y-88128571D01*
X131252380Y-88033333D01*
X131300000Y-87890476D01*
X131347619Y-87842857D01*
X132252380Y-86890476D02*
X132252380Y-87461904D01*
X132252380Y-87176190D02*
X131252380Y-87176190D01*
X131395238Y-87271428D01*
X131490476Y-87366666D01*
X131538095Y-87461904D01*
X131347619Y-86509523D02*
X131300000Y-86461904D01*
X131252380Y-86366666D01*
X131252380Y-86128571D01*
X131300000Y-86033333D01*
X131347619Y-85985714D01*
X131442857Y-85938095D01*
X131538095Y-85938095D01*
X131680952Y-85985714D01*
X132252380Y-86557142D01*
X132252380Y-85938095D01*
X159402380Y-99366666D02*
X158926190Y-99700000D01*
X159402380Y-99938095D02*
X158402380Y-99938095D01*
X158402380Y-99557142D01*
X158450000Y-99461904D01*
X158497619Y-99414285D01*
X158592857Y-99366666D01*
X158735714Y-99366666D01*
X158830952Y-99414285D01*
X158878571Y-99461904D01*
X158926190Y-99557142D01*
X158926190Y-99938095D01*
X158830952Y-98795238D02*
X158783333Y-98890476D01*
X158735714Y-98938095D01*
X158640476Y-98985714D01*
X158592857Y-98985714D01*
X158497619Y-98938095D01*
X158450000Y-98890476D01*
X158402380Y-98795238D01*
X158402380Y-98604761D01*
X158450000Y-98509523D01*
X158497619Y-98461904D01*
X158592857Y-98414285D01*
X158640476Y-98414285D01*
X158735714Y-98461904D01*
X158783333Y-98509523D01*
X158830952Y-98604761D01*
X158830952Y-98795238D01*
X158878571Y-98890476D01*
X158926190Y-98938095D01*
X159021428Y-98985714D01*
X159211904Y-98985714D01*
X159307142Y-98938095D01*
X159354761Y-98890476D01*
X159402380Y-98795238D01*
X159402380Y-98604761D01*
X159354761Y-98509523D01*
X159307142Y-98461904D01*
X159211904Y-98414285D01*
X159021428Y-98414285D01*
X158926190Y-98461904D01*
X158878571Y-98509523D01*
X158830952Y-98604761D01*
X126233333Y-87102380D02*
X125900000Y-86626190D01*
X125661904Y-87102380D02*
X125661904Y-86102380D01*
X126042857Y-86102380D01*
X126138095Y-86150000D01*
X126185714Y-86197619D01*
X126233333Y-86292857D01*
X126233333Y-86435714D01*
X126185714Y-86530952D01*
X126138095Y-86578571D01*
X126042857Y-86626190D01*
X125661904Y-86626190D01*
X126709523Y-87102380D02*
X126900000Y-87102380D01*
X126995238Y-87054761D01*
X127042857Y-87007142D01*
X127138095Y-86864285D01*
X127185714Y-86673809D01*
X127185714Y-86292857D01*
X127138095Y-86197619D01*
X127090476Y-86150000D01*
X126995238Y-86102380D01*
X126804761Y-86102380D01*
X126709523Y-86150000D01*
X126661904Y-86197619D01*
X126614285Y-86292857D01*
X126614285Y-86530952D01*
X126661904Y-86626190D01*
X126709523Y-86673809D01*
X126804761Y-86721428D01*
X126995238Y-86721428D01*
X127090476Y-86673809D01*
X127138095Y-86626190D01*
X127185714Y-86530952D01*
X139952380Y-112761904D02*
X140761904Y-112761904D01*
X140857142Y-112714285D01*
X140904761Y-112666666D01*
X140952380Y-112571428D01*
X140952380Y-112380952D01*
X140904761Y-112285714D01*
X140857142Y-112238095D01*
X140761904Y-112190476D01*
X139952380Y-112190476D01*
X140047619Y-111761904D02*
X140000000Y-111714285D01*
X139952380Y-111619047D01*
X139952380Y-111380952D01*
X140000000Y-111285714D01*
X140047619Y-111238095D01*
X140142857Y-111190476D01*
X140238095Y-111190476D01*
X140380952Y-111238095D01*
X140952380Y-111809523D01*
X140952380Y-111190476D01*
X132454761Y-92447619D02*
X132359523Y-92400000D01*
X132264285Y-92304761D01*
X132121428Y-92161904D01*
X132026190Y-92114285D01*
X131930952Y-92114285D01*
X131978571Y-92352380D02*
X131883333Y-92304761D01*
X131788095Y-92209523D01*
X131740476Y-92019047D01*
X131740476Y-91685714D01*
X131788095Y-91495238D01*
X131883333Y-91400000D01*
X131978571Y-91352380D01*
X132169047Y-91352380D01*
X132264285Y-91400000D01*
X132359523Y-91495238D01*
X132407142Y-91685714D01*
X132407142Y-92019047D01*
X132359523Y-92209523D01*
X132264285Y-92304761D01*
X132169047Y-92352380D01*
X131978571Y-92352380D01*
X133359523Y-92352380D02*
X132788095Y-92352380D01*
X133073809Y-92352380D02*
X133073809Y-91352380D01*
X132978571Y-91495238D01*
X132883333Y-91590476D01*
X132788095Y-91638095D01*
X157854761Y-92497619D02*
X157759523Y-92450000D01*
X157664285Y-92354761D01*
X157521428Y-92211904D01*
X157426190Y-92164285D01*
X157330952Y-92164285D01*
X157378571Y-92402380D02*
X157283333Y-92354761D01*
X157188095Y-92259523D01*
X157140476Y-92069047D01*
X157140476Y-91735714D01*
X157188095Y-91545238D01*
X157283333Y-91450000D01*
X157378571Y-91402380D01*
X157569047Y-91402380D01*
X157664285Y-91450000D01*
X157759523Y-91545238D01*
X157807142Y-91735714D01*
X157807142Y-92069047D01*
X157759523Y-92259523D01*
X157664285Y-92354761D01*
X157569047Y-92402380D01*
X157378571Y-92402380D01*
X158188095Y-91497619D02*
X158235714Y-91450000D01*
X158330952Y-91402380D01*
X158569047Y-91402380D01*
X158664285Y-91450000D01*
X158711904Y-91497619D01*
X158759523Y-91592857D01*
X158759523Y-91688095D01*
X158711904Y-91830952D01*
X158140476Y-92402380D01*
X158759523Y-92402380D01*
X123204761Y-97597619D02*
X123109523Y-97550000D01*
X123014285Y-97454761D01*
X122871428Y-97311904D01*
X122776190Y-97264285D01*
X122680952Y-97264285D01*
X122728571Y-97502380D02*
X122633333Y-97454761D01*
X122538095Y-97359523D01*
X122490476Y-97169047D01*
X122490476Y-96835714D01*
X122538095Y-96645238D01*
X122633333Y-96550000D01*
X122728571Y-96502380D01*
X122919047Y-96502380D01*
X123014285Y-96550000D01*
X123109523Y-96645238D01*
X123157142Y-96835714D01*
X123157142Y-97169047D01*
X123109523Y-97359523D01*
X123014285Y-97454761D01*
X122919047Y-97502380D01*
X122728571Y-97502380D01*
X123490476Y-96502380D02*
X124109523Y-96502380D01*
X123776190Y-96883333D01*
X123919047Y-96883333D01*
X124014285Y-96930952D01*
X124061904Y-96978571D01*
X124109523Y-97073809D01*
X124109523Y-97311904D01*
X124061904Y-97407142D01*
X124014285Y-97454761D01*
X123919047Y-97502380D01*
X123633333Y-97502380D01*
X123538095Y-97454761D01*
X123490476Y-97407142D01*
X120754761Y-104247619D02*
X120659523Y-104200000D01*
X120564285Y-104104761D01*
X120421428Y-103961904D01*
X120326190Y-103914285D01*
X120230952Y-103914285D01*
X120278571Y-104152380D02*
X120183333Y-104104761D01*
X120088095Y-104009523D01*
X120040476Y-103819047D01*
X120040476Y-103485714D01*
X120088095Y-103295238D01*
X120183333Y-103200000D01*
X120278571Y-103152380D01*
X120469047Y-103152380D01*
X120564285Y-103200000D01*
X120659523Y-103295238D01*
X120707142Y-103485714D01*
X120707142Y-103819047D01*
X120659523Y-104009523D01*
X120564285Y-104104761D01*
X120469047Y-104152380D01*
X120278571Y-104152380D01*
X121564285Y-103485714D02*
X121564285Y-104152380D01*
X121326190Y-103104761D02*
X121088095Y-103819047D01*
X121707142Y-103819047D01*
X170804761Y-98197619D02*
X170709523Y-98150000D01*
X170614285Y-98054761D01*
X170471428Y-97911904D01*
X170376190Y-97864285D01*
X170280952Y-97864285D01*
X170328571Y-98102380D02*
X170233333Y-98054761D01*
X170138095Y-97959523D01*
X170090476Y-97769047D01*
X170090476Y-97435714D01*
X170138095Y-97245238D01*
X170233333Y-97150000D01*
X170328571Y-97102380D01*
X170519047Y-97102380D01*
X170614285Y-97150000D01*
X170709523Y-97245238D01*
X170757142Y-97435714D01*
X170757142Y-97769047D01*
X170709523Y-97959523D01*
X170614285Y-98054761D01*
X170519047Y-98102380D01*
X170328571Y-98102380D01*
X171661904Y-97102380D02*
X171185714Y-97102380D01*
X171138095Y-97578571D01*
X171185714Y-97530952D01*
X171280952Y-97483333D01*
X171519047Y-97483333D01*
X171614285Y-97530952D01*
X171661904Y-97578571D01*
X171709523Y-97673809D01*
X171709523Y-97911904D01*
X171661904Y-98007142D01*
X171614285Y-98054761D01*
X171519047Y-98102380D01*
X171280952Y-98102380D01*
X171185714Y-98054761D01*
X171138095Y-98007142D01*
X178354761Y-104097619D02*
X178259523Y-104050000D01*
X178164285Y-103954761D01*
X178021428Y-103811904D01*
X177926190Y-103764285D01*
X177830952Y-103764285D01*
X177878571Y-104002380D02*
X177783333Y-103954761D01*
X177688095Y-103859523D01*
X177640476Y-103669047D01*
X177640476Y-103335714D01*
X177688095Y-103145238D01*
X177783333Y-103050000D01*
X177878571Y-103002380D01*
X178069047Y-103002380D01*
X178164285Y-103050000D01*
X178259523Y-103145238D01*
X178307142Y-103335714D01*
X178307142Y-103669047D01*
X178259523Y-103859523D01*
X178164285Y-103954761D01*
X178069047Y-104002380D01*
X177878571Y-104002380D01*
X179164285Y-103002380D02*
X178973809Y-103002380D01*
X178878571Y-103050000D01*
X178830952Y-103097619D01*
X178735714Y-103240476D01*
X178688095Y-103430952D01*
X178688095Y-103811904D01*
X178735714Y-103907142D01*
X178783333Y-103954761D01*
X178878571Y-104002380D01*
X179069047Y-104002380D01*
X179164285Y-103954761D01*
X179211904Y-103907142D01*
X179259523Y-103811904D01*
X179259523Y-103573809D01*
X179211904Y-103478571D01*
X179164285Y-103430952D01*
X179069047Y-103383333D01*
X178878571Y-103383333D01*
X178783333Y-103430952D01*
X178735714Y-103478571D01*
X178688095Y-103573809D01*
X116852380Y-101392857D02*
X116376190Y-101726190D01*
X116852380Y-101964285D02*
X115852380Y-101964285D01*
X115852380Y-101583333D01*
X115900000Y-101488095D01*
X115947619Y-101440476D01*
X116042857Y-101392857D01*
X116185714Y-101392857D01*
X116280952Y-101440476D01*
X116328571Y-101488095D01*
X116376190Y-101583333D01*
X116376190Y-101964285D01*
X116852380Y-100440476D02*
X116852380Y-101011904D01*
X116852380Y-100726190D02*
X115852380Y-100726190D01*
X115995238Y-100821428D01*
X116090476Y-100916666D01*
X116138095Y-101011904D01*
X116185714Y-99583333D02*
X116852380Y-99583333D01*
X115804761Y-99821428D02*
X116519047Y-100059523D01*
X116519047Y-99440476D01*
X172672380Y-103742857D02*
X172196190Y-104076190D01*
X172672380Y-104314285D02*
X171672380Y-104314285D01*
X171672380Y-103933333D01*
X171720000Y-103838095D01*
X171767619Y-103790476D01*
X171862857Y-103742857D01*
X172005714Y-103742857D01*
X172100952Y-103790476D01*
X172148571Y-103838095D01*
X172196190Y-103933333D01*
X172196190Y-104314285D01*
X172672380Y-102790476D02*
X172672380Y-103361904D01*
X172672380Y-103076190D02*
X171672380Y-103076190D01*
X171815238Y-103171428D01*
X171910476Y-103266666D01*
X171958095Y-103361904D01*
X171672380Y-101885714D02*
X171672380Y-102361904D01*
X172148571Y-102409523D01*
X172100952Y-102361904D01*
X172053333Y-102266666D01*
X172053333Y-102028571D01*
X172100952Y-101933333D01*
X172148571Y-101885714D01*
X172243809Y-101838095D01*
X172481904Y-101838095D01*
X172577142Y-101885714D01*
X172624761Y-101933333D01*
X172672380Y-102028571D01*
X172672380Y-102266666D01*
X172624761Y-102361904D01*
X172577142Y-102409523D01*
X152688095Y-122152380D02*
X152688095Y-122961904D01*
X152735714Y-123057142D01*
X152783333Y-123104761D01*
X152878571Y-123152380D01*
X153069047Y-123152380D01*
X153164285Y-123104761D01*
X153211904Y-123057142D01*
X153259523Y-122961904D01*
X153259523Y-122152380D01*
X154164285Y-122152380D02*
X153973809Y-122152380D01*
X153878571Y-122200000D01*
X153830952Y-122247619D01*
X153735714Y-122390476D01*
X153688095Y-122580952D01*
X153688095Y-122961904D01*
X153735714Y-123057142D01*
X153783333Y-123104761D01*
X153878571Y-123152380D01*
X154069047Y-123152380D01*
X154164285Y-123104761D01*
X154211904Y-123057142D01*
X154259523Y-122961904D01*
X154259523Y-122723809D01*
X154211904Y-122628571D01*
X154164285Y-122580952D01*
X154069047Y-122533333D01*
X153878571Y-122533333D01*
X153783333Y-122580952D01*
X153735714Y-122628571D01*
X153688095Y-122723809D01*
M02*
