G04 #@! TF.GenerationSoftware,KiCad,Pcbnew,(5.1.7-0-10_14)*
G04 #@! TF.CreationDate,2021-01-05T11:30:20+11:00*
G04 #@! TF.ProjectId,esp32_battery_isolator,65737033-325f-4626-9174-746572795f69,rev?*
G04 #@! TF.SameCoordinates,Original*
G04 #@! TF.FileFunction,Soldermask,Bot*
G04 #@! TF.FilePolarity,Negative*
%FSLAX46Y46*%
G04 Gerber Fmt 4.6, Leading zero omitted, Abs format (unit mm)*
G04 Created by KiCad (PCBNEW (5.1.7-0-10_14)) date 2021-01-05 11:30:20*
%MOMM*%
%LPD*%
G01*
G04 APERTURE LIST*
%ADD10C,6.000000*%
%ADD11C,0.800000*%
%ADD12C,6.400000*%
%ADD13R,1.700000X1.700000*%
%ADD14O,1.700000X1.700000*%
%ADD15C,0.550000*%
G04 APERTURE END LIST*
D10*
X131650000Y-117950000D03*
G36*
G01*
X133150000Y-128150000D02*
X130150000Y-128150000D01*
G75*
G02*
X128650000Y-126650000I0J1500000D01*
G01*
X128650000Y-123650000D01*
G75*
G02*
X130150000Y-122150000I1500000J0D01*
G01*
X133150000Y-122150000D01*
G75*
G02*
X134650000Y-123650000I0J-1500000D01*
G01*
X134650000Y-126650000D01*
G75*
G02*
X133150000Y-128150000I-1500000J0D01*
G01*
G37*
D11*
X112847056Y-129152944D03*
X111150000Y-128450000D03*
X109452944Y-129152944D03*
X108750000Y-130850000D03*
X109452944Y-132547056D03*
X111150000Y-133250000D03*
X112847056Y-132547056D03*
X113550000Y-130850000D03*
D12*
X111150000Y-130850000D03*
D11*
X173647056Y-76852944D03*
X171950000Y-76150000D03*
X170252944Y-76852944D03*
X169550000Y-78550000D03*
X170252944Y-80247056D03*
X171950000Y-80950000D03*
X173647056Y-80247056D03*
X174350000Y-78550000D03*
D12*
X171950000Y-78550000D03*
X171950000Y-130850000D03*
D11*
X174350000Y-130850000D03*
X173647056Y-132547056D03*
X171950000Y-133250000D03*
X170252944Y-132547056D03*
X169550000Y-130850000D03*
X170252944Y-129152944D03*
X171950000Y-128450000D03*
X173647056Y-129152944D03*
X112847056Y-76952944D03*
X111150000Y-76250000D03*
X109452944Y-76952944D03*
X108750000Y-78650000D03*
X109452944Y-80347056D03*
X111150000Y-81050000D03*
X112847056Y-80347056D03*
X113550000Y-78650000D03*
D12*
X111150000Y-78650000D03*
D10*
X122150000Y-117950000D03*
G36*
G01*
X123650000Y-128150000D02*
X120650000Y-128150000D01*
G75*
G02*
X119150000Y-126650000I0J1500000D01*
G01*
X119150000Y-123650000D01*
G75*
G02*
X120650000Y-122150000I1500000J0D01*
G01*
X123650000Y-122150000D01*
G75*
G02*
X125150000Y-123650000I0J-1500000D01*
G01*
X125150000Y-126650000D01*
G75*
G02*
X123650000Y-128150000I-1500000J0D01*
G01*
G37*
D13*
X158650000Y-89150000D03*
D14*
X158650000Y-91690000D03*
X158650000Y-94230000D03*
X158650000Y-96770000D03*
D15*
X171800000Y-93960000D03*
X171800000Y-89960000D03*
D10*
X113450000Y-107950000D03*
G36*
G01*
X114950000Y-118150000D02*
X111950000Y-118150000D01*
G75*
G02*
X110450000Y-116650000I0J1500000D01*
G01*
X110450000Y-113650000D01*
G75*
G02*
X111950000Y-112150000I1500000J0D01*
G01*
X114950000Y-112150000D01*
G75*
G02*
X116450000Y-113650000I0J-1500000D01*
G01*
X116450000Y-116650000D01*
G75*
G02*
X114950000Y-118150000I-1500000J0D01*
G01*
G37*
X158950000Y-115650000D03*
G36*
G01*
X169150000Y-114150000D02*
X169150000Y-117150000D01*
G75*
G02*
X167650000Y-118650000I-1500000J0D01*
G01*
X164650000Y-118650000D01*
G75*
G02*
X163150000Y-117150000I0J1500000D01*
G01*
X163150000Y-114150000D01*
G75*
G02*
X164650000Y-112650000I1500000J0D01*
G01*
X167650000Y-112650000D01*
G75*
G02*
X169150000Y-114150000I0J-1500000D01*
G01*
G37*
G36*
G01*
X169150000Y-104650000D02*
X169150000Y-107650000D01*
G75*
G02*
X167650000Y-109150000I-1500000J0D01*
G01*
X164650000Y-109150000D01*
G75*
G02*
X163150000Y-107650000I0J1500000D01*
G01*
X163150000Y-104650000D01*
G75*
G02*
X164650000Y-103150000I1500000J0D01*
G01*
X167650000Y-103150000D01*
G75*
G02*
X169150000Y-104650000I0J-1500000D01*
G01*
G37*
X158950000Y-106150000D03*
X158950000Y-125150000D03*
G36*
G01*
X169150000Y-123650000D02*
X169150000Y-126650000D01*
G75*
G02*
X167650000Y-128150000I-1500000J0D01*
G01*
X164650000Y-128150000D01*
G75*
G02*
X163150000Y-126650000I0J1500000D01*
G01*
X163150000Y-123650000D01*
G75*
G02*
X164650000Y-122150000I1500000J0D01*
G01*
X167650000Y-122150000D01*
G75*
G02*
X169150000Y-123650000I0J-1500000D01*
G01*
G37*
M02*
