M48
; DRILL file {KiCad (5.1.7-0-10_14)} date Monday, February 08, 2021 at 09:34:30 AM
; FORMAT={-:-/ absolute / metric / decimal}
; #@! TF.CreationDate,2021-02-08T09:34:30+11:00
; #@! TF.GenerationSoftware,Kicad,Pcbnew,(5.1.7-0-10_14)
; #@! TF.FileFunction,Plated,1,4,PTH
FMAT,2
METRIC
T1C0.400
T2C0.500
T3C0.600
T4C0.700
T5C1.000
T6C2.700
T7C3.200
%
G90
G05
T1
X109.4Y-117.4
X109.4Y-118.4
X109.4Y-119.4
X109.4Y-120.4
X109.4Y-121.4
X109.4Y-122.4
X110.4Y-117.4
X110.4Y-118.4
X110.4Y-119.4
X110.4Y-120.4
X110.4Y-121.4
X110.4Y-122.4
X111.4Y-117.4
X111.4Y-118.4
X111.4Y-119.4
X111.4Y-120.4
X111.4Y-121.4
X111.4Y-122.4
X112.05Y-86.75
X112.05Y-94.75
X112.05Y-103.55
X112.05Y-110.55
X112.4Y-117.4
X112.4Y-118.4
X112.4Y-119.4
X112.4Y-120.4
X112.4Y-121.4
X112.4Y-122.4
X113.05Y-124.15
X113.4Y-117.4
X113.4Y-118.4
X113.4Y-119.4
X113.4Y-120.4
X113.4Y-121.4
X113.4Y-122.4
X114.05Y-128.15
X115.85Y-81.75
X115.85Y-83.15
X115.85Y-84.55
X115.85Y-89.15
X116.65Y-75.75
X117.25Y-81.95
X117.25Y-118.75
X117.45Y-83.15
X117.65Y-78.35
X119.05Y-80.55
X119.05Y-83.15
X120.45Y-80.55
X120.45Y-83.15
X120.65Y-84.55
X120.65Y-89.15
X121.85Y-77.15
X121.85Y-78.55
X121.85Y-80.55
X121.85Y-83.15
X122.15Y-101.15
X122.15Y-102.65
X122.15Y-104.15
X122.15Y-105.65
X122.25Y-111.75
X123.15Y-93.15
X123.15Y-99.65
X123.45Y-83.15
X123.65Y-85.15
X123.65Y-86.65
X123.65Y-88.15
X123.65Y-89.65
X123.65Y-101.15
X123.65Y-102.65
X123.65Y-104.15
X123.65Y-105.65
X124.45Y-108.55
X124.65Y-93.65
X124.65Y-95.15
X124.65Y-96.65
X124.65Y-98.15
X124.65Y-99.65
X124.65Y-111.55
X124.85Y-83.15
X125.15Y-85.15
X125.15Y-86.65
X125.15Y-88.15
X125.15Y-89.65
X125.15Y-101.15
X125.15Y-102.65
X125.15Y-104.15
X125.15Y-105.65
X125.45Y-113.9
X125.607Y-111.259
X126.65Y-101.15
X126.65Y-102.65
X126.65Y-104.15
X126.65Y-105.65
X126.689Y-107.15
X127.05Y-113.95
X127.15Y-85.15
X127.15Y-86.65
X127.15Y-88.15
X127.15Y-89.65
X127.45Y-109.55
X127.45Y-111.15
X128.25Y-98.95
X128.65Y-85.15
X128.65Y-86.65
X128.65Y-88.15
X128.65Y-89.65
X128.65Y-114.15
X128.65Y-115.65
X128.65Y-117.15
X128.65Y-118.65
X128.95Y-93.25
X129.25Y-101.15
X129.25Y-102.35
X130.15Y-114.15
X130.15Y-115.65
X130.15Y-117.15
X130.15Y-118.65
X130.65Y-109.15
X131.01Y-104.95
X131.05Y-82.55
X131.05Y-90.15
X131.05Y-102.35
X131.25Y-96.35
X131.25Y-98.55
X131.332Y-83.509
X131.65Y-114.15
X131.65Y-115.65
X131.65Y-117.15
X131.65Y-118.65
X132.65Y-102.35
X132.85Y-101.15
X133.15Y-114.15
X133.15Y-115.65
X133.15Y-117.15
X133.15Y-118.65
X134.25Y-110.55
X134.85Y-93.55
X134.85Y-96.15
X135.85Y-101.55
X136.25Y-84.35
X136.45Y-92.35
X136.45Y-94.95
X136.45Y-97.55
X138.85Y-87.95
X138.85Y-89.15
X138.85Y-90.35
X138.85Y-91.55
X140.05Y-87.95
X140.05Y-89.15
X140.05Y-90.35
X140.05Y-91.55
X140.05Y-102.35
X141.25Y-87.95
X141.25Y-89.15
X141.25Y-90.35
X141.25Y-91.55
X141.25Y-101.55
X141.45Y-107.15
X142.45Y-87.95
X142.45Y-89.15
X142.45Y-90.35
X142.45Y-91.55
X144.85Y-107.15
X146.05Y-84.15
X146.05Y-89.15
X146.05Y-101.75
X146.65Y-114.15
X146.65Y-115.65
X146.65Y-117.15
X146.65Y-118.65
X148.05Y-109.55
X148.15Y-114.15
X148.15Y-115.65
X148.15Y-117.15
X148.15Y-118.65
X148.45Y-97.35
X149.25Y-100.75
X149.65Y-114.15
X149.65Y-115.65
X149.65Y-117.15
X149.65Y-118.65
X150.45Y-107.15
X151.15Y-114.15
X151.15Y-115.65
X151.15Y-117.15
X151.15Y-118.65
X151.65Y-86.15
X152.05Y-83.35
X152.25Y-110.55
X152.35Y-88.75
X152.45Y-82.35
X152.85Y-100.85
X152.85Y-107.15
X153.661Y-102.683
X154.438Y-99.691
X154.45Y-85.75
X154.65Y-95.75
X154.65Y-97.899
X156.05Y-93.55
X157.65Y-85.55
X158.85Y-83.059
X159.05Y-85.15
X159.05Y-86.15
X159.05Y-107.15
X159.25Y-104.95
X159.45Y-87.95
X161.45Y-107.15
X161.65Y-104.95
X161.65Y-114.15
X161.65Y-115.65
X161.65Y-117.15
X161.65Y-118.65
X162.05Y-84.35
X162.25Y-78.95
X163.15Y-114.15
X163.15Y-115.65
X163.15Y-117.15
X163.15Y-118.65
X164.25Y-105.75
X164.65Y-114.15
X164.65Y-115.65
X164.65Y-117.15
X164.65Y-118.65
X165.85Y-79.15
X166.15Y-114.15
X166.15Y-115.65
X166.15Y-117.15
X166.15Y-118.65
X167.4Y-108.15
X167.45Y-80.75
X168.25Y-86.15
X169.85Y-82.75
X170.725Y-104.392
X171.65Y-112.15
X172.15Y-109.65
X172.25Y-106.95
X172.25Y-108.35
X172.4Y-114.65
X173.45Y-125.95
X173.85Y-98.15
X174.25Y-82.75
T2
X169.55Y-130.85
X170.253Y-129.153
X170.253Y-132.547
X171.95Y-128.45
X171.95Y-133.25
X173.647Y-129.153
X173.647Y-132.547
X174.35Y-130.85
X108.75Y-130.85
X109.453Y-129.153
X109.453Y-132.547
X111.15Y-128.45
X111.15Y-133.25
X112.847Y-129.153
X112.847Y-132.547
X113.55Y-130.85
X108.75Y-78.65
X109.453Y-76.953
X109.453Y-80.347
X111.15Y-76.25
X111.15Y-81.05
X112.847Y-76.953
X112.847Y-80.347
X113.55Y-78.65
X169.55Y-78.55
X170.253Y-76.853
X170.253Y-80.247
X171.95Y-76.15
X171.95Y-80.95
X173.647Y-76.853
X173.647Y-80.247
X174.35Y-78.55
T4
X171.05Y-113.5
X171.05Y-118.3
T5
X161.05Y-92.45
X161.05Y-94.99
X161.05Y-97.53
X161.05Y-100.07
T6
X165.65Y-91.55
X165.65Y-98.75
X120.05Y-123.15
X127.25Y-123.15
X118.15Y-104.05
X118.15Y-111.25
X118.15Y-87.05
X118.15Y-94.25
X156.05Y-123.15
X163.25Y-123.15
X138.05Y-123.15
X145.25Y-123.15
T7
X171.95Y-130.85
X111.15Y-130.85
X111.15Y-78.65
X171.95Y-78.55
T2
G00X173.55Y-119.5
M15
G01X174.35Y-119.5
M16
G05
G00X173.65Y-112.3
M15
G01X174.45Y-112.3
M16
G05
T3
G00X111.6Y-83.9
M15
G01X112.7Y-83.9
M16
G05
G00X111.6Y-97.4
M15
G01X112.7Y-97.4
M16
G05
G00X152.9Y-128.6
M15
G01X152.9Y-129.7
M16
G05
G00X166.4Y-128.6
M15
G01X166.4Y-129.7
M16
G05
G00X134.9Y-128.6
M15
G01X134.9Y-129.7
M16
G05
G00X148.4Y-128.6
M15
G01X148.4Y-129.7
M16
G05
G00X172.2Y-88.4
M15
G01X171.1Y-88.4
M16
G05
G00X172.2Y-101.9
M15
G01X171.1Y-101.9
M16
G05
G00X116.9Y-128.6
M15
G01X116.9Y-129.7
M16
G05
G00X130.4Y-128.6
M15
G01X130.4Y-129.7
M16
G05
G00X111.6Y-100.9
M15
G01X112.7Y-100.9
M16
G05
G00X111.6Y-114.4
M15
G01X112.7Y-114.4
M16
G05
T0
M30
