G04 #@! TF.GenerationSoftware,KiCad,Pcbnew,(5.1.7-0-10_14)*
G04 #@! TF.CreationDate,2021-02-01T21:43:09+11:00*
G04 #@! TF.ProjectId,esp32_battery_isolator,65737033-325f-4626-9174-746572795f69,rev?*
G04 #@! TF.SameCoordinates,Original*
G04 #@! TF.FileFunction,Soldermask,Top*
G04 #@! TF.FilePolarity,Negative*
%FSLAX46Y46*%
G04 Gerber Fmt 4.6, Leading zero omitted, Abs format (unit mm)*
G04 Created by KiCad (PCBNEW (5.1.7-0-10_14)) date 2021-02-01 21:43:09*
%MOMM*%
%LPD*%
G01*
G04 APERTURE LIST*
%ADD10C,6.000000*%
%ADD11C,0.800000*%
%ADD12C,6.400000*%
%ADD13R,2.500000X1.800000*%
%ADD14R,1.700000X1.700000*%
%ADD15O,1.700000X1.700000*%
%ADD16R,1.300000X0.400000*%
%ADD17C,0.550000*%
%ADD18R,1.900000X1.900000*%
%ADD19R,1.000000X1.300000*%
%ADD20R,5.000000X5.000000*%
%ADD21R,2.000000X0.900000*%
%ADD22R,0.900000X2.000000*%
%ADD23R,1.000000X0.900000*%
%ADD24R,1.200000X2.200000*%
%ADD25R,5.800000X6.400000*%
%ADD26R,0.610000X1.270000*%
%ADD27R,0.610000X1.020000*%
%ADD28R,3.910000X3.810000*%
%ADD29R,1.270000X0.610000*%
%ADD30R,1.020000X0.610000*%
%ADD31R,3.810000X3.910000*%
G04 APERTURE END LIST*
D10*
X131650000Y-117950000D03*
G36*
G01*
X133150000Y-128150000D02*
X130150000Y-128150000D01*
G75*
G02*
X128650000Y-126650000I0J1500000D01*
G01*
X128650000Y-123650000D01*
G75*
G02*
X130150000Y-122150000I1500000J0D01*
G01*
X133150000Y-122150000D01*
G75*
G02*
X134650000Y-123650000I0J-1500000D01*
G01*
X134650000Y-126650000D01*
G75*
G02*
X133150000Y-128150000I-1500000J0D01*
G01*
G37*
D11*
X112847056Y-129152944D03*
X111150000Y-128450000D03*
X109452944Y-129152944D03*
X108750000Y-130850000D03*
X109452944Y-132547056D03*
X111150000Y-133250000D03*
X112847056Y-132547056D03*
X113550000Y-130850000D03*
D12*
X111150000Y-130850000D03*
D11*
X173647056Y-76852944D03*
X171950000Y-76150000D03*
X170252944Y-76852944D03*
X169550000Y-78550000D03*
X170252944Y-80247056D03*
X171950000Y-80950000D03*
X173647056Y-80247056D03*
X174350000Y-78550000D03*
D12*
X171950000Y-78550000D03*
X171950000Y-130850000D03*
D11*
X174350000Y-130850000D03*
X173647056Y-132547056D03*
X171950000Y-133250000D03*
X170252944Y-132547056D03*
X169550000Y-130850000D03*
X170252944Y-129152944D03*
X171950000Y-128450000D03*
X173647056Y-129152944D03*
X112847056Y-76952944D03*
X111150000Y-76250000D03*
X109452944Y-76952944D03*
X108750000Y-78650000D03*
X109452944Y-80347056D03*
X111150000Y-81050000D03*
X112847056Y-80347056D03*
X113550000Y-78650000D03*
D12*
X111150000Y-78650000D03*
G36*
G01*
X133443750Y-85325000D02*
X134356250Y-85325000D01*
G75*
G02*
X134600000Y-85568750I0J-243750D01*
G01*
X134600000Y-86056250D01*
G75*
G02*
X134356250Y-86300000I-243750J0D01*
G01*
X133443750Y-86300000D01*
G75*
G02*
X133200000Y-86056250I0J243750D01*
G01*
X133200000Y-85568750D01*
G75*
G02*
X133443750Y-85325000I243750J0D01*
G01*
G37*
G36*
G01*
X133443750Y-87200000D02*
X134356250Y-87200000D01*
G75*
G02*
X134600000Y-87443750I0J-243750D01*
G01*
X134600000Y-87931250D01*
G75*
G02*
X134356250Y-88175000I-243750J0D01*
G01*
X133443750Y-88175000D01*
G75*
G02*
X133200000Y-87931250I0J243750D01*
G01*
X133200000Y-87443750D01*
G75*
G02*
X133443750Y-87200000I243750J0D01*
G01*
G37*
G36*
G01*
X139606250Y-123325000D02*
X138693750Y-123325000D01*
G75*
G02*
X138450000Y-123081250I0J243750D01*
G01*
X138450000Y-122593750D01*
G75*
G02*
X138693750Y-122350000I243750J0D01*
G01*
X139606250Y-122350000D01*
G75*
G02*
X139850000Y-122593750I0J-243750D01*
G01*
X139850000Y-123081250D01*
G75*
G02*
X139606250Y-123325000I-243750J0D01*
G01*
G37*
G36*
G01*
X139606250Y-125200000D02*
X138693750Y-125200000D01*
G75*
G02*
X138450000Y-124956250I0J243750D01*
G01*
X138450000Y-124468750D01*
G75*
G02*
X138693750Y-124225000I243750J0D01*
G01*
X139606250Y-124225000D01*
G75*
G02*
X139850000Y-124468750I0J-243750D01*
G01*
X139850000Y-124956250D01*
G75*
G02*
X139606250Y-125200000I-243750J0D01*
G01*
G37*
G36*
G01*
X139550000Y-125918750D02*
X139550000Y-126831250D01*
G75*
G02*
X139306250Y-127075000I-243750J0D01*
G01*
X138818750Y-127075000D01*
G75*
G02*
X138575000Y-126831250I0J243750D01*
G01*
X138575000Y-125918750D01*
G75*
G02*
X138818750Y-125675000I243750J0D01*
G01*
X139306250Y-125675000D01*
G75*
G02*
X139550000Y-125918750I0J-243750D01*
G01*
G37*
G36*
G01*
X137675000Y-125918750D02*
X137675000Y-126831250D01*
G75*
G02*
X137431250Y-127075000I-243750J0D01*
G01*
X136943750Y-127075000D01*
G75*
G02*
X136700000Y-126831250I0J243750D01*
G01*
X136700000Y-125918750D01*
G75*
G02*
X136943750Y-125675000I243750J0D01*
G01*
X137431250Y-125675000D01*
G75*
G02*
X137675000Y-125918750I0J-243750D01*
G01*
G37*
G36*
G01*
X116016250Y-77785000D02*
X115503750Y-77785000D01*
G75*
G02*
X115285000Y-77566250I0J218750D01*
G01*
X115285000Y-77128750D01*
G75*
G02*
X115503750Y-76910000I218750J0D01*
G01*
X116016250Y-76910000D01*
G75*
G02*
X116235000Y-77128750I0J-218750D01*
G01*
X116235000Y-77566250D01*
G75*
G02*
X116016250Y-77785000I-218750J0D01*
G01*
G37*
G36*
G01*
X116016250Y-79360000D02*
X115503750Y-79360000D01*
G75*
G02*
X115285000Y-79141250I0J218750D01*
G01*
X115285000Y-78703750D01*
G75*
G02*
X115503750Y-78485000I218750J0D01*
G01*
X116016250Y-78485000D01*
G75*
G02*
X116235000Y-78703750I0J-218750D01*
G01*
X116235000Y-79141250D01*
G75*
G02*
X116016250Y-79360000I-218750J0D01*
G01*
G37*
G36*
G01*
X119841250Y-79360000D02*
X119328750Y-79360000D01*
G75*
G02*
X119110000Y-79141250I0J218750D01*
G01*
X119110000Y-78703750D01*
G75*
G02*
X119328750Y-78485000I218750J0D01*
G01*
X119841250Y-78485000D01*
G75*
G02*
X120060000Y-78703750I0J-218750D01*
G01*
X120060000Y-79141250D01*
G75*
G02*
X119841250Y-79360000I-218750J0D01*
G01*
G37*
G36*
G01*
X119841250Y-77785000D02*
X119328750Y-77785000D01*
G75*
G02*
X119110000Y-77566250I0J218750D01*
G01*
X119110000Y-77128750D01*
G75*
G02*
X119328750Y-76910000I218750J0D01*
G01*
X119841250Y-76910000D01*
G75*
G02*
X120060000Y-77128750I0J-218750D01*
G01*
X120060000Y-77566250D01*
G75*
G02*
X119841250Y-77785000I-218750J0D01*
G01*
G37*
G36*
G01*
X117816250Y-77785000D02*
X117303750Y-77785000D01*
G75*
G02*
X117085000Y-77566250I0J218750D01*
G01*
X117085000Y-77128750D01*
G75*
G02*
X117303750Y-76910000I218750J0D01*
G01*
X117816250Y-76910000D01*
G75*
G02*
X118035000Y-77128750I0J-218750D01*
G01*
X118035000Y-77566250D01*
G75*
G02*
X117816250Y-77785000I-218750J0D01*
G01*
G37*
G36*
G01*
X117816250Y-79360000D02*
X117303750Y-79360000D01*
G75*
G02*
X117085000Y-79141250I0J218750D01*
G01*
X117085000Y-78703750D01*
G75*
G02*
X117303750Y-78485000I218750J0D01*
G01*
X117816250Y-78485000D01*
G75*
G02*
X118035000Y-78703750I0J-218750D01*
G01*
X118035000Y-79141250D01*
G75*
G02*
X117816250Y-79360000I-218750J0D01*
G01*
G37*
G36*
G01*
X121716250Y-79360000D02*
X121203750Y-79360000D01*
G75*
G02*
X120985000Y-79141250I0J218750D01*
G01*
X120985000Y-78703750D01*
G75*
G02*
X121203750Y-78485000I218750J0D01*
G01*
X121716250Y-78485000D01*
G75*
G02*
X121935000Y-78703750I0J-218750D01*
G01*
X121935000Y-79141250D01*
G75*
G02*
X121716250Y-79360000I-218750J0D01*
G01*
G37*
G36*
G01*
X121716250Y-77785000D02*
X121203750Y-77785000D01*
G75*
G02*
X120985000Y-77566250I0J218750D01*
G01*
X120985000Y-77128750D01*
G75*
G02*
X121203750Y-76910000I218750J0D01*
G01*
X121716250Y-76910000D01*
G75*
G02*
X121935000Y-77128750I0J-218750D01*
G01*
X121935000Y-77566250D01*
G75*
G02*
X121716250Y-77785000I-218750J0D01*
G01*
G37*
G36*
G01*
X135075000Y-99193750D02*
X135075000Y-99706250D01*
G75*
G02*
X134856250Y-99925000I-218750J0D01*
G01*
X134418750Y-99925000D01*
G75*
G02*
X134200000Y-99706250I0J218750D01*
G01*
X134200000Y-99193750D01*
G75*
G02*
X134418750Y-98975000I218750J0D01*
G01*
X134856250Y-98975000D01*
G75*
G02*
X135075000Y-99193750I0J-218750D01*
G01*
G37*
G36*
G01*
X133500000Y-99193750D02*
X133500000Y-99706250D01*
G75*
G02*
X133281250Y-99925000I-218750J0D01*
G01*
X132843750Y-99925000D01*
G75*
G02*
X132625000Y-99706250I0J218750D01*
G01*
X132625000Y-99193750D01*
G75*
G02*
X132843750Y-98975000I218750J0D01*
G01*
X133281250Y-98975000D01*
G75*
G02*
X133500000Y-99193750I0J-218750D01*
G01*
G37*
G36*
G01*
X155193750Y-85000000D02*
X155706250Y-85000000D01*
G75*
G02*
X155925000Y-85218750I0J-218750D01*
G01*
X155925000Y-85656250D01*
G75*
G02*
X155706250Y-85875000I-218750J0D01*
G01*
X155193750Y-85875000D01*
G75*
G02*
X154975000Y-85656250I0J218750D01*
G01*
X154975000Y-85218750D01*
G75*
G02*
X155193750Y-85000000I218750J0D01*
G01*
G37*
G36*
G01*
X155193750Y-83425000D02*
X155706250Y-83425000D01*
G75*
G02*
X155925000Y-83643750I0J-218750D01*
G01*
X155925000Y-84081250D01*
G75*
G02*
X155706250Y-84300000I-218750J0D01*
G01*
X155193750Y-84300000D01*
G75*
G02*
X154975000Y-84081250I0J218750D01*
G01*
X154975000Y-83643750D01*
G75*
G02*
X155193750Y-83425000I218750J0D01*
G01*
G37*
G36*
G01*
X161193750Y-98600000D02*
X161706250Y-98600000D01*
G75*
G02*
X161925000Y-98818750I0J-218750D01*
G01*
X161925000Y-99256250D01*
G75*
G02*
X161706250Y-99475000I-218750J0D01*
G01*
X161193750Y-99475000D01*
G75*
G02*
X160975000Y-99256250I0J218750D01*
G01*
X160975000Y-98818750D01*
G75*
G02*
X161193750Y-98600000I218750J0D01*
G01*
G37*
G36*
G01*
X161193750Y-97025000D02*
X161706250Y-97025000D01*
G75*
G02*
X161925000Y-97243750I0J-218750D01*
G01*
X161925000Y-97681250D01*
G75*
G02*
X161706250Y-97900000I-218750J0D01*
G01*
X161193750Y-97900000D01*
G75*
G02*
X160975000Y-97681250I0J218750D01*
G01*
X160975000Y-97243750D01*
G75*
G02*
X161193750Y-97025000I218750J0D01*
G01*
G37*
G36*
G01*
X110800000Y-123893750D02*
X110800000Y-124406250D01*
G75*
G02*
X110581250Y-124625000I-218750J0D01*
G01*
X110143750Y-124625000D01*
G75*
G02*
X109925000Y-124406250I0J218750D01*
G01*
X109925000Y-123893750D01*
G75*
G02*
X110143750Y-123675000I218750J0D01*
G01*
X110581250Y-123675000D01*
G75*
G02*
X110800000Y-123893750I0J-218750D01*
G01*
G37*
G36*
G01*
X112375000Y-123893750D02*
X112375000Y-124406250D01*
G75*
G02*
X112156250Y-124625000I-218750J0D01*
G01*
X111718750Y-124625000D01*
G75*
G02*
X111500000Y-124406250I0J218750D01*
G01*
X111500000Y-123893750D01*
G75*
G02*
X111718750Y-123675000I218750J0D01*
G01*
X112156250Y-123675000D01*
G75*
G02*
X112375000Y-123893750I0J-218750D01*
G01*
G37*
G36*
G01*
X111212500Y-125806250D02*
X111212500Y-125293750D01*
G75*
G02*
X111431250Y-125075000I218750J0D01*
G01*
X111868750Y-125075000D01*
G75*
G02*
X112087500Y-125293750I0J-218750D01*
G01*
X112087500Y-125806250D01*
G75*
G02*
X111868750Y-126025000I-218750J0D01*
G01*
X111431250Y-126025000D01*
G75*
G02*
X111212500Y-125806250I0J218750D01*
G01*
G37*
G36*
G01*
X112787500Y-125806250D02*
X112787500Y-125293750D01*
G75*
G02*
X113006250Y-125075000I218750J0D01*
G01*
X113443750Y-125075000D01*
G75*
G02*
X113662500Y-125293750I0J-218750D01*
G01*
X113662500Y-125806250D01*
G75*
G02*
X113443750Y-126025000I-218750J0D01*
G01*
X113006250Y-126025000D01*
G75*
G02*
X112787500Y-125806250I0J218750D01*
G01*
G37*
G36*
G01*
X137118750Y-131225000D02*
X137631250Y-131225000D01*
G75*
G02*
X137850000Y-131443750I0J-218750D01*
G01*
X137850000Y-131881250D01*
G75*
G02*
X137631250Y-132100000I-218750J0D01*
G01*
X137118750Y-132100000D01*
G75*
G02*
X136900000Y-131881250I0J218750D01*
G01*
X136900000Y-131443750D01*
G75*
G02*
X137118750Y-131225000I218750J0D01*
G01*
G37*
G36*
G01*
X137118750Y-129650000D02*
X137631250Y-129650000D01*
G75*
G02*
X137850000Y-129868750I0J-218750D01*
G01*
X137850000Y-130306250D01*
G75*
G02*
X137631250Y-130525000I-218750J0D01*
G01*
X137118750Y-130525000D01*
G75*
G02*
X136900000Y-130306250I0J218750D01*
G01*
X136900000Y-129868750D01*
G75*
G02*
X137118750Y-129650000I218750J0D01*
G01*
G37*
G36*
G01*
X135906250Y-131975000D02*
X135393750Y-131975000D01*
G75*
G02*
X135175000Y-131756250I0J218750D01*
G01*
X135175000Y-131318750D01*
G75*
G02*
X135393750Y-131100000I218750J0D01*
G01*
X135906250Y-131100000D01*
G75*
G02*
X136125000Y-131318750I0J-218750D01*
G01*
X136125000Y-131756250D01*
G75*
G02*
X135906250Y-131975000I-218750J0D01*
G01*
G37*
G36*
G01*
X135906250Y-130400000D02*
X135393750Y-130400000D01*
G75*
G02*
X135175000Y-130181250I0J218750D01*
G01*
X135175000Y-129743750D01*
G75*
G02*
X135393750Y-129525000I218750J0D01*
G01*
X135906250Y-129525000D01*
G75*
G02*
X136125000Y-129743750I0J-218750D01*
G01*
X136125000Y-130181250D01*
G75*
G02*
X135906250Y-130400000I-218750J0D01*
G01*
G37*
G36*
G01*
X130200000Y-97600000D02*
X129100000Y-97600000D01*
G75*
G02*
X128850000Y-97350000I0J250000D01*
G01*
X128850000Y-95075000D01*
G75*
G02*
X129100000Y-94825000I250000J0D01*
G01*
X130200000Y-94825000D01*
G75*
G02*
X130450000Y-95075000I0J-250000D01*
G01*
X130450000Y-97350000D01*
G75*
G02*
X130200000Y-97600000I-250000J0D01*
G01*
G37*
G36*
G01*
X130200000Y-93475000D02*
X129100000Y-93475000D01*
G75*
G02*
X128850000Y-93225000I0J250000D01*
G01*
X128850000Y-90950000D01*
G75*
G02*
X129100000Y-90700000I250000J0D01*
G01*
X130200000Y-90700000D01*
G75*
G02*
X130450000Y-90950000I0J-250000D01*
G01*
X130450000Y-93225000D01*
G75*
G02*
X130200000Y-93475000I-250000J0D01*
G01*
G37*
G36*
G01*
X129100000Y-87325000D02*
X130200000Y-87325000D01*
G75*
G02*
X130450000Y-87575000I0J-250000D01*
G01*
X130450000Y-89850000D01*
G75*
G02*
X130200000Y-90100000I-250000J0D01*
G01*
X129100000Y-90100000D01*
G75*
G02*
X128850000Y-89850000I0J250000D01*
G01*
X128850000Y-87575000D01*
G75*
G02*
X129100000Y-87325000I250000J0D01*
G01*
G37*
G36*
G01*
X129100000Y-83200000D02*
X130200000Y-83200000D01*
G75*
G02*
X130450000Y-83450000I0J-250000D01*
G01*
X130450000Y-85725000D01*
G75*
G02*
X130200000Y-85975000I-250000J0D01*
G01*
X129100000Y-85975000D01*
G75*
G02*
X128850000Y-85725000I0J250000D01*
G01*
X128850000Y-83450000D01*
G75*
G02*
X129100000Y-83200000I250000J0D01*
G01*
G37*
G36*
G01*
X160650000Y-87675000D02*
X161150000Y-87675000D01*
G75*
G02*
X161375000Y-87900000I0J-225000D01*
G01*
X161375000Y-88350000D01*
G75*
G02*
X161150000Y-88575000I-225000J0D01*
G01*
X160650000Y-88575000D01*
G75*
G02*
X160425000Y-88350000I0J225000D01*
G01*
X160425000Y-87900000D01*
G75*
G02*
X160650000Y-87675000I225000J0D01*
G01*
G37*
G36*
G01*
X160650000Y-89225000D02*
X161150000Y-89225000D01*
G75*
G02*
X161375000Y-89450000I0J-225000D01*
G01*
X161375000Y-89900000D01*
G75*
G02*
X161150000Y-90125000I-225000J0D01*
G01*
X160650000Y-90125000D01*
G75*
G02*
X160425000Y-89900000I0J225000D01*
G01*
X160425000Y-89450000D01*
G75*
G02*
X160650000Y-89225000I225000J0D01*
G01*
G37*
G36*
G01*
X162400000Y-79600000D02*
X161900000Y-79600000D01*
G75*
G02*
X161675000Y-79375000I0J225000D01*
G01*
X161675000Y-78925000D01*
G75*
G02*
X161900000Y-78700000I225000J0D01*
G01*
X162400000Y-78700000D01*
G75*
G02*
X162625000Y-78925000I0J-225000D01*
G01*
X162625000Y-79375000D01*
G75*
G02*
X162400000Y-79600000I-225000J0D01*
G01*
G37*
G36*
G01*
X162400000Y-81150000D02*
X161900000Y-81150000D01*
G75*
G02*
X161675000Y-80925000I0J225000D01*
G01*
X161675000Y-80475000D01*
G75*
G02*
X161900000Y-80250000I225000J0D01*
G01*
X162400000Y-80250000D01*
G75*
G02*
X162625000Y-80475000I0J-225000D01*
G01*
X162625000Y-80925000D01*
G75*
G02*
X162400000Y-81150000I-225000J0D01*
G01*
G37*
D13*
X172550000Y-99250000D03*
X168550000Y-99250000D03*
G36*
G01*
X123741250Y-79360000D02*
X123228750Y-79360000D01*
G75*
G02*
X123010000Y-79141250I0J218750D01*
G01*
X123010000Y-78703750D01*
G75*
G02*
X123228750Y-78485000I218750J0D01*
G01*
X123741250Y-78485000D01*
G75*
G02*
X123960000Y-78703750I0J-218750D01*
G01*
X123960000Y-79141250D01*
G75*
G02*
X123741250Y-79360000I-218750J0D01*
G01*
G37*
G36*
G01*
X123741250Y-77785000D02*
X123228750Y-77785000D01*
G75*
G02*
X123010000Y-77566250I0J218750D01*
G01*
X123010000Y-77128750D01*
G75*
G02*
X123228750Y-76910000I218750J0D01*
G01*
X123741250Y-76910000D01*
G75*
G02*
X123960000Y-77128750I0J-218750D01*
G01*
X123960000Y-77566250D01*
G75*
G02*
X123741250Y-77785000I-218750J0D01*
G01*
G37*
D10*
X122150000Y-117950000D03*
G36*
G01*
X123650000Y-128150000D02*
X120650000Y-128150000D01*
G75*
G02*
X119150000Y-126650000I0J1500000D01*
G01*
X119150000Y-123650000D01*
G75*
G02*
X120650000Y-122150000I1500000J0D01*
G01*
X123650000Y-122150000D01*
G75*
G02*
X125150000Y-123650000I0J-1500000D01*
G01*
X125150000Y-126650000D01*
G75*
G02*
X123650000Y-128150000I-1500000J0D01*
G01*
G37*
D14*
X158650000Y-89150000D03*
D15*
X158650000Y-91690000D03*
X158650000Y-94230000D03*
X158650000Y-96770000D03*
D16*
X171300000Y-92610000D03*
X171300000Y-93260000D03*
X171300000Y-91960000D03*
X171300000Y-91310000D03*
X171300000Y-90660000D03*
D17*
X171800000Y-93960000D03*
X171800000Y-89960000D03*
D18*
X173950000Y-95910000D03*
X173950000Y-88010000D03*
X173950000Y-90760000D03*
X173950000Y-93160000D03*
D19*
X171600000Y-95110000D03*
X171600000Y-88810000D03*
G36*
G01*
X113375000Y-82875000D02*
X113375000Y-83425000D01*
G75*
G02*
X113175000Y-83625000I-200000J0D01*
G01*
X112775000Y-83625000D01*
G75*
G02*
X112575000Y-83425000I0J200000D01*
G01*
X112575000Y-82875000D01*
G75*
G02*
X112775000Y-82675000I200000J0D01*
G01*
X113175000Y-82675000D01*
G75*
G02*
X113375000Y-82875000I0J-200000D01*
G01*
G37*
G36*
G01*
X111725000Y-82875000D02*
X111725000Y-83425000D01*
G75*
G02*
X111525000Y-83625000I-200000J0D01*
G01*
X111125000Y-83625000D01*
G75*
G02*
X110925000Y-83425000I0J200000D01*
G01*
X110925000Y-82875000D01*
G75*
G02*
X111125000Y-82675000I200000J0D01*
G01*
X111525000Y-82675000D01*
G75*
G02*
X111725000Y-82875000I0J-200000D01*
G01*
G37*
G36*
G01*
X125741250Y-77785000D02*
X125228750Y-77785000D01*
G75*
G02*
X125010000Y-77566250I0J218750D01*
G01*
X125010000Y-77128750D01*
G75*
G02*
X125228750Y-76910000I218750J0D01*
G01*
X125741250Y-76910000D01*
G75*
G02*
X125960000Y-77128750I0J-218750D01*
G01*
X125960000Y-77566250D01*
G75*
G02*
X125741250Y-77785000I-218750J0D01*
G01*
G37*
G36*
G01*
X125741250Y-79360000D02*
X125228750Y-79360000D01*
G75*
G02*
X125010000Y-79141250I0J218750D01*
G01*
X125010000Y-78703750D01*
G75*
G02*
X125228750Y-78485000I218750J0D01*
G01*
X125741250Y-78485000D01*
G75*
G02*
X125960000Y-78703750I0J-218750D01*
G01*
X125960000Y-79141250D01*
G75*
G02*
X125741250Y-79360000I-218750J0D01*
G01*
G37*
D20*
X144000000Y-90395000D03*
D21*
X136500000Y-82895000D03*
X136500000Y-84165000D03*
X136500000Y-85435000D03*
X136500000Y-86705000D03*
X136500000Y-87975000D03*
X136500000Y-89245000D03*
X136500000Y-90515000D03*
X136500000Y-91785000D03*
X136500000Y-93055000D03*
X136500000Y-94325000D03*
X136500000Y-95595000D03*
X136500000Y-96865000D03*
X136500000Y-98135000D03*
X136500000Y-99405000D03*
D22*
X139285000Y-100405000D03*
X140555000Y-100405000D03*
X141825000Y-100405000D03*
X143095000Y-100405000D03*
X144365000Y-100405000D03*
X145635000Y-100405000D03*
X146905000Y-100405000D03*
X148175000Y-100405000D03*
X149445000Y-100405000D03*
X150715000Y-100405000D03*
D21*
X153500000Y-99405000D03*
X153500000Y-98135000D03*
X153500000Y-96865000D03*
X153500000Y-95595000D03*
X153500000Y-94325000D03*
X153500000Y-93055000D03*
X153500000Y-91785000D03*
X153500000Y-90515000D03*
X153500000Y-89245000D03*
X153500000Y-87975000D03*
X153500000Y-86705000D03*
X153500000Y-85435000D03*
X153500000Y-84165000D03*
X153500000Y-82895000D03*
G36*
G01*
X141250000Y-127075000D02*
X141250000Y-126875000D01*
G75*
G02*
X141350000Y-126775000I100000J0D01*
G01*
X142625000Y-126775000D01*
G75*
G02*
X142725000Y-126875000I0J-100000D01*
G01*
X142725000Y-127075000D01*
G75*
G02*
X142625000Y-127175000I-100000J0D01*
G01*
X141350000Y-127175000D01*
G75*
G02*
X141250000Y-127075000I0J100000D01*
G01*
G37*
G36*
G01*
X141250000Y-127725000D02*
X141250000Y-127525000D01*
G75*
G02*
X141350000Y-127425000I100000J0D01*
G01*
X142625000Y-127425000D01*
G75*
G02*
X142725000Y-127525000I0J-100000D01*
G01*
X142725000Y-127725000D01*
G75*
G02*
X142625000Y-127825000I-100000J0D01*
G01*
X141350000Y-127825000D01*
G75*
G02*
X141250000Y-127725000I0J100000D01*
G01*
G37*
G36*
G01*
X141250000Y-128375000D02*
X141250000Y-128175000D01*
G75*
G02*
X141350000Y-128075000I100000J0D01*
G01*
X142625000Y-128075000D01*
G75*
G02*
X142725000Y-128175000I0J-100000D01*
G01*
X142725000Y-128375000D01*
G75*
G02*
X142625000Y-128475000I-100000J0D01*
G01*
X141350000Y-128475000D01*
G75*
G02*
X141250000Y-128375000I0J100000D01*
G01*
G37*
G36*
G01*
X141250000Y-129025000D02*
X141250000Y-128825000D01*
G75*
G02*
X141350000Y-128725000I100000J0D01*
G01*
X142625000Y-128725000D01*
G75*
G02*
X142725000Y-128825000I0J-100000D01*
G01*
X142725000Y-129025000D01*
G75*
G02*
X142625000Y-129125000I-100000J0D01*
G01*
X141350000Y-129125000D01*
G75*
G02*
X141250000Y-129025000I0J100000D01*
G01*
G37*
G36*
G01*
X141250000Y-129675000D02*
X141250000Y-129475000D01*
G75*
G02*
X141350000Y-129375000I100000J0D01*
G01*
X142625000Y-129375000D01*
G75*
G02*
X142725000Y-129475000I0J-100000D01*
G01*
X142725000Y-129675000D01*
G75*
G02*
X142625000Y-129775000I-100000J0D01*
G01*
X141350000Y-129775000D01*
G75*
G02*
X141250000Y-129675000I0J100000D01*
G01*
G37*
G36*
G01*
X141250000Y-130325000D02*
X141250000Y-130125000D01*
G75*
G02*
X141350000Y-130025000I100000J0D01*
G01*
X142625000Y-130025000D01*
G75*
G02*
X142725000Y-130125000I0J-100000D01*
G01*
X142725000Y-130325000D01*
G75*
G02*
X142625000Y-130425000I-100000J0D01*
G01*
X141350000Y-130425000D01*
G75*
G02*
X141250000Y-130325000I0J100000D01*
G01*
G37*
G36*
G01*
X141250000Y-130975000D02*
X141250000Y-130775000D01*
G75*
G02*
X141350000Y-130675000I100000J0D01*
G01*
X142625000Y-130675000D01*
G75*
G02*
X142725000Y-130775000I0J-100000D01*
G01*
X142725000Y-130975000D01*
G75*
G02*
X142625000Y-131075000I-100000J0D01*
G01*
X141350000Y-131075000D01*
G75*
G02*
X141250000Y-130975000I0J100000D01*
G01*
G37*
G36*
G01*
X141250000Y-131625000D02*
X141250000Y-131425000D01*
G75*
G02*
X141350000Y-131325000I100000J0D01*
G01*
X142625000Y-131325000D01*
G75*
G02*
X142725000Y-131425000I0J-100000D01*
G01*
X142725000Y-131625000D01*
G75*
G02*
X142625000Y-131725000I-100000J0D01*
G01*
X141350000Y-131725000D01*
G75*
G02*
X141250000Y-131625000I0J100000D01*
G01*
G37*
G36*
G01*
X146975000Y-131625000D02*
X146975000Y-131425000D01*
G75*
G02*
X147075000Y-131325000I100000J0D01*
G01*
X148350000Y-131325000D01*
G75*
G02*
X148450000Y-131425000I0J-100000D01*
G01*
X148450000Y-131625000D01*
G75*
G02*
X148350000Y-131725000I-100000J0D01*
G01*
X147075000Y-131725000D01*
G75*
G02*
X146975000Y-131625000I0J100000D01*
G01*
G37*
G36*
G01*
X146975000Y-130975000D02*
X146975000Y-130775000D01*
G75*
G02*
X147075000Y-130675000I100000J0D01*
G01*
X148350000Y-130675000D01*
G75*
G02*
X148450000Y-130775000I0J-100000D01*
G01*
X148450000Y-130975000D01*
G75*
G02*
X148350000Y-131075000I-100000J0D01*
G01*
X147075000Y-131075000D01*
G75*
G02*
X146975000Y-130975000I0J100000D01*
G01*
G37*
G36*
G01*
X146975000Y-130325000D02*
X146975000Y-130125000D01*
G75*
G02*
X147075000Y-130025000I100000J0D01*
G01*
X148350000Y-130025000D01*
G75*
G02*
X148450000Y-130125000I0J-100000D01*
G01*
X148450000Y-130325000D01*
G75*
G02*
X148350000Y-130425000I-100000J0D01*
G01*
X147075000Y-130425000D01*
G75*
G02*
X146975000Y-130325000I0J100000D01*
G01*
G37*
G36*
G01*
X146975000Y-129675000D02*
X146975000Y-129475000D01*
G75*
G02*
X147075000Y-129375000I100000J0D01*
G01*
X148350000Y-129375000D01*
G75*
G02*
X148450000Y-129475000I0J-100000D01*
G01*
X148450000Y-129675000D01*
G75*
G02*
X148350000Y-129775000I-100000J0D01*
G01*
X147075000Y-129775000D01*
G75*
G02*
X146975000Y-129675000I0J100000D01*
G01*
G37*
G36*
G01*
X146975000Y-129025000D02*
X146975000Y-128825000D01*
G75*
G02*
X147075000Y-128725000I100000J0D01*
G01*
X148350000Y-128725000D01*
G75*
G02*
X148450000Y-128825000I0J-100000D01*
G01*
X148450000Y-129025000D01*
G75*
G02*
X148350000Y-129125000I-100000J0D01*
G01*
X147075000Y-129125000D01*
G75*
G02*
X146975000Y-129025000I0J100000D01*
G01*
G37*
G36*
G01*
X146975000Y-128375000D02*
X146975000Y-128175000D01*
G75*
G02*
X147075000Y-128075000I100000J0D01*
G01*
X148350000Y-128075000D01*
G75*
G02*
X148450000Y-128175000I0J-100000D01*
G01*
X148450000Y-128375000D01*
G75*
G02*
X148350000Y-128475000I-100000J0D01*
G01*
X147075000Y-128475000D01*
G75*
G02*
X146975000Y-128375000I0J100000D01*
G01*
G37*
G36*
G01*
X146975000Y-127725000D02*
X146975000Y-127525000D01*
G75*
G02*
X147075000Y-127425000I100000J0D01*
G01*
X148350000Y-127425000D01*
G75*
G02*
X148450000Y-127525000I0J-100000D01*
G01*
X148450000Y-127725000D01*
G75*
G02*
X148350000Y-127825000I-100000J0D01*
G01*
X147075000Y-127825000D01*
G75*
G02*
X146975000Y-127725000I0J100000D01*
G01*
G37*
G36*
G01*
X146975000Y-127075000D02*
X146975000Y-126875000D01*
G75*
G02*
X147075000Y-126775000I100000J0D01*
G01*
X148350000Y-126775000D01*
G75*
G02*
X148450000Y-126875000I0J-100000D01*
G01*
X148450000Y-127075000D01*
G75*
G02*
X148350000Y-127175000I-100000J0D01*
G01*
X147075000Y-127175000D01*
G75*
G02*
X146975000Y-127075000I0J100000D01*
G01*
G37*
G36*
G01*
X165100000Y-85905000D02*
X165100000Y-86205000D01*
G75*
G02*
X164950000Y-86355000I-150000J0D01*
G01*
X163300000Y-86355000D01*
G75*
G02*
X163150000Y-86205000I0J150000D01*
G01*
X163150000Y-85905000D01*
G75*
G02*
X163300000Y-85755000I150000J0D01*
G01*
X164950000Y-85755000D01*
G75*
G02*
X165100000Y-85905000I0J-150000D01*
G01*
G37*
G36*
G01*
X165100000Y-84635000D02*
X165100000Y-84935000D01*
G75*
G02*
X164950000Y-85085000I-150000J0D01*
G01*
X163300000Y-85085000D01*
G75*
G02*
X163150000Y-84935000I0J150000D01*
G01*
X163150000Y-84635000D01*
G75*
G02*
X163300000Y-84485000I150000J0D01*
G01*
X164950000Y-84485000D01*
G75*
G02*
X165100000Y-84635000I0J-150000D01*
G01*
G37*
G36*
G01*
X165100000Y-83365000D02*
X165100000Y-83665000D01*
G75*
G02*
X164950000Y-83815000I-150000J0D01*
G01*
X163300000Y-83815000D01*
G75*
G02*
X163150000Y-83665000I0J150000D01*
G01*
X163150000Y-83365000D01*
G75*
G02*
X163300000Y-83215000I150000J0D01*
G01*
X164950000Y-83215000D01*
G75*
G02*
X165100000Y-83365000I0J-150000D01*
G01*
G37*
G36*
G01*
X165100000Y-82095000D02*
X165100000Y-82395000D01*
G75*
G02*
X164950000Y-82545000I-150000J0D01*
G01*
X163300000Y-82545000D01*
G75*
G02*
X163150000Y-82395000I0J150000D01*
G01*
X163150000Y-82095000D01*
G75*
G02*
X163300000Y-81945000I150000J0D01*
G01*
X164950000Y-81945000D01*
G75*
G02*
X165100000Y-82095000I0J-150000D01*
G01*
G37*
G36*
G01*
X160150000Y-82095000D02*
X160150000Y-82395000D01*
G75*
G02*
X160000000Y-82545000I-150000J0D01*
G01*
X158350000Y-82545000D01*
G75*
G02*
X158200000Y-82395000I0J150000D01*
G01*
X158200000Y-82095000D01*
G75*
G02*
X158350000Y-81945000I150000J0D01*
G01*
X160000000Y-81945000D01*
G75*
G02*
X160150000Y-82095000I0J-150000D01*
G01*
G37*
G36*
G01*
X160150000Y-83365000D02*
X160150000Y-83665000D01*
G75*
G02*
X160000000Y-83815000I-150000J0D01*
G01*
X158350000Y-83815000D01*
G75*
G02*
X158200000Y-83665000I0J150000D01*
G01*
X158200000Y-83365000D01*
G75*
G02*
X158350000Y-83215000I150000J0D01*
G01*
X160000000Y-83215000D01*
G75*
G02*
X160150000Y-83365000I0J-150000D01*
G01*
G37*
G36*
G01*
X160150000Y-84635000D02*
X160150000Y-84935000D01*
G75*
G02*
X160000000Y-85085000I-150000J0D01*
G01*
X158350000Y-85085000D01*
G75*
G02*
X158200000Y-84935000I0J150000D01*
G01*
X158200000Y-84635000D01*
G75*
G02*
X158350000Y-84485000I150000J0D01*
G01*
X160000000Y-84485000D01*
G75*
G02*
X160150000Y-84635000I0J-150000D01*
G01*
G37*
G36*
G01*
X160150000Y-85905000D02*
X160150000Y-86205000D01*
G75*
G02*
X160000000Y-86355000I-150000J0D01*
G01*
X158350000Y-86355000D01*
G75*
G02*
X158200000Y-86205000I0J150000D01*
G01*
X158200000Y-85905000D01*
G75*
G02*
X158350000Y-85755000I150000J0D01*
G01*
X160000000Y-85755000D01*
G75*
G02*
X160150000Y-85905000I0J-150000D01*
G01*
G37*
D23*
X112850000Y-85100000D03*
X111250000Y-85100000D03*
X112850000Y-89200000D03*
X111250000Y-89200000D03*
X116250000Y-89200000D03*
X117850000Y-89200000D03*
X116250000Y-85100000D03*
X117850000Y-85100000D03*
X113850000Y-96000000D03*
X115450000Y-96000000D03*
X113850000Y-91900000D03*
X115450000Y-91900000D03*
G36*
G01*
X134395000Y-84670000D02*
X133445000Y-84670000D01*
G75*
G02*
X133195000Y-84420000I0J250000D01*
G01*
X133195000Y-83920000D01*
G75*
G02*
X133445000Y-83670000I250000J0D01*
G01*
X134395000Y-83670000D01*
G75*
G02*
X134645000Y-83920000I0J-250000D01*
G01*
X134645000Y-84420000D01*
G75*
G02*
X134395000Y-84670000I-250000J0D01*
G01*
G37*
G36*
G01*
X134395000Y-82770000D02*
X133445000Y-82770000D01*
G75*
G02*
X133195000Y-82520000I0J250000D01*
G01*
X133195000Y-82020000D01*
G75*
G02*
X133445000Y-81770000I250000J0D01*
G01*
X134395000Y-81770000D01*
G75*
G02*
X134645000Y-82020000I0J-250000D01*
G01*
X134645000Y-82520000D01*
G75*
G02*
X134395000Y-82770000I-250000J0D01*
G01*
G37*
G36*
G01*
X118375000Y-82875000D02*
X118375000Y-83425000D01*
G75*
G02*
X118175000Y-83625000I-200000J0D01*
G01*
X117775000Y-83625000D01*
G75*
G02*
X117575000Y-83425000I0J200000D01*
G01*
X117575000Y-82875000D01*
G75*
G02*
X117775000Y-82675000I200000J0D01*
G01*
X118175000Y-82675000D01*
G75*
G02*
X118375000Y-82875000I0J-200000D01*
G01*
G37*
G36*
G01*
X116725000Y-82875000D02*
X116725000Y-83425000D01*
G75*
G02*
X116525000Y-83625000I-200000J0D01*
G01*
X116125000Y-83625000D01*
G75*
G02*
X115925000Y-83425000I0J200000D01*
G01*
X115925000Y-82875000D01*
G75*
G02*
X116125000Y-82675000I200000J0D01*
G01*
X116525000Y-82675000D01*
G75*
G02*
X116725000Y-82875000I0J-200000D01*
G01*
G37*
G36*
G01*
X116875000Y-93075000D02*
X117425000Y-93075000D01*
G75*
G02*
X117625000Y-93275000I0J-200000D01*
G01*
X117625000Y-93675000D01*
G75*
G02*
X117425000Y-93875000I-200000J0D01*
G01*
X116875000Y-93875000D01*
G75*
G02*
X116675000Y-93675000I0J200000D01*
G01*
X116675000Y-93275000D01*
G75*
G02*
X116875000Y-93075000I200000J0D01*
G01*
G37*
G36*
G01*
X116875000Y-91425000D02*
X117425000Y-91425000D01*
G75*
G02*
X117625000Y-91625000I0J-200000D01*
G01*
X117625000Y-92025000D01*
G75*
G02*
X117425000Y-92225000I-200000J0D01*
G01*
X116875000Y-92225000D01*
G75*
G02*
X116675000Y-92025000I0J200000D01*
G01*
X116675000Y-91625000D01*
G75*
G02*
X116875000Y-91425000I200000J0D01*
G01*
G37*
D24*
X120370000Y-95350000D03*
X124930000Y-95350000D03*
D25*
X122650000Y-89050000D03*
D26*
X119245000Y-112320000D03*
X120515000Y-112320000D03*
X121785000Y-112320000D03*
X123055000Y-112320000D03*
D27*
X123055000Y-106855000D03*
X121785000Y-106855000D03*
X120515000Y-106855000D03*
X119245000Y-106855000D03*
D28*
X121150000Y-108960000D03*
X129625000Y-102960000D03*
D27*
X127720000Y-100855000D03*
X128990000Y-100855000D03*
X130260000Y-100855000D03*
X131530000Y-100855000D03*
D26*
X131530000Y-106320000D03*
X130260000Y-106320000D03*
X128990000Y-106320000D03*
X127720000Y-106320000D03*
G36*
G01*
X111675000Y-122575000D02*
X111675000Y-123125000D01*
G75*
G02*
X111475000Y-123325000I-200000J0D01*
G01*
X111075000Y-123325000D01*
G75*
G02*
X110875000Y-123125000I0J200000D01*
G01*
X110875000Y-122575000D01*
G75*
G02*
X111075000Y-122375000I200000J0D01*
G01*
X111475000Y-122375000D01*
G75*
G02*
X111675000Y-122575000I0J-200000D01*
G01*
G37*
G36*
G01*
X110025000Y-122575000D02*
X110025000Y-123125000D01*
G75*
G02*
X109825000Y-123325000I-200000J0D01*
G01*
X109425000Y-123325000D01*
G75*
G02*
X109225000Y-123125000I0J200000D01*
G01*
X109225000Y-122575000D01*
G75*
G02*
X109425000Y-122375000I200000J0D01*
G01*
X109825000Y-122375000D01*
G75*
G02*
X110025000Y-122575000I0J-200000D01*
G01*
G37*
G36*
G01*
X133525000Y-101875000D02*
X133525000Y-102425000D01*
G75*
G02*
X133325000Y-102625000I-200000J0D01*
G01*
X132925000Y-102625000D01*
G75*
G02*
X132725000Y-102425000I0J200000D01*
G01*
X132725000Y-101875000D01*
G75*
G02*
X132925000Y-101675000I200000J0D01*
G01*
X133325000Y-101675000D01*
G75*
G02*
X133525000Y-101875000I0J-200000D01*
G01*
G37*
G36*
G01*
X135175000Y-101875000D02*
X135175000Y-102425000D01*
G75*
G02*
X134975000Y-102625000I-200000J0D01*
G01*
X134575000Y-102625000D01*
G75*
G02*
X134375000Y-102425000I0J200000D01*
G01*
X134375000Y-101875000D01*
G75*
G02*
X134575000Y-101675000I200000J0D01*
G01*
X134975000Y-101675000D01*
G75*
G02*
X135175000Y-101875000I0J-200000D01*
G01*
G37*
G36*
G01*
X132350000Y-112530000D02*
X132350000Y-112830000D01*
G75*
G02*
X132200000Y-112980000I-150000J0D01*
G01*
X130850000Y-112980000D01*
G75*
G02*
X130700000Y-112830000I0J150000D01*
G01*
X130700000Y-112530000D01*
G75*
G02*
X130850000Y-112380000I150000J0D01*
G01*
X132200000Y-112380000D01*
G75*
G02*
X132350000Y-112530000I0J-150000D01*
G01*
G37*
G36*
G01*
X132350000Y-111260000D02*
X132350000Y-111560000D01*
G75*
G02*
X132200000Y-111710000I-150000J0D01*
G01*
X130850000Y-111710000D01*
G75*
G02*
X130700000Y-111560000I0J150000D01*
G01*
X130700000Y-111260000D01*
G75*
G02*
X130850000Y-111110000I150000J0D01*
G01*
X132200000Y-111110000D01*
G75*
G02*
X132350000Y-111260000I0J-150000D01*
G01*
G37*
G36*
G01*
X132350000Y-109990000D02*
X132350000Y-110290000D01*
G75*
G02*
X132200000Y-110440000I-150000J0D01*
G01*
X130850000Y-110440000D01*
G75*
G02*
X130700000Y-110290000I0J150000D01*
G01*
X130700000Y-109990000D01*
G75*
G02*
X130850000Y-109840000I150000J0D01*
G01*
X132200000Y-109840000D01*
G75*
G02*
X132350000Y-109990000I0J-150000D01*
G01*
G37*
G36*
G01*
X132350000Y-108720000D02*
X132350000Y-109020000D01*
G75*
G02*
X132200000Y-109170000I-150000J0D01*
G01*
X130850000Y-109170000D01*
G75*
G02*
X130700000Y-109020000I0J150000D01*
G01*
X130700000Y-108720000D01*
G75*
G02*
X130850000Y-108570000I150000J0D01*
G01*
X132200000Y-108570000D01*
G75*
G02*
X132350000Y-108720000I0J-150000D01*
G01*
G37*
G36*
G01*
X127100000Y-108720000D02*
X127100000Y-109020000D01*
G75*
G02*
X126950000Y-109170000I-150000J0D01*
G01*
X125600000Y-109170000D01*
G75*
G02*
X125450000Y-109020000I0J150000D01*
G01*
X125450000Y-108720000D01*
G75*
G02*
X125600000Y-108570000I150000J0D01*
G01*
X126950000Y-108570000D01*
G75*
G02*
X127100000Y-108720000I0J-150000D01*
G01*
G37*
G36*
G01*
X127100000Y-109990000D02*
X127100000Y-110290000D01*
G75*
G02*
X126950000Y-110440000I-150000J0D01*
G01*
X125600000Y-110440000D01*
G75*
G02*
X125450000Y-110290000I0J150000D01*
G01*
X125450000Y-109990000D01*
G75*
G02*
X125600000Y-109840000I150000J0D01*
G01*
X126950000Y-109840000D01*
G75*
G02*
X127100000Y-109990000I0J-150000D01*
G01*
G37*
G36*
G01*
X127100000Y-111260000D02*
X127100000Y-111560000D01*
G75*
G02*
X126950000Y-111710000I-150000J0D01*
G01*
X125600000Y-111710000D01*
G75*
G02*
X125450000Y-111560000I0J150000D01*
G01*
X125450000Y-111260000D01*
G75*
G02*
X125600000Y-111110000I150000J0D01*
G01*
X126950000Y-111110000D01*
G75*
G02*
X127100000Y-111260000I0J-150000D01*
G01*
G37*
G36*
G01*
X127100000Y-112530000D02*
X127100000Y-112830000D01*
G75*
G02*
X126950000Y-112980000I-150000J0D01*
G01*
X125600000Y-112980000D01*
G75*
G02*
X125450000Y-112830000I0J150000D01*
G01*
X125450000Y-112530000D01*
G75*
G02*
X125600000Y-112380000I150000J0D01*
G01*
X126950000Y-112380000D01*
G75*
G02*
X127100000Y-112530000I0J-150000D01*
G01*
G37*
D10*
X113450000Y-107950000D03*
G36*
G01*
X114950000Y-118150000D02*
X111950000Y-118150000D01*
G75*
G02*
X110450000Y-116650000I0J1500000D01*
G01*
X110450000Y-113650000D01*
G75*
G02*
X111950000Y-112150000I1500000J0D01*
G01*
X114950000Y-112150000D01*
G75*
G02*
X116450000Y-113650000I0J-1500000D01*
G01*
X116450000Y-116650000D01*
G75*
G02*
X114950000Y-118150000I-1500000J0D01*
G01*
G37*
X158950000Y-115650000D03*
G36*
G01*
X169150000Y-114150000D02*
X169150000Y-117150000D01*
G75*
G02*
X167650000Y-118650000I-1500000J0D01*
G01*
X164650000Y-118650000D01*
G75*
G02*
X163150000Y-117150000I0J1500000D01*
G01*
X163150000Y-114150000D01*
G75*
G02*
X164650000Y-112650000I1500000J0D01*
G01*
X167650000Y-112650000D01*
G75*
G02*
X169150000Y-114150000I0J-1500000D01*
G01*
G37*
G36*
G01*
X169150000Y-104650000D02*
X169150000Y-107650000D01*
G75*
G02*
X167650000Y-109150000I-1500000J0D01*
G01*
X164650000Y-109150000D01*
G75*
G02*
X163150000Y-107650000I0J1500000D01*
G01*
X163150000Y-104650000D01*
G75*
G02*
X164650000Y-103150000I1500000J0D01*
G01*
X167650000Y-103150000D01*
G75*
G02*
X169150000Y-104650000I0J-1500000D01*
G01*
G37*
X158950000Y-106150000D03*
D29*
X142980000Y-119995000D03*
X142980000Y-121265000D03*
X142980000Y-122535000D03*
X142980000Y-123805000D03*
D30*
X148445000Y-123805000D03*
X148445000Y-122535000D03*
X148445000Y-121265000D03*
X148445000Y-119995000D03*
D31*
X146340000Y-121900000D03*
X146340000Y-112900000D03*
D30*
X148445000Y-110995000D03*
X148445000Y-112265000D03*
X148445000Y-113535000D03*
X148445000Y-114805000D03*
D29*
X142980000Y-114805000D03*
X142980000Y-113535000D03*
X142980000Y-112265000D03*
X142980000Y-110995000D03*
X142980000Y-102345000D03*
X142980000Y-103615000D03*
X142980000Y-104885000D03*
X142980000Y-106155000D03*
D30*
X148445000Y-106155000D03*
X148445000Y-104885000D03*
X148445000Y-103615000D03*
X148445000Y-102345000D03*
D31*
X146340000Y-104250000D03*
G36*
G01*
X144275000Y-125825000D02*
X144275000Y-125275000D01*
G75*
G02*
X144475000Y-125075000I200000J0D01*
G01*
X144875000Y-125075000D01*
G75*
G02*
X145075000Y-125275000I0J-200000D01*
G01*
X145075000Y-125825000D01*
G75*
G02*
X144875000Y-126025000I-200000J0D01*
G01*
X144475000Y-126025000D01*
G75*
G02*
X144275000Y-125825000I0J200000D01*
G01*
G37*
G36*
G01*
X142625000Y-125825000D02*
X142625000Y-125275000D01*
G75*
G02*
X142825000Y-125075000I200000J0D01*
G01*
X143225000Y-125075000D01*
G75*
G02*
X143425000Y-125275000I0J-200000D01*
G01*
X143425000Y-125825000D01*
G75*
G02*
X143225000Y-126025000I-200000J0D01*
G01*
X142825000Y-126025000D01*
G75*
G02*
X142625000Y-125825000I0J200000D01*
G01*
G37*
G36*
G01*
X143275000Y-118405000D02*
X142725000Y-118405000D01*
G75*
G02*
X142525000Y-118205000I0J200000D01*
G01*
X142525000Y-117805000D01*
G75*
G02*
X142725000Y-117605000I200000J0D01*
G01*
X143275000Y-117605000D01*
G75*
G02*
X143475000Y-117805000I0J-200000D01*
G01*
X143475000Y-118205000D01*
G75*
G02*
X143275000Y-118405000I-200000J0D01*
G01*
G37*
G36*
G01*
X143275000Y-116755000D02*
X142725000Y-116755000D01*
G75*
G02*
X142525000Y-116555000I0J200000D01*
G01*
X142525000Y-116155000D01*
G75*
G02*
X142725000Y-115955000I200000J0D01*
G01*
X143275000Y-115955000D01*
G75*
G02*
X143475000Y-116155000I0J-200000D01*
G01*
X143475000Y-116555000D01*
G75*
G02*
X143275000Y-116755000I-200000J0D01*
G01*
G37*
G36*
G01*
X115300000Y-129425000D02*
X115300000Y-128875000D01*
G75*
G02*
X115500000Y-128675000I200000J0D01*
G01*
X115900000Y-128675000D01*
G75*
G02*
X116100000Y-128875000I0J-200000D01*
G01*
X116100000Y-129425000D01*
G75*
G02*
X115900000Y-129625000I-200000J0D01*
G01*
X115500000Y-129625000D01*
G75*
G02*
X115300000Y-129425000I0J200000D01*
G01*
G37*
G36*
G01*
X116950000Y-129425000D02*
X116950000Y-128875000D01*
G75*
G02*
X117150000Y-128675000I200000J0D01*
G01*
X117550000Y-128675000D01*
G75*
G02*
X117750000Y-128875000I0J-200000D01*
G01*
X117750000Y-129425000D01*
G75*
G02*
X117550000Y-129625000I-200000J0D01*
G01*
X117150000Y-129625000D01*
G75*
G02*
X116950000Y-129425000I0J200000D01*
G01*
G37*
G36*
G01*
X114125000Y-127125000D02*
X114125000Y-126575000D01*
G75*
G02*
X114325000Y-126375000I200000J0D01*
G01*
X114725000Y-126375000D01*
G75*
G02*
X114925000Y-126575000I0J-200000D01*
G01*
X114925000Y-127125000D01*
G75*
G02*
X114725000Y-127325000I-200000J0D01*
G01*
X114325000Y-127325000D01*
G75*
G02*
X114125000Y-127125000I0J200000D01*
G01*
G37*
G36*
G01*
X115775000Y-127125000D02*
X115775000Y-126575000D01*
G75*
G02*
X115975000Y-126375000I200000J0D01*
G01*
X116375000Y-126375000D01*
G75*
G02*
X116575000Y-126575000I0J-200000D01*
G01*
X116575000Y-127125000D01*
G75*
G02*
X116375000Y-127325000I-200000J0D01*
G01*
X115975000Y-127325000D01*
G75*
G02*
X115775000Y-127125000I0J200000D01*
G01*
G37*
G36*
G01*
X144515000Y-107915000D02*
X143965000Y-107915000D01*
G75*
G02*
X143765000Y-107715000I0J200000D01*
G01*
X143765000Y-107315000D01*
G75*
G02*
X143965000Y-107115000I200000J0D01*
G01*
X144515000Y-107115000D01*
G75*
G02*
X144715000Y-107315000I0J-200000D01*
G01*
X144715000Y-107715000D01*
G75*
G02*
X144515000Y-107915000I-200000J0D01*
G01*
G37*
G36*
G01*
X144515000Y-109565000D02*
X143965000Y-109565000D01*
G75*
G02*
X143765000Y-109365000I0J200000D01*
G01*
X143765000Y-108965000D01*
G75*
G02*
X143965000Y-108765000I200000J0D01*
G01*
X144515000Y-108765000D01*
G75*
G02*
X144715000Y-108965000I0J-200000D01*
G01*
X144715000Y-109365000D01*
G75*
G02*
X144515000Y-109565000I-200000J0D01*
G01*
G37*
G36*
G01*
X124600000Y-104405000D02*
X124600000Y-104705000D01*
G75*
G02*
X124450000Y-104855000I-150000J0D01*
G01*
X123100000Y-104855000D01*
G75*
G02*
X122950000Y-104705000I0J150000D01*
G01*
X122950000Y-104405000D01*
G75*
G02*
X123100000Y-104255000I150000J0D01*
G01*
X124450000Y-104255000D01*
G75*
G02*
X124600000Y-104405000I0J-150000D01*
G01*
G37*
G36*
G01*
X124600000Y-103135000D02*
X124600000Y-103435000D01*
G75*
G02*
X124450000Y-103585000I-150000J0D01*
G01*
X123100000Y-103585000D01*
G75*
G02*
X122950000Y-103435000I0J150000D01*
G01*
X122950000Y-103135000D01*
G75*
G02*
X123100000Y-102985000I150000J0D01*
G01*
X124450000Y-102985000D01*
G75*
G02*
X124600000Y-103135000I0J-150000D01*
G01*
G37*
G36*
G01*
X124600000Y-101865000D02*
X124600000Y-102165000D01*
G75*
G02*
X124450000Y-102315000I-150000J0D01*
G01*
X123100000Y-102315000D01*
G75*
G02*
X122950000Y-102165000I0J150000D01*
G01*
X122950000Y-101865000D01*
G75*
G02*
X123100000Y-101715000I150000J0D01*
G01*
X124450000Y-101715000D01*
G75*
G02*
X124600000Y-101865000I0J-150000D01*
G01*
G37*
G36*
G01*
X124600000Y-100595000D02*
X124600000Y-100895000D01*
G75*
G02*
X124450000Y-101045000I-150000J0D01*
G01*
X123100000Y-101045000D01*
G75*
G02*
X122950000Y-100895000I0J150000D01*
G01*
X122950000Y-100595000D01*
G75*
G02*
X123100000Y-100445000I150000J0D01*
G01*
X124450000Y-100445000D01*
G75*
G02*
X124600000Y-100595000I0J-150000D01*
G01*
G37*
G36*
G01*
X119350000Y-100595000D02*
X119350000Y-100895000D01*
G75*
G02*
X119200000Y-101045000I-150000J0D01*
G01*
X117850000Y-101045000D01*
G75*
G02*
X117700000Y-100895000I0J150000D01*
G01*
X117700000Y-100595000D01*
G75*
G02*
X117850000Y-100445000I150000J0D01*
G01*
X119200000Y-100445000D01*
G75*
G02*
X119350000Y-100595000I0J-150000D01*
G01*
G37*
G36*
G01*
X119350000Y-101865000D02*
X119350000Y-102165000D01*
G75*
G02*
X119200000Y-102315000I-150000J0D01*
G01*
X117850000Y-102315000D01*
G75*
G02*
X117700000Y-102165000I0J150000D01*
G01*
X117700000Y-101865000D01*
G75*
G02*
X117850000Y-101715000I150000J0D01*
G01*
X119200000Y-101715000D01*
G75*
G02*
X119350000Y-101865000I0J-150000D01*
G01*
G37*
G36*
G01*
X119350000Y-103135000D02*
X119350000Y-103435000D01*
G75*
G02*
X119200000Y-103585000I-150000J0D01*
G01*
X117850000Y-103585000D01*
G75*
G02*
X117700000Y-103435000I0J150000D01*
G01*
X117700000Y-103135000D01*
G75*
G02*
X117850000Y-102985000I150000J0D01*
G01*
X119200000Y-102985000D01*
G75*
G02*
X119350000Y-103135000I0J-150000D01*
G01*
G37*
G36*
G01*
X119350000Y-104405000D02*
X119350000Y-104705000D01*
G75*
G02*
X119200000Y-104855000I-150000J0D01*
G01*
X117850000Y-104855000D01*
G75*
G02*
X117700000Y-104705000I0J150000D01*
G01*
X117700000Y-104405000D01*
G75*
G02*
X117850000Y-104255000I150000J0D01*
G01*
X119200000Y-104255000D01*
G75*
G02*
X119350000Y-104405000I0J-150000D01*
G01*
G37*
D10*
X158950000Y-125150000D03*
G36*
G01*
X169150000Y-123650000D02*
X169150000Y-126650000D01*
G75*
G02*
X167650000Y-128150000I-1500000J0D01*
G01*
X164650000Y-128150000D01*
G75*
G02*
X163150000Y-126650000I0J1500000D01*
G01*
X163150000Y-123650000D01*
G75*
G02*
X164650000Y-122150000I1500000J0D01*
G01*
X167650000Y-122150000D01*
G75*
G02*
X169150000Y-123650000I0J-1500000D01*
G01*
G37*
G36*
G01*
X116575000Y-98975000D02*
X116575000Y-99525000D01*
G75*
G02*
X116375000Y-99725000I-200000J0D01*
G01*
X115975000Y-99725000D01*
G75*
G02*
X115775000Y-99525000I0J200000D01*
G01*
X115775000Y-98975000D01*
G75*
G02*
X115975000Y-98775000I200000J0D01*
G01*
X116375000Y-98775000D01*
G75*
G02*
X116575000Y-98975000I0J-200000D01*
G01*
G37*
G36*
G01*
X114925000Y-98975000D02*
X114925000Y-99525000D01*
G75*
G02*
X114725000Y-99725000I-200000J0D01*
G01*
X114325000Y-99725000D01*
G75*
G02*
X114125000Y-99525000I0J200000D01*
G01*
X114125000Y-98975000D01*
G75*
G02*
X114325000Y-98775000I200000J0D01*
G01*
X114725000Y-98775000D01*
G75*
G02*
X114925000Y-98975000I0J-200000D01*
G01*
G37*
G36*
G01*
X111925000Y-99475000D02*
X111925000Y-100025000D01*
G75*
G02*
X111725000Y-100225000I-200000J0D01*
G01*
X111325000Y-100225000D01*
G75*
G02*
X111125000Y-100025000I0J200000D01*
G01*
X111125000Y-99475000D01*
G75*
G02*
X111325000Y-99275000I200000J0D01*
G01*
X111725000Y-99275000D01*
G75*
G02*
X111925000Y-99475000I0J-200000D01*
G01*
G37*
G36*
G01*
X113575000Y-99475000D02*
X113575000Y-100025000D01*
G75*
G02*
X113375000Y-100225000I-200000J0D01*
G01*
X112975000Y-100225000D01*
G75*
G02*
X112775000Y-100025000I0J200000D01*
G01*
X112775000Y-99475000D01*
G75*
G02*
X112975000Y-99275000I200000J0D01*
G01*
X113375000Y-99275000D01*
G75*
G02*
X113575000Y-99475000I0J-200000D01*
G01*
G37*
G36*
G01*
X151025000Y-132875000D02*
X150475000Y-132875000D01*
G75*
G02*
X150275000Y-132675000I0J200000D01*
G01*
X150275000Y-132275000D01*
G75*
G02*
X150475000Y-132075000I200000J0D01*
G01*
X151025000Y-132075000D01*
G75*
G02*
X151225000Y-132275000I0J-200000D01*
G01*
X151225000Y-132675000D01*
G75*
G02*
X151025000Y-132875000I-200000J0D01*
G01*
G37*
G36*
G01*
X151025000Y-131225000D02*
X150475000Y-131225000D01*
G75*
G02*
X150275000Y-131025000I0J200000D01*
G01*
X150275000Y-130625000D01*
G75*
G02*
X150475000Y-130425000I200000J0D01*
G01*
X151025000Y-130425000D01*
G75*
G02*
X151225000Y-130625000I0J-200000D01*
G01*
X151225000Y-131025000D01*
G75*
G02*
X151025000Y-131225000I-200000J0D01*
G01*
G37*
G36*
G01*
X152375000Y-132725000D02*
X152925000Y-132725000D01*
G75*
G02*
X153125000Y-132925000I0J-200000D01*
G01*
X153125000Y-133325000D01*
G75*
G02*
X152925000Y-133525000I-200000J0D01*
G01*
X152375000Y-133525000D01*
G75*
G02*
X152175000Y-133325000I0J200000D01*
G01*
X152175000Y-132925000D01*
G75*
G02*
X152375000Y-132725000I200000J0D01*
G01*
G37*
G36*
G01*
X152375000Y-131075000D02*
X152925000Y-131075000D01*
G75*
G02*
X153125000Y-131275000I0J-200000D01*
G01*
X153125000Y-131675000D01*
G75*
G02*
X152925000Y-131875000I-200000J0D01*
G01*
X152375000Y-131875000D01*
G75*
G02*
X152175000Y-131675000I0J200000D01*
G01*
X152175000Y-131275000D01*
G75*
G02*
X152375000Y-131075000I200000J0D01*
G01*
G37*
G36*
G01*
X137675001Y-125200000D02*
X136824999Y-125200000D01*
G75*
G02*
X136575000Y-124950001I0J249999D01*
G01*
X136575000Y-124049999D01*
G75*
G02*
X136824999Y-123800000I249999J0D01*
G01*
X137675001Y-123800000D01*
G75*
G02*
X137925000Y-124049999I0J-249999D01*
G01*
X137925000Y-124950001D01*
G75*
G02*
X137675001Y-125200000I-249999J0D01*
G01*
G37*
G36*
G01*
X137675001Y-122500000D02*
X136824999Y-122500000D01*
G75*
G02*
X136575000Y-122250001I0J249999D01*
G01*
X136575000Y-121349999D01*
G75*
G02*
X136824999Y-121100000I249999J0D01*
G01*
X137675001Y-121100000D01*
G75*
G02*
X137925000Y-121349999I0J-249999D01*
G01*
X137925000Y-122250001D01*
G75*
G02*
X137675001Y-122500000I-249999J0D01*
G01*
G37*
G36*
G01*
X138824999Y-130250000D02*
X139675001Y-130250000D01*
G75*
G02*
X139925000Y-130499999I0J-249999D01*
G01*
X139925000Y-131400001D01*
G75*
G02*
X139675001Y-131650000I-249999J0D01*
G01*
X138824999Y-131650000D01*
G75*
G02*
X138575000Y-131400001I0J249999D01*
G01*
X138575000Y-130499999D01*
G75*
G02*
X138824999Y-130250000I249999J0D01*
G01*
G37*
G36*
G01*
X138824999Y-127550000D02*
X139675001Y-127550000D01*
G75*
G02*
X139925000Y-127799999I0J-249999D01*
G01*
X139925000Y-128700001D01*
G75*
G02*
X139675001Y-128950000I-249999J0D01*
G01*
X138824999Y-128950000D01*
G75*
G02*
X138575000Y-128700001I0J249999D01*
G01*
X138575000Y-127799999D01*
G75*
G02*
X138824999Y-127550000I249999J0D01*
G01*
G37*
G36*
G01*
X130300000Y-81324999D02*
X130300000Y-82175001D01*
G75*
G02*
X130050001Y-82425000I-249999J0D01*
G01*
X129149999Y-82425000D01*
G75*
G02*
X128900000Y-82175001I0J249999D01*
G01*
X128900000Y-81324999D01*
G75*
G02*
X129149999Y-81075000I249999J0D01*
G01*
X130050001Y-81075000D01*
G75*
G02*
X130300000Y-81324999I0J-249999D01*
G01*
G37*
G36*
G01*
X127600000Y-81324999D02*
X127600000Y-82175001D01*
G75*
G02*
X127350001Y-82425000I-249999J0D01*
G01*
X126449999Y-82425000D01*
G75*
G02*
X126200000Y-82175001I0J249999D01*
G01*
X126200000Y-81324999D01*
G75*
G02*
X126449999Y-81075000I249999J0D01*
G01*
X127350001Y-81075000D01*
G75*
G02*
X127600000Y-81324999I0J-249999D01*
G01*
G37*
M02*
