G04 #@! TF.GenerationSoftware,KiCad,Pcbnew,(5.1.7-0-10_14)*
G04 #@! TF.CreationDate,2020-11-13T20:56:13+11:00*
G04 #@! TF.ProjectId,esp32_battery_isolator,65737033-325f-4626-9174-746572795f69,rev?*
G04 #@! TF.SameCoordinates,Original*
G04 #@! TF.FileFunction,Copper,L2,Bot*
G04 #@! TF.FilePolarity,Positive*
%FSLAX46Y46*%
G04 Gerber Fmt 4.6, Leading zero omitted, Abs format (unit mm)*
G04 Created by KiCad (PCBNEW (5.1.7-0-10_14)) date 2020-11-13 20:56:13*
%MOMM*%
%LPD*%
G01*
G04 APERTURE LIST*
G04 #@! TA.AperFunction,ComponentPad*
%ADD10C,6.500000*%
G04 #@! TD*
G04 #@! TA.AperFunction,ComponentPad*
%ADD11C,0.800000*%
G04 #@! TD*
G04 #@! TA.AperFunction,ComponentPad*
%ADD12C,6.400000*%
G04 #@! TD*
G04 #@! TA.AperFunction,ComponentPad*
%ADD13C,6.000000*%
G04 #@! TD*
G04 #@! TA.AperFunction,ComponentPad*
%ADD14R,1.700000X1.700000*%
G04 #@! TD*
G04 #@! TA.AperFunction,ComponentPad*
%ADD15O,1.700000X1.700000*%
G04 #@! TD*
G04 #@! TA.AperFunction,ComponentPad*
%ADD16R,3.300000X3.300000*%
G04 #@! TD*
G04 #@! TA.AperFunction,ComponentPad*
%ADD17C,4.000000*%
G04 #@! TD*
G04 #@! TA.AperFunction,ComponentPad*
%ADD18C,3.300000*%
G04 #@! TD*
G04 #@! TA.AperFunction,ViaPad*
%ADD19C,0.800000*%
G04 #@! TD*
G04 #@! TA.AperFunction,Conductor*
%ADD20C,1.500000*%
G04 #@! TD*
G04 #@! TA.AperFunction,Conductor*
%ADD21C,0.200000*%
G04 #@! TD*
G04 #@! TA.AperFunction,Conductor*
%ADD22C,0.500000*%
G04 #@! TD*
G04 #@! TA.AperFunction,Conductor*
%ADD23C,0.254000*%
G04 #@! TD*
G04 #@! TA.AperFunction,Conductor*
%ADD24C,0.100000*%
G04 #@! TD*
G04 #@! TA.AperFunction,Conductor*
%ADD25C,0.150000*%
G04 #@! TD*
G04 #@! TA.AperFunction,Conductor*
%ADD26C,0.130000*%
G04 #@! TD*
G04 APERTURE END LIST*
D10*
X145000000Y-127075000D03*
G04 #@! TA.AperFunction,ComponentPad*
G36*
G01*
X146625000Y-137525000D02*
X143375000Y-137525000D01*
G75*
G02*
X141750000Y-135900000I0J1625000D01*
G01*
X141750000Y-132650000D01*
G75*
G02*
X143375000Y-131025000I1625000J0D01*
G01*
X146625000Y-131025000D01*
G75*
G02*
X148250000Y-132650000I0J-1625000D01*
G01*
X148250000Y-135900000D01*
G75*
G02*
X146625000Y-137525000I-1625000J0D01*
G01*
G37*
G04 #@! TD.AperFunction*
D11*
X107497056Y-135302944D03*
X105800000Y-134600000D03*
X104102944Y-135302944D03*
X103400000Y-137000000D03*
X104102944Y-138697056D03*
X105800000Y-139400000D03*
X107497056Y-138697056D03*
X108200000Y-137000000D03*
D12*
X105800000Y-137000000D03*
D11*
X186897056Y-77302944D03*
X185200000Y-76600000D03*
X183502944Y-77302944D03*
X182800000Y-79000000D03*
X183502944Y-80697056D03*
X185200000Y-81400000D03*
X186897056Y-80697056D03*
X187600000Y-79000000D03*
D12*
X185200000Y-79000000D03*
X185200000Y-137000000D03*
D11*
X187600000Y-137000000D03*
X186897056Y-138697056D03*
X185200000Y-139400000D03*
X183502944Y-138697056D03*
X182800000Y-137000000D03*
X183502944Y-135302944D03*
X185200000Y-134600000D03*
X186897056Y-135302944D03*
X107497056Y-77302944D03*
X105800000Y-76600000D03*
X104102944Y-77302944D03*
X103400000Y-79000000D03*
X104102944Y-80697056D03*
X105800000Y-81400000D03*
X107497056Y-80697056D03*
X108200000Y-79000000D03*
D12*
X105800000Y-79000000D03*
D10*
X170000000Y-127275000D03*
G04 #@! TA.AperFunction,ComponentPad*
G36*
G01*
X171500000Y-137725000D02*
X168500000Y-137725000D01*
G75*
G02*
X167000000Y-136225000I0J1500000D01*
G01*
X167000000Y-132725000D01*
G75*
G02*
X168500000Y-131225000I1500000J0D01*
G01*
X171500000Y-131225000D01*
G75*
G02*
X173000000Y-132725000I0J-1500000D01*
G01*
X173000000Y-136225000D01*
G75*
G02*
X171500000Y-137725000I-1500000J0D01*
G01*
G37*
G04 #@! TD.AperFunction*
D13*
X120350000Y-127225000D03*
G04 #@! TA.AperFunction,ComponentPad*
G36*
G01*
X121850000Y-137425000D02*
X118850000Y-137425000D01*
G75*
G02*
X117350000Y-135925000I0J1500000D01*
G01*
X117350000Y-132925000D01*
G75*
G02*
X118850000Y-131425000I1500000J0D01*
G01*
X121850000Y-131425000D01*
G75*
G02*
X123350000Y-132925000I0J-1500000D01*
G01*
X123350000Y-135925000D01*
G75*
G02*
X121850000Y-137425000I-1500000J0D01*
G01*
G37*
G04 #@! TD.AperFunction*
D14*
X176000000Y-79000000D03*
D15*
X176000000Y-81540000D03*
X176000000Y-84080000D03*
X176000000Y-86620000D03*
D16*
X119200000Y-115400000D03*
D17*
X109800000Y-107000000D03*
X127700000Y-107000000D03*
D18*
X119300000Y-98600000D03*
D17*
X127700000Y-110800000D03*
X127700000Y-103200000D03*
X105900000Y-107000000D03*
X113500000Y-107000000D03*
X170500000Y-107000000D03*
X162900000Y-107000000D03*
X184700000Y-103200000D03*
X184700000Y-110800000D03*
D18*
X176300000Y-98600000D03*
D17*
X184700000Y-107000000D03*
X166800000Y-107000000D03*
D16*
X176200000Y-115400000D03*
D19*
X134000000Y-128750000D03*
X127000000Y-116250000D03*
X118250000Y-85000000D03*
X109000000Y-98500000D03*
X126150000Y-93000000D03*
X148750000Y-85000000D03*
X160000000Y-87500000D03*
X179250000Y-84500000D03*
X184250000Y-96500000D03*
X104500000Y-85000000D03*
X137000000Y-123250000D03*
X178500000Y-128500000D03*
X185000000Y-116500000D03*
X155750000Y-83000000D03*
X142250000Y-86250000D03*
X140250000Y-90000000D03*
X144250000Y-94500000D03*
X149750000Y-94500000D03*
X167750000Y-77750000D03*
X165000000Y-77750000D03*
X186000000Y-127250000D03*
X124250000Y-77500000D03*
X118500000Y-80250000D03*
X124250000Y-80000000D03*
X186000000Y-132250000D03*
X177500000Y-132750000D03*
X171750000Y-97000000D03*
X164500000Y-97000000D03*
X140500000Y-118750000D03*
X110000000Y-129750000D03*
X164500000Y-127000000D03*
X175000000Y-122500000D03*
X152250000Y-129750000D03*
X103500000Y-130000000D03*
X103500000Y-132000000D03*
X110250000Y-133250000D03*
X128000000Y-132250000D03*
X134000000Y-132500004D03*
X152250000Y-133250006D03*
X164750000Y-133500000D03*
X175750000Y-134500000D03*
X137500000Y-101250000D03*
X130050000Y-97950000D03*
X139750000Y-98000000D03*
X133200000Y-88000000D03*
X127200000Y-85600000D03*
X132400000Y-91000000D03*
X130500000Y-83800000D03*
X158700000Y-92400000D03*
X156900000Y-96850000D03*
X127550000Y-119900000D03*
X127550000Y-125550000D03*
X128950000Y-95050000D03*
X105950000Y-119600000D03*
X108550000Y-125950000D03*
X102800000Y-117600000D03*
X119650000Y-94650000D03*
X122550000Y-96450000D03*
X125950000Y-98400000D03*
X118600000Y-112150000D03*
X124000000Y-116900000D03*
X128000000Y-130000001D03*
X160600000Y-99450000D03*
X163050000Y-99400000D03*
X165200000Y-99400000D03*
X167550000Y-99400000D03*
X169000000Y-88250000D03*
X169000000Y-86000000D03*
X157800000Y-98000000D03*
X151750000Y-85285000D03*
X150750000Y-82250000D03*
X182000000Y-93500000D03*
X134450000Y-96700000D03*
X119800000Y-81850000D03*
X181000000Y-123500000D03*
X181000000Y-125000000D03*
X182050000Y-101000000D03*
X180400000Y-102750000D03*
X179000000Y-104300000D03*
X178950000Y-110550000D03*
X180450000Y-112100000D03*
X182050000Y-113900000D03*
X125400000Y-105100000D03*
X125450000Y-108900000D03*
X131400000Y-88300000D03*
X133750000Y-90400000D03*
X153500000Y-100750000D03*
X150800000Y-102100000D03*
X127300000Y-99200000D03*
X127950000Y-96100000D03*
X134450000Y-92600000D03*
X130150000Y-87750000D03*
X116937500Y-131112500D03*
X123900000Y-131850000D03*
D20*
X186000000Y-132250000D02*
X186000000Y-127250000D01*
X177500000Y-129500000D02*
X178500000Y-128500000D01*
X177500000Y-132750000D02*
X177500000Y-129500000D01*
X103500000Y-130000000D02*
X103500000Y-132000000D01*
D21*
X137500000Y-100250000D02*
X139750000Y-98000000D01*
X137500000Y-101250000D02*
X137500000Y-100250000D01*
D20*
X134000000Y-128750000D02*
X134000000Y-132500004D01*
X152250000Y-129750000D02*
X152250000Y-133250006D01*
X110000000Y-133000000D02*
X110250000Y-133250000D01*
X110000000Y-129750000D02*
X110000000Y-133000000D01*
X128000000Y-132500000D02*
X128000000Y-130000001D01*
D22*
X169000000Y-86000000D02*
X169000000Y-88250000D01*
X171540000Y-86000000D02*
X176000000Y-81540000D01*
X169000000Y-86000000D02*
X171540000Y-86000000D01*
X159250000Y-98000000D02*
X157800000Y-98000000D01*
X169000000Y-88250000D02*
X159250000Y-98000000D01*
D21*
X151750000Y-85285000D02*
X151750000Y-83250000D01*
X151750000Y-83250000D02*
X150750000Y-82250000D01*
D22*
X181400000Y-93500000D02*
X182000000Y-93500000D01*
X176300000Y-98600000D02*
X181400000Y-93500000D01*
D21*
X119800000Y-82050000D02*
X119800000Y-81850000D01*
X134450000Y-96700000D02*
X119800000Y-82050000D01*
X131650000Y-88300000D02*
X131400000Y-88300000D01*
X133750000Y-90400000D02*
X131650000Y-88300000D01*
X152150000Y-102100000D02*
X150800000Y-102100000D01*
X153500000Y-100750000D02*
X152150000Y-102100000D01*
D22*
X127300000Y-96750000D02*
X127950000Y-96100000D01*
X127300000Y-99200000D02*
X127300000Y-96750000D01*
D21*
X134450000Y-92600000D02*
X132963998Y-92600000D01*
X132963998Y-92600000D02*
X130150000Y-89786002D01*
X130150000Y-89786002D02*
X130150000Y-87750000D01*
X123162500Y-131112500D02*
X116937500Y-131112500D01*
X123900000Y-131850000D02*
X123162500Y-131112500D01*
D23*
X187873000Y-121873000D02*
X185000000Y-121873000D01*
X184975224Y-121875440D01*
X184951399Y-121882667D01*
X184929443Y-121894403D01*
X184910197Y-121910197D01*
X184894403Y-121929443D01*
X184882667Y-121951399D01*
X184875440Y-121975224D01*
X184873000Y-122000000D01*
X184873000Y-127153839D01*
X184869001Y-127194442D01*
X184869001Y-127873000D01*
X179447288Y-127873000D01*
X179444942Y-127868610D01*
X179303607Y-127696393D01*
X179131390Y-127555058D01*
X178934909Y-127450037D01*
X178721715Y-127385365D01*
X178500000Y-127363528D01*
X178278285Y-127385365D01*
X178065091Y-127450037D01*
X177868610Y-127555058D01*
X177739547Y-127660977D01*
X177527524Y-127873000D01*
X177000000Y-127873000D01*
X176975224Y-127875440D01*
X176951399Y-127882667D01*
X176923800Y-127898400D01*
X172957667Y-130873000D01*
X171813156Y-130873000D01*
X171500000Y-130842157D01*
X168500000Y-130842157D01*
X168186844Y-130873000D01*
X166033834Y-130873000D01*
X159146791Y-126923078D01*
X163719000Y-126923078D01*
X163719000Y-127076922D01*
X163749013Y-127227809D01*
X163807887Y-127369942D01*
X163893358Y-127497859D01*
X164002141Y-127606642D01*
X164130058Y-127692113D01*
X164272191Y-127750987D01*
X164423078Y-127781000D01*
X164576922Y-127781000D01*
X164727809Y-127750987D01*
X164869942Y-127692113D01*
X164997859Y-127606642D01*
X165106642Y-127497859D01*
X165192113Y-127369942D01*
X165250987Y-127227809D01*
X165281000Y-127076922D01*
X165281000Y-126923078D01*
X165250987Y-126772191D01*
X165192113Y-126630058D01*
X165106642Y-126502141D01*
X164997859Y-126393358D01*
X164869942Y-126307887D01*
X164727809Y-126249013D01*
X164576922Y-126219000D01*
X164423078Y-126219000D01*
X164272191Y-126249013D01*
X164130058Y-126307887D01*
X164002141Y-126393358D01*
X163893358Y-126502141D01*
X163807887Y-126630058D01*
X163749013Y-126772191D01*
X163719000Y-126923078D01*
X159146791Y-126923078D01*
X151300637Y-122423078D01*
X174219000Y-122423078D01*
X174219000Y-122576922D01*
X174249013Y-122727809D01*
X174307887Y-122869942D01*
X174393358Y-122997859D01*
X174502141Y-123106642D01*
X174630058Y-123192113D01*
X174772191Y-123250987D01*
X174923078Y-123281000D01*
X175076922Y-123281000D01*
X175227809Y-123250987D01*
X175369942Y-123192113D01*
X175497859Y-123106642D01*
X175606642Y-122997859D01*
X175692113Y-122869942D01*
X175750987Y-122727809D01*
X175781000Y-122576922D01*
X175781000Y-122423078D01*
X175750987Y-122272191D01*
X175692113Y-122130058D01*
X175606642Y-122002141D01*
X175497859Y-121893358D01*
X175369942Y-121807887D01*
X175227809Y-121749013D01*
X175076922Y-121719000D01*
X174923078Y-121719000D01*
X174772191Y-121749013D01*
X174630058Y-121807887D01*
X174502141Y-121893358D01*
X174393358Y-122002141D01*
X174307887Y-122130058D01*
X174249013Y-122272191D01*
X174219000Y-122423078D01*
X151300637Y-122423078D01*
X142263184Y-117239833D01*
X142240477Y-117229623D01*
X142224015Y-117225291D01*
X127454830Y-114381225D01*
X126665799Y-113750000D01*
X174167157Y-113750000D01*
X174167157Y-117050000D01*
X174174513Y-117124689D01*
X174196299Y-117196508D01*
X174231678Y-117262696D01*
X174279289Y-117320711D01*
X174337304Y-117368322D01*
X174403492Y-117403701D01*
X174475311Y-117425487D01*
X174550000Y-117432843D01*
X177850000Y-117432843D01*
X177924689Y-117425487D01*
X177996508Y-117403701D01*
X178062696Y-117368322D01*
X178120711Y-117320711D01*
X178168322Y-117262696D01*
X178203701Y-117196508D01*
X178225487Y-117124689D01*
X178232843Y-117050000D01*
X178232843Y-116423078D01*
X184219000Y-116423078D01*
X184219000Y-116576922D01*
X184249013Y-116727809D01*
X184307887Y-116869942D01*
X184393358Y-116997859D01*
X184502141Y-117106642D01*
X184630058Y-117192113D01*
X184772191Y-117250987D01*
X184923078Y-117281000D01*
X185076922Y-117281000D01*
X185227809Y-117250987D01*
X185369942Y-117192113D01*
X185497859Y-117106642D01*
X185606642Y-116997859D01*
X185692113Y-116869942D01*
X185750987Y-116727809D01*
X185781000Y-116576922D01*
X185781000Y-116423078D01*
X185750987Y-116272191D01*
X185692113Y-116130058D01*
X185606642Y-116002141D01*
X185497859Y-115893358D01*
X185369942Y-115807887D01*
X185227809Y-115749013D01*
X185076922Y-115719000D01*
X184923078Y-115719000D01*
X184772191Y-115749013D01*
X184630058Y-115807887D01*
X184502141Y-115893358D01*
X184393358Y-116002141D01*
X184307887Y-116130058D01*
X184249013Y-116272191D01*
X184219000Y-116423078D01*
X178232843Y-116423078D01*
X178232843Y-113750000D01*
X178225487Y-113675311D01*
X178203701Y-113603492D01*
X178168322Y-113537304D01*
X178120711Y-113479289D01*
X178062696Y-113431678D01*
X177996508Y-113396299D01*
X177924689Y-113374513D01*
X177850000Y-113367157D01*
X174550000Y-113367157D01*
X174475311Y-113374513D01*
X174403492Y-113396299D01*
X174337304Y-113431678D01*
X174279289Y-113479289D01*
X174231678Y-113537304D01*
X174196299Y-113603492D01*
X174174513Y-113675311D01*
X174167157Y-113750000D01*
X126665799Y-113750000D01*
X125026254Y-112438365D01*
X124956791Y-106765492D01*
X160519000Y-106765492D01*
X160519000Y-107234508D01*
X160610500Y-107694512D01*
X160789985Y-108127827D01*
X161050556Y-108517799D01*
X161382201Y-108849444D01*
X161772173Y-109110015D01*
X162205488Y-109289500D01*
X162665492Y-109381000D01*
X163134508Y-109381000D01*
X163594512Y-109289500D01*
X164027827Y-109110015D01*
X164417799Y-108849444D01*
X164749444Y-108517799D01*
X164850000Y-108367306D01*
X164950556Y-108517799D01*
X165282201Y-108849444D01*
X165672173Y-109110015D01*
X166105488Y-109289500D01*
X166565492Y-109381000D01*
X167034508Y-109381000D01*
X167494512Y-109289500D01*
X167927827Y-109110015D01*
X168317799Y-108849444D01*
X168649444Y-108517799D01*
X168650000Y-108516967D01*
X168650556Y-108517799D01*
X168982201Y-108849444D01*
X169372173Y-109110015D01*
X169805488Y-109289500D01*
X170265492Y-109381000D01*
X170734508Y-109381000D01*
X171194512Y-109289500D01*
X171627827Y-109110015D01*
X172017799Y-108849444D01*
X172349444Y-108517799D01*
X172610015Y-108127827D01*
X172789500Y-107694512D01*
X172881000Y-107234508D01*
X172881000Y-106765492D01*
X172789500Y-106305488D01*
X172610015Y-105872173D01*
X172349444Y-105482201D01*
X172017799Y-105150556D01*
X171627827Y-104889985D01*
X171194512Y-104710500D01*
X170734508Y-104619000D01*
X170265492Y-104619000D01*
X169805488Y-104710500D01*
X169372173Y-104889985D01*
X168982201Y-105150556D01*
X168650556Y-105482201D01*
X168650000Y-105483033D01*
X168649444Y-105482201D01*
X168317799Y-105150556D01*
X167927827Y-104889985D01*
X167494512Y-104710500D01*
X167034508Y-104619000D01*
X166565492Y-104619000D01*
X166105488Y-104710500D01*
X165672173Y-104889985D01*
X165282201Y-105150556D01*
X164950556Y-105482201D01*
X164850000Y-105632694D01*
X164749444Y-105482201D01*
X164417799Y-105150556D01*
X164027827Y-104889985D01*
X163594512Y-104710500D01*
X163134508Y-104619000D01*
X162665492Y-104619000D01*
X162205488Y-104710500D01*
X161772173Y-104889985D01*
X161382201Y-105150556D01*
X161050556Y-105482201D01*
X160789985Y-105872173D01*
X160610500Y-106305488D01*
X160519000Y-106765492D01*
X124956791Y-106765492D01*
X124878558Y-100376493D01*
X137019001Y-100328507D01*
X137019001Y-100632093D01*
X137002141Y-100643358D01*
X136893358Y-100752141D01*
X136807887Y-100880058D01*
X136749013Y-101022191D01*
X136719000Y-101173078D01*
X136719000Y-101326922D01*
X136749013Y-101477809D01*
X136807887Y-101619942D01*
X136893358Y-101747859D01*
X137002141Y-101856642D01*
X137130058Y-101942113D01*
X137272191Y-102000987D01*
X137423078Y-102031000D01*
X137576922Y-102031000D01*
X137727809Y-102000987D01*
X137869942Y-101942113D01*
X137997859Y-101856642D01*
X138106642Y-101747859D01*
X138192113Y-101619942D01*
X138250987Y-101477809D01*
X138281000Y-101326922D01*
X138281000Y-101173078D01*
X138250987Y-101022191D01*
X138192113Y-100880058D01*
X138106642Y-100752141D01*
X137997859Y-100643358D01*
X137981000Y-100632093D01*
X137981000Y-100449236D01*
X138106026Y-100324210D01*
X152884232Y-100265799D01*
X152807887Y-100380058D01*
X152749013Y-100522191D01*
X152719000Y-100673078D01*
X152719000Y-100826922D01*
X152722955Y-100846808D01*
X151950764Y-101619000D01*
X151417907Y-101619000D01*
X151406642Y-101602141D01*
X151297859Y-101493358D01*
X151169942Y-101407887D01*
X151027809Y-101349013D01*
X150876922Y-101319000D01*
X150723078Y-101319000D01*
X150572191Y-101349013D01*
X150430058Y-101407887D01*
X150302141Y-101493358D01*
X150193358Y-101602141D01*
X150107887Y-101730058D01*
X150049013Y-101872191D01*
X150019000Y-102023078D01*
X150019000Y-102176922D01*
X150049013Y-102327809D01*
X150107887Y-102469942D01*
X150193358Y-102597859D01*
X150302141Y-102706642D01*
X150430058Y-102792113D01*
X150572191Y-102850987D01*
X150723078Y-102881000D01*
X150876922Y-102881000D01*
X151027809Y-102850987D01*
X151169942Y-102792113D01*
X151297859Y-102706642D01*
X151406642Y-102597859D01*
X151417907Y-102581000D01*
X152126374Y-102581000D01*
X152150000Y-102583327D01*
X152173626Y-102581000D01*
X152244292Y-102574040D01*
X152334961Y-102546536D01*
X152418522Y-102501872D01*
X152491764Y-102441764D01*
X152506830Y-102423406D01*
X153403192Y-101527045D01*
X153423078Y-101531000D01*
X153576922Y-101531000D01*
X153727809Y-101500987D01*
X153869942Y-101442113D01*
X153997859Y-101356642D01*
X154106642Y-101247859D01*
X154192113Y-101119942D01*
X154250987Y-100977809D01*
X154281000Y-100826922D01*
X154281000Y-100673078D01*
X154250987Y-100522191D01*
X154192113Y-100380058D01*
X154112524Y-100260944D01*
X175006477Y-100178359D01*
X175337961Y-100399849D01*
X175707579Y-100552950D01*
X176099964Y-100631000D01*
X176500036Y-100631000D01*
X176892421Y-100552950D01*
X177262039Y-100399849D01*
X177594687Y-100177581D01*
X177604177Y-100168091D01*
X187873000Y-100127503D01*
X187873000Y-121873000D01*
G04 #@! TA.AperFunction,Conductor*
D24*
G36*
X187873000Y-121873000D02*
G01*
X185000000Y-121873000D01*
X184975224Y-121875440D01*
X184951399Y-121882667D01*
X184929443Y-121894403D01*
X184910197Y-121910197D01*
X184894403Y-121929443D01*
X184882667Y-121951399D01*
X184875440Y-121975224D01*
X184873000Y-122000000D01*
X184873000Y-127153839D01*
X184869001Y-127194442D01*
X184869001Y-127873000D01*
X179447288Y-127873000D01*
X179444942Y-127868610D01*
X179303607Y-127696393D01*
X179131390Y-127555058D01*
X178934909Y-127450037D01*
X178721715Y-127385365D01*
X178500000Y-127363528D01*
X178278285Y-127385365D01*
X178065091Y-127450037D01*
X177868610Y-127555058D01*
X177739547Y-127660977D01*
X177527524Y-127873000D01*
X177000000Y-127873000D01*
X176975224Y-127875440D01*
X176951399Y-127882667D01*
X176923800Y-127898400D01*
X172957667Y-130873000D01*
X171813156Y-130873000D01*
X171500000Y-130842157D01*
X168500000Y-130842157D01*
X168186844Y-130873000D01*
X166033834Y-130873000D01*
X159146791Y-126923078D01*
X163719000Y-126923078D01*
X163719000Y-127076922D01*
X163749013Y-127227809D01*
X163807887Y-127369942D01*
X163893358Y-127497859D01*
X164002141Y-127606642D01*
X164130058Y-127692113D01*
X164272191Y-127750987D01*
X164423078Y-127781000D01*
X164576922Y-127781000D01*
X164727809Y-127750987D01*
X164869942Y-127692113D01*
X164997859Y-127606642D01*
X165106642Y-127497859D01*
X165192113Y-127369942D01*
X165250987Y-127227809D01*
X165281000Y-127076922D01*
X165281000Y-126923078D01*
X165250987Y-126772191D01*
X165192113Y-126630058D01*
X165106642Y-126502141D01*
X164997859Y-126393358D01*
X164869942Y-126307887D01*
X164727809Y-126249013D01*
X164576922Y-126219000D01*
X164423078Y-126219000D01*
X164272191Y-126249013D01*
X164130058Y-126307887D01*
X164002141Y-126393358D01*
X163893358Y-126502141D01*
X163807887Y-126630058D01*
X163749013Y-126772191D01*
X163719000Y-126923078D01*
X159146791Y-126923078D01*
X151300637Y-122423078D01*
X174219000Y-122423078D01*
X174219000Y-122576922D01*
X174249013Y-122727809D01*
X174307887Y-122869942D01*
X174393358Y-122997859D01*
X174502141Y-123106642D01*
X174630058Y-123192113D01*
X174772191Y-123250987D01*
X174923078Y-123281000D01*
X175076922Y-123281000D01*
X175227809Y-123250987D01*
X175369942Y-123192113D01*
X175497859Y-123106642D01*
X175606642Y-122997859D01*
X175692113Y-122869942D01*
X175750987Y-122727809D01*
X175781000Y-122576922D01*
X175781000Y-122423078D01*
X175750987Y-122272191D01*
X175692113Y-122130058D01*
X175606642Y-122002141D01*
X175497859Y-121893358D01*
X175369942Y-121807887D01*
X175227809Y-121749013D01*
X175076922Y-121719000D01*
X174923078Y-121719000D01*
X174772191Y-121749013D01*
X174630058Y-121807887D01*
X174502141Y-121893358D01*
X174393358Y-122002141D01*
X174307887Y-122130058D01*
X174249013Y-122272191D01*
X174219000Y-122423078D01*
X151300637Y-122423078D01*
X142263184Y-117239833D01*
X142240477Y-117229623D01*
X142224015Y-117225291D01*
X127454830Y-114381225D01*
X126665799Y-113750000D01*
X174167157Y-113750000D01*
X174167157Y-117050000D01*
X174174513Y-117124689D01*
X174196299Y-117196508D01*
X174231678Y-117262696D01*
X174279289Y-117320711D01*
X174337304Y-117368322D01*
X174403492Y-117403701D01*
X174475311Y-117425487D01*
X174550000Y-117432843D01*
X177850000Y-117432843D01*
X177924689Y-117425487D01*
X177996508Y-117403701D01*
X178062696Y-117368322D01*
X178120711Y-117320711D01*
X178168322Y-117262696D01*
X178203701Y-117196508D01*
X178225487Y-117124689D01*
X178232843Y-117050000D01*
X178232843Y-116423078D01*
X184219000Y-116423078D01*
X184219000Y-116576922D01*
X184249013Y-116727809D01*
X184307887Y-116869942D01*
X184393358Y-116997859D01*
X184502141Y-117106642D01*
X184630058Y-117192113D01*
X184772191Y-117250987D01*
X184923078Y-117281000D01*
X185076922Y-117281000D01*
X185227809Y-117250987D01*
X185369942Y-117192113D01*
X185497859Y-117106642D01*
X185606642Y-116997859D01*
X185692113Y-116869942D01*
X185750987Y-116727809D01*
X185781000Y-116576922D01*
X185781000Y-116423078D01*
X185750987Y-116272191D01*
X185692113Y-116130058D01*
X185606642Y-116002141D01*
X185497859Y-115893358D01*
X185369942Y-115807887D01*
X185227809Y-115749013D01*
X185076922Y-115719000D01*
X184923078Y-115719000D01*
X184772191Y-115749013D01*
X184630058Y-115807887D01*
X184502141Y-115893358D01*
X184393358Y-116002141D01*
X184307887Y-116130058D01*
X184249013Y-116272191D01*
X184219000Y-116423078D01*
X178232843Y-116423078D01*
X178232843Y-113750000D01*
X178225487Y-113675311D01*
X178203701Y-113603492D01*
X178168322Y-113537304D01*
X178120711Y-113479289D01*
X178062696Y-113431678D01*
X177996508Y-113396299D01*
X177924689Y-113374513D01*
X177850000Y-113367157D01*
X174550000Y-113367157D01*
X174475311Y-113374513D01*
X174403492Y-113396299D01*
X174337304Y-113431678D01*
X174279289Y-113479289D01*
X174231678Y-113537304D01*
X174196299Y-113603492D01*
X174174513Y-113675311D01*
X174167157Y-113750000D01*
X126665799Y-113750000D01*
X125026254Y-112438365D01*
X124956791Y-106765492D01*
X160519000Y-106765492D01*
X160519000Y-107234508D01*
X160610500Y-107694512D01*
X160789985Y-108127827D01*
X161050556Y-108517799D01*
X161382201Y-108849444D01*
X161772173Y-109110015D01*
X162205488Y-109289500D01*
X162665492Y-109381000D01*
X163134508Y-109381000D01*
X163594512Y-109289500D01*
X164027827Y-109110015D01*
X164417799Y-108849444D01*
X164749444Y-108517799D01*
X164850000Y-108367306D01*
X164950556Y-108517799D01*
X165282201Y-108849444D01*
X165672173Y-109110015D01*
X166105488Y-109289500D01*
X166565492Y-109381000D01*
X167034508Y-109381000D01*
X167494512Y-109289500D01*
X167927827Y-109110015D01*
X168317799Y-108849444D01*
X168649444Y-108517799D01*
X168650000Y-108516967D01*
X168650556Y-108517799D01*
X168982201Y-108849444D01*
X169372173Y-109110015D01*
X169805488Y-109289500D01*
X170265492Y-109381000D01*
X170734508Y-109381000D01*
X171194512Y-109289500D01*
X171627827Y-109110015D01*
X172017799Y-108849444D01*
X172349444Y-108517799D01*
X172610015Y-108127827D01*
X172789500Y-107694512D01*
X172881000Y-107234508D01*
X172881000Y-106765492D01*
X172789500Y-106305488D01*
X172610015Y-105872173D01*
X172349444Y-105482201D01*
X172017799Y-105150556D01*
X171627827Y-104889985D01*
X171194512Y-104710500D01*
X170734508Y-104619000D01*
X170265492Y-104619000D01*
X169805488Y-104710500D01*
X169372173Y-104889985D01*
X168982201Y-105150556D01*
X168650556Y-105482201D01*
X168650000Y-105483033D01*
X168649444Y-105482201D01*
X168317799Y-105150556D01*
X167927827Y-104889985D01*
X167494512Y-104710500D01*
X167034508Y-104619000D01*
X166565492Y-104619000D01*
X166105488Y-104710500D01*
X165672173Y-104889985D01*
X165282201Y-105150556D01*
X164950556Y-105482201D01*
X164850000Y-105632694D01*
X164749444Y-105482201D01*
X164417799Y-105150556D01*
X164027827Y-104889985D01*
X163594512Y-104710500D01*
X163134508Y-104619000D01*
X162665492Y-104619000D01*
X162205488Y-104710500D01*
X161772173Y-104889985D01*
X161382201Y-105150556D01*
X161050556Y-105482201D01*
X160789985Y-105872173D01*
X160610500Y-106305488D01*
X160519000Y-106765492D01*
X124956791Y-106765492D01*
X124878558Y-100376493D01*
X137019001Y-100328507D01*
X137019001Y-100632093D01*
X137002141Y-100643358D01*
X136893358Y-100752141D01*
X136807887Y-100880058D01*
X136749013Y-101022191D01*
X136719000Y-101173078D01*
X136719000Y-101326922D01*
X136749013Y-101477809D01*
X136807887Y-101619942D01*
X136893358Y-101747859D01*
X137002141Y-101856642D01*
X137130058Y-101942113D01*
X137272191Y-102000987D01*
X137423078Y-102031000D01*
X137576922Y-102031000D01*
X137727809Y-102000987D01*
X137869942Y-101942113D01*
X137997859Y-101856642D01*
X138106642Y-101747859D01*
X138192113Y-101619942D01*
X138250987Y-101477809D01*
X138281000Y-101326922D01*
X138281000Y-101173078D01*
X138250987Y-101022191D01*
X138192113Y-100880058D01*
X138106642Y-100752141D01*
X137997859Y-100643358D01*
X137981000Y-100632093D01*
X137981000Y-100449236D01*
X138106026Y-100324210D01*
X152884232Y-100265799D01*
X152807887Y-100380058D01*
X152749013Y-100522191D01*
X152719000Y-100673078D01*
X152719000Y-100826922D01*
X152722955Y-100846808D01*
X151950764Y-101619000D01*
X151417907Y-101619000D01*
X151406642Y-101602141D01*
X151297859Y-101493358D01*
X151169942Y-101407887D01*
X151027809Y-101349013D01*
X150876922Y-101319000D01*
X150723078Y-101319000D01*
X150572191Y-101349013D01*
X150430058Y-101407887D01*
X150302141Y-101493358D01*
X150193358Y-101602141D01*
X150107887Y-101730058D01*
X150049013Y-101872191D01*
X150019000Y-102023078D01*
X150019000Y-102176922D01*
X150049013Y-102327809D01*
X150107887Y-102469942D01*
X150193358Y-102597859D01*
X150302141Y-102706642D01*
X150430058Y-102792113D01*
X150572191Y-102850987D01*
X150723078Y-102881000D01*
X150876922Y-102881000D01*
X151027809Y-102850987D01*
X151169942Y-102792113D01*
X151297859Y-102706642D01*
X151406642Y-102597859D01*
X151417907Y-102581000D01*
X152126374Y-102581000D01*
X152150000Y-102583327D01*
X152173626Y-102581000D01*
X152244292Y-102574040D01*
X152334961Y-102546536D01*
X152418522Y-102501872D01*
X152491764Y-102441764D01*
X152506830Y-102423406D01*
X153403192Y-101527045D01*
X153423078Y-101531000D01*
X153576922Y-101531000D01*
X153727809Y-101500987D01*
X153869942Y-101442113D01*
X153997859Y-101356642D01*
X154106642Y-101247859D01*
X154192113Y-101119942D01*
X154250987Y-100977809D01*
X154281000Y-100826922D01*
X154281000Y-100673078D01*
X154250987Y-100522191D01*
X154192113Y-100380058D01*
X154112524Y-100260944D01*
X175006477Y-100178359D01*
X175337961Y-100399849D01*
X175707579Y-100552950D01*
X176099964Y-100631000D01*
X176500036Y-100631000D01*
X176892421Y-100552950D01*
X177262039Y-100399849D01*
X177594687Y-100177581D01*
X177604177Y-100168091D01*
X187873000Y-100127503D01*
X187873000Y-121873000D01*
G37*
G04 #@! TD.AperFunction*
D23*
X120173000Y-103875178D02*
X120173000Y-111750000D01*
X120175440Y-111774776D01*
X120182667Y-111798601D01*
X120194403Y-111820557D01*
X120217826Y-111846832D01*
X125623000Y-116433792D01*
X125623000Y-130873000D01*
X123603236Y-130873000D01*
X123519330Y-130789094D01*
X123504264Y-130770736D01*
X123431022Y-130710628D01*
X123347461Y-130665964D01*
X123256792Y-130638460D01*
X123186126Y-130631500D01*
X123162500Y-130629173D01*
X123138874Y-130631500D01*
X117555407Y-130631500D01*
X117544142Y-130614641D01*
X117435359Y-130505858D01*
X117307442Y-130420387D01*
X117165309Y-130361513D01*
X117014422Y-130331500D01*
X116860578Y-130331500D01*
X116709691Y-130361513D01*
X116567558Y-130420387D01*
X116439641Y-130505858D01*
X116330858Y-130614641D01*
X116245387Y-130742558D01*
X116191356Y-130873000D01*
X115877000Y-130873000D01*
X115877000Y-122750000D01*
X115874560Y-122725224D01*
X115867333Y-122701399D01*
X115855597Y-122679443D01*
X115837989Y-122658420D01*
X106565961Y-113750000D01*
X117167157Y-113750000D01*
X117167157Y-117050000D01*
X117174513Y-117124689D01*
X117196299Y-117196508D01*
X117231678Y-117262696D01*
X117279289Y-117320711D01*
X117337304Y-117368322D01*
X117403492Y-117403701D01*
X117475311Y-117425487D01*
X117550000Y-117432843D01*
X120850000Y-117432843D01*
X120924689Y-117425487D01*
X120996508Y-117403701D01*
X121062696Y-117368322D01*
X121120711Y-117320711D01*
X121168322Y-117262696D01*
X121203701Y-117196508D01*
X121225487Y-117124689D01*
X121232843Y-117050000D01*
X121232843Y-116823078D01*
X123219000Y-116823078D01*
X123219000Y-116976922D01*
X123249013Y-117127809D01*
X123307887Y-117269942D01*
X123393358Y-117397859D01*
X123502141Y-117506642D01*
X123630058Y-117592113D01*
X123772191Y-117650987D01*
X123923078Y-117681000D01*
X124076922Y-117681000D01*
X124227809Y-117650987D01*
X124369942Y-117592113D01*
X124497859Y-117506642D01*
X124606642Y-117397859D01*
X124692113Y-117269942D01*
X124750987Y-117127809D01*
X124781000Y-116976922D01*
X124781000Y-116823078D01*
X124750987Y-116672191D01*
X124692113Y-116530058D01*
X124606642Y-116402141D01*
X124497859Y-116293358D01*
X124369942Y-116207887D01*
X124227809Y-116149013D01*
X124076922Y-116119000D01*
X123923078Y-116119000D01*
X123772191Y-116149013D01*
X123630058Y-116207887D01*
X123502141Y-116293358D01*
X123393358Y-116402141D01*
X123307887Y-116530058D01*
X123249013Y-116672191D01*
X123219000Y-116823078D01*
X121232843Y-116823078D01*
X121232843Y-113750000D01*
X121225487Y-113675311D01*
X121203701Y-113603492D01*
X121168322Y-113537304D01*
X121120711Y-113479289D01*
X121062696Y-113431678D01*
X120996508Y-113396299D01*
X120924689Y-113374513D01*
X120850000Y-113367157D01*
X117550000Y-113367157D01*
X117475311Y-113374513D01*
X117403492Y-113396299D01*
X117337304Y-113431678D01*
X117279289Y-113479289D01*
X117231678Y-113537304D01*
X117196299Y-113603492D01*
X117174513Y-113675311D01*
X117167157Y-113750000D01*
X106565961Y-113750000D01*
X104820593Y-112073078D01*
X117819000Y-112073078D01*
X117819000Y-112226922D01*
X117849013Y-112377809D01*
X117907887Y-112519942D01*
X117993358Y-112647859D01*
X118102141Y-112756642D01*
X118230058Y-112842113D01*
X118372191Y-112900987D01*
X118523078Y-112931000D01*
X118676922Y-112931000D01*
X118827809Y-112900987D01*
X118969942Y-112842113D01*
X119097859Y-112756642D01*
X119206642Y-112647859D01*
X119292113Y-112519942D01*
X119350987Y-112377809D01*
X119381000Y-112226922D01*
X119381000Y-112073078D01*
X119350987Y-111922191D01*
X119292113Y-111780058D01*
X119206642Y-111652141D01*
X119097859Y-111543358D01*
X118969942Y-111457887D01*
X118827809Y-111399013D01*
X118676922Y-111369000D01*
X118523078Y-111369000D01*
X118372191Y-111399013D01*
X118230058Y-111457887D01*
X118102141Y-111543358D01*
X117993358Y-111652141D01*
X117907887Y-111780058D01*
X117849013Y-111922191D01*
X117819000Y-112073078D01*
X104820593Y-112073078D01*
X103127000Y-110445901D01*
X103127000Y-103628849D01*
X120173000Y-103875178D01*
G04 #@! TA.AperFunction,Conductor*
D24*
G36*
X120173000Y-103875178D02*
G01*
X120173000Y-111750000D01*
X120175440Y-111774776D01*
X120182667Y-111798601D01*
X120194403Y-111820557D01*
X120217826Y-111846832D01*
X125623000Y-116433792D01*
X125623000Y-130873000D01*
X123603236Y-130873000D01*
X123519330Y-130789094D01*
X123504264Y-130770736D01*
X123431022Y-130710628D01*
X123347461Y-130665964D01*
X123256792Y-130638460D01*
X123186126Y-130631500D01*
X123162500Y-130629173D01*
X123138874Y-130631500D01*
X117555407Y-130631500D01*
X117544142Y-130614641D01*
X117435359Y-130505858D01*
X117307442Y-130420387D01*
X117165309Y-130361513D01*
X117014422Y-130331500D01*
X116860578Y-130331500D01*
X116709691Y-130361513D01*
X116567558Y-130420387D01*
X116439641Y-130505858D01*
X116330858Y-130614641D01*
X116245387Y-130742558D01*
X116191356Y-130873000D01*
X115877000Y-130873000D01*
X115877000Y-122750000D01*
X115874560Y-122725224D01*
X115867333Y-122701399D01*
X115855597Y-122679443D01*
X115837989Y-122658420D01*
X106565961Y-113750000D01*
X117167157Y-113750000D01*
X117167157Y-117050000D01*
X117174513Y-117124689D01*
X117196299Y-117196508D01*
X117231678Y-117262696D01*
X117279289Y-117320711D01*
X117337304Y-117368322D01*
X117403492Y-117403701D01*
X117475311Y-117425487D01*
X117550000Y-117432843D01*
X120850000Y-117432843D01*
X120924689Y-117425487D01*
X120996508Y-117403701D01*
X121062696Y-117368322D01*
X121120711Y-117320711D01*
X121168322Y-117262696D01*
X121203701Y-117196508D01*
X121225487Y-117124689D01*
X121232843Y-117050000D01*
X121232843Y-116823078D01*
X123219000Y-116823078D01*
X123219000Y-116976922D01*
X123249013Y-117127809D01*
X123307887Y-117269942D01*
X123393358Y-117397859D01*
X123502141Y-117506642D01*
X123630058Y-117592113D01*
X123772191Y-117650987D01*
X123923078Y-117681000D01*
X124076922Y-117681000D01*
X124227809Y-117650987D01*
X124369942Y-117592113D01*
X124497859Y-117506642D01*
X124606642Y-117397859D01*
X124692113Y-117269942D01*
X124750987Y-117127809D01*
X124781000Y-116976922D01*
X124781000Y-116823078D01*
X124750987Y-116672191D01*
X124692113Y-116530058D01*
X124606642Y-116402141D01*
X124497859Y-116293358D01*
X124369942Y-116207887D01*
X124227809Y-116149013D01*
X124076922Y-116119000D01*
X123923078Y-116119000D01*
X123772191Y-116149013D01*
X123630058Y-116207887D01*
X123502141Y-116293358D01*
X123393358Y-116402141D01*
X123307887Y-116530058D01*
X123249013Y-116672191D01*
X123219000Y-116823078D01*
X121232843Y-116823078D01*
X121232843Y-113750000D01*
X121225487Y-113675311D01*
X121203701Y-113603492D01*
X121168322Y-113537304D01*
X121120711Y-113479289D01*
X121062696Y-113431678D01*
X120996508Y-113396299D01*
X120924689Y-113374513D01*
X120850000Y-113367157D01*
X117550000Y-113367157D01*
X117475311Y-113374513D01*
X117403492Y-113396299D01*
X117337304Y-113431678D01*
X117279289Y-113479289D01*
X117231678Y-113537304D01*
X117196299Y-113603492D01*
X117174513Y-113675311D01*
X117167157Y-113750000D01*
X106565961Y-113750000D01*
X104820593Y-112073078D01*
X117819000Y-112073078D01*
X117819000Y-112226922D01*
X117849013Y-112377809D01*
X117907887Y-112519942D01*
X117993358Y-112647859D01*
X118102141Y-112756642D01*
X118230058Y-112842113D01*
X118372191Y-112900987D01*
X118523078Y-112931000D01*
X118676922Y-112931000D01*
X118827809Y-112900987D01*
X118969942Y-112842113D01*
X119097859Y-112756642D01*
X119206642Y-112647859D01*
X119292113Y-112519942D01*
X119350987Y-112377809D01*
X119381000Y-112226922D01*
X119381000Y-112073078D01*
X119350987Y-111922191D01*
X119292113Y-111780058D01*
X119206642Y-111652141D01*
X119097859Y-111543358D01*
X118969942Y-111457887D01*
X118827809Y-111399013D01*
X118676922Y-111369000D01*
X118523078Y-111369000D01*
X118372191Y-111399013D01*
X118230058Y-111457887D01*
X118102141Y-111543358D01*
X117993358Y-111652141D01*
X117907887Y-111780058D01*
X117849013Y-111922191D01*
X117819000Y-112073078D01*
X104820593Y-112073078D01*
X103127000Y-110445901D01*
X103127000Y-103628849D01*
X120173000Y-103875178D01*
G37*
G04 #@! TD.AperFunction*
D25*
X126764397Y-75402116D02*
X127259196Y-75551505D01*
X127715561Y-75794157D01*
X128116096Y-76120827D01*
X128445561Y-76519081D01*
X128691390Y-76973734D01*
X128844230Y-77467479D01*
X128899991Y-77998008D01*
X128900002Y-78001220D01*
X128900075Y-78022164D01*
X128901620Y-78037372D01*
X128901513Y-78052665D01*
X128901990Y-78057529D01*
X128963191Y-78639818D01*
X128969562Y-78670853D01*
X128975514Y-78702054D01*
X128976927Y-78706732D01*
X129150064Y-79266046D01*
X129162343Y-79295255D01*
X129174239Y-79324700D01*
X129176534Y-79329015D01*
X129455010Y-79844047D01*
X129472754Y-79870354D01*
X129490119Y-79896890D01*
X129493207Y-79900678D01*
X129866417Y-80351811D01*
X129888929Y-80374165D01*
X129911121Y-80396827D01*
X129914887Y-80399942D01*
X130368615Y-80769995D01*
X130395033Y-80787547D01*
X130421211Y-80805471D01*
X130425510Y-80807796D01*
X130942475Y-81082670D01*
X130971754Y-81094738D01*
X131000959Y-81107255D01*
X131005628Y-81108700D01*
X131566136Y-81277927D01*
X131597213Y-81284080D01*
X131628282Y-81290684D01*
X131633143Y-81291195D01*
X132215845Y-81348330D01*
X132215856Y-81348330D01*
X132232811Y-81350000D01*
X157267189Y-81350000D01*
X157267796Y-81349940D01*
X157272164Y-81349925D01*
X157287372Y-81348380D01*
X157302665Y-81348487D01*
X157307529Y-81348010D01*
X157889818Y-81286809D01*
X157920853Y-81280438D01*
X157952054Y-81274486D01*
X157956732Y-81273073D01*
X158516046Y-81099936D01*
X158545255Y-81087657D01*
X158574700Y-81075761D01*
X158579015Y-81073466D01*
X159094047Y-80794990D01*
X159120354Y-80777246D01*
X159146890Y-80759881D01*
X159150678Y-80756793D01*
X159601811Y-80383583D01*
X159624165Y-80361071D01*
X159646827Y-80338879D01*
X159649942Y-80335113D01*
X160019995Y-79881385D01*
X160037547Y-79854967D01*
X160055471Y-79828789D01*
X160057796Y-79824490D01*
X160332670Y-79307525D01*
X160344738Y-79278246D01*
X160357255Y-79249041D01*
X160358700Y-79244372D01*
X160527927Y-78683864D01*
X160534073Y-78652818D01*
X181675000Y-78652818D01*
X181675000Y-79347182D01*
X181810464Y-80028205D01*
X182076185Y-80669714D01*
X182461954Y-81247057D01*
X182952943Y-81738046D01*
X183530286Y-82123815D01*
X184171795Y-82389536D01*
X184852818Y-82525000D01*
X185547182Y-82525000D01*
X186228205Y-82389536D01*
X186869714Y-82123815D01*
X187447057Y-81738046D01*
X187938046Y-81247057D01*
X188323815Y-80669714D01*
X188589536Y-80028205D01*
X188725000Y-79347182D01*
X188725000Y-78652818D01*
X188589536Y-77971795D01*
X188323815Y-77330286D01*
X187938046Y-76752943D01*
X187447057Y-76261954D01*
X186869714Y-75876185D01*
X186228205Y-75610464D01*
X185547182Y-75475000D01*
X184852818Y-75475000D01*
X184171795Y-75610464D01*
X183530286Y-75876185D01*
X182952943Y-76261954D01*
X182461954Y-76752943D01*
X182076185Y-77330286D01*
X181810464Y-77971795D01*
X181675000Y-78652818D01*
X160534073Y-78652818D01*
X160534080Y-78652787D01*
X160540684Y-78621718D01*
X160541195Y-78616857D01*
X160598330Y-78034155D01*
X160598330Y-78034154D01*
X160652116Y-77485603D01*
X160801505Y-76990804D01*
X161044157Y-76534439D01*
X161370827Y-76133904D01*
X161769081Y-75804439D01*
X162223734Y-75558610D01*
X162717479Y-75405770D01*
X163248008Y-75350009D01*
X163250646Y-75350000D01*
X186182878Y-75350000D01*
X186714397Y-75402116D01*
X187209196Y-75551505D01*
X187665561Y-75794157D01*
X188066096Y-76120827D01*
X188395561Y-76519081D01*
X188641390Y-76973734D01*
X188794230Y-77467479D01*
X188849991Y-77998008D01*
X188850000Y-78000646D01*
X188850001Y-130425000D01*
X174315000Y-130425000D01*
X177109667Y-128329000D01*
X185000000Y-128329000D01*
X185064185Y-128322678D01*
X185125903Y-128303956D01*
X185182783Y-128273554D01*
X185232638Y-128232638D01*
X185273554Y-128182783D01*
X185303956Y-128125903D01*
X185322678Y-128064185D01*
X185329000Y-128000000D01*
X185329000Y-122329000D01*
X188000000Y-122329000D01*
X188064185Y-122322678D01*
X188125903Y-122303956D01*
X188182783Y-122273554D01*
X188232638Y-122232638D01*
X188273554Y-122182783D01*
X188303956Y-122125903D01*
X188322678Y-122064185D01*
X188329000Y-122000000D01*
X188329000Y-100000000D01*
X188322422Y-99934540D01*
X188303456Y-99872897D01*
X188272829Y-99816138D01*
X188231717Y-99766444D01*
X188181700Y-99725726D01*
X188124700Y-99695548D01*
X188062909Y-99677070D01*
X187998700Y-99671003D01*
X177933107Y-99710788D01*
X178050222Y-99535513D01*
X178199102Y-99176086D01*
X178275000Y-98794521D01*
X178275000Y-98405479D01*
X178199102Y-98023914D01*
X178050222Y-97664487D01*
X178049606Y-97663566D01*
X181605092Y-94108081D01*
X181656584Y-94142487D01*
X181788525Y-94197139D01*
X181928594Y-94225000D01*
X182071406Y-94225000D01*
X182211475Y-94197139D01*
X182343416Y-94142487D01*
X182462161Y-94063144D01*
X182563144Y-93962161D01*
X182642487Y-93843416D01*
X182697139Y-93711475D01*
X182725000Y-93571406D01*
X182725000Y-93428594D01*
X182697139Y-93288525D01*
X182642487Y-93156584D01*
X182563144Y-93037839D01*
X182462161Y-92936856D01*
X182343416Y-92857513D01*
X182211475Y-92802861D01*
X182071406Y-92775000D01*
X181928594Y-92775000D01*
X181788525Y-92802861D01*
X181656584Y-92857513D01*
X181555583Y-92925000D01*
X181428242Y-92925000D01*
X181399999Y-92922218D01*
X181371756Y-92925000D01*
X181371754Y-92925000D01*
X181287280Y-92933320D01*
X181178892Y-92966199D01*
X181079001Y-93019592D01*
X181033153Y-93057218D01*
X180991446Y-93091446D01*
X180973439Y-93113388D01*
X177236434Y-96850394D01*
X177235513Y-96849778D01*
X176876086Y-96700898D01*
X176494521Y-96625000D01*
X176105479Y-96625000D01*
X175723914Y-96700898D01*
X175364487Y-96849778D01*
X175041011Y-97065917D01*
X174765917Y-97341011D01*
X174549778Y-97664487D01*
X174400898Y-98023914D01*
X174325000Y-98405479D01*
X174325000Y-98794521D01*
X174400898Y-99176086D01*
X174549778Y-99535513D01*
X174675496Y-99723664D01*
X127445081Y-99910345D01*
X127511475Y-99897139D01*
X127643416Y-99842487D01*
X127762161Y-99763144D01*
X127863144Y-99662161D01*
X127942487Y-99543416D01*
X127997139Y-99411475D01*
X128025000Y-99271406D01*
X128025000Y-99128594D01*
X127997139Y-98988525D01*
X127942487Y-98856584D01*
X127875000Y-98755583D01*
X127875000Y-97928594D01*
X157075000Y-97928594D01*
X157075000Y-98071406D01*
X157102861Y-98211475D01*
X157157513Y-98343416D01*
X157236856Y-98462161D01*
X157337839Y-98563144D01*
X157456584Y-98642487D01*
X157588525Y-98697139D01*
X157728594Y-98725000D01*
X157871406Y-98725000D01*
X158011475Y-98697139D01*
X158143416Y-98642487D01*
X158244417Y-98575000D01*
X159221757Y-98575000D01*
X159250000Y-98577782D01*
X159278243Y-98575000D01*
X159278246Y-98575000D01*
X159362720Y-98566680D01*
X159471108Y-98533801D01*
X159570998Y-98480408D01*
X159658554Y-98408554D01*
X159676566Y-98386606D01*
X168372267Y-89690905D01*
X184800000Y-89690905D01*
X184800000Y-89809095D01*
X184823058Y-89925014D01*
X184868287Y-90034207D01*
X184933950Y-90132478D01*
X185017522Y-90216050D01*
X185115793Y-90281713D01*
X185224986Y-90326942D01*
X185340905Y-90350000D01*
X185459095Y-90350000D01*
X185575014Y-90326942D01*
X185684207Y-90281713D01*
X185782478Y-90216050D01*
X185866050Y-90132478D01*
X185931713Y-90034207D01*
X185976942Y-89925014D01*
X186000000Y-89809095D01*
X186000000Y-89690905D01*
X185976942Y-89574986D01*
X185931713Y-89465793D01*
X185866050Y-89367522D01*
X185782478Y-89283950D01*
X185684207Y-89218287D01*
X185575014Y-89173058D01*
X185459095Y-89150000D01*
X185340905Y-89150000D01*
X185224986Y-89173058D01*
X185115793Y-89218287D01*
X185017522Y-89283950D01*
X184933950Y-89367522D01*
X184868287Y-89465793D01*
X184823058Y-89574986D01*
X184800000Y-89690905D01*
X168372267Y-89690905D01*
X169092336Y-88970837D01*
X169211475Y-88947139D01*
X169343416Y-88892487D01*
X169462161Y-88813144D01*
X169563144Y-88712161D01*
X169642487Y-88593416D01*
X169697139Y-88461475D01*
X169725000Y-88321406D01*
X169725000Y-88178594D01*
X169697139Y-88038525D01*
X169642487Y-87906584D01*
X169575000Y-87805583D01*
X169575000Y-86575000D01*
X171511757Y-86575000D01*
X171540000Y-86577782D01*
X171568243Y-86575000D01*
X171568246Y-86575000D01*
X171652720Y-86566680D01*
X171761108Y-86533801D01*
X171816350Y-86504273D01*
X174825000Y-86504273D01*
X174825000Y-86735727D01*
X174870155Y-86962735D01*
X174958729Y-87176571D01*
X175087318Y-87369019D01*
X175250981Y-87532682D01*
X175443429Y-87661271D01*
X175657265Y-87749845D01*
X175884273Y-87795000D01*
X176115727Y-87795000D01*
X176342735Y-87749845D01*
X176556571Y-87661271D01*
X176749019Y-87532682D01*
X176912682Y-87369019D01*
X177041271Y-87176571D01*
X177129845Y-86962735D01*
X177175000Y-86735727D01*
X177175000Y-86504273D01*
X177129845Y-86277265D01*
X177041271Y-86063429D01*
X176912682Y-85870981D01*
X176749019Y-85707318D01*
X176724456Y-85690905D01*
X184800000Y-85690905D01*
X184800000Y-85809095D01*
X184823058Y-85925014D01*
X184868287Y-86034207D01*
X184933950Y-86132478D01*
X185017522Y-86216050D01*
X185115793Y-86281713D01*
X185224986Y-86326942D01*
X185340905Y-86350000D01*
X185459095Y-86350000D01*
X185575014Y-86326942D01*
X185684207Y-86281713D01*
X185782478Y-86216050D01*
X185866050Y-86132478D01*
X185931713Y-86034207D01*
X185976942Y-85925014D01*
X186000000Y-85809095D01*
X186000000Y-85690905D01*
X185976942Y-85574986D01*
X185931713Y-85465793D01*
X185866050Y-85367522D01*
X185782478Y-85283950D01*
X185684207Y-85218287D01*
X185575014Y-85173058D01*
X185459095Y-85150000D01*
X185340905Y-85150000D01*
X185224986Y-85173058D01*
X185115793Y-85218287D01*
X185017522Y-85283950D01*
X184933950Y-85367522D01*
X184868287Y-85465793D01*
X184823058Y-85574986D01*
X184800000Y-85690905D01*
X176724456Y-85690905D01*
X176556571Y-85578729D01*
X176342735Y-85490155D01*
X176115727Y-85445000D01*
X175884273Y-85445000D01*
X175657265Y-85490155D01*
X175443429Y-85578729D01*
X175250981Y-85707318D01*
X175087318Y-85870981D01*
X174958729Y-86063429D01*
X174870155Y-86277265D01*
X174825000Y-86504273D01*
X171816350Y-86504273D01*
X171860998Y-86480408D01*
X171948554Y-86408554D01*
X171966566Y-86386606D01*
X174388899Y-83964273D01*
X174825000Y-83964273D01*
X174825000Y-84195727D01*
X174870155Y-84422735D01*
X174958729Y-84636571D01*
X175087318Y-84829019D01*
X175250981Y-84992682D01*
X175443429Y-85121271D01*
X175657265Y-85209845D01*
X175884273Y-85255000D01*
X176115727Y-85255000D01*
X176342735Y-85209845D01*
X176556571Y-85121271D01*
X176749019Y-84992682D01*
X176912682Y-84829019D01*
X177041271Y-84636571D01*
X177129845Y-84422735D01*
X177175000Y-84195727D01*
X177175000Y-83964273D01*
X177129845Y-83737265D01*
X177041271Y-83523429D01*
X176912682Y-83330981D01*
X176749019Y-83167318D01*
X176556571Y-83038729D01*
X176342735Y-82950155D01*
X176115727Y-82905000D01*
X175884273Y-82905000D01*
X175657265Y-82950155D01*
X175443429Y-83038729D01*
X175250981Y-83167318D01*
X175087318Y-83330981D01*
X174958729Y-83523429D01*
X174870155Y-83737265D01*
X174825000Y-83964273D01*
X174388899Y-83964273D01*
X175679003Y-82674169D01*
X175884273Y-82715000D01*
X176115727Y-82715000D01*
X176342735Y-82669845D01*
X176556571Y-82581271D01*
X176749019Y-82452682D01*
X176912682Y-82289019D01*
X177041271Y-82096571D01*
X177129845Y-81882735D01*
X177175000Y-81655727D01*
X177175000Y-81424273D01*
X177129845Y-81197265D01*
X177041271Y-80983429D01*
X176912682Y-80790981D01*
X176749019Y-80627318D01*
X176556571Y-80498729D01*
X176342735Y-80410155D01*
X176115727Y-80365000D01*
X175884273Y-80365000D01*
X175657265Y-80410155D01*
X175443429Y-80498729D01*
X175250981Y-80627318D01*
X175087318Y-80790981D01*
X174958729Y-80983429D01*
X174870155Y-81197265D01*
X174825000Y-81424273D01*
X174825000Y-81655727D01*
X174865831Y-81860997D01*
X171301828Y-85425000D01*
X169444417Y-85425000D01*
X169343416Y-85357513D01*
X169211475Y-85302861D01*
X169071406Y-85275000D01*
X168928594Y-85275000D01*
X168788525Y-85302861D01*
X168656584Y-85357513D01*
X168537839Y-85436856D01*
X168436856Y-85537839D01*
X168357513Y-85656584D01*
X168302861Y-85788525D01*
X168275000Y-85928594D01*
X168275000Y-86071406D01*
X168302861Y-86211475D01*
X168357513Y-86343416D01*
X168425000Y-86444418D01*
X168425001Y-87805582D01*
X168357513Y-87906584D01*
X168302861Y-88038525D01*
X168279163Y-88157664D01*
X159011828Y-97425000D01*
X158244417Y-97425000D01*
X158143416Y-97357513D01*
X158011475Y-97302861D01*
X157871406Y-97275000D01*
X157728594Y-97275000D01*
X157588525Y-97302861D01*
X157456584Y-97357513D01*
X157337839Y-97436856D01*
X157236856Y-97537839D01*
X157157513Y-97656584D01*
X157102861Y-97788525D01*
X157075000Y-97928594D01*
X127875000Y-97928594D01*
X127875000Y-96988172D01*
X128042336Y-96820837D01*
X128161475Y-96797139D01*
X128293416Y-96742487D01*
X128412161Y-96663144D01*
X128513144Y-96562161D01*
X128592487Y-96443416D01*
X128647139Y-96311475D01*
X128675000Y-96171406D01*
X128675000Y-96028594D01*
X128647139Y-95888525D01*
X128592487Y-95756584D01*
X128513144Y-95637839D01*
X128412161Y-95536856D01*
X128293416Y-95457513D01*
X128161475Y-95402861D01*
X128021406Y-95375000D01*
X127878594Y-95375000D01*
X127738525Y-95402861D01*
X127606584Y-95457513D01*
X127487839Y-95536856D01*
X127386856Y-95637839D01*
X127307513Y-95756584D01*
X127252861Y-95888525D01*
X127229163Y-96007664D01*
X126913389Y-96323439D01*
X126891447Y-96341446D01*
X126873441Y-96363387D01*
X126819592Y-96429002D01*
X126766199Y-96528893D01*
X126733321Y-96637281D01*
X126722218Y-96750000D01*
X126725001Y-96778253D01*
X126725000Y-98755582D01*
X126657513Y-98856584D01*
X126602861Y-98988525D01*
X126575000Y-99128594D01*
X126575000Y-99271406D01*
X126602861Y-99411475D01*
X126657513Y-99543416D01*
X126736856Y-99662161D01*
X126837839Y-99763144D01*
X126956584Y-99842487D01*
X127088525Y-99897139D01*
X127160573Y-99911470D01*
X124748700Y-99921003D01*
X124681869Y-99928132D01*
X124620385Y-99947608D01*
X124563882Y-99978705D01*
X124514531Y-100020228D01*
X124474229Y-100070580D01*
X124444525Y-100127828D01*
X124426560Y-100189771D01*
X124421025Y-100254028D01*
X124571025Y-112504028D01*
X124573012Y-112536332D01*
X124586383Y-112599426D01*
X124611806Y-112658699D01*
X124648305Y-112711874D01*
X124694475Y-112756906D01*
X127194475Y-114756906D01*
X127275957Y-114804720D01*
X127337788Y-114823065D01*
X142083915Y-117662691D01*
X164336147Y-130425000D01*
X146254310Y-130425000D01*
X146693398Y-130243124D01*
X147278930Y-129851884D01*
X147776884Y-129353930D01*
X148168124Y-128768398D01*
X148437615Y-128117789D01*
X148575000Y-127427107D01*
X148575000Y-126722893D01*
X148437615Y-126032211D01*
X148168124Y-125381602D01*
X147776884Y-124796070D01*
X147278930Y-124298116D01*
X146693398Y-123906876D01*
X146042789Y-123637385D01*
X145352107Y-123500000D01*
X144647893Y-123500000D01*
X143957211Y-123637385D01*
X143306602Y-123906876D01*
X142721070Y-124298116D01*
X142223116Y-124796070D01*
X141831876Y-125381602D01*
X141562385Y-126032211D01*
X141425000Y-126722893D01*
X141425000Y-127427107D01*
X141562385Y-128117789D01*
X141831876Y-128768398D01*
X142223116Y-129353930D01*
X142721070Y-129851884D01*
X143306602Y-130243124D01*
X143745690Y-130425000D01*
X126079000Y-130425000D01*
X126079000Y-116375000D01*
X126066364Y-116284695D01*
X126042667Y-116224710D01*
X126007724Y-116170502D01*
X125962876Y-116124152D01*
X120629000Y-111597698D01*
X120629000Y-103750000D01*
X120623572Y-103690484D01*
X120605744Y-103628502D01*
X120576166Y-103571189D01*
X120535975Y-103520748D01*
X120486716Y-103479116D01*
X120430282Y-103447895D01*
X120368841Y-103428283D01*
X120304754Y-103421034D01*
X103004754Y-103171034D01*
X102935815Y-103177322D01*
X102874097Y-103196044D01*
X102817217Y-103226446D01*
X102767362Y-103267362D01*
X102726446Y-103317217D01*
X102696044Y-103374097D01*
X102677322Y-103435815D01*
X102671000Y-103500000D01*
X102671000Y-110500000D01*
X102678670Y-110570624D01*
X102698622Y-110631956D01*
X102730156Y-110688216D01*
X102772060Y-110737243D01*
X115421000Y-122890146D01*
X115421000Y-130425000D01*
X102150000Y-130425000D01*
X102150000Y-98405479D01*
X117325000Y-98405479D01*
X117325000Y-98794521D01*
X117400898Y-99176086D01*
X117549778Y-99535513D01*
X117765917Y-99858989D01*
X118041011Y-100134083D01*
X118364487Y-100350222D01*
X118723914Y-100499102D01*
X119105479Y-100575000D01*
X119494521Y-100575000D01*
X119876086Y-100499102D01*
X120235513Y-100350222D01*
X120558989Y-100134083D01*
X120834083Y-99858989D01*
X121050222Y-99535513D01*
X121199102Y-99176086D01*
X121275000Y-98794521D01*
X121275000Y-98405479D01*
X121199102Y-98023914D01*
X121050222Y-97664487D01*
X120834083Y-97341011D01*
X120558989Y-97065917D01*
X120235513Y-96849778D01*
X119876086Y-96700898D01*
X119494521Y-96625000D01*
X119105479Y-96625000D01*
X118723914Y-96700898D01*
X118364487Y-96849778D01*
X118041011Y-97065917D01*
X117765917Y-97341011D01*
X117549778Y-97664487D01*
X117400898Y-98023914D01*
X117325000Y-98405479D01*
X102150000Y-98405479D01*
X102150000Y-78652818D01*
X102275000Y-78652818D01*
X102275000Y-79347182D01*
X102410464Y-80028205D01*
X102676185Y-80669714D01*
X103061954Y-81247057D01*
X103552943Y-81738046D01*
X104130286Y-82123815D01*
X104771795Y-82389536D01*
X105452818Y-82525000D01*
X106147182Y-82525000D01*
X106828205Y-82389536D01*
X107469714Y-82123815D01*
X107986372Y-81778594D01*
X119075000Y-81778594D01*
X119075000Y-81921406D01*
X119102861Y-82061475D01*
X119157513Y-82193416D01*
X119236856Y-82312161D01*
X119337839Y-82413144D01*
X119456584Y-82492487D01*
X119588525Y-82547139D01*
X119722809Y-82573849D01*
X133733719Y-96584760D01*
X133725000Y-96628594D01*
X133725000Y-96771406D01*
X133752861Y-96911475D01*
X133807513Y-97043416D01*
X133886856Y-97162161D01*
X133987839Y-97263144D01*
X134106584Y-97342487D01*
X134238525Y-97397139D01*
X134378594Y-97425000D01*
X134521406Y-97425000D01*
X134661475Y-97397139D01*
X134793416Y-97342487D01*
X134912161Y-97263144D01*
X135013144Y-97162161D01*
X135092487Y-97043416D01*
X135147139Y-96911475D01*
X135175000Y-96771406D01*
X135175000Y-96628594D01*
X135147139Y-96488525D01*
X135092487Y-96356584D01*
X135013144Y-96237839D01*
X134912161Y-96136856D01*
X134793416Y-96057513D01*
X134661475Y-96002861D01*
X134521406Y-95975000D01*
X134378594Y-95975000D01*
X134334760Y-95983719D01*
X126029635Y-87678594D01*
X129425000Y-87678594D01*
X129425000Y-87821406D01*
X129452861Y-87961475D01*
X129507513Y-88093416D01*
X129586856Y-88212161D01*
X129687839Y-88313144D01*
X129725001Y-88337975D01*
X129725000Y-89765135D01*
X129722945Y-89786002D01*
X129725000Y-89806869D01*
X129725000Y-89806875D01*
X129731150Y-89869315D01*
X129755452Y-89949428D01*
X129794916Y-90023261D01*
X129848026Y-90087976D01*
X129864243Y-90101285D01*
X132648719Y-92885762D01*
X132662024Y-92901974D01*
X132726738Y-92955084D01*
X132800571Y-92994548D01*
X132856381Y-93011478D01*
X132880683Y-93018850D01*
X132888217Y-93019592D01*
X132943124Y-93025000D01*
X132943130Y-93025000D01*
X132963997Y-93027055D01*
X132984864Y-93025000D01*
X133862026Y-93025000D01*
X133886856Y-93062161D01*
X133987839Y-93163144D01*
X134106584Y-93242487D01*
X134238525Y-93297139D01*
X134378594Y-93325000D01*
X134521406Y-93325000D01*
X134661475Y-93297139D01*
X134793416Y-93242487D01*
X134912161Y-93163144D01*
X135013144Y-93062161D01*
X135092487Y-92943416D01*
X135147139Y-92811475D01*
X135175000Y-92671406D01*
X135175000Y-92528594D01*
X135147139Y-92388525D01*
X135092487Y-92256584D01*
X135013144Y-92137839D01*
X134912161Y-92036856D01*
X134793416Y-91957513D01*
X134661475Y-91902861D01*
X134521406Y-91875000D01*
X134378594Y-91875000D01*
X134238525Y-91902861D01*
X134106584Y-91957513D01*
X133987839Y-92036856D01*
X133886856Y-92137839D01*
X133862026Y-92175000D01*
X133140039Y-92175000D01*
X130575000Y-89609962D01*
X130575000Y-88337974D01*
X130612161Y-88313144D01*
X130675000Y-88250305D01*
X130675000Y-88371406D01*
X130702861Y-88511475D01*
X130757513Y-88643416D01*
X130836856Y-88762161D01*
X130937839Y-88863144D01*
X131056584Y-88942487D01*
X131188525Y-88997139D01*
X131328594Y-89025000D01*
X131471406Y-89025000D01*
X131611475Y-88997139D01*
X131706668Y-88957708D01*
X133033719Y-90284760D01*
X133025000Y-90328594D01*
X133025000Y-90471406D01*
X133052861Y-90611475D01*
X133107513Y-90743416D01*
X133186856Y-90862161D01*
X133287839Y-90963144D01*
X133406584Y-91042487D01*
X133538525Y-91097139D01*
X133678594Y-91125000D01*
X133821406Y-91125000D01*
X133961475Y-91097139D01*
X134093416Y-91042487D01*
X134212161Y-90963144D01*
X134313144Y-90862161D01*
X134392487Y-90743416D01*
X134447139Y-90611475D01*
X134475000Y-90471406D01*
X134475000Y-90328594D01*
X134447139Y-90188525D01*
X134392487Y-90056584D01*
X134313144Y-89937839D01*
X134212161Y-89836856D01*
X134093416Y-89757513D01*
X133961475Y-89702861D01*
X133821406Y-89675000D01*
X133678594Y-89675000D01*
X133634760Y-89683719D01*
X132111434Y-88160394D01*
X132097139Y-88088525D01*
X132042487Y-87956584D01*
X131963144Y-87837839D01*
X131862161Y-87736856D01*
X131743416Y-87657513D01*
X131611475Y-87602861D01*
X131471406Y-87575000D01*
X131328594Y-87575000D01*
X131188525Y-87602861D01*
X131056584Y-87657513D01*
X130937839Y-87736856D01*
X130875000Y-87799695D01*
X130875000Y-87678594D01*
X130847139Y-87538525D01*
X130792487Y-87406584D01*
X130713144Y-87287839D01*
X130612161Y-87186856D01*
X130493416Y-87107513D01*
X130361475Y-87052861D01*
X130221406Y-87025000D01*
X130078594Y-87025000D01*
X129938525Y-87052861D01*
X129806584Y-87107513D01*
X129687839Y-87186856D01*
X129586856Y-87287839D01*
X129507513Y-87406584D01*
X129452861Y-87538525D01*
X129425000Y-87678594D01*
X126029635Y-87678594D01*
X120529635Y-82178594D01*
X150025000Y-82178594D01*
X150025000Y-82321406D01*
X150052861Y-82461475D01*
X150107513Y-82593416D01*
X150186856Y-82712161D01*
X150287839Y-82813144D01*
X150406584Y-82892487D01*
X150538525Y-82947139D01*
X150678594Y-82975000D01*
X150821406Y-82975000D01*
X150865241Y-82966281D01*
X151325001Y-83426041D01*
X151325000Y-84697026D01*
X151287839Y-84721856D01*
X151186856Y-84822839D01*
X151107513Y-84941584D01*
X151052861Y-85073525D01*
X151025000Y-85213594D01*
X151025000Y-85356406D01*
X151052861Y-85496475D01*
X151107513Y-85628416D01*
X151186856Y-85747161D01*
X151287839Y-85848144D01*
X151406584Y-85927487D01*
X151538525Y-85982139D01*
X151678594Y-86010000D01*
X151821406Y-86010000D01*
X151961475Y-85982139D01*
X152093416Y-85927487D01*
X152212161Y-85848144D01*
X152313144Y-85747161D01*
X152392487Y-85628416D01*
X152447139Y-85496475D01*
X152475000Y-85356406D01*
X152475000Y-85213594D01*
X152447139Y-85073525D01*
X152392487Y-84941584D01*
X152313144Y-84822839D01*
X152212161Y-84721856D01*
X152175000Y-84697026D01*
X152175000Y-83270874D01*
X152177056Y-83250000D01*
X152168850Y-83166686D01*
X152144548Y-83086573D01*
X152118975Y-83038729D01*
X152105084Y-83012740D01*
X152051974Y-82948026D01*
X152035756Y-82934716D01*
X151466281Y-82365241D01*
X151475000Y-82321406D01*
X151475000Y-82178594D01*
X151447139Y-82038525D01*
X151392487Y-81906584D01*
X151313144Y-81787839D01*
X151212161Y-81686856D01*
X151093416Y-81607513D01*
X150961475Y-81552861D01*
X150821406Y-81525000D01*
X150678594Y-81525000D01*
X150538525Y-81552861D01*
X150406584Y-81607513D01*
X150287839Y-81686856D01*
X150186856Y-81787839D01*
X150107513Y-81906584D01*
X150052861Y-82038525D01*
X150025000Y-82178594D01*
X120529635Y-82178594D01*
X120472353Y-82121313D01*
X120497139Y-82061475D01*
X120525000Y-81921406D01*
X120525000Y-81778594D01*
X120497139Y-81638525D01*
X120442487Y-81506584D01*
X120363144Y-81387839D01*
X120262161Y-81286856D01*
X120143416Y-81207513D01*
X120011475Y-81152861D01*
X119871406Y-81125000D01*
X119728594Y-81125000D01*
X119588525Y-81152861D01*
X119456584Y-81207513D01*
X119337839Y-81286856D01*
X119236856Y-81387839D01*
X119157513Y-81506584D01*
X119102861Y-81638525D01*
X119075000Y-81778594D01*
X107986372Y-81778594D01*
X108047057Y-81738046D01*
X108538046Y-81247057D01*
X108923815Y-80669714D01*
X109189536Y-80028205D01*
X109325000Y-79347182D01*
X109325000Y-78652818D01*
X109189536Y-77971795D01*
X108923815Y-77330286D01*
X108538046Y-76752943D01*
X108047057Y-76261954D01*
X107469714Y-75876185D01*
X106828205Y-75610464D01*
X106147182Y-75475000D01*
X105452818Y-75475000D01*
X104771795Y-75610464D01*
X104130286Y-75876185D01*
X103552943Y-76261954D01*
X103061954Y-76752943D01*
X102676185Y-77330286D01*
X102410464Y-77971795D01*
X102275000Y-78652818D01*
X102150000Y-78652818D01*
X102150000Y-78017122D01*
X102202116Y-77485603D01*
X102351505Y-76990804D01*
X102594157Y-76534439D01*
X102920827Y-76133904D01*
X103319081Y-75804439D01*
X103773734Y-75558610D01*
X104267479Y-75405770D01*
X104798008Y-75350009D01*
X104800646Y-75350000D01*
X126232878Y-75350000D01*
X126764397Y-75402116D01*
G04 #@! TA.AperFunction,Conductor*
D24*
G36*
X126764397Y-75402116D02*
G01*
X127259196Y-75551505D01*
X127715561Y-75794157D01*
X128116096Y-76120827D01*
X128445561Y-76519081D01*
X128691390Y-76973734D01*
X128844230Y-77467479D01*
X128899991Y-77998008D01*
X128900002Y-78001220D01*
X128900075Y-78022164D01*
X128901620Y-78037372D01*
X128901513Y-78052665D01*
X128901990Y-78057529D01*
X128963191Y-78639818D01*
X128969562Y-78670853D01*
X128975514Y-78702054D01*
X128976927Y-78706732D01*
X129150064Y-79266046D01*
X129162343Y-79295255D01*
X129174239Y-79324700D01*
X129176534Y-79329015D01*
X129455010Y-79844047D01*
X129472754Y-79870354D01*
X129490119Y-79896890D01*
X129493207Y-79900678D01*
X129866417Y-80351811D01*
X129888929Y-80374165D01*
X129911121Y-80396827D01*
X129914887Y-80399942D01*
X130368615Y-80769995D01*
X130395033Y-80787547D01*
X130421211Y-80805471D01*
X130425510Y-80807796D01*
X130942475Y-81082670D01*
X130971754Y-81094738D01*
X131000959Y-81107255D01*
X131005628Y-81108700D01*
X131566136Y-81277927D01*
X131597213Y-81284080D01*
X131628282Y-81290684D01*
X131633143Y-81291195D01*
X132215845Y-81348330D01*
X132215856Y-81348330D01*
X132232811Y-81350000D01*
X157267189Y-81350000D01*
X157267796Y-81349940D01*
X157272164Y-81349925D01*
X157287372Y-81348380D01*
X157302665Y-81348487D01*
X157307529Y-81348010D01*
X157889818Y-81286809D01*
X157920853Y-81280438D01*
X157952054Y-81274486D01*
X157956732Y-81273073D01*
X158516046Y-81099936D01*
X158545255Y-81087657D01*
X158574700Y-81075761D01*
X158579015Y-81073466D01*
X159094047Y-80794990D01*
X159120354Y-80777246D01*
X159146890Y-80759881D01*
X159150678Y-80756793D01*
X159601811Y-80383583D01*
X159624165Y-80361071D01*
X159646827Y-80338879D01*
X159649942Y-80335113D01*
X160019995Y-79881385D01*
X160037547Y-79854967D01*
X160055471Y-79828789D01*
X160057796Y-79824490D01*
X160332670Y-79307525D01*
X160344738Y-79278246D01*
X160357255Y-79249041D01*
X160358700Y-79244372D01*
X160527927Y-78683864D01*
X160534073Y-78652818D01*
X181675000Y-78652818D01*
X181675000Y-79347182D01*
X181810464Y-80028205D01*
X182076185Y-80669714D01*
X182461954Y-81247057D01*
X182952943Y-81738046D01*
X183530286Y-82123815D01*
X184171795Y-82389536D01*
X184852818Y-82525000D01*
X185547182Y-82525000D01*
X186228205Y-82389536D01*
X186869714Y-82123815D01*
X187447057Y-81738046D01*
X187938046Y-81247057D01*
X188323815Y-80669714D01*
X188589536Y-80028205D01*
X188725000Y-79347182D01*
X188725000Y-78652818D01*
X188589536Y-77971795D01*
X188323815Y-77330286D01*
X187938046Y-76752943D01*
X187447057Y-76261954D01*
X186869714Y-75876185D01*
X186228205Y-75610464D01*
X185547182Y-75475000D01*
X184852818Y-75475000D01*
X184171795Y-75610464D01*
X183530286Y-75876185D01*
X182952943Y-76261954D01*
X182461954Y-76752943D01*
X182076185Y-77330286D01*
X181810464Y-77971795D01*
X181675000Y-78652818D01*
X160534073Y-78652818D01*
X160534080Y-78652787D01*
X160540684Y-78621718D01*
X160541195Y-78616857D01*
X160598330Y-78034155D01*
X160598330Y-78034154D01*
X160652116Y-77485603D01*
X160801505Y-76990804D01*
X161044157Y-76534439D01*
X161370827Y-76133904D01*
X161769081Y-75804439D01*
X162223734Y-75558610D01*
X162717479Y-75405770D01*
X163248008Y-75350009D01*
X163250646Y-75350000D01*
X186182878Y-75350000D01*
X186714397Y-75402116D01*
X187209196Y-75551505D01*
X187665561Y-75794157D01*
X188066096Y-76120827D01*
X188395561Y-76519081D01*
X188641390Y-76973734D01*
X188794230Y-77467479D01*
X188849991Y-77998008D01*
X188850000Y-78000646D01*
X188850001Y-130425000D01*
X174315000Y-130425000D01*
X177109667Y-128329000D01*
X185000000Y-128329000D01*
X185064185Y-128322678D01*
X185125903Y-128303956D01*
X185182783Y-128273554D01*
X185232638Y-128232638D01*
X185273554Y-128182783D01*
X185303956Y-128125903D01*
X185322678Y-128064185D01*
X185329000Y-128000000D01*
X185329000Y-122329000D01*
X188000000Y-122329000D01*
X188064185Y-122322678D01*
X188125903Y-122303956D01*
X188182783Y-122273554D01*
X188232638Y-122232638D01*
X188273554Y-122182783D01*
X188303956Y-122125903D01*
X188322678Y-122064185D01*
X188329000Y-122000000D01*
X188329000Y-100000000D01*
X188322422Y-99934540D01*
X188303456Y-99872897D01*
X188272829Y-99816138D01*
X188231717Y-99766444D01*
X188181700Y-99725726D01*
X188124700Y-99695548D01*
X188062909Y-99677070D01*
X187998700Y-99671003D01*
X177933107Y-99710788D01*
X178050222Y-99535513D01*
X178199102Y-99176086D01*
X178275000Y-98794521D01*
X178275000Y-98405479D01*
X178199102Y-98023914D01*
X178050222Y-97664487D01*
X178049606Y-97663566D01*
X181605092Y-94108081D01*
X181656584Y-94142487D01*
X181788525Y-94197139D01*
X181928594Y-94225000D01*
X182071406Y-94225000D01*
X182211475Y-94197139D01*
X182343416Y-94142487D01*
X182462161Y-94063144D01*
X182563144Y-93962161D01*
X182642487Y-93843416D01*
X182697139Y-93711475D01*
X182725000Y-93571406D01*
X182725000Y-93428594D01*
X182697139Y-93288525D01*
X182642487Y-93156584D01*
X182563144Y-93037839D01*
X182462161Y-92936856D01*
X182343416Y-92857513D01*
X182211475Y-92802861D01*
X182071406Y-92775000D01*
X181928594Y-92775000D01*
X181788525Y-92802861D01*
X181656584Y-92857513D01*
X181555583Y-92925000D01*
X181428242Y-92925000D01*
X181399999Y-92922218D01*
X181371756Y-92925000D01*
X181371754Y-92925000D01*
X181287280Y-92933320D01*
X181178892Y-92966199D01*
X181079001Y-93019592D01*
X181033153Y-93057218D01*
X180991446Y-93091446D01*
X180973439Y-93113388D01*
X177236434Y-96850394D01*
X177235513Y-96849778D01*
X176876086Y-96700898D01*
X176494521Y-96625000D01*
X176105479Y-96625000D01*
X175723914Y-96700898D01*
X175364487Y-96849778D01*
X175041011Y-97065917D01*
X174765917Y-97341011D01*
X174549778Y-97664487D01*
X174400898Y-98023914D01*
X174325000Y-98405479D01*
X174325000Y-98794521D01*
X174400898Y-99176086D01*
X174549778Y-99535513D01*
X174675496Y-99723664D01*
X127445081Y-99910345D01*
X127511475Y-99897139D01*
X127643416Y-99842487D01*
X127762161Y-99763144D01*
X127863144Y-99662161D01*
X127942487Y-99543416D01*
X127997139Y-99411475D01*
X128025000Y-99271406D01*
X128025000Y-99128594D01*
X127997139Y-98988525D01*
X127942487Y-98856584D01*
X127875000Y-98755583D01*
X127875000Y-97928594D01*
X157075000Y-97928594D01*
X157075000Y-98071406D01*
X157102861Y-98211475D01*
X157157513Y-98343416D01*
X157236856Y-98462161D01*
X157337839Y-98563144D01*
X157456584Y-98642487D01*
X157588525Y-98697139D01*
X157728594Y-98725000D01*
X157871406Y-98725000D01*
X158011475Y-98697139D01*
X158143416Y-98642487D01*
X158244417Y-98575000D01*
X159221757Y-98575000D01*
X159250000Y-98577782D01*
X159278243Y-98575000D01*
X159278246Y-98575000D01*
X159362720Y-98566680D01*
X159471108Y-98533801D01*
X159570998Y-98480408D01*
X159658554Y-98408554D01*
X159676566Y-98386606D01*
X168372267Y-89690905D01*
X184800000Y-89690905D01*
X184800000Y-89809095D01*
X184823058Y-89925014D01*
X184868287Y-90034207D01*
X184933950Y-90132478D01*
X185017522Y-90216050D01*
X185115793Y-90281713D01*
X185224986Y-90326942D01*
X185340905Y-90350000D01*
X185459095Y-90350000D01*
X185575014Y-90326942D01*
X185684207Y-90281713D01*
X185782478Y-90216050D01*
X185866050Y-90132478D01*
X185931713Y-90034207D01*
X185976942Y-89925014D01*
X186000000Y-89809095D01*
X186000000Y-89690905D01*
X185976942Y-89574986D01*
X185931713Y-89465793D01*
X185866050Y-89367522D01*
X185782478Y-89283950D01*
X185684207Y-89218287D01*
X185575014Y-89173058D01*
X185459095Y-89150000D01*
X185340905Y-89150000D01*
X185224986Y-89173058D01*
X185115793Y-89218287D01*
X185017522Y-89283950D01*
X184933950Y-89367522D01*
X184868287Y-89465793D01*
X184823058Y-89574986D01*
X184800000Y-89690905D01*
X168372267Y-89690905D01*
X169092336Y-88970837D01*
X169211475Y-88947139D01*
X169343416Y-88892487D01*
X169462161Y-88813144D01*
X169563144Y-88712161D01*
X169642487Y-88593416D01*
X169697139Y-88461475D01*
X169725000Y-88321406D01*
X169725000Y-88178594D01*
X169697139Y-88038525D01*
X169642487Y-87906584D01*
X169575000Y-87805583D01*
X169575000Y-86575000D01*
X171511757Y-86575000D01*
X171540000Y-86577782D01*
X171568243Y-86575000D01*
X171568246Y-86575000D01*
X171652720Y-86566680D01*
X171761108Y-86533801D01*
X171816350Y-86504273D01*
X174825000Y-86504273D01*
X174825000Y-86735727D01*
X174870155Y-86962735D01*
X174958729Y-87176571D01*
X175087318Y-87369019D01*
X175250981Y-87532682D01*
X175443429Y-87661271D01*
X175657265Y-87749845D01*
X175884273Y-87795000D01*
X176115727Y-87795000D01*
X176342735Y-87749845D01*
X176556571Y-87661271D01*
X176749019Y-87532682D01*
X176912682Y-87369019D01*
X177041271Y-87176571D01*
X177129845Y-86962735D01*
X177175000Y-86735727D01*
X177175000Y-86504273D01*
X177129845Y-86277265D01*
X177041271Y-86063429D01*
X176912682Y-85870981D01*
X176749019Y-85707318D01*
X176724456Y-85690905D01*
X184800000Y-85690905D01*
X184800000Y-85809095D01*
X184823058Y-85925014D01*
X184868287Y-86034207D01*
X184933950Y-86132478D01*
X185017522Y-86216050D01*
X185115793Y-86281713D01*
X185224986Y-86326942D01*
X185340905Y-86350000D01*
X185459095Y-86350000D01*
X185575014Y-86326942D01*
X185684207Y-86281713D01*
X185782478Y-86216050D01*
X185866050Y-86132478D01*
X185931713Y-86034207D01*
X185976942Y-85925014D01*
X186000000Y-85809095D01*
X186000000Y-85690905D01*
X185976942Y-85574986D01*
X185931713Y-85465793D01*
X185866050Y-85367522D01*
X185782478Y-85283950D01*
X185684207Y-85218287D01*
X185575014Y-85173058D01*
X185459095Y-85150000D01*
X185340905Y-85150000D01*
X185224986Y-85173058D01*
X185115793Y-85218287D01*
X185017522Y-85283950D01*
X184933950Y-85367522D01*
X184868287Y-85465793D01*
X184823058Y-85574986D01*
X184800000Y-85690905D01*
X176724456Y-85690905D01*
X176556571Y-85578729D01*
X176342735Y-85490155D01*
X176115727Y-85445000D01*
X175884273Y-85445000D01*
X175657265Y-85490155D01*
X175443429Y-85578729D01*
X175250981Y-85707318D01*
X175087318Y-85870981D01*
X174958729Y-86063429D01*
X174870155Y-86277265D01*
X174825000Y-86504273D01*
X171816350Y-86504273D01*
X171860998Y-86480408D01*
X171948554Y-86408554D01*
X171966566Y-86386606D01*
X174388899Y-83964273D01*
X174825000Y-83964273D01*
X174825000Y-84195727D01*
X174870155Y-84422735D01*
X174958729Y-84636571D01*
X175087318Y-84829019D01*
X175250981Y-84992682D01*
X175443429Y-85121271D01*
X175657265Y-85209845D01*
X175884273Y-85255000D01*
X176115727Y-85255000D01*
X176342735Y-85209845D01*
X176556571Y-85121271D01*
X176749019Y-84992682D01*
X176912682Y-84829019D01*
X177041271Y-84636571D01*
X177129845Y-84422735D01*
X177175000Y-84195727D01*
X177175000Y-83964273D01*
X177129845Y-83737265D01*
X177041271Y-83523429D01*
X176912682Y-83330981D01*
X176749019Y-83167318D01*
X176556571Y-83038729D01*
X176342735Y-82950155D01*
X176115727Y-82905000D01*
X175884273Y-82905000D01*
X175657265Y-82950155D01*
X175443429Y-83038729D01*
X175250981Y-83167318D01*
X175087318Y-83330981D01*
X174958729Y-83523429D01*
X174870155Y-83737265D01*
X174825000Y-83964273D01*
X174388899Y-83964273D01*
X175679003Y-82674169D01*
X175884273Y-82715000D01*
X176115727Y-82715000D01*
X176342735Y-82669845D01*
X176556571Y-82581271D01*
X176749019Y-82452682D01*
X176912682Y-82289019D01*
X177041271Y-82096571D01*
X177129845Y-81882735D01*
X177175000Y-81655727D01*
X177175000Y-81424273D01*
X177129845Y-81197265D01*
X177041271Y-80983429D01*
X176912682Y-80790981D01*
X176749019Y-80627318D01*
X176556571Y-80498729D01*
X176342735Y-80410155D01*
X176115727Y-80365000D01*
X175884273Y-80365000D01*
X175657265Y-80410155D01*
X175443429Y-80498729D01*
X175250981Y-80627318D01*
X175087318Y-80790981D01*
X174958729Y-80983429D01*
X174870155Y-81197265D01*
X174825000Y-81424273D01*
X174825000Y-81655727D01*
X174865831Y-81860997D01*
X171301828Y-85425000D01*
X169444417Y-85425000D01*
X169343416Y-85357513D01*
X169211475Y-85302861D01*
X169071406Y-85275000D01*
X168928594Y-85275000D01*
X168788525Y-85302861D01*
X168656584Y-85357513D01*
X168537839Y-85436856D01*
X168436856Y-85537839D01*
X168357513Y-85656584D01*
X168302861Y-85788525D01*
X168275000Y-85928594D01*
X168275000Y-86071406D01*
X168302861Y-86211475D01*
X168357513Y-86343416D01*
X168425000Y-86444418D01*
X168425001Y-87805582D01*
X168357513Y-87906584D01*
X168302861Y-88038525D01*
X168279163Y-88157664D01*
X159011828Y-97425000D01*
X158244417Y-97425000D01*
X158143416Y-97357513D01*
X158011475Y-97302861D01*
X157871406Y-97275000D01*
X157728594Y-97275000D01*
X157588525Y-97302861D01*
X157456584Y-97357513D01*
X157337839Y-97436856D01*
X157236856Y-97537839D01*
X157157513Y-97656584D01*
X157102861Y-97788525D01*
X157075000Y-97928594D01*
X127875000Y-97928594D01*
X127875000Y-96988172D01*
X128042336Y-96820837D01*
X128161475Y-96797139D01*
X128293416Y-96742487D01*
X128412161Y-96663144D01*
X128513144Y-96562161D01*
X128592487Y-96443416D01*
X128647139Y-96311475D01*
X128675000Y-96171406D01*
X128675000Y-96028594D01*
X128647139Y-95888525D01*
X128592487Y-95756584D01*
X128513144Y-95637839D01*
X128412161Y-95536856D01*
X128293416Y-95457513D01*
X128161475Y-95402861D01*
X128021406Y-95375000D01*
X127878594Y-95375000D01*
X127738525Y-95402861D01*
X127606584Y-95457513D01*
X127487839Y-95536856D01*
X127386856Y-95637839D01*
X127307513Y-95756584D01*
X127252861Y-95888525D01*
X127229163Y-96007664D01*
X126913389Y-96323439D01*
X126891447Y-96341446D01*
X126873441Y-96363387D01*
X126819592Y-96429002D01*
X126766199Y-96528893D01*
X126733321Y-96637281D01*
X126722218Y-96750000D01*
X126725001Y-96778253D01*
X126725000Y-98755582D01*
X126657513Y-98856584D01*
X126602861Y-98988525D01*
X126575000Y-99128594D01*
X126575000Y-99271406D01*
X126602861Y-99411475D01*
X126657513Y-99543416D01*
X126736856Y-99662161D01*
X126837839Y-99763144D01*
X126956584Y-99842487D01*
X127088525Y-99897139D01*
X127160573Y-99911470D01*
X124748700Y-99921003D01*
X124681869Y-99928132D01*
X124620385Y-99947608D01*
X124563882Y-99978705D01*
X124514531Y-100020228D01*
X124474229Y-100070580D01*
X124444525Y-100127828D01*
X124426560Y-100189771D01*
X124421025Y-100254028D01*
X124571025Y-112504028D01*
X124573012Y-112536332D01*
X124586383Y-112599426D01*
X124611806Y-112658699D01*
X124648305Y-112711874D01*
X124694475Y-112756906D01*
X127194475Y-114756906D01*
X127275957Y-114804720D01*
X127337788Y-114823065D01*
X142083915Y-117662691D01*
X164336147Y-130425000D01*
X146254310Y-130425000D01*
X146693398Y-130243124D01*
X147278930Y-129851884D01*
X147776884Y-129353930D01*
X148168124Y-128768398D01*
X148437615Y-128117789D01*
X148575000Y-127427107D01*
X148575000Y-126722893D01*
X148437615Y-126032211D01*
X148168124Y-125381602D01*
X147776884Y-124796070D01*
X147278930Y-124298116D01*
X146693398Y-123906876D01*
X146042789Y-123637385D01*
X145352107Y-123500000D01*
X144647893Y-123500000D01*
X143957211Y-123637385D01*
X143306602Y-123906876D01*
X142721070Y-124298116D01*
X142223116Y-124796070D01*
X141831876Y-125381602D01*
X141562385Y-126032211D01*
X141425000Y-126722893D01*
X141425000Y-127427107D01*
X141562385Y-128117789D01*
X141831876Y-128768398D01*
X142223116Y-129353930D01*
X142721070Y-129851884D01*
X143306602Y-130243124D01*
X143745690Y-130425000D01*
X126079000Y-130425000D01*
X126079000Y-116375000D01*
X126066364Y-116284695D01*
X126042667Y-116224710D01*
X126007724Y-116170502D01*
X125962876Y-116124152D01*
X120629000Y-111597698D01*
X120629000Y-103750000D01*
X120623572Y-103690484D01*
X120605744Y-103628502D01*
X120576166Y-103571189D01*
X120535975Y-103520748D01*
X120486716Y-103479116D01*
X120430282Y-103447895D01*
X120368841Y-103428283D01*
X120304754Y-103421034D01*
X103004754Y-103171034D01*
X102935815Y-103177322D01*
X102874097Y-103196044D01*
X102817217Y-103226446D01*
X102767362Y-103267362D01*
X102726446Y-103317217D01*
X102696044Y-103374097D01*
X102677322Y-103435815D01*
X102671000Y-103500000D01*
X102671000Y-110500000D01*
X102678670Y-110570624D01*
X102698622Y-110631956D01*
X102730156Y-110688216D01*
X102772060Y-110737243D01*
X115421000Y-122890146D01*
X115421000Y-130425000D01*
X102150000Y-130425000D01*
X102150000Y-98405479D01*
X117325000Y-98405479D01*
X117325000Y-98794521D01*
X117400898Y-99176086D01*
X117549778Y-99535513D01*
X117765917Y-99858989D01*
X118041011Y-100134083D01*
X118364487Y-100350222D01*
X118723914Y-100499102D01*
X119105479Y-100575000D01*
X119494521Y-100575000D01*
X119876086Y-100499102D01*
X120235513Y-100350222D01*
X120558989Y-100134083D01*
X120834083Y-99858989D01*
X121050222Y-99535513D01*
X121199102Y-99176086D01*
X121275000Y-98794521D01*
X121275000Y-98405479D01*
X121199102Y-98023914D01*
X121050222Y-97664487D01*
X120834083Y-97341011D01*
X120558989Y-97065917D01*
X120235513Y-96849778D01*
X119876086Y-96700898D01*
X119494521Y-96625000D01*
X119105479Y-96625000D01*
X118723914Y-96700898D01*
X118364487Y-96849778D01*
X118041011Y-97065917D01*
X117765917Y-97341011D01*
X117549778Y-97664487D01*
X117400898Y-98023914D01*
X117325000Y-98405479D01*
X102150000Y-98405479D01*
X102150000Y-78652818D01*
X102275000Y-78652818D01*
X102275000Y-79347182D01*
X102410464Y-80028205D01*
X102676185Y-80669714D01*
X103061954Y-81247057D01*
X103552943Y-81738046D01*
X104130286Y-82123815D01*
X104771795Y-82389536D01*
X105452818Y-82525000D01*
X106147182Y-82525000D01*
X106828205Y-82389536D01*
X107469714Y-82123815D01*
X107986372Y-81778594D01*
X119075000Y-81778594D01*
X119075000Y-81921406D01*
X119102861Y-82061475D01*
X119157513Y-82193416D01*
X119236856Y-82312161D01*
X119337839Y-82413144D01*
X119456584Y-82492487D01*
X119588525Y-82547139D01*
X119722809Y-82573849D01*
X133733719Y-96584760D01*
X133725000Y-96628594D01*
X133725000Y-96771406D01*
X133752861Y-96911475D01*
X133807513Y-97043416D01*
X133886856Y-97162161D01*
X133987839Y-97263144D01*
X134106584Y-97342487D01*
X134238525Y-97397139D01*
X134378594Y-97425000D01*
X134521406Y-97425000D01*
X134661475Y-97397139D01*
X134793416Y-97342487D01*
X134912161Y-97263144D01*
X135013144Y-97162161D01*
X135092487Y-97043416D01*
X135147139Y-96911475D01*
X135175000Y-96771406D01*
X135175000Y-96628594D01*
X135147139Y-96488525D01*
X135092487Y-96356584D01*
X135013144Y-96237839D01*
X134912161Y-96136856D01*
X134793416Y-96057513D01*
X134661475Y-96002861D01*
X134521406Y-95975000D01*
X134378594Y-95975000D01*
X134334760Y-95983719D01*
X126029635Y-87678594D01*
X129425000Y-87678594D01*
X129425000Y-87821406D01*
X129452861Y-87961475D01*
X129507513Y-88093416D01*
X129586856Y-88212161D01*
X129687839Y-88313144D01*
X129725001Y-88337975D01*
X129725000Y-89765135D01*
X129722945Y-89786002D01*
X129725000Y-89806869D01*
X129725000Y-89806875D01*
X129731150Y-89869315D01*
X129755452Y-89949428D01*
X129794916Y-90023261D01*
X129848026Y-90087976D01*
X129864243Y-90101285D01*
X132648719Y-92885762D01*
X132662024Y-92901974D01*
X132726738Y-92955084D01*
X132800571Y-92994548D01*
X132856381Y-93011478D01*
X132880683Y-93018850D01*
X132888217Y-93019592D01*
X132943124Y-93025000D01*
X132943130Y-93025000D01*
X132963997Y-93027055D01*
X132984864Y-93025000D01*
X133862026Y-93025000D01*
X133886856Y-93062161D01*
X133987839Y-93163144D01*
X134106584Y-93242487D01*
X134238525Y-93297139D01*
X134378594Y-93325000D01*
X134521406Y-93325000D01*
X134661475Y-93297139D01*
X134793416Y-93242487D01*
X134912161Y-93163144D01*
X135013144Y-93062161D01*
X135092487Y-92943416D01*
X135147139Y-92811475D01*
X135175000Y-92671406D01*
X135175000Y-92528594D01*
X135147139Y-92388525D01*
X135092487Y-92256584D01*
X135013144Y-92137839D01*
X134912161Y-92036856D01*
X134793416Y-91957513D01*
X134661475Y-91902861D01*
X134521406Y-91875000D01*
X134378594Y-91875000D01*
X134238525Y-91902861D01*
X134106584Y-91957513D01*
X133987839Y-92036856D01*
X133886856Y-92137839D01*
X133862026Y-92175000D01*
X133140039Y-92175000D01*
X130575000Y-89609962D01*
X130575000Y-88337974D01*
X130612161Y-88313144D01*
X130675000Y-88250305D01*
X130675000Y-88371406D01*
X130702861Y-88511475D01*
X130757513Y-88643416D01*
X130836856Y-88762161D01*
X130937839Y-88863144D01*
X131056584Y-88942487D01*
X131188525Y-88997139D01*
X131328594Y-89025000D01*
X131471406Y-89025000D01*
X131611475Y-88997139D01*
X131706668Y-88957708D01*
X133033719Y-90284760D01*
X133025000Y-90328594D01*
X133025000Y-90471406D01*
X133052861Y-90611475D01*
X133107513Y-90743416D01*
X133186856Y-90862161D01*
X133287839Y-90963144D01*
X133406584Y-91042487D01*
X133538525Y-91097139D01*
X133678594Y-91125000D01*
X133821406Y-91125000D01*
X133961475Y-91097139D01*
X134093416Y-91042487D01*
X134212161Y-90963144D01*
X134313144Y-90862161D01*
X134392487Y-90743416D01*
X134447139Y-90611475D01*
X134475000Y-90471406D01*
X134475000Y-90328594D01*
X134447139Y-90188525D01*
X134392487Y-90056584D01*
X134313144Y-89937839D01*
X134212161Y-89836856D01*
X134093416Y-89757513D01*
X133961475Y-89702861D01*
X133821406Y-89675000D01*
X133678594Y-89675000D01*
X133634760Y-89683719D01*
X132111434Y-88160394D01*
X132097139Y-88088525D01*
X132042487Y-87956584D01*
X131963144Y-87837839D01*
X131862161Y-87736856D01*
X131743416Y-87657513D01*
X131611475Y-87602861D01*
X131471406Y-87575000D01*
X131328594Y-87575000D01*
X131188525Y-87602861D01*
X131056584Y-87657513D01*
X130937839Y-87736856D01*
X130875000Y-87799695D01*
X130875000Y-87678594D01*
X130847139Y-87538525D01*
X130792487Y-87406584D01*
X130713144Y-87287839D01*
X130612161Y-87186856D01*
X130493416Y-87107513D01*
X130361475Y-87052861D01*
X130221406Y-87025000D01*
X130078594Y-87025000D01*
X129938525Y-87052861D01*
X129806584Y-87107513D01*
X129687839Y-87186856D01*
X129586856Y-87287839D01*
X129507513Y-87406584D01*
X129452861Y-87538525D01*
X129425000Y-87678594D01*
X126029635Y-87678594D01*
X120529635Y-82178594D01*
X150025000Y-82178594D01*
X150025000Y-82321406D01*
X150052861Y-82461475D01*
X150107513Y-82593416D01*
X150186856Y-82712161D01*
X150287839Y-82813144D01*
X150406584Y-82892487D01*
X150538525Y-82947139D01*
X150678594Y-82975000D01*
X150821406Y-82975000D01*
X150865241Y-82966281D01*
X151325001Y-83426041D01*
X151325000Y-84697026D01*
X151287839Y-84721856D01*
X151186856Y-84822839D01*
X151107513Y-84941584D01*
X151052861Y-85073525D01*
X151025000Y-85213594D01*
X151025000Y-85356406D01*
X151052861Y-85496475D01*
X151107513Y-85628416D01*
X151186856Y-85747161D01*
X151287839Y-85848144D01*
X151406584Y-85927487D01*
X151538525Y-85982139D01*
X151678594Y-86010000D01*
X151821406Y-86010000D01*
X151961475Y-85982139D01*
X152093416Y-85927487D01*
X152212161Y-85848144D01*
X152313144Y-85747161D01*
X152392487Y-85628416D01*
X152447139Y-85496475D01*
X152475000Y-85356406D01*
X152475000Y-85213594D01*
X152447139Y-85073525D01*
X152392487Y-84941584D01*
X152313144Y-84822839D01*
X152212161Y-84721856D01*
X152175000Y-84697026D01*
X152175000Y-83270874D01*
X152177056Y-83250000D01*
X152168850Y-83166686D01*
X152144548Y-83086573D01*
X152118975Y-83038729D01*
X152105084Y-83012740D01*
X152051974Y-82948026D01*
X152035756Y-82934716D01*
X151466281Y-82365241D01*
X151475000Y-82321406D01*
X151475000Y-82178594D01*
X151447139Y-82038525D01*
X151392487Y-81906584D01*
X151313144Y-81787839D01*
X151212161Y-81686856D01*
X151093416Y-81607513D01*
X150961475Y-81552861D01*
X150821406Y-81525000D01*
X150678594Y-81525000D01*
X150538525Y-81552861D01*
X150406584Y-81607513D01*
X150287839Y-81686856D01*
X150186856Y-81787839D01*
X150107513Y-81906584D01*
X150052861Y-82038525D01*
X150025000Y-82178594D01*
X120529635Y-82178594D01*
X120472353Y-82121313D01*
X120497139Y-82061475D01*
X120525000Y-81921406D01*
X120525000Y-81778594D01*
X120497139Y-81638525D01*
X120442487Y-81506584D01*
X120363144Y-81387839D01*
X120262161Y-81286856D01*
X120143416Y-81207513D01*
X120011475Y-81152861D01*
X119871406Y-81125000D01*
X119728594Y-81125000D01*
X119588525Y-81152861D01*
X119456584Y-81207513D01*
X119337839Y-81286856D01*
X119236856Y-81387839D01*
X119157513Y-81506584D01*
X119102861Y-81638525D01*
X119075000Y-81778594D01*
X107986372Y-81778594D01*
X108047057Y-81738046D01*
X108538046Y-81247057D01*
X108923815Y-80669714D01*
X109189536Y-80028205D01*
X109325000Y-79347182D01*
X109325000Y-78652818D01*
X109189536Y-77971795D01*
X108923815Y-77330286D01*
X108538046Y-76752943D01*
X108047057Y-76261954D01*
X107469714Y-75876185D01*
X106828205Y-75610464D01*
X106147182Y-75475000D01*
X105452818Y-75475000D01*
X104771795Y-75610464D01*
X104130286Y-75876185D01*
X103552943Y-76261954D01*
X103061954Y-76752943D01*
X102676185Y-77330286D01*
X102410464Y-77971795D01*
X102275000Y-78652818D01*
X102150000Y-78652818D01*
X102150000Y-78017122D01*
X102202116Y-77485603D01*
X102351505Y-76990804D01*
X102594157Y-76534439D01*
X102920827Y-76133904D01*
X103319081Y-75804439D01*
X103773734Y-75558610D01*
X104267479Y-75405770D01*
X104798008Y-75350009D01*
X104800646Y-75350000D01*
X126232878Y-75350000D01*
X126764397Y-75402116D01*
G37*
G04 #@! TD.AperFunction*
D26*
X115455282Y-131122076D02*
X115484761Y-131177227D01*
X115524433Y-131225567D01*
X115572773Y-131265239D01*
X115627924Y-131294718D01*
X115687766Y-131312871D01*
X115750000Y-131319000D01*
X116303244Y-131319000D01*
X116348184Y-131427496D01*
X116420961Y-131536413D01*
X116513587Y-131629039D01*
X116622504Y-131701816D01*
X116743527Y-131751945D01*
X116872003Y-131777500D01*
X117002997Y-131777500D01*
X117131473Y-131751945D01*
X117252496Y-131701816D01*
X117361413Y-131629039D01*
X117454039Y-131536413D01*
X117493404Y-131477500D01*
X123011313Y-131477500D01*
X123248823Y-131715010D01*
X123235000Y-131784503D01*
X123235000Y-131915497D01*
X123260555Y-132043973D01*
X123310684Y-132164996D01*
X123383461Y-132273913D01*
X123476087Y-132366539D01*
X123585004Y-132439316D01*
X123706027Y-132489445D01*
X123834503Y-132515000D01*
X123965497Y-132515000D01*
X124093973Y-132489445D01*
X124214996Y-132439316D01*
X124323913Y-132366539D01*
X124416539Y-132273913D01*
X124489316Y-132164996D01*
X124539445Y-132043973D01*
X124565000Y-131915497D01*
X124565000Y-131784503D01*
X124539445Y-131656027D01*
X124489316Y-131535004D01*
X124416539Y-131426087D01*
X124323913Y-131333461D01*
X124302271Y-131319000D01*
X125750000Y-131319000D01*
X125812234Y-131312871D01*
X125872076Y-131294718D01*
X125927227Y-131265239D01*
X125975567Y-131225567D01*
X126015239Y-131177227D01*
X126044718Y-131122076D01*
X126062032Y-131065000D01*
X165472143Y-131065000D01*
X165841294Y-131276719D01*
X165877924Y-131294718D01*
X165937766Y-131312871D01*
X166000000Y-131319000D01*
X173000000Y-131319000D01*
X173079170Y-131309020D01*
X173137935Y-131287637D01*
X173191400Y-131255200D01*
X173445000Y-131065000D01*
X188819027Y-131065000D01*
X188819027Y-138651957D01*
X188704234Y-139032171D01*
X188456058Y-139498921D01*
X188121949Y-139908580D01*
X187714634Y-140245540D01*
X187249630Y-140496966D01*
X186744638Y-140653288D01*
X186205243Y-140709980D01*
X186199563Y-140710000D01*
X104814184Y-140710000D01*
X104273896Y-140657024D01*
X103767829Y-140504234D01*
X103301079Y-140256058D01*
X102891420Y-139921949D01*
X102554460Y-139514634D01*
X102303034Y-139049630D01*
X102146712Y-138544638D01*
X102090020Y-138005243D01*
X102090000Y-137999563D01*
X102090000Y-136658727D01*
X102335000Y-136658727D01*
X102335000Y-137341273D01*
X102468158Y-138010703D01*
X102729357Y-138641293D01*
X103108558Y-139208809D01*
X103591191Y-139691442D01*
X104158707Y-140070643D01*
X104789297Y-140331842D01*
X105458727Y-140465000D01*
X106141273Y-140465000D01*
X106810703Y-140331842D01*
X107441293Y-140070643D01*
X108008809Y-139691442D01*
X108491442Y-139208809D01*
X108870643Y-138641293D01*
X109131842Y-138010703D01*
X109265000Y-137341273D01*
X109265000Y-136658727D01*
X181735000Y-136658727D01*
X181735000Y-137341273D01*
X181868158Y-138010703D01*
X182129357Y-138641293D01*
X182508558Y-139208809D01*
X182991191Y-139691442D01*
X183558707Y-140070643D01*
X184189297Y-140331842D01*
X184858727Y-140465000D01*
X185541273Y-140465000D01*
X186210703Y-140331842D01*
X186841293Y-140070643D01*
X187408809Y-139691442D01*
X187891442Y-139208809D01*
X188270643Y-138641293D01*
X188531842Y-138010703D01*
X188665000Y-137341273D01*
X188665000Y-136658727D01*
X188531842Y-135989297D01*
X188270643Y-135358707D01*
X187891442Y-134791191D01*
X187408809Y-134308558D01*
X186841293Y-133929357D01*
X186210703Y-133668158D01*
X185541273Y-133535000D01*
X184858727Y-133535000D01*
X184189297Y-133668158D01*
X183558707Y-133929357D01*
X182991191Y-134308558D01*
X182508558Y-134791191D01*
X182129357Y-135358707D01*
X181868158Y-135989297D01*
X181735000Y-136658727D01*
X109265000Y-136658727D01*
X109131842Y-135989297D01*
X108870643Y-135358707D01*
X108491442Y-134791191D01*
X108008809Y-134308558D01*
X107441293Y-133929357D01*
X106810703Y-133668158D01*
X106141273Y-133535000D01*
X105458727Y-133535000D01*
X104789297Y-133668158D01*
X104158707Y-133929357D01*
X103591191Y-134308558D01*
X103108558Y-134791191D01*
X102729357Y-135358707D01*
X102468158Y-135989297D01*
X102335000Y-136658727D01*
X102090000Y-136658727D01*
X102090000Y-131065000D01*
X115437968Y-131065000D01*
X115455282Y-131122076D01*
G04 #@! TA.AperFunction,Conductor*
D24*
G36*
X115455282Y-131122076D02*
G01*
X115484761Y-131177227D01*
X115524433Y-131225567D01*
X115572773Y-131265239D01*
X115627924Y-131294718D01*
X115687766Y-131312871D01*
X115750000Y-131319000D01*
X116303244Y-131319000D01*
X116348184Y-131427496D01*
X116420961Y-131536413D01*
X116513587Y-131629039D01*
X116622504Y-131701816D01*
X116743527Y-131751945D01*
X116872003Y-131777500D01*
X117002997Y-131777500D01*
X117131473Y-131751945D01*
X117252496Y-131701816D01*
X117361413Y-131629039D01*
X117454039Y-131536413D01*
X117493404Y-131477500D01*
X123011313Y-131477500D01*
X123248823Y-131715010D01*
X123235000Y-131784503D01*
X123235000Y-131915497D01*
X123260555Y-132043973D01*
X123310684Y-132164996D01*
X123383461Y-132273913D01*
X123476087Y-132366539D01*
X123585004Y-132439316D01*
X123706027Y-132489445D01*
X123834503Y-132515000D01*
X123965497Y-132515000D01*
X124093973Y-132489445D01*
X124214996Y-132439316D01*
X124323913Y-132366539D01*
X124416539Y-132273913D01*
X124489316Y-132164996D01*
X124539445Y-132043973D01*
X124565000Y-131915497D01*
X124565000Y-131784503D01*
X124539445Y-131656027D01*
X124489316Y-131535004D01*
X124416539Y-131426087D01*
X124323913Y-131333461D01*
X124302271Y-131319000D01*
X125750000Y-131319000D01*
X125812234Y-131312871D01*
X125872076Y-131294718D01*
X125927227Y-131265239D01*
X125975567Y-131225567D01*
X126015239Y-131177227D01*
X126044718Y-131122076D01*
X126062032Y-131065000D01*
X165472143Y-131065000D01*
X165841294Y-131276719D01*
X165877924Y-131294718D01*
X165937766Y-131312871D01*
X166000000Y-131319000D01*
X173000000Y-131319000D01*
X173079170Y-131309020D01*
X173137935Y-131287637D01*
X173191400Y-131255200D01*
X173445000Y-131065000D01*
X188819027Y-131065000D01*
X188819027Y-138651957D01*
X188704234Y-139032171D01*
X188456058Y-139498921D01*
X188121949Y-139908580D01*
X187714634Y-140245540D01*
X187249630Y-140496966D01*
X186744638Y-140653288D01*
X186205243Y-140709980D01*
X186199563Y-140710000D01*
X104814184Y-140710000D01*
X104273896Y-140657024D01*
X103767829Y-140504234D01*
X103301079Y-140256058D01*
X102891420Y-139921949D01*
X102554460Y-139514634D01*
X102303034Y-139049630D01*
X102146712Y-138544638D01*
X102090020Y-138005243D01*
X102090000Y-137999563D01*
X102090000Y-136658727D01*
X102335000Y-136658727D01*
X102335000Y-137341273D01*
X102468158Y-138010703D01*
X102729357Y-138641293D01*
X103108558Y-139208809D01*
X103591191Y-139691442D01*
X104158707Y-140070643D01*
X104789297Y-140331842D01*
X105458727Y-140465000D01*
X106141273Y-140465000D01*
X106810703Y-140331842D01*
X107441293Y-140070643D01*
X108008809Y-139691442D01*
X108491442Y-139208809D01*
X108870643Y-138641293D01*
X109131842Y-138010703D01*
X109265000Y-137341273D01*
X109265000Y-136658727D01*
X181735000Y-136658727D01*
X181735000Y-137341273D01*
X181868158Y-138010703D01*
X182129357Y-138641293D01*
X182508558Y-139208809D01*
X182991191Y-139691442D01*
X183558707Y-140070643D01*
X184189297Y-140331842D01*
X184858727Y-140465000D01*
X185541273Y-140465000D01*
X186210703Y-140331842D01*
X186841293Y-140070643D01*
X187408809Y-139691442D01*
X187891442Y-139208809D01*
X188270643Y-138641293D01*
X188531842Y-138010703D01*
X188665000Y-137341273D01*
X188665000Y-136658727D01*
X188531842Y-135989297D01*
X188270643Y-135358707D01*
X187891442Y-134791191D01*
X187408809Y-134308558D01*
X186841293Y-133929357D01*
X186210703Y-133668158D01*
X185541273Y-133535000D01*
X184858727Y-133535000D01*
X184189297Y-133668158D01*
X183558707Y-133929357D01*
X182991191Y-134308558D01*
X182508558Y-134791191D01*
X182129357Y-135358707D01*
X181868158Y-135989297D01*
X181735000Y-136658727D01*
X109265000Y-136658727D01*
X109131842Y-135989297D01*
X108870643Y-135358707D01*
X108491442Y-134791191D01*
X108008809Y-134308558D01*
X107441293Y-133929357D01*
X106810703Y-133668158D01*
X106141273Y-133535000D01*
X105458727Y-133535000D01*
X104789297Y-133668158D01*
X104158707Y-133929357D01*
X103591191Y-134308558D01*
X103108558Y-134791191D01*
X102729357Y-135358707D01*
X102468158Y-135989297D01*
X102335000Y-136658727D01*
X102090000Y-136658727D01*
X102090000Y-131065000D01*
X115437968Y-131065000D01*
X115455282Y-131122076D01*
G37*
G04 #@! TD.AperFunction*
M02*
