G04 #@! TF.GenerationSoftware,KiCad,Pcbnew,(5.1.7-0-10_14)*
G04 #@! TF.CreationDate,2021-01-05T11:30:20+11:00*
G04 #@! TF.ProjectId,esp32_battery_isolator,65737033-325f-4626-9174-746572795f69,rev?*
G04 #@! TF.SameCoordinates,Original*
G04 #@! TF.FileFunction,Legend,Top*
G04 #@! TF.FilePolarity,Positive*
%FSLAX46Y46*%
G04 Gerber Fmt 4.6, Leading zero omitted, Abs format (unit mm)*
G04 Created by KiCad (PCBNEW (5.1.7-0-10_14)) date 2021-01-05 11:30:20*
%MOMM*%
%LPD*%
G01*
G04 APERTURE LIST*
%ADD10C,0.150000*%
%ADD11C,0.300000*%
%ADD12C,0.120000*%
G04 APERTURE END LIST*
D10*
X129169047Y-80221428D02*
X129930952Y-80221428D01*
X129550000Y-80602380D02*
X129550000Y-79840476D01*
D11*
X109614285Y-101971428D02*
X109971428Y-102090476D01*
X110090476Y-102209523D01*
X110209523Y-102447619D01*
X110209523Y-102804761D01*
X110090476Y-103042857D01*
X109971428Y-103161904D01*
X109733333Y-103280952D01*
X108780952Y-103280952D01*
X108780952Y-100780952D01*
X109614285Y-100780952D01*
X109852380Y-100900000D01*
X109971428Y-101019047D01*
X110090476Y-101257142D01*
X110090476Y-101495238D01*
X109971428Y-101733333D01*
X109852380Y-101852380D01*
X109614285Y-101971428D01*
X108780952Y-101971428D01*
X111161904Y-102566666D02*
X112352380Y-102566666D01*
X110923809Y-103280952D02*
X111757142Y-100780952D01*
X112590476Y-103280952D01*
X113066666Y-100780952D02*
X114495238Y-100780952D01*
X113780952Y-103280952D02*
X113780952Y-100780952D01*
X115090476Y-100780952D02*
X116638095Y-100780952D01*
X115804761Y-101733333D01*
X116161904Y-101733333D01*
X116400000Y-101852380D01*
X116519047Y-101971428D01*
X116638095Y-102209523D01*
X116638095Y-102804761D01*
X116519047Y-103042857D01*
X116400000Y-103161904D01*
X116161904Y-103280952D01*
X115447619Y-103280952D01*
X115209523Y-103161904D01*
X115090476Y-103042857D01*
X173760952Y-107846666D02*
X173760952Y-109037142D01*
X171260952Y-109037142D01*
X173760952Y-107013333D02*
X171260952Y-107013333D01*
X171260952Y-106418095D01*
X171380000Y-106060952D01*
X171618095Y-105822857D01*
X171856190Y-105703809D01*
X172332380Y-105584761D01*
X172689523Y-105584761D01*
X173165714Y-105703809D01*
X173403809Y-105822857D01*
X173641904Y-106060952D01*
X173760952Y-106418095D01*
X173760952Y-107013333D01*
X171260952Y-104751428D02*
X171260952Y-103203809D01*
X172213333Y-104037142D01*
X172213333Y-103680000D01*
X172332380Y-103441904D01*
X172451428Y-103322857D01*
X172689523Y-103203809D01*
X173284761Y-103203809D01*
X173522857Y-103322857D01*
X173641904Y-103441904D01*
X173760952Y-103680000D01*
X173760952Y-104394285D01*
X173641904Y-104632380D01*
X173522857Y-104751428D01*
X173680952Y-117196666D02*
X173680952Y-118387142D01*
X171180952Y-118387142D01*
X173680952Y-116363333D02*
X171180952Y-116363333D01*
X171180952Y-115768095D01*
X171300000Y-115410952D01*
X171538095Y-115172857D01*
X171776190Y-115053809D01*
X172252380Y-114934761D01*
X172609523Y-114934761D01*
X173085714Y-115053809D01*
X173323809Y-115172857D01*
X173561904Y-115410952D01*
X173680952Y-115768095D01*
X173680952Y-116363333D01*
X171419047Y-113982380D02*
X171300000Y-113863333D01*
X171180952Y-113625238D01*
X171180952Y-113030000D01*
X171300000Y-112791904D01*
X171419047Y-112672857D01*
X171657142Y-112553809D01*
X171895238Y-112553809D01*
X172252380Y-112672857D01*
X173680952Y-114101428D01*
X173680952Y-112553809D01*
X109614285Y-122042857D02*
X109495238Y-122161904D01*
X109138095Y-122280952D01*
X108900000Y-122280952D01*
X108542857Y-122161904D01*
X108304761Y-121923809D01*
X108185714Y-121685714D01*
X108066666Y-121209523D01*
X108066666Y-120852380D01*
X108185714Y-120376190D01*
X108304761Y-120138095D01*
X108542857Y-119900000D01*
X108900000Y-119780952D01*
X109138095Y-119780952D01*
X109495238Y-119900000D01*
X109614285Y-120019047D01*
X110685714Y-122280952D02*
X110685714Y-119780952D01*
X110685714Y-120971428D02*
X112114285Y-120971428D01*
X112114285Y-122280952D02*
X112114285Y-119780952D01*
X114614285Y-119900000D02*
X114376190Y-119780952D01*
X114019047Y-119780952D01*
X113661904Y-119900000D01*
X113423809Y-120138095D01*
X113304761Y-120376190D01*
X113185714Y-120852380D01*
X113185714Y-121209523D01*
X113304761Y-121685714D01*
X113423809Y-121923809D01*
X113661904Y-122161904D01*
X114019047Y-122280952D01*
X114257142Y-122280952D01*
X114614285Y-122161904D01*
X114733333Y-122042857D01*
X114733333Y-121209523D01*
X114257142Y-121209523D01*
X117233333Y-122280952D02*
X116400000Y-121090476D01*
X115804761Y-122280952D02*
X115804761Y-119780952D01*
X116757142Y-119780952D01*
X116995238Y-119900000D01*
X117114285Y-120019047D01*
X117233333Y-120257142D01*
X117233333Y-120614285D01*
X117114285Y-120852380D01*
X116995238Y-120971428D01*
X116757142Y-121090476D01*
X115804761Y-121090476D01*
D10*
X112240476Y-98102380D02*
X112240476Y-97102380D01*
X112573809Y-97816666D01*
X112907142Y-97102380D01*
X112907142Y-98102380D01*
X113573809Y-97102380D02*
X113764285Y-97102380D01*
X113859523Y-97150000D01*
X113954761Y-97245238D01*
X114002380Y-97435714D01*
X114002380Y-97769047D01*
X113954761Y-97959523D01*
X113859523Y-98054761D01*
X113764285Y-98102380D01*
X113573809Y-98102380D01*
X113478571Y-98054761D01*
X113383333Y-97959523D01*
X113335714Y-97769047D01*
X113335714Y-97435714D01*
X113383333Y-97245238D01*
X113478571Y-97150000D01*
X113573809Y-97102380D01*
X114430952Y-98102380D02*
X114430952Y-97102380D01*
X114669047Y-97102380D01*
X114811904Y-97150000D01*
X114907142Y-97245238D01*
X114954761Y-97340476D01*
X115002380Y-97530952D01*
X115002380Y-97673809D01*
X114954761Y-97864285D01*
X114907142Y-97959523D01*
X114811904Y-98054761D01*
X114669047Y-98102380D01*
X114430952Y-98102380D01*
X115430952Y-97578571D02*
X115764285Y-97578571D01*
X115907142Y-98102380D02*
X115430952Y-98102380D01*
X115430952Y-97102380D01*
X115907142Y-97102380D01*
X111602380Y-91102380D02*
X111269047Y-90626190D01*
X111030952Y-91102380D02*
X111030952Y-90102380D01*
X111411904Y-90102380D01*
X111507142Y-90150000D01*
X111554761Y-90197619D01*
X111602380Y-90292857D01*
X111602380Y-90435714D01*
X111554761Y-90530952D01*
X111507142Y-90578571D01*
X111411904Y-90626190D01*
X111030952Y-90626190D01*
X111983333Y-91054761D02*
X112126190Y-91102380D01*
X112364285Y-91102380D01*
X112459523Y-91054761D01*
X112507142Y-91007142D01*
X112554761Y-90911904D01*
X112554761Y-90816666D01*
X112507142Y-90721428D01*
X112459523Y-90673809D01*
X112364285Y-90626190D01*
X112173809Y-90578571D01*
X112078571Y-90530952D01*
X112030952Y-90483333D01*
X111983333Y-90388095D01*
X111983333Y-90292857D01*
X112030952Y-90197619D01*
X112078571Y-90150000D01*
X112173809Y-90102380D01*
X112411904Y-90102380D01*
X112554761Y-90150000D01*
X112840476Y-90102380D02*
X113411904Y-90102380D01*
X113126190Y-91102380D02*
X113126190Y-90102380D01*
X115692857Y-90578571D02*
X115835714Y-90626190D01*
X115883333Y-90673809D01*
X115930952Y-90769047D01*
X115930952Y-90911904D01*
X115883333Y-91007142D01*
X115835714Y-91054761D01*
X115740476Y-91102380D01*
X115359523Y-91102380D01*
X115359523Y-90102380D01*
X115692857Y-90102380D01*
X115788095Y-90150000D01*
X115835714Y-90197619D01*
X115883333Y-90292857D01*
X115883333Y-90388095D01*
X115835714Y-90483333D01*
X115788095Y-90530952D01*
X115692857Y-90578571D01*
X115359523Y-90578571D01*
X116550000Y-90102380D02*
X116740476Y-90102380D01*
X116835714Y-90150000D01*
X116930952Y-90245238D01*
X116978571Y-90435714D01*
X116978571Y-90769047D01*
X116930952Y-90959523D01*
X116835714Y-91054761D01*
X116740476Y-91102380D01*
X116550000Y-91102380D01*
X116454761Y-91054761D01*
X116359523Y-90959523D01*
X116311904Y-90769047D01*
X116311904Y-90435714D01*
X116359523Y-90245238D01*
X116454761Y-90150000D01*
X116550000Y-90102380D01*
X117597619Y-90102380D02*
X117788095Y-90102380D01*
X117883333Y-90150000D01*
X117978571Y-90245238D01*
X118026190Y-90435714D01*
X118026190Y-90769047D01*
X117978571Y-90959523D01*
X117883333Y-91054761D01*
X117788095Y-91102380D01*
X117597619Y-91102380D01*
X117502380Y-91054761D01*
X117407142Y-90959523D01*
X117359523Y-90769047D01*
X117359523Y-90435714D01*
X117407142Y-90245238D01*
X117502380Y-90150000D01*
X117597619Y-90102380D01*
X118311904Y-90102380D02*
X118883333Y-90102380D01*
X118597619Y-91102380D02*
X118597619Y-90102380D01*
X123270714Y-76063571D02*
X123413571Y-76111190D01*
X123461190Y-76158809D01*
X123508809Y-76254047D01*
X123508809Y-76396904D01*
X123461190Y-76492142D01*
X123413571Y-76539761D01*
X123318333Y-76587380D01*
X122937380Y-76587380D01*
X122937380Y-75587380D01*
X123270714Y-75587380D01*
X123365952Y-75635000D01*
X123413571Y-75682619D01*
X123461190Y-75777857D01*
X123461190Y-75873095D01*
X123413571Y-75968333D01*
X123365952Y-76015952D01*
X123270714Y-76063571D01*
X122937380Y-76063571D01*
X123889761Y-76301666D02*
X124365952Y-76301666D01*
X123794523Y-76587380D02*
X124127857Y-75587380D01*
X124461190Y-76587380D01*
X124651666Y-75587380D02*
X125223095Y-75587380D01*
X124937380Y-76587380D02*
X124937380Y-75587380D01*
X125508809Y-75682619D02*
X125556428Y-75635000D01*
X125651666Y-75587380D01*
X125889761Y-75587380D01*
X125985000Y-75635000D01*
X126032619Y-75682619D01*
X126080238Y-75777857D01*
X126080238Y-75873095D01*
X126032619Y-76015952D01*
X125461190Y-76587380D01*
X126080238Y-76587380D01*
X115294523Y-76539761D02*
X115437380Y-76587380D01*
X115675476Y-76587380D01*
X115770714Y-76539761D01*
X115818333Y-76492142D01*
X115865952Y-76396904D01*
X115865952Y-76301666D01*
X115818333Y-76206428D01*
X115770714Y-76158809D01*
X115675476Y-76111190D01*
X115485000Y-76063571D01*
X115389761Y-76015952D01*
X115342142Y-75968333D01*
X115294523Y-75873095D01*
X115294523Y-75777857D01*
X115342142Y-75682619D01*
X115389761Y-75635000D01*
X115485000Y-75587380D01*
X115723095Y-75587380D01*
X115865952Y-75635000D01*
X116485000Y-76111190D02*
X116485000Y-76587380D01*
X116151666Y-75587380D02*
X116485000Y-76111190D01*
X116818333Y-75587380D01*
X117104047Y-76539761D02*
X117246904Y-76587380D01*
X117485000Y-76587380D01*
X117580238Y-76539761D01*
X117627857Y-76492142D01*
X117675476Y-76396904D01*
X117675476Y-76301666D01*
X117627857Y-76206428D01*
X117580238Y-76158809D01*
X117485000Y-76111190D01*
X117294523Y-76063571D01*
X117199285Y-76015952D01*
X117151666Y-75968333D01*
X117104047Y-75873095D01*
X117104047Y-75777857D01*
X117151666Y-75682619D01*
X117199285Y-75635000D01*
X117294523Y-75587380D01*
X117532619Y-75587380D01*
X117675476Y-75635000D01*
X119020714Y-76063571D02*
X119163571Y-76111190D01*
X119211190Y-76158809D01*
X119258809Y-76254047D01*
X119258809Y-76396904D01*
X119211190Y-76492142D01*
X119163571Y-76539761D01*
X119068333Y-76587380D01*
X118687380Y-76587380D01*
X118687380Y-75587380D01*
X119020714Y-75587380D01*
X119115952Y-75635000D01*
X119163571Y-75682619D01*
X119211190Y-75777857D01*
X119211190Y-75873095D01*
X119163571Y-75968333D01*
X119115952Y-76015952D01*
X119020714Y-76063571D01*
X118687380Y-76063571D01*
X119639761Y-76301666D02*
X120115952Y-76301666D01*
X119544523Y-76587380D02*
X119877857Y-75587380D01*
X120211190Y-76587380D01*
X120401666Y-75587380D02*
X120973095Y-75587380D01*
X120687380Y-76587380D02*
X120687380Y-75587380D01*
X121830238Y-76587380D02*
X121258809Y-76587380D01*
X121544523Y-76587380D02*
X121544523Y-75587380D01*
X121449285Y-75730238D01*
X121354047Y-75825476D01*
X121258809Y-75873095D01*
X155212741Y-88706671D02*
X155117503Y-88659051D01*
X154974646Y-88659051D01*
X154831788Y-88706671D01*
X154736550Y-88801909D01*
X154688931Y-88897147D01*
X154641312Y-89087623D01*
X154641312Y-89230480D01*
X154688931Y-89420956D01*
X154736550Y-89516194D01*
X154831788Y-89611432D01*
X154974646Y-89659051D01*
X155069884Y-89659051D01*
X155212741Y-89611432D01*
X155260360Y-89563813D01*
X155260360Y-89230480D01*
X155069884Y-89230480D01*
X155688931Y-89659051D02*
X155688931Y-88659051D01*
X156260360Y-89659051D01*
X156260360Y-88659051D01*
X156736550Y-89659051D02*
X156736550Y-88659051D01*
X156974646Y-88659051D01*
X157117503Y-88706671D01*
X157212741Y-88801909D01*
X157260360Y-88897147D01*
X157307979Y-89087623D01*
X157307979Y-89230480D01*
X157260360Y-89420956D01*
X157212741Y-89516194D01*
X157117503Y-89611432D01*
X156974646Y-89659051D01*
X156736550Y-89659051D01*
X154688606Y-97253194D02*
X154831463Y-97300813D01*
X155069558Y-97300813D01*
X155164796Y-97253194D01*
X155212415Y-97205575D01*
X155260034Y-97110337D01*
X155260034Y-97015099D01*
X155212415Y-96919861D01*
X155164796Y-96872242D01*
X155069558Y-96824623D01*
X154879082Y-96777004D01*
X154783844Y-96729385D01*
X154736225Y-96681766D01*
X154688606Y-96586528D01*
X154688606Y-96491290D01*
X154736225Y-96396052D01*
X154783844Y-96348433D01*
X154879082Y-96300813D01*
X155117177Y-96300813D01*
X155260034Y-96348433D01*
X155688606Y-97300813D02*
X155688606Y-96300813D01*
X155926701Y-96300813D01*
X156069558Y-96348433D01*
X156164796Y-96443671D01*
X156212415Y-96538909D01*
X156260034Y-96729385D01*
X156260034Y-96872242D01*
X156212415Y-97062718D01*
X156164796Y-97157956D01*
X156069558Y-97253194D01*
X155926701Y-97300813D01*
X155688606Y-97300813D01*
X156640987Y-97015099D02*
X157117177Y-97015099D01*
X156545749Y-97300813D02*
X156879082Y-96300813D01*
X157212415Y-97300813D01*
X154694477Y-94813570D02*
X154837334Y-94861189D01*
X155075430Y-94861189D01*
X155170668Y-94813570D01*
X155218287Y-94765951D01*
X155265906Y-94670713D01*
X155265906Y-94575475D01*
X155218287Y-94480237D01*
X155170668Y-94432618D01*
X155075430Y-94384999D01*
X154884954Y-94337380D01*
X154789715Y-94289761D01*
X154742096Y-94242142D01*
X154694477Y-94146904D01*
X154694477Y-94051666D01*
X154742096Y-93956428D01*
X154789715Y-93908809D01*
X154884954Y-93861189D01*
X155123049Y-93861189D01*
X155265906Y-93908809D01*
X156265906Y-94765951D02*
X156218287Y-94813570D01*
X156075430Y-94861189D01*
X155980192Y-94861189D01*
X155837334Y-94813570D01*
X155742096Y-94718332D01*
X155694477Y-94623094D01*
X155646858Y-94432618D01*
X155646858Y-94289761D01*
X155694477Y-94099285D01*
X155742096Y-94004047D01*
X155837334Y-93908809D01*
X155980192Y-93861189D01*
X156075430Y-93861189D01*
X156218287Y-93908809D01*
X156265906Y-93956428D01*
X157170668Y-94861189D02*
X156694477Y-94861189D01*
X156694477Y-93861189D01*
X154820046Y-91152490D02*
X155439094Y-91152490D01*
X155105761Y-91533443D01*
X155248618Y-91533443D01*
X155343856Y-91581062D01*
X155391475Y-91628681D01*
X155439094Y-91723919D01*
X155439094Y-91962014D01*
X155391475Y-92057252D01*
X155343856Y-92104871D01*
X155248618Y-92152490D01*
X154962903Y-92152490D01*
X154867665Y-92104871D01*
X154820046Y-92057252D01*
X155772427Y-91485824D02*
X156010523Y-92152490D01*
X156248618Y-91485824D01*
X156534332Y-91152490D02*
X157153380Y-91152490D01*
X156820046Y-91533443D01*
X156962903Y-91533443D01*
X157058142Y-91581062D01*
X157105761Y-91628681D01*
X157153380Y-91723919D01*
X157153380Y-91962014D01*
X157105761Y-92057252D01*
X157058142Y-92104871D01*
X156962903Y-92152490D01*
X156677189Y-92152490D01*
X156581951Y-92104871D01*
X156534332Y-92057252D01*
X157473809Y-89702380D02*
X157473809Y-88702380D01*
X157902380Y-88797619D02*
X157950000Y-88750000D01*
X158045238Y-88702380D01*
X158283333Y-88702380D01*
X158378571Y-88750000D01*
X158426190Y-88797619D01*
X158473809Y-88892857D01*
X158473809Y-88988095D01*
X158426190Y-89130952D01*
X157854761Y-89702380D01*
X158473809Y-89702380D01*
X159473809Y-89607142D02*
X159426190Y-89654761D01*
X159283333Y-89702380D01*
X159188095Y-89702380D01*
X159045238Y-89654761D01*
X158950000Y-89559523D01*
X158902380Y-89464285D01*
X158854761Y-89273809D01*
X158854761Y-89130952D01*
X158902380Y-88940476D01*
X158950000Y-88845238D01*
X159045238Y-88750000D01*
X159188095Y-88702380D01*
X159283333Y-88702380D01*
X159426190Y-88750000D01*
X159473809Y-88797619D01*
D11*
X173600952Y-125466666D02*
X173600952Y-126657142D01*
X171100952Y-126657142D01*
X173600952Y-124633333D02*
X171100952Y-124633333D01*
X171100952Y-124038095D01*
X171220000Y-123680952D01*
X171458095Y-123442857D01*
X171696190Y-123323809D01*
X172172380Y-123204761D01*
X172529523Y-123204761D01*
X173005714Y-123323809D01*
X173243809Y-123442857D01*
X173481904Y-123680952D01*
X173600952Y-124038095D01*
X173600952Y-124633333D01*
X173600952Y-120823809D02*
X173600952Y-122252380D01*
X173600952Y-121538095D02*
X171100952Y-121538095D01*
X171458095Y-121776190D01*
X171696190Y-122014285D01*
X171815238Y-122252380D01*
X129114285Y-131471428D02*
X129471428Y-131590476D01*
X129590476Y-131709523D01*
X129709523Y-131947619D01*
X129709523Y-132304761D01*
X129590476Y-132542857D01*
X129471428Y-132661904D01*
X129233333Y-132780952D01*
X128280952Y-132780952D01*
X128280952Y-130280952D01*
X129114285Y-130280952D01*
X129352380Y-130400000D01*
X129471428Y-130519047D01*
X129590476Y-130757142D01*
X129590476Y-130995238D01*
X129471428Y-131233333D01*
X129352380Y-131352380D01*
X129114285Y-131471428D01*
X128280952Y-131471428D01*
X130661904Y-132066666D02*
X131852380Y-132066666D01*
X130423809Y-132780952D02*
X131257142Y-130280952D01*
X132090476Y-132780952D01*
X132566666Y-130280952D02*
X133995238Y-130280952D01*
X133280952Y-132780952D02*
X133280952Y-130280952D01*
X134709523Y-130519047D02*
X134828571Y-130400000D01*
X135066666Y-130280952D01*
X135661904Y-130280952D01*
X135900000Y-130400000D01*
X136019047Y-130519047D01*
X136138095Y-130757142D01*
X136138095Y-130995238D01*
X136019047Y-131352380D01*
X134590476Y-132780952D01*
X136138095Y-132780952D01*
X119214285Y-131471428D02*
X119571428Y-131590476D01*
X119690476Y-131709523D01*
X119809523Y-131947619D01*
X119809523Y-132304761D01*
X119690476Y-132542857D01*
X119571428Y-132661904D01*
X119333333Y-132780952D01*
X118380952Y-132780952D01*
X118380952Y-130280952D01*
X119214285Y-130280952D01*
X119452380Y-130400000D01*
X119571428Y-130519047D01*
X119690476Y-130757142D01*
X119690476Y-130995238D01*
X119571428Y-131233333D01*
X119452380Y-131352380D01*
X119214285Y-131471428D01*
X118380952Y-131471428D01*
X120761904Y-132066666D02*
X121952380Y-132066666D01*
X120523809Y-132780952D02*
X121357142Y-130280952D01*
X122190476Y-132780952D01*
X122666666Y-130280952D02*
X124095238Y-130280952D01*
X123380952Y-132780952D02*
X123380952Y-130280952D01*
X126238095Y-132780952D02*
X124809523Y-132780952D01*
X125523809Y-132780952D02*
X125523809Y-130280952D01*
X125285714Y-130638095D01*
X125047619Y-130876190D01*
X124809523Y-130995238D01*
D12*
X127500000Y-113700000D02*
X127500000Y-126550000D01*
X130050000Y-129400000D02*
X133200000Y-129400000D01*
X135800000Y-126550000D02*
X135800000Y-113700000D01*
X135800000Y-113700000D02*
X127500000Y-113700000D01*
X127500000Y-126550000D02*
X130050000Y-129400000D01*
X133200000Y-129400000D02*
X135800000Y-126550000D01*
X134610000Y-86491422D02*
X134610000Y-87008578D01*
X133190000Y-86491422D02*
X133190000Y-87008578D01*
X139885000Y-124033578D02*
X139885000Y-123516422D01*
X138465000Y-124033578D02*
X138465000Y-123516422D01*
X138383578Y-127085000D02*
X137866422Y-127085000D01*
X138383578Y-125665000D02*
X137866422Y-125665000D01*
X116495000Y-79620000D02*
X116495000Y-77335000D01*
X115025000Y-79620000D02*
X116495000Y-79620000D01*
X115025000Y-77335000D02*
X115025000Y-79620000D01*
X118850000Y-77335000D02*
X118850000Y-79620000D01*
X118850000Y-79620000D02*
X120320000Y-79620000D01*
X120320000Y-79620000D02*
X120320000Y-77335000D01*
X118295000Y-79620000D02*
X118295000Y-77335000D01*
X116825000Y-79620000D02*
X118295000Y-79620000D01*
X116825000Y-77335000D02*
X116825000Y-79620000D01*
X120725000Y-77335000D02*
X120725000Y-79620000D01*
X120725000Y-79620000D02*
X122195000Y-79620000D01*
X122195000Y-79620000D02*
X122195000Y-77335000D01*
X134012779Y-99960000D02*
X133687221Y-99960000D01*
X134012779Y-98940000D02*
X133687221Y-98940000D01*
X154940000Y-84487221D02*
X154940000Y-84812779D01*
X155960000Y-84487221D02*
X155960000Y-84812779D01*
X160940000Y-98087221D02*
X160940000Y-98412779D01*
X161960000Y-98087221D02*
X161960000Y-98412779D01*
X114612779Y-123740000D02*
X114287221Y-123740000D01*
X114612779Y-124760000D02*
X114287221Y-124760000D01*
X116087221Y-125140000D02*
X116412779Y-125140000D01*
X116087221Y-126160000D02*
X116412779Y-126160000D01*
X136865000Y-130712221D02*
X136865000Y-131037779D01*
X137885000Y-130712221D02*
X137885000Y-131037779D01*
X126740000Y-131062779D02*
X126740000Y-130737221D01*
X127760000Y-131062779D02*
X127760000Y-130737221D01*
X132410000Y-91390000D02*
X130710000Y-91390000D01*
X126890000Y-91390000D02*
X128590000Y-91390000D01*
X126890000Y-95845563D02*
X126890000Y-91390000D01*
X132410000Y-95845563D02*
X132410000Y-91390000D01*
X131345563Y-96910000D02*
X130710000Y-96910000D01*
X127954437Y-96910000D02*
X128590000Y-96910000D01*
X127954437Y-96910000D02*
X126890000Y-95845563D01*
X131345563Y-96910000D02*
X132410000Y-95845563D01*
X127954437Y-83890000D02*
X126890000Y-84954437D01*
X131345563Y-83890000D02*
X132410000Y-84954437D01*
X131345563Y-83890000D02*
X130710000Y-83890000D01*
X127954437Y-83890000D02*
X128590000Y-83890000D01*
X126890000Y-84954437D02*
X126890000Y-89410000D01*
X132410000Y-84954437D02*
X132410000Y-89410000D01*
X132410000Y-89410000D02*
X130710000Y-89410000D01*
X126890000Y-89410000D02*
X128590000Y-89410000D01*
X161410000Y-88759420D02*
X161410000Y-89040580D01*
X160390000Y-88759420D02*
X160390000Y-89040580D01*
X162660000Y-80065580D02*
X162660000Y-79784420D01*
X161640000Y-80065580D02*
X161640000Y-79784420D01*
X173950000Y-100900000D02*
X173950000Y-97600000D01*
X173950000Y-97600000D02*
X168550000Y-97600000D01*
X173950000Y-100900000D02*
X168550000Y-100900000D01*
X122750000Y-77335000D02*
X122750000Y-79620000D01*
X122750000Y-79620000D02*
X124220000Y-79620000D01*
X124220000Y-79620000D02*
X124220000Y-77335000D01*
X118000000Y-113700000D02*
X118000000Y-126550000D01*
X120550000Y-129400000D02*
X123700000Y-129400000D01*
X126300000Y-126550000D02*
X126300000Y-113700000D01*
X126300000Y-113700000D02*
X118000000Y-113700000D01*
X118000000Y-126550000D02*
X120550000Y-129400000D01*
X123700000Y-129400000D02*
X126300000Y-126550000D01*
X157320000Y-90420000D02*
X159980000Y-90420000D01*
X157320000Y-90420000D02*
X157320000Y-98100000D01*
X157320000Y-98100000D02*
X159980000Y-98100000D01*
X159980000Y-90420000D02*
X159980000Y-98100000D01*
X159980000Y-87820000D02*
X159980000Y-89150000D01*
X158650000Y-87820000D02*
X159980000Y-87820000D01*
X172850000Y-95720000D02*
X171040000Y-95720000D01*
X171040000Y-95720000D02*
X171040000Y-94160000D01*
X172850000Y-88200000D02*
X171040000Y-88200000D01*
X171040000Y-88200000D02*
X171040000Y-89760000D01*
X175050000Y-88200000D02*
X175400000Y-88200000D01*
X175050000Y-95720000D02*
X175400000Y-95720000D01*
X112387258Y-83672500D02*
X111912742Y-83672500D01*
X112387258Y-82627500D02*
X111912742Y-82627500D01*
X126220000Y-79620000D02*
X126220000Y-77335000D01*
X124750000Y-79620000D02*
X126220000Y-79620000D01*
X124750000Y-77335000D02*
X124750000Y-79620000D01*
X135880000Y-100250000D02*
X135880000Y-101030000D01*
X135880000Y-101030000D02*
X136880000Y-101030000D01*
X154120000Y-100250000D02*
X154120000Y-101030000D01*
X154120000Y-101030000D02*
X153120000Y-101030000D01*
X135880000Y-75285000D02*
X154120000Y-75285000D01*
X154120000Y-75285000D02*
X154120000Y-81705000D01*
X135880000Y-75285000D02*
X135880000Y-81705000D01*
X135880000Y-81705000D02*
X135500000Y-81705000D01*
X144850000Y-131985000D02*
X147050000Y-131985000D01*
X144850000Y-131985000D02*
X142650000Y-131985000D01*
X144850000Y-126515000D02*
X147050000Y-126515000D01*
X144850000Y-126515000D02*
X141250000Y-126515000D01*
X161650000Y-81590000D02*
X159700000Y-81590000D01*
X161650000Y-81590000D02*
X163600000Y-81590000D01*
X161650000Y-86710000D02*
X159700000Y-86710000D01*
X161650000Y-86710000D02*
X165100000Y-86710000D01*
X112100000Y-84950000D02*
X112000000Y-84950000D01*
X113600000Y-89350000D02*
X113600000Y-84950000D01*
X110500000Y-84950000D02*
X110500000Y-89350000D01*
X112100000Y-89350000D02*
X112000000Y-89350000D01*
X117100000Y-89350000D02*
X117000000Y-89350000D01*
X115500000Y-84950000D02*
X115500000Y-89350000D01*
X118600000Y-89350000D02*
X118600000Y-84950000D01*
X117100000Y-84950000D02*
X117000000Y-84950000D01*
X114700000Y-96150000D02*
X114600000Y-96150000D01*
X113100000Y-91750000D02*
X113100000Y-96150000D01*
X116200000Y-96150000D02*
X116200000Y-91750000D01*
X114700000Y-91750000D02*
X114600000Y-91750000D01*
X133185000Y-83481252D02*
X133185000Y-82958748D01*
X134655000Y-83481252D02*
X134655000Y-82958748D01*
X117387258Y-83672500D02*
X116912742Y-83672500D01*
X117387258Y-82627500D02*
X116912742Y-82627500D01*
X116627500Y-92412742D02*
X116627500Y-92887258D01*
X117672500Y-92412742D02*
X117672500Y-92887258D01*
X119200000Y-92120000D02*
X119200000Y-93620000D01*
X119200000Y-93620000D02*
X119470000Y-93620000D01*
X119470000Y-93620000D02*
X119470000Y-96450000D01*
X126100000Y-92120000D02*
X126100000Y-93620000D01*
X126100000Y-93620000D02*
X125830000Y-93620000D01*
X125830000Y-93620000D02*
X125830000Y-94720000D01*
X123720000Y-112595000D02*
X123720000Y-106705000D01*
X118580000Y-113050000D02*
X118580000Y-106705000D01*
X127055000Y-107050000D02*
X127055000Y-100705000D01*
X132195000Y-106595000D02*
X132195000Y-100705000D01*
X113187258Y-122327500D02*
X112712742Y-122327500D01*
X113187258Y-123372500D02*
X112712742Y-123372500D01*
X134187258Y-102672500D02*
X133712742Y-102672500D01*
X134187258Y-101627500D02*
X133712742Y-101627500D01*
X128900000Y-113335000D02*
X132350000Y-113335000D01*
X128900000Y-113335000D02*
X126950000Y-113335000D01*
X128900000Y-108215000D02*
X130850000Y-108215000D01*
X128900000Y-108215000D02*
X126950000Y-108215000D01*
X115000000Y-119400000D02*
X117600000Y-116550000D01*
X109300000Y-116550000D02*
X111850000Y-119400000D01*
X117600000Y-103700000D02*
X109300000Y-103700000D01*
X117600000Y-116550000D02*
X117600000Y-103700000D01*
X111850000Y-119400000D02*
X115000000Y-119400000D01*
X109300000Y-103700000D02*
X109300000Y-116550000D01*
X170400000Y-114100000D02*
X167550000Y-111500000D01*
X167550000Y-119800000D02*
X170400000Y-117250000D01*
X154700000Y-111500000D02*
X154700000Y-119800000D01*
X167550000Y-111500000D02*
X154700000Y-111500000D01*
X170400000Y-117250000D02*
X170400000Y-114100000D01*
X154700000Y-119800000D02*
X167550000Y-119800000D01*
X154700000Y-110300000D02*
X167550000Y-110300000D01*
X170400000Y-107750000D02*
X170400000Y-104600000D01*
X167550000Y-102000000D02*
X154700000Y-102000000D01*
X154700000Y-102000000D02*
X154700000Y-110300000D01*
X167550000Y-110300000D02*
X170400000Y-107750000D01*
X170400000Y-104600000D02*
X167550000Y-102000000D01*
X142705000Y-124470000D02*
X148595000Y-124470000D01*
X142250000Y-119330000D02*
X148595000Y-119330000D01*
X142250000Y-110330000D02*
X148595000Y-110330000D01*
X142705000Y-115470000D02*
X148595000Y-115470000D01*
X142705000Y-106820000D02*
X148595000Y-106820000D01*
X142250000Y-101680000D02*
X148595000Y-101680000D01*
X143612742Y-125027500D02*
X144087258Y-125027500D01*
X143612742Y-126072500D02*
X144087258Y-126072500D01*
X143522500Y-117417258D02*
X143522500Y-116942742D01*
X142477500Y-117417258D02*
X142477500Y-116942742D01*
X115912742Y-129172500D02*
X116387258Y-129172500D01*
X115912742Y-128127500D02*
X116387258Y-128127500D01*
X115912742Y-127772500D02*
X116387258Y-127772500D01*
X115912742Y-126727500D02*
X116387258Y-126727500D01*
X143717500Y-108577258D02*
X143717500Y-108102742D01*
X144762500Y-108577258D02*
X144762500Y-108102742D01*
X121150000Y-105210000D02*
X124600000Y-105210000D01*
X121150000Y-105210000D02*
X119200000Y-105210000D01*
X121150000Y-100090000D02*
X123100000Y-100090000D01*
X121150000Y-100090000D02*
X119200000Y-100090000D01*
X170400000Y-123600000D02*
X167550000Y-121000000D01*
X167550000Y-129300000D02*
X170400000Y-126750000D01*
X154700000Y-121000000D02*
X154700000Y-129300000D01*
X167550000Y-121000000D02*
X154700000Y-121000000D01*
X170400000Y-126750000D02*
X170400000Y-123600000D01*
X154700000Y-129300000D02*
X167550000Y-129300000D01*
X115587258Y-98727500D02*
X115112742Y-98727500D01*
X115587258Y-99772500D02*
X115112742Y-99772500D01*
X112587258Y-100272500D02*
X112112742Y-100272500D01*
X112587258Y-99227500D02*
X112112742Y-99227500D01*
X151272500Y-131887258D02*
X151272500Y-131412742D01*
X150227500Y-131887258D02*
X150227500Y-131412742D01*
X153172500Y-132062742D02*
X153172500Y-132537258D01*
X152127500Y-132062742D02*
X152127500Y-132537258D01*
X136315000Y-121550000D02*
X136315000Y-125460000D01*
X136315000Y-125460000D02*
X138185000Y-125460000D01*
X138185000Y-125460000D02*
X138185000Y-121550000D01*
X138315000Y-127290000D02*
X138315000Y-131200000D01*
X140185000Y-127290000D02*
X138315000Y-127290000D01*
X140185000Y-131200000D02*
X140185000Y-127290000D01*
X126650000Y-82685000D02*
X130560000Y-82685000D01*
X130560000Y-82685000D02*
X130560000Y-80815000D01*
X130560000Y-80815000D02*
X126650000Y-80815000D01*
D10*
X126516666Y-118002380D02*
X126516666Y-118716666D01*
X126469047Y-118859523D01*
X126373809Y-118954761D01*
X126230952Y-119002380D01*
X126135714Y-119002380D01*
X127421428Y-118335714D02*
X127421428Y-119002380D01*
X127183333Y-117954761D02*
X126945238Y-118669047D01*
X127564285Y-118669047D01*
X134327142Y-89416666D02*
X134374761Y-89464285D01*
X134422380Y-89607142D01*
X134422380Y-89702380D01*
X134374761Y-89845238D01*
X134279523Y-89940476D01*
X134184285Y-89988095D01*
X133993809Y-90035714D01*
X133850952Y-90035714D01*
X133660476Y-89988095D01*
X133565238Y-89940476D01*
X133470000Y-89845238D01*
X133422380Y-89702380D01*
X133422380Y-89607142D01*
X133470000Y-89464285D01*
X133517619Y-89416666D01*
X134422380Y-88464285D02*
X134422380Y-89035714D01*
X134422380Y-88750000D02*
X133422380Y-88750000D01*
X133565238Y-88845238D01*
X133660476Y-88940476D01*
X133708095Y-89035714D01*
X139612142Y-121131666D02*
X139659761Y-121179285D01*
X139707380Y-121322142D01*
X139707380Y-121417380D01*
X139659761Y-121560238D01*
X139564523Y-121655476D01*
X139469285Y-121703095D01*
X139278809Y-121750714D01*
X139135952Y-121750714D01*
X138945476Y-121703095D01*
X138850238Y-121655476D01*
X138755000Y-121560238D01*
X138707380Y-121417380D01*
X138707380Y-121322142D01*
X138755000Y-121179285D01*
X138802619Y-121131666D01*
X138707380Y-120226904D02*
X138707380Y-120703095D01*
X139183571Y-120750714D01*
X139135952Y-120703095D01*
X139088333Y-120607857D01*
X139088333Y-120369761D01*
X139135952Y-120274523D01*
X139183571Y-120226904D01*
X139278809Y-120179285D01*
X139516904Y-120179285D01*
X139612142Y-120226904D01*
X139659761Y-120274523D01*
X139707380Y-120369761D01*
X139707380Y-120607857D01*
X139659761Y-120703095D01*
X139612142Y-120750714D01*
X140782142Y-126541666D02*
X140829761Y-126589285D01*
X140877380Y-126732142D01*
X140877380Y-126827380D01*
X140829761Y-126970238D01*
X140734523Y-127065476D01*
X140639285Y-127113095D01*
X140448809Y-127160714D01*
X140305952Y-127160714D01*
X140115476Y-127113095D01*
X140020238Y-127065476D01*
X139925000Y-126970238D01*
X139877380Y-126827380D01*
X139877380Y-126732142D01*
X139925000Y-126589285D01*
X139972619Y-126541666D01*
X139877380Y-125684523D02*
X139877380Y-125875000D01*
X139925000Y-125970238D01*
X139972619Y-126017857D01*
X140115476Y-126113095D01*
X140305952Y-126160714D01*
X140686904Y-126160714D01*
X140782142Y-126113095D01*
X140829761Y-126065476D01*
X140877380Y-125970238D01*
X140877380Y-125779761D01*
X140829761Y-125684523D01*
X140782142Y-125636904D01*
X140686904Y-125589285D01*
X140448809Y-125589285D01*
X140353571Y-125636904D01*
X140305952Y-125684523D01*
X140258333Y-125779761D01*
X140258333Y-125970238D01*
X140305952Y-126065476D01*
X140353571Y-126113095D01*
X140448809Y-126160714D01*
X116212380Y-81373095D02*
X115212380Y-81373095D01*
X115212380Y-81135000D01*
X115260000Y-80992142D01*
X115355238Y-80896904D01*
X115450476Y-80849285D01*
X115640952Y-80801666D01*
X115783809Y-80801666D01*
X115974285Y-80849285D01*
X116069523Y-80896904D01*
X116164761Y-80992142D01*
X116212380Y-81135000D01*
X116212380Y-81373095D01*
X116212380Y-79849285D02*
X116212380Y-80420714D01*
X116212380Y-80135000D02*
X115212380Y-80135000D01*
X115355238Y-80230238D01*
X115450476Y-80325476D01*
X115498095Y-80420714D01*
X119937380Y-81373095D02*
X118937380Y-81373095D01*
X118937380Y-81135000D01*
X118985000Y-80992142D01*
X119080238Y-80896904D01*
X119175476Y-80849285D01*
X119365952Y-80801666D01*
X119508809Y-80801666D01*
X119699285Y-80849285D01*
X119794523Y-80896904D01*
X119889761Y-80992142D01*
X119937380Y-81135000D01*
X119937380Y-81373095D01*
X118937380Y-80468333D02*
X118937380Y-79849285D01*
X119318333Y-80182619D01*
X119318333Y-80039761D01*
X119365952Y-79944523D01*
X119413571Y-79896904D01*
X119508809Y-79849285D01*
X119746904Y-79849285D01*
X119842142Y-79896904D01*
X119889761Y-79944523D01*
X119937380Y-80039761D01*
X119937380Y-80325476D01*
X119889761Y-80420714D01*
X119842142Y-80468333D01*
X118012380Y-80801666D02*
X117536190Y-81135000D01*
X118012380Y-81373095D02*
X117012380Y-81373095D01*
X117012380Y-80992142D01*
X117060000Y-80896904D01*
X117107619Y-80849285D01*
X117202857Y-80801666D01*
X117345714Y-80801666D01*
X117440952Y-80849285D01*
X117488571Y-80896904D01*
X117536190Y-80992142D01*
X117536190Y-81373095D01*
X117107619Y-80420714D02*
X117060000Y-80373095D01*
X117012380Y-80277857D01*
X117012380Y-80039761D01*
X117060000Y-79944523D01*
X117107619Y-79896904D01*
X117202857Y-79849285D01*
X117298095Y-79849285D01*
X117440952Y-79896904D01*
X118012380Y-80468333D01*
X118012380Y-79849285D01*
X121937380Y-80801666D02*
X121461190Y-81135000D01*
X121937380Y-81373095D02*
X120937380Y-81373095D01*
X120937380Y-80992142D01*
X120985000Y-80896904D01*
X121032619Y-80849285D01*
X121127857Y-80801666D01*
X121270714Y-80801666D01*
X121365952Y-80849285D01*
X121413571Y-80896904D01*
X121461190Y-80992142D01*
X121461190Y-81373095D01*
X120937380Y-80468333D02*
X120937380Y-79849285D01*
X121318333Y-80182619D01*
X121318333Y-80039761D01*
X121365952Y-79944523D01*
X121413571Y-79896904D01*
X121508809Y-79849285D01*
X121746904Y-79849285D01*
X121842142Y-79896904D01*
X121889761Y-79944523D01*
X121937380Y-80039761D01*
X121937380Y-80325476D01*
X121889761Y-80420714D01*
X121842142Y-80468333D01*
X132583333Y-98602380D02*
X132250000Y-98126190D01*
X132011904Y-98602380D02*
X132011904Y-97602380D01*
X132392857Y-97602380D01*
X132488095Y-97650000D01*
X132535714Y-97697619D01*
X132583333Y-97792857D01*
X132583333Y-97935714D01*
X132535714Y-98030952D01*
X132488095Y-98078571D01*
X132392857Y-98126190D01*
X132011904Y-98126190D01*
X133440476Y-97935714D02*
X133440476Y-98602380D01*
X133202380Y-97554761D02*
X132964285Y-98269047D01*
X133583333Y-98269047D01*
X155902380Y-87529166D02*
X155426190Y-87862500D01*
X155902380Y-88100595D02*
X154902380Y-88100595D01*
X154902380Y-87719642D01*
X154950000Y-87624404D01*
X154997619Y-87576785D01*
X155092857Y-87529166D01*
X155235714Y-87529166D01*
X155330952Y-87576785D01*
X155378571Y-87624404D01*
X155426190Y-87719642D01*
X155426190Y-88100595D01*
X154902380Y-86672023D02*
X154902380Y-86862500D01*
X154950000Y-86957738D01*
X154997619Y-87005357D01*
X155140476Y-87100595D01*
X155330952Y-87148214D01*
X155711904Y-87148214D01*
X155807142Y-87100595D01*
X155854761Y-87052976D01*
X155902380Y-86957738D01*
X155902380Y-86767261D01*
X155854761Y-86672023D01*
X155807142Y-86624404D01*
X155711904Y-86576785D01*
X155473809Y-86576785D01*
X155378571Y-86624404D01*
X155330952Y-86672023D01*
X155283333Y-86767261D01*
X155283333Y-86957738D01*
X155330952Y-87052976D01*
X155378571Y-87100595D01*
X155473809Y-87148214D01*
X163302380Y-98516666D02*
X162826190Y-98850000D01*
X163302380Y-99088095D02*
X162302380Y-99088095D01*
X162302380Y-98707142D01*
X162350000Y-98611904D01*
X162397619Y-98564285D01*
X162492857Y-98516666D01*
X162635714Y-98516666D01*
X162730952Y-98564285D01*
X162778571Y-98611904D01*
X162826190Y-98707142D01*
X162826190Y-99088095D01*
X162302380Y-98183333D02*
X162302380Y-97516666D01*
X163302380Y-97945238D01*
X111007142Y-124802380D02*
X110673809Y-124326190D01*
X110435714Y-124802380D02*
X110435714Y-123802380D01*
X110816666Y-123802380D01*
X110911904Y-123850000D01*
X110959523Y-123897619D01*
X111007142Y-123992857D01*
X111007142Y-124135714D01*
X110959523Y-124230952D01*
X110911904Y-124278571D01*
X110816666Y-124326190D01*
X110435714Y-124326190D01*
X111959523Y-124802380D02*
X111388095Y-124802380D01*
X111673809Y-124802380D02*
X111673809Y-123802380D01*
X111578571Y-123945238D01*
X111483333Y-124040476D01*
X111388095Y-124088095D01*
X112578571Y-123802380D02*
X112673809Y-123802380D01*
X112769047Y-123850000D01*
X112816666Y-123897619D01*
X112864285Y-123992857D01*
X112911904Y-124183333D01*
X112911904Y-124421428D01*
X112864285Y-124611904D01*
X112816666Y-124707142D01*
X112769047Y-124754761D01*
X112673809Y-124802380D01*
X112578571Y-124802380D01*
X112483333Y-124754761D01*
X112435714Y-124707142D01*
X112388095Y-124611904D01*
X112340476Y-124421428D01*
X112340476Y-124183333D01*
X112388095Y-123992857D01*
X112435714Y-123897619D01*
X112483333Y-123850000D01*
X112578571Y-123802380D01*
X112807142Y-126302380D02*
X112473809Y-125826190D01*
X112235714Y-126302380D02*
X112235714Y-125302380D01*
X112616666Y-125302380D01*
X112711904Y-125350000D01*
X112759523Y-125397619D01*
X112807142Y-125492857D01*
X112807142Y-125635714D01*
X112759523Y-125730952D01*
X112711904Y-125778571D01*
X112616666Y-125826190D01*
X112235714Y-125826190D01*
X113759523Y-126302380D02*
X113188095Y-126302380D01*
X113473809Y-126302380D02*
X113473809Y-125302380D01*
X113378571Y-125445238D01*
X113283333Y-125540476D01*
X113188095Y-125588095D01*
X114711904Y-126302380D02*
X114140476Y-126302380D01*
X114426190Y-126302380D02*
X114426190Y-125302380D01*
X114330952Y-125445238D01*
X114235714Y-125540476D01*
X114140476Y-125588095D01*
X135432142Y-128827380D02*
X135098809Y-128351190D01*
X134860714Y-128827380D02*
X134860714Y-127827380D01*
X135241666Y-127827380D01*
X135336904Y-127875000D01*
X135384523Y-127922619D01*
X135432142Y-128017857D01*
X135432142Y-128160714D01*
X135384523Y-128255952D01*
X135336904Y-128303571D01*
X135241666Y-128351190D01*
X134860714Y-128351190D01*
X136384523Y-128827380D02*
X135813095Y-128827380D01*
X136098809Y-128827380D02*
X136098809Y-127827380D01*
X136003571Y-127970238D01*
X135908333Y-128065476D01*
X135813095Y-128113095D01*
X136765476Y-127922619D02*
X136813095Y-127875000D01*
X136908333Y-127827380D01*
X137146428Y-127827380D01*
X137241666Y-127875000D01*
X137289285Y-127922619D01*
X137336904Y-128017857D01*
X137336904Y-128113095D01*
X137289285Y-128255952D01*
X136717857Y-128827380D01*
X137336904Y-128827380D01*
X127702380Y-128542857D02*
X127226190Y-128876190D01*
X127702380Y-129114285D02*
X126702380Y-129114285D01*
X126702380Y-128733333D01*
X126750000Y-128638095D01*
X126797619Y-128590476D01*
X126892857Y-128542857D01*
X127035714Y-128542857D01*
X127130952Y-128590476D01*
X127178571Y-128638095D01*
X127226190Y-128733333D01*
X127226190Y-129114285D01*
X127702380Y-127590476D02*
X127702380Y-128161904D01*
X127702380Y-127876190D02*
X126702380Y-127876190D01*
X126845238Y-127971428D01*
X126940476Y-128066666D01*
X126988095Y-128161904D01*
X126702380Y-127257142D02*
X126702380Y-126638095D01*
X127083333Y-126971428D01*
X127083333Y-126828571D01*
X127130952Y-126733333D01*
X127178571Y-126685714D01*
X127273809Y-126638095D01*
X127511904Y-126638095D01*
X127607142Y-126685714D01*
X127654761Y-126733333D01*
X127702380Y-126828571D01*
X127702380Y-127114285D01*
X127654761Y-127209523D01*
X127607142Y-127257142D01*
X126983333Y-98007142D02*
X126935714Y-98054761D01*
X126792857Y-98102380D01*
X126697619Y-98102380D01*
X126554761Y-98054761D01*
X126459523Y-97959523D01*
X126411904Y-97864285D01*
X126364285Y-97673809D01*
X126364285Y-97530952D01*
X126411904Y-97340476D01*
X126459523Y-97245238D01*
X126554761Y-97150000D01*
X126697619Y-97102380D01*
X126792857Y-97102380D01*
X126935714Y-97150000D01*
X126983333Y-97197619D01*
X127364285Y-97197619D02*
X127411904Y-97150000D01*
X127507142Y-97102380D01*
X127745238Y-97102380D01*
X127840476Y-97150000D01*
X127888095Y-97197619D01*
X127935714Y-97292857D01*
X127935714Y-97388095D01*
X127888095Y-97530952D01*
X127316666Y-98102380D01*
X127935714Y-98102380D01*
X125483333Y-84007142D02*
X125435714Y-84054761D01*
X125292857Y-84102380D01*
X125197619Y-84102380D01*
X125054761Y-84054761D01*
X124959523Y-83959523D01*
X124911904Y-83864285D01*
X124864285Y-83673809D01*
X124864285Y-83530952D01*
X124911904Y-83340476D01*
X124959523Y-83245238D01*
X125054761Y-83150000D01*
X125197619Y-83102380D01*
X125292857Y-83102380D01*
X125435714Y-83150000D01*
X125483333Y-83197619D01*
X125816666Y-83102380D02*
X126435714Y-83102380D01*
X126102380Y-83483333D01*
X126245238Y-83483333D01*
X126340476Y-83530952D01*
X126388095Y-83578571D01*
X126435714Y-83673809D01*
X126435714Y-83911904D01*
X126388095Y-84007142D01*
X126340476Y-84054761D01*
X126245238Y-84102380D01*
X125959523Y-84102380D01*
X125864285Y-84054761D01*
X125816666Y-84007142D01*
X161257142Y-91566666D02*
X161304761Y-91614285D01*
X161352380Y-91757142D01*
X161352380Y-91852380D01*
X161304761Y-91995238D01*
X161209523Y-92090476D01*
X161114285Y-92138095D01*
X160923809Y-92185714D01*
X160780952Y-92185714D01*
X160590476Y-92138095D01*
X160495238Y-92090476D01*
X160400000Y-91995238D01*
X160352380Y-91852380D01*
X160352380Y-91757142D01*
X160400000Y-91614285D01*
X160447619Y-91566666D01*
X161352380Y-91090476D02*
X161352380Y-90900000D01*
X161304761Y-90804761D01*
X161257142Y-90757142D01*
X161114285Y-90661904D01*
X160923809Y-90614285D01*
X160542857Y-90614285D01*
X160447619Y-90661904D01*
X160400000Y-90709523D01*
X160352380Y-90804761D01*
X160352380Y-90995238D01*
X160400000Y-91090476D01*
X160447619Y-91138095D01*
X160542857Y-91185714D01*
X160780952Y-91185714D01*
X160876190Y-91138095D01*
X160923809Y-91090476D01*
X160971428Y-90995238D01*
X160971428Y-90804761D01*
X160923809Y-90709523D01*
X160876190Y-90661904D01*
X160780952Y-90614285D01*
X162507142Y-77792857D02*
X162554761Y-77840476D01*
X162602380Y-77983333D01*
X162602380Y-78078571D01*
X162554761Y-78221428D01*
X162459523Y-78316666D01*
X162364285Y-78364285D01*
X162173809Y-78411904D01*
X162030952Y-78411904D01*
X161840476Y-78364285D01*
X161745238Y-78316666D01*
X161650000Y-78221428D01*
X161602380Y-78078571D01*
X161602380Y-77983333D01*
X161650000Y-77840476D01*
X161697619Y-77792857D01*
X162602380Y-76840476D02*
X162602380Y-77411904D01*
X162602380Y-77126190D02*
X161602380Y-77126190D01*
X161745238Y-77221428D01*
X161840476Y-77316666D01*
X161888095Y-77411904D01*
X161602380Y-76221428D02*
X161602380Y-76126190D01*
X161650000Y-76030952D01*
X161697619Y-75983333D01*
X161792857Y-75935714D01*
X161983333Y-75888095D01*
X162221428Y-75888095D01*
X162411904Y-75935714D01*
X162507142Y-75983333D01*
X162554761Y-76030952D01*
X162602380Y-76126190D01*
X162602380Y-76221428D01*
X162554761Y-76316666D01*
X162507142Y-76364285D01*
X162411904Y-76411904D01*
X162221428Y-76459523D01*
X161983333Y-76459523D01*
X161792857Y-76411904D01*
X161697619Y-76364285D01*
X161650000Y-76316666D01*
X161602380Y-76221428D01*
X168711904Y-102302380D02*
X168711904Y-101302380D01*
X168950000Y-101302380D01*
X169092857Y-101350000D01*
X169188095Y-101445238D01*
X169235714Y-101540476D01*
X169283333Y-101730952D01*
X169283333Y-101873809D01*
X169235714Y-102064285D01*
X169188095Y-102159523D01*
X169092857Y-102254761D01*
X168950000Y-102302380D01*
X168711904Y-102302380D01*
X169664285Y-101397619D02*
X169711904Y-101350000D01*
X169807142Y-101302380D01*
X170045238Y-101302380D01*
X170140476Y-101350000D01*
X170188095Y-101397619D01*
X170235714Y-101492857D01*
X170235714Y-101588095D01*
X170188095Y-101730952D01*
X169616666Y-102302380D01*
X170235714Y-102302380D01*
X123887380Y-81373095D02*
X122887380Y-81373095D01*
X122887380Y-81135000D01*
X122935000Y-80992142D01*
X123030238Y-80896904D01*
X123125476Y-80849285D01*
X123315952Y-80801666D01*
X123458809Y-80801666D01*
X123649285Y-80849285D01*
X123744523Y-80896904D01*
X123839761Y-80992142D01*
X123887380Y-81135000D01*
X123887380Y-81373095D01*
X123220714Y-79944523D02*
X123887380Y-79944523D01*
X122839761Y-80182619D02*
X123554047Y-80420714D01*
X123554047Y-79801666D01*
X116516666Y-118002380D02*
X116516666Y-118716666D01*
X116469047Y-118859523D01*
X116373809Y-118954761D01*
X116230952Y-119002380D01*
X116135714Y-119002380D01*
X117516666Y-119002380D02*
X116945238Y-119002380D01*
X117230952Y-119002380D02*
X117230952Y-118002380D01*
X117135714Y-118145238D01*
X117040476Y-118240476D01*
X116945238Y-118288095D01*
X158216666Y-98402380D02*
X158216666Y-99116666D01*
X158169047Y-99259523D01*
X158073809Y-99354761D01*
X157930952Y-99402380D01*
X157835714Y-99402380D01*
X158645238Y-98497619D02*
X158692857Y-98450000D01*
X158788095Y-98402380D01*
X159026190Y-98402380D01*
X159121428Y-98450000D01*
X159169047Y-98497619D01*
X159216666Y-98592857D01*
X159216666Y-98688095D01*
X159169047Y-98830952D01*
X158597619Y-99402380D01*
X159216666Y-99402380D01*
X173016666Y-85312380D02*
X173016666Y-86026666D01*
X172969047Y-86169523D01*
X172873809Y-86264761D01*
X172730952Y-86312380D01*
X172635714Y-86312380D01*
X173397619Y-85312380D02*
X174016666Y-85312380D01*
X173683333Y-85693333D01*
X173826190Y-85693333D01*
X173921428Y-85740952D01*
X173969047Y-85788571D01*
X174016666Y-85883809D01*
X174016666Y-86121904D01*
X173969047Y-86217142D01*
X173921428Y-86264761D01*
X173826190Y-86312380D01*
X173540476Y-86312380D01*
X173445238Y-86264761D01*
X173397619Y-86217142D01*
X114602380Y-83316666D02*
X114126190Y-83650000D01*
X114602380Y-83888095D02*
X113602380Y-83888095D01*
X113602380Y-83507142D01*
X113650000Y-83411904D01*
X113697619Y-83364285D01*
X113792857Y-83316666D01*
X113935714Y-83316666D01*
X114030952Y-83364285D01*
X114078571Y-83411904D01*
X114126190Y-83507142D01*
X114126190Y-83888095D01*
X114602380Y-82364285D02*
X114602380Y-82935714D01*
X114602380Y-82650000D02*
X113602380Y-82650000D01*
X113745238Y-82745238D01*
X113840476Y-82840476D01*
X113888095Y-82935714D01*
X125937380Y-80801666D02*
X125461190Y-81135000D01*
X125937380Y-81373095D02*
X124937380Y-81373095D01*
X124937380Y-80992142D01*
X124985000Y-80896904D01*
X125032619Y-80849285D01*
X125127857Y-80801666D01*
X125270714Y-80801666D01*
X125365952Y-80849285D01*
X125413571Y-80896904D01*
X125461190Y-80992142D01*
X125461190Y-81373095D01*
X124937380Y-79896904D02*
X124937380Y-80373095D01*
X125413571Y-80420714D01*
X125365952Y-80373095D01*
X125318333Y-80277857D01*
X125318333Y-80039761D01*
X125365952Y-79944523D01*
X125413571Y-79896904D01*
X125508809Y-79849285D01*
X125746904Y-79849285D01*
X125842142Y-79896904D01*
X125889761Y-79944523D01*
X125937380Y-80039761D01*
X125937380Y-80277857D01*
X125889761Y-80373095D01*
X125842142Y-80420714D01*
X144238095Y-95602380D02*
X144238095Y-96411904D01*
X144285714Y-96507142D01*
X144333333Y-96554761D01*
X144428571Y-96602380D01*
X144619047Y-96602380D01*
X144714285Y-96554761D01*
X144761904Y-96507142D01*
X144809523Y-96411904D01*
X144809523Y-95602380D01*
X145809523Y-96602380D02*
X145238095Y-96602380D01*
X145523809Y-96602380D02*
X145523809Y-95602380D01*
X145428571Y-95745238D01*
X145333333Y-95840476D01*
X145238095Y-95888095D01*
X144088095Y-128702380D02*
X144088095Y-129511904D01*
X144135714Y-129607142D01*
X144183333Y-129654761D01*
X144278571Y-129702380D01*
X144469047Y-129702380D01*
X144564285Y-129654761D01*
X144611904Y-129607142D01*
X144659523Y-129511904D01*
X144659523Y-128702380D01*
X145040476Y-128702380D02*
X145659523Y-128702380D01*
X145326190Y-129083333D01*
X145469047Y-129083333D01*
X145564285Y-129130952D01*
X145611904Y-129178571D01*
X145659523Y-129273809D01*
X145659523Y-129511904D01*
X145611904Y-129607142D01*
X145564285Y-129654761D01*
X145469047Y-129702380D01*
X145183333Y-129702380D01*
X145088095Y-129654761D01*
X145040476Y-129607142D01*
X163638095Y-80102380D02*
X163638095Y-80911904D01*
X163685714Y-81007142D01*
X163733333Y-81054761D01*
X163828571Y-81102380D01*
X164019047Y-81102380D01*
X164114285Y-81054761D01*
X164161904Y-81007142D01*
X164209523Y-80911904D01*
X164209523Y-80102380D01*
X165161904Y-80102380D02*
X164685714Y-80102380D01*
X164638095Y-80578571D01*
X164685714Y-80530952D01*
X164780952Y-80483333D01*
X165019047Y-80483333D01*
X165114285Y-80530952D01*
X165161904Y-80578571D01*
X165209523Y-80673809D01*
X165209523Y-80911904D01*
X165161904Y-81007142D01*
X165114285Y-81054761D01*
X165019047Y-81102380D01*
X164780952Y-81102380D01*
X164685714Y-81054761D01*
X164638095Y-81007142D01*
X110004761Y-88483333D02*
X110052380Y-88340476D01*
X110052380Y-88102380D01*
X110004761Y-88007142D01*
X109957142Y-87959523D01*
X109861904Y-87911904D01*
X109766666Y-87911904D01*
X109671428Y-87959523D01*
X109623809Y-88007142D01*
X109576190Y-88102380D01*
X109528571Y-88292857D01*
X109480952Y-88388095D01*
X109433333Y-88435714D01*
X109338095Y-88483333D01*
X109242857Y-88483333D01*
X109147619Y-88435714D01*
X109100000Y-88388095D01*
X109052380Y-88292857D01*
X109052380Y-88054761D01*
X109100000Y-87911904D01*
X109052380Y-87578571D02*
X110052380Y-87340476D01*
X109338095Y-87150000D01*
X110052380Y-86959523D01*
X109052380Y-86721428D01*
X110052380Y-85816666D02*
X110052380Y-86388095D01*
X110052380Y-86102380D02*
X109052380Y-86102380D01*
X109195238Y-86197619D01*
X109290476Y-86292857D01*
X109338095Y-86388095D01*
X115004761Y-88483333D02*
X115052380Y-88340476D01*
X115052380Y-88102380D01*
X115004761Y-88007142D01*
X114957142Y-87959523D01*
X114861904Y-87911904D01*
X114766666Y-87911904D01*
X114671428Y-87959523D01*
X114623809Y-88007142D01*
X114576190Y-88102380D01*
X114528571Y-88292857D01*
X114480952Y-88388095D01*
X114433333Y-88435714D01*
X114338095Y-88483333D01*
X114242857Y-88483333D01*
X114147619Y-88435714D01*
X114100000Y-88388095D01*
X114052380Y-88292857D01*
X114052380Y-88054761D01*
X114100000Y-87911904D01*
X114052380Y-87578571D02*
X115052380Y-87340476D01*
X114338095Y-87150000D01*
X115052380Y-86959523D01*
X114052380Y-86721428D01*
X114147619Y-86388095D02*
X114100000Y-86340476D01*
X114052380Y-86245238D01*
X114052380Y-86007142D01*
X114100000Y-85911904D01*
X114147619Y-85864285D01*
X114242857Y-85816666D01*
X114338095Y-85816666D01*
X114480952Y-85864285D01*
X115052380Y-86435714D01*
X115052380Y-85816666D01*
X112554761Y-95283333D02*
X112602380Y-95140476D01*
X112602380Y-94902380D01*
X112554761Y-94807142D01*
X112507142Y-94759523D01*
X112411904Y-94711904D01*
X112316666Y-94711904D01*
X112221428Y-94759523D01*
X112173809Y-94807142D01*
X112126190Y-94902380D01*
X112078571Y-95092857D01*
X112030952Y-95188095D01*
X111983333Y-95235714D01*
X111888095Y-95283333D01*
X111792857Y-95283333D01*
X111697619Y-95235714D01*
X111650000Y-95188095D01*
X111602380Y-95092857D01*
X111602380Y-94854761D01*
X111650000Y-94711904D01*
X111602380Y-94378571D02*
X112602380Y-94140476D01*
X111888095Y-93950000D01*
X112602380Y-93759523D01*
X111602380Y-93521428D01*
X111602380Y-93235714D02*
X111602380Y-92616666D01*
X111983333Y-92950000D01*
X111983333Y-92807142D01*
X112030952Y-92711904D01*
X112078571Y-92664285D01*
X112173809Y-92616666D01*
X112411904Y-92616666D01*
X112507142Y-92664285D01*
X112554761Y-92711904D01*
X112602380Y-92807142D01*
X112602380Y-93092857D01*
X112554761Y-93188095D01*
X112507142Y-93235714D01*
X132527142Y-83612857D02*
X132574761Y-83660476D01*
X132622380Y-83803333D01*
X132622380Y-83898571D01*
X132574761Y-84041428D01*
X132479523Y-84136666D01*
X132384285Y-84184285D01*
X132193809Y-84231904D01*
X132050952Y-84231904D01*
X131860476Y-84184285D01*
X131765238Y-84136666D01*
X131670000Y-84041428D01*
X131622380Y-83898571D01*
X131622380Y-83803333D01*
X131670000Y-83660476D01*
X131717619Y-83612857D01*
X132622380Y-82660476D02*
X132622380Y-83231904D01*
X132622380Y-82946190D02*
X131622380Y-82946190D01*
X131765238Y-83041428D01*
X131860476Y-83136666D01*
X131908095Y-83231904D01*
X131717619Y-82279523D02*
X131670000Y-82231904D01*
X131622380Y-82136666D01*
X131622380Y-81898571D01*
X131670000Y-81803333D01*
X131717619Y-81755714D01*
X131812857Y-81708095D01*
X131908095Y-81708095D01*
X132050952Y-81755714D01*
X132622380Y-82327142D01*
X132622380Y-81708095D01*
X119552380Y-83316666D02*
X119076190Y-83650000D01*
X119552380Y-83888095D02*
X118552380Y-83888095D01*
X118552380Y-83507142D01*
X118600000Y-83411904D01*
X118647619Y-83364285D01*
X118742857Y-83316666D01*
X118885714Y-83316666D01*
X118980952Y-83364285D01*
X119028571Y-83411904D01*
X119076190Y-83507142D01*
X119076190Y-83888095D01*
X118980952Y-82745238D02*
X118933333Y-82840476D01*
X118885714Y-82888095D01*
X118790476Y-82935714D01*
X118742857Y-82935714D01*
X118647619Y-82888095D01*
X118600000Y-82840476D01*
X118552380Y-82745238D01*
X118552380Y-82554761D01*
X118600000Y-82459523D01*
X118647619Y-82411904D01*
X118742857Y-82364285D01*
X118790476Y-82364285D01*
X118885714Y-82411904D01*
X118933333Y-82459523D01*
X118980952Y-82554761D01*
X118980952Y-82745238D01*
X119028571Y-82840476D01*
X119076190Y-82888095D01*
X119171428Y-82935714D01*
X119361904Y-82935714D01*
X119457142Y-82888095D01*
X119504761Y-82840476D01*
X119552380Y-82745238D01*
X119552380Y-82554761D01*
X119504761Y-82459523D01*
X119457142Y-82411904D01*
X119361904Y-82364285D01*
X119171428Y-82364285D01*
X119076190Y-82411904D01*
X119028571Y-82459523D01*
X118980952Y-82554761D01*
X117602380Y-95316666D02*
X117126190Y-95650000D01*
X117602380Y-95888095D02*
X116602380Y-95888095D01*
X116602380Y-95507142D01*
X116650000Y-95411904D01*
X116697619Y-95364285D01*
X116792857Y-95316666D01*
X116935714Y-95316666D01*
X117030952Y-95364285D01*
X117078571Y-95411904D01*
X117126190Y-95507142D01*
X117126190Y-95888095D01*
X117602380Y-94840476D02*
X117602380Y-94650000D01*
X117554761Y-94554761D01*
X117507142Y-94507142D01*
X117364285Y-94411904D01*
X117173809Y-94364285D01*
X116792857Y-94364285D01*
X116697619Y-94411904D01*
X116650000Y-94459523D01*
X116602380Y-94554761D01*
X116602380Y-94745238D01*
X116650000Y-94840476D01*
X116697619Y-94888095D01*
X116792857Y-94935714D01*
X117030952Y-94935714D01*
X117126190Y-94888095D01*
X117173809Y-94840476D01*
X117221428Y-94745238D01*
X117221428Y-94554761D01*
X117173809Y-94459523D01*
X117126190Y-94411904D01*
X117030952Y-94364285D01*
X122102380Y-94911904D02*
X122911904Y-94911904D01*
X123007142Y-94864285D01*
X123054761Y-94816666D01*
X123102380Y-94721428D01*
X123102380Y-94530952D01*
X123054761Y-94435714D01*
X123007142Y-94388095D01*
X122911904Y-94340476D01*
X122102380Y-94340476D01*
X122197619Y-93911904D02*
X122150000Y-93864285D01*
X122102380Y-93769047D01*
X122102380Y-93530952D01*
X122150000Y-93435714D01*
X122197619Y-93388095D01*
X122292857Y-93340476D01*
X122388095Y-93340476D01*
X122530952Y-93388095D01*
X123102380Y-93959523D01*
X123102380Y-93340476D01*
X118197619Y-109245238D02*
X118150000Y-109340476D01*
X118054761Y-109435714D01*
X117911904Y-109578571D01*
X117864285Y-109673809D01*
X117864285Y-109769047D01*
X118102380Y-109721428D02*
X118054761Y-109816666D01*
X117959523Y-109911904D01*
X117769047Y-109959523D01*
X117435714Y-109959523D01*
X117245238Y-109911904D01*
X117150000Y-109816666D01*
X117102380Y-109721428D01*
X117102380Y-109530952D01*
X117150000Y-109435714D01*
X117245238Y-109340476D01*
X117435714Y-109292857D01*
X117769047Y-109292857D01*
X117959523Y-109340476D01*
X118054761Y-109435714D01*
X118102380Y-109530952D01*
X118102380Y-109721428D01*
X117435714Y-108435714D02*
X118102380Y-108435714D01*
X117054761Y-108673809D02*
X117769047Y-108911904D01*
X117769047Y-108292857D01*
X133672619Y-103745238D02*
X133625000Y-103840476D01*
X133529761Y-103935714D01*
X133386904Y-104078571D01*
X133339285Y-104173809D01*
X133339285Y-104269047D01*
X133577380Y-104221428D02*
X133529761Y-104316666D01*
X133434523Y-104411904D01*
X133244047Y-104459523D01*
X132910714Y-104459523D01*
X132720238Y-104411904D01*
X132625000Y-104316666D01*
X132577380Y-104221428D01*
X132577380Y-104030952D01*
X132625000Y-103935714D01*
X132720238Y-103840476D01*
X132910714Y-103792857D01*
X133244047Y-103792857D01*
X133434523Y-103840476D01*
X133529761Y-103935714D01*
X133577380Y-104030952D01*
X133577380Y-104221428D01*
X132577380Y-102935714D02*
X132577380Y-103126190D01*
X132625000Y-103221428D01*
X132672619Y-103269047D01*
X132815476Y-103364285D01*
X133005952Y-103411904D01*
X133386904Y-103411904D01*
X133482142Y-103364285D01*
X133529761Y-103316666D01*
X133577380Y-103221428D01*
X133577380Y-103030952D01*
X133529761Y-102935714D01*
X133482142Y-102888095D01*
X133386904Y-102840476D01*
X133148809Y-102840476D01*
X133053571Y-102888095D01*
X133005952Y-102935714D01*
X132958333Y-103030952D01*
X132958333Y-103221428D01*
X133005952Y-103316666D01*
X133053571Y-103364285D01*
X133148809Y-103411904D01*
X109407142Y-123502380D02*
X109073809Y-123026190D01*
X108835714Y-123502380D02*
X108835714Y-122502380D01*
X109216666Y-122502380D01*
X109311904Y-122550000D01*
X109359523Y-122597619D01*
X109407142Y-122692857D01*
X109407142Y-122835714D01*
X109359523Y-122930952D01*
X109311904Y-122978571D01*
X109216666Y-123026190D01*
X108835714Y-123026190D01*
X110359523Y-123502380D02*
X109788095Y-123502380D01*
X110073809Y-123502380D02*
X110073809Y-122502380D01*
X109978571Y-122645238D01*
X109883333Y-122740476D01*
X109788095Y-122788095D01*
X111216666Y-122835714D02*
X111216666Y-123502380D01*
X110978571Y-122454761D02*
X110740476Y-123169047D01*
X111359523Y-123169047D01*
X133307142Y-101102380D02*
X132973809Y-100626190D01*
X132735714Y-101102380D02*
X132735714Y-100102380D01*
X133116666Y-100102380D01*
X133211904Y-100150000D01*
X133259523Y-100197619D01*
X133307142Y-100292857D01*
X133307142Y-100435714D01*
X133259523Y-100530952D01*
X133211904Y-100578571D01*
X133116666Y-100626190D01*
X132735714Y-100626190D01*
X134259523Y-101102380D02*
X133688095Y-101102380D01*
X133973809Y-101102380D02*
X133973809Y-100102380D01*
X133878571Y-100245238D01*
X133783333Y-100340476D01*
X133688095Y-100388095D01*
X135164285Y-100102380D02*
X134688095Y-100102380D01*
X134640476Y-100578571D01*
X134688095Y-100530952D01*
X134783333Y-100483333D01*
X135021428Y-100483333D01*
X135116666Y-100530952D01*
X135164285Y-100578571D01*
X135211904Y-100673809D01*
X135211904Y-100911904D01*
X135164285Y-101007142D01*
X135116666Y-101054761D01*
X135021428Y-101102380D01*
X134783333Y-101102380D01*
X134688095Y-101054761D01*
X134640476Y-101007142D01*
X133138095Y-110227380D02*
X133138095Y-111036904D01*
X133185714Y-111132142D01*
X133233333Y-111179761D01*
X133328571Y-111227380D01*
X133519047Y-111227380D01*
X133614285Y-111179761D01*
X133661904Y-111132142D01*
X133709523Y-111036904D01*
X133709523Y-110227380D01*
X134614285Y-110227380D02*
X134423809Y-110227380D01*
X134328571Y-110275000D01*
X134280952Y-110322619D01*
X134185714Y-110465476D01*
X134138095Y-110655952D01*
X134138095Y-111036904D01*
X134185714Y-111132142D01*
X134233333Y-111179761D01*
X134328571Y-111227380D01*
X134519047Y-111227380D01*
X134614285Y-111179761D01*
X134661904Y-111132142D01*
X134709523Y-111036904D01*
X134709523Y-110798809D01*
X134661904Y-110703571D01*
X134614285Y-110655952D01*
X134519047Y-110608333D01*
X134328571Y-110608333D01*
X134233333Y-110655952D01*
X134185714Y-110703571D01*
X134138095Y-110798809D01*
X118116666Y-110102380D02*
X118116666Y-110816666D01*
X118069047Y-110959523D01*
X117973809Y-111054761D01*
X117830952Y-111102380D01*
X117735714Y-111102380D01*
X119021428Y-110102380D02*
X118830952Y-110102380D01*
X118735714Y-110150000D01*
X118688095Y-110197619D01*
X118592857Y-110340476D01*
X118545238Y-110530952D01*
X118545238Y-110911904D01*
X118592857Y-111007142D01*
X118640476Y-111054761D01*
X118735714Y-111102380D01*
X118926190Y-111102380D01*
X119021428Y-111054761D01*
X119069047Y-111007142D01*
X119116666Y-110911904D01*
X119116666Y-110673809D01*
X119069047Y-110578571D01*
X119021428Y-110530952D01*
X118926190Y-110483333D01*
X118735714Y-110483333D01*
X118640476Y-110530952D01*
X118592857Y-110578571D01*
X118545238Y-110673809D01*
X169316666Y-119102380D02*
X169316666Y-119816666D01*
X169269047Y-119959523D01*
X169173809Y-120054761D01*
X169030952Y-120102380D01*
X168935714Y-120102380D01*
X169697619Y-119102380D02*
X170364285Y-119102380D01*
X169935714Y-120102380D01*
X168816666Y-109602380D02*
X168816666Y-110316666D01*
X168769047Y-110459523D01*
X168673809Y-110554761D01*
X168530952Y-110602380D01*
X168435714Y-110602380D01*
X169435714Y-110030952D02*
X169340476Y-109983333D01*
X169292857Y-109935714D01*
X169245238Y-109840476D01*
X169245238Y-109792857D01*
X169292857Y-109697619D01*
X169340476Y-109650000D01*
X169435714Y-109602380D01*
X169626190Y-109602380D01*
X169721428Y-109650000D01*
X169769047Y-109697619D01*
X169816666Y-109792857D01*
X169816666Y-109840476D01*
X169769047Y-109935714D01*
X169721428Y-109983333D01*
X169626190Y-110030952D01*
X169435714Y-110030952D01*
X169340476Y-110078571D01*
X169292857Y-110126190D01*
X169245238Y-110221428D01*
X169245238Y-110411904D01*
X169292857Y-110507142D01*
X169340476Y-110554761D01*
X169435714Y-110602380D01*
X169626190Y-110602380D01*
X169721428Y-110554761D01*
X169769047Y-110507142D01*
X169816666Y-110411904D01*
X169816666Y-110221428D01*
X169769047Y-110126190D01*
X169721428Y-110078571D01*
X169626190Y-110030952D01*
X150554761Y-122447619D02*
X150459523Y-122400000D01*
X150364285Y-122304761D01*
X150221428Y-122161904D01*
X150126190Y-122114285D01*
X150030952Y-122114285D01*
X150078571Y-122352380D02*
X149983333Y-122304761D01*
X149888095Y-122209523D01*
X149840476Y-122019047D01*
X149840476Y-121685714D01*
X149888095Y-121495238D01*
X149983333Y-121400000D01*
X150078571Y-121352380D01*
X150269047Y-121352380D01*
X150364285Y-121400000D01*
X150459523Y-121495238D01*
X150507142Y-121685714D01*
X150507142Y-122019047D01*
X150459523Y-122209523D01*
X150364285Y-122304761D01*
X150269047Y-122352380D01*
X150078571Y-122352380D01*
X150888095Y-121447619D02*
X150935714Y-121400000D01*
X151030952Y-121352380D01*
X151269047Y-121352380D01*
X151364285Y-121400000D01*
X151411904Y-121447619D01*
X151459523Y-121542857D01*
X151459523Y-121638095D01*
X151411904Y-121780952D01*
X150840476Y-122352380D01*
X151459523Y-122352380D01*
X150554761Y-113947619D02*
X150459523Y-113900000D01*
X150364285Y-113804761D01*
X150221428Y-113661904D01*
X150126190Y-113614285D01*
X150030952Y-113614285D01*
X150078571Y-113852380D02*
X149983333Y-113804761D01*
X149888095Y-113709523D01*
X149840476Y-113519047D01*
X149840476Y-113185714D01*
X149888095Y-112995238D01*
X149983333Y-112900000D01*
X150078571Y-112852380D01*
X150269047Y-112852380D01*
X150364285Y-112900000D01*
X150459523Y-112995238D01*
X150507142Y-113185714D01*
X150507142Y-113519047D01*
X150459523Y-113709523D01*
X150364285Y-113804761D01*
X150269047Y-113852380D01*
X150078571Y-113852380D01*
X151078571Y-113280952D02*
X150983333Y-113233333D01*
X150935714Y-113185714D01*
X150888095Y-113090476D01*
X150888095Y-113042857D01*
X150935714Y-112947619D01*
X150983333Y-112900000D01*
X151078571Y-112852380D01*
X151269047Y-112852380D01*
X151364285Y-112900000D01*
X151411904Y-112947619D01*
X151459523Y-113042857D01*
X151459523Y-113090476D01*
X151411904Y-113185714D01*
X151364285Y-113233333D01*
X151269047Y-113280952D01*
X151078571Y-113280952D01*
X150983333Y-113328571D01*
X150935714Y-113376190D01*
X150888095Y-113471428D01*
X150888095Y-113661904D01*
X150935714Y-113757142D01*
X150983333Y-113804761D01*
X151078571Y-113852380D01*
X151269047Y-113852380D01*
X151364285Y-113804761D01*
X151411904Y-113757142D01*
X151459523Y-113661904D01*
X151459523Y-113471428D01*
X151411904Y-113376190D01*
X151364285Y-113328571D01*
X151269047Y-113280952D01*
X150578571Y-104797619D02*
X150483333Y-104750000D01*
X150388095Y-104654761D01*
X150245238Y-104511904D01*
X150150000Y-104464285D01*
X150054761Y-104464285D01*
X150102380Y-104702380D02*
X150007142Y-104654761D01*
X149911904Y-104559523D01*
X149864285Y-104369047D01*
X149864285Y-104035714D01*
X149911904Y-103845238D01*
X150007142Y-103750000D01*
X150102380Y-103702380D01*
X150292857Y-103702380D01*
X150388095Y-103750000D01*
X150483333Y-103845238D01*
X150530952Y-104035714D01*
X150530952Y-104369047D01*
X150483333Y-104559523D01*
X150388095Y-104654761D01*
X150292857Y-104702380D01*
X150102380Y-104702380D01*
X151483333Y-104702380D02*
X150911904Y-104702380D01*
X151197619Y-104702380D02*
X151197619Y-103702380D01*
X151102380Y-103845238D01*
X151007142Y-103940476D01*
X150911904Y-103988095D01*
X152102380Y-103702380D02*
X152197619Y-103702380D01*
X152292857Y-103750000D01*
X152340476Y-103797619D01*
X152388095Y-103892857D01*
X152435714Y-104083333D01*
X152435714Y-104321428D01*
X152388095Y-104511904D01*
X152340476Y-104607142D01*
X152292857Y-104654761D01*
X152197619Y-104702380D01*
X152102380Y-104702380D01*
X152007142Y-104654761D01*
X151959523Y-104607142D01*
X151911904Y-104511904D01*
X151864285Y-104321428D01*
X151864285Y-104083333D01*
X151911904Y-103892857D01*
X151959523Y-103797619D01*
X152007142Y-103750000D01*
X152102380Y-103702380D01*
X146107142Y-126002380D02*
X145773809Y-125526190D01*
X145535714Y-126002380D02*
X145535714Y-125002380D01*
X145916666Y-125002380D01*
X146011904Y-125050000D01*
X146059523Y-125097619D01*
X146107142Y-125192857D01*
X146107142Y-125335714D01*
X146059523Y-125430952D01*
X146011904Y-125478571D01*
X145916666Y-125526190D01*
X145535714Y-125526190D01*
X147059523Y-126002380D02*
X146488095Y-126002380D01*
X146773809Y-126002380D02*
X146773809Y-125002380D01*
X146678571Y-125145238D01*
X146583333Y-125240476D01*
X146488095Y-125288095D01*
X147916666Y-125002380D02*
X147726190Y-125002380D01*
X147630952Y-125050000D01*
X147583333Y-125097619D01*
X147488095Y-125240476D01*
X147440476Y-125430952D01*
X147440476Y-125811904D01*
X147488095Y-125907142D01*
X147535714Y-125954761D01*
X147630952Y-126002380D01*
X147821428Y-126002380D01*
X147916666Y-125954761D01*
X147964285Y-125907142D01*
X148011904Y-125811904D01*
X148011904Y-125573809D01*
X147964285Y-125478571D01*
X147916666Y-125430952D01*
X147821428Y-125383333D01*
X147630952Y-125383333D01*
X147535714Y-125430952D01*
X147488095Y-125478571D01*
X147440476Y-125573809D01*
X144982380Y-117892857D02*
X144506190Y-118226190D01*
X144982380Y-118464285D02*
X143982380Y-118464285D01*
X143982380Y-118083333D01*
X144030000Y-117988095D01*
X144077619Y-117940476D01*
X144172857Y-117892857D01*
X144315714Y-117892857D01*
X144410952Y-117940476D01*
X144458571Y-117988095D01*
X144506190Y-118083333D01*
X144506190Y-118464285D01*
X144982380Y-116940476D02*
X144982380Y-117511904D01*
X144982380Y-117226190D02*
X143982380Y-117226190D01*
X144125238Y-117321428D01*
X144220476Y-117416666D01*
X144268095Y-117511904D01*
X143982380Y-116607142D02*
X143982380Y-115940476D01*
X144982380Y-116369047D01*
X115707142Y-130502380D02*
X115373809Y-130026190D01*
X115135714Y-130502380D02*
X115135714Y-129502380D01*
X115516666Y-129502380D01*
X115611904Y-129550000D01*
X115659523Y-129597619D01*
X115707142Y-129692857D01*
X115707142Y-129835714D01*
X115659523Y-129930952D01*
X115611904Y-129978571D01*
X115516666Y-130026190D01*
X115135714Y-130026190D01*
X116659523Y-130502380D02*
X116088095Y-130502380D01*
X116373809Y-130502380D02*
X116373809Y-129502380D01*
X116278571Y-129645238D01*
X116183333Y-129740476D01*
X116088095Y-129788095D01*
X117230952Y-129930952D02*
X117135714Y-129883333D01*
X117088095Y-129835714D01*
X117040476Y-129740476D01*
X117040476Y-129692857D01*
X117088095Y-129597619D01*
X117135714Y-129550000D01*
X117230952Y-129502380D01*
X117421428Y-129502380D01*
X117516666Y-129550000D01*
X117564285Y-129597619D01*
X117611904Y-129692857D01*
X117611904Y-129740476D01*
X117564285Y-129835714D01*
X117516666Y-129883333D01*
X117421428Y-129930952D01*
X117230952Y-129930952D01*
X117135714Y-129978571D01*
X117088095Y-130026190D01*
X117040476Y-130121428D01*
X117040476Y-130311904D01*
X117088095Y-130407142D01*
X117135714Y-130454761D01*
X117230952Y-130502380D01*
X117421428Y-130502380D01*
X117516666Y-130454761D01*
X117564285Y-130407142D01*
X117611904Y-130311904D01*
X117611904Y-130121428D01*
X117564285Y-130026190D01*
X117516666Y-129978571D01*
X117421428Y-129930952D01*
X112707142Y-127802380D02*
X112373809Y-127326190D01*
X112135714Y-127802380D02*
X112135714Y-126802380D01*
X112516666Y-126802380D01*
X112611904Y-126850000D01*
X112659523Y-126897619D01*
X112707142Y-126992857D01*
X112707142Y-127135714D01*
X112659523Y-127230952D01*
X112611904Y-127278571D01*
X112516666Y-127326190D01*
X112135714Y-127326190D01*
X113659523Y-127802380D02*
X113088095Y-127802380D01*
X113373809Y-127802380D02*
X113373809Y-126802380D01*
X113278571Y-126945238D01*
X113183333Y-127040476D01*
X113088095Y-127088095D01*
X114135714Y-127802380D02*
X114326190Y-127802380D01*
X114421428Y-127754761D01*
X114469047Y-127707142D01*
X114564285Y-127564285D01*
X114611904Y-127373809D01*
X114611904Y-126992857D01*
X114564285Y-126897619D01*
X114516666Y-126850000D01*
X114421428Y-126802380D01*
X114230952Y-126802380D01*
X114135714Y-126850000D01*
X114088095Y-126897619D01*
X114040476Y-126992857D01*
X114040476Y-127230952D01*
X114088095Y-127326190D01*
X114135714Y-127373809D01*
X114230952Y-127421428D01*
X114421428Y-127421428D01*
X114516666Y-127373809D01*
X114564285Y-127326190D01*
X114611904Y-127230952D01*
X146442380Y-108982857D02*
X145966190Y-109316190D01*
X146442380Y-109554285D02*
X145442380Y-109554285D01*
X145442380Y-109173333D01*
X145490000Y-109078095D01*
X145537619Y-109030476D01*
X145632857Y-108982857D01*
X145775714Y-108982857D01*
X145870952Y-109030476D01*
X145918571Y-109078095D01*
X145966190Y-109173333D01*
X145966190Y-109554285D01*
X145537619Y-108601904D02*
X145490000Y-108554285D01*
X145442380Y-108459047D01*
X145442380Y-108220952D01*
X145490000Y-108125714D01*
X145537619Y-108078095D01*
X145632857Y-108030476D01*
X145728095Y-108030476D01*
X145870952Y-108078095D01*
X146442380Y-108649523D01*
X146442380Y-108030476D01*
X145442380Y-107411428D02*
X145442380Y-107316190D01*
X145490000Y-107220952D01*
X145537619Y-107173333D01*
X145632857Y-107125714D01*
X145823333Y-107078095D01*
X146061428Y-107078095D01*
X146251904Y-107125714D01*
X146347142Y-107173333D01*
X146394761Y-107220952D01*
X146442380Y-107316190D01*
X146442380Y-107411428D01*
X146394761Y-107506666D01*
X146347142Y-107554285D01*
X146251904Y-107601904D01*
X146061428Y-107649523D01*
X145823333Y-107649523D01*
X145632857Y-107601904D01*
X145537619Y-107554285D01*
X145490000Y-107506666D01*
X145442380Y-107411428D01*
X120388095Y-98602380D02*
X120388095Y-99411904D01*
X120435714Y-99507142D01*
X120483333Y-99554761D01*
X120578571Y-99602380D01*
X120769047Y-99602380D01*
X120864285Y-99554761D01*
X120911904Y-99507142D01*
X120959523Y-99411904D01*
X120959523Y-98602380D01*
X121864285Y-98935714D02*
X121864285Y-99602380D01*
X121626190Y-98554761D02*
X121388095Y-99269047D01*
X122007142Y-99269047D01*
X166516666Y-129802380D02*
X166516666Y-130516666D01*
X166469047Y-130659523D01*
X166373809Y-130754761D01*
X166230952Y-130802380D01*
X166135714Y-130802380D01*
X167469047Y-129802380D02*
X166992857Y-129802380D01*
X166945238Y-130278571D01*
X166992857Y-130230952D01*
X167088095Y-130183333D01*
X167326190Y-130183333D01*
X167421428Y-130230952D01*
X167469047Y-130278571D01*
X167516666Y-130373809D01*
X167516666Y-130611904D01*
X167469047Y-130707142D01*
X167421428Y-130754761D01*
X167326190Y-130802380D01*
X167088095Y-130802380D01*
X166992857Y-130754761D01*
X166945238Y-130707142D01*
X117407142Y-99602380D02*
X117073809Y-99126190D01*
X116835714Y-99602380D02*
X116835714Y-98602380D01*
X117216666Y-98602380D01*
X117311904Y-98650000D01*
X117359523Y-98697619D01*
X117407142Y-98792857D01*
X117407142Y-98935714D01*
X117359523Y-99030952D01*
X117311904Y-99078571D01*
X117216666Y-99126190D01*
X116835714Y-99126190D01*
X117788095Y-98697619D02*
X117835714Y-98650000D01*
X117930952Y-98602380D01*
X118169047Y-98602380D01*
X118264285Y-98650000D01*
X118311904Y-98697619D01*
X118359523Y-98792857D01*
X118359523Y-98888095D01*
X118311904Y-99030952D01*
X117740476Y-99602380D01*
X118359523Y-99602380D01*
X119311904Y-99602380D02*
X118740476Y-99602380D01*
X119026190Y-99602380D02*
X119026190Y-98602380D01*
X118930952Y-98745238D01*
X118835714Y-98840476D01*
X118740476Y-98888095D01*
X108707142Y-100202380D02*
X108373809Y-99726190D01*
X108135714Y-100202380D02*
X108135714Y-99202380D01*
X108516666Y-99202380D01*
X108611904Y-99250000D01*
X108659523Y-99297619D01*
X108707142Y-99392857D01*
X108707142Y-99535714D01*
X108659523Y-99630952D01*
X108611904Y-99678571D01*
X108516666Y-99726190D01*
X108135714Y-99726190D01*
X109088095Y-99297619D02*
X109135714Y-99250000D01*
X109230952Y-99202380D01*
X109469047Y-99202380D01*
X109564285Y-99250000D01*
X109611904Y-99297619D01*
X109659523Y-99392857D01*
X109659523Y-99488095D01*
X109611904Y-99630952D01*
X109040476Y-100202380D01*
X109659523Y-100202380D01*
X110040476Y-99297619D02*
X110088095Y-99250000D01*
X110183333Y-99202380D01*
X110421428Y-99202380D01*
X110516666Y-99250000D01*
X110564285Y-99297619D01*
X110611904Y-99392857D01*
X110611904Y-99488095D01*
X110564285Y-99630952D01*
X109992857Y-100202380D01*
X110611904Y-100202380D01*
X149902380Y-132392857D02*
X149426190Y-132726190D01*
X149902380Y-132964285D02*
X148902380Y-132964285D01*
X148902380Y-132583333D01*
X148950000Y-132488095D01*
X148997619Y-132440476D01*
X149092857Y-132392857D01*
X149235714Y-132392857D01*
X149330952Y-132440476D01*
X149378571Y-132488095D01*
X149426190Y-132583333D01*
X149426190Y-132964285D01*
X148997619Y-132011904D02*
X148950000Y-131964285D01*
X148902380Y-131869047D01*
X148902380Y-131630952D01*
X148950000Y-131535714D01*
X148997619Y-131488095D01*
X149092857Y-131440476D01*
X149188095Y-131440476D01*
X149330952Y-131488095D01*
X149902380Y-132059523D01*
X149902380Y-131440476D01*
X148902380Y-131107142D02*
X148902380Y-130488095D01*
X149283333Y-130821428D01*
X149283333Y-130678571D01*
X149330952Y-130583333D01*
X149378571Y-130535714D01*
X149473809Y-130488095D01*
X149711904Y-130488095D01*
X149807142Y-130535714D01*
X149854761Y-130583333D01*
X149902380Y-130678571D01*
X149902380Y-130964285D01*
X149854761Y-131059523D01*
X149807142Y-131107142D01*
X154402380Y-132742857D02*
X153926190Y-133076190D01*
X154402380Y-133314285D02*
X153402380Y-133314285D01*
X153402380Y-132933333D01*
X153450000Y-132838095D01*
X153497619Y-132790476D01*
X153592857Y-132742857D01*
X153735714Y-132742857D01*
X153830952Y-132790476D01*
X153878571Y-132838095D01*
X153926190Y-132933333D01*
X153926190Y-133314285D01*
X153497619Y-132361904D02*
X153450000Y-132314285D01*
X153402380Y-132219047D01*
X153402380Y-131980952D01*
X153450000Y-131885714D01*
X153497619Y-131838095D01*
X153592857Y-131790476D01*
X153688095Y-131790476D01*
X153830952Y-131838095D01*
X154402380Y-132409523D01*
X154402380Y-131790476D01*
X153735714Y-130933333D02*
X154402380Y-130933333D01*
X153354761Y-131171428D02*
X154069047Y-131409523D01*
X154069047Y-130790476D01*
X137707142Y-120016666D02*
X137754761Y-120064285D01*
X137802380Y-120207142D01*
X137802380Y-120302380D01*
X137754761Y-120445238D01*
X137659523Y-120540476D01*
X137564285Y-120588095D01*
X137373809Y-120635714D01*
X137230952Y-120635714D01*
X137040476Y-120588095D01*
X136945238Y-120540476D01*
X136850000Y-120445238D01*
X136802380Y-120302380D01*
X136802380Y-120207142D01*
X136850000Y-120064285D01*
X136897619Y-120016666D01*
X137135714Y-119159523D02*
X137802380Y-119159523D01*
X136754761Y-119397619D02*
X137469047Y-119635714D01*
X137469047Y-119016666D01*
X139807142Y-132866666D02*
X139854761Y-132914285D01*
X139902380Y-133057142D01*
X139902380Y-133152380D01*
X139854761Y-133295238D01*
X139759523Y-133390476D01*
X139664285Y-133438095D01*
X139473809Y-133485714D01*
X139330952Y-133485714D01*
X139140476Y-133438095D01*
X139045238Y-133390476D01*
X138950000Y-133295238D01*
X138902380Y-133152380D01*
X138902380Y-133057142D01*
X138950000Y-132914285D01*
X138997619Y-132866666D01*
X138902380Y-132533333D02*
X138902380Y-131866666D01*
X139902380Y-132295238D01*
X127607142Y-83707142D02*
X127559523Y-83754761D01*
X127416666Y-83802380D01*
X127321428Y-83802380D01*
X127178571Y-83754761D01*
X127083333Y-83659523D01*
X127035714Y-83564285D01*
X126988095Y-83373809D01*
X126988095Y-83230952D01*
X127035714Y-83040476D01*
X127083333Y-82945238D01*
X127178571Y-82850000D01*
X127321428Y-82802380D01*
X127416666Y-82802380D01*
X127559523Y-82850000D01*
X127607142Y-82897619D01*
X128559523Y-83802380D02*
X127988095Y-83802380D01*
X128273809Y-83802380D02*
X128273809Y-82802380D01*
X128178571Y-82945238D01*
X128083333Y-83040476D01*
X127988095Y-83088095D01*
X129511904Y-83802380D02*
X128940476Y-83802380D01*
X129226190Y-83802380D02*
X129226190Y-82802380D01*
X129130952Y-82945238D01*
X129035714Y-83040476D01*
X128940476Y-83088095D01*
M02*
