M48
; DRILL file {KiCad (5.1.7-0-10_14)} date Monday, February 01, 2021 at 09:43:11 PM
; FORMAT={-:-/ absolute / metric / decimal}
; #@! TF.CreationDate,2021-02-01T21:43:11+11:00
; #@! TF.GenerationSoftware,Kicad,Pcbnew,(5.1.7-0-10_14)
; #@! TF.FileFunction,Plated,1,2,PTH
FMAT,2
METRIC
T1C0.400
T2C0.500
T3C1.000
T4C3.200
T5C4.500
%
G90
G05
T1
X108.65Y-81.65
X108.65Y-125.35
X108.65Y-127.15
X110.475Y-119.15
X111.65Y-101.15
X112.75Y-119.15
X113.85Y-101.35
X114.15Y-81.15
X114.15Y-90.15
X115.15Y-133.15
X115.45Y-93.05
X115.75Y-76.15
X116.65Y-96.95
X116.75Y-119.15
X116.95Y-115.75
X117.15Y-112.55
X117.15Y-133.15
X117.54Y-76.15
X117.65Y-90.15
X118.25Y-90.95
X118.25Y-92.55
X118.35Y-122.25
X119.1Y-94.56
X119.15Y-133.15
X119.45Y-97.25
X119.45Y-99.15
X119.58Y-76.2
X120.15Y-100.75
X120.65Y-87.15
X120.65Y-89.15
X120.65Y-91.15
X121.25Y-97.25
X121.55Y-76.07
X122.25Y-129.35
X122.294Y-94.484
X122.65Y-87.15
X122.65Y-91.15
X123.05Y-97.25
X123.65Y-76.15
X124.65Y-87.15
X124.65Y-89.15
X124.65Y-91.15
X124.85Y-109.25
X124.85Y-110.8
X125.45Y-76.05
X126.85Y-92.95
X126.85Y-122.45
X126.85Y-124.95
X126.85Y-127.55
X127.05Y-95.15
X127.064Y-79.989
X127.45Y-90.55
X127.75Y-92.05
X128.068Y-83.45
X131.35Y-88.85
X131.777Y-91.623
X131.85Y-85.55
X132.05Y-81.85
X132.95Y-96.95
X133.72Y-95.745
X133.95Y-88.85
X134.457Y-94.514
X134.535Y-96.325
X134.65Y-93.45
X135.75Y-128.95
X137.15Y-123.15
X137.75Y-101.05
X137.85Y-127.95
X138.45Y-82.95
X138.45Y-84.15
X139.95Y-129.65
X140.25Y-123.85
X141.15Y-97.15
X142.45Y-88.85
X142.45Y-91.75
X143.45Y-131.05
X143.55Y-128.95
X144.05Y-90.25
X144.79Y-84.86
X145.575Y-130.2
X145.62Y-128.466
X145.75Y-88.95
X145.75Y-91.75
X150.65Y-90.65
X151.25Y-82.95
X152.05Y-101.35
X153.875Y-133.15
X155.15Y-100.4
X155.4Y-92.65
X155.65Y-98.15
X156.65Y-82.75
X156.95Y-87.05
X160.526Y-93.079
X160.9Y-91.4
X162.14Y-93.03
X162.15Y-77.85
X163.15Y-99.4
X163.725Y-110.175
X165.65Y-93.65
X165.65Y-133.38
X166.05Y-83.45
X168.03Y-133.38
X169.65Y-110.95
X169.82Y-90.66
X170.15Y-120.75
X171.75Y-105.55
X172.25Y-115.55
X172.65Y-126.65
X174.475Y-126.65
T2
X117.65Y-106.15
X117.65Y-108.15
X117.65Y-110.15
X118.85Y-114.05
X119.85Y-105.76
X119.95Y-107.95
X120.05Y-110.05
X120.55Y-114.05
X121.25Y-108.95
X121.92Y-103.9
X121.93Y-105.57
X122.25Y-100.25
X122.25Y-101.65
X122.45Y-107.95
X122.45Y-110.05
X122.45Y-114.05
X123.65Y-99.4
X123.97Y-105.74
X124.35Y-114.05
X125.4Y-99.4
X125.65Y-101.75
X127.15Y-99.4
X128.35Y-106.475
X128.525Y-101.95
X128.525Y-104.15
X128.65Y-112.15
X128.65Y-115.15
X129.15Y-99.4
X129.525Y-109.15
X129.625Y-103.05
X129.725Y-106.475
X130.825Y-101.95
X130.825Y-104.15
X132.9Y-107.4
X133.65Y-113.15
X134.65Y-104.15
X134.65Y-106.15
X134.65Y-108.15
X134.65Y-110.15
X134.65Y-115.15
X135.15Y-120.15
X136.65Y-104.15
X136.65Y-106.15
X136.65Y-108.15
X136.65Y-110.15
X136.65Y-112.15
X137.65Y-102.9
X138.65Y-104.15
X138.65Y-106.15
X138.65Y-108.15
X138.65Y-110.15
X138.65Y-112.15
X138.65Y-114.15
X138.65Y-116.15
X138.65Y-118.15
X139.9Y-102.9
X140.65Y-104.15
X140.65Y-106.15
X140.65Y-108.15
X140.65Y-110.15
X140.65Y-112.15
X140.65Y-114.15
X140.65Y-116.15
X140.65Y-118.15
X140.65Y-120.15
X145.15Y-102.85
X145.15Y-105.55
X145.15Y-111.55
X145.15Y-114.15
X145.15Y-120.55
X145.15Y-123.25
X146.35Y-104.15
X146.35Y-112.85
X146.35Y-121.85
X147.55Y-102.85
X147.55Y-105.55
X147.55Y-111.55
X147.55Y-114.15
X147.65Y-120.55
X147.65Y-123.25
X149.65Y-104.15
X149.65Y-106.15
X149.65Y-112.15
X149.65Y-114.15
X149.65Y-120.15
X149.65Y-122.15
X149.65Y-124.15
X151.65Y-104.15
X151.65Y-106.15
X151.65Y-112.15
X151.65Y-114.15
X151.65Y-120.15
X151.65Y-122.15
X151.65Y-124.15
X151.65Y-126.15
X152.65Y-108.15
X152.65Y-128.15
X153.65Y-104.15
X153.65Y-106.15
X153.65Y-112.15
X153.65Y-114.15
X153.65Y-116.15
X153.65Y-120.15
X153.65Y-122.15
X153.65Y-124.15
X153.65Y-126.15
X154.65Y-108.15
X154.65Y-128.15
X155.65Y-103.15
X155.65Y-112.15
X155.65Y-118.15
X155.65Y-121.55
X156.65Y-129.15
X158.65Y-130.15
X160.65Y-129.15
X108.75Y-78.65
X109.453Y-76.953
X109.453Y-80.347
X111.15Y-76.25
X111.15Y-81.05
X112.847Y-76.953
X112.847Y-80.347
X113.55Y-78.65
X169.55Y-78.55
X170.253Y-76.853
X170.253Y-80.247
X171.95Y-76.15
X171.95Y-80.95
X173.647Y-76.853
X173.647Y-80.247
X174.35Y-78.55
X108.75Y-130.85
X109.453Y-129.153
X109.453Y-132.547
X111.15Y-128.45
X111.15Y-133.25
X112.847Y-129.153
X112.847Y-132.547
X113.55Y-130.85
X169.55Y-130.85
X170.253Y-129.153
X170.253Y-132.547
X171.95Y-128.45
X171.95Y-133.25
X173.647Y-129.153
X173.647Y-132.547
X174.35Y-130.85
T3
X158.65Y-89.15
X158.65Y-91.69
X158.65Y-94.23
X158.65Y-96.77
T4
X171.95Y-78.55
X111.15Y-130.85
X171.95Y-130.85
X111.15Y-78.65
T5
X158.95Y-106.15
X166.15Y-106.15
X113.45Y-107.95
X113.45Y-115.15
X122.15Y-117.95
X122.15Y-125.15
X131.65Y-117.95
X131.65Y-125.15
X158.95Y-115.65
X166.15Y-115.65
X158.95Y-125.15
X166.15Y-125.15
T0
M30
