M48
; DRILL file {KiCad (5.1.7-0-10_14)} date Friday, November 13, 2020 at 08:56:16 PM
; FORMAT={-:-/ absolute / metric / decimal}
; #@! TF.CreationDate,2020-11-13T20:56:16+11:00
; #@! TF.GenerationSoftware,Kicad,Pcbnew,(5.1.7-0-10_14)
; #@! TF.FileFunction,Plated,1,2,PTH
FMAT,2
METRIC
T1C0.400
T2C0.500
T3C1.000
T4C2.100
T5C2.300
T6C3.200
T7C4.500
%
G90
G05
T1
X102.8Y-117.6
X103.5Y-130.0
X103.5Y-132.0
X104.5Y-85.0
X105.95Y-119.6
X108.55Y-125.95
X109.0Y-98.5
X110.0Y-129.75
X110.25Y-133.25
X116.938Y-131.112
X118.25Y-85.0
X118.5Y-80.25
X118.6Y-112.15
X119.65Y-94.65
X119.8Y-81.85
X122.55Y-96.45
X123.9Y-131.85
X124.0Y-116.9
X124.25Y-77.5
X124.25Y-80.0
X125.4Y-105.1
X125.45Y-108.9
X125.95Y-98.4
X126.15Y-93.0
X127.0Y-116.25
X127.2Y-85.6
X127.3Y-99.2
X127.55Y-119.9
X127.55Y-125.55
X127.95Y-96.1
X128.0Y-130.0
X128.0Y-132.25
X128.95Y-95.05
X130.05Y-97.95
X130.15Y-87.75
X130.5Y-83.8
X131.4Y-88.3
X132.4Y-91.0
X133.2Y-88.0
X133.75Y-90.4
X134.0Y-128.75
X134.0Y-132.5
X134.45Y-92.6
X134.45Y-96.7
X137.0Y-123.25
X137.5Y-101.25
X139.75Y-98.0
X140.25Y-90.0
X140.5Y-118.75
X142.25Y-86.25
X144.25Y-94.5
X148.75Y-85.0
X149.75Y-94.5
X150.75Y-82.25
X150.8Y-102.1
X151.75Y-85.285
X152.25Y-129.75
X152.25Y-133.25
X153.5Y-100.75
X155.75Y-83.0
X156.9Y-96.85
X157.8Y-98.0
X158.7Y-92.4
X160.0Y-87.5
X160.6Y-99.45
X163.05Y-99.4
X164.5Y-97.0
X164.5Y-127.0
X164.75Y-133.5
X165.0Y-77.75
X165.2Y-99.4
X167.55Y-99.4
X167.75Y-77.75
X169.0Y-86.0
X169.0Y-88.25
X171.75Y-97.0
X175.0Y-122.5
X175.75Y-134.5
X177.5Y-132.75
X178.5Y-128.5
X178.95Y-110.55
X179.0Y-104.3
X179.25Y-84.5
X180.4Y-102.75
X180.45Y-112.1
X181.0Y-123.5
X181.0Y-125.0
X182.0Y-93.5
X182.05Y-101.0
X182.05Y-113.9
X184.25Y-96.5
X185.0Y-116.5
X186.0Y-127.25
X186.0Y-132.25
T2
X182.8Y-79.0
X183.503Y-77.303
X183.503Y-80.697
X185.2Y-76.6
X185.2Y-81.4
X186.897Y-77.303
X186.897Y-80.697
X187.6Y-79.0
X103.4Y-137.0
X104.103Y-135.303
X104.103Y-138.697
X105.8Y-134.6
X105.8Y-139.4
X107.497Y-135.303
X107.497Y-138.697
X108.2Y-137.0
X182.8Y-137.0
X183.503Y-135.303
X183.503Y-138.697
X185.2Y-134.6
X185.2Y-139.4
X186.897Y-135.303
X186.897Y-138.697
X187.6Y-137.0
X103.4Y-79.0
X104.103Y-77.303
X104.103Y-80.697
X105.8Y-76.6
X105.8Y-81.4
X107.497Y-77.303
X107.497Y-80.697
X108.2Y-79.0
T3
X176.0Y-79.0
X176.0Y-81.54
X176.0Y-84.08
X176.0Y-86.62
T4
X119.2Y-115.4
X119.3Y-98.6
X176.2Y-115.4
X176.3Y-98.6
T5
X105.9Y-107.0
X109.8Y-107.0
X113.5Y-107.0
X127.7Y-103.2
X127.7Y-107.0
X127.7Y-110.8
X162.9Y-107.0
X166.8Y-107.0
X170.5Y-107.0
X184.7Y-103.2
X184.7Y-107.0
X184.7Y-110.8
T6
X105.8Y-137.0
X185.2Y-137.0
X105.8Y-79.0
X185.2Y-79.0
T7
X120.35Y-127.225
X120.35Y-134.425
X170.0Y-127.275
X170.0Y-134.475
X145.0Y-127.075
X145.0Y-134.275
T0
M30
